<?xml version="1.0" standalone="no"?>
<!DOCTYPE svg PUBLIC "-//W3C//DTD SVG 1.1//EN" "http://www.w3.org/Graphics/SVG/1.1/DTD/svg11.dtd" >
<svg xmlns="http://www.w3.org/2000/svg">
<metadata></metadata>
<defs>
<font id="roihuextralight" horiz-adv-x="1224" >
<font-face units-per-em="2048" ascent="1638" descent="-410" />
<missing-glyph horiz-adv-x="430" />
<glyph unicode="&#xfb00;" horiz-adv-x="1609" d="M82 1032v101h197v112q0 338 317 338q59 0 106.5 -8.5t61.5 -15.5l-21 -99q-59 17 -139 17q-107 0 -158 -51t-51 -177v-116h647v112q0 338 320 338q58 0 106 -8.5t62 -15.5l-23 -99q-57 17 -137 17q-108 0 -158.5 -51t-50.5 -177v-116h338v-101h-338v-1032h-119v1032h-647 v-1032h-116v1032h-197z" />
<glyph unicode="&#xfb01;" horiz-adv-x="1245" d="M82 1032v101h197v112q0 338 317 338q59 0 106.5 -8.5t61.5 -15.5l-21 -99q-59 17 -139 17q-107 0 -158 -51t-51 -177v-116h680v-1133h-119v1032h-561v-1032h-116v1032h-197zM930 1423q0 39 22.5 61.5t63.5 22.5q40 0 63 -23t23 -61q0 -40 -23 -63t-63 -23q-41 0 -63.5 23 t-22.5 63z" />
<glyph unicode="&#xfb02;" horiz-adv-x="1286" d="M82 1032v101h197v112q0 338 317 338q59 0 106.5 -8.5t61.5 -15.5l-21 -99q-59 17 -139 17q-107 0 -158 -51t-51 -177v-116h338v-101h-338v-1032h-116v1032h-197zM997 0v1556h117v-1556h-117z" />
<glyph unicode="&#xfb03;" horiz-adv-x="2007" d="M82 1032v101h197v112q0 338 317 338q59 0 106.5 -8.5t61.5 -15.5l-21 -99q-59 17 -139 17q-107 0 -158 -51t-51 -177v-116h647v112q0 338 320 338q58 0 106 -8.5t62 -15.5l-23 -99q-57 17 -137 17q-108 0 -158.5 -51t-50.5 -177v-116h676v-1133h-117v1032h-559v-1032 h-119v1032h-647v-1032h-116v1032h-197zM1692 1423q0 39 23.5 61.5t64.5 22.5q40 0 63 -23t23 -61q0 -40 -23 -63t-63 -23q-41 0 -64.5 23t-23.5 63z" />
<glyph unicode="&#xfb04;" horiz-adv-x="2052" d="M82 1032v101h197v112q0 338 317 338q59 0 106.5 -8.5t61.5 -15.5l-21 -99q-59 17 -139 17q-107 0 -158 -51t-51 -177v-116h647v112q0 338 320 338q58 0 106 -8.5t62 -15.5l-23 -99q-57 17 -137 17q-108 0 -158.5 -51t-50.5 -177v-116h338v-101h-338v-1032h-119v1032h-647 v-1032h-116v1032h-197zM1763 0v1556h117v-1556h-117z" />
<glyph horiz-adv-x="0" />
<glyph horiz-adv-x="682" />
<glyph horiz-adv-x="0" />
<glyph horiz-adv-x="0" />
<glyph unicode="&#xd;" horiz-adv-x="0" />
<glyph unicode=" "  horiz-adv-x="430" />
<glyph unicode="&#x09;" horiz-adv-x="430" />
<glyph unicode="&#xa0;" horiz-adv-x="430" />
<glyph unicode="!" horiz-adv-x="487" d="M162 63q0 37 21.5 59.5t60.5 22.5t60.5 -22.5t21.5 -59.5q0 -39 -21.5 -61t-60.5 -22t-60.5 22t-21.5 61zM178 1454h131l-18 -1112h-94z" />
<glyph unicode="&#x22;" horiz-adv-x="600" d="M121 1495h115l-21 -477h-76zM365 1495h114l-20 -477h-74z" />
<glyph unicode="#" horiz-adv-x="1482" d="M100 369l11 94h254l59 528h-252l10 94h252l41 369h111l-43 -369h458l41 369h111l-41 -369h250l-12 -94h-248l-60 -528h248l-10 -94h-248l-41 -369h-110l41 369h-459l-41 -369h-109l41 369h-254zM473 463h459l59 528h-459z" />
<glyph unicode="$" horiz-adv-x="1118" d="M131 1087q0 89 30.5 157.5t84.5 110t120 65t146 30.5v190h104v-186q95 -3 178 -19t118 -31l36 -15l-33 -95q-11 6 -33 15.5t-99.5 25t-166.5 15.5v-566q54 -16 93.5 -31.5t86 -38.5t78.5 -52t59.5 -67.5t41.5 -90t14 -113.5q0 -164 -91.5 -265t-281.5 -122v-209h-104v205 q-108 1 -199 18t-129 34l-37 16l29 96q13 -7 38 -17t112 -26.5t186 -16.5v596q-67 20 -115.5 38.5t-102 50.5t-86.5 70.5t-55 97t-22 130.5zM242 1090q0 -61 20.5 -107t60.5 -77.5t83.5 -51.5t105.5 -39v528q-270 -35 -270 -253zM616 111q261 36 261 276q0 61 -20 108.5 t-58.5 80.5t-81 54t-101.5 40v-559z" />
<glyph unicode="%" horiz-adv-x="1681" d="M119 1116q0 54 9 103.5t30.5 97t55 82t86 55.5t118.5 21t118.5 -21t86 -55.5t55 -82t30.5 -97t9 -103.5q0 -69 -15 -129.5t-48 -114t-93.5 -85t-142.5 -31.5t-142.5 31.5t-93.5 85t-48 114t-15 129.5zM217 1116q0 -78 17.5 -137t64.5 -99t119 -40q55 0 95 22t62.5 62 t32.5 87.5t10 104.5t-10 104.5t-32.5 87t-62.5 61.5t-95 22q-106 0 -153.5 -77t-47.5 -198zM481 16l623 1459l88 -35l-623 -1460zM965 338q0 69 15 129.5t48 114t93.5 85t142.5 31.5t142.5 -31.5t92.5 -85t47 -114t15 -129.5q0 -54 -8.5 -103.5t-30 -97t-54.5 -81.5 t-85.5 -55t-118.5 -21q-82 0 -142.5 31t-93.5 84t-48 113.5t-15 129.5zM1063 338q0 -121 47.5 -198t153.5 -77q44 0 78 15t56.5 40t37 60.5t20.5 75t6 84.5t-6 84.5t-20.5 75t-37 61t-56.5 40.5t-78 15q-72 0 -119 -40t-64.5 -99t-17.5 -137z" />
<glyph unicode="&#x26;" horiz-adv-x="1421" d="M123 379q0 81 25 149t73 121t98 91t119 77q-159 180 -159 354q0 55 18 106t54.5 97t103 73.5t153.5 27.5q86 0 150.5 -27t100 -72t52.5 -96.5t17 -108.5q0 -54 -18 -102.5t-45.5 -85t-72 -72.5t-85 -61.5t-97.5 -56.5l434 -455q82 152 86 338h107q-4 -238 -117 -416 l197 -207l-80 -76l-184 193q-168 -190 -455 -190q-217 0 -346 108.5t-129 290.5zM240 381q0 -144 102.5 -222.5t261.5 -78.5q232 0 377 166l-469 493q-60 -34 -101.5 -64t-84 -73.5t-64.5 -99t-22 -121.5zM393 1169q0 -138 144 -299q48 25 72.5 38.5t63.5 38t59.5 45 t43 48.5t32 60t9.5 69q0 89 -53 149t-156 60q-106 0 -160.5 -61t-54.5 -148z" />
<glyph unicode="'" horiz-adv-x="356" d="M121 1495h115l-21 -477h-76z" />
<glyph unicode="(" horiz-adv-x="595" d="M123 565q0 130 18.5 256.5t47.5 224t64.5 185.5t71 149.5t64.5 107t47 67.5l19 22l77 -55l-16.5 -22t-41 -63.5t-58.5 -104t-62 -140.5t-58.5 -176.5t-41 -209.5t-16.5 -241t16 -240.5t42 -210.5t57.5 -175t63 -142t57.5 -102.5t42 -64.5l16 -21l-77 -55q-13 15 -35.5 44 t-80 127.5t-101 207.5t-79.5 281t-36 351z" />
<glyph unicode=")" horiz-adv-x="595" d="M63 -391q12 15 32 42.5t70.5 122t89.5 198t71 265t32 328.5q0 122 -16.5 240.5t-42.5 210.5t-57 175.5t-62.5 142t-57.5 102.5t-42 65l-17 21l80 55q7 -8 19 -22.5t46.5 -66t66 -108.5t69.5 -148t65.5 -187t46.5 -223t19 -257t-18.5 -256.5t-47.5 -224t-64.5 -185 t-71 -149t-64.5 -107t-47 -67.5l-19 -22z" />
<glyph unicode="*" horiz-adv-x="868" d="M100 1278l35 98l262 -100l-12 280h104l-14 -278l260 98l33 -98l-272 -78l176 -217l-86 -61l-152 229l-149 -229l-86 61l174 217z" />
<glyph unicode="+" horiz-adv-x="1150" d="M164 569v95h360v374h101v-374h362v-95h-362v-376h-101v376h-360z" />
<glyph unicode="," horiz-adv-x="497" d="M131 -276q18 67 37.5 192.5t19.5 200.5v26q27 25 70 25q35 0 56.5 -20.5t21.5 -59.5q0 -44 -31 -141t-61 -171l-31 -75z" />
<glyph unicode="-" horiz-adv-x="870" d="M141 549v96h586v-96h-586z" />
<glyph unicode="." horiz-adv-x="505" d="M160 74q0 42 24.5 68t69.5 26q42 0 67 -26t25 -68t-25 -68t-67 -26q-45 0 -69.5 26t-24.5 68z" />
<glyph unicode="/" horiz-adv-x="835" d="M49 -231l613 1808h114l-612 -1808h-115z" />
<glyph unicode="0" horiz-adv-x="1273" d="M129 727q0 85 5 157.5t19.5 151t38 140.5t62.5 119.5t91.5 96t126.5 61t165 22.5t165.5 -22.5t127 -61t91.5 -96t62 -119.5t37.5 -140.5t19.5 -151t5 -157.5t-5 -157.5t-19.5 -151t-37.5 -140.5t-62 -119t-91.5 -95.5t-127 -61t-165.5 -22.5t-165 22.5t-126.5 61 t-91.5 95.5t-62.5 119.5t-38 140.5t-19.5 150.5t-5 157.5zM248 727q0 -54 1 -96.5t5.5 -97.5t12.5 -98t22.5 -91.5t34 -84.5t49.5 -70.5t67 -56t87 -35t110 -13.5q77 0 138 22t101 55.5t69.5 88t45 105.5t24.5 122.5t11 124.5t2 125t-2 125t-11 124.5t-24.5 122.5t-45 105.5 t-69.5 88t-101 55.5t-138 22q-60 0 -110 -13.5t-87 -35t-67 -56t-49.5 -70.5t-34 -84.5t-22.5 -91.5t-12.5 -98t-5.5 -97.5t-1 -96.5z" />
<glyph unicode="1" horiz-adv-x="768" d="M68 1264l340 190h110v-1454h-117v1337l-286 -159z" />
<glyph unicode="2" horiz-adv-x="1116" d="M131 1346q6 5 18 14t52.5 31t85 39t113.5 31t141 14q109 0 193 -30.5t133.5 -84.5t74.5 -122t25 -148q0 -273 -312 -603l-366 -385h678v-102h-832v102l443 465q272 286 272 516q0 129 -78.5 208t-239.5 79q-60 0 -118 -11t-98.5 -27t-72.5 -32t-47 -27l-16 -11z" />
<glyph unicode="3" horiz-adv-x="1091" d="M84 49l33 98q18 -7 49.5 -17.5t124 -28t178.5 -17.5q177 0 279 82t102 244q0 319 -428 319l-117 -2v104q40 -2 146 -2q181 0 273.5 80.5t92.5 210.5q0 121 -83 185.5t-251 64.5q-89 0 -172 -17.5t-121 -34.5l-38 -18l-37 95l17 8.5t48.5 19.5t78.5 24.5t104.5 19 t128.5 8.5q222 0 331 -95t109 -260q0 -116 -58.5 -206t-189.5 -128q130 -37 206.5 -133t76.5 -250q0 -203 -131.5 -313t-360.5 -110q-95 0 -192.5 17t-148.5 35z" />
<glyph unicode="4" horiz-adv-x="1153" d="M74 496l653 958h117v-958h227v-105h-227v-391h-117v391h-649zM197 496h530v780z" />
<glyph unicode="5" horiz-adv-x="1112" d="M123 49l33 98q14 -7 40.5 -17.5t109.5 -28t167 -17.5q180 0 287.5 90t107.5 272q0 125 -51.5 208.5t-136 120t-197.5 36.5q-176 0 -323 -78l43 721h706v-104h-598l-28 -467q108 32 217 32q221 0 354 -119.5t133 -346.5q0 -226 -138 -347.5t-368 -121.5q-60 0 -119 7 t-100.5 17t-74 20.5t-48.5 17.5z" />
<glyph unicode="6" horiz-adv-x="1161" d="M129 676q0 91 7 172.5t24.5 163.5t45 149.5t70 126.5t97.5 100t130 64t165 23q76 0 152 -18.5t114 -36.5l37 -19l-35 -90q-13 7 -37 16.5t-92 26t-131 16.5q-99 0 -174.5 -34.5t-120 -88t-74 -132t-41 -151t-16.5 -161.5q164 110 366 110q210 0 323.5 -122.5 t113.5 -333.5q0 -214 -117 -345.5t-332 -131.5q-105 0 -186.5 33.5t-135.5 93.5t-88.5 148t-49.5 191.5t-15 229.5zM248 641q0 -51 1.5 -88t9 -99.5t20.5 -107.5t40.5 -97.5t64.5 -86t96 -56t132 -22.5q79 0 139 25t94.5 63.5t56.5 91t29 100t7 99.5q0 36 -4 69.5t-23 87.5 t-51.5 92.5t-97.5 67.5t-154 29q-191 0 -360 -123v-45z" />
<glyph unicode="7" horiz-adv-x="1007" d="M92 1350v104h819v-82l-532 -1372h-123l524 1350h-688z" />
<glyph unicode="8" horiz-adv-x="1212" d="M119 377q0 83 26.5 154t71 119.5t85.5 78.5t87 53q-225 115 -225 338q0 171 121.5 263t318.5 92t320 -92.5t123 -256.5q0 -228 -246 -368q66 -27 115.5 -58t91.5 -75.5t64 -105.5t22 -138q0 -190 -128.5 -295.5t-357.5 -105.5q-231 0 -360 106t-129 291zM238 385 q0 -153 101.5 -229t264.5 -76q165 0 269 75.5t104 223.5q0 47 -12.5 86t-32 67.5t-52 53.5t-63 41t-75.5 32.5t-79.5 27t-85 25t-81.5 25.5q-46 -20 -85.5 -46t-81.5 -68t-66.5 -103.5t-24.5 -134.5zM279 1122q0 -30 4.5 -56.5t16.5 -49t22.5 -40.5t32.5 -35.5t36.5 -29.5 t45 -26t47 -21.5t52.5 -19.5l52.5 -17.5t56.5 -17.5l51 -16q238 129 238 331q0 88 -45.5 146t-116.5 81t-166 23q-70 0 -127 -13.5t-103 -42t-71.5 -78.5t-25.5 -118z" />
<glyph unicode="9" horiz-adv-x="1161" d="M109 997q0 214 116.5 346t331.5 132q475 0 475 -697q0 -798 -538 -798q-76 0 -152 18t-114 36l-38 19l37 90q13 -7 37 -16.5t91.5 -26t129.5 -16.5q99 0 174.5 34.5t120 88t73.5 132t40.5 151t15.5 161.5q-160 -110 -364 -110q-210 0 -323 122.5t-113 333.5zM223 991 q0 -36 4 -69.5t23 -87.5t51.5 -92.5t97.5 -67.5t154 -29q193 0 360 123v45q0 51 -1.5 88t-9 99.5t-20.5 107.5t-40 97.5t-64 86t-95.5 56t-131.5 22.5q-79 0 -139.5 -25t-95.5 -63.5t-56.5 -91t-29 -100t-7.5 -99.5z" />
<glyph unicode=":" horiz-adv-x="548" d="M180 74q0 42 25 68t69 26q43 0 68 -26t25 -68t-25 -68t-68 -26q-44 0 -69 26t-25 68zM180 967q0 42 25 68t69 26q43 0 68 -26t25 -68q0 -44 -25 -70.5t-68 -26.5q-44 0 -69 27t-25 70z" />
<glyph unicode=";" horiz-adv-x="544" d="M141 -276q19 61 39.5 187.5t20.5 203.5q0 5 -1 14.5t-1 13.5q28 25 71 25q35 0 56.5 -20.5t21.5 -59.5q0 -44 -31 -141t-63 -171l-31 -75zM178 967q0 42 25 68t69 26q42 0 67.5 -26t25.5 -68q0 -43 -25.5 -70t-67.5 -27q-44 0 -69 27t-25 70z" />
<glyph unicode="&#x3c;" horiz-adv-x="1253" d="M152 520v107l884 489l45 -88l-825 -455l825 -452l-45 -90z" />
<glyph unicode="=" horiz-adv-x="1107" d="M152 330v92h804v-92h-804zM152 764v92h804v-92h-804z" />
<glyph unicode="&#x3e;" horiz-adv-x="1253" d="M172 121l825 452l-825 455l45 88l885 -489v-107l-885 -489z" />
<glyph unicode="?" horiz-adv-x="974" d="M72 1395q5 3 14.5 8.5t43 19.5t72 24.5t101 19t129.5 8.5q219 0 321.5 -87.5t102.5 -236.5q0 -65 -18.5 -119t-48.5 -91t-69 -72.5t-79 -62t-79 -60t-69 -67t-48.5 -82t-18.5 -105.5q0 -21 2.5 -45t5.5 -38l2 -14h-117q-10 50 -10 105q0 75 23.5 138t61.5 106t83.5 81 t91 72.5t83.5 70t61.5 83.5t23.5 104q0 100 -76.5 157.5t-238.5 57.5q-89 0 -167 -18.5t-111 -37.5l-33 -18zM307 63q0 38 21 60t61 22q39 0 60.5 -22.5t21.5 -59.5q0 -39 -21.5 -61t-60.5 -22q-40 0 -61 22t-21 61z" />
<glyph unicode="@" horiz-adv-x="2144" d="M152 520q0 152 35 290t111.5 260.5t188 211.5t275 141t362.5 52q184 0 332.5 -44t247.5 -119t165 -178.5t95 -217.5t29 -242q0 -268 -123.5 -430t-321.5 -162q-166 0 -262 125q-162 -125 -332 -125q-135 0 -218 86.5t-83 273.5q0 80 15 157.5t50.5 154t87.5 134t134 93 t182 35.5q128 0 316 -62l-90 -653q68 -117 200 -117q63 0 121 28.5t106.5 85t77.5 154t29 222.5q0 69 -8.5 133t-31 135.5t-58.5 131.5t-95 116t-135.5 95t-185 62t-238.5 23q-180 0 -325.5 -44.5t-245 -122.5t-167 -186.5t-98 -233.5t-30.5 -267q0 -190 56.5 -348.5 t161.5 -271.5t261 -175.5t349 -62.5q78 0 157 10.5t135 25t103.5 30.5t69.5 25.5t26 12.5l35 -94q-9 -5 -25 -12.5t-69 -27t-110.5 -34.5t-144.5 -27.5t-175 -12.5q-190 0 -348 53t-266.5 143.5t-183.5 214.5t-109.5 263.5t-34.5 291.5zM764 455q0 -273 201 -273 q133 0 268 103l86 604q-114 26 -176 26q-98 0 -173 -38.5t-119 -104.5t-65.5 -146t-21.5 -171z" />
<glyph unicode="A" horiz-adv-x="1368" d="M70 0l528 1454h172l528 -1454h-122l-170 471h-646l-167 -471h-123zM399 578h570l-285 790z" />
<glyph unicode="B" horiz-adv-x="1300" d="M180 12v1430q252 33 438 33q253 0 382.5 -87.5t129.5 -281.5q0 -262 -249 -336q164 -35 237.5 -132.5t73.5 -252.5q0 -221 -140 -313t-429 -92q-101 0 -211.5 8t-171.5 16zM297 102q142 -18 313 -18q91 0 157.5 7.5t127 27.5t98 54t59 89.5t21.5 132.5 q0 169 -102.5 243.5t-319.5 74.5h-354v-611zM297 815h305q215 0 312.5 63t97.5 216q0 68 -20 118t-54 80t-88.5 48t-113 24t-138.5 6q-158 0 -301 -20v-535z" />
<glyph unicode="C" horiz-adv-x="1208" d="M121 727q0 84 9 160t30 152t53.5 140t83.5 119.5t116 94t153.5 60.5t193.5 22q89 0 175 -15.5t127 -31.5l42 -15l-33 -98q-14 6 -39 15t-104 24.5t-160 15.5q-530 0 -530 -643t530 -643q81 0 156.5 14t111.5 28l35 13l33 -98q-16 -7 -45.5 -17t-119.5 -27t-179 -17 q-146 0 -259.5 42.5t-184 112t-115.5 168.5t-62.5 202t-17.5 222z" />
<glyph unicode="D" horiz-adv-x="1374" d="M180 12v1430q195 33 414 33q157 0 275 -40t190 -106t116.5 -165t61 -202.5t16.5 -232.5q0 -131 -16.5 -235.5t-61.5 -203.5t-117.5 -165t-190.5 -105.5t-275 -39.5q-94 0 -197 8t-159 16zM297 102q153 -18 297 -18q60 0 109 5t107 21.5t102.5 44t88.5 76.5t72.5 115.5 t46 164t17.5 218.5q0 130 -18.5 231.5t-55.5 170.5t-84.5 117t-112 74t-131 37t-149.5 11q-114 0 -289 -20v-1248z" />
<glyph unicode="E" horiz-adv-x="1204" d="M170 412v1042h903v-106h-786v-535h702v-104h-702v-299q0 -172 107 -249t315 -77q61 0 120.5 3.5t101.5 8t75 9.5t51 9l18 3v-103q-152 -34 -373 -34q-532 0 -532 432z" />
<glyph unicode="F" horiz-adv-x="1165" d="M180 0v1454h895v-106h-776v-566h694v-104h-694v-678h-119z" />
<glyph unicode="G" horiz-adv-x="1308" d="M121 725q0 121 18 225t63.5 203t117 168.5t185 111.5t259.5 42q96 0 191.5 -15.5t142.5 -31.5l47 -15l-31 -98q-15 6 -43.5 15t-117 24.5t-177.5 15.5q-538 0 -538 -645q0 -641 534 -641q128 0 260 33v639h115v-717q-19 -7 -53 -16.5t-134.5 -26t-195.5 -16.5 q-147 0 -260.5 42t-184.5 111.5t-116.5 168t-63.5 201.5t-18 222z" />
<glyph unicode="H" horiz-adv-x="1419" d="M180 0v1454h119v-647h821v647h119v-1454h-119v700h-821v-700h-119z" />
<glyph unicode="I" horiz-adv-x="497" d="M190 0v1454h117v-1454h-117z" />
<glyph unicode="J" horiz-adv-x="862" d="M111 33l30 96q9 -5 25 -12.5t72 -20t118 -12.5q106 0 162.5 63.5t56.5 182.5v1124h117v-1122q0 -180 -90 -266t-237 -86q-70 0 -133.5 13.5t-91.5 26.5z" />
<glyph unicode="K" horiz-adv-x="1239" d="M180 0v1454h119v-729l690 729h148l-703 -739l471 -488q61 -63 108 -93t103 -30q16 0 32 2.5t24.5 5t9.5 3.5v-101q-35 -16 -90 -16q-72 0 -141 41t-146 123l-506 526v-688h-119z" />
<glyph unicode="L" horiz-adv-x="1101" d="M170 385v1069h117v-1069q0 -86 29.5 -145.5t87.5 -92.5t131 -47t174 -14q56 0 107.5 4t85.5 10t59 11.5t38 9.5l13 4v-111q-111 -34 -312 -34q-267 0 -398.5 96.5t-131.5 308.5z" />
<glyph unicode="M" horiz-adv-x="1693" d="M119 0l123 1454h155l449 -1085l450 1085h156l123 -1454h-119l-100 1188l-4 125l-47 -125l-392 -942h-133l-393 942l-47 123l-2 -123l-100 -1188h-119z" />
<glyph unicode="N" horiz-adv-x="1427" d="M180 0v1454h168l787 -1311l-5 113v1198h117v-1454h-157l-799 1327l6 -117v-1210h-117z" />
<glyph unicode="O" horiz-adv-x="1398" d="M121 727q0 748 577 748q580 0 580 -748q0 -747 -580 -747q-577 0 -577 747zM238 727q0 -67 3.5 -123t15.5 -124.5t31.5 -122t54.5 -106.5t82.5 -88.5t117 -57t155.5 -21.5t156 21.5t117.5 57t82.5 88.5t54.5 106.5t31.5 122t15.5 124.5t3.5 123t-3.5 123t-15.5 124.5 t-31.5 122t-54.5 106.5t-82.5 88.5t-117.5 57t-156 21.5t-155.5 -21.5t-117 -57t-82.5 -88.5t-54.5 -106.5t-31.5 -122t-15.5 -124.5t-3.5 -123z" />
<glyph unicode="P" horiz-adv-x="1265" d="M180 0v1442q2 2 67.5 9.5t177 15.5t204.5 8q263 0 399.5 -119.5t136.5 -347.5q0 -94 -31 -176t-93.5 -149.5t-169.5 -106.5t-246 -39q-79 0 -161 2.5t-124 4.5l-43 3v-547h-117zM297 651q100 -8 326 -8q200 0 312 97t112 268q0 181 -109 271.5t-307 90.5q-181 0 -334 -20 v-699z" />
<glyph unicode="Q" horiz-adv-x="1398" d="M121 727q0 748 577 748q580 0 580 -748q0 -747 -580 -747q-577 0 -577 747zM238 727q0 -67 3.5 -123t15.5 -124.5t31.5 -122t54.5 -106.5t82.5 -88.5t117 -57t155.5 -21.5t156 21.5t117.5 57t82.5 88.5t54.5 106.5t31.5 122t15.5 124.5t3.5 123t-3.5 123t-15.5 124.5 t-31.5 122t-54.5 106.5t-82.5 88.5t-117.5 57t-156 21.5t-155.5 -21.5t-117 -57t-82.5 -88.5t-54.5 -106.5t-31.5 -122t-15.5 -124.5t-3.5 -123zM635 -272l8 88l598 -49l-8 -101z" />
<glyph unicode="R" horiz-adv-x="1335" d="M180 0v1442q262 33 432 33q271 0 412 -101.5t141 -326.5q0 -168 -88 -272t-284 -138l239 -404q41 -68 77.5 -98.5t94.5 -30.5q14 0 26 2t18 4l5 1v-99q-24 -14 -71 -14q-61 0 -109 25t-80 64t-71 106l-250 430q-31 -2 -97 -2q-156 0 -278 10v-631h-117zM297 733 q2 0 103.5 -3t166.5 -3q257 0 369.5 69t112.5 246q0 97 -31.5 163t-93 101t-136 49.5t-176.5 14.5q-148 0 -315 -22v-615z" />
<glyph unicode="S" horiz-adv-x="1202" d="M121 1098q0 87 31.5 154.5t81 108.5t118 67.5t136 36.5t141.5 10q105 0 203 -17t144 -34l46 -17l-35 -96q-15 7 -43 16.5t-118 26t-185 16.5q-185 0 -295 -66.5t-110 -201.5q0 -40 11.5 -74.5t26.5 -58.5t47 -47t55.5 -36.5t71.5 -30t74.5 -24.5t83.5 -24 q48 -13 76.5 -21.5t73.5 -24t73 -28.5t65.5 -34t60.5 -42t48.5 -50.5t39.5 -62.5t23 -75t9 -90q0 -193 -136.5 -296t-383.5 -103q-105 0 -208 17t-153 33l-51 17l31 103q19 -7 52.5 -18t133.5 -29.5t195 -18.5q193 0 297 74t104 213q0 45 -12 83t-29.5 66t-49.5 53t-60 41 t-74 33t-78.5 26.5t-85.5 24.5q-58 16 -94 26.5t-88.5 30.5t-85 39.5t-70 50t-58.5 65.5t-35.5 83t-14.5 105z" />
<glyph unicode="T" horiz-adv-x="1257" d="M70 1348v106h1118v-106h-500v-1348h-117v1348h-501z" />
<glyph unicode="U" horiz-adv-x="1417" d="M170 555v899h117v-905q0 -88 13 -158t35 -118t55.5 -83t67.5 -55t79.5 -32t84.5 -15.5t87 -3.5t87 3.5t84 15.5t79.5 32t68 55t55 83t34.5 118t13 158v905h117v-899q0 -158 -35 -270t-105.5 -178.5t-167.5 -96.5t-230 -30t-230 30t-168 96.5t-106 178.5t-35 270z" />
<glyph unicode="V" horiz-adv-x="1339" d="M70 1454h123l475 -1378l479 1378h125l-514 -1454h-180z" />
<glyph unicode="W" horiz-adv-x="1996" d="M70 1454h123l346 -1245l30 -129l33 131l334 1180h125l334 -1182l30 -129l33 133l344 1241h125l-405 -1454h-185l-313 1098l-27 119l-26 -119l-314 -1098h-184z" />
<glyph unicode="X" horiz-adv-x="1298" d="M59 0l514 729l-512 725h138l448 -635l451 635h137l-512 -725l516 -729h-139l-451 635l-450 -635h-140z" />
<glyph unicode="Y" horiz-adv-x="1277" d="M59 1454h131l449 -739l448 739h132l-523 -848v-606h-118v612z" />
<glyph unicode="Z" horiz-adv-x="1193" d="M104 0v106l846 1242h-844v106h984v-106l-848 -1242h848v-106h-986z" />
<glyph unicode="[" horiz-adv-x="608" d="M180 -426v1982h398v-104h-283v-1774h283v-104h-398z" />
<glyph unicode="\" horiz-adv-x="835" d="M59 1577h115l612 -1808h-114z" />
<glyph unicode="]" horiz-adv-x="608" d="M31 -322h282v1774h-282v104h397v-1982h-397v104z" />
<glyph unicode="^" horiz-adv-x="1056" d="M100 897l369 659h119l368 -659l-92 -51l-338 606l-333 -606z" />
<glyph unicode="_" horiz-adv-x="960" d="M0 -20h961v-86h-961v86z" />
<glyph unicode="`" horiz-adv-x="638" d="M143 1511l66 80l280 -245l-53 -64z" />
<glyph unicode="a" horiz-adv-x="1138" d="M119 295q0 75 24.5 131.5t66 91.5t102 57t125.5 30.5t145 8.5q120 0 280 -24v174q0 153 -78 219t-239 66q-88 0 -170.5 -17t-120.5 -34l-39 -17l-27 100q165 72 365 72q216 0 321 -93t105 -296v-701q-19 -9 -53.5 -23t-145.5 -37t-227 -23q-434 0 -434 315zM236 293 q0 -61 23.5 -103.5t68.5 -65.5t99 -32.5t124 -9.5q76 0 154 11t117 21l40 11v364q-161 23 -276 23q-79 0 -138.5 -10t-109.5 -33.5t-76 -67.5t-26 -108z" />
<glyph unicode="b" horiz-adv-x="1196" d="M170 63v1493h117v-452q141 49 291 49q245 0 371 -138t126 -448q0 -158 -33.5 -272t-99 -182.5t-156 -100.5t-211.5 -32q-101 0 -202 20.5t-152 41.5zM287 129q133 -47 280 -47q212 0 301.5 116t89.5 369t-89 368.5t-302 115.5q-138 0 -280 -50v-872z" />
<glyph unicode="c" horiz-adv-x="1026" d="M121 567q0 105 15 190.5t51 160.5t92.5 126t143.5 80t200 29q76 0 145 -11.5t100 -23.5l31 -12l-29 -96q-102 39 -241 39q-75 0 -135.5 -17.5t-100.5 -44.5t-69 -68t-45 -81t-25 -91.5t-11.5 -90t-2.5 -85.5q0 -52 2.5 -94t12.5 -94.5t26 -92.5t45.5 -80.5t69.5 -66.5 t99.5 -42.5t133.5 -16.5q61 0 121 10t90 20l30 9l29 -96q-12 -5 -34 -13t-94 -21t-148 -13q-140 0 -240 43.5t-156 125t-81 184t-25 234.5z" />
<glyph unicode="d" horiz-adv-x="1196" d="M121 567q0 158 33.5 271.5t99 182t155 100.5t209.5 32q157 0 291 -49v452h117v-1493q-20 -9 -56 -23t-142 -37t-207 -23q-121 0 -211.5 32t-156 100.5t-99 182.5t-33.5 272zM240 567q0 -254 88.5 -369.5t300.5 -115.5q147 0 280 47v872q-142 50 -280 50 q-212 0 -300.5 -115.5t-88.5 -368.5z" />
<glyph unicode="e" horiz-adv-x="1140" d="M121 567q0 101 15.5 187t50 160.5t87.5 127t132.5 82t179.5 29.5q96 0 170.5 -23.5t122.5 -63t79 -97t43.5 -120t12.5 -136.5q0 -59 -15 -158h-759q0 -46 3 -85t12 -89t25 -89.5t45 -80t68 -67t98 -43.5t132 -17q88 0 167 15t114 31l34 15l20 -102q-14 -7 -41.5 -17.5 t-116 -28t-182.5 -17.5t-169.5 20t-129.5 58t-93 89t-61.5 118.5t-33 141t-10.5 160.5zM242 653h653q2 25 2 74q0 52 -6.5 94.5t-27 86.5t-53.5 73.5t-90.5 48.5t-133.5 19q-322 0 -344 -396z" />
<glyph unicode="f" horiz-adv-x="845" d="M82 1032v101h197v112q0 338 317 338q59 0 106.5 -8.5t61.5 -15.5l-21 -99q-59 17 -139 17q-107 0 -158 -51t-51 -177v-116h338v-101h-338v-1032h-116v1032h-197z" />
<glyph unicode="g" horiz-adv-x="1196" d="M121 565q0 310 127 449t373 139q101 0 202 -21t152 -42l51 -21v-1003q0 -91 -12.5 -163.5t-45 -139.5t-85.5 -111.5t-138 -71t-198 -26.5q-86 0 -165.5 14t-115.5 28l-37 13l29 102q12 -6 35 -15t97 -24.5t151 -15.5q91 0 158 21.5t105.5 55t62 85t32 100t10.5 111.5 q-118 -47 -293 -47q-119 0 -208.5 31.5t-154.5 99.5t-98.5 181.5t-33.5 270.5zM240 565q0 -253 88 -367t301 -114q142 0 280 47v870q-142 50 -280 50q-212 0 -300.5 -116t-88.5 -370z" />
<glyph unicode="h" horiz-adv-x="1232" d="M170 0v1556h117v-450q160 47 311 47q245 0 360 -103.5t115 -347.5v-702h-117v707q0 65 -11 117t-29 87.5t-46 61.5t-57 40t-68 22.5t-72.5 11t-76.5 2.5q-84 0 -161 -11.5t-113 -22.5l-35 -11v-1004h-117z" />
<glyph unicode="i" horiz-adv-x="458" d="M143 1423q0 39 22.5 61.5t63.5 22.5q40 0 63 -23t23 -61q0 -40 -23 -63t-63 -23q-41 0 -63.5 23t-22.5 63zM170 0v1133h117v-1133h-117z" />
<glyph unicode="j" horiz-adv-x="479" d="M-166 -416l25 97q53 -25 135 -25q199 0 199 250v1227h116v-1225q0 -76 -17 -138t-52.5 -111.5t-96 -77t-141.5 -27.5q-47 0 -89 7.5t-61 14.5zM164 1423q0 38 23 61t63 23t63 -23t23 -61q0 -40 -23 -63t-63 -23t-63 23t-23 63z" />
<glyph unicode="k" horiz-adv-x="1099" d="M170 0v1556h117v-958l559 535h151l-571 -545l336 -365q54 -60 97 -90.5t97 -30.5q15 0 32 3t26 5l10 3v-99q-35 -16 -88 -16q-131 0 -272 156l-377 417v-571h-117z" />
<glyph unicode="l" horiz-adv-x="458" d="M170 0v1556h117v-1556h-117z" />
<glyph unicode="m" horiz-adv-x="1982" d="M170 0v1069q7 3 20.5 9t57.5 20.5t91 25.5t119.5 20t145.5 9q243 0 346 -106q197 106 424 106t338 -107.5t111 -345.5v-700h-117v705q0 89 -21.5 154.5t-53.5 101t-79.5 56.5t-88 26.5t-91.5 5.5q-170 0 -362 -88q45 -99 45 -259v-702h-117v707q0 65 -10 117t-26.5 87 t-42.5 61t-52.5 40.5t-62.5 23t-67 11t-71 2.5q-91 0 -171 -11.5t-114 -22.5l-34 -11v-1004h-117z" />
<glyph unicode="n" horiz-adv-x="1232" d="M170 0v1069q7 3 20.5 9t57.5 20.5t91 25.5t117.5 20t139.5 9q246 0 361.5 -103.5t115.5 -347.5v-702h-117v707q0 65 -11 117t-29 87.5t-46 61.5t-57 40t-68 22.5t-72.5 11t-76.5 2.5q-84 0 -161 -11.5t-113 -22.5l-35 -11v-1004h-117z" />
<glyph unicode="o" horiz-adv-x="1200" d="M121 565q0 131 23 232.5t76 184t148.5 127t231.5 44.5t231.5 -44.5t148.5 -127t76 -184t23 -232.5t-23 -232t-76 -183t-148.5 -126t-231.5 -44t-231.5 44t-148.5 126t-76 183t-23 232zM240 565q0 -49 2 -86.5t10 -90.5t22.5 -92t41.5 -81t64 -69t93.5 -44.5t126.5 -17.5 t126.5 17.5t94 44.5t64.5 69t41 81.5t22.5 91.5t10.5 90.5t2 86.5t-2 86.5t-10.5 91t-22.5 92.5t-41 82t-64.5 69.5t-94 45t-126.5 17.5t-126.5 -17.5t-93.5 -45t-64 -69.5t-41.5 -82t-22.5 -92.5t-10 -90.5t-2 -87z" />
<glyph unicode="p" horiz-adv-x="1196" d="M170 -426v1495q7 3 20.5 9t56.5 20.5t87.5 25.5t110.5 20t130 9q246 0 373 -139t127 -449t-126 -447.5t-371 -137.5q-150 0 -291 49v-455h-117zM287 131q125 -49 280 -49q213 0 302 115t89 368t-89.5 369.5t-301.5 116.5q-147 0 -280 -47v-873z" />
<glyph unicode="q" horiz-adv-x="1196" d="M121 565q0 310 127 449t373 139q101 0 202 -21t152 -42l51 -21v-1495h-117v455q-134 -49 -291 -49q-244 0 -370.5 137.5t-126.5 447.5zM240 565q0 -253 88.5 -368t300.5 -115q155 0 280 49v873q-133 47 -280 47q-212 0 -300.5 -116t-88.5 -370z" />
<glyph unicode="r" horiz-adv-x="718" d="M170 0v1067q131 76 332 76q69 0 129 -8l-10 -103q-39 6 -105 6q-68 0 -125 -9.5t-81 -18.5l-23 -9v-1001h-117z" />
<glyph unicode="s" horiz-adv-x="1003" d="M117 860q0 69 25.5 121.5t66 84.5t98 52t114 27.5t120.5 7.5q77 0 152 -10.5t111 -20.5l36 -10l-25 -100q-112 37 -268 37q-151 0 -232.5 -47t-81.5 -142q0 -29 9 -54t21 -43t37 -35t44.5 -27.5t57 -24t59.5 -20t67 -19.5q47 -14 76.5 -23.5t72.5 -26.5t70 -34t58 -44 t48.5 -57t29.5 -71t12 -90q0 -159 -113.5 -236.5t-316.5 -77.5q-83 0 -165 12.5t-122 24.5l-41 13l23 102q16 -5 43.5 -13t107.5 -21t154 -13q160 0 237.5 54.5t77.5 152.5q0 44 -17 79.5t-40.5 58.5t-67.5 44t-78.5 32.5t-91.5 28.5q-51 15 -78 23.5t-72.5 26t-71 33 t-57.5 41t-48.5 53.5t-28.5 66.5t-12 84.5z" />
<glyph unicode="t" horiz-adv-x="872" d="M82 1032v101h164v303l116 24v-327h386v-101h-386v-674q0 -136 47 -205t164 -69q45 0 91 8t69 16l23 9l18 -101q-86 -36 -205 -36q-159 0 -241 88.5t-82 291.5v672h-164z" />
<glyph unicode="u" d="M160 430v703h116v-707q0 -90 21.5 -155t53.5 -100.5t83 -56t96 -25.5t107 -5q84 0 161 11t112 23l36 11v1004h117v-1070q-20 -9 -56.5 -23t-148 -37t-221.5 -23q-246 0 -361.5 103t-115.5 347z" />
<glyph unicode="v" horiz-adv-x="1116" d="M57 1133h121l379 -1055l381 1055h119l-408 -1133h-182z" />
<glyph unicode="w" horiz-adv-x="1685" d="M57 1133h121l301 -1045l303 1045h119l303 -1045l303 1045h119l-332 -1133h-178l-242 827l-30 136l-33 -138l-244 -825h-178z" />
<glyph unicode="x" horiz-adv-x="1019" d="M59 0l381 565l-381 568h134l317 -476l317 476h134l-381 -568l381 -565h-134l-317 473l-317 -473h-134z" />
<glyph unicode="y" d="M160 430v703h116v-707q0 -90 22 -154.5t54.5 -99.5t83.5 -55.5t94.5 -25.5t102.5 -5q91 0 169.5 11t111.5 23l32 11v1002h117v-1067q0 -91 -12.5 -163.5t-45 -139.5t-85.5 -111.5t-138 -71t-198 -26.5q-86 0 -165.5 14t-116.5 28l-36 13l27 102q12 -6 35 -15t96.5 -24.5 t150.5 -15.5q91 0 158 21t106.5 54t63.5 83.5t32.5 98.5t10.5 110q-143 -41 -311 -41q-241 0 -358 103.5t-117 344.5z" />
<glyph unicode="z" horiz-adv-x="1021" d="M119 0v102l637 930h-623v101h754v-117l-629 -914h645v-102h-784z" />
<glyph unicode="{" horiz-adv-x="702" d="M139 510v108q78 0 109 35t31 109v575q0 99 59 159t174 60h131v-102h-123q-73 0 -100 -34t-27 -95v-571q0 -75 -22 -123t-78 -68q56 -20 78 -67t22 -121v-572q0 -61 27 -95t100 -34h123v-102h-131q-115 0 -174 60t-59 159v576q0 74 -30.5 108.5t-109.5 34.5z" />
<glyph unicode="|" horiz-adv-x="581" d="M240 -426v1982h102v-1982h-102z" />
<glyph unicode="}" horiz-adv-x="718" d="M59 -326h123q73 0 100 34t27 95v572q0 73 22.5 120.5t78.5 67.5q-56 20 -78.5 68.5t-22.5 122.5v571q0 61 -27 95t-100 34h-123v102h134q115 0 173 -60t58 -159v-575q0 -74 31 -109t110 -35v-108q-79 0 -110 -34.5t-31 -108.5v-576q0 -99 -58 -159t-173 -60h-134v102z " />
<glyph unicode="~" horiz-adv-x="952" d="M88 530q1 8 4.5 22.5t19.5 50.5t37.5 63.5t62.5 50t91 22.5q39 0 78.5 -14.5t72 -34.5t64 -40.5t64.5 -35t63 -14.5q32 0 57.5 14.5t39.5 35t24 40.5t13 34l3 15l80 -28q-1 -8 -4.5 -22t-19.5 -50t-37.5 -63t-62.5 -49.5t-91 -22.5q-45 0 -95 21.5t-86 48t-80 48 t-79 21.5q-32 0 -58 -14.5t-40 -34.5t-24 -40.5t-13 -35.5l-4 -14z" />
<glyph unicode="&#xa1;" horiz-adv-x="487" d="M162 1069q0 38 22 61t60 23q40 0 61 -22.5t21 -61.5q0 -38 -21 -60t-61 -22q-38 0 -60 22.5t-22 59.5zM178 -362l19 1153h94l18 -1153h-131z" />
<glyph unicode="&#xa2;" horiz-adv-x="1005" d="M121 731q0 111 22 203.5t68 168.5t124 125t183 64v183h105v-177q75 -1 140.5 -13.5t93.5 -24.5l28 -13l-29 -98q-11 6 -31 13.5t-79.5 19.5t-122.5 12v-926q63 0 122.5 12t79.5 19.5t31 13.5l29 -100q-11 -5 -31 -13t-88 -21.5t-143 -14.5v-184h-105v190 q-106 15 -183.5 63.5t-123.5 124.5t-68 168.5t-22 204.5zM238 735q0 -63 5.5 -115.5t23.5 -112t47.5 -103t81.5 -79t122 -49.5v908q-280 -58 -280 -449z" />
<glyph unicode="&#xa3;" horiz-adv-x="1124" d="M125 653v95h160q-58 218 -58 335q0 82 22 150t68 123.5t125.5 87t186.5 31.5q60 0 116 -8.5t93 -20.5t65.5 -24t41.5 -20l13 -9l-51 -93q-12 8 -34 19.5t-93.5 31t-146.5 19.5q-152 0 -221.5 -78.5t-69.5 -212.5q0 -22 1.5 -44t6 -48.5t7.5 -44t10.5 -50l10.5 -45.5 t12.5 -51t12.5 -48h467v-95h-446q18 -99 18 -168q0 -220 -163 -383h714v-102h-848v104q185 159 185 371q0 65 -23 178h-182z" />
<glyph unicode="&#xa4;" horiz-adv-x="1144" d="M131 471l143 141q-77 99 -77 242q0 142 75 238l-139 139l60 59l139 -141q99 80 243 80q138 0 240 -76l137 137l60 -59l-140 -137q80 -99 80 -240q0 -144 -82 -246l144 -137l-60 -61l-143 143q-98 -72 -236 -72q-143 0 -239 74l-146 -145zM291 854q0 -125 81 -204t203 -79 q121 0 202 79t81 204q0 121 -81.5 203t-201.5 82t-202 -82t-82 -203z" />
<glyph unicode="&#xa5;" horiz-adv-x="1161" d="M59 1454h127l394 -704l395 704h125l-430 -749h313v-91h-346v-221h346v-90h-346v-303h-117v303h-342v90h342v221h-342v91h311z" />
<glyph unicode="&#xa6;" horiz-adv-x="581" d="M240 414h102v-838h-102v838zM240 719v837h102v-837h-102z" />
<glyph unicode="&#xa7;" horiz-adv-x="1185" d="M150 659q0 187 141 277q-141 99 -141 281q0 80 27 143t72.5 103t109.5 66.5t132.5 37t147.5 10.5q97 0 185 -12.5t128 -25.5l39 -13l-33 -92q-13 5 -37 12t-104 19t-168 12q-188 0 -285.5 -64.5t-97.5 -191.5q0 -68 26 -117.5t90.5 -87.5t107 -55.5t138.5 -49.5 q7 -3 11 -4q51 -18 84.5 -30.5t79.5 -34.5t75.5 -43.5t62.5 -53.5t51.5 -68t31 -84.5t12.5 -105.5q0 -181 -118 -276q118 -100 118 -281t-130.5 -278.5t-375.5 -97.5q-100 0 -190 15t-130 29l-40 15l31 100q13 -7 38 -16.5t109 -26t176 -16.5q195 0 295.5 70t100.5 198 q0 45 -11 83t-27 66.5t-46 54t-55.5 42.5t-68 35.5t-72 29.5t-77.5 27q-163 56 -225 90q-148 81 -179 221q-9 41 -9 88zM262 670q0 -38 9.5 -70.5t24 -57t41 -47.5t50 -38.5t61.5 -32.5t66 -27.5t72 -25.5q174 -63 239 -99q97 66 97 205q0 42 -10 79t-26 64.5t-43 52.5 t-52 42t-64.5 35.5t-68.5 29.5t-74 27q-140 49 -193 74q-129 -65 -129 -211z" />
<glyph unicode="&#xa8;" horiz-adv-x="864" d="M160 1425q0 35 20.5 55.5t57.5 20.5q35 0 55 -21t20 -55q0 -35 -20 -56t-55 -21q-38 0 -58 20.5t-20 56.5zM551 1425q0 35 20.5 55.5t57.5 20.5q35 0 55.5 -21t20.5 -55q0 -35 -20.5 -56t-55.5 -21q-38 0 -58 20.5t-20 56.5z" />
<glyph unicode="&#xa9;" horiz-adv-x="1757" d="M131 727q0 153 59 291.5t159 238.5t238.5 159t291.5 59t291 -59t238 -159t159 -238.5t59 -291.5t-59 -291t-159 -238t-238 -159t-291 -59t-291.5 59t-238.5 159t-159 238t-59 291zM227 727q0 -183 85 -332t234.5 -234t332.5 -85q182 0 331.5 84.5t235.5 234t86 332.5 q0 136 -50.5 257t-137.5 207.5t-208 136.5t-257 50q-137 0 -258 -50t-207.5 -136.5t-136.5 -207.5t-50 -257zM492 727q0 93 23 171t69.5 138.5t123.5 94.5t179 34q52 0 108 -9.5t85 -18.5l30 -9l-18 -81q-101 30 -201 30q-63 0 -113 -16t-81.5 -44.5t-53 -62t-32.5 -76 t-15 -78t-4 -75.5q0 -49 6 -92.5t25.5 -92t51 -83t87.5 -57.5t131 -23q43 0 92.5 7.5t78.5 15.5l28 8l18 -82q-106 -37 -223 -37q-102 0 -179 34t-123.5 94.5t-69.5 138.5t-23 171z" />
<glyph unicode="&#xaa;" horiz-adv-x="788" d="M70 885q0 64 26.5 111t74 72.5t104 37.5t124.5 12q83 0 193 -16v100q0 109 -51 150t-168 41q-59 0 -118 -11.5t-89 -23.5l-29 -12l-18 79q110 50 262 50q153 0 230 -65.5t77 -207.5v-483q-38 -24 -126 -45t-185 -21q-65 0 -118.5 12.5t-97 38.5t-67.5 72.5t-24 108.5z M111 451v79h569v-79h-569zM168 883q0 -82 55 -116t154 -34q119 0 215 35v252q-91 16 -193 16q-111 0 -171 -34t-60 -119z" />
<glyph unicode="&#xab;" horiz-adv-x="1189" d="M152 575l337 433l80 -62l-284 -371l284 -370l-80 -62zM600 575l340 433l80 -62l-285 -371l285 -370l-80 -62z" />
<glyph unicode="&#xac;" horiz-adv-x="1052" d="M121 653v92h790v-436h-92v344h-698z" />
<glyph unicode="&#xad;" horiz-adv-x="868" d="M141 549v96h586v-96h-586z" />
<glyph unicode="&#xae;" horiz-adv-x="1075" d="M109 1044q0 180 125 305.5t305 125.5q179 0 303.5 -125.5t124.5 -305.5q0 -179 -125 -304.5t-303 -125.5q-180 0 -305 125.5t-125 304.5zM197 1044q0 -146 97 -242.5t245 -96.5q145 0 243.5 96.5t98.5 242.5q0 145 -98.5 243.5t-243.5 98.5q-147 0 -244.5 -98.5 t-97.5 -243.5zM367 821v445q77 12 163 12q185 0 185 -133q0 -98 -105 -127l74 -115q16 -24 39 -24l14 2v-56q-12 -10 -37 -10q-52 0 -88 57l-88 136q-50 0 -75 2v-189h-82zM449 1075q14 -2 61 -2q32 0 49.5 1.5t37 8t28 22t8.5 40.5q0 39 -22.5 54t-78.5 15q-51 0 -83 -4 v-135z" />
<glyph unicode="&#xaf;" horiz-adv-x="802" d="M139 1352v92h525v-92h-525z" />
<glyph unicode="&#xb0;" horiz-adv-x="716" d="M100 1221q0 110 71.5 182t186.5 72q114 0 186 -72t72 -182q0 -111 -71.5 -182.5t-186.5 -71.5q-116 0 -187 71.5t-71 182.5zM195 1221q0 -71 46.5 -116.5t116.5 -45.5t117 45.5t47 116.5q0 69 -47.5 116t-116.5 47t-116 -47t-47 -116z" />
<glyph unicode="&#xb1;" horiz-adv-x="1128" d="M152 668v96h362v375h98v-375h365v-96h-365v-375h-98v375h-362zM162 0v96h805v-96h-805z" />
<glyph unicode="&#xb2;" horiz-adv-x="749" d="M119 1493q4 3 11.5 8t33 18.5t52.5 23.5t68.5 18t82.5 8q128 0 196 -70.5t68 -177.5q0 -158 -182 -340l-197 -197h379v-84h-508v84l252 254q92 92 128 157t36 124q0 77 -47.5 121.5t-137.5 44.5q-99 0 -196 -60z" />
<glyph unicode="&#xb3;" horiz-adv-x="770" d="M119 735l24 78q82 -41 207 -41q97 0 151 38t54 134q0 98 -58 135t-171 37l-76 -2v82h84q100 0 151.5 42t51.5 118q0 65 -39 97t-129 32q-51 0 -99.5 -10t-72 -19t-37.5 -18l-31 73q10 6 29 16t83 26t132 16q137 0 198.5 -57.5t61.5 -151.5q0 -151 -154 -195 q174 -48 174 -225q0 -129 -85 -190.5t-220 -61.5q-61 0 -118 12t-84 24z" />
<glyph unicode="&#xb4;" horiz-adv-x="638" d="M152 1346l278 245l70 -78l-297 -231z" />
<glyph unicode="&#xb5;" d="M160 -426v1559h116v-707q0 -90 21.5 -155t53.5 -100.5t83 -56t96 -25.5t107 -5q84 0 161 11t112 23l36 11v1004h117v-1070q-20 -9 -56.5 -23t-148 -37t-221.5 -23q-145 0 -231.5 31t-129.5 106v-543h-116z" />
<glyph unicode="&#xb6;" horiz-adv-x="993" d="M100 1094q0 381 455 381q72 0 134 -7.5t88 -15.5l26 -8v-1198q0 -42 -5 -81.5t-21.5 -87t-43.5 -82t-76 -58t-114 -23.5l-70 4v102q12 -2 51 -2q32 0 57.5 8t51.5 29.5t40.5 69t14.5 117.5v1134h-131v-674h-86q-182 0 -276.5 107t-94.5 285z" />
<glyph unicode="&#xb7;" horiz-adv-x="524" d="M170 616q0 42 24.5 67.5t69.5 25.5q42 0 67 -25.5t25 -67.5q0 -43 -25 -69.5t-67 -26.5q-45 0 -69.5 26t-24.5 70z" />
<glyph unicode="&#xb8;" horiz-adv-x="690" d="M141 -406l19 82q74 -41 157 -41q127 0 127 89q0 90 -129 90q-75 0 -131 -21l60 238h94l-39 -156q30 6 61 6q81 0 135 -39.5t54 -120.5q0 -77 -54 -122t-167 -45q-53 0 -99.5 10t-66.5 20z" />
<glyph unicode="&#xb9;" horiz-adv-x="593" d="M109 1446l196 110h90v-856h-94v768l-154 -90z" />
<glyph unicode="&#xba;" horiz-adv-x="827" d="M70 1065q0 87 17.5 158t55.5 129t107 90.5t164 32.5t164 -32.5t107 -90.5t55.5 -129t17.5 -158q0 -69 -10.5 -128t-35.5 -112.5t-63.5 -90.5t-98.5 -59t-136 -22t-136 22t-98.5 59t-63.5 90.5t-35.5 112.5t-10.5 128zM129 451v79h569v-79h-569zM168 1065q0 -48 3.5 -86 t18.5 -86t40 -80t72.5 -54t111.5 -22q55 0 97 14.5t67.5 42t42 57t24 71t10 72.5t2.5 71q0 48 -3 85t-17.5 86t-39 80.5t-71.5 54t-112 22.5q-64 0 -111.5 -22.5t-72.5 -54.5t-40 -80t-18.5 -86t-3.5 -85z" />
<glyph unicode="&#xbb;" horiz-adv-x="1189" d="M172 205l281 370l-281 371l78 62l340 -433l-340 -432zM621 205l282 370l-282 371l79 62l340 -433l-340 -432z" />
<glyph unicode="&#xbc;" horiz-adv-x="1779" d="M121 1343l194 111h91v-856h-95v768l-153 -90zM518 10l627 1465l78 -31l-627 -1467zM1090 297l372 559h94v-559h119v-84h-119v-213h-96v213h-366zM1186 297h274v412z" />
<glyph unicode="&#xbd;" horiz-adv-x="1865" d="M121 1343l194 111h91v-856h-95v768l-153 -90zM516 10l627 1465l80 -31l-627 -1467zM1233 786q4 3 11.5 8.5t32 20t52 25t69.5 19.5t85 9q127 0 194.5 -69t67.5 -176q0 -166 -178 -342l-197 -197h375v-84h-508v84l252 254q92 95 126 161t34 124q0 161 -174 161 q-121 0 -203 -65z" />
<glyph unicode="&#xbe;" horiz-adv-x="1869" d="M121 631l22 78q88 -41 207 -41q97 0 151 38t54 134q0 98 -58 135t-171 37h-20t-20.5 -0.5t-17.5 -1t-13 -0.5h-5v82h84q100 0 151.5 41.5t51.5 117.5q0 64 -39.5 96.5t-128.5 32.5q-72 0 -128 -16t-81 -31l-31 72q10 7 29 16.5t83 26t132 16.5q138 0 200 -57.5t62 -151.5 q0 -149 -154 -194q174 -49 174 -227q0 -86 -43 -144.5t-110 -83t-154 -24.5q-60 0 -116.5 12t-83.5 24zM623 10l624 1465l80 -31l-625 -1467zM1165 213v84l371 559h94v-559h119v-84h-119v-213h-96v213h-369zM1260 297h274v412z" />
<glyph unicode="&#xbf;" horiz-adv-x="847" d="M82 -18q0 73 23.5 133t61.5 100.5t83.5 76t91 69.5t83.5 71t61.5 90.5t23.5 118.5q0 21 -2.5 45t-5.5 38l-2 13h118q11 -45 11 -104q0 -75 -23.5 -138t-61.5 -106t-83.5 -81.5t-91 -73t-83.5 -70t-61.5 -83.5t-23.5 -104q0 -101 75.5 -158t237.5 -57q90 0 168.5 18.5 t111.5 37.5l33 18l37 -98q-5 -3 -14.5 -8.5t-43 -19.5t-71.5 -24.5t-100 -19t-129 -8.5q-220 0 -322 87.5t-102 236.5zM465 1069q0 38 22 61t60 23q41 0 62.5 -22.5t21.5 -61.5q0 -38 -22 -60t-62 -22q-38 0 -60 22.5t-22 59.5z" />
<glyph unicode="&#xc0;" horiz-adv-x="1368" d="M70 0l528 1454h172l528 -1454h-122l-170 471h-646l-167 -471h-123zM399 578h570l-285 790zM457 1774l65 79l281 -245l-53 -64z" />
<glyph unicode="&#xc1;" horiz-adv-x="1368" d="M70 0l528 1454h172l528 -1454h-122l-170 471h-646l-167 -471h-123zM399 578h570l-285 790zM578 1608l280 245l66 -79l-293 -230z" />
<glyph unicode="&#xc2;" horiz-adv-x="1368" d="M70 0l528 1454h172l528 -1454h-122l-170 471h-646l-167 -471h-123zM399 578h570l-285 790zM414 1604l270 243l270 -243l-55 -60l-215 174l-215 -174z" />
<glyph unicode="&#xc3;" horiz-adv-x="1368" d="M70 0l528 1454h172l528 -1454h-122l-170 471h-646l-167 -471h-123zM399 578h570l-285 790zM399 1651q1 6 3.5 16.5t15 37.5t29.5 47t49 37t71 17q47 0 89.5 -25t78 -50t66.5 -25q34 0 58 25t31 50l7 25l74 -37q-1 -6 -4 -17t-16 -38t-29.5 -47.5t-48.5 -37.5t-70 -17 q-46 0 -88.5 25t-78.5 50t-67 25q-34 0 -58 -25t-31 -50l-7 -25z" />
<glyph unicode="&#xc4;" horiz-adv-x="1368" d="M70 0l528 1454h172l528 -1454h-122l-170 471h-646l-167 -471h-123zM399 578h570l-285 790zM412 1708q0 35 20 55.5t57 20.5q35 0 55.5 -21t20.5 -55q0 -37 -20.5 -58.5t-55.5 -21.5q-38 0 -57.5 21.5t-19.5 58.5zM803 1708q0 35 20.5 55.5t57.5 20.5q35 0 55 -21t20 -55 q0 -37 -20 -58.5t-55 -21.5q-38 0 -58 21.5t-20 58.5z" />
<glyph unicode="&#xc5;" horiz-adv-x="1368" d="M70 0l528 1454h172l528 -1454h-122l-170 471h-646l-167 -471h-123zM399 578h570l-285 790zM487 1757q0 86 55 136.5t142 50.5q88 0 142.5 -50.5t54.5 -136.5t-54.5 -135t-142.5 -49q-87 0 -142 49t-55 135zM573 1757q0 -51 30 -79.5t81 -28.5q52 0 81.5 28t29.5 80 t-30 82.5t-81 30.5q-50 0 -80.5 -30.5t-30.5 -82.5z" />
<glyph unicode="&#xc6;" horiz-adv-x="1972" d="M70 0l792 1454h979v-106h-786v-535h700v-104h-700v-299q0 -172 106.5 -249t315.5 -77q60 0 119.5 3.5t102 8t75.5 9.5t51 9l18 3v-103q-154 -34 -373 -34q-534 0 -534 432v61h-485l-256 -473h-125zM506 578h430v792z" />
<glyph unicode="&#xc7;" horiz-adv-x="1208" d="M121 727q0 84 9 160t30 152t53.5 140t83.5 119.5t116 94t153.5 60.5t193.5 22q89 0 175 -15.5t127 -31.5l42 -15l-33 -98q-14 6 -39 15t-104 24.5t-160 15.5q-530 0 -530 -643t530 -643q81 0 156.5 14t111.5 28l35 13l33 -98q-16 -7 -45.5 -17t-119.5 -27t-179 -17 l-25 -105q30 6 62 6q81 0 134.5 -39.5t53.5 -120.5q0 -77 -54 -122t-167 -45q-53 0 -100 10t-68 20l-21 10l21 82q74 -41 156 -41q129 0 129 89q0 90 -129 90q-75 0 -131 -21l47 193q-124 12 -220.5 59.5t-157 117t-99.5 164t-54.5 192t-15.5 208.5z" />
<glyph unicode="&#xc8;" horiz-adv-x="1204" d="M170 412v1042h903v-106h-786v-535h702v-104h-702v-299q0 -172 107 -249t315 -77q61 0 120.5 3.5t101.5 8t75 9.5t51 9l18 3v-103q-152 -34 -373 -34q-532 0 -532 432zM387 1774l66 79l280 -245l-53 -64z" />
<glyph unicode="&#xc9;" horiz-adv-x="1204" d="M170 412v1042h903v-106h-786v-535h702v-104h-702v-299q0 -172 107 -249t315 -77q61 0 120.5 3.5t101.5 8t75 9.5t51 9l18 3v-103q-152 -34 -373 -34q-532 0 -532 432zM567 1608l281 245l65 -79l-292 -230z" />
<glyph unicode="&#xca;" horiz-adv-x="1204" d="M170 412v1042h903v-106h-786v-535h702v-104h-702v-299q0 -172 107 -249t315 -77q61 0 120.5 3.5t101.5 8t75 9.5t51 9l18 3v-103q-152 -34 -373 -34q-532 0 -532 432zM369 1604l270 243l270 -243l-55 -60l-215 174l-215 -174z" />
<glyph unicode="&#xcb;" horiz-adv-x="1204" d="M170 412v1042h903v-106h-786v-535h702v-104h-702v-299q0 -172 107 -249t315 -77q61 0 120.5 3.5t101.5 8t75 9.5t51 9l18 3v-103q-152 -34 -373 -34q-532 0 -532 432zM367 1708q0 35 19.5 55.5t55.5 20.5t57 -21t21 -55q0 -37 -20.5 -58.5t-57.5 -21.5q-36 0 -55.5 21.5 t-19.5 58.5zM756 1708q0 34 21 55t57 21q35 0 56 -21t21 -55q0 -37 -21 -58.5t-56 -21.5q-37 0 -57.5 21.5t-20.5 58.5z" />
<glyph unicode="&#xcc;" horiz-adv-x="497" d="M8 1774l64 79l280 -245l-53 -64zM190 0v1454h117v-1454h-117z" />
<glyph unicode="&#xcd;" horiz-adv-x="497" d="M164 1608l280 245l66 -79l-293 -230zM190 0v1454h117v-1454h-117z" />
<glyph unicode="&#xce;" horiz-adv-x="497" d="M-20 1604l270 243l268 -243l-55 -60l-213 174l-215 -174zM190 0v1454h117v-1454h-117z" />
<glyph unicode="&#xcf;" horiz-adv-x="497" d="M-23 1708q0 34 20 55t56 21t57 -21t21 -55q0 -37 -20.5 -58.5t-57.5 -21.5q-36 0 -56 21.5t-20 58.5zM190 0v1454h117v-1454h-117zM369 1708q0 35 19.5 55.5t55.5 20.5t57 -21t21 -55q0 -37 -20.5 -58.5t-57.5 -21.5q-36 0 -55.5 21.5t-19.5 58.5z" />
<glyph unicode="&#xd0;" horiz-adv-x="1374" d="M53 694v99h127v649q195 33 414 33q157 0 275 -40t190 -106t116.5 -165t61 -202.5t16.5 -232.5q0 -131 -16.5 -235.5t-61.5 -203.5t-117.5 -165t-190.5 -105.5t-275 -39.5q-94 0 -197 8t-159 16l-56 8v682h-127zM297 102q153 -18 297 -18q60 0 109 5t107 21.5t102.5 44 t88.5 76.5t72.5 115.5t46 164t17.5 218.5q0 130 -18.5 231.5t-55.5 170.5t-84.5 117t-112 74t-131 37t-149.5 11q-114 0 -289 -20v-557h405v-99h-405v-592z" />
<glyph unicode="&#xd1;" horiz-adv-x="1427" d="M180 0v1454h168l787 -1311l-5 113v1198h117v-1454h-157l-799 1327l6 -117v-1210h-117zM434 1651q1 6 3.5 16.5t15 37.5t29.5 47t49 37t71 17q47 0 89.5 -25t78 -50t66.5 -25q34 0 58 25t31 50l7 25l72 -37q-1 -6 -4 -17t-15.5 -38t-29 -47.5t-48 -37.5t-69.5 -17 q-45 0 -87.5 25t-79 50t-67.5 25q-34 0 -58 -25t-31 -50l-7 -25z" />
<glyph unicode="&#xd2;" horiz-adv-x="1398" d="M121 727q0 748 577 748q580 0 580 -748q0 -747 -580 -747q-577 0 -577 747zM238 727q0 -67 3.5 -123t15.5 -124.5t31.5 -122t54.5 -106.5t82.5 -88.5t117 -57t155.5 -21.5t156 21.5t117.5 57t82.5 88.5t54.5 106.5t31.5 122t15.5 124.5t3.5 123t-3.5 123t-15.5 124.5 t-31.5 122t-54.5 106.5t-82.5 88.5t-117.5 57t-156 21.5t-155.5 -21.5t-117 -57t-82.5 -88.5t-54.5 -106.5t-31.5 -122t-15.5 -124.5t-3.5 -123zM403 1774l66 79l279 -245l-52 -64z" />
<glyph unicode="&#xd3;" horiz-adv-x="1398" d="M121 727q0 748 577 748q580 0 580 -748q0 -747 -580 -747q-577 0 -577 747zM238 727q0 -67 3.5 -123t15.5 -124.5t31.5 -122t54.5 -106.5t82.5 -88.5t117 -57t155.5 -21.5t156 21.5t117.5 57t82.5 88.5t54.5 106.5t31.5 122t15.5 124.5t3.5 123t-3.5 123t-15.5 124.5 t-31.5 122t-54.5 106.5t-82.5 88.5t-117.5 57t-156 21.5t-155.5 -21.5t-117 -57t-82.5 -88.5t-54.5 -106.5t-31.5 -122t-15.5 -124.5t-3.5 -123zM612 1608l279 245l65 -79l-292 -230z" />
<glyph unicode="&#xd4;" horiz-adv-x="1398" d="M121 727q0 748 577 748q580 0 580 -748q0 -747 -580 -747q-577 0 -577 747zM238 727q0 -67 3.5 -123t15.5 -124.5t31.5 -122t54.5 -106.5t82.5 -88.5t117 -57t155.5 -21.5t156 21.5t117.5 57t82.5 88.5t54.5 106.5t31.5 122t15.5 124.5t3.5 123t-3.5 123t-15.5 124.5 t-31.5 122t-54.5 106.5t-82.5 88.5t-117.5 57t-156 21.5t-155.5 -21.5t-117 -57t-82.5 -88.5t-54.5 -106.5t-31.5 -122t-15.5 -124.5t-3.5 -123zM430 1604l268 243l271 -243l-56 -60l-215 174l-213 -174z" />
<glyph unicode="&#xd5;" horiz-adv-x="1398" d="M121 727q0 748 577 748q580 0 580 -748q0 -747 -580 -747q-577 0 -577 747zM238 727q0 -67 3.5 -123t15.5 -124.5t31.5 -122t54.5 -106.5t82.5 -88.5t117 -57t155.5 -21.5t156 21.5t117.5 57t82.5 88.5t54.5 106.5t31.5 122t15.5 124.5t3.5 123t-3.5 123t-15.5 124.5 t-31.5 122t-54.5 106.5t-82.5 88.5t-117.5 57t-156 21.5t-155.5 -21.5t-117 -57t-82.5 -88.5t-54.5 -106.5t-31.5 -122t-15.5 -124.5t-3.5 -123zM393 1651q1 6 3.5 16.5t15 37.5t29.5 47t49 37t71 17q47 0 89.5 -25t78 -50t66.5 -25q34 0 58 25t31 50l7 25l72 -37 q-1 -6 -4 -17t-15.5 -38t-29 -47.5t-48 -37.5t-69.5 -17q-46 0 -88.5 25t-78.5 50t-67 25q-34 0 -58 -25t-31 -50l-7 -25z" />
<glyph unicode="&#xd6;" horiz-adv-x="1398" d="M121 727q0 748 577 748q580 0 580 -748q0 -747 -580 -747q-577 0 -577 747zM238 727q0 -67 3.5 -123t15.5 -124.5t31.5 -122t54.5 -106.5t82.5 -88.5t117 -57t155.5 -21.5t156 21.5t117.5 57t82.5 88.5t54.5 106.5t31.5 122t15.5 124.5t3.5 123t-3.5 123t-15.5 124.5 t-31.5 122t-54.5 106.5t-82.5 88.5t-117.5 57t-156 21.5t-155.5 -21.5t-117 -57t-82.5 -88.5t-54.5 -106.5t-31.5 -122t-15.5 -124.5t-3.5 -123zM426 1708q0 34 21 55t57 21q35 0 55.5 -21t20.5 -55q0 -37 -20.5 -58.5t-55.5 -21.5q-37 0 -57.5 21.5t-20.5 58.5zM817 1708 q0 34 21 55t57 21q35 0 55.5 -21t20.5 -55q0 -37 -20.5 -58.5t-55.5 -21.5q-37 0 -57.5 21.5t-20.5 58.5z" />
<glyph unicode="&#xd7;" horiz-adv-x="1132" d="M162 950l69 70l334 -336l328 328l68 -66l-328 -328l338 -337l-70 -70l-338 338l-327 -326l-66 66l326 325z" />
<glyph unicode="&#xd8;" horiz-adv-x="1398" d="M121 727q0 748 577 748q110 0 205 -29l64 168l94 -35l-64 -174q281 -156 281 -678q0 -747 -580 -747q-111 0 -213 30l-69 -188l-97 37l72 194q-270 158 -270 674zM238 727q0 -88 6.5 -159t25 -152t59 -147t101.5 -109l436 1183q-79 27 -168 27q-86 0 -155.5 -21.5 t-117 -57t-82.5 -88.5t-54.5 -106.5t-31.5 -122t-15.5 -124.5t-3.5 -123zM522 113q79 -29 176 -29q86 0 156 21.5t117.5 57t82.5 88.5t54.5 106.5t31.5 122t15.5 124.5t3.5 123q0 88 -7 160.5t-27 154.5t-62 148.5t-105 109.5z" />
<glyph unicode="&#xd9;" horiz-adv-x="1417" d="M170 555v899h117v-905q0 -88 13 -158t35 -118t55.5 -83t67.5 -55t79.5 -32t84.5 -15.5t87 -3.5t87 3.5t84 15.5t79.5 32t68 55t55 83t34.5 118t13 158v905h117v-899q0 -158 -35 -270t-105.5 -178.5t-167.5 -96.5t-230 -30t-230 30t-168 96.5t-106 178.5t-35 270z M442 1774l66 79l280 -245l-53 -64z" />
<glyph unicode="&#xda;" horiz-adv-x="1417" d="M170 555v899h117v-905q0 -88 13 -158t35 -118t55.5 -83t67.5 -55t79.5 -32t84.5 -15.5t87 -3.5t87 3.5t84 15.5t79.5 32t68 55t55 83t34.5 118t13 158v905h117v-899q0 -158 -35 -270t-105.5 -178.5t-167.5 -96.5t-230 -30t-230 30t-168 96.5t-106 178.5t-35 270z M618 1608l281 245l66 -79l-293 -230z" />
<glyph unicode="&#xdb;" horiz-adv-x="1417" d="M170 555v899h117v-905q0 -88 13 -158t35 -118t55.5 -83t67.5 -55t79.5 -32t84.5 -15.5t87 -3.5t87 3.5t84 15.5t79.5 32t68 55t55 83t34.5 118t13 158v905h117v-899q0 -158 -35 -270t-105.5 -178.5t-167.5 -96.5t-230 -30t-230 30t-168 96.5t-106 178.5t-35 270z M438 1604l271 243l270 -243l-55 -60l-215 174l-215 -174z" />
<glyph unicode="&#xdc;" horiz-adv-x="1417" d="M170 555v899h117v-905q0 -88 13 -158t35 -118t55.5 -83t67.5 -55t79.5 -32t84.5 -15.5t87 -3.5t87 3.5t84 15.5t79.5 32t68 55t55 83t34.5 118t13 158v905h117v-899q0 -158 -35 -270t-105.5 -178.5t-167.5 -96.5t-230 -30t-230 30t-168 96.5t-106 178.5t-35 270z M436 1708q0 34 20 55t56 21t57 -21t21 -55q0 -37 -20.5 -58.5t-57.5 -21.5q-36 0 -56 21.5t-20 58.5zM827 1708q0 35 20.5 55.5t57.5 20.5q35 0 55.5 -21t20.5 -55q0 -37 -20.5 -58.5t-55.5 -21.5q-38 0 -58 21.5t-20 58.5z" />
<glyph unicode="&#xdd;" horiz-adv-x="1277" d="M59 1454h131l449 -739l448 739h132l-523 -848v-606h-118v612zM565 1608l281 245l65 -79l-293 -230z" />
<glyph unicode="&#xde;" horiz-adv-x="1245" d="M180 0v1454h117v-205q175 23 332 23q263 0 399.5 -119.5t136.5 -347.5q0 -75 -19 -143t-61 -128.5t-103.5 -104.5t-153 -69.5t-203.5 -25.5q-215 0 -328 10v-344h-117zM297 449q113 -9 326 -9q200 0 312 97t112 268q0 181 -109 270.5t-307 89.5q-181 0 -334 -20v-696z " />
<glyph unicode="&#xdf;" horiz-adv-x="1204" d="M170 0v1233q0 81 25.5 143.5t64.5 99.5t92 60.5t102.5 32t102.5 8.5q185 0 294.5 -81.5t109.5 -217.5q0 -65 -30 -118t-72.5 -88t-85.5 -67.5t-73 -73t-30 -87.5q0 -48 25 -86t64.5 -64.5t87.5 -52t96 -55t87.5 -66t64.5 -93t25 -128.5q0 -147 -98.5 -233t-280.5 -86 q-80 0 -156.5 14.5t-112.5 29.5l-36 15l25 100q13 -6 37 -15t95.5 -24.5t139.5 -15.5q123 0 198 53t75 154q0 58 -25 103.5t-65 75.5t-88 57t-96.5 54.5t-88.5 60.5t-65 83t-25 113q0 51 16 93t42 71t57.5 54t62.5 48.5t57 47.5t42 57.5t16 72.5q0 67 -43.5 111.5t-104.5 62 t-135 17.5q-56 0 -103 -12t-87 -37.5t-63 -72.5t-23 -110v-1241h-117z" />
<glyph unicode="&#xe0;" horiz-adv-x="1138" d="M119 295q0 75 24.5 131.5t66 91.5t102 57t125.5 30.5t145 8.5q120 0 280 -24v174q0 153 -78 219t-239 66q-88 0 -170.5 -17t-120.5 -34l-39 -17l-27 100q165 72 365 72q216 0 321 -93t105 -296v-701q-19 -9 -53.5 -23t-145.5 -37t-227 -23q-434 0 -434 315zM236 293 q0 -61 23.5 -103.5t68.5 -65.5t99 -32.5t124 -9.5q76 0 154 11t117 21l40 11v364q-161 23 -276 23q-79 0 -138.5 -10t-109.5 -33.5t-76 -67.5t-26 -108zM358 1511l66 80l278 -245l-51 -64z" />
<glyph unicode="&#xe1;" horiz-adv-x="1138" d="M119 295q0 75 24.5 131.5t66 91.5t102 57t125.5 30.5t145 8.5q120 0 280 -24v174q0 153 -78 219t-239 66q-88 0 -170.5 -17t-120.5 -34l-39 -17l-27 100q165 72 365 72q216 0 321 -93t105 -296v-701q-19 -9 -53.5 -23t-145.5 -37t-227 -23q-434 0 -434 315zM236 293 q0 -61 23.5 -103.5t68.5 -65.5t99 -32.5t124 -9.5q76 0 154 11t117 21l40 11v364q-161 23 -276 23q-79 0 -138.5 -10t-109.5 -33.5t-76 -67.5t-26 -108zM430 1346l281 245l63 -80l-291 -229z" />
<glyph unicode="&#xe2;" horiz-adv-x="1138" d="M119 295q0 75 24.5 131.5t66 91.5t102 57t125.5 30.5t145 8.5q120 0 280 -24v174q0 153 -78 219t-239 66q-88 0 -170.5 -17t-120.5 -34l-39 -17l-27 100q165 72 365 72q216 0 321 -93t105 -296v-701q-19 -9 -53.5 -23t-145.5 -37t-227 -23q-434 0 -434 315zM236 293 q0 -61 23.5 -103.5t68.5 -65.5t99 -32.5t124 -9.5q76 0 154 11t117 21l40 11v364q-161 23 -276 23q-79 0 -138.5 -10t-109.5 -33.5t-76 -67.5t-26 -108zM293 1343l270 246l268 -246l-53 -59l-215 176l-215 -176z" />
<glyph unicode="&#xe3;" horiz-adv-x="1138" d="M119 295q0 75 24.5 131.5t66 91.5t102 57t125.5 30.5t145 8.5q120 0 280 -24v174q0 153 -78 219t-239 66q-88 0 -170.5 -17t-120.5 -34l-39 -17l-27 100q165 72 365 72q216 0 321 -93t105 -296v-701q-19 -9 -53.5 -23t-145.5 -37t-227 -23q-434 0 -434 315zM236 293 q0 -61 23.5 -103.5t68.5 -65.5t99 -32.5t124 -9.5q76 0 154 11t117 21l40 11v364q-161 23 -276 23q-79 0 -138.5 -10t-109.5 -33.5t-76 -67.5t-26 -108zM272 1343q1 6 3.5 16.5t15 37.5t29.5 47.5t49 37.5t71 17q47 0 89.5 -25t78 -50t66.5 -25q34 0 58 25t31 50l7 25 l72 -37q-1 -6 -4 -16.5t-15.5 -37.5t-29 -47t-48 -37t-69.5 -17q-46 0 -88.5 25t-78.5 50t-67 25q-34 0 -58 -25t-31 -50l-7 -25z" />
<glyph unicode="&#xe4;" horiz-adv-x="1138" d="M119 295q0 75 24.5 131.5t66 91.5t102 57t125.5 30.5t145 8.5q120 0 280 -24v174q0 153 -78 219t-239 66q-88 0 -170.5 -17t-120.5 -34l-39 -17l-27 100q165 72 365 72q216 0 321 -93t105 -296v-701q-19 -9 -53.5 -23t-145.5 -37t-227 -23q-434 0 -434 315zM236 293 q0 -61 23.5 -103.5t68.5 -65.5t99 -32.5t124 -9.5q76 0 154 11t117 21l40 11v364q-161 23 -276 23q-79 0 -138.5 -10t-109.5 -33.5t-76 -67.5t-26 -108zM295 1425q0 34 20 55t56 21t57 -21t21 -55q0 -35 -20.5 -56t-57.5 -21q-36 0 -56 20.5t-20 56.5zM684 1425q0 34 21 55 t57 21q35 0 56.5 -21t21.5 -55q0 -35 -21.5 -56t-56.5 -21q-36 0 -57 21t-21 56z" />
<glyph unicode="&#xe5;" horiz-adv-x="1138" d="M119 295q0 75 24.5 131.5t66 91.5t102 57t125.5 30.5t145 8.5q120 0 280 -24v174q0 153 -78 219t-239 66q-88 0 -170.5 -17t-120.5 -34l-39 -17l-27 100q165 72 365 72q216 0 321 -93t105 -296v-701q-19 -9 -53.5 -23t-145.5 -37t-227 -23q-434 0 -434 315zM236 293 q0 -61 23.5 -103.5t68.5 -65.5t99 -32.5t124 -9.5q76 0 154 11t117 21l40 11v364q-161 23 -276 23q-79 0 -138.5 -10t-109.5 -33.5t-76 -67.5t-26 -108zM377 1468q0 86 54 135.5t142 49.5t142.5 -49.5t54.5 -135.5q0 -87 -54.5 -136.5t-142.5 -49.5t-142 49t-54 137z M463 1468q0 -52 30 -81t80 -29q51 0 81 29t30 81q0 51 -30 81t-81 30q-50 0 -80 -30t-30 -81z" />
<glyph unicode="&#xe6;" horiz-adv-x="1859" d="M119 297q0 317 467 317q129 0 276 -22q0 88 15 168q-3 153 -87 221t-249 68q-86 0 -167.5 -17t-119.5 -34l-39 -17l-27 100q165 72 365 72q307 0 389 -192q107 190 365 190q118 0 203.5 -34.5t132.5 -97t68.5 -138t21.5 -168.5q0 -79 -15 -158h-739q0 -51 1.5 -86.5 t9 -89t21.5 -90.5t41 -78.5t65 -67t96.5 -42.5t132.5 -17q87 0 165 15t113 31l35 15l20 -102q-15 -7 -42.5 -17.5t-116 -28t-181.5 -17.5q-245 0 -362 139q-28 -21 -63.5 -41.5t-91.5 -44.5t-130 -38.5t-153 -14.5q-70 0 -130 9.5t-114.5 32.5t-92.5 58.5t-60.5 90.5 t-22.5 126zM236 295q0 -213 305 -213q218 0 385 119q-56 114 -62 288q-161 23 -276 23q-63 0 -113.5 -5.5t-96 -20.5t-76 -39t-48.5 -62.5t-18 -89.5zM979 653h635q4 50 4 78q0 48 -6 88t-26 84t-52.5 74.5t-90.5 50t-136 19.5q-80 0 -140 -25t-94.5 -62t-55.5 -93 t-28.5 -104.5t-9.5 -109.5z" />
<glyph unicode="&#xe7;" horiz-adv-x="1026" d="M121 567q0 105 15 190.5t51 160.5t92.5 126t143.5 80t200 29q76 0 145 -11.5t100 -23.5l31 -12l-29 -96q-102 39 -241 39q-75 0 -135.5 -17.5t-100.5 -44.5t-69 -68t-45 -81t-25 -91.5t-11.5 -90t-2.5 -85.5q0 -52 2.5 -94t12.5 -94.5t26 -92.5t45.5 -80.5t69.5 -66.5 t99.5 -42.5t133.5 -16.5q61 0 121.5 10t86.5 18t33 11l29 -96q-11 -5 -31.5 -12t-88.5 -20t-140 -15l-25 -105q30 6 62 6q81 0 134.5 -39.5t53.5 -120.5q0 -76 -54.5 -121.5t-166.5 -45.5q-53 0 -100 10t-67 20l-21 10l20 82q74 -41 156 -41q129 0 129 89q0 90 -131 90 q-73 0 -129 -21l47 191q-119 11 -203.5 59t-132 127.5t-69 176.5t-21.5 220z" />
<glyph unicode="&#xe8;" horiz-adv-x="1140" d="M121 567q0 101 15.5 187t50 160.5t87.5 127t132.5 82t179.5 29.5q96 0 170.5 -23.5t122.5 -63t79 -97t43.5 -120t12.5 -136.5q0 -59 -15 -158h-759q0 -46 2.5 -85t12 -89t25.5 -89.5t45 -80t68 -67t98 -43.5t132 -17q88 0 167 15t114 31l34 15l20 -102 q-14 -7 -41.5 -17.5t-116 -28t-182.5 -17.5t-169.5 20t-129.5 58t-93 89t-61.5 118.5t-33 141t-10.5 160.5zM242 653h653q2 25 2 74q0 52 -6.5 94.5t-27 86.5t-53.5 73.5t-90.5 48.5t-133.5 19q-322 0 -344 -396zM336 1511l65 80l281 -245l-53 -64z" />
<glyph unicode="&#xe9;" horiz-adv-x="1140" d="M121 567q0 101 15.5 187t50 160.5t87.5 127t132.5 82t179.5 29.5q96 0 170.5 -23.5t122.5 -63t79 -97t43.5 -120t12.5 -136.5q0 -59 -15 -158h-759q0 -46 2.5 -85t12 -89t25.5 -89.5t45 -80t68 -67t98 -43.5t132 -17q88 0 167 15t114 31l34 15l20 -102 q-14 -7 -41.5 -17.5t-116 -28t-182.5 -17.5t-169.5 20t-129.5 58t-93 89t-61.5 118.5t-33 141t-10.5 160.5zM242 653h653q2 25 2 74q0 52 -6.5 94.5t-27 86.5t-53.5 73.5t-90.5 48.5t-133.5 19q-322 0 -344 -396zM459 1346l278 245l66 -80l-293 -229z" />
<glyph unicode="&#xea;" horiz-adv-x="1140" d="M121 567q0 101 15.5 187t50 160.5t87.5 127t132.5 82t179.5 29.5q96 0 170.5 -23.5t122.5 -63t79 -97t43.5 -120t12.5 -136.5q0 -59 -15 -158h-759q0 -46 2.5 -85t12 -89t25.5 -89.5t45 -80t68 -67t98 -43.5t132 -17q88 0 167 15t114 31l34 15l20 -102 q-14 -7 -41.5 -17.5t-116 -28t-182.5 -17.5t-169.5 20t-129.5 58t-93 89t-61.5 118.5t-33 141t-10.5 160.5zM242 653h653q2 25 2 74q0 52 -6.5 94.5t-27 86.5t-53.5 73.5t-90.5 48.5t-133.5 19q-322 0 -344 -396zM328 1343l270 246l268 -246l-55 -59l-213 176l-215 -176z " />
<glyph unicode="&#xeb;" horiz-adv-x="1140" d="M121 567q0 101 15.5 187t50 160.5t87.5 127t132.5 82t179.5 29.5q96 0 170.5 -23.5t122.5 -63t79 -97t43.5 -120t12.5 -136.5q0 -59 -15 -158h-759q0 -46 2.5 -85t12 -89t25.5 -89.5t45 -80t68 -67t98 -43.5t132 -17q88 0 167 15t114 31l34 15l20 -102 q-14 -7 -41.5 -17.5t-116 -28t-182.5 -17.5t-169.5 20t-129.5 58t-93 89t-61.5 118.5t-33 141t-10.5 160.5zM242 653h653q2 25 2 74q0 52 -6.5 94.5t-27 86.5t-53.5 73.5t-90.5 48.5t-133.5 19q-322 0 -344 -396zM313 1425q0 35 20.5 55.5t57.5 20.5q35 0 55.5 -21t20.5 -55 q0 -35 -20.5 -56t-55.5 -21q-38 0 -58 20.5t-20 56.5zM705 1425q0 34 20.5 55t56.5 21q35 0 55.5 -21t20.5 -55q0 -35 -20.5 -56t-55.5 -21q-36 0 -56.5 20.5t-20.5 56.5z" />
<glyph unicode="&#xec;" horiz-adv-x="458" d="M4 1511l66 80l280 -245l-53 -64zM170 0v1133h117v-1133h-117z" />
<glyph unicode="&#xed;" horiz-adv-x="458" d="M154 1346l278 245l66 -80l-293 -229zM170 0v1133h117v-1133h-117z" />
<glyph unicode="&#xee;" horiz-adv-x="458" d="M-41 1343l270 246l271 -246l-56 -59l-215 176l-215 -176zM170 0v1133h117v-1133h-117z" />
<glyph unicode="&#xef;" horiz-adv-x="458" d="M-43 1425q0 34 20 55t56 21t57 -21t21 -55q0 -35 -20.5 -56t-57.5 -21q-36 0 -56 20.5t-20 56.5zM170 0v1133h117v-1133h-117zM348 1425q0 34 20 55t56 21t57 -21t21 -55q0 -35 -21 -56t-57 -21t-56 20.5t-20 56.5z" />
<glyph unicode="&#xf0;" horiz-adv-x="1193" d="M121 565q0 121 26.5 217t71 158.5t106.5 103.5t130.5 58.5t146.5 17.5q132 0 262 -49q-74 159 -211 266l-149 -151l-66 65l137 138q-139 77 -296 77l16 99q183 0 354 -101l144 144l65 -66l-129 -131q159 -121 254.5 -324t95.5 -481q0 -109 -13.5 -199t-47.5 -171 t-88 -136.5t-137.5 -87.5t-192.5 -32t-192.5 30t-137.5 81t-88 126.5t-47.5 160t-13.5 187.5zM240 565q0 -49 2 -86.5t10 -90.5t22.5 -92t41.5 -81t64 -69t93.5 -44.5t126.5 -17.5t126.5 18.5t94 47.5t64.5 74t41 87.5t22.5 99.5t10.5 98.5t2 94.5q0 189 -52 350 q-151 64 -286 64q-62 0 -115 -13t-103.5 -45.5t-86 -82.5t-57 -130t-21.5 -182z" />
<glyph unicode="&#xf1;" horiz-adv-x="1232" d="M170 0v1069q7 3 20.5 9t57.5 20.5t91 25.5t117.5 20t139.5 9q246 0 361.5 -103.5t115.5 -347.5v-702h-117v707q0 65 -11 117t-29 87.5t-46 61.5t-57 40t-68 22.5t-72.5 11t-76.5 2.5q-84 0 -161 -11.5t-113 -22.5l-35 -11v-1004h-117zM311 1343q1 6 3.5 16.5t15 37.5 t29.5 47.5t49 37.5t71 17q47 0 89.5 -25t78 -50t66.5 -25q34 0 57.5 25t29.5 50l7 25l74 -37q-1 -6 -4 -16.5t-15.5 -37.5t-29.5 -47t-48.5 -37t-70.5 -17q-45 0 -87 25t-78 50t-67 25q-22 0 -40 -10.5t-28 -25t-16.5 -29t-8.5 -24.5l-3 -11z" />
<glyph unicode="&#xf2;" horiz-adv-x="1200" d="M121 565q0 131 23 232.5t76 184t148.5 127t231.5 44.5t231.5 -44.5t148.5 -127t76 -184t23 -232.5t-23 -232t-76 -183t-148.5 -126t-231.5 -44t-231.5 44t-148.5 126t-76 183t-23 232zM240 565q0 -49 2 -86.5t10 -90.5t22.5 -92t41.5 -81t64 -69t93.5 -44.5t126.5 -17.5 t126.5 17.5t94 44.5t64.5 69t41 81.5t22.5 91.5t10.5 90.5t2 86.5t-2 86.5t-10.5 91t-22.5 92.5t-41 82t-64.5 69.5t-94 45t-126.5 17.5t-126.5 -17.5t-93.5 -45t-64 -69.5t-41.5 -82t-22.5 -92.5t-10 -90.5t-2 -87zM348 1511l66 80l278 -245l-51 -64z" />
<glyph unicode="&#xf3;" horiz-adv-x="1200" d="M121 565q0 131 23 232.5t76 184t148.5 127t231.5 44.5t231.5 -44.5t148.5 -127t76 -184t23 -232.5t-23 -232t-76 -183t-148.5 -126t-231.5 -44t-231.5 44t-148.5 126t-76 183t-23 232zM240 565q0 -49 2 -86.5t10 -90.5t22.5 -92t41.5 -81t64 -69t93.5 -44.5t126.5 -17.5 t126.5 17.5t94 44.5t64.5 69t41 81.5t22.5 91.5t10.5 90.5t2 86.5t-2 86.5t-10.5 91t-22.5 92.5t-41 82t-64.5 69.5t-94 45t-126.5 17.5t-126.5 -17.5t-93.5 -45t-64 -69.5t-41.5 -82t-22.5 -92.5t-10 -90.5t-2 -87zM504 1346l278 245l66 -80l-293 -229z" />
<glyph unicode="&#xf4;" horiz-adv-x="1200" d="M121 565q0 131 23 232.5t76 184t148.5 127t231.5 44.5t231.5 -44.5t148.5 -127t76 -184t23 -232.5t-23 -232t-76 -183t-148.5 -126t-231.5 -44t-231.5 44t-148.5 126t-76 183t-23 232zM240 565q0 -49 2 -86.5t10 -90.5t22.5 -92t41.5 -81t64 -69t93.5 -44.5t126.5 -17.5 t126.5 17.5t94 44.5t64.5 69t41 81.5t22.5 91.5t10.5 90.5t2 86.5t-2 86.5t-10.5 91t-22.5 92.5t-41 82t-64.5 69.5t-94 45t-126.5 17.5t-126.5 -17.5t-93.5 -45t-64 -69.5t-41.5 -82t-22.5 -92.5t-10 -90.5t-2 -87zM324 1343l268 246l270 -246l-55 -59l-215 176l-213 -176z " />
<glyph unicode="&#xf5;" horiz-adv-x="1200" d="M121 565q0 131 23 232.5t76 184t148.5 127t231.5 44.5t231.5 -44.5t148.5 -127t76 -184t23 -232.5t-23 -232t-76 -183t-148.5 -126t-231.5 -44t-231.5 44t-148.5 126t-76 183t-23 232zM240 565q0 -49 2 -86.5t10 -90.5t22.5 -92t41.5 -81t64 -69t93.5 -44.5t126.5 -17.5 t126.5 17.5t94 44.5t64.5 69t41 81.5t22.5 91.5t10.5 90.5t2 86.5t-2 86.5t-10.5 91t-22.5 92.5t-41 82t-64.5 69.5t-94 45t-126.5 17.5t-126.5 -17.5t-93.5 -45t-64 -69.5t-41.5 -82t-22.5 -92.5t-10 -90.5t-2 -87zM291 1343q1 6 3.5 16.5t15 37.5t29.5 47.5t49 37.5t71 17 q37 0 72 -15.5t57 -34.5t49.5 -34.5t52.5 -15.5q34 0 58 25t31 50l7 25l74 -37q-1 -6 -4 -16.5t-15.5 -37.5t-29.5 -47t-48.5 -37t-70.5 -17q-36 0 -70 15.5t-57 34.5t-51.5 34.5t-54.5 15.5q-34 0 -58 -25t-31 -50l-8 -25z" />
<glyph unicode="&#xf6;" horiz-adv-x="1200" d="M121 565q0 131 23 232.5t76 184t148.5 127t231.5 44.5t231.5 -44.5t148.5 -127t76 -184t23 -232.5t-23 -232t-76 -183t-148.5 -126t-231.5 -44t-231.5 44t-148.5 126t-76 183t-23 232zM240 565q0 -49 2 -86.5t10 -90.5t22.5 -92t41.5 -81t64 -69t93.5 -44.5t126.5 -17.5 t126.5 17.5t94 44.5t64.5 69t41 81.5t22.5 91.5t10.5 90.5t2 86.5t-2 86.5t-10.5 91t-22.5 92.5t-41 82t-64.5 69.5t-94 45t-126.5 17.5t-126.5 -17.5t-93.5 -45t-64 -69.5t-41.5 -82t-22.5 -92.5t-10 -90.5t-2 -87zM319 1425q0 34 21 55t57 21q35 0 56.5 -21t21.5 -55 q0 -35 -21.5 -56t-56.5 -21q-37 0 -57.5 21t-20.5 56zM711 1425q0 34 20.5 55t56.5 21q35 0 55.5 -21t20.5 -55q0 -35 -20.5 -56t-55.5 -21q-36 0 -56.5 20.5t-20.5 56.5z" />
<glyph unicode="&#xf7;" horiz-adv-x="1148" d="M152 569v90h845v-90h-845zM489 233q0 38 22 62t62 24t62 -24t22 -62q0 -40 -21.5 -63t-62.5 -23t-62.5 23t-21.5 63zM489 963q0 39 21.5 61.5t62.5 22.5t62.5 -22.5t21.5 -61.5q0 -41 -22 -65t-62 -24t-62 24t-22 65z" />
<glyph unicode="&#xf8;" horiz-adv-x="1200" d="M121 565q0 131 23 232.5t76 184t148.5 127t231.5 44.5q83 0 143 -14l58 155l94 -37l-57 -153q241 -119 241 -539q0 -131 -23 -232.5t-76 -184t-148.5 -127t-231.5 -44.5q-88 0 -168 23l-57 -158l-94 35l57 160q-217 127 -217 528zM240 565q0 -63 4 -111.5t16.5 -110 t42.5 -112.5t76 -86l328 891q-54 13 -107 13q-70 0 -126.5 -17.5t-93.5 -45t-64 -69.5t-41.5 -82t-22.5 -92.5t-10 -90.5t-2 -87zM469 100q55 -18 131 -18q62 0 113 12.5t87 37t63.5 53.5t44.5 68.5t28 75.5t16.5 81.5t7 79t1.5 75.5q0 66 -4.5 117t-19.5 116t-50 116.5 t-88 84.5z" />
<glyph unicode="&#xf9;" d="M160 430v703h116v-707q0 -90 21.5 -155t53.5 -100.5t83 -56t96 -25.5t107 -5q84 0 161 11t112 23l36 11v1004h117v-1070q-20 -9 -56.5 -23t-148 -37t-221.5 -23q-246 0 -361.5 103t-115.5 347zM440 1511l66 80l280 -245l-53 -64z" />
<glyph unicode="&#xfa;" d="M160 430v703h116v-707q0 -90 21.5 -155t53.5 -100.5t83 -56t96 -25.5t107 -5q84 0 161 11t112 23l36 11v1004h117v-1070q-20 -9 -56.5 -23t-148 -37t-221.5 -23q-246 0 -361.5 103t-115.5 347zM500 1346l278 245l66 -80l-293 -229z" />
<glyph unicode="&#xfb;" d="M160 430v703h116v-707q0 -90 21.5 -155t53.5 -100.5t83 -56t96 -25.5t107 -5q84 0 161 11t112 23l36 11v1004h117v-1070q-20 -9 -56.5 -23t-148 -37t-221.5 -23q-246 0 -361.5 103t-115.5 347zM338 1343l270 246l271 -246l-56 -59l-215 176l-215 -176z" />
<glyph unicode="&#xfc;" d="M160 430v703h116v-707q0 -90 21.5 -155t53.5 -100.5t83 -56t96 -25.5t107 -5q84 0 161 11t112 23l36 11v1004h117v-1070q-20 -9 -56.5 -23t-148 -37t-221.5 -23q-246 0 -361.5 103t-115.5 347zM346 1425q0 34 20 55t56 21t57 -21t21 -55q0 -35 -21 -56t-57 -21t-56 20.5 t-20 56.5zM737 1425q0 34 20 55t56 21t57 -21t21 -55q0 -35 -20.5 -56t-57.5 -21q-36 0 -56 20.5t-20 56.5z" />
<glyph unicode="&#xfd;" d="M160 430v703h116v-707q0 -90 22 -154.5t54.5 -99.5t83.5 -55.5t94.5 -25.5t102.5 -5q91 0 169.5 11t111.5 23l32 11v1002h117v-1067q0 -91 -12.5 -163.5t-45 -139.5t-85.5 -111.5t-138 -71t-198 -26.5q-86 0 -165.5 14t-116.5 28l-36 13l27 102q12 -6 35 -15t96.5 -24.5 t150.5 -15.5q91 0 158 21t106.5 54t63.5 83.5t32.5 98.5t10.5 110q-143 -41 -311 -41q-241 0 -358 103.5t-117 344.5zM500 1346l278 245l66 -80l-293 -229z" />
<glyph unicode="&#xfe;" horiz-adv-x="1196" d="M170 -426v1982h117v-452q134 49 288 49q246 0 373 -139t127 -449t-126 -447.5t-371 -137.5q-150 0 -291 49v-455h-117zM287 129q133 -47 280 -47q213 0 302 115t89 368t-89.5 369.5t-301.5 116.5q-153 0 -280 -50v-872z" />
<glyph unicode="&#xff;" d="M160 430v703h116v-707q0 -90 22 -154.5t54.5 -99.5t83.5 -55.5t94.5 -25.5t102.5 -5q91 0 169.5 11t111.5 23l32 11v1002h117v-1067q0 -91 -12.5 -163.5t-45 -139.5t-85.5 -111.5t-138 -71t-198 -26.5q-86 0 -165.5 14t-116.5 28l-36 13l27 102q12 -6 35 -15t96.5 -24.5 t150.5 -15.5q91 0 158 21t106.5 54t63.5 83.5t32.5 98.5t10.5 110q-143 -41 -311 -41q-241 0 -358 103.5t-117 344.5zM344 1425q0 34 20 55t56 21t57 -21t21 -55q0 -35 -21 -56t-57 -21t-56 20.5t-20 56.5zM735 1425q0 34 21 55t57 21q35 0 55.5 -21t20.5 -55 q0 -35 -20.5 -56t-55.5 -21q-37 0 -57.5 21t-20.5 56z" />
<glyph unicode="&#x11e;" horiz-adv-x="1308" d="M121 725q0 121 18 225t63.5 203t117 168.5t185 111.5t259.5 42q96 0 191.5 -15.5t142.5 -31.5l47 -15l-31 -98q-15 6 -43.5 15t-117 24.5t-177.5 15.5q-538 0 -538 -645q0 -641 534 -641q128 0 260 33v639h115v-717q-21 -7 -58 -16.5t-138 -26t-187 -16.5 q-147 0 -260.5 42t-184.5 111.5t-116.5 168t-63.5 201.5t-18 222zM455 1808l75 31q1 -6 3 -17t14 -38t29.5 -48t53 -38t81.5 -17q45 0 80 16.5t53 39.5t29 46t13 39l3 17l76 -31q-1 -5 -2 -12.5t-8.5 -30.5t-18 -43.5t-30.5 -46t-45 -43.5t-64.5 -30.5t-85.5 -12.5 q-64 0 -114 22.5t-75.5 54.5t-42 64.5t-20.5 55.5z" />
<glyph unicode="&#x11f;" horiz-adv-x="1196" d="M121 565q0 310 127 449t373 139q101 0 202 -21t152 -42l51 -21v-1003q0 -91 -12.5 -163.5t-45 -139.5t-85.5 -111.5t-138 -71t-198 -26.5q-86 0 -165.5 14t-115.5 28l-37 13l29 102q12 -6 35 -15t97 -24.5t151 -15.5q91 0 158 21.5t105.5 55t62 85t32 100t10.5 111.5 q-118 -47 -293 -47q-119 0 -208.5 31.5t-154.5 99.5t-98.5 181.5t-33.5 270.5zM240 565q0 -253 88 -367t301 -114q142 0 280 47v870q-142 50 -280 50q-212 0 -300.5 -116t-88.5 -370zM369 1524l75 30q1 -6 3 -17t14 -38t29.5 -47.5t53 -37.5t81.5 -17q45 0 80 16t53 39.5 t29 46.5t13 39l3 16l76 -30q-1 -9 -4 -24t-20 -53t-42 -67t-74.5 -53t-113.5 -24t-114 23t-75.5 55.5t-42 64.5t-20.5 55z" />
<glyph unicode="&#x130;" horiz-adv-x="497" d="M162 1751q0 39 23.5 62.5t64.5 23.5q39 0 62.5 -23.5t23.5 -62.5q0 -40 -23 -64t-63 -24q-41 0 -64.5 24t-23.5 64zM190 0v1454h117v-1454h-117z" />
<glyph unicode="&#x131;" horiz-adv-x="458" d="M170 0v1133h117v-1133h-117z" />
<glyph unicode="&#x15e;" horiz-adv-x="1198" d="M121 1098q0 87 31.5 154.5t81 108.5t118 67.5t136 36.5t141.5 10q105 0 203 -17t144 -34l46 -17l-35 -96q-15 7 -43 16.5t-118 26t-185 16.5q-185 0 -295 -66.5t-110 -201.5q0 -40 11.5 -74.5t26.5 -58.5t47 -47t55.5 -36.5t71.5 -30t74.5 -24.5t83.5 -24 q48 -13 76.5 -21.5t73.5 -24t73 -28.5t65.5 -34t60.5 -42t48.5 -50.5t39.5 -62.5t23 -75t9 -90q0 -177 -115.5 -278.5t-324.5 -116.5l-27 -109q30 6 62 6q81 0 134.5 -39.5t53.5 -120.5q0 -76 -54.5 -121.5t-166.5 -45.5q-53 0 -100 10t-67 20l-21 10l20 82q74 -41 156 -41 q129 0 129 89q0 90 -131 90q-73 0 -129 -21l45 187q-101 2 -200 18.5t-147 32.5l-49 16l31 103q19 -7 52.5 -18t133.5 -29.5t195 -18.5q193 0 297 74t104 213q0 35 -7.5 66t-18 55t-31.5 46.5t-39 38.5t-49.5 32.5t-53.5 26t-61.5 23t-62 20.5t-66.5 19q-47 13 -73.5 21 t-70 22.5t-69.5 27t-62 32t-57.5 39t-45.5 47.5t-37 58t-22 69.5t-9 83.5z" />
<glyph unicode="&#x15f;" horiz-adv-x="1003" d="M117 860q0 69 25.5 121.5t66 84.5t98 52t114 27.5t120.5 7.5q77 0 152 -10.5t111 -20.5l36 -10l-25 -100q-112 37 -268 37q-151 0 -232.5 -47t-81.5 -142q0 -29 9 -54t21 -43t37 -35t44.5 -27.5t57 -24t59.5 -20t67 -19.5q47 -14 76.5 -23.5t72.5 -26.5t70 -34t58 -44 t48.5 -57t29.5 -71t12 -90q0 -147 -96.5 -223.5t-272.5 -87.5l-26 -105q30 6 61 6q79 0 133 -39.5t54 -120.5q0 -76 -54 -121.5t-166 -45.5q-53 0 -100 10t-68 20l-20 10l20 82q74 -41 156 -41q129 0 129 89q0 90 -131 90q-73 0 -129 -21l45 184q-75 3 -148 15.5t-109 23.5 l-36 11l23 102q16 -5 43.5 -13t107.5 -21t154 -13q160 0 237.5 54.5t77.5 152.5q0 44 -17 79.5t-40.5 58.5t-67.5 44t-78.5 32.5t-91.5 28.5q-51 15 -78 23.5t-72.5 26t-71 33t-57.5 41t-48.5 53.5t-28.5 66.5t-12 84.5z" />
<glyph unicode="&#x192;" horiz-adv-x="1114" d="M-68 -422l23 103q41 -23 133 -23q120 0 182.5 50t75.5 177l100 961h-237l8 98h240l32 297q8 80 34.5 141t61.5 97.5t82 59.5t91.5 31.5t95.5 8.5q94 0 166 -27l-23 -100q-44 21 -133 21q-119 0 -182 -50t-76 -176l-33 -303h338l-10 -98h-338l-98 -957q-10 -99 -46.5 -168 t-90.5 -103.5t-109.5 -49t-120.5 -14.5q-102 0 -166 24z" />
<glyph unicode="&#x2c6;" horiz-adv-x="819" d="M139 1343l271 246l270 -246l-55 -59l-215 176l-215 -176z" />
<glyph unicode="&#x2da;" horiz-adv-x="677" d="M141 1468q0 86 54.5 135.5t142.5 49.5t143.5 -49.5t55.5 -135.5q0 -87 -55 -136.5t-144 -49.5q-88 0 -142.5 49.5t-54.5 136.5zM229 1468q0 -52 29.5 -81t79.5 -29q51 0 81 29t30 81q0 51 -30 81t-81 30q-50 0 -79.5 -30t-29.5 -81z" />
<glyph unicode="&#x2dc;" horiz-adv-x="849" d="M139 1343q1 6 3.5 16.5t15 37.5t29.5 47.5t49 37.5t71 17q47 0 89.5 -25t78 -50t66.5 -25q34 0 58 25t31 50l7 25l74 -37q-1 -6 -4 -16.5t-16 -37.5t-29.5 -47t-48.5 -37t-70 -17q-45 0 -87.5 25t-79 50t-67.5 25q-34 0 -58 -25t-31 -50l-7 -25z" />
<glyph unicode="&#x3a9;" horiz-adv-x="1445" d="M129 0v90h346q-46 30 -88 68t-88.5 99.5t-79.5 133.5t-54.5 174t-21.5 217q0 107 17 202.5t59.5 187t107 157.5t166 106t230.5 40t230.5 -40t166 -106t107 -157.5t59.5 -187t17 -202.5q0 -114 -21.5 -215.5t-54.5 -174t-79 -134t-89 -100t-90 -68.5h348v-90h-512v70 q8 3 21.5 9.5t53 32.5t75.5 59t79.5 92t75 128.5t53 172t21.5 218.5q0 55 -4.5 107t-18 112.5t-34.5 111.5t-57 99.5t-83 82.5t-114.5 54.5t-149.5 20.5t-149.5 -20.5t-114.5 -54.5t-83 -82.5t-57 -100t-34.5 -112t-18 -112.5t-4.5 -108q0 -112 20 -211.5t50.5 -168.5 t71 -127t78 -93t74.5 -61t57 -36t30 -13v-70h-514z" />
<glyph unicode="&#x3c0;" horiz-adv-x="1595" d="M111 1032v101h1355v-101h-354v-674q0 -138 41 -205t150 -67q37 0 72.5 7t52.5 15l16 7l18 -97q-7 -4 -19.5 -10.5t-56.5 -17t-92 -10.5q-144 0 -221.5 86.5t-77.5 291.5v674h-452v-1032h-117v1032h-315z" />
<glyph unicode="&#x2000;" horiz-adv-x="1199" />
<glyph unicode="&#x2001;" horiz-adv-x="2398" />
<glyph unicode="&#x2002;" horiz-adv-x="1199" />
<glyph unicode="&#x2003;" horiz-adv-x="2398" />
<glyph unicode="&#x2004;" horiz-adv-x="799" />
<glyph unicode="&#x2005;" horiz-adv-x="599" />
<glyph unicode="&#x2006;" horiz-adv-x="399" />
<glyph unicode="&#x2007;" horiz-adv-x="399" />
<glyph unicode="&#x2008;" horiz-adv-x="299" />
<glyph unicode="&#x2009;" horiz-adv-x="163" />
<glyph unicode="&#x200a;" horiz-adv-x="133" />
<glyph unicode="&#x2010;" horiz-adv-x="870" d="M141 549v96h586v-96h-586z" />
<glyph unicode="&#x2011;" horiz-adv-x="870" d="M141 549v96h586v-96h-586z" />
<glyph unicode="&#x2012;" horiz-adv-x="870" d="M141 549v96h586v-96h-586z" />
<glyph unicode="&#x2013;" horiz-adv-x="1155" d="M152 549v96h852v-96h-852z" />
<glyph unicode="&#x2014;" horiz-adv-x="1470" d="M152 549v96h1165v-96h-1165z" />
<glyph unicode="&#x2018;" horiz-adv-x="454" d="M123 1118q0 41 31.5 140.5t62.5 178.5l31 79l63 -27q-15 -57 -34 -192.5t-19 -206.5v-21q-24 -22 -63 -22q-32 0 -52 18.5t-20 52.5z" />
<glyph unicode="&#x2019;" horiz-adv-x="454" d="M143 1073q16 54 35 189t19 208v23q24 23 63 23q32 0 52 -19t20 -53q0 -41 -31 -140t-61 -178l-31 -79z" />
<glyph unicode="&#x201a;" horiz-adv-x="471" d="M121 -297q16 56 34.5 191t18.5 208v23q27 22 66 22q32 0 51.5 -18.5t19.5 -52.5q0 -41 -31.5 -141t-62.5 -179l-31 -80z" />
<glyph unicode="&#x201c;" horiz-adv-x="731" d="M162 1118q0 41 31 140.5t61 178.5l31 79l65 -27q-16 -54 -34.5 -189t-18.5 -208v-23q-27 -22 -64 -22q-32 0 -51.5 18.5t-19.5 52.5zM422 1118q0 41 30.5 140.5t61.5 178.5l31 79l65 -27q-16 -55 -35.5 -195.5t-19.5 -210.5v-14q-24 -22 -63 -22q-32 0 -51 18.5t-19 52.5 z" />
<glyph unicode="&#x201d;" horiz-adv-x="731" d="M121 1073q16 55 35.5 195.5t19.5 210.5v14q25 23 64 23q32 0 51.5 -19t19.5 -53q0 -41 -31.5 -140t-62.5 -178l-31 -79zM381 1073q16 54 34.5 189t18.5 208v23q27 23 64 23q33 0 52 -18.5t19 -53.5q0 -41 -31 -140t-62 -178l-30 -79z" />
<glyph unicode="&#x201e;" horiz-adv-x="731" d="M121 -297q16 57 35.5 197.5t19.5 210.5v14q25 22 64 22q32 0 51.5 -18.5t19.5 -52.5q0 -42 -31.5 -142t-62.5 -179l-31 -79zM381 -297q16 56 34.5 191t18.5 208v23q27 22 64 22q33 0 52 -18t19 -53q0 -41 -31 -141t-62 -179l-30 -80z" />
<glyph unicode="&#x2026;" horiz-adv-x="1515" d="M160 74q0 42 24.5 68t69.5 26q42 0 67 -26t25 -68t-25 -68t-67 -26q-45 0 -69.5 26t-24.5 68zM664 74q0 42 25 68t69 26q43 0 67.5 -26t24.5 -68t-24.5 -68t-67.5 -26q-44 0 -69 26t-25 68zM1169 74q0 42 25 68t70 26q42 0 67 -26t25 -68t-25 -68t-67 -26q-45 0 -70 26 t-25 68z" />
<glyph unicode="&#x202f;" horiz-adv-x="479" />
<glyph unicode="&#x2030;" horiz-adv-x="2410" d="M119 1116q0 54 9 103.5t30.5 97t55 82t86 55.5t118.5 21t118.5 -21t86 -55.5t55 -82t30.5 -97t9 -103.5q0 -69 -15 -129.5t-48 -114t-93.5 -85t-142.5 -31.5t-142.5 31.5t-93.5 85t-48 114t-15 129.5zM217 1116q0 -78 17.5 -137t64.5 -99t119 -40q55 0 95 22t62.5 62 t32.5 87.5t10 104.5t-10 104.5t-32.5 87t-62.5 61.5t-95 22q-106 0 -153.5 -77t-47.5 -198zM487 10l627 1465l80 -31l-627 -1464zM965 338q0 69 15 129.5t48 114t93.5 85t142.5 31.5t142.5 -31.5t92.5 -85t47 -114t15 -129.5q0 -54 -8.5 -103.5t-30 -97t-54.5 -81.5 t-85.5 -55t-118.5 -21q-82 0 -142.5 31t-93.5 84t-48 113.5t-15 129.5zM1063 338q0 -121 47.5 -198t153.5 -77q44 0 78 15t56.5 40t37 60.5t20.5 75t6 84.5t-6 84.5t-20.5 75t-37 61t-56.5 40.5t-78 15q-72 0 -119 -40t-64.5 -99t-17.5 -137zM1694 338q0 69 15 129.5t48 114 t93.5 85t142.5 31.5t142.5 -31.5t92.5 -85t47 -114t15 -129.5q0 -54 -8.5 -103.5t-30 -97t-54.5 -81.5t-85.5 -55t-118.5 -21q-82 0 -142.5 31t-93.5 84t-48 113.5t-15 129.5zM1792 338q0 -121 47.5 -198t153.5 -77q44 0 78 15t56.5 40t37 60.5t20.5 75t6 84.5t-6 84.5 t-20.5 75t-37 61t-56.5 40.5t-78 15q-72 0 -119 -40t-64.5 -99t-17.5 -137z" />
<glyph unicode="&#x2039;" horiz-adv-x="741" d="M152 575l337 433l82 -62l-284 -371l284 -370l-82 -62z" />
<glyph unicode="&#x203a;" horiz-adv-x="741" d="M172 205l281 370l-281 371l80 62l340 -433l-340 -432z" />
<glyph unicode="&#x2044;" horiz-adv-x="557" d="M-74 10l625 1465l80 -31l-627 -1467z" />
<glyph unicode="&#x205f;" horiz-adv-x="599" />
<glyph unicode="&#x2070;" horiz-adv-x="870" d="M119 1128q0 71 7 129t27 118.5t54 101t91.5 66.5t135.5 26t136 -26t92 -66.5t54.5 -101t27 -118.5t6.5 -129t-6.5 -129t-27 -118t-54.5 -100.5t-92 -66.5t-136 -26t-135.5 26t-91.5 66.5t-54 100.5t-27 118t-7 129zM219 1128q0 -45 1 -72.5t5 -70t12 -68.5t24 -56.5 t38 -47.5t56.5 -29t78.5 -12q39 0 70 8t53 25t38.5 35.5t26.5 48t16 53.5t9 60.5t3.5 62t0.5 63.5q0 44 -1 72.5t-5.5 70t-12.5 68.5t-24 57t-38.5 47.5t-57 29.5t-78.5 12t-78.5 -12t-56.5 -29t-38 -48t-24 -57t-12 -68.5t-5 -70t-1 -72.5z" />
<glyph unicode="&#x2074;" horiz-adv-x="763" d="M84 913v84l371 559h94v-559h119v-84h-119v-213h-96v213h-369zM178 997h275v412z" />
<glyph unicode="&#x2075;" horiz-adv-x="776" d="M119 737l20 82q86 -47 209 -47q96 0 153.5 50t57.5 143q0 98 -52.5 150t-156.5 52q-96 0 -194 -39l24 428h430v-81h-348l-14 -244q66 20 119 20q142 0 216 -75.5t74 -202.5q0 -129 -82.5 -207t-220.5 -78q-128 0 -235 49z" />
<glyph unicode="&#x2076;" horiz-adv-x="813" d="M119 1106q0 72 9.5 136.5t33 125.5t60 104.5t94 70t130.5 26.5q51 0 100.5 -12.5t73.5 -24.5l23 -12l-35 -74q-62 39 -162 39q-52 0 -91.5 -17t-63.5 -44.5t-39.5 -67t-22 -78.5t-8.5 -86q88 57 201 57q133 0 201.5 -73.5t68.5 -200.5q0 -129 -75 -208t-201 -79 q-151 0 -224 110.5t-73 307.5zM219 1079q0 -307 199 -307q92 0 136 60.5t44 138.5q0 192 -180 192q-112 0 -199 -59v-25z" />
<glyph unicode="&#x2077;" horiz-adv-x="706" d="M113 1473v83h512v-47l-316 -809h-100l299 773h-395z" />
<glyph unicode="&#x2078;" horiz-adv-x="843" d="M119 920q0 148 155 239q-129 66 -129 193q0 104 76.5 159.5t198.5 55.5q125 0 201.5 -56.5t76.5 -154.5q0 -127 -139 -209q166 -74 166 -223q0 -119 -80.5 -179.5t-222.5 -60.5q-143 0 -223 61t-80 175zM217 926q0 -81 54.5 -119.5t150.5 -38.5t151.5 37t55.5 113 q0 36 -12.5 64.5t-30 45.5t-49.5 32.5t-56.5 23t-66 20t-64.5 20.5q-133 -63 -133 -198zM242 1358q0 -27 6.5 -49t22 -38.5t30 -28t41.5 -22t44.5 -16.5t51 -15.5t49.5 -14.5q115 70 115 182q0 131 -180 131q-83 0 -131.5 -31.5t-48.5 -97.5z" />
<glyph unicode="&#x2079;" horiz-adv-x="813" d="M119 1282q0 128 75.5 207.5t202.5 79.5q150 0 222.5 -110.5t72.5 -307.5q0 -72 -9.5 -136t-32.5 -125.5t-59 -105t-93.5 -70t-130.5 -26.5q-52 0 -101 12t-72 24l-24 13l33 74q64 -39 164 -39q64 0 108.5 24.5t68 69.5t34.5 92t14 107q-88 -57 -203 -57 q-133 0 -201.5 73.5t-68.5 200.5zM215 1286q0 -24 1 -40.5t10.5 -48t27 -51.5t54 -36t87.5 -16q104 0 199 61v23q0 307 -199 307q-92 0 -136 -60.5t-44 -138.5z" />
<glyph unicode="&#x207f;" horiz-adv-x="860" d="M111 614v740q54 30 142 49.5t185 19.5q163 0 242.5 -75t79.5 -242v-492h-98v494q0 62 -13.5 107t-33 69t-50.5 37.5t-56 16.5t-60 3q-68 0 -128 -9t-86 -18l-26 -9v-691h-98z" />
<glyph unicode="&#x2080;" horiz-adv-x="870" d="M119 104q0 71 7 129t27 118.5t54 101t91.5 66.5t135.5 26t136 -26t92 -66.5t54.5 -101t27 -118.5t6.5 -129t-6.5 -129t-27 -118t-54.5 -100.5t-92 -66.5t-136 -26t-135.5 26t-91.5 66.5t-54 100.5t-27 118t-7 129zM219 104q0 -45 1 -72.5t5 -70t12 -68.5t24 -56.5 t38 -47.5t56.5 -29t78.5 -12q39 0 70 8t53 25t38.5 35.5t26.5 48t16 53.5t9 60.5t3.5 62t0.5 63.5q0 44 -1 72.5t-5.5 70t-12.5 68.5t-24 57t-38.5 47.5t-57 29.5t-78.5 12t-78.5 -12t-56.5 -29t-38 -48t-24 -57t-12 -68.5t-5 -70t-1 -72.5z" />
<glyph unicode="&#x2081;" horiz-adv-x="593" d="M109 422l196 110h90v-856h-94v768l-154 -90z" />
<glyph unicode="&#x2082;" horiz-adv-x="749" d="M119 469q4 3 11.5 8t33 18.5t52.5 23.5t68.5 18t82.5 8q128 0 196 -70.5t68 -177.5q0 -157 -185 -340l-194 -197h379v-84h-508v84l252 254q92 92 128 157t36 124q0 77 -47.5 121.5t-137.5 44.5q-99 0 -196 -60z" />
<glyph unicode="&#x2083;" horiz-adv-x="774" d="M119 -289l24 78q88 -41 207 -41q97 0 151 38t54 134q0 98 -58 135t-171 37l-76 -2v82h84q100 0 151.5 42t51.5 118q0 65 -39 97t-129 32q-51 0 -99.5 -10t-72 -19t-37.5 -18l-31 73q10 6 29 16t83 26t132 16q137 0 198.5 -57.5t61.5 -151.5q0 -151 -154 -195 q174 -48 174 -225q0 -129 -85 -190.5t-220 -61.5q-61 0 -118 12t-84 24z" />
<glyph unicode="&#x2084;" horiz-adv-x="763" d="M84 -27l371 559h94v-559h121v-84h-121v-213h-94v213h-369zM180 -27h275v412z" />
<glyph unicode="&#x2085;" horiz-adv-x="776" d="M119 -287l20 82q86 -47 209 -47q96 0 153.5 50t57.5 143q0 98 -52.5 150t-156.5 52q-96 0 -194 -39l24 428h430v-81h-348l-14 -244q66 20 119 20q142 0 216 -75.5t74 -202.5q0 -129 -82.5 -207t-220.5 -78q-128 0 -235 49z" />
<glyph unicode="&#x2086;" horiz-adv-x="813" d="M119 82q0 72 9.5 136.5t33 125.5t60 104.5t94 70t130.5 26.5q51 0 100.5 -12.5t73.5 -24.5l23 -12l-35 -74q-62 39 -162 39q-52 0 -91.5 -17t-63.5 -44.5t-39.5 -67t-22 -78.5t-8.5 -86q88 57 201 57q133 0 201.5 -73.5t68.5 -200.5q0 -129 -75 -208t-201 -79 q-151 0 -224 110.5t-73 307.5zM219 55q0 -307 199 -307q92 0 136 60.5t44 138.5q0 192 -180 192q-112 0 -199 -59v-25z" />
<glyph unicode="&#x2087;" horiz-adv-x="735" d="M113 449v83h512v-47l-316 -809h-100l299 773h-395z" />
<glyph unicode="&#x2088;" horiz-adv-x="843" d="M119 -104q0 148 155 239q-129 66 -129 193q0 104 76.5 159.5t198.5 55.5q123 0 200.5 -56.5t77.5 -154.5q0 -127 -139 -209q166 -74 166 -223q0 -119 -79.5 -179.5t-221.5 -60.5q-143 0 -224 61t-81 175zM217 -98q0 -81 54.5 -119.5t150.5 -38.5t151.5 37t55.5 113 q0 36 -12.5 64.5t-30 45.5t-49.5 32.5t-56.5 23t-66 20t-64.5 20.5q-133 -63 -133 -198zM242 334q0 -27 6.5 -49t22 -38.5t30 -28t41.5 -22t44.5 -16.5t51 -15.5t49.5 -14.5q115 70 115 182q0 131 -180 131q-83 0 -131.5 -31.5t-48.5 -97.5z" />
<glyph unicode="&#x2089;" horiz-adv-x="813" d="M119 258q0 128 75.5 207.5t202.5 79.5q150 0 222.5 -110.5t72.5 -307.5q0 -72 -9.5 -136t-32.5 -125.5t-59 -105t-93.5 -70t-130.5 -26.5q-52 0 -101.5 12t-72.5 24l-23 13l33 74q64 -39 164 -39q64 0 108.5 24.5t68 69.5t34.5 92t14 107q-88 -57 -203 -57 q-133 0 -201.5 73.5t-68.5 200.5zM215 262q0 -24 1 -40.5t10.5 -48t27 -51.5t54 -36t87.5 -16q104 0 199 61v23q0 307 -199 307q-92 0 -136 -60.5t-44 -138.5z" />
<glyph unicode="&#x20ac;" horiz-adv-x="1265" d="M111 516v88h145q-4 41 -4 123q0 88 4 133h-145v88h157q80 506 557 506q91 0 173.5 -16t119.5 -32l37 -17l-33 -93q-11 6 -33 15t-95.5 24t-153.5 15q-94 0 -168.5 -23t-123 -60.5t-83.5 -91.5t-53 -108t-29 -119h627l-29 -88h-606q-4 -47 -4 -133q0 -80 4 -123h524 l-29 -88h-487q9 -66 26.5 -121.5t52 -111t83 -93.5t124 -62t171.5 -24q80 0 150.5 13.5t101.5 26.5l30 14l33 -92q-14 -7 -40.5 -18t-112.5 -29.5t-177 -18.5q-109 0 -198 27.5t-149.5 74t-105 114t-69 140.5t-37.5 160h-155z" />
<glyph unicode="&#x2122;" horiz-adv-x="1091" d="M61 1370v70h369v-70h-147v-407h-76v407h-146zM496 963l39 477h106l107 -301l106 301h109l30 -477h-69l-31 399l-107 -315h-79l-109 319l-27 -403h-75z" />
<glyph unicode="&#x2190;" horiz-adv-x="1839" d="M121 725l729 729l68 -70l-613 -610h1372v-98h-1374l615 -610l-68 -68z" />
<glyph unicode="&#x2191;" horiz-adv-x="1708" d="M125 748l727 727l729 -727l-68 -68l-612 612v-1292h-96v1292l-612 -612z" />
<glyph unicode="&#x2192;" horiz-adv-x="1839" d="M162 676v98h1372l-612 612l67 68l729 -729l-729 -727l-67 68l614 610h-1374z" />
<glyph unicode="&#x2193;" horiz-adv-x="1708" d="M125 707l68 67l612 -612v1292h96v-1290l612 610l68 -67l-729 -727z" />
<glyph unicode="&#x2202;" horiz-adv-x="1204" d="M109 387q0 220 127 351.5t346 131.5q202 0 356 -112q4 110 4 147q0 74 -9.5 139.5t-33 130t-60.5 111t-97 75t-136 28.5q-62 0 -117 -17t-89 -41.5t-59.5 -49t-36.5 -41.5l-11 -17l-49 104q5 6 15.5 16t45.5 35.5t74.5 45t102 35.5t128.5 16q106 0 188.5 -35t134 -92.5 t84.5 -138t45.5 -163t12.5 -176.5q0 -108 -11 -208t-35 -203.5t-67.5 -187.5t-104 -150.5t-149.5 -103.5t-198 -37q-193 0 -297 113t-104 294zM242 387q0 -58 12.5 -110t41 -101.5t84.5 -78.5t134 -29q71 0 131 25t102 71.5t74.5 102.5t53.5 127t34 136t21 138 q-156 114 -334 114q-87 0 -153.5 -29t-103.5 -71t-60 -99t-30 -103.5t-7 -92.5z" />
<glyph unicode="&#x2206;" horiz-adv-x="1525" d="M119 0l573 1454h142l571 -1454h-1286zM276 104h971l-485 1225z" />
<glyph unicode="&#x220f;" horiz-adv-x="1628" d="M100 1348v106h1428v-106h-320v-1594h-116v1594h-555v-1594h-117v1594h-320z" />
<glyph unicode="&#x2211;" horiz-adv-x="1202" d="M150 -141l565 747l-565 744v104h901v-104h-760l563 -744l-563 -747h760v-105h-901v105z" />
<glyph unicode="&#x221a;" horiz-adv-x="1609" d="M90 752l348 131l381 -1051l621 1724h119l-650 -1802h-178l-362 998l-246 -95z" />
<glyph unicode="&#x221e;" horiz-adv-x="1634" d="M121 678q0 133 90 217t213 84q105 0 201 -64t192 -170q98 106 192 170t197 64q128 0 219 -87t91 -214q0 -134 -91.5 -216.5t-214.5 -82.5q-111 0 -213 67t-180 162q-193 -229 -391 -229q-124 0 -214.5 82t-90.5 217zM213 678q0 -93 63 -150t150 -57q157 0 332 207 q-91 101 -173 154t-167 53q-89 0 -147 -61t-58 -146zM879 678q70 -87 155.5 -147t173.5 -60q89 0 152 57t63 150q0 95 -63 152t-152 57q-152 -12 -329 -209z" />
<glyph unicode="&#x222b;" horiz-adv-x="927" d="M72 -408l24 99q1 0 7 -3.5t17 -8.5t25.5 -9.5t36.5 -8t45 -3.5q51 0 85.5 15t52 45t24 64t6.5 81v1302q0 168 72 239t201 71q48 0 90 -9.5t60 -19.5l18 -10l-25 -99q-1 0 -7 3.5t-17 8.5t-25.5 9.5t-36.5 8t-45 3.5q-51 0 -85.5 -15t-52 -45t-24 -64t-6.5 -81v-1302 q0 -168 -71.5 -238.5t-200.5 -70.5q-48 0 -90 9.5t-60 18.5z" />
<glyph unicode="&#x2248;" horiz-adv-x="1124" d="M152 383q4 6 11 15t30.5 33t50 42.5t69 33.5t86.5 15q47 0 95 -18t80.5 -39t73.5 -39t77 -18q32 0 63.5 11.5t53.5 28.5t40 34t27 28l9 12l55 -67q-4 -6 -11 -15.5t-31.5 -33.5t-51 -42.5t-68.5 -33.5t-86 -15q-46 0 -93 17.5t-79 39t-73.5 39t-78.5 17.5 q-32 0 -64 -11.5t-54.5 -28t-40 -33.5t-26.5 -29l-9 -11zM152 756q4 6 11 15t30.5 33t50 42.5t69 33.5t86.5 15q47 0 95 -18t80.5 -39.5t73.5 -39.5t77 -18q32 0 63.5 12t53.5 29t40 33.5t27 28.5l9 12l55 -68q-4 -6 -11 -15t-31.5 -33t-51 -42.5t-68.5 -33.5t-86 -15 q-46 0 -93 17.5t-79 39t-73.5 39t-78.5 17.5q-51 0 -99.5 -28.5t-71.5 -56.5l-23 -28z" />
<glyph unicode="&#x2260;" horiz-adv-x="1107" d="M152 330v92h243l189 342h-432v92h481l145 262l78 -45l-121 -217h221v-92h-270l-188 -342h458v-92h-510l-143 -260l-78 43l119 217h-192z" />
<glyph unicode="&#x2264;" horiz-adv-x="1161" d="M154 0v86h821v-86h-821zM154 662v104l796 395l35 -82l-731 -366l731 -367l-35 -82z" />
<glyph unicode="&#x2265;" horiz-adv-x="1161" d="M174 346l731 367l-731 366l37 82l797 -395v-104l-797 -398zM186 0v86h822v-86h-822z" />
<glyph unicode="&#x25fc;" horiz-adv-x="1136" d="M0 0v1137h1137v-1137h-1137z" />
<glyph unicode="&#xfb06;" horiz-adv-x="1767" d="M117 860q0 69 25.5 121.5t66 84.5t98 52t114 27.5t120.5 7.5q59 0 137 -8q-45 28 -70.5 79.5t-25.5 116.5q0 105 80.5 173.5t228.5 68.5q88 0 180 -25t134.5 -45.5t58.5 -31.5v-346h385v-101h-385v-676q0 -137 48 -205.5t165 -68.5q44 0 89 8t68 16l23 9l18 -101 q-84 -36 -205 -36q-159 0 -241 88.5t-82 291.5v1065l-7 3q-6 3 -18 7t-28 9.5t-37.5 11t-45 9.5t-52.5 7t-58 3q-215 0 -215 -160q0 -45 16 -83t41.5 -61.5t50 -38t46.5 -20.5l-25 -100q-112 37 -268 37q-151 0 -232.5 -47t-81.5 -142q0 -29 9 -54t21 -43t37 -35t44.5 -27.5 t57 -24t59.5 -20t67 -19.5q47 -14 76.5 -23.5t72.5 -26.5t70 -34t58 -44t48.5 -57t29.5 -71t12 -90q0 -159 -113.5 -236.5t-316.5 -77.5q-83 0 -165 12.5t-122 24.5l-41 13l23 102q16 -5 43.5 -13t107.5 -21t154 -13q160 0 237.5 54.5t77.5 152.5q0 44 -17 79.5t-40.5 58.5 t-67.5 44t-78.5 32.5t-91.5 28.5q-51 15 -78 23.5t-72.5 26t-71 33t-57.5 41t-48.5 53.5t-28.5 66.5t-12 84.5z" />
<glyph horiz-adv-x="1157" d="M113 772q0 178 114 279.5t310 101.5q147 0 247 -59q47 42 123 73t156 31l49 -4v-109q-18 2 -41 2q-120 0 -217 -45q104 -101 104 -270q0 -178 -112.5 -279.5t-308.5 -101.5q-113 0 -195 33q-33 -27 -54.5 -64t-21.5 -73q0 -80 111 -86l315 -19q50 -3 93.5 -11t92.5 -28 t83.5 -51t57.5 -83t23 -120q0 -162 -129 -248.5t-393 -86.5q-109 0 -205.5 14t-138.5 28l-41 15l29 102q14 -6 41.5 -15t121.5 -24.5t199 -15.5q400 0 400 227q0 168 -226 183l-335 22q-98 6 -151.5 54t-53.5 124q0 106 100 197q-147 103 -147 307zM229 772q0 -134 79 -206 t229 -72q149 0 227 72t78 206q0 135 -77 207t-228 72q-150 0 -229 -72.5t-79 -206.5z" />
<glyph horiz-adv-x="1116" d="M55 -414l25 99q65 -27 151 -27q98 0 166 76t133 266h-63l-410 1133h121l379 -1055l381 1055h119l-408 -1129q-35 -97 -63 -161t-64.5 -123.5t-76 -93t-92.5 -53t-120 -19.5q-51 0 -95.5 8t-63.5 16z" />
<glyph horiz-adv-x="1157" d="M113 772q0 178 114 279.5t310 101.5q147 0 247 -59q47 42 123 73t156 31l49 -4v-109q-18 2 -41 2q-120 0 -217 -45q104 -101 104 -270q0 -178 -112.5 -279.5t-308.5 -101.5q-113 0 -195 33q-33 -27 -54.5 -64t-21.5 -73q0 -80 111 -86l315 -19q50 -3 93.5 -11t92.5 -28 t83.5 -51t57.5 -83t23 -120q0 -162 -129 -248.5t-393 -86.5q-109 0 -205.5 14t-138.5 28l-41 15l29 102q14 -6 41.5 -15t121.5 -24.5t199 -15.5q400 0 400 227q0 168 -226 183l-335 22q-98 6 -151.5 54t-53.5 124q0 106 100 197q-147 103 -147 307zM229 772q0 -134 79 -206 t229 -72q149 0 227 72t78 206q0 135 -77 207t-228 72q-150 0 -229 -72.5t-79 -206.5zM305 1524l76 30q1 -6 3 -17t13.5 -38t28.5 -47.5t52.5 -37.5t80.5 -17q46 0 81.5 16t53 39.5t29 46.5t13.5 39l3 16l76 -30q-1 -9 -4 -24t-20.5 -53t-42.5 -67t-75 -53t-114 -24 q-46 0 -85 12t-64.5 31.5t-45.5 43.5t-30.5 47.5t-17.5 43t-9 31.5z" />
<glyph horiz-adv-x="1116" d="M55 -414l25 99q65 -27 151 -27q98 0 166 76t133 266h-63l-410 1133h121l379 -1055l381 1055h119l-408 -1129q-35 -97 -63 -161t-64.5 -123.5t-76 -93t-92.5 -53t-120 -19.5q-51 0 -95.5 8t-63.5 16zM492 1346l280 245l70 -78l-297 -231z" />
<glyph horiz-adv-x="1116" d="M55 -414l25 99q65 -27 151 -27q98 0 166 76t133 266h-63l-410 1133h121l379 -1055l381 1055h119l-408 -1129q-35 -97 -63 -161t-64.5 -123.5t-76 -93t-92.5 -53t-120 -19.5q-51 0 -95.5 8t-63.5 16zM289 1425q0 34 21 55t57 21q35 0 56 -21t21 -55q0 -35 -21 -56t-56 -21 q-37 0 -57.5 21t-20.5 56zM680 1425q0 34 21 55t57 21t57 -21t21 -55q0 -35 -21 -56t-57 -21t-57 21t-21 56z" />
<glyph horiz-adv-x="1134" d="M170 0v1556h117v-493q134 90 329 90q192 0 286.5 -91t94.5 -233q0 -125 -75.5 -216t-237.5 -121l139 -256q37 -68 73 -101t97 -33q17 0 35 3t28 7l9 3l8 -97q-34 -20 -102 -20q-76 0 -132 39.5t-104 124.5l-176 315h-37q-111 0 -235 23v-500h-117zM287 594 q111 -12 221 -12q196 0 283.5 61.5t87.5 181.5q0 224 -275 224q-185 0 -317 -91v-364z" />
<glyph horiz-adv-x="487" d="M162 59q0 38 21 59t61 21q38 0 60 -21t22 -59q0 -37 -22 -58t-60 -21q-39 0 -60.5 21t-21.5 58zM180 1210h127l-18 -970h-90z" />
<glyph horiz-adv-x="1325" d="M100 268l11 90h215l55 494h-215l8 90h217l31 268h108l-30 -268h377l30 268h109l-31 -268h219l-10 -90h-219l-55 -494h219l-11 -90h-219l-28 -268h-109l29 268h-377l-29 -268h-108l28 268h-215zM434 358h377l55 494h-377z" />
<glyph horiz-adv-x="1030" d="M125 909q0 73 27 129t75 89.5t105 52.5t127 26v187h102v-183q74 -2 145.5 -12.5t106.5 -20.5l35 -10l-25 -98l-14 4q-14 4 -38.5 9.5t-55 11.5t-72 10.5t-82.5 5.5v-451q45 -15 73.5 -25t68.5 -27.5t65.5 -34.5t54 -42.5t44.5 -54.5t27 -68t11 -85q0 -142 -90 -223.5 t-254 -96.5v-182h-102v180q-81 2 -160 13.5t-117 22.5l-39 11l21 96q117 -39 295 -43v486q-60 19 -100 34.5t-88.5 43.5t-77 59t-48.5 79t-20 107zM240 911q0 -45 16 -80t49 -60.5t68 -43t86 -35.5v412q-219 -28 -219 -193zM561 104q115 13 172.5 70t57.5 145q0 49 -17.5 87 t-52.5 65t-71.5 45.5t-88.5 36.5v-449z" />
<glyph horiz-adv-x="1513" d="M119 938q0 124 70 208.5t204 84.5q91 0 155 -42.5t92 -107t28 -143.5q0 -123 -70.5 -208t-204.5 -85t-204 85t-70 208zM213 938q0 -100 48 -157.5t132 -57.5t132 57.5t48 157.5t-48 157.5t-132 57.5t-132 -57.5t-48 -157.5zM406 18l620 1213l78 -39l-619 -1212zM848 272 q0 124 69.5 208.5t202.5 84.5q91 0 155 -42.5t92 -107t28 -143.5t-28 -143.5t-92 -106.5t-155 -42q-133 0 -202.5 84t-69.5 208zM940 272q0 -100 48 -157.5t132 -57.5q86 0 133 57t47 158t-47 158t-133 57q-84 0 -132 -57.5t-48 -157.5z" />
<glyph horiz-adv-x="1314" d="M121 340q0 74 22 133t64.5 102t86.5 72t105 58q-125 129 -125 272q0 112 72 183t215 71q141 0 210 -69.5t69 -178.5q0 -41 -9.5 -76t-29 -63.5t-42 -51t-55.5 -43.5t-61 -36t-68 -33q10 -9 388 -379q84 149 84 367h100q0 -264 -105 -439l183 -176l-70 -76l-176 168 q-148 -165 -418 -165q-212 0 -326 98t-114 262zM233 342q0 -128 88.5 -196t241.5 -68q221 0 336 139l-424 418q-54 -25 -92.5 -49t-75 -58.5t-55.5 -81t-19 -104.5zM387 973q0 -120 109 -225q58 26 91.5 44.5t71 47.5t55 65t17.5 82q0 71 -45.5 111.5t-124.5 40.5 q-81 0 -127.5 -41.5t-46.5 -124.5z" />
<glyph horiz-adv-x="1054" d="M150 498q0 146 108 219q-108 77 -108 223q0 67 24 119t63 84.5t93 54t108.5 29.5t114.5 8q77 0 151 -11.5t109 -23.5l35 -12l-23 -96q-114 41 -266 41q-137 0 -216 -50t-79 -145q0 -28 8.5 -52.5t20 -42.5t35.5 -36t41 -28.5t53 -25t54.5 -21t61.5 -20.5t60 -20 q55 -19 92.5 -34.5t82 -43t70.5 -59.5t44 -79.5t18 -106.5q0 -132 -96 -215q96 -79 96 -215q0 -155 -111 -232.5t-305 -77.5q-81 0 -161.5 12.5t-121.5 24.5l-40 12l24 101q15 -5 41.5 -13t107 -21t157.5 -13q146 0 220.5 53.5t74.5 151.5q0 44 -19.5 80.5t-39 57.5t-72 45 t-75 31.5t-92.5 28.5q-8 3 -12 4q-43 13 -71 22.5t-66.5 26t-63 32t-52 39.5t-42.5 51t-25.5 63.5t-10.5 79.5zM262 512q0 -38 13 -69t33.5 -52.5t53.5 -41t64.5 -32t75.5 -26.5q16 -5 68 -22t86.5 -30t64.5 -30q76 55 76 147q0 51 -18.5 90.5t-55 67t-75 46t-93.5 36.5 q-21 7 -64 20.5t-76 25t-63 24.5q-90 -53 -90 -154z" />
<glyph horiz-adv-x="868" d="M61 883q0 80 20.5 141t67 109t128.5 73t198 25q70 0 130.5 -7.5t86.5 -14.5l25 -7v-946q0 -42 -4.5 -80.5t-21 -85.5t-43 -81t-75 -57.5t-112.5 -23.5q-32 0 -68 4v101q12 -2 49 -2q32 0 57.5 8t51.5 29t40.5 68.5t14.5 117.5v883h-110v-613h-86q-178 0 -263.5 97 t-85.5 262z" />
<glyph horiz-adv-x="466" d="M121 606q0 105 14 203t36.5 170.5t49.5 135.5t54 105.5t49.5 73t36.5 44.5l14 14l69 -56q-8 -9 -22.5 -26.5t-50 -80.5t-63 -136t-50 -194t-22.5 -253q0 -97 11.5 -187t30 -157t40.5 -125.5t44 -98t40.5 -68t29.5 -41.5l12 -13l-69 -55q-10 9 -27.5 28t-61 86.5t-77 146 t-61 209.5t-27.5 275z" />
<glyph horiz-adv-x="632" d="M49 0l410 1210h114l-409 -1210h-115z" />
<glyph horiz-adv-x="409" d="M61 -84q8 9 22.5 26.5t50.5 80.5t63.5 136t50 194t22.5 253t-21.5 252t-52 196.5t-61.5 134t-53 82.5l-21 25l70 56q10 -9 27.5 -28t61 -86.5t77 -146.5t61 -210t27.5 -275t-26 -273.5t-63.5 -212t-75 -144t-63.5 -88.5l-26 -27z" />
<glyph horiz-adv-x="569" d="M180 -109v1426h328v-90h-215v-1243h215v-93h-328z" />
<glyph horiz-adv-x="632" d="M59 1210h115l410 -1210h-115z" />
<glyph horiz-adv-x="569" d="M61 -16h215v1243h-215v90h328v-1426h-328v93z" />
<glyph horiz-adv-x="618" d="M139 557v96q73 0 96 32.5t23 107.5v342q0 95 49.5 139.5t155.5 44.5h94v-90h-82q-61 0 -82.5 -23t-21.5 -78v-333q0 -154 -95 -191q95 -34 95 -188v-334q0 -55 21.5 -77.5t82.5 -22.5h82v-91h-94q-106 0 -155.5 45t-49.5 140v342q0 74 -23 106.5t-96 32.5z" />
<glyph horiz-adv-x="583" d="M240 -117v1428h104v-1428h-104z" />
<glyph horiz-adv-x="618" d="M61 -18h82q61 0 83 22.5t22 77.5v334q0 75 21 122.5t73 65.5q-52 19 -73 66.5t-21 124.5v333q0 55 -22 78t-83 23h-82v90h95q106 0 155 -44.5t49 -139.5v-342q0 -75 23 -107.5t96 -32.5v-96q-73 0 -96 -32.5t-23 -106.5v-342q0 -95 -49 -140t-155 -45h-95v91z" />
<glyph horiz-adv-x="1144" d="M129 606q0 79 5 144.5t17.5 131.5t34 116.5t55.5 95.5t79.5 74.5t109 46t141.5 16.5q109 0 189 -32.5t128 -86t77 -137t39 -170t10 -199.5t-10 -199.5t-39 -170t-77 -137.5t-128 -86.5t-189 -32.5t-189 32.5t-128 86.5t-76.5 137.5t-38.5 170t-10 199.5zM248 606 q0 -47 0.5 -75.5t3.5 -76.5t8.5 -79.5t17 -74t27.5 -70.5t40.5 -58t56 -47.5t74.5 -29t95 -11.5t95.5 11.5t75 29t56.5 48t41 57.5t27 70.5t16.5 74t8.5 79.5t3.5 76.5t0.5 75.5q0 47 -0.5 74.5t-3.5 76.5t-8.5 79.5t-16.5 73.5t-27 70t-41 57.5t-56.5 48t-75 29t-95.5 11.5 t-95 -11.5t-74.5 -29t-56 -47.5t-40.5 -58t-27.5 -70t-17 -73.5t-8.5 -79.5t-3.5 -76.5t-0.5 -74.5z" />
<glyph horiz-adv-x="729" d="M68 1020l301 190h110v-1210h-117v1085l-241 -151z" />
<glyph horiz-adv-x="1038" d="M113 1110q6 5 18 13t52.5 29t84 37t110 29t134.5 13q100 0 175.5 -28.5t117.5 -77t62 -105t20 -121.5q0 -95 -46 -191.5t-122.5 -186.5t-206.5 -214l-213 -203h588v-104h-752v102q222 214 283 271q196 181 274 294t78 226q0 112 -68.5 172.5t-203.5 60.5 q-57 0 -112 -10.5t-93.5 -26t-69 -31t-45.5 -26.5l-14 -10z" />
<glyph horiz-adv-x="1015" d="M84 55l37 92q11 -7 33.5 -17.5t100 -28t165.5 -17.5q352 0 352 262q0 133 -91.5 189.5t-266.5 56.5h-109v98h113q172 0 246.5 60t74.5 170q0 101 -64.5 153.5t-221.5 52.5q-86 0 -163 -16t-111 -32l-34 -15l-36 92q5 3 15 8t43.5 18.5t71 23.5t97 18t121.5 8 q397 0 397 -299q0 -63 -17.5 -114.5t-47.5 -84t-61 -53t-66 -33.5q229 -66 229 -303q0 -180 -124.5 -272t-342.5 -92q-100 0 -185 19t-120 37z" />
<glyph horiz-adv-x="1069" d="M74 377l610 833h117v-833h186v-105h-186v-272h-117v272h-608zM190 377h494v667z" />
<glyph horiz-adv-x="1052" d="M123 53l35 97q12 -7 36 -18t107 -29.5t176 -18.5q167 0 249.5 73.5t82.5 213.5q0 288 -324 288q-75 0 -150.5 -13.5t-114.5 -26.5l-38 -13l41 604h631v-104h-520l-27 -369l5 1q6 2 15.5 4.5t22.5 5t30.5 5.5t37 5.5t44.5 4t50 1.5q201 0 308.5 -101t107.5 -290 q0 -180 -113 -286.5t-330 -106.5q-67 0 -128.5 7.5t-102 18t-72 21.5t-45.5 19z" />
<glyph horiz-adv-x="1083" d="M129 588q0 106 13.5 196.5t47.5 174.5t87 143t137.5 94t193.5 35q82 0 152.5 -15.5t100.5 -31.5l30 -15l-33 -94q-9 6 -27.5 14.5t-82 22.5t-136.5 14q-62 0 -113.5 -15t-88 -40.5t-64.5 -63.5t-45 -78.5t-28.5 -91.5t-17 -97t-7.5 -101q135 113 336 113 q187 0 288 -103.5t101 -277.5q0 -173 -104.5 -282t-305.5 -109q-97 0 -172 30t-124 82.5t-80.5 130.5t-44.5 167t-13 198zM248 528q1 -69 7.5 -125.5t27 -118.5t54 -103.5t92.5 -69t138 -27.5t137.5 24.5t91.5 66.5t48.5 91t15.5 105q0 36 -5.5 68.5t-23.5 71.5t-47.5 67.5 t-83.5 47.5t-125 19q-182 0 -327 -117z" />
<glyph horiz-adv-x="931" d="M94 1110v100h740v-84l-453 -1126h-123l447 1110h-611z" />
<glyph horiz-adv-x="1134" d="M121 330q0 70 19.5 127t53 94.5t67 60.5t71.5 39q-164 80 -164 269q0 149 108.5 230t290.5 81q181 0 289.5 -79.5t108.5 -221.5q0 -106 -51 -177.5t-123 -107.5q106 -34 165.5 -106.5t59.5 -200.5q0 -174 -116 -266t-331 -92t-331.5 90.5t-116.5 259.5zM238 338 q0 -69 25 -120t71 -80.5t103.5 -43.5t129.5 -14q149 0 239.5 62.5t90.5 193.5q0 60 -21.5 103.5t-53 67t-82 40.5t-94.5 23.5t-106.5 17t-101.5 20.5q-103 -43 -151.5 -109t-48.5 -161zM285 920q0 -53 21.5 -92.5t45.5 -61.5t88.5 -41.5t100 -26.5t130.5 -22q7 -1 11 -2 q168 78 168 246q0 106 -77.5 160.5t-203.5 54.5t-205 -54.5t-79 -160.5z" />
<glyph horiz-adv-x="1083" d="M111 840q0 84 25 154t74 123.5t128 83.5t182 30q97 0 172 -30t123.5 -82.5t79.5 -130.5t44 -167t13 -198q0 -106 -13.5 -196.5t-47 -174.5t-86.5 -143t-137 -94t-193 -35q-83 0 -154 15t-101 31l-30 15l35 94q9 -6 27 -14.5t81.5 -22.5t137.5 -14q86 0 151 29t103 74.5 t63 112.5t34 130t12 141q-134 -112 -336 -112q-186 0 -286.5 104t-100.5 277zM223 840q0 -36 5.5 -68.5t23.5 -72t47.5 -67.5t83.5 -47.5t125 -19.5q183 0 328 117q-1 69 -8.5 125.5t-28 118.5t-54.5 103.5t-93 69t-138 27.5t-137.5 -24.5t-91 -66.5t-47.5 -90.5t-15 -104.5 z" />
<glyph horiz-adv-x="966" d="M92 1151q6 3 16.5 8.5t46 19.5t75 24.5t101.5 19t126 8.5q190 0 284.5 -78.5t94.5 -208.5q0 -68 -22 -121t-57 -86t-77.5 -59.5t-85 -50t-77.5 -49.5t-57 -65t-22 -89q0 -71 13 -111h-113q-14 65 -14 113q0 66 22 117.5t56.5 83.5t76.5 57.5t84.5 49t77 49.5t56.5 66 t22 93q0 86 -65.5 137t-200.5 51q-86 0 -167.5 -18t-119.5 -36l-39 -17zM315 59q0 38 21 59t61 21q38 0 60 -21t22 -59q0 -37 -22 -58t-60 -21q-39 0 -60.5 21t-21.5 58z" />
<glyph d="M70 0l467 1210h149l469 -1210h-123l-137 358h-567l-135 -358h-123zM365 455h493l-248 649z" />
<glyph horiz-adv-x="1165" d="M180 12v1186q195 33 371 33q127 0 217.5 -22.5t144.5 -65.5t78.5 -101t24.5 -135q0 -125 -61 -191t-171 -95q139 -28 206 -100t67 -197q0 -168 -119.5 -256t-390.5 -88q-84 0 -175.5 8t-141.5 16zM297 94q110 -12 233 -12q221 0 314.5 55t93.5 182q0 64 -22.5 110.5 t-57 72.5t-89 41t-105.5 19.5t-119 4.5h-248v-473zM297 664h223q55 0 97.5 3t88.5 12t78.5 26t60 43t41 65.5t13.5 91.5q0 119 -81.5 171t-262.5 52q-129 0 -258 -14v-450z" />
<glyph horiz-adv-x="1060" d="M111 608q0 105 17.5 195t57 170t100 136.5t151.5 89t206 32.5q82 0 160 -13.5t115 -27.5l38 -14l-28 -95q-14 5 -38 12.5t-97.5 20t-143.5 12.5q-76 0 -139 -19t-106 -49.5t-76 -74.5t-51.5 -89t-30 -97.5t-15.5 -96t-4 -88.5q0 -72 8.5 -137.5t36 -139.5t72 -127 t123 -88.5t182.5 -35.5q70 0 140 11t105 23l34 11l28 -94q-14 -6 -40.5 -15t-108.5 -24.5t-164 -15.5q-115 0 -206 33t-151.5 90.5t-100 138t-57 171t-17.5 195.5z" />
<glyph d="M180 12v1186q187 33 361 33q159 0 268.5 -37.5t177 -116.5t97.5 -193.5t30 -277.5q0 -328 -131.5 -477t-443.5 -149q-76 0 -166 8t-141 16zM297 98q133 -14 244 -14q63 0 111.5 5.5t97.5 20t85 39t68 65t51.5 95.5t31 132t11.5 173q0 284 -104 398t-356 114 q-48 0 -108 -4t-96 -8l-36 -4v-1012z" />
<glyph horiz-adv-x="1083" d="M170 412v798h782v-104h-665v-426h583v-98h-583v-176q0 -176 89.5 -249t287.5 -73q80 0 152.5 9t105.5 17l32 9v-105q-117 -34 -305 -34q-250 0 -364.5 106t-114.5 326z" />
<glyph horiz-adv-x="1044" d="M180 0v1210h772v-104h-655v-438h571v-103h-571v-565h-117z" />
<glyph horiz-adv-x="1159" d="M111 606q0 106 18.5 197t60.5 170.5t105.5 136t158.5 89t214 32.5q82 0 166 -13.5t127 -27.5l43 -14l-29 -95q-139 45 -293 45q-82 0 -150 -18t-114 -47.5t-81.5 -72.5t-55.5 -88t-33 -99t-17 -100t-4 -97q0 -76 9.5 -142t39.5 -138.5t78.5 -123t133.5 -83.5t198 -33 q107 0 209 20v517h115v-590q-41 -16 -137 -33.5t-193 -17.5q-124 0 -222 33t-162.5 89.5t-106.5 137.5t-60 171t-18 195z" />
<glyph horiz-adv-x="1288" d="M180 0v1210h117v-546h694v546h117v-1210h-117v559h-694v-559h-117z" />
<glyph horiz-adv-x="479" d="M180 0v1210h117v-1210h-117z" />
<glyph horiz-adv-x="770" d="M88 25l33 98q69 -39 178 -39q45 0 77.5 10t60 35.5t41.5 75t14 123.5v882h116v-880q0 -350 -305 -350q-56 0 -109.5 11t-79.5 23z" />
<glyph horiz-adv-x="1081" d="M180 0v1210h117v-571l575 571h150l-590 -587l340 -387q55 -65 100.5 -99.5t100.5 -34.5q11 0 21.5 1t18 3t13 3.5t8.5 2.5l4 1v-99q-33 -16 -88 -16q-71 0 -130.5 37.5t-133.5 120.5l-389 444v-600h-117z" />
<glyph horiz-adv-x="956" d="M170 408v802h117v-809q0 -178 79.5 -247.5t276.5 -69.5q74 0 136.5 9t88.5 17l25 9v-105q-82 -34 -260 -34q-251 0 -357 101.5t-106 326.5z" />
<glyph horiz-adv-x="1497" d="M129 0l102 1210h160l357 -919l358 919h160l102 -1210h-115l-82 946l-6 146l-43 -140l-311 -805h-123l-311 801l-45 146l-6 -144l-82 -950h-115z" />
<glyph horiz-adv-x="1288" d="M180 0v1210h168l651 -1077l-6 131v946h115v-1210h-158l-663 1094l8 -131v-963h-115z" />
<glyph horiz-adv-x="1236" d="M111 606q0 111 16.5 203.5t54.5 171.5t96 134t144 85.5t196 30.5q136 0 236 -46.5t158.5 -132t86 -196t27.5 -250.5t-27.5 -250.5t-86 -196.5t-158.5 -132.5t-236 -46.5t-236 46.5t-158 132.5t-85.5 196.5t-27.5 250.5zM227 606q0 -522 391 -522q392 0 392 522 q0 520 -392 520q-391 0 -391 -520z" />
<glyph horiz-adv-x="1134" d="M180 0v1200q178 31 352 31q139 0 237.5 -27t155.5 -79t83 -120.5t26 -160.5q0 -408 -510 -408q-120 0 -227 10v-446h-117zM297 549q92 -8 201 -8q102 0 174 12.5t130 44t87 91t29 147.5q0 84 -26.5 141.5t-79 89.5t-119.5 45.5t-158 13.5q-110 0 -238 -14v-563z" />
<glyph horiz-adv-x="1236" d="M111 606q0 139 27.5 250t86 196.5t158 132t235.5 46.5t235.5 -46.5t158 -132t86.5 -196.5t28 -250t-28 -250t-86.5 -197t-158 -132.5t-235.5 -46.5q-135 0 -235 46.5t-158.5 132.5t-86 197t-27.5 250zM227 606q0 -522 391 -522q392 0 392 522q0 520 -392 520 q-391 0 -391 -520zM569 -233l13 98l499 -51l-14 -111z" />
<glyph horiz-adv-x="1196" d="M180 0v1200q185 31 359 31q258 0 376.5 -91.5t118.5 -269.5q0 -154 -82 -239.5t-239 -114.5l178 -315q56 -99 137 -99q16 0 31.5 3t22.5 5l8 3v-99q-29 -16 -84 -16q-70 0 -124.5 38.5t-101.5 123.5l-190 346q-18 -2 -58 -2q-106 0 -235 12v-516h-117zM297 616 q80 -8 223 -8q73 0 123.5 4t106.5 19.5t90 43t56 76t22 117.5q0 144 -92 201t-283 57q-105 0 -246 -16v-494z" />
<glyph horiz-adv-x="1071" d="M123 924q0 69 24 122.5t64.5 87.5t97.5 56.5t119 31.5t133 9q81 0 163.5 -10.5t124.5 -21.5l42 -11l-29 -101q-137 39 -301 39q-321 0 -321 -194q0 -33 10 -61t22.5 -48t40 -39.5t47.5 -31.5t60.5 -27.5t63.5 -22.5t71 -22q165 -51 232 -89q144 -82 159 -236q2 -19 2 -40 q0 -169 -119 -252t-335 -83q-92 0 -180 13.5t-130 27.5l-41 14l29 102q16 -6 44.5 -15t113.5 -23.5t166 -14.5q170 0 252.5 59t82.5 168q0 35 -9.5 64.5t-22 51t-40 42t-48 33t-63 29t-68 24.5t-78.5 25q-69 21 -116 38.5t-101 47t-86.5 63t-54 83.5t-21.5 112z" />
<glyph horiz-adv-x="1056" d="M70 1108v102h917v-102h-399v-1108h-117v1108h-401z" />
<glyph horiz-adv-x="1282" d="M170 449v761h117v-764q0 -67 11.5 -121.5t30 -91.5t47 -64.5t58 -43.5t67 -25.5t69.5 -12.5t71 -3t71 3t69.5 12.5t67 25.5t58 43.5t47 64.5t30 91.5t11.5 121.5v764h117v-761q0 -469 -471 -469t-471 469z" />
<glyph horiz-adv-x="1159" d="M70 1210h123l331 -938l58 -182l53 182l332 938h123l-431 -1210h-157z" />
<glyph horiz-adv-x="1714" d="M70 1210h123l270 -944l35 -151l39 151l258 885h125l260 -887l37 -151l36 151l269 946h123l-345 -1210h-157l-258 870l-29 117l-27 -119l-256 -868h-155z" />
<glyph horiz-adv-x="1138" d="M70 0l426 606l-426 604h135l362 -518l367 518h135l-428 -604l428 -606h-135l-367 516l-362 -516h-135z" />
<glyph horiz-adv-x="1101" d="M59 1210h129l363 -632l362 632h129l-432 -739v-471h-116v471z" />
<glyph horiz-adv-x="1087" d="M131 0v102l678 1006h-668v102h809v-100l-682 -1008h688v-102h-825z" />
<glyph d="M70 0l467 1210h149l469 -1210h-123l-137 358h-567l-135 -358h-123zM346 1534l70 78l280 -244l-53 -65zM365 455h493l-248 649z" />
<glyph d="M70 0l467 1210h149l469 -1210h-123l-137 358h-567l-135 -358h-123zM365 455h493l-248 649zM510 1368l281 244l67 -78l-295 -231z" />
<glyph d="M70 0l467 1210h149l469 -1210h-123l-137 358h-567l-135 -358h-123zM344 1366l268 244l271 -244l-56 -59l-215 174l-213 -174zM365 455h493l-248 649z" />
<glyph d="M70 0l467 1210h149l469 -1210h-123l-137 358h-567l-135 -358h-123zM328 1366q1 6 3.5 16.5t15 37.5t29 47.5t48 37.5t70.5 17q38 0 73 -16t57.5 -34.5t50 -34.5t52.5 -16q34 0 58 25.5t31 50.5l7 25l74 -39q-1 -6 -4 -16.5t-15.5 -37.5t-29.5 -47.5t-48.5 -37.5 t-70.5 -17q-45 0 -87 25t-78.5 50t-67.5 25q-34 0 -58 -25t-32 -50l-7 -25zM365 455h493l-248 649z" />
<glyph d="M70 0l467 1210h149l469 -1210h-123l-137 358h-567l-135 -358h-123zM340 1448q0 35 20.5 55.5t57.5 20.5q35 0 55.5 -21t20.5 -55q0 -36 -20.5 -58t-55.5 -22q-37 0 -57.5 22t-20.5 58zM365 455h493l-248 649zM731 1448q0 35 20.5 55.5t57.5 20.5q35 0 55.5 -21t20.5 -55 q0 -36 -20.5 -58t-55.5 -22q-37 0 -57.5 22t-20.5 58z" />
<glyph d="M70 0l467 1210h149l469 -1210h-123l-137 358h-567l-135 -358h-123zM365 455h493l-248 649zM412 1489q0 86 55 136t143 50q87 0 142 -50t55 -136t-55 -135t-142 -49q-88 0 -143 49t-55 135zM500 1489q0 -51 29.5 -80t80.5 -29q50 0 79.5 29t29.5 80q0 52 -29.5 82.5 t-79.5 30.5q-51 0 -80.5 -30.5t-29.5 -82.5z" />
<glyph horiz-adv-x="1703" d="M70 0l649 1210h854v-100h-666v-430h584v-96h-584v-178q0 -177 90 -251.5t287 -74.5q80 0 153 9t105 19l33 9v-103q-117 -34 -305 -34q-231 0 -346 90.5t-129 281.5h-414l-188 -352h-123zM430 449h361v669z" />
<glyph horiz-adv-x="1060" d="M111 608q0 105 17.5 195t57 170t100 136.5t151.5 89t206 32.5q82 0 160 -13.5t115 -27.5l38 -14l-28 -95q-14 5 -38 12.5t-97.5 20t-143.5 12.5q-76 0 -139 -19t-106 -49.5t-76 -74.5t-51.5 -89t-30 -97.5t-15.5 -96t-4 -88.5q0 -72 8.5 -137.5t36 -139.5t72 -127 t123 -88.5t182.5 -35.5q70 0 140 11t105 23l34 11l28 -94q-14 -6 -39.5 -15t-105.5 -24t-160 -16l-24 -105q30 6 61 6q81 0 135 -39.5t54 -120.5q0 -76 -55 -121.5t-167 -45.5q-53 0 -100 10t-67 20l-21 10l20 82q74 -41 156 -41q129 0 129 89q0 90 -131 90q-73 0 -129 -21 l47 193q-96 11 -173 49t-127.5 95.5t-84.5 134.5t-48.5 161.5t-14.5 181.5z" />
<glyph d="M59 561v88h121v549q187 33 361 33q159 0 268.5 -37.5t177 -116.5t97.5 -193.5t30 -277.5q0 -328 -131.5 -477t-443.5 -149q-76 0 -166 8t-141 16l-52 8v549h-121zM297 98q133 -14 244 -14q63 0 111.5 5.5t97.5 20t85 39t68 65t51.5 95.5t31 132t11.5 173q0 284 -104 398 t-356 114q-77 0 -240 -16v-461h387v-88h-387v-463z" />
<glyph horiz-adv-x="1083" d="M170 412v798h782v-104h-665v-426h583v-98h-583v-176q0 -176 89.5 -249t287.5 -73q80 0 152.5 9t105.5 17l32 9v-105q-117 -34 -305 -34q-250 0 -364.5 106t-114.5 326zM332 1554l69 78l279 -246l-51 -63z" />
<glyph horiz-adv-x="1083" d="M170 412v798h782v-104h-665v-426h583v-98h-583v-176q0 -176 89.5 -249t287.5 -73q80 0 152.5 9t105.5 17l32 9v-105q-117 -34 -305 -34q-250 0 -364.5 106t-114.5 326zM467 1386l278 246l70 -78l-297 -231z" />
<glyph horiz-adv-x="1083" d="M170 412v798h782v-104h-665v-426h583v-98h-583v-176q0 -176 89.5 -249t287.5 -73q80 0 152.5 9t105.5 17l32 9v-105q-117 -34 -305 -34q-250 0 -364.5 106t-114.5 326zM299 1384l270 246l271 -246l-56 -59l-215 176l-215 -176z" />
<glyph horiz-adv-x="1083" d="M170 412v798h782v-104h-665v-426h583v-98h-583v-176q0 -176 89.5 -249t287.5 -73q80 0 152.5 9t105.5 17l32 9v-105q-117 -34 -305 -34q-250 0 -364.5 106t-114.5 326zM295 1466q0 34 20 55t56 21t57 -21t21 -55q0 -36 -20.5 -56.5t-57.5 -20.5q-36 0 -56 20.5t-20 56.5z M686 1466q0 34 20 55t56 21t57 -21t21 -55q0 -36 -21 -56.5t-57 -20.5t-56 20.5t-20 56.5z" />
<glyph horiz-adv-x="1169" d="M111 606q0 106 18.5 197t60.5 170.5t105.5 136t158.5 89t214 32.5q82 0 166 -13.5t127 -27.5l43 -14l-29 -95q-139 45 -293 45q-82 0 -150 -18t-114 -47.5t-81.5 -72.5t-55.5 -88t-33 -99t-17 -100t-4 -97q0 -76 9.5 -142t39.5 -138.5t78.5 -123t133.5 -83.5t198 -33 q107 0 209 20v517h115v-590q-41 -16 -137 -33.5t-193 -17.5q-124 0 -222 33t-162.5 89.5t-106.5 137.5t-60 171t-18 195zM381 1565l76 32q1 -6 3 -17t13.5 -38t28.5 -47.5t52.5 -37.5t80.5 -17q46 0 81 16t52.5 39t28.5 46.5t13 39.5l3 16l78 -32q-1 -9 -4 -23.5 t-20.5 -52.5t-42.5 -67t-75 -52.5t-114 -23.5t-113.5 22.5t-74.5 55t-41.5 64.5t-20.5 54z" />
<glyph horiz-adv-x="479" d="M-20 1554l69 78l279 -243l-52 -66zM180 0v1210h117v-1210h-117z" />
<glyph horiz-adv-x="479" d="M170 1389l281 243l67 -78l-295 -231zM180 0v1210h117v-1210h-117z" />
<glyph horiz-adv-x="479" d="M-31 1368l271 244l270 -244l-55 -61l-215 176l-215 -176zM180 0v1210h117v-1210h-117z" />
<glyph horiz-adv-x="479" d="M-33 1468q0 34 20 55t56 21t57 -21t21 -55q0 -36 -21 -57.5t-57 -21.5t-56 21.5t-20 57.5zM180 0v1210h117v-1210h-117zM358 1468q0 34 20 55t56 21t57 -21t21 -55q0 -36 -21 -57.5t-57 -21.5t-56 21.5t-20 57.5z" />
<glyph horiz-adv-x="479" d="M152 1473q0 39 23.5 62.5t64.5 23.5q39 0 62.5 -23.5t23.5 -62.5q0 -40 -23.5 -64.5t-62.5 -24.5q-41 0 -64.5 24.5t-23.5 64.5zM180 0v1210h117v-1210h-117z" />
<glyph horiz-adv-x="1288" d="M180 0v1210h168l651 -1077l-6 131v946h115v-1210h-158l-663 1094l8 -131v-963h-115zM373 1384q1 6 3.5 16.5t15 37.5t29.5 47.5t49 37.5t71 17q37 0 72 -15.5t57.5 -34.5t50.5 -34.5t53 -15.5q34 0 57.5 25t30.5 50l6 25l74 -39q-1 -6 -4 -16.5t-15.5 -37.5t-29.5 -47 t-48.5 -37t-70.5 -17q-45 0 -86.5 25t-77.5 50t-67 25q-35 0 -59.5 -25t-31.5 -50l-8 -25z" />
<glyph horiz-adv-x="1236" d="M111 606q0 111 16.5 203.5t54.5 171.5t96 134t144 85.5t196 30.5q136 0 236 -46.5t158.5 -132t86 -196t27.5 -250.5t-27.5 -250.5t-86 -196.5t-158.5 -132.5t-236 -46.5t-236 46.5t-158 132.5t-85.5 196.5t-27.5 250.5zM227 606q0 -522 391 -522q392 0 392 522 q0 520 -392 520q-391 0 -391 -520zM350 1554l70 78l278 -243l-51 -66z" />
<glyph horiz-adv-x="1236" d="M111 606q0 111 16.5 203.5t54.5 171.5t96 134t144 85.5t196 30.5q136 0 236 -46.5t158.5 -132t86 -196t27.5 -250.5t-27.5 -250.5t-86 -196.5t-158.5 -132.5t-236 -46.5t-236 46.5t-158 132.5t-85.5 196.5t-27.5 250.5zM227 606q0 -522 391 -522q392 0 392 522 q0 520 -392 520q-391 0 -391 -520zM526 1389l281 243l67 -78l-294 -231z" />
<glyph horiz-adv-x="1236" d="M111 606q0 111 16.5 203.5t54.5 171.5t96 134t144 85.5t196 30.5q136 0 236 -46.5t158.5 -132t86 -196t27.5 -250.5t-27.5 -250.5t-86 -196.5t-158.5 -132.5t-236 -46.5t-236 46.5t-158 132.5t-85.5 196.5t-27.5 250.5zM227 606q0 -522 391 -522q392 0 392 522 q0 520 -392 520q-391 0 -391 -520zM348 1386l270 244l271 -244l-55 -59l-216 174l-215 -174z" />
<glyph horiz-adv-x="1236" d="M111 606q0 111 16.5 203.5t54.5 171.5t96 134t144 85.5t196 30.5q136 0 236 -46.5t158.5 -132t86 -196t27.5 -250.5t-27.5 -250.5t-86 -196.5t-158.5 -132.5t-236 -46.5t-236 46.5t-158 132.5t-85.5 196.5t-27.5 250.5zM227 606q0 -522 391 -522q392 0 392 522 q0 520 -392 520q-391 0 -391 -520zM332 1386q1 6 3.5 16.5t15 37.5t29.5 47.5t49 37.5t71 17q37 0 72 -15.5t57.5 -34.5t50.5 -34.5t53 -15.5q34 0 58 25t31 50l7 25l74 -39q-1 -6 -4 -16.5t-16 -37.5t-29.5 -47t-48.5 -37t-70 -17q-45 0 -87 25t-78.5 50t-67.5 25 q-34 0 -58 -25t-31 -50l-7 -25z" />
<glyph horiz-adv-x="1236" d="M111 606q0 111 16.5 203.5t54.5 171.5t96 134t144 85.5t196 30.5q136 0 236 -46.5t158.5 -132t86 -196t27.5 -250.5t-27.5 -250.5t-86 -196.5t-158.5 -132.5t-236 -46.5t-236 46.5t-158 132.5t-85.5 196.5t-27.5 250.5zM227 606q0 -522 391 -522q392 0 392 522 q0 520 -392 520q-391 0 -391 -520zM346 1468q0 35 20.5 55.5t57.5 20.5q35 0 55.5 -21t20.5 -55q0 -36 -20.5 -57.5t-55.5 -21.5q-37 0 -57.5 21.5t-20.5 57.5zM737 1468q0 34 20 55t56 21t57 -21t21 -55q0 -36 -21 -57.5t-57 -21.5t-56 21.5t-20 57.5z" />
<glyph horiz-adv-x="1236" d="M111 606q0 111 16.5 203.5t54.5 171.5t96 134t144 85.5t196 30.5q76 0 158 -21l64 176l96 -36l-64 -174q254 -134 254 -570q0 -140 -27.5 -250.5t-86 -196.5t-158.5 -132.5t-236 -46.5q-94 0 -174 22l-61 -170l-96 37l63 174q-239 136 -239 563zM227 606q0 -338 162 -456 l350 960q-59 16 -121 16q-391 0 -391 -520zM481 102q59 -18 137 -18q392 0 392 522q0 350 -176 463z" />
<glyph horiz-adv-x="1071" d="M123 924q0 69 24 122.5t64.5 87.5t97.5 56.5t119 31.5t133 9q81 0 163.5 -10.5t124.5 -21.5l42 -11l-29 -101q-137 39 -301 39q-321 0 -321 -194q0 -33 9.5 -61t23 -48.5t39.5 -40t48.5 -32t60.5 -26.5t63.5 -22.5t70.5 -21.5q54 -16 85.5 -26t78.5 -29t75 -36.5 t61 -45.5t51 -59.5t30 -74.5t12 -94q0 -153 -98.5 -236t-276.5 -95l-26 -109q36 4 55 4q80 0 136.5 -38.5t56.5 -119.5q0 -76 -54 -121.5t-166 -45.5q-54 0 -101 10t-67 20l-20 10l19 82q77 -41 157 -41q127 0 127 89q0 90 -129 90q-75 0 -131 -21l47 187q-88 2 -171.5 15.5 t-123.5 26.5l-39 13l29 102q16 -6 44.5 -15t113.5 -23.5t166 -14.5q170 0 252.5 59t82.5 168q0 35 -9.5 64.5t-22 51t-40 42t-48 33t-63 29t-68 24.5t-78.5 25q-69 21 -116 38.5t-101 47t-86.5 63t-54 83.5t-21.5 112z" />
<glyph horiz-adv-x="1124" d="M180 0v1210h117v-198q162 18 260 18q253 0 365 -95.5t112 -275.5q0 -385 -502 -385q-39 0 -98 3t-98 5l-39 3v-285h-117zM297 387q80 -8 215 -8q62 0 109 3.5t96 13.5t83 29t62 48.5t42 74t14 103.5q0 138 -86 205.5t-269 67.5q-129 0 -266 -19v-518z" />
<glyph horiz-adv-x="1282" d="M170 449v761h117v-764q0 -67 11.5 -121.5t30 -91.5t47 -64.5t58 -43.5t67 -25.5t69.5 -12.5t71 -3t71 3t69.5 12.5t67 25.5t58 43.5t47 64.5t30 91.5t11.5 121.5v764h117v-761q0 -469 -471 -469t-471 469zM371 1554l69 78l279 -243l-51 -66z" />
<glyph horiz-adv-x="1282" d="M170 449v761h117v-764q0 -67 11.5 -121.5t30 -91.5t47 -64.5t58 -43.5t67 -25.5t69.5 -12.5t71 -3t71 3t69.5 12.5t67 25.5t58 43.5t47 64.5t30 91.5t11.5 121.5v764h117v-761q0 -469 -471 -469t-471 469zM559 1389l281 243l67 -78l-295 -231z" />
<glyph horiz-adv-x="1282" d="M170 449v761h117v-764q0 -67 11.5 -121.5t30 -91.5t47 -64.5t58 -43.5t67 -25.5t69.5 -12.5t71 -3t71 3t69.5 12.5t67 25.5t58 43.5t47 64.5t30 91.5t11.5 121.5v764h117v-761q0 -469 -471 -469t-471 469zM371 1386l270 244l270 -244l-55 -59l-215 174l-215 -174z" />
<glyph horiz-adv-x="1282" d="M170 449v761h117v-764q0 -67 11.5 -121.5t30 -91.5t47 -64.5t58 -43.5t67 -25.5t69.5 -12.5t71 -3t71 3t69.5 12.5t67 25.5t58 43.5t47 64.5t30 91.5t11.5 121.5v764h117v-761q0 -469 -471 -469t-471 469zM369 1468q0 35 20 55.5t57 20.5q35 0 55.5 -21t20.5 -55 q0 -36 -20.5 -57.5t-55.5 -21.5q-37 0 -57 21.5t-20 57.5zM760 1468q0 35 20.5 55.5t57.5 20.5q35 0 55 -21t20 -55q0 -36 -20 -57.5t-55 -21.5q-37 0 -57.5 21.5t-20.5 57.5z" />
<glyph horiz-adv-x="1101" d="M59 1210h129l363 -632l362 632h129l-432 -739v-471h-116v471zM475 1389l281 243l69 -78l-297 -231z" />
<glyph horiz-adv-x="1101" d="M59 1210h129l363 -632l362 632h129l-432 -739v-471h-116v471zM279 1468q0 35 20 55.5t57 20.5q35 0 56.5 -21t21.5 -55q0 -35 -21.5 -57t-56.5 -22q-37 0 -57 21.5t-20 57.5zM670 1468q0 34 21 55t57 21q35 0 55 -21t20 -55q0 -36 -20 -57.5t-55 -21.5q-36 0 -57 21.5 t-21 57.5z" />
<glyph horiz-adv-x="2095" d="M123 924q0 69 24 122.5t64.5 87.5t97.5 56.5t119 31.5t133 9q81 0 163.5 -10.5t124.5 -21.5l42 -11l-29 -101q-137 39 -301 39q-321 0 -321 -194q0 -33 10 -61t22.5 -48t40 -39.5t47.5 -31.5t60.5 -27.5t63.5 -22.5t71 -22q165 -51 232 -89q144 -82 159 -236q2 -19 2 -40 q0 -169 -119 -252t-335 -83q-92 0 -180 13.5t-130 27.5l-41 14l29 102q16 -6 44.5 -15t113.5 -23.5t166 -14.5q170 0 252.5 59t82.5 168q0 35 -9.5 64.5t-22 51t-40 42t-48 33t-63 29t-68 24.5t-78.5 25q-69 21 -116 38.5t-101 47t-86.5 63t-54 83.5t-21.5 112zM1145 924 q0 69 24 122.5t64.5 87.5t97.5 56.5t119 31.5t133 9q81 0 163.5 -10.5t124.5 -21.5l42 -11l-29 -101q-137 39 -301 39q-321 0 -321 -194q0 -33 10 -61t22.5 -48t40 -39.5t47.5 -31.5t60.5 -27.5t63.5 -22.5t71 -22q165 -51 232 -89q144 -82 159 -236q2 -19 2 -40 q0 -169 -119 -252t-335 -83q-92 0 -180 13.5t-130 27.5l-41 14l29 102q16 -6 44.5 -15t113.5 -23.5t166 -14.5q170 0 252.5 59t82.5 168q0 35 -9.5 64.5t-22 51t-40 42t-48 33t-63 29t-68 24.5t-78.5 25q-69 21 -116 38.5t-101 47t-86.5 63t-54 83.5t-21.5 112z" />
<glyph horiz-adv-x="638" d="M141 1534l68 78l280 -244l-53 -65z" />
<glyph horiz-adv-x="638" d="M152 1368l278 244l70 -78l-297 -231z" />
<glyph horiz-adv-x="819" d="M139 1366l271 244l270 -244l-55 -59l-215 174l-215 -174z" />
<glyph horiz-adv-x="849" d="M139 1366q1 6 3.5 16.5t15 37.5t29.5 47.5t49 37.5t71 17q37 0 72.5 -16t58 -34.5t50.5 -34.5t53 -16q34 0 58 25.5t31 50.5l7 25l74 -39q-1 -6 -4 -16.5t-16 -37.5t-29.5 -47.5t-48.5 -37.5t-70 -17q-45 0 -87.5 25t-79 50t-67.5 25q-34 0 -58 -25t-31 -50l-7 -25z" />
<glyph horiz-adv-x="864" d="M160 1448q0 35 20.5 55.5t57.5 20.5q35 0 55 -21t20 -55q0 -36 -20 -58t-55 -22q-37 0 -57.5 22t-20.5 58zM551 1448q0 35 20.5 55.5t57.5 20.5q35 0 55.5 -21t20.5 -55q0 -36 -20.5 -58t-55.5 -22q-37 0 -57.5 22t-20.5 58z" />
<glyph horiz-adv-x="802" d="M139 1374v90h525v-90h-525z" />
<glyph horiz-adv-x="677" d="M141 1489q0 86 54.5 136t142.5 50t143.5 -50t55.5 -136t-55.5 -135t-143.5 -49t-142.5 49t-54.5 135zM229 1489q0 -51 29.5 -80t79.5 -29q51 0 81 29t30 80q0 52 -30 82.5t-81 30.5q-50 0 -79.5 -30.5t-29.5 -82.5z" />
<glyph horiz-adv-x="487" d="M162 1151q0 37 22 58.5t60 21.5q39 0 60.5 -21.5t21.5 -58.5q0 -38 -21 -59t-61 -21q-38 0 -60 21t-22 59zM180 0l19 971h90l18 -971h-127z" />
<glyph horiz-adv-x="954" d="M129 266q0 68 22 120.5t57 85.5t77.5 59.5t84.5 49.5t77 48.5t57 64.5t22 90q0 74 -10 113h111q16 -59 16 -111q0 -67 -22 -118.5t-57 -83.5t-77.5 -58t-84.5 -49.5t-77 -49.5t-57 -66.5t-22 -92.5q0 -86 65.5 -137t200.5 -51q86 0 167.5 18t120.5 36l38 18l36 -93 q-6 -3 -16 -8.5t-46 -19t-75 -24t-101 -19t-126 -8.5q-191 0 -286 78t-95 208zM485 1151q0 37 22 58.5t60 21.5q41 0 62.5 -21.5t21.5 -58.5q0 -80 -84 -80q-38 0 -60 21t-22 59z" />
<glyph horiz-adv-x="1101" d="M90 422v82h113q-4 33 -4 104q0 74 4 111h-113v82h123q67 409 485 409q73 0 146 -13t110 -25l37 -13l-28 -96q-121 45 -258 45q-320 0 -377 -307h561l-21 -82h-551q-2 -37 -2 -107q0 -71 2 -108h490l-23 -82h-456q12 -68 35 -121t65 -99.5t112.5 -72t164.5 -25.5 q61 0 125.5 11t98.5 21l34 11l28 -96q-14 -6 -40 -14.5t-103 -22.5t-150 -14q-420 0 -487 422h-121z" />
<glyph horiz-adv-x="966" d="M119 612q0 186 89.5 295t274.5 127v197h103v-193q69 -3 134 -16t96 -25l30 -12l-29 -94q-94 39 -231 43v-645q61 2 118.5 13.5t85.5 22.5l27 11l29 -96q-12 -6 -34 -14.5t-90 -23.5t-136 -18v-204h-103v208q-184 18 -274 127.5t-90 296.5zM238 612q0 -141 53.5 -221 t191.5 -98v635q-138 -18 -191.5 -97.5t-53.5 -218.5z" />
<glyph horiz-adv-x="1064" d="M90 539v84h170q-47 135 -47 254q0 74 21.5 136t65 112t119 78t175.5 28q80 0 151 -20t103 -40l31 -20l-52 -80q-9 6 -27 15.5t-77 25.5t-123 16q-141 0 -206.5 -69t-65.5 -189q0 -98 49 -247h434v-84h-408q23 -86 23 -133q0 -157 -160 -306h647v-100h-784v102 q184 158 184 306q0 54 -24 131h-199z" />
<glyph horiz-adv-x="983" d="M-68 -272l23 100q45 -25 133 -25q194 0 217 228l55 524h-262l11 94h262l30 301q35 334 328 334q93 0 166 -29l-23 -100q-48 27 -139 27q-100 0 -151 -50.5t-64 -177.5l-33 -305h312l-11 -94h-311l-53 -518q-10 -98 -42.5 -167t-80.5 -104.5t-97.5 -50t-107.5 -14.5 q-99 0 -162 27z" />
<glyph horiz-adv-x="1024" d="M59 1210h127l326 -612l328 612h125l-357 -647h269v-82h-306v-186h306v-82h-306v-213h-116v213h-305v82h305v186h-305v82h268z" />
<glyph horiz-adv-x="2156" d="M119 938q0 124 70 208.5t204 84.5q91 0 155 -42.5t92 -107t28 -143.5q0 -123 -70.5 -208t-204.5 -85t-204 85t-70 208zM213 938q0 -100 48 -157.5t132 -57.5t132 57.5t48 157.5t-48 157.5t-132 57.5t-132 -57.5t-48 -157.5zM406 18l620 1213l78 -39l-619 -1212zM848 272 q0 124 69.5 208.5t202.5 84.5q91 0 155 -42.5t92 -107t28 -143.5t-28 -143.5t-92 -106.5t-155 -42q-133 0 -202.5 84t-69.5 208zM940 272q0 -100 48 -157.5t132 -57.5q86 0 133 57t47 158t-47 158t-133 57q-84 0 -132 -57.5t-48 -157.5zM1491 272q0 124 69.5 208.5 t202.5 84.5q136 0 205.5 -84.5t69.5 -208.5t-69.5 -208t-205.5 -84q-133 0 -202.5 84t-69.5 208zM1583 272q0 -100 48.5 -157.5t131.5 -57.5q86 0 134.5 57.5t48.5 157.5t-48.5 157.5t-134.5 57.5q-83 0 -131.5 -57.5t-48.5 -157.5z" />
<glyph horiz-adv-x="690" d="M141 -406l19 82q77 -41 157 -41q127 0 127 89q0 90 -129 90q-75 0 -131 -21l60 238h94l-39 -156q30 6 61 6q83 0 136 -40t53 -120q0 -77 -54 -122t-167 -45q-53 0 -99.5 10t-66.5 20z" />
<glyph horiz-adv-x="1820" d="M121 567q0 105 15 190.5t51 160.5t92.5 126t143.5 80t200 29q48 0 114 -8q-84 74 -84 190q0 107 76.5 181.5t218.5 74.5q65 0 132.5 -15t116 -36t76.5 -35.5t38 -21.5v-350h387v-101h-387v-674q0 -64 9 -111t32 -85.5t66.5 -58t107.5 -19.5q44 0 88 8t66 15.5t24 9.5 l18 -101q-83 -36 -206 -36q-156 0 -239 88.5t-83 291.5v1072q-12 6 -33 15t-83.5 23.5t-121.5 14.5q-96 0 -148 -48.5t-52 -125.5q0 -65 40.5 -119.5t102.5 -85.5l-29 -96q-102 39 -241 39q-75 0 -135.5 -17.5t-100.5 -44.5t-69 -68t-45 -81t-25 -91.5t-11.5 -90t-2.5 -85.5 q0 -52 2.5 -94t12.5 -94.5t26 -92.5t45.5 -80.5t69.5 -66.5t99.5 -42.5t133.5 -16.5q61 0 121.5 10t86.5 18t33 11l29 -96q-12 -5 -34 -13t-94 -21t-148 -13q-140 0 -240 43.5t-156 125t-81 184t-25 234.5z" />
<glyph horiz-adv-x="1646" d="M80 1032v101h162v303l116 24v-327h662v303l117 24v-327h387v-101h-387v-674q0 -136 48 -205t165 -69q46 0 90.5 8t66 15.5t23.5 9.5l18 -101q-84 -36 -205 -36q-158 0 -240.5 88.5t-82.5 291.5v672h-662v-674q0 -136 48 -205t165 -69q46 0 90.5 8t66.5 15.5t24 9.5 l18 -101q-84 -36 -205 -36q-160 0 -241.5 88t-81.5 292v672h-162z" />
<glyph horiz-adv-x="1626" d="M82 1032v101h197v112q0 338 317 338q59 0 106.5 -8.5t61.5 -15.5l-21 -99q-59 17 -139 17q-107 0 -158 -51t-51 -177v-116h604v303l117 24v-327h385v-101h-385v-674q0 -136 47.5 -205t165.5 -69q45 0 89.5 8t66.5 15.5t24 9.5l19 -101q-84 -36 -205 -36q-160 0 -242 88.5 t-82 291.5v672h-604v-1032h-116v1032h-197z" />
<glyph horiz-adv-x="2392" d="M82 1032v101h197v112q0 338 317 338q59 0 106.5 -8.5t61.5 -15.5l-21 -99q-59 17 -139 17q-107 0 -158 -51t-51 -177v-116h647v112q0 338 320 338q58 0 106 -8.5t62 -15.5l-23 -99q-57 17 -137 17q-108 0 -158.5 -51t-50.5 -177v-116h602v303l119 24v-327h385v-101h-385 v-674q0 -136 47 -205t164 -69q45 0 90 8t67 16l23 9l19 -101q-84 -36 -205 -36q-158 0 -241 88.5t-83 291.5v672h-602v-1032h-119v1032h-647v-1032h-116v1032h-197z" />
<glyph horiz-adv-x="2258" d="M121 567q0 105 15 190.5t51 160.5t92.5 126t143.5 80t200 29q63 0 112 -6q-71 68 -71 180q0 107 74.5 181.5t219.5 74.5q64 0 130 -14t113.5 -34t74.5 -33.5t37 -20.5v-375q155 47 309 47q246 0 361.5 -103.5t115.5 -347.5v-702h-117v707q0 90 -21.5 155t-53.5 100.5 t-83.5 56t-96.5 25.5t-107 5q-84 0 -160.5 -11.5t-111.5 -22.5l-35 -11v-1004h-117v1427q-3 3 -30 14t-85 23.5t-116 12.5q-97 0 -148 -48.5t-51 -123.5q0 -65 36 -119t97 -80l-29 -96q-102 39 -241 39q-75 0 -135.5 -17.5t-100.5 -44.5t-69 -68t-45 -81t-25 -91.5 t-11.5 -90t-2.5 -85.5q0 -52 2.5 -94t12.5 -94.5t26 -92.5t45.5 -80.5t69.5 -66.5t99.5 -42.5t133.5 -16.5q61 0 121 10t90 20l30 9l29 -96q-12 -5 -34 -13t-94 -21t-148 -13q-140 0 -240 43.5t-156 125t-81 184t-25 234.5z" />
<glyph horiz-adv-x="2119" d="M121 567q0 105 15 190.5t51 160.5t92.5 126t143.5 80t200 29q63 0 112 -6q-71 68 -71 180q0 107 74.5 181.5t219.5 74.5q64 0 130 -14t113.5 -34t74.5 -33.5t37 -20.5v-879l557 531h153l-573 -545l338 -365q54 -60 96.5 -90.5t95.5 -30.5q16 0 33 3t26 5l9 3v-99 q-35 -16 -86 -16q-133 0 -274 156l-375 417v-571h-117v1427q-3 3 -30 14t-85 23.5t-116 12.5q-97 0 -148 -48.5t-51 -123.5q0 -65 36 -119t97 -80l-29 -96q-102 39 -241 39q-75 0 -135.5 -17.5t-100.5 -44.5t-69 -68t-45 -81t-25 -91.5t-11.5 -90t-2.5 -85.5q0 -52 2.5 -94 t12.5 -94.5t26 -92.5t45.5 -80.5t69.5 -66.5t99.5 -42.5t133.5 -16.5q61 0 121 10t90 20l30 9l29 -96q-12 -5 -34 -13t-94 -21t-148 -13q-140 0 -240 43.5t-156 125t-81 184t-25 234.5z" />
<glyph horiz-adv-x="1490" d="M129 567q0 105 15 190.5t51 160.5t92.5 126t143.5 80t200 29q61 0 110 -6q-71 68 -71 180q0 107 76 181.5t221 74.5q64 0 129 -13.5t114 -34.5t72.5 -33t38.5 -21v-1481h-119v1427q0 2 -28 13.5t-85.5 24t-115.5 12.5q-97 0 -149 -48.5t-52 -123.5q0 -64 36.5 -118.5 t98.5 -80.5l-28 -96q-103 39 -244 39q-75 0 -135.5 -17.5t-100.5 -44.5t-69 -68t-45 -81t-25 -91.5t-11.5 -90t-2.5 -85.5q0 -52 3 -94t12.5 -94t26 -92.5t46 -80.5t70 -66.5t100 -43t133.5 -16.5q61 0 121.5 10t90.5 20l30 9l28 -96q-12 -5 -34 -13t-94 -21t-148 -13 q-140 0 -240 43.5t-156 125t-81 184t-25 234.5z" />
<glyph horiz-adv-x="2209" d="M117 860q0 69 25.5 121.5t66 84.5t98 52t114 27.5t120.5 7.5q55 0 137 -8q-45 28 -70.5 79t-25.5 115q0 106 81 175t228 69q89 0 182.5 -25.5t132 -44.5t60.5 -32v-375q155 47 309 47q245 0 360 -103.5t115 -347.5v-702h-117v707q0 65 -11 117t-29 87.5t-46 61.5t-57 40 t-68 22.5t-72.5 11t-76.5 2.5q-84 0 -160.5 -11.5t-111.5 -22.5l-35 -11v-1004h-119v1425q-12 6 -33 14t-85 22t-128 14q-101 0 -157 -39.5t-56 -120.5q0 -58 28.5 -104t60 -67.5t63.5 -31.5l-25 -100q-112 37 -268 37q-151 0 -232.5 -47t-81.5 -142q0 -29 9 -54t21 -43 t37 -35t44.5 -27.5t57 -24t59.5 -20t67 -19.5q47 -14 76.5 -23.5t72.5 -26.5t70 -34t58 -44t48.5 -57t29.5 -71t12 -90q0 -159 -113.5 -236.5t-316.5 -77.5q-83 0 -165 12.5t-122 24.5l-41 13l23 102q16 -5 43.5 -13t107.5 -21t154 -13q160 0 237.5 54.5t77.5 152.5 q0 44 -17 79.5t-40.5 58.5t-67.5 44t-78.5 32.5t-91.5 28.5q-51 15 -78 23.5t-72.5 26t-71 33t-57.5 41t-48.5 53.5t-28.5 66.5t-12 84.5z" />
<glyph horiz-adv-x="2076" d="M117 860q0 69 25.5 121.5t66 84.5t98 52t114 27.5t120.5 7.5q55 0 137 -8q-45 28 -70.5 79t-25.5 115q0 106 81 175t228 69q89 0 182.5 -25.5t132 -44.5t60.5 -32v-879l557 531h153l-573 -545l336 -365q53 -60 97 -90.5t97 -30.5q15 0 32 3t27 5l9 3v-99q-35 -16 -88 -16 q-132 0 -273 156l-374 417v-571h-119v1425q-12 6 -33 14t-85 22t-128 14q-101 0 -157 -39.5t-56 -120.5q0 -48 17.5 -87t44 -62t48.5 -35.5t42 -18.5l-25 -100q-112 37 -268 37q-151 0 -232.5 -47t-81.5 -142q0 -29 9 -54t21 -43t37 -35t44.5 -27.5t57 -24t59.5 -20 t67 -19.5q47 -14 76.5 -23.5t72.5 -26.5t70 -34t58 -44t48.5 -57t29.5 -71t12 -90q0 -159 -113.5 -236.5t-316.5 -77.5q-83 0 -165 12.5t-122 24.5l-41 13l23 102q16 -5 43.5 -13t107.5 -21t154 -13q160 0 237.5 54.5t77.5 152.5q0 44 -17 79.5t-40.5 58.5t-67.5 44 t-78.5 32.5t-91.5 28.5q-51 15 -78 23.5t-72.5 26t-71 33t-57.5 41t-48.5 53.5t-28.5 66.5t-12 84.5z" />
<glyph horiz-adv-x="1435" d="M117 860q0 69 25.5 121.5t66 84.5t98 52t114 27.5t120.5 7.5q55 0 137 -8q-45 28 -70.5 79t-25.5 115q0 106 81 175t228 69q89 0 182.5 -25.5t132 -44.5t60.5 -32v-1481h-119v1425q-12 6 -33 14t-85 22t-128 14q-101 0 -157 -39.5t-56 -120.5q0 -48 17.5 -87t44 -62 t48.5 -35.5t42 -18.5l-25 -100q-112 37 -268 37q-151 0 -232.5 -47t-81.5 -142q0 -29 9 -54t21 -43t37 -35t44.5 -27.5t57 -24t59.5 -20t67 -19.5q47 -14 76.5 -23.5t72.5 -26.5t70 -34t58 -44t48.5 -57t29.5 -71t12 -90q0 -159 -113.5 -236.5t-316.5 -77.5q-83 0 -165 12.5 t-122 24.5l-41 13l23 102q16 -5 43.5 -13t107.5 -21t154 -13q160 0 237.5 54.5t77.5 152.5q0 44 -17 79.5t-40.5 58.5t-67.5 44t-78.5 32.5t-91.5 28.5q-51 15 -78 23.5t-72.5 26t-71 33t-57.5 41t-48.5 53.5t-28.5 66.5t-12 84.5z" />
<glyph horiz-adv-x="1245" d="M82 1032v101h197v112q0 338 317 338q59 0 106.5 -8.5t61.5 -15.5l-21 -99q-59 17 -139 17q-107 0 -158 -51t-51 -177v-116h682v-1225q0 -76 -17 -138t-52.5 -111.5t-96.5 -77t-143 -27.5q-46 0 -87.5 7.5t-60.5 14.5l-18 8l23 97q53 -25 135 -25q198 0 198 250v1126h-563 v-1032h-116v1032h-197zM932 1423q0 39 22.5 61.5t63.5 22.5q40 0 63 -23t23 -61q0 -40 -23 -63t-63 -23q-41 0 -63.5 23t-22.5 63z" />
<glyph horiz-adv-x="1867" d="M82 1032v101h197v112q0 338 317 338q59 0 106.5 -8.5t61.5 -15.5l-21 -99q-59 17 -139 17q-107 0 -158 -51t-51 -177v-116h525v-707q0 -90 22 -154.5t54 -99.5t83 -55.5t94.5 -25.5t102.5 -5q91 0 169.5 11t110.5 23l33 11v1002h117v-1067q0 -91 -12.5 -163.5t-45 -139.5 t-85.5 -111.5t-138 -71t-198 -26.5q-86 0 -165.5 14t-115.5 28l-37 13l29 102q12 -6 35 -15t97 -23.5t151 -14.5q91 0 158 21t105.5 53.5t62 82.5t32 97.5t10.5 110.5q-143 -41 -309 -41q-242 0 -359.5 103.5t-117.5 344.5v602h-408v-1032h-116v1032h-197z" />
<glyph horiz-adv-x="2111" d="M117 860q0 69 25.5 121.5t66 84.5t98 52t114 27.5t120.5 7.5q55 0 137 -8q-44 28 -70 79.5t-26 114.5q0 106 81 175t232 69q86 0 178.5 -25.5t132 -44.5t60.5 -32v-416q136 88 327 88q192 0 286.5 -91t94.5 -233q0 -60 -17 -112t-53 -97.5t-97 -78.5t-144 -49l137 -256 q34 -67 71 -100.5t99 -33.5q17 0 35 3t27 7l10 3l8 -97q-34 -20 -102 -20q-76 0 -132 39.5t-104 124.5l-176 315h-37q-109 0 -233 23v-500h-119v1425q-12 6 -33 14t-84.5 22t-124.5 14q-217 0 -217 -160q0 -82 50.5 -135.5t101.5 -67.5l-25 -100q-112 37 -268 37 q-151 0 -232.5 -47t-81.5 -142q0 -29 9 -54t21 -43t37 -35t44.5 -27.5t57 -24t59.5 -20t67 -19.5q47 -14 76.5 -23.5t72.5 -26.5t70 -34t58 -44t48.5 -57t29.5 -71t12 -90q0 -159 -113.5 -236.5t-316.5 -77.5q-83 0 -165 12.5t-122 24.5l-41 13l23 102q16 -5 43.5 -13 t107.5 -21t154 -13q160 0 237.5 54.5t77.5 152.5q0 44 -17 79.5t-40.5 58.5t-67.5 44t-78.5 32.5t-91.5 28.5q-51 15 -78 23.5t-72.5 26t-71 33t-57.5 41t-48.5 53.5t-28.5 66.5t-12 84.5zM1266 594q117 -12 219 -12q196 0 283 61.5t87 181.5q0 224 -274 224 q-182 0 -315 -88v-367z" />
<glyph horiz-adv-x="2172" d="M137 567q0 132 25 234.5t80.5 183.5t154.5 124.5t238 43.5q65 0 115 -6q-72 69 -72 180q0 51 17.5 95.5t52.5 81t94 58t135 21.5q81 0 167 -25t126.5 -45t56.5 -32v-418q139 90 330 90q192 0 285.5 -91t93.5 -233q0 -60 -17 -112t-53 -97.5t-97.5 -78.5t-144.5 -49 l138 -256q36 -67 73 -100.5t99 -33.5q17 0 35 3t27 7l9 3l9 -97q-35 -20 -103 -20q-76 0 -131.5 39.5t-103.5 124.5l-177 315h-38q-110 0 -234 23v-500h-117v1427q-3 3 -31 14t-83.5 23.5t-108.5 12.5q-103 0 -155 -48t-52 -124q0 -65 36 -119t97 -80l-28 -96 q-103 39 -238 39q-76 0 -137 -17t-101.5 -44t-70 -68t-45.5 -80.5t-25 -91t-11.5 -90.5t-2.5 -87q0 -52 3 -94.5t12.5 -94.5t26 -92.5t46.5 -80.5t70.5 -66t100.5 -42.5t134 -16.5q59 0 119 10t86 18t33 11l28 -96q-12 -5 -33.5 -13t-92.5 -21t-146 -13q-113 0 -200.5 29 t-144.5 80t-93 126.5t-51 161t-15 190.5zM1327 594q111 -12 221 -12q196 0 283.5 61.5t87.5 181.5q0 224 -277 224q-177 0 -315 -91v-364z" />
<glyph horiz-adv-x="1748" d="M113 905q0 93 28 176.5t88 156t147 125t212.5 82.5t277.5 30q67 0 139.5 -5.5t112.5 -10.5l39 -5l522 -1454h-123l-167 471h-648l-168 -471h-122l491 1366q-41 4 -80 4q-139 0 -255.5 -29t-204 -86t-136.5 -147t-49 -205q0 -62 13.5 -119t33.5 -94.5t39.5 -66t32.5 -41.5 l14 -13l-78 -65l-17 17t-38.5 49.5t-48.5 81.5t-38 111.5t-17 141.5zM778 578h572l-285 800z" />
<glyph horiz-adv-x="1910" d="M113 874q0 103 35 191t112.5 164.5t193 130.5t286.5 84.5t384 30.5q124 0 216 -9.5t171 -34t128 -65.5t76.5 -105.5t27.5 -152.5q0 -129 -60 -213t-192 -123q165 -37 238 -134.5t73 -252.5q0 -221 -139.5 -313t-429.5 -92q-106 0 -216.5 7.5t-168.5 14.5l-57 8v1338 q-120 -17 -220 -52.5t-181.5 -92t-127 -141.5t-45.5 -190q0 -73 22.5 -139t54.5 -108t63.5 -73t54.5 -44l22 -14l-65 -76q-10 6 -27.5 17t-61.5 52t-78 89t-61.5 128.5t-27.5 169.5zM909 102q161 -18 308 -18q93 0 160.5 7.5t128.5 27.5t99 54t59.5 89.5t21.5 132.5 q0 169 -102.5 243.5t-319.5 74.5h-355v-611zM909 815h303q216 0 314 63t98 218q0 71 -21 120.5t-56.5 79.5t-96.5 46.5t-125.5 22t-159.5 5.5q-146 0 -256 -12v-543z" />
<glyph horiz-adv-x="1286" d="M121 721q0 118 20 224t67 204.5t117.5 169.5t178.5 113.5t244 42.5q113 0 200 -31t138 -84t76.5 -116.5t25.5 -135.5q0 -120 -74.5 -218.5t-214.5 -168.5l-53 84q227 119 227 301q0 51 -17 95.5t-52.5 83.5t-101.5 62t-154 23q-94 0 -171 -24.5t-128.5 -63.5t-91 -95.5 t-61.5 -113t-36 -124t-18 -120.5t-4 -110q0 -58 4 -110.5t17.5 -119t36.5 -121t63 -109t94 -92t134.5 -60.5t178.5 -23q84 0 163 14t115 28l37 15l31 -100q-15 -7 -43 -17t-121 -27t-192 -17q-145 0 -258 42.5t-183 112.5t-114.5 168.5t-62 200t-17.5 217.5z" />
<glyph horiz-adv-x="1986" d="M113 874q0 103 35 191t112.5 164.5t193 130.5t286.5 84.5t384 30.5q89 0 158.5 -5.5t150 -24.5t140 -51t117.5 -88.5t94.5 -133.5t59 -189.5t22.5 -253.5q0 -131 -17 -236t-62 -203.5t-118 -164.5t-191.5 -105.5t-275.5 -39.5q-54 0 -126.5 4.5t-126.5 9.5t-103.5 10.5 t-54.5 5.5v1338q-95 -14 -177.5 -38.5t-156.5 -64.5t-126.5 -92t-83 -124t-30.5 -157q0 -73 22.5 -139t54.5 -108t63.5 -73t54.5 -44l22 -14l-65 -76q-10 6 -27.5 17t-61.5 52t-78 89t-61.5 128.5t-27.5 169.5zM909 104q158 -20 299 -20q65 0 119 6.5t111 25t101.5 49t85 80 t67 116t42 160.5t15.5 210q0 115 -14.5 206.5t-40.5 158.5t-68.5 115.5t-91 79t-115 48.5t-134.5 24.5t-155 6.5q-119 0 -221 -10v-1256z" />
<glyph horiz-adv-x="1828" d="M113 895q0 252 187.5 405.5t494.5 153.5h903v-106h-787v-535h703v-104h-703v-299q0 -173 112 -249.5t323 -76.5q83 0 171.5 10t135.5 20l47 9v-109q-172 -34 -367 -34q-276 0 -407 106t-131 326v936q-77 0 -153 -13t-154 -46.5t-137 -83.5t-96.5 -130t-37.5 -180 q0 -76 22.5 -145.5t54.5 -114t63.5 -78t54.5 -48.5l22 -15l-65 -76q-5 3 -14.5 9.5t-36 28.5t-50.5 47.5t-53.5 67.5t-51 87.5t-36 108t-14.5 128.5z" />
<glyph horiz-adv-x="1779" d="M113 895q0 252 187.5 405.5t494.5 153.5h895v-106h-777v-566h695v-104h-695v-678h-118v1348q-77 0 -153 -13t-154 -46.5t-137 -83.5t-96.5 -130t-37.5 -180q0 -76 22.5 -145.5t54.5 -114t63.5 -78t54.5 -48.5l22 -15l-65 -76q-5 3 -14.5 9.5t-36 28.5t-50.5 47.5 t-53.5 67.5t-51 87.5t-36 108t-14.5 128.5z" />
<glyph horiz-adv-x="1327" d="M121 709q0 124 21.5 234t70 208.5t120.5 169.5t180.5 112.5t242.5 41.5q110 0 195.5 -27.5t136.5 -75t76.5 -105t25.5 -122.5q0 -43 -11 -84.5t-25.5 -70.5t-32 -53.5t-28 -35.5t-14.5 -14l-80 55l7 10q8 11 19 29.5t22 42t18.5 55t7.5 62.5q0 45 -16.5 84t-51.5 72.5 t-99 53t-150 19.5q-92 0 -168 -23.5t-129 -62.5t-93 -94t-64 -113t-39 -126t-20 -125.5t-5 -118.5q0 -54 4 -104t16.5 -114.5t33.5 -119t58 -109t86 -92t122.5 -61t162.5 -23.5q158 0 311 70v460h115v-682q0 -179 -112 -278.5t-304 -99.5q-50 0 -97.5 5.5t-69.5 10.5l-23 6 l18 105q74 -25 168 -25q158 0 231.5 74t73.5 202v111q-134 -63 -315 -63q-135 0 -240 42.5t-171 111.5t-108.5 166t-59.5 197t-17 212z" />
<glyph horiz-adv-x="2033" d="M113 895q0 252 187.5 405.5t494.5 153.5h118v-647h822v647h118v-1454h-118v700h-822v-700h-118v1348q-77 0 -153 -13t-154 -46.5t-137 -83.5t-96.5 -130t-37.5 -180q0 -76 22.5 -145.5t54.5 -114t63.5 -78t54.5 -48.5l22 -15l-65 -76q-5 3 -14.5 9.5t-36 28.5t-50.5 47.5 t-53.5 67.5t-51 87.5t-36 108t-14.5 128.5z" />
<glyph horiz-adv-x="1101" d="M113 895q0 252 187.5 405.5t494.5 153.5h118v-1454h-118v1348q-77 0 -153 -13t-154 -46.5t-137 -83.5t-96.5 -130t-37.5 -180q0 -76 22.5 -145.5t54.5 -114t63.5 -78t54.5 -48.5l22 -15l-65 -76q-5 3 -14.5 9.5t-36 28.5t-50.5 47.5t-53.5 67.5t-51 87.5t-36 108 t-14.5 128.5z" />
<glyph horiz-adv-x="1112" d="M113 895q0 166 88 293.5t246 196.5t360 69h125v-1542q0 -91 -32.5 -161.5t-86.5 -112.5t-118.5 -63t-135.5 -21q-70 0 -129.5 12t-83.5 24l-24 11l28 96q8 -4 23.5 -10.5t69 -17.5t112.5 -11q115 0 186.5 68t71.5 184v1438q-81 0 -160 -13.5t-159 -47t-140.5 -84 t-98.5 -130t-38 -178.5q0 -76 22.5 -145.5t54.5 -114t63.5 -78t54.5 -48.5l22 -15l-65 -76q-5 3 -14.5 9.5t-36 28.5t-50.5 47.5t-53.5 67.5t-51 87.5t-36 108t-14.5 128.5z" />
<glyph horiz-adv-x="1853" d="M113 895q0 252 187.5 405.5t494.5 153.5h118v-729l691 729h147l-702 -739l471 -488q61 -63 108 -93t103 -30q16 0 31.5 2.5t24 5t9.5 3.5v-101q-35 -16 -90 -16q-72 0 -141 41t-146 123l-506 528v-690h-118v1348q-79 0 -155.5 -13t-154.5 -46.5t-136.5 -83.5t-95 -130 t-36.5 -180q0 -76 22.5 -145.5t54.5 -114t63.5 -78t54.5 -48.5l22 -15l-65 -76q-5 3 -14.5 9.5t-36 28.5t-50.5 47.5t-53.5 67.5t-51 87.5t-36 108t-14.5 128.5z" />
<glyph horiz-adv-x="1726" d="M113 895q0 252 187.5 405.5t494.5 153.5h116v-1069q0 -299 416 -299q56 0 108 4t87 10t61 11.5t39 9.5l14 4v-111q-116 -34 -317 -34q-250 0 -387 98t-137 307v963q-79 0 -155.5 -13t-154.5 -46.5t-136.5 -83.5t-95 -130t-36.5 -180q0 -76 22.5 -145.5t54.5 -114 t63.5 -78t54.5 -48.5l22 -15l-65 -76q-5 3 -14.5 9.5t-36 28.5t-50.5 47.5t-53.5 67.5t-51 87.5t-36 108t-14.5 128.5z" />
<glyph horiz-adv-x="2277" d="M113 895q0 252 187.5 405.5t494.5 153.5h188l449 -1085l448 1085h156l123 -1454h-119l-98 1188l-7 125l-45 -125l-391 -942h-135l-391 942l-47 123l-4 -123l-101 -1188h-116l112 1348h-22q-79 0 -155.5 -13t-154.5 -46.5t-136.5 -83.5t-95 -130t-36.5 -180 q0 -76 22.5 -145.5t54.5 -114t63.5 -78t54.5 -48.5l22 -15l-65 -76q-5 3 -14.5 9.5t-36 28.5t-50.5 47.5t-53.5 67.5t-51 87.5t-36 108t-14.5 128.5z" />
<glyph horiz-adv-x="2041" d="M113 895q0 252 187.5 405.5t494.5 153.5h168l786 -1311l-4 113v1198h117v-1454h-158l-799 1327l6 -117v-1210h-116v1348q-79 0 -155.5 -13t-154.5 -46.5t-136.5 -83.5t-95 -130t-36.5 -180q0 -76 22.5 -145.5t54.5 -114t63.5 -78t54.5 -48.5l22 -15l-65 -76 q-5 3 -14.5 9.5t-36 28.5t-50.5 47.5t-53.5 67.5t-51 87.5t-36 108t-14.5 128.5z" />
<glyph horiz-adv-x="1396" d="M121 733q0 163 33.5 305t107 256.5t180.5 171.5l50 -63q-126 -86 -190 -267t-64 -407q0 -67 3.5 -123t15 -125t31 -122.5t55 -107t82.5 -88.5t117 -57t156 -22t155.5 21.5t117 57t82.5 88t55 106.5t32 121.5t15.5 124t3.5 122.5q0 645 -328 645q-119 0 -187.5 -83.5 t-68.5 -225.5q0 -235 205 -377l-61 -74q-121 73 -186.5 194.5t-65.5 258.5q0 181 98.5 296.5t268.5 115.5q85 0 154.5 -29.5t115 -75.5t79 -114t51.5 -132t28.5 -143t13 -134.5t2.5 -117.5q0 -749 -580 -749q-100 0 -182.5 22.5t-141.5 61t-104 95.5t-73 120.5t-45.5 141.5 t-24 152.5t-6.5 159.5z" />
<glyph horiz-adv-x="1867" d="M113 874q0 128 60 235.5t179 190t314 129t448 46.5q127 0 225.5 -13.5t183 -46t139.5 -84.5t85.5 -131.5t30.5 -185.5q0 -477 -598 -477q-58 0 -162 5t-109 5v-547h-118v1348q-91 -13 -172.5 -37t-156 -64.5t-128 -93t-85.5 -124.5t-32 -157q0 -73 22.5 -139t54.5 -108 t63.5 -73t54.5 -44l22 -14l-65 -76q-10 6 -27.5 17t-61.5 52t-78 89t-61.5 128.5t-27.5 169.5zM909 651q108 -8 256 -8q254 0 374 87t120 284q0 108 -37 179.5t-111.5 109.5t-165.5 52.5t-221 14.5q-97 0 -215 -8v-711z" />
<glyph horiz-adv-x="1398" d="M121 733q0 121 19.5 232.5t58.5 208.5t101 173t142 119l50 -63q-126 -86 -190 -267t-64 -407q0 -67 3.5 -123t15 -125t31 -122.5t55 -107t82.5 -88.5t117 -57t156 -22t156 21.5t117.5 57t82.5 88.5t54.5 106.5t31.5 121.5t15.5 124t3.5 122q0 645 -325 645 q-120 0 -189.5 -83.5t-69.5 -225.5q0 -235 205 -377l-61 -74q-121 73 -185.5 194t-64.5 259q0 181 98.5 296.5t266.5 115.5q85 0 154.5 -29.5t115 -75.5t79 -114t51.5 -132t28.5 -143t13 -134.5t2.5 -117.5q0 -749 -580 -749q-100 0 -182.5 22.5t-141.5 61t-104 95.5 t-73 120.5t-45.5 141.5t-24 152.5t-6.5 159.5zM635 -272l8 86l598 -50l-8 -98z" />
<glyph horiz-adv-x="1939" d="M113 874q0 103 34.5 191t112 164.5t193.5 130.5t287.5 84.5t385.5 30.5q174 0 292.5 -20.5t201 -69.5t120.5 -131t38 -203q0 -171 -87.5 -275.5t-285.5 -138.5l240 -404q41 -68 77.5 -98.5t94.5 -30.5q14 0 26 2t17 4l6 1v-99q-25 -14 -74 -14q-89 0 -144 46.5 t-114 148.5l-250 430q-25 -2 -94 -2q-66 0 -281 10v-631h-118v1348q-120 -17 -220 -52.5t-181.5 -92t-127 -141.5t-45.5 -190q0 -73 22.5 -139t54.5 -108t63.5 -73t54.5 -44l22 -14l-65 -76q-10 6 -27.5 17t-61.5 52t-78 89t-61.5 128.5t-27.5 169.5zM909 733q116 -8 271 -8 q256 0 367.5 70t111.5 249q0 80 -21.5 137.5t-60 94t-101.5 57.5t-135 29t-172 8q-150 0 -260 -12v-625z" />
<glyph horiz-adv-x="1228" d="M125 397q0 68 15.5 126.5t30.5 82.5l15 25l95 -41q-5 -8 -12.5 -23t-20 -63.5t-12.5 -100.5q0 -157 102.5 -238t265.5 -81q168 0 277.5 82.5t109.5 228.5q0 46 -13 85.5t-32 68t-52.5 54.5t-62 42.5t-74.5 33.5t-76 26t-79 22q-205 54 -303 142.5t-98 250.5 q0 77 26 138.5t70.5 101.5t106 66.5t129 37.5t143.5 11q96 0 184.5 -17t129.5 -34l40 -17l-35 -96q-13 7 -37.5 16.5t-108 26t-175.5 16.5q-359 0 -359 -246q0 -65 23 -113t71.5 -81t102.5 -54t137 -42q75 -19 132.5 -40t121.5 -57t106 -80t69.5 -110.5t27.5 -147.5 q0 -195 -140.5 -307t-361.5 -112q-214 0 -346.5 108.5t-132.5 308.5z" />
<glyph horiz-adv-x="1560" d="M113 903q0 256 170 403.5t481 147.5h727v-106h-500v-1348h-117v1348h-116q-80 0 -153 -12.5t-145 -44.5t-124 -81t-84.5 -127.5t-32.5 -179.5q0 -76 22 -146.5t53.5 -116.5t63.5 -81t54 -51l22 -16l-65 -76q-10 7 -27.5 19.5t-61.5 58.5t-78 98t-61.5 136t-27.5 175z" />
<glyph horiz-adv-x="2041" d="M113 895q0 252 187.5 405.5t494.5 153.5h118v-905q0 -88 13 -158t34.5 -118t55 -83t67.5 -55t79 -32t84 -15.5t87 -3.5t87 3.5t84.5 15.5t79.5 32t67.5 55t55.5 83t35 118t13 158v905h117v-899q0 -158 -35 -270t-106 -178.5t-168 -96.5t-230 -30t-230 30t-167.5 96.5 t-105.5 178.5t-35 270v793q-79 0 -155.5 -13t-154.5 -46.5t-136.5 -83.5t-95 -130t-36.5 -180q0 -76 22.5 -145.5t54.5 -114t63.5 -78t54.5 -48.5l22 -15l-65 -76q-5 3 -14.5 9.5t-36 28.5t-50.5 47.5t-53.5 67.5t-51 87.5t-36 108t-14.5 128.5z" />
<glyph horiz-adv-x="1918" d="M113 905q0 244 170 396.5t450 152.5h37l477 -1382l479 1382h123l-506 -1454h-190l-471 1346q-67 -4 -130 -20t-124.5 -50.5t-107.5 -83t-74.5 -122t-28.5 -163.5q0 -59 12 -113.5t31.5 -95t43.5 -75.5t47.5 -58t43 -39.5t31.5 -23.5l12 -8l-65 -76q-11 6 -28.5 18.5 t-62 56.5t-79 95.5t-62.5 137t-28 179.5z" />
<glyph horiz-adv-x="2580" d="M113 905q0 244 170 396.5t450 152.5h45l346 -1245l31 -129l33 131l334 1180h123l333 -1182l33 -129l33 133l344 1241h123l-404 -1454h-184l-313 1098l-27 119l-27 -119l-313 -1098h-184l-377 1346q-67 -4 -130.5 -21t-125 -51t-107.5 -82.5t-74 -122t-28 -162.5 q0 -59 12 -113.5t31.5 -95t43.5 -75.5t47.5 -58t43 -39.5t31.5 -23.5l12 -8l-65 -76q-11 6 -28.5 18.5t-62 56.5t-79 95.5t-62.5 137t-28 179.5z" />
<glyph horiz-adv-x="1859" d="M113 905q0 245 166.5 397t441.5 152h39l448 -635l451 635h137l-512 -725l516 -729h-139l-451 637l-450 -637h-139l516 731l-443 617q-68 -2 -133 -17t-128.5 -48.5t-110.5 -82.5t-76 -124.5t-29 -168.5q0 -59 12 -113.5t31.5 -95t43.5 -75.5t47.5 -58t43 -39.5 t31.5 -23.5l12 -8l-65 -76q-11 6 -28.5 18.5t-62 56.5t-79 95.5t-62.5 137t-28 179.5z" />
<glyph horiz-adv-x="1822" d="M113 905q0 243 165.5 396t432.5 153h24l449 -733l450 733h129l-522 -848v-606h-117v612l-456 734q-65 -4 -127 -21t-121.5 -51.5t-104 -83.5t-71.5 -121.5t-27 -159.5q0 -60 12 -115t31.5 -95.5t43.5 -75.5t47.5 -58t43 -39.5t31.5 -23.5l12 -8l-65 -76q-11 6 -28.5 18 t-62 56t-79 95.5t-62.5 137t-28 180.5z" />
<glyph horiz-adv-x="1271" d="M113 1067q0 171 119.5 279t322.5 108h565l33 -106l-836 -1242h850v-106h-987v106l838 1242h-463q-159 0 -247.5 -78.5t-88.5 -206.5q0 -43 11 -85t26.5 -72t30.5 -53.5t26 -35.5l11 -12l-82 -60q-5 5 -14 14.5t-31 42t-39 67.5t-31 89t-14 109z" />
<glyph horiz-adv-x="1748" d="M113 905q0 93 28 176.5t88 156t147 125t212.5 82.5t277.5 30q67 0 139.5 -5.5t112.5 -10.5l39 -5l522 -1454h-123l-167 471h-648l-168 -471h-122l491 1366q-41 4 -80 4q-139 0 -255.5 -29t-204 -86t-136.5 -147t-49 -205q0 -62 13.5 -119t33.5 -94.5t39.5 -66t32.5 -41.5 l14 -13l-78 -65l-17 17t-38.5 49.5t-48.5 81.5t-38 111.5t-17 141.5zM778 578h572l-285 800zM799 1776l69 77l281 -245l-53 -64z" />
<glyph horiz-adv-x="1748" d="M113 905q0 93 28 176.5t88 156t147 125t212.5 82.5t277.5 30q67 0 139.5 -5.5t112.5 -10.5l39 -5l522 -1454h-123l-167 471h-648l-168 -471h-122l491 1366q-41 4 -80 4q-139 0 -255.5 -29t-204 -86t-136.5 -147t-49 -205q0 -62 13.5 -119t33.5 -94.5t39.5 -66t32.5 -41.5 l14 -13l-78 -65l-17 17t-38.5 49.5t-48.5 81.5t-38 111.5t-17 141.5zM778 578h572l-285 800zM948 1626l279 244l69 -78l-297 -231z" />
<glyph horiz-adv-x="1748" d="M113 905q0 93 28 176.5t88 156t147 125t212.5 82.5t277.5 30q67 0 139.5 -5.5t112.5 -10.5l39 -5l522 -1454h-123l-167 471h-648l-168 -471h-122l491 1366q-41 4 -80 4q-139 0 -255.5 -29t-204 -86t-136.5 -147t-49 -205q0 -62 13.5 -119t33.5 -94.5t39.5 -66t32.5 -41.5 l14 -13l-78 -65l-17 17t-38.5 49.5t-48.5 81.5t-38 111.5t-17 141.5zM778 578h572l-285 800zM795 1604l270 243l268 -243l-53 -60l-215 174l-215 -174z" />
<glyph horiz-adv-x="1748" d="M113 905q0 93 28 176.5t88 156t147 125t212.5 82.5t277.5 30q67 0 139.5 -5.5t112.5 -10.5l39 -5l522 -1454h-123l-167 471h-648l-168 -471h-122l491 1366q-41 4 -80 4q-139 0 -255.5 -29t-204 -86t-136.5 -147t-49 -205q0 -62 13.5 -119t33.5 -94.5t39.5 -66t32.5 -41.5 l14 -13l-78 -65l-17 17t-38.5 49.5t-48.5 81.5t-38 111.5t-17 141.5zM748 1651q1 6 3.5 16.5t14.5 37.5t29 47t49 37t71 17q47 0 89.5 -25t78 -50t66.5 -25q34 0 57.5 25t29.5 50l7 25l74 -37q-1 -6 -4 -17t-15.5 -38t-29.5 -47.5t-48.5 -37.5t-70.5 -17q-45 0 -86.5 25 t-77.5 50t-67 25q-35 0 -59.5 -25t-32.5 -50l-7 -25zM778 578h572l-285 800z" />
<glyph horiz-adv-x="1748" d="M113 905q0 93 28 176.5t88 156t147 125t212.5 82.5t277.5 30q67 0 139.5 -5.5t112.5 -10.5l39 -5l522 -1454h-123l-167 471h-648l-168 -471h-122l491 1366q-41 4 -80 4q-139 0 -255.5 -29t-204 -86t-136.5 -147t-49 -205q0 -62 13.5 -119t33.5 -94.5t39.5 -66t32.5 -41.5 l14 -13l-78 -65l-17 17t-38.5 49.5t-48.5 81.5t-38 111.5t-17 141.5zM778 578h572l-285 800zM784 1708q0 34 21 55t57 21q35 0 55.5 -21t20.5 -55q0 -37 -20.5 -58.5t-55.5 -21.5q-37 0 -57.5 21.5t-20.5 58.5zM1176 1708q0 34 20.5 55t56.5 21q35 0 55.5 -21t20.5 -55 q0 -37 -20.5 -58.5t-55.5 -21.5q-36 0 -56.5 21.5t-20.5 58.5z" />
<glyph horiz-adv-x="1748" d="M113 905q0 93 28 176.5t88 156t147 125t212.5 82.5t277.5 30q67 0 139.5 -5.5t112.5 -10.5l39 -5l522 -1454h-123l-167 471h-648l-168 -471h-122l491 1366q-41 4 -80 4q-139 0 -255.5 -29t-204 -86t-136.5 -147t-49 -205q0 -62 13.5 -119t33.5 -94.5t39.5 -66t32.5 -41.5 l14 -13l-78 -65l-17 17t-38.5 49.5t-48.5 81.5t-38 111.5t-17 141.5zM778 578h572l-285 800zM844 1757q0 86 55 136.5t143 50.5q87 0 142 -50.5t55 -136.5t-55 -135t-142 -49q-88 0 -143 49t-55 135zM932 1757q0 -52 29 -80t81 -28q50 0 79.5 28t29.5 80t-29.5 82.5 t-79.5 30.5q-51 0 -80.5 -30.5t-29.5 -82.5z" />
<glyph horiz-adv-x="2177" d="M113 905q0 93 28 176.5t88 156t147 125t212.5 82.5t277.5 30q67 0 139.5 -5.5t112.5 -10.5l39 -5h889v-106h-786v-535h702v-104h-702v-299q0 -172 106.5 -249t314.5 -77q61 0 120.5 3.5t102 8t75.5 9.5t51 9l18 3v-103q-152 -34 -373 -34q-532 0 -532 432v61h-490 l-256 -473h-125l744 1362q-84 8 -154 8q-139 0 -255.5 -29t-204 -86t-136.5 -147t-49 -205q0 -62 13.5 -119t33.5 -94.5t39.5 -66t32.5 -41.5l14 -13l-78 -65l-17 17t-38.5 49.5t-48.5 81.5t-38 111.5t-17 141.5zM711 578h430v794z" />
<glyph horiz-adv-x="1286" d="M121 721q0 118 20 224t67 204.5t117.5 169.5t178.5 113.5t244 42.5q113 0 200 -31t138 -84t76.5 -116.5t25.5 -135.5q0 -120 -74.5 -218.5t-214.5 -168.5l-53 84q227 119 227 301q0 51 -17 95.5t-52.5 83.5t-101.5 62t-154 23q-94 0 -171 -24.5t-128.5 -63.5t-91 -95.5 t-61.5 -113t-36 -124t-18 -120.5t-4 -110q0 -58 4 -110.5t17.5 -119t36.5 -121t63 -109t94 -92t134.5 -60.5t178.5 -23q84 0 163 14t115 28l37 15l31 -100q-15 -7 -43 -17t-121 -27t-192 -17h-19l-24 -105q36 4 55 4q80 0 136.5 -38.5t56.5 -119.5q0 -76 -54.5 -121.5 t-167.5 -45.5q-53 0 -99.5 10t-66.5 20l-20 10l18 82q78 -41 158 -41q127 0 127 89q0 90 -129 90q-75 0 -131 -21l49 195q-100 12 -181.5 48t-138 90.5t-97 120.5t-63.5 146t-33.5 160t-10.5 168z" />
<glyph horiz-adv-x="1327" d="M121 709q0 124 21.5 234t70 208.5t120.5 169.5t180.5 112.5t242.5 41.5q110 0 195.5 -27.5t136.5 -75t76.5 -105t25.5 -122.5q0 -43 -11 -84.5t-25.5 -70.5t-32 -53.5t-28 -35.5t-14.5 -14l-80 55l7 10q8 11 19 29.5t22 42t18.5 55t7.5 62.5q0 45 -16.5 84t-51.5 72.5 t-99 53t-150 19.5q-92 0 -168 -23.5t-129 -62.5t-93 -94t-64 -113t-39 -126t-20 -125.5t-5 -118.5q0 -54 4 -104t16.5 -114.5t33.5 -119t58 -109t86 -92t122.5 -61t162.5 -23.5q158 0 311 70v460h115v-682q0 -179 -112 -278.5t-304 -99.5q-50 0 -97.5 5.5t-69.5 10.5l-23 6 l18 105q74 -25 168 -25q158 0 231.5 74t73.5 202v111q-134 -63 -315 -63q-135 0 -240 42.5t-171 111.5t-108.5 166t-59.5 197t-17 212zM471 1808l78 31q1 -6 3 -17t13.5 -38t28.5 -48t52.5 -38t80.5 -17t80 16.5t53 39.5t29 46t13 39l3 17l78 -31q-1 -9 -4 -23.5 t-20.5 -52.5t-42.5 -67t-75 -52.5t-114 -23.5t-114 22.5t-75.5 54.5t-42 64.5t-20.5 55.5z" />
<glyph horiz-adv-x="1986" d="M113 874q0 103 35 191t112.5 164.5t193 130.5t286.5 84.5t384 30.5q89 0 158.5 -5.5t150 -24.5t140 -51t117.5 -88.5t94.5 -133.5t59 -189.5t22.5 -253.5q0 -131 -17 -236t-62 -203.5t-118 -164.5t-191.5 -105.5t-275.5 -39.5q-54 0 -126.5 4.5t-126.5 9.5t-103.5 10.5 t-54.5 5.5v684h-82v99h82v555q-95 -14 -177.5 -38.5t-156.5 -64.5t-126.5 -92t-83 -124t-30.5 -157q0 -73 22.5 -139t54.5 -108t63.5 -73t54.5 -44l22 -14l-65 -76q-10 6 -27.5 17t-61.5 52t-78 89t-61.5 128.5t-27.5 169.5zM909 104q158 -20 299 -20q65 0 119 6.5t111 25 t101.5 49t85 80t67 116t42 160.5t15.5 210q0 115 -14.5 206.5t-40.5 158.5t-68.5 115.5t-91 79t-115 48.5t-134.5 24.5t-155 6.5q-119 0 -221 -10v-567h404v-99h-404v-590z" />
<glyph horiz-adv-x="1828" d="M113 895q0 252 187.5 405.5t494.5 153.5h903v-106h-787v-535h703v-104h-703v-299q0 -173 112 -249.5t323 -76.5q83 0 171.5 10t135.5 20l47 9v-109q-172 -34 -367 -34q-276 0 -407 106t-131 326v936q-77 0 -153 -13t-154 -46.5t-137 -83.5t-96.5 -130t-37.5 -180 q0 -76 22.5 -145.5t54.5 -114t63.5 -78t54.5 -48.5l22 -15l-65 -76q-5 3 -14.5 9.5t-36 28.5t-50.5 47.5t-53.5 67.5t-51 87.5t-36 108t-14.5 128.5zM989 1776l70 77l280 -245l-53 -64z" />
<glyph horiz-adv-x="1828" d="M113 895q0 252 187.5 405.5t494.5 153.5h903v-106h-787v-535h703v-104h-703v-299q0 -173 112 -249.5t323 -76.5q83 0 171.5 10t135.5 20l47 9v-109q-172 -34 -367 -34q-276 0 -407 106t-131 326v936q-77 0 -153 -13t-154 -46.5t-137 -83.5t-96.5 -130t-37.5 -180 q0 -76 22.5 -145.5t54.5 -114t63.5 -78t54.5 -48.5l22 -15l-65 -76q-5 3 -14.5 9.5t-36 28.5t-50.5 47.5t-53.5 67.5t-51 87.5t-36 108t-14.5 128.5zM1171 1608l279 245l70 -77l-297 -232z" />
<glyph horiz-adv-x="1828" d="M113 895q0 252 187.5 405.5t494.5 153.5h903v-106h-787v-535h703v-104h-703v-299q0 -173 112 -249.5t323 -76.5q83 0 171.5 10t135.5 20l47 9v-109q-172 -34 -367 -34q-276 0 -407 106t-131 326v936q-77 0 -153 -13t-154 -46.5t-137 -83.5t-96.5 -130t-37.5 -180 q0 -76 22.5 -145.5t54.5 -114t63.5 -78t54.5 -48.5l22 -15l-65 -76q-5 3 -14.5 9.5t-36 28.5t-50.5 47.5t-53.5 67.5t-51 87.5t-36 108t-14.5 128.5zM977 1604l270 243l271 -243l-56 -60l-215 174l-215 -174z" />
<glyph horiz-adv-x="1828" d="M113 895q0 252 187.5 405.5t494.5 153.5h903v-106h-787v-535h703v-104h-703v-299q0 -173 112 -249.5t323 -76.5q83 0 171.5 10t135.5 20l47 9v-109q-172 -34 -367 -34q-276 0 -407 106t-131 326v936q-77 0 -153 -13t-154 -46.5t-137 -83.5t-96.5 -130t-37.5 -180 q0 -76 22.5 -145.5t54.5 -114t63.5 -78t54.5 -48.5l22 -15l-65 -76q-5 3 -14.5 9.5t-36 28.5t-50.5 47.5t-53.5 67.5t-51 87.5t-36 108t-14.5 128.5zM975 1708q0 34 21 55t57 21q35 0 55 -21t20 -55q0 -37 -20 -58.5t-55 -21.5q-37 0 -57.5 21.5t-20.5 58.5zM1366 1708 q0 34 21 55t57 21q35 0 56.5 -21t21.5 -55q0 -37 -21.5 -58.5t-56.5 -21.5q-37 0 -57.5 21.5t-20.5 58.5z" />
<glyph horiz-adv-x="1101" d="M113 895q0 252 187.5 405.5t494.5 153.5h118v-1454h-118v1348q-77 0 -153 -13t-154 -46.5t-137 -83.5t-96.5 -130t-37.5 -180q0 -76 22.5 -145.5t54.5 -114t63.5 -78t54.5 -48.5l22 -15l-65 -76q-5 3 -14.5 9.5t-36 28.5t-50.5 47.5t-53.5 67.5t-51 87.5t-36 108 t-14.5 128.5zM545 1776l69 77l279 -245l-51 -64z" />
<glyph horiz-adv-x="1101" d="M113 895q0 252 187.5 405.5t494.5 153.5h118v-1454h-118v1348q-77 0 -153 -13t-154 -46.5t-137 -83.5t-96.5 -130t-37.5 -180q0 -76 22.5 -145.5t54.5 -114t63.5 -78t54.5 -48.5l22 -15l-65 -76q-5 3 -14.5 9.5t-36 28.5t-50.5 47.5t-53.5 67.5t-51 87.5t-36 108 t-14.5 128.5zM743 1608l281 245l68 -77l-295 -232z" />
<glyph horiz-adv-x="1101" d="M113 895q0 252 187.5 405.5t494.5 153.5h118v-1454h-118v1348q-77 0 -153 -13t-154 -46.5t-137 -83.5t-96.5 -130t-37.5 -180q0 -76 22.5 -145.5t54.5 -114t63.5 -78t54.5 -48.5l22 -15l-65 -76q-5 3 -14.5 9.5t-36 28.5t-50.5 47.5t-53.5 67.5t-51 87.5t-36 108 t-14.5 128.5zM520 1604l271 243l270 -243l-55 -60l-215 174l-216 -174z" />
<glyph horiz-adv-x="1101" d="M113 895q0 252 187.5 405.5t494.5 153.5h118v-1454h-118v1348q-77 0 -153 -13t-154 -46.5t-137 -83.5t-96.5 -130t-37.5 -180q0 -76 22.5 -145.5t54.5 -114t63.5 -78t54.5 -48.5l22 -15l-65 -76q-5 3 -14.5 9.5t-36 28.5t-50.5 47.5t-53.5 67.5t-51 87.5t-36 108 t-14.5 128.5zM518 1708q0 34 20 55t56 21q35 0 56.5 -21t21.5 -55q0 -37 -21.5 -58.5t-56.5 -21.5q-36 0 -56 21.5t-20 58.5zM907 1708q0 34 21 55t57 21q35 0 56.5 -21t21.5 -55q0 -37 -21.5 -58.5t-56.5 -21.5q-37 0 -57.5 21.5t-20.5 58.5z" />
<glyph horiz-adv-x="1101" d="M113 895q0 252 187.5 405.5t494.5 153.5h118v-1454h-118v1348q-77 0 -153 -13t-154 -46.5t-137 -83.5t-96.5 -130t-37.5 -180q0 -76 22.5 -145.5t54.5 -114t63.5 -78t54.5 -48.5l22 -15l-65 -76q-5 3 -14.5 9.5t-36 28.5t-50.5 47.5t-53.5 67.5t-51 87.5t-36 108 t-14.5 128.5zM764 1751q0 39 22.5 62.5t63.5 23.5t64.5 -23.5t23.5 -62.5q0 -40 -23.5 -64t-64.5 -24t-63.5 24t-22.5 64z" />
<glyph horiz-adv-x="2041" d="M113 895q0 252 187.5 405.5t494.5 153.5h168l786 -1311l-4 113v1198h117v-1454h-158l-799 1327l6 -117v-1210h-116v1348q-79 0 -155.5 -13t-154.5 -46.5t-136.5 -83.5t-95 -130t-36.5 -180q0 -76 22.5 -145.5t54.5 -114t63.5 -78t54.5 -48.5l22 -15l-65 -76 q-5 3 -14.5 9.5t-36 28.5t-50.5 47.5t-53.5 67.5t-51 87.5t-36 108t-14.5 128.5zM1051 1651q1 6 3.5 16.5t15 37.5t29.5 47t49 37t71 17q37 0 72 -15.5t57.5 -34.5t50.5 -34.5t53 -15.5q34 0 58 25t31 50l7 25l74 -37q-1 -6 -4 -17t-15.5 -38t-29.5 -47.5t-48.5 -37.5 t-70.5 -17q-45 0 -87 25t-78.5 50t-67.5 25q-34 0 -58 -25t-31 -50l-8 -25z" />
<glyph horiz-adv-x="1398" d="M121 733q0 163 33.5 305t107 256.5t180.5 171.5l50 -63q-126 -86 -190 -267t-64 -407q0 -67 3.5 -123t15 -125t31 -122.5t55 -107t82.5 -88.5t117 -57t156 -22t155.5 21.5t117 57t82.5 88t55 106.5t32 121.5t15.5 124t3.5 122.5q0 645 -328 645q-119 0 -187.5 -83.5 t-68.5 -225.5q0 -235 205 -377l-61 -74q-121 73 -186.5 194.5t-65.5 258.5q0 181 98.5 296.5t268.5 115.5q85 0 154.5 -29.5t115 -75.5t79 -114t51.5 -132t28.5 -143t13 -134.5t2.5 -117.5q0 -749 -580 -749q-100 0 -182.5 22.5t-141.5 61t-104 95.5t-73 120.5t-45.5 141.5 t-24 152.5t-6.5 159.5zM422 1776l70 77l278 -245l-51 -64z" />
<glyph horiz-adv-x="1398" d="M121 733q0 163 33.5 305t107 256.5t180.5 171.5l50 -63q-126 -86 -190 -267t-64 -407q0 -67 3.5 -123t15 -125t31 -122.5t55 -107t82.5 -88.5t117 -57t156 -22t155.5 21.5t117 57t82.5 88t55 106.5t32 121.5t15.5 124t3.5 122.5q0 645 -328 645q-119 0 -187.5 -83.5 t-68.5 -225.5q0 -235 205 -377l-61 -74q-121 73 -186.5 194.5t-65.5 258.5q0 181 98.5 296.5t268.5 115.5q85 0 154.5 -29.5t115 -75.5t79 -114t51.5 -132t28.5 -143t13 -134.5t2.5 -117.5q0 -749 -580 -749q-100 0 -182.5 22.5t-141.5 61t-104 95.5t-73 120.5t-45.5 141.5 t-24 152.5t-6.5 159.5zM625 1628l280 244l68 -78l-295 -231z" />
<glyph horiz-adv-x="1398" d="M121 733q0 163 33.5 305t107 256.5t180.5 171.5l50 -63q-126 -86 -190 -267t-64 -407q0 -67 3.5 -123t15 -125t31 -122.5t55 -107t82.5 -88.5t117 -57t156 -22t155.5 21.5t117 57t82.5 88t55 106.5t32 121.5t15.5 124t3.5 122.5q0 645 -328 645q-119 0 -187.5 -83.5 t-68.5 -225.5q0 -235 205 -377l-61 -74q-121 73 -186.5 194.5t-65.5 258.5q0 181 98.5 296.5t268.5 115.5q85 0 154.5 -29.5t115 -75.5t79 -114t51.5 -132t28.5 -143t13 -134.5t2.5 -117.5q0 -749 -580 -749q-100 0 -182.5 22.5t-141.5 61t-104 95.5t-73 120.5t-45.5 141.5 t-24 152.5t-6.5 159.5zM434 1634l271 244l270 -244l-55 -59l-215 174l-216 -174z" />
<glyph horiz-adv-x="1398" d="M121 733q0 163 33.5 305t107 256.5t180.5 171.5l50 -63q-126 -86 -190 -267t-64 -407q0 -67 3.5 -123t15 -125t31 -122.5t55 -107t82.5 -88.5t117 -57t156 -22t155.5 21.5t117 57t82.5 88t55 106.5t32 121.5t15.5 124t3.5 122.5q0 645 -328 645q-119 0 -187.5 -83.5 t-68.5 -225.5q0 -235 205 -377l-61 -74q-121 73 -186.5 194.5t-65.5 258.5q0 181 98.5 296.5t268.5 115.5q85 0 154.5 -29.5t115 -75.5t79 -114t51.5 -132t28.5 -143t13 -134.5t2.5 -117.5q0 -749 -580 -749q-100 0 -182.5 22.5t-141.5 61t-104 95.5t-73 120.5t-45.5 141.5 t-24 152.5t-6.5 159.5zM410 1651q1 6 4 16.5t15.5 37.5t29.5 47t48.5 37t70.5 17q37 0 72 -15.5t57.5 -34.5t50.5 -34.5t53 -15.5q34 0 58 25t31 50l7 25l72 -37q-1 -6 -4 -17t-15.5 -38t-29 -47.5t-48 -37.5t-69.5 -17q-45 0 -87 25t-78.5 50t-67.5 25q-34 0 -58 -25 t-32 -50l-7 -25z" />
<glyph horiz-adv-x="1398" d="M121 733q0 163 33.5 305t107 256.5t180.5 171.5l50 -63q-126 -86 -190 -267t-64 -407q0 -67 3.5 -123t15 -125t31 -122.5t55 -107t82.5 -88.5t117 -57t156 -22t155.5 21.5t117 57t82.5 88t55 106.5t32 121.5t15.5 124t3.5 122.5q0 645 -328 645q-119 0 -187.5 -83.5 t-68.5 -225.5q0 -235 205 -377l-61 -74q-121 73 -186.5 194.5t-65.5 258.5q0 181 98.5 296.5t268.5 115.5q85 0 154.5 -29.5t115 -75.5t79 -114t51.5 -132t28.5 -143t13 -134.5t2.5 -117.5q0 -749 -580 -749q-100 0 -182.5 22.5t-141.5 61t-104 95.5t-73 120.5t-45.5 141.5 t-24 152.5t-6.5 159.5zM418 1708q0 34 20 55t56 21t56.5 -21t20.5 -55q0 -37 -20.5 -58.5t-56.5 -21.5t-56 21.5t-20 58.5zM807 1708q0 34 21 55t57 21t57 -21t21 -55q0 -37 -20.5 -58.5t-57.5 -21.5t-57.5 21.5t-20.5 58.5z" />
<glyph horiz-adv-x="1398" d="M121 733q0 163 33.5 305t107 256.5t180.5 171.5l50 -63q-126 -86 -190 -267t-64 -407q0 -69 3.5 -125.5t15.5 -125.5t32 -123.5t56 -107t85 -87.5l444 1206q-28 4 -43 4q-119 0 -187.5 -83.5t-68.5 -225.5q0 -36 3.5 -67.5t6.5 -45.5l3 -14l-99 -29q-22 64 -22 158 q0 181 98.5 296.5t268.5 115.5q21 0 77 -9l56 148l94 -35l-53 -143q270 -132 270 -707q0 -749 -580 -749q-111 0 -213 30l-69 -188l-97 37l72 194q-270 161 -270 680zM522 111q83 -27 176 -27q86 0 155.5 21.5t117 57t82.5 88t55 106.5t32 121.5t15.5 124t3.5 122.5 q0 488 -188 606z" />
<glyph horiz-adv-x="1228" d="M125 397q0 68 15.5 126.5t30.5 82.5l15 25l95 -41q-5 -8 -12.5 -23t-20 -63.5t-12.5 -100.5q0 -157 102.5 -238t265.5 -81q168 0 277.5 82.5t109.5 228.5q0 46 -13 85.5t-32 68t-52.5 54.5t-62 42.5t-74.5 33.5t-76 26t-79 22q-205 54 -303 142.5t-98 250.5 q0 77 26 138.5t70.5 101.5t106 66.5t129 37.5t143.5 11q96 0 184.5 -17t129.5 -34l40 -17l-35 -96q-13 7 -37.5 16.5t-108 26t-175.5 16.5q-359 0 -359 -246q0 -65 23 -113t71.5 -81t102.5 -54t137 -42q75 -19 132.5 -40t121.5 -57t106 -80t69.5 -110.5t27.5 -147.5 q0 -184 -126 -294.5t-329 -122.5l-26 -107q36 4 55 4q81 0 137.5 -38.5t56.5 -119.5q0 -77 -54 -122t-167 -45q-53 0 -100 10t-67 20l-21 10l20 82q74 -41 156 -41q129 0 129 89q0 90 -129 90q-75 0 -131 -21l47 189q-196 11 -314 118.5t-118 296.5z" />
<glyph horiz-adv-x="2041" d="M113 895q0 252 187.5 405.5t494.5 153.5h118v-905q0 -88 13 -158t34.5 -118t55 -83t67.5 -55t79 -32t84 -15.5t87 -3.5t87 3.5t84.5 15.5t79.5 32t67.5 55t55.5 83t35 118t13 158v905h117v-899q0 -158 -35 -270t-106 -178.5t-168 -96.5t-230 -30t-230 30t-167.5 96.5 t-105.5 178.5t-35 270v793q-79 0 -155.5 -13t-154.5 -46.5t-136.5 -83.5t-95 -130t-36.5 -180q0 -76 22.5 -145.5t54.5 -114t63.5 -78t54.5 -48.5l22 -15l-65 -76q-5 3 -14.5 9.5t-36 28.5t-50.5 47.5t-53.5 67.5t-51 87.5t-36 108t-14.5 128.5zM1057 1776l69 77l281 -245 l-53 -64z" />
<glyph horiz-adv-x="2041" d="M113 895q0 252 187.5 405.5t494.5 153.5h118v-905q0 -88 13 -158t34.5 -118t55 -83t67.5 -55t79 -32t84 -15.5t87 -3.5t87 3.5t84.5 15.5t79.5 32t67.5 55t55.5 83t35 118t13 158v905h117v-899q0 -158 -35 -270t-106 -178.5t-168 -96.5t-230 -30t-230 30t-167.5 96.5 t-105.5 178.5t-35 270v793q-79 0 -155.5 -13t-154.5 -46.5t-136.5 -83.5t-95 -130t-36.5 -180q0 -76 22.5 -145.5t54.5 -114t63.5 -78t54.5 -48.5l22 -15l-65 -76q-5 3 -14.5 9.5t-36 28.5t-50.5 47.5t-53.5 67.5t-51 87.5t-36 108t-14.5 128.5zM1260 1608l278 245l70 -77 l-297 -232z" />
<glyph horiz-adv-x="2041" d="M113 895q0 252 187.5 405.5t494.5 153.5h118v-905q0 -88 13 -158t34.5 -118t55 -83t67.5 -55t79 -32t84 -15.5t87 -3.5t87 3.5t84.5 15.5t79.5 32t67.5 55t55.5 83t35 118t13 158v905h117v-899q0 -158 -35 -270t-106 -178.5t-168 -96.5t-230 -30t-230 30t-167.5 96.5 t-105.5 178.5t-35 270v793q-79 0 -155.5 -13t-154.5 -46.5t-136.5 -83.5t-95 -130t-36.5 -180q0 -76 22.5 -145.5t54.5 -114t63.5 -78t54.5 -48.5l22 -15l-65 -76q-5 3 -14.5 9.5t-36 28.5t-50.5 47.5t-53.5 67.5t-51 87.5t-36 108t-14.5 128.5zM1061 1604l270 243l271 -243 l-56 -60l-215 174l-215 -174z" />
<glyph horiz-adv-x="2041" d="M113 895q0 252 187.5 405.5t494.5 153.5h118v-905q0 -88 13 -158t34.5 -118t55 -83t67.5 -55t79 -32t84 -15.5t87 -3.5t87 3.5t84.5 15.5t79.5 32t67.5 55t55.5 83t35 118t13 158v905h117v-899q0 -158 -35 -270t-106 -178.5t-168 -96.5t-230 -30t-230 30t-167.5 96.5 t-105.5 178.5t-35 270v793q-79 0 -155.5 -13t-154.5 -46.5t-136.5 -83.5t-95 -130t-36.5 -180q0 -76 22.5 -145.5t54.5 -114t63.5 -78t54.5 -48.5l22 -15l-65 -76q-5 3 -14.5 9.5t-36 28.5t-50.5 47.5t-53.5 67.5t-51 87.5t-36 108t-14.5 128.5zM1049 1708q0 34 20.5 55 t56.5 21t57 -21t21 -55q0 -37 -20.5 -58.5t-57.5 -21.5q-36 0 -56.5 21.5t-20.5 58.5zM1442 1708q0 34 20 55t56 21t56.5 -21t20.5 -55q0 -37 -20.5 -58.5t-56.5 -21.5t-56 21.5t-20 58.5z" />
<glyph horiz-adv-x="1822" d="M113 905q0 243 165.5 396t432.5 153h24l449 -733l450 733h129l-522 -848v-606h-117v612l-456 734q-65 -4 -127 -21t-121.5 -51.5t-104 -83.5t-71.5 -121.5t-27 -159.5q0 -60 12 -115t31.5 -95.5t43.5 -75.5t47.5 -58t43 -39.5t31.5 -23.5l12 -8l-65 -76q-11 6 -28.5 18 t-62 56t-79 95.5t-62.5 137t-28 180.5zM1100 1608l280 245l68 -77l-295 -232z" />
<glyph horiz-adv-x="1927" d="M106 -121l41 88q8 -6 22.5 -15.5t64 -25.5t104.5 -16q65 0 118 21t94 57.5t79.5 98.5t68.5 130.5t66 167.5l358 981q-55 4 -82 4q-187 0 -329.5 -50t-228 -157t-85.5 -260q0 -62 13.5 -119t33 -94.5t38.5 -66t32 -41.5l14 -13l-75 -65q-7 6 -17.5 17t-38.5 49.5 t-49.5 81.5t-39 111.5t-17.5 141.5q0 93 28 176.5t88 156t147.5 125t213.5 82.5t279 30q65 0 137 -5.5t112 -10.5l39 -5l525 -1454h-125l-168 471h-647l-37 -102q-29 -79 -51.5 -136t-53 -120t-60.5 -106t-69 -84.5t-82 -66t-97.5 -39t-117.5 -14.5q-46 0 -88 8t-69.5 19 t-48.5 22t-30 19zM956 578h572l-285 798z" />
<glyph horiz-adv-x="1912" d="M113 874q0 103 35 191t112.5 164.5t193 130.5t286.5 84.5t384 30.5q120 0 210.5 -10t170 -35.5t130.5 -67.5t79.5 -109t28.5 -157q0 -275 -268 -346q329 -75 329 -412q0 -230 -161 -337t-486 -107q-131 0 -250.5 17.5t-196 43t-135 51t-84.5 42.5l-26 18l47 92 q13 -9 37.5 -24t97.5 -46.5t144 -46.5v1307q-120 -17 -220 -52.5t-181.5 -92t-127 -141.5t-45.5 -190q0 -73 22.5 -139t54.5 -108t63.5 -73t54.5 -44l22 -14l-65 -76q-10 6 -27.5 17t-61.5 52t-78 89t-61.5 128.5t-27.5 169.5zM909 16q114 -18 248 -18q262 0 395.5 81 t133.5 273q0 340 -461 340h-316v-676zM909 795h303q211 0 311.5 67.5t100.5 220.5q0 70 -21 120.5t-58.5 82.5t-100 51t-136 26t-175.5 7q-122 0 -224 -12v-563z" />
<glyph horiz-adv-x="1384" d="M121 635q0 133 21 252t70 228t123 188t186.5 125.5t252.5 46.5q116 0 206.5 -31t143.5 -84t80 -117t27 -135q0 -123 -75.5 -228t-211.5 -173l-55 84q110 56 168.5 139t58.5 174q0 51 -18.5 96.5t-56.5 84.5t-107 62t-160 23q-96 0 -174.5 -26t-133 -69t-96 -104.5 t-65.5 -125.5t-39.5 -140t-20.5 -140.5t-5 -133.5q0 -62 4 -119t18 -131.5t37 -137t64.5 -126t97 -107t138.5 -71t185 -27.5q72 0 142 13t119 31.5t88 37.5t58 32l19 13l47 -88q-8 -6 -22.5 -15.5t-63 -34.5t-101 -44t-133 -34.5t-161.5 -15.5q-125 0 -227 33.5t-172 93.5 t-121 137.5t-80 173t-42 191t-13 199.5z" />
<glyph horiz-adv-x="1986" d="M113 874q0 103 35 191t112.5 164.5t193 130.5t286.5 84.5t384 30.5q90 0 163.5 -7.5t152 -29.5t139.5 -58t116.5 -96.5t91.5 -142t57.5 -197.5t21.5 -260q0 -110 -13 -205t-42.5 -186t-81.5 -162t-125 -125t-179 -83t-237 -29q-124 0 -243.5 16.5t-201.5 40t-146 47.5 t-95 40l-31 17l43 95q123 -72 277 -107v1305q-95 -14 -177.5 -38.5t-156.5 -64.5t-126.5 -92t-83 -124t-30.5 -157q0 -73 22.5 -139t54.5 -108t63.5 -73t54.5 -44l22 -14l-65 -76q-10 6 -27.5 17t-61.5 52t-78 89t-61.5 128.5t-27.5 169.5zM909 20q1 0 18.5 -3t40 -6 t55.5 -6t78.5 -5t94.5 -2q65 0 120.5 8t113.5 28.5t104 53.5t87 87t68.5 125t43.5 170t16 220q0 162 -28 281t-78.5 195t-130 122t-171.5 64t-215 18q-119 0 -217 -10v-1340z" />
<glyph horiz-adv-x="1835" d="M113 895q0 252 187.5 405.5t494.5 153.5h903v-106h-785v-582h701v-107h-701v-290q0 -102 24.5 -178t63.5 -121t99 -72t120.5 -36t137.5 -9q99 0 199.5 22t150.5 44l51 22l45 -88q-8 -4 -22.5 -11.5t-62 -26.5t-97 -33t-123 -26t-145.5 -12q-559 0 -559 525v979 q-77 0 -153 -13t-154 -46.5t-137 -83.5t-96.5 -130t-37.5 -180q0 -76 22.5 -145.5t54.5 -114t63.5 -78t54.5 -48.5l22 -15l-65 -76q-5 3 -14.5 9.5t-36 28.5t-50.5 47.5t-53.5 67.5t-51 87.5t-36 108t-14.5 128.5z" />
<glyph horiz-adv-x="1779" d="M113 895q0 252 187.5 405.5t494.5 153.5h895v-106h-777v-566h693v-106h-693v-297q0 -576 -462 -576q-74 0 -140.5 16t-96.5 32l-30 16l33 94q9 -6 26.5 -14.5t76 -22.5t122.5 -14q190 0 271.5 116.5t81.5 354.5v967q-77 0 -153 -13t-154 -46.5t-137 -83.5t-96.5 -130 t-37.5 -180q0 -76 22.5 -145.5t54.5 -114t63.5 -78t54.5 -48.5l22 -15l-65 -76q-5 3 -14.5 9.5t-36 28.5t-50.5 47.5t-53.5 67.5t-51 87.5t-36 108t-14.5 128.5z" />
<glyph horiz-adv-x="1327" d="M121 707q0 124 21.5 234.5t70 209.5t120.5 170t180.5 112.5t242.5 41.5q111 0 196.5 -27.5t136 -75t76 -105t25.5 -122.5q0 -43 -11 -84.5t-25.5 -70.5t-32 -53.5t-28 -35.5t-14.5 -14l-80 55l7 10q8 11 19 29.5t22 42t18.5 55t7.5 62.5q0 45 -16.5 84t-51.5 72.5t-99 53 t-150 19.5q-92 0 -168 -23.5t-129 -62.5t-93 -94t-64 -113t-39 -126t-20 -125.5t-5 -118.5q0 -53 4 -102t17 -111.5t33.5 -114.5t58 -104t86.5 -88t122 -58.5t162 -22.5q163 0 311 68v440h115v-610q0 -212 -136.5 -335.5t-365.5 -123.5q-72 0 -139.5 12.5t-113 29.5 t-80.5 34.5t-52 30.5l-16 12l49 90q5 -4 15 -11t44 -25t71.5 -32t97.5 -25t122 -11q179 0 284 89t105 263v61q-134 -63 -317 -63q-134 0 -238.5 40.5t-170 107t-108.5 160t-60 191t-17 208.5z" />
<glyph horiz-adv-x="2033" d="M113 895q0 252 187.5 405.5t494.5 153.5h118v-647h822v647h118v-1454h-118v700h-822v-321q0 -576 -462 -576q-75 0 -141.5 16t-95.5 32l-30 16l33 94q9 -6 26.5 -14.5t76 -22.5t122.5 -14q190 0 271.5 116.5t81.5 354.5v967q-77 0 -153 -13t-154 -46.5t-137 -83.5 t-96.5 -130t-37.5 -180q0 -76 22.5 -145.5t54.5 -114t63.5 -78t54.5 -48.5l22 -15l-65 -76q-5 3 -14.5 9.5t-36 28.5t-50.5 47.5t-53.5 67.5t-51 87.5t-36 108t-14.5 128.5z" />
<glyph horiz-adv-x="1095" d="M113 942q0 243 182 377.5t496 134.5h116v-1079q0 -187 -100.5 -291t-274.5 -104q-54 0 -107.5 9.5t-80.5 18.5l-27 10l31 101q73 -35 182 -35q132 0 196.5 80.5t64.5 210.5v973q-66 0 -127 -7t-128.5 -23t-122.5 -46.5t-100.5 -73.5t-70.5 -108.5t-25 -147.5 q0 -61 14.5 -117.5t35.5 -93t41.5 -64.5t35.5 -41l14 -12l-71 -65q-7 5 -19 15.5t-42 47.5t-52.5 78.5t-41.5 110t-19 141.5z" />
<glyph horiz-adv-x="1220" d="M98 -14q0 55 10.5 106t26 84t30.5 58.5t25 37.5l11 11l88 -45l-5 -6q-4 -5 -11.5 -15.5t-16 -25.5t-17 -35.5t-16 -44t-12 -54.5t-4.5 -63q0 -162 98.5 -252t239.5 -90q75 0 142 27t120 78.5t84 135t31 189.5v1266q-81 0 -156 -11t-153.5 -41t-136 -76t-94 -123 t-36.5 -175q0 -77 22 -145t54 -110.5t63.5 -73.5t53.5 -45l22 -13l-63 -76q-10 6 -27.5 17t-62 52t-78.5 89.5t-62 130t-28 172.5q0 246 183 390t492 144h125v-1370q0 -107 -27 -197t-73.5 -152.5t-109.5 -106t-134 -63.5t-147 -20q-93 0 -174.5 29.5t-143 84.5t-97.5 139.5 t-36 187.5z" />
<glyph horiz-adv-x="1802" d="M113 895q0 252 187.5 405.5t494.5 153.5h118v-729l691 729h147l-702 -743l546 -607q59 -65 87.5 -95.5t86 -89t94 -88t93 -70.5t102 -61t102.5 -35t113 -15q57 0 107.5 9t71.5 19l22 9l25 -97q-10 -5 -28.5 -12.5t-80 -20t-129.5 -12.5q-73 0 -141.5 16t-134 50.5 t-122.5 73.5t-123.5 102t-118.5 117.5t-126 136.5l-582 649v-690h-118v1348q-77 0 -153 -13t-154 -46.5t-137 -83.5t-96.5 -130t-37.5 -180q0 -76 22.5 -145.5t54.5 -114t63.5 -78t54.5 -48.5l22 -15l-65 -76q-5 3 -14.5 9.5t-36 28.5t-50.5 47.5t-53.5 67.5t-51 87.5 t-36 108t-14.5 128.5z" />
<glyph horiz-adv-x="1720" d="M113 895q0 252 187.5 405.5t494.5 153.5h118v-1126q0 -111 27 -187t80 -116.5t117 -57t151 -16.5q68 0 129.5 9t100.5 22t68 26t42 22l12 9l46 -88q-5 -4 -16 -11.5t-48.5 -26t-80 -32.5t-112 -25.5t-143.5 -11.5q-491 0 -491 484v1020q-77 0 -153 -13t-154 -46.5 t-137 -83.5t-96.5 -130t-37.5 -180q0 -76 22.5 -145.5t54.5 -114t63.5 -78t54.5 -48.5l22 -15l-65 -76q-5 3 -14.5 9.5t-36 28.5t-50.5 47.5t-53.5 67.5t-51 87.5t-36 108t-14.5 128.5z" />
<glyph horiz-adv-x="2283" d="M117 895q0 252 188 405.5t494 153.5h188l449 -1085l448 1085h156l123 -1454h-117l-100 1188l-7 125l-45 -125l-391 -942h-135l-391 942l-41 110l-76 -919q-24 -297 -131 -436.5t-332 -139.5q-74 0 -140.5 16t-96.5 32l-29 16l33 94q9 -6 26.5 -14.5t76 -22.5t122.5 -14 q96 0 161.5 30t104 94.5t57.5 145.5t29 203l80 965h-22q-79 0 -155 -13t-153.5 -46.5t-136 -83.5t-95 -130t-36.5 -180q0 -76 22 -145.5t53.5 -114t63.5 -78t54 -48.5l22 -15l-65 -76q-5 3 -14.5 9.5t-36 28.5t-50.5 47.5t-53.5 67.5t-51 87.5t-36 108t-14.5 128.5z" />
<glyph horiz-adv-x="2041" d="M113 895q0 252 187.5 405.5t494.5 153.5h166l788 -1311l-4 113v1198h117v-1454h-158l-799 1325l6 -115v-831q0 -576 -460 -576q-75 0 -141.5 16t-95.5 32l-30 16l33 94q9 -6 26.5 -14.5t76 -22.5t122.5 -14q190 0 271.5 116.5t81.5 352.5v969q-77 0 -153 -13t-154 -46.5 t-137 -83.5t-96.5 -130t-37.5 -180q0 -76 22.5 -145.5t54.5 -114t63.5 -78t54.5 -48.5l22 -15l-65 -76q-5 3 -14.5 9.5t-36 28.5t-50.5 47.5t-53.5 67.5t-51 87.5t-36 108t-14.5 128.5z" />
<glyph horiz-adv-x="1925" d="M113 1001q0 69 14 133t36 110t49 86t54 66t49 44.5t36 26.5l14 8l61 -78q-8 -4 -22.5 -13t-50.5 -43.5t-63.5 -76t-50 -113.5t-22.5 -154q0 -200 121 -316t317 -134q-8 79 -8 180q0 748 580 748q577 0 577 -748q0 -747 -577 -747q-459 0 -555 464q-135 7 -243 53.5 t-176 122.5t-104 173.5t-36 207.5zM766 727q0 -99 8 -180q121 8 223 50t173 108t120 152.5t72.5 182.5t23.5 199q0 57 -8 111q-72 20 -151 20q-86 0 -156 -21.5t-117.5 -57t-82.5 -88.5t-54.5 -106.5t-31.5 -122t-15.5 -124.5t-3.5 -123zM791 446q76 -362 436 -362 q86 0 155.5 21.5t117 57t82.5 88.5t55 106.5t32 121.5t15.5 124.5t3.5 123.5q0 88 -7 161t-27 155t-63 148.5t-106 108.5q6 -35 6 -77q0 -105 -24.5 -207.5t-79.5 -201.5t-134.5 -176t-198.5 -129t-263 -63z" />
<glyph horiz-adv-x="1867" d="M113 874q0 128 60 235.5t179 190t314 129t448 46.5q127 0 225.5 -13.5t183 -46t139.5 -84.5t85.5 -131.5t30.5 -185.5q0 -477 -598 -477q-58 0 -162 5t-109 5v-168q0 -576 -463 -576q-74 0 -140 16t-95 32l-29 16l33 94q9 -6 26.5 -14.5t76 -22.5t122.5 -14 q190 0 270.5 116.5t80.5 354.5v967q-91 -13 -172.5 -37t-156 -64.5t-128 -93t-85.5 -124.5t-32 -157q0 -73 22.5 -139t54.5 -108t63.5 -73t54.5 -44l22 -14l-65 -76q-10 6 -27.5 17t-61.5 52t-78 89t-61.5 128.5t-27.5 169.5zM909 651q108 -8 256 -8q254 0 374 87t120 284 q0 108 -37 179.5t-111.5 109.5t-165.5 52.5t-221 14.5q-97 0 -215 -8v-711z" />
<glyph horiz-adv-x="1396" d="M133 801q0 102 17 194.5t58.5 181.5t104.5 154t164 104.5t228 39.5q571 0 571 -750q0 -646 -432 -731q59 -43 90.5 -65.5t96 -65t110.5 -66.5t116 -56t132 -49t139.5 -29.5t154.5 -12.5q137 0 306 45l16 -98q-185 -52 -344 -52q-95 0 -188.5 17t-165.5 40t-151.5 65.5 t-128.5 73t-116.5 85t-95.5 80l-84 76.5q-12 -2 -43 -2q-170 0 -276 71l24 103q18 4 49 4q101 0 226 -74q83 2 150.5 25t113.5 58.5t80 88t53 105t30.5 119.5t15 122t3.5 121q0 67 -3.5 123.5t-15 125t-31 122.5t-53.5 107.5t-80.5 89t-115 57.5t-153.5 22 q-102 0 -182 -32.5t-130.5 -86.5t-83.5 -129.5t-46 -155t-13 -169.5q0 -226 88 -432l-100 -39q-4 7 -11 21t-25.5 60.5t-32 98t-25 132t-11.5 163.5z" />
<glyph horiz-adv-x="1937" d="M113 874q0 103 34.5 191t112 164.5t193.5 130.5t287.5 84.5t385.5 30.5q174 0 292.5 -20.5t201 -69t120.5 -130.5t38 -204q0 -172 -89.5 -276.5t-285.5 -137.5l330 -522q46 -74 88.5 -132t103 -123.5t121 -108.5t139 -72t160.5 -29q56 0 109 9t78 19l26 9l25 -97 q-11 -5 -31.5 -12.5t-85.5 -20t-133 -12.5q-110 0 -208 35t-183.5 104t-159 157.5t-148.5 209.5l-354 574q-46 -4 -90 -4q-66 0 -281 10v-631h-118v1348q-120 -17 -220 -52.5t-181.5 -92t-127 -141.5t-45.5 -190q0 -73 22.5 -139t54.5 -108t63.5 -73t54.5 -44l22 -14 l-65 -76q-10 6 -27.5 17t-61.5 52t-78 89t-61.5 128.5t-27.5 169.5zM909 733q116 -8 271 -8q257 0 368 71t111 251q0 79 -21.5 136t-60 93.5t-102.5 57t-137.5 28.5t-176.5 8q-142 0 -252 -12v-625z" />
<glyph horiz-adv-x="1380" d="M147 57q0 52 9 103t21.5 86.5t25 63.5t21.5 42l9 13l99 -39q-8 -12 -20 -34.5t-32 -93t-20 -141.5q0 -190 125 -293.5t317 -103.5q109 0 195 35.5t138 95t79 132t27 151.5q0 62 -16 115.5t-47.5 96.5t-68.5 79t-88.5 69t-98.5 59.5t-106 57.5q-11 5 -16 8q-52 28 -83 45 t-78 45.5t-76 51.5t-65 55t-57.5 64t-42 71t-29.5 84.5t-9 95.5q0 88 30.5 158.5t81 115.5t120 75t142 42.5t152.5 12.5q95 0 187 -17t137 -34l45 -17l-37 -96q-17 6 -46.5 15.5t-116.5 25.5t-169 16q-90 0 -164.5 -18t-130.5 -53.5t-87 -93t-31 -132.5q0 -44 12 -84t29 -71 t50 -63.5t60 -54.5t74.5 -51t79 -46t86.5 -46q183 -95 261 -153q186 -136 221 -325q9 -48 9 -101q0 -81 -21 -156.5t-65.5 -142t-109 -116t-158 -78.5t-205.5 -29q-138 0 -245.5 41.5t-172.5 113t-98 160t-33 188.5z" />
<glyph horiz-adv-x="1560" d="M113 903q0 256 170 403.5t481 147.5h727v-106h-500v-969q0 -576 -461 -576q-75 0 -141.5 16t-95.5 32l-29 16l33 94q9 -6 26.5 -14.5t76 -22.5t122.5 -14q190 0 271 116.5t81 354.5v967h-116q-80 0 -153 -12.5t-145 -44.5t-124 -81t-84.5 -127.5t-32.5 -179.5 q0 -76 22 -146.5t53.5 -116.5t63.5 -81t54 -51l22 -16l-65 -76q-10 7 -27.5 19.5t-61.5 58.5t-78 98t-61.5 136t-27.5 175z" />
<glyph horiz-adv-x="2041" d="M113 895q0 252 187.5 405.5t494.5 153.5h118v-905q0 -88 13 -158t34.5 -118t55 -83t67.5 -55t79 -32t84 -15.5t87 -3.5t87 3.5t84.5 15.5t79.5 32t67.5 55t55.5 83t35 118t13 158v690q0 63 -11.5 116t-30.5 87.5t-42 62t-45.5 42.5t-41.5 24.5t-30 12.5l-12 3l43 90 q6 -1 16.5 -4t40 -16t57 -31.5t60.5 -53.5t56.5 -78.5t40 -110t16.5 -144.5v-684q0 -158 -35 -270t-106 -178.5t-168 -96.5t-230 -30t-230 30t-167.5 96.5t-105.5 178.5t-35 270v793q-77 0 -153 -13t-154 -46.5t-137 -83.5t-96.5 -130t-37.5 -180q0 -76 22.5 -145.5 t54.5 -114t63.5 -78t54.5 -48.5l22 -15l-65 -76q-5 3 -14.5 9.5t-36 28.5t-50.5 47.5t-53.5 67.5t-51 87.5t-36 108t-14.5 128.5z" />
<glyph horiz-adv-x="1849" d="M113 905q0 244 170 396.5t450 152.5h37l479 -1384l346 944q52 142 52 227q0 49 -12.5 90t-32.5 67t-44.5 46.5t-49 31t-44.5 17.5t-32 9l-13 1l33 101q153 -32 232 -123.5t79 -229.5q0 -117 -57 -274l-363 -977h-190l-471 1346q-67 -4 -130 -20.5t-125 -51t-107.5 -82.5 t-74 -121.5t-28.5 -163.5q0 -59 12 -113.5t31.5 -95t43.5 -75.5t47.5 -58t43 -39.5t31.5 -23.5l12 -8l-65 -76q-11 6 -28.5 18.5t-62 56.5t-79 95.5t-62.5 137t-28 179.5z" />
<glyph horiz-adv-x="2600" d="M113 905q0 244 170 396.5t450 152.5h45l346 -1245l31 -129l33 131l334 1180h123l333 -1182l33 -127l313 1005q48 156 48 232q0 66 -23 117t-55.5 76.5t-65 41.5t-55.5 20l-23 3l29 100q156 -31 232.5 -122t76.5 -228q0 -103 -55 -276l-326 -1051h-184l-313 1098l-27 119 l-27 -119l-313 -1098h-184l-375 1346q-67 -4 -130.5 -20t-125.5 -50.5t-108 -83t-74.5 -122t-28.5 -163.5q0 -59 12 -113.5t31.5 -95t43.5 -75.5t47.5 -58t43 -39.5t31.5 -23.5l12 -8l-65 -76q-11 6 -28.5 18.5t-62 56.5t-79 95.5t-62.5 137t-28 179.5z" />
<glyph horiz-adv-x="1871" d="M113 905q0 244 170 396.5t450 152.5h39l451 -635l448 635h137l-512 -725l437 -614q57 -81 97 -133t106.5 -122t126 -110.5t140.5 -70t167 -29.5q50 0 98.5 9t71.5 19l24 9l25 -97q-11 -5 -30.5 -12.5t-81 -20t-124.5 -12.5q-107 0 -204 35.5t-185 106t-164 157 t-162 207.5l-417 584l-449 -635h-139l516 729l-442 619q-69 -2 -135 -17t-131 -48.5t-114 -82.5t-79.5 -124.5t-30.5 -168.5q0 -59 12 -113.5t31.5 -95t43.5 -75.5t47.5 -58t43 -39.5t31.5 -23.5l12 -8l-65 -76q-11 6 -28.5 18.5t-62 56.5t-79 95.5t-62.5 137t-28 179.5z " />
<glyph horiz-adv-x="1773" d="M113 905q0 244 165.5 396.5t440.5 152.5h35l458 -915l267 493q82 153 82 260q0 50 -18 87.5t-43.5 55.5t-51.5 29t-44 13l-18 2l29 98q14 -2 23.5 -3.5t39.5 -10.5t51.5 -20t51 -33.5t48.5 -50t32.5 -70t13.5 -93.5q0 -144 -88 -303l-317 -573v-146q0 -230 -112.5 -350.5 t-323.5 -120.5q-76 0 -144.5 16t-98.5 32l-30 16l33 94q9 -6 27 -14.5t78 -22.5t124 -14q328 0 328 362v146l-471 928q-67 -3 -130 -19t-124.5 -50.5t-107 -83t-73.5 -122t-28 -162.5q0 -60 12 -115t31.5 -95.5t43.5 -75.5t47.5 -58t43 -39.5t31.5 -23.5l12 -8l-65 -76 q-11 6 -28.5 18t-62 56t-79 95.5t-62.5 137t-28 180.5z" />
<glyph horiz-adv-x="1216" d="M113 1067q0 171 119.5 279t322.5 108h565l33 -106l-762 -1127l742 -442q213 -129 389 -129q64 0 125 13t89 25l29 13l25 -94q-11 -7 -33 -17.5t-93.5 -27.5t-147.5 -17q-210 0 -443 138l-745 444l-99 -147l-88 73l877 1295h-463q-159 0 -247.5 -78.5t-88.5 -206.5 q0 -43 11 -85t26.5 -72t30.5 -53.5t26 -35.5l11 -12l-82 -60q-5 5 -14 14.5t-31 42t-39 67.5t-31 89t-14 109z" />
<glyph horiz-adv-x="1927" d="M106 -121l41 88q8 -6 22.5 -15.5t64 -25.5t104.5 -16q65 0 118 21t94 57.5t79.5 98.5t68.5 130.5t66 167.5l358 981q-55 4 -82 4q-187 0 -329.5 -50t-228 -157t-85.5 -260q0 -62 13.5 -119t33 -94.5t38.5 -66t32 -41.5l14 -13l-75 -65q-7 6 -17.5 17t-38.5 49.5 t-49.5 81.5t-39 111.5t-17.5 141.5q0 93 28 176.5t88 156t147.5 125t213.5 82.5t279 30q65 0 137 -5.5t112 -10.5l39 -5l525 -1454h-125l-168 471h-647l-37 -102q-29 -79 -51.5 -136t-53 -120t-60.5 -106t-69 -84.5t-82 -66t-97.5 -39t-117.5 -14.5q-46 0 -88 8t-69.5 19 t-48.5 22t-30 19zM952 1776l70 77l281 -245l-54 -64zM956 578h572l-285 798z" />
<glyph horiz-adv-x="1927" d="M106 -121l41 88q8 -6 22.5 -15.5t64 -25.5t104.5 -16q65 0 118 21t94 57.5t79.5 98.5t68.5 130.5t66 167.5l358 981q-55 4 -82 4q-187 0 -329.5 -50t-228 -157t-85.5 -260q0 -62 13.5 -119t33 -94.5t38.5 -66t32 -41.5l14 -13l-75 -65q-7 6 -17.5 17t-38.5 49.5 t-49.5 81.5t-39 111.5t-17.5 141.5q0 93 28 176.5t88 156t147.5 125t213.5 82.5t279 30q65 0 137 -5.5t112 -10.5l39 -5l525 -1454h-125l-168 471h-647l-37 -102q-29 -79 -51.5 -136t-53 -120t-60.5 -106t-69 -84.5t-82 -66t-97.5 -39t-117.5 -14.5q-46 0 -88 8t-69.5 19 t-48.5 22t-30 19zM956 578h572l-285 798zM1137 1626l280 244l70 -78l-297 -231z" />
<glyph horiz-adv-x="1947" d="M106 -121l41 88q8 -6 22.5 -15.5t64 -25.5t104.5 -16q65 0 118 21t94 57.5t79.5 98.5t68.5 130.5t66 167.5l358 981q-55 4 -82 4q-187 0 -329.5 -50t-228 -157t-85.5 -260q0 -62 13.5 -119t33 -94.5t38.5 -66t32 -41.5l14 -13l-75 -65q-7 6 -17.5 17t-38.5 49.5 t-49.5 81.5t-39 111.5t-17.5 141.5q0 93 28 176.5t88 156t147.5 125t213.5 82.5t279 30q65 0 137 -5.5t112 -10.5l39 -5l525 -1454h-125l-168 471h-647l-37 -102q-29 -79 -51.5 -136t-53 -120t-60.5 -106t-69 -84.5t-82 -66t-97.5 -39t-117.5 -14.5q-46 0 -88 8t-69.5 19 t-48.5 22t-30 19zM956 578h572l-285 798zM958 1604l271 243l270 -243l-55 -60l-215 174l-215 -174z" />
<glyph horiz-adv-x="1947" d="M106 -121l41 88q8 -6 22.5 -15.5t64 -25.5t104.5 -16q65 0 118 21t94 57.5t79.5 98.5t68.5 130.5t66 167.5l358 981q-55 4 -82 4q-187 0 -329.5 -50t-228 -157t-85.5 -260q0 -62 13.5 -119t33 -94.5t38.5 -66t32 -41.5l14 -13l-75 -65q-7 6 -17.5 17t-38.5 49.5 t-49.5 81.5t-39 111.5t-17.5 141.5q0 93 28 176.5t88 156t147.5 125t213.5 82.5t279 30q65 0 137 -5.5t112 -10.5l39 -5l525 -1454h-125l-168 471h-647l-37 -102q-29 -79 -51.5 -136t-53 -120t-60.5 -106t-69 -84.5t-82 -66t-97.5 -39t-117.5 -14.5q-46 0 -88 8t-69.5 19 t-48.5 22t-30 19zM942 1651q1 6 3.5 16.5t15 37.5t29 47t48 37t70.5 17q48 0 90 -25t77 -50t66 -25q34 0 58 25t31 50l8 25l73 -37q-1 -6 -4 -17t-15.5 -38t-29.5 -47.5t-48.5 -37.5t-70.5 -17q-45 0 -87 25t-78.5 50t-67.5 25q-34 0 -58 -25t-31 -50l-7 -25zM956 578h572 l-285 798z" />
<glyph horiz-adv-x="1947" d="M106 -121l41 88q8 -6 22.5 -15.5t64 -25.5t104.5 -16q65 0 118 21t94 57.5t79.5 98.5t68.5 130.5t66 167.5l358 981q-55 4 -82 4q-187 0 -329.5 -50t-228 -157t-85.5 -260q0 -62 13.5 -119t33 -94.5t38.5 -66t32 -41.5l14 -13l-75 -65q-7 6 -17.5 17t-38.5 49.5 t-49.5 81.5t-39 111.5t-17.5 141.5q0 93 28 176.5t88 156t147.5 125t213.5 82.5t279 30q65 0 137 -5.5t112 -10.5l39 -5l525 -1454h-125l-168 471h-647l-37 -102q-29 -79 -51.5 -136t-53 -120t-60.5 -106t-69 -84.5t-82 -66t-97.5 -39t-117.5 -14.5q-46 0 -88 8t-69.5 19 t-48.5 22t-30 19zM952 1708q0 34 20 55t56 21t57 -21t21 -55q0 -37 -20.5 -58.5t-57.5 -21.5q-36 0 -56 21.5t-20 58.5zM956 578h572l-285 798zM1343 1708q0 34 20 55t56 21t57 -21t21 -55q0 -37 -20.5 -58.5t-57.5 -21.5q-36 0 -56 21.5t-20 58.5z" />
<glyph horiz-adv-x="1947" d="M106 -121l41 88q8 -6 22.5 -15.5t64 -25.5t104.5 -16q65 0 118 21t94 57.5t79.5 98.5t68.5 130.5t66 167.5l358 981q-55 4 -82 4q-187 0 -329.5 -50t-228 -157t-85.5 -260q0 -62 13.5 -119t33 -94.5t38.5 -66t32 -41.5l14 -13l-75 -65q-7 6 -17.5 17t-38.5 49.5 t-49.5 81.5t-39 111.5t-17.5 141.5q0 93 28 176.5t88 156t147.5 125t213.5 82.5t279 30q65 0 137 -5.5t112 -10.5l39 -5l525 -1454h-125l-168 471h-647l-37 -102q-29 -79 -51.5 -136t-53 -120t-60.5 -106t-69 -84.5t-82 -66t-97.5 -39t-117.5 -14.5q-46 0 -88 8t-69.5 19 t-48.5 22t-30 19zM956 578h572l-285 798zM1042 1757q0 86 55 136.5t142 50.5q88 0 143.5 -50.5t55.5 -136.5t-55.5 -135t-143.5 -49q-87 0 -142 49t-55 135zM1130 1757q0 -52 29.5 -80t79.5 -28q52 0 81.5 28t29.5 80t-30 82.5t-81 30.5q-50 0 -79.5 -30.5t-29.5 -82.5z" />
<glyph horiz-adv-x="2183" d="M113 905q0 93 28 176.5t88 156t147 125t212.5 82.5t277.5 30q67 0 139.5 -5.5t112.5 -10.5l39 -5h889v-106h-786v-582h700v-107h-700v-290q0 -102 24 -177.5t63.5 -121t98.5 -73t119 -37t135 -9.5q103 0 204.5 22.5t151.5 44.5l51 23l45 -88q-8 -4 -22 -11.5t-61 -26.5 t-97 -33t-124.5 -26t-147.5 -12q-91 0 -168.5 14t-151.5 50.5t-125.5 94.5t-82.5 151.5t-31 214.5v104h-488l-256 -473h-125l744 1362q-84 8 -154 8q-139 0 -255.5 -29t-204 -86t-136.5 -147t-49 -205q0 -62 13.5 -119t33.5 -94.5t39.5 -66t32.5 -41.5l14 -13l-78 -65 l-17 17t-38.5 49.5t-48.5 81.5t-38 111.5t-17 141.5zM711 578h430v794z" />
<glyph horiz-adv-x="1384" d="M121 635q0 133 21 252t70 228t123 188t186.5 125.5t252.5 46.5q116 0 206.5 -31t143.5 -84t80 -117t27 -135q0 -123 -75.5 -228t-211.5 -173l-55 84q110 56 168.5 139t58.5 174q0 51 -18.5 96.5t-56.5 84.5t-107 62t-160 23q-96 0 -174.5 -26t-133 -69t-96 -104.5 t-65.5 -125.5t-39.5 -140t-20.5 -140.5t-5 -133.5q0 -62 4 -119t18 -131.5t37 -137t64.5 -126t97 -107t138.5 -71t185 -27.5q72 0 142 13t119 31.5t88 37.5t58 32l19 13l47 -88q-7 -5 -20 -13.5t-57 -31.5t-91.5 -41t-120 -34.5t-145.5 -20.5l-28 -123q18 4 57 4 q80 0 135 -38t55 -118q0 -77 -54 -123.5t-167 -46.5q-53 0 -99.5 10.5t-66.5 21.5l-20 11l18 80q78 -39 158 -39q127 0 127 88t-129 88q-83 0 -131 -18l51 203q-138 7 -245.5 59t-174.5 131t-110.5 186.5t-60.5 217t-17 231.5z" />
<glyph horiz-adv-x="1327" d="M121 707q0 124 21.5 234.5t70 209.5t120.5 170t180.5 112.5t242.5 41.5q111 0 196.5 -27.5t136 -75t76 -105t25.5 -122.5q0 -43 -11 -84.5t-25.5 -70.5t-32 -53.5t-28 -35.5t-14.5 -14l-80 55l7 10q8 11 19 29.5t22 42t18.5 55t7.5 62.5q0 45 -16.5 84t-51.5 72.5t-99 53 t-150 19.5q-92 0 -168 -23.5t-129 -62.5t-93 -94t-64 -113t-39 -126t-20 -125.5t-5 -118.5q0 -53 4 -102t17 -111.5t33.5 -114.5t58 -104t86.5 -88t122 -58.5t162 -22.5q163 0 311 68v440h115v-610q0 -212 -136.5 -335.5t-365.5 -123.5q-72 0 -139.5 12.5t-113 29.5 t-80.5 34.5t-52 30.5l-16 12l49 90q5 -4 15 -11t44 -25t71.5 -32t97.5 -25t122 -11q179 0 284 89t105 263v61q-134 -63 -317 -63q-134 0 -238.5 40.5t-170 107t-108.5 160t-60 191t-17 208.5zM455 1808l75 31q1 -6 3 -17t13.5 -38t29 -48t53 -38t80.5 -17q46 0 81 16.5 t52.5 39.5t28.5 46t13 39l3 17l78 -31q-1 -9 -4 -23.5t-20.5 -52.5t-42.5 -67t-75 -52.5t-114 -23.5q-46 0 -85 12t-64.5 31.5t-45.5 42.5t-30.5 46.5t-17.5 43t-9 31.5z" />
<glyph horiz-adv-x="1986" d="M113 874q0 103 35 191t112.5 164.5t193 130.5t286.5 84.5t384 30.5q90 0 163.5 -7.5t152 -29.5t139.5 -58t116.5 -96.5t91.5 -142t57.5 -197.5t21.5 -260q0 -110 -13 -205t-42.5 -186t-81.5 -162t-125 -125t-179 -83t-237 -29q-124 0 -243.5 16.5t-201.5 40t-146 47.5 t-95 40l-31 17l43 95q123 -72 277 -107v645h-152v98h152v562q-95 -14 -177.5 -38.5t-156.5 -64.5t-126.5 -92t-83 -124t-30.5 -157q0 -73 22.5 -139t54.5 -108t63.5 -73t54.5 -44l22 -14l-65 -76q-10 6 -27.5 17t-61.5 52t-78 89t-61.5 128.5t-27.5 169.5zM909 20 q1 0 18.5 -3t40 -6t55.5 -6t78.5 -5t94.5 -2q65 0 120.5 8t113.5 28.5t104 53.5t87 87t68.5 125t43.5 170t16 220q0 162 -28 281t-78.5 195t-130 122t-171.5 64t-215 18q-119 0 -217 -10v-574h373v-98h-373v-668z" />
<glyph horiz-adv-x="1835" d="M113 895q0 252 187.5 405.5t494.5 153.5h903v-106h-785v-582h701v-107h-701v-290q0 -102 24.5 -178t63.5 -121t99 -72t120.5 -36t137.5 -9q99 0 199.5 22t150.5 44l51 22l45 -88q-8 -4 -22.5 -11.5t-62 -26.5t-97 -33t-123 -26t-145.5 -12q-559 0 -559 525v979 q-77 0 -153 -13t-154 -46.5t-137 -83.5t-96.5 -130t-37.5 -180q0 -76 22.5 -145.5t54.5 -114t63.5 -78t54.5 -48.5l22 -15l-65 -76q-5 3 -14.5 9.5t-36 28.5t-50.5 47.5t-53.5 67.5t-51 87.5t-36 108t-14.5 128.5zM979 1776l70 77l278 -245l-53 -64z" />
<glyph horiz-adv-x="1835" d="M113 895q0 252 187.5 405.5t494.5 153.5h903v-106h-785v-582h701v-107h-701v-290q0 -102 24.5 -178t63.5 -121t99 -72t120.5 -36t137.5 -9q99 0 199.5 22t150.5 44l51 22l45 -88q-8 -4 -22.5 -11.5t-62 -26.5t-97 -33t-123 -26t-145.5 -12q-559 0 -559 525v979 q-77 0 -153 -13t-154 -46.5t-137 -83.5t-96.5 -130t-37.5 -180q0 -76 22.5 -145.5t54.5 -114t63.5 -78t54.5 -48.5l22 -15l-65 -76q-5 3 -14.5 9.5t-36 28.5t-50.5 47.5t-53.5 67.5t-51 87.5t-36 108t-14.5 128.5zM1169 1608l279 245l70 -77l-297 -232z" />
<glyph horiz-adv-x="1835" d="M113 895q0 252 187.5 405.5t494.5 153.5h903v-106h-785v-582h701v-107h-701v-290q0 -102 24.5 -178t63.5 -121t99 -72t120.5 -36t137.5 -9q99 0 199.5 22t150.5 44l51 22l45 -88q-8 -4 -22.5 -11.5t-62 -26.5t-97 -33t-123 -26t-145.5 -12q-559 0 -559 525v979 q-77 0 -153 -13t-154 -46.5t-137 -83.5t-96.5 -130t-37.5 -180q0 -76 22.5 -145.5t54.5 -114t63.5 -78t54.5 -48.5l22 -15l-65 -76q-5 3 -14.5 9.5t-36 28.5t-50.5 47.5t-53.5 67.5t-51 87.5t-36 108t-14.5 128.5zM983 1604l270 243l271 -243l-56 -60l-215 174l-215 -174z " />
<glyph horiz-adv-x="1835" d="M113 895q0 252 187.5 405.5t494.5 153.5h903v-106h-785v-582h701v-107h-701v-290q0 -102 24.5 -178t63.5 -121t99 -72t120.5 -36t137.5 -9q99 0 199.5 22t150.5 44l51 22l45 -88q-8 -4 -22.5 -11.5t-62 -26.5t-97 -33t-123 -26t-145.5 -12q-559 0 -559 525v979 q-77 0 -153 -13t-154 -46.5t-137 -83.5t-96.5 -130t-37.5 -180q0 -76 22.5 -145.5t54.5 -114t63.5 -78t54.5 -48.5l22 -15l-65 -76q-5 3 -14.5 9.5t-36 28.5t-50.5 47.5t-53.5 67.5t-51 87.5t-36 108t-14.5 128.5zM979 1708q0 34 21 55t57 21q35 0 56.5 -21t21.5 -55 q0 -37 -21.5 -58.5t-56.5 -21.5q-37 0 -57.5 21.5t-20.5 58.5zM1372 1708q0 34 20 55t56 21t57 -21t21 -55q0 -37 -20.5 -58.5t-57.5 -21.5q-36 0 -56 21.5t-20 58.5z" />
<glyph horiz-adv-x="1095" d="M113 942q0 243 182 377.5t496 134.5h116v-1079q0 -187 -100.5 -291t-274.5 -104q-54 0 -107.5 9.5t-80.5 18.5l-27 10l31 101q73 -35 182 -35q132 0 196.5 80.5t64.5 210.5v973q-66 0 -127 -7t-128.5 -23t-122.5 -46.5t-100.5 -73.5t-70.5 -108.5t-25 -147.5 q0 -61 14.5 -117.5t35.5 -93t41.5 -64.5t35.5 -41l14 -12l-71 -65q-7 5 -19 15.5t-42 47.5t-52.5 78.5t-41.5 110t-19 141.5zM522 1776l70 77l278 -245l-51 -64z" />
<glyph horiz-adv-x="1095" d="M113 942q0 243 182 377.5t496 134.5h116v-1079q0 -187 -100.5 -291t-274.5 -104q-54 0 -107.5 9.5t-80.5 18.5l-27 10l31 101q73 -35 182 -35q132 0 196.5 80.5t64.5 210.5v973q-66 0 -127 -7t-128.5 -23t-122.5 -46.5t-100.5 -73.5t-70.5 -108.5t-25 -147.5 q0 -61 14.5 -117.5t35.5 -93t41.5 -64.5t35.5 -41l14 -12l-71 -65q-7 5 -19 15.5t-42 47.5t-52.5 78.5t-41.5 110t-19 141.5zM717 1608l278 245l70 -77l-297 -232z" />
<glyph horiz-adv-x="1095" d="M113 942q0 243 182 377.5t496 134.5h116v-1079q0 -187 -100.5 -291t-274.5 -104q-54 0 -107.5 9.5t-80.5 18.5l-27 10l31 101q73 -35 182 -35q132 0 196.5 80.5t64.5 210.5v973q-66 0 -127 -7t-128.5 -23t-122.5 -46.5t-100.5 -73.5t-70.5 -108.5t-25 -147.5 q0 -61 14.5 -117.5t35.5 -93t41.5 -64.5t35.5 -41l14 -12l-71 -65q-7 5 -19 15.5t-42 47.5t-52.5 78.5t-41.5 110t-19 141.5zM467 1604l268 243l271 -243l-56 -60l-215 174l-213 -174z" />
<glyph horiz-adv-x="1095" d="M113 942q0 243 182 377.5t496 134.5h116v-1079q0 -187 -100.5 -291t-274.5 -104q-54 0 -107.5 9.5t-80.5 18.5l-27 10l31 101q73 -35 182 -35q132 0 196.5 80.5t64.5 210.5v973q-66 0 -127 -7t-128.5 -23t-122.5 -46.5t-100.5 -73.5t-70.5 -108.5t-25 -147.5 q0 -61 14.5 -117.5t35.5 -93t41.5 -64.5t35.5 -41l14 -12l-71 -65q-7 5 -19 15.5t-42 47.5t-52.5 78.5t-41.5 110t-19 141.5zM498 1708q0 34 20.5 55t56.5 21q35 0 56.5 -21t21.5 -55q0 -37 -21.5 -58.5t-56.5 -21.5q-36 0 -56.5 21.5t-20.5 58.5zM889 1708q0 34 21 55 t57 21q35 0 55 -21t20 -55q0 -37 -20 -58.5t-55 -21.5q-37 0 -57.5 21.5t-20.5 58.5z" />
<glyph horiz-adv-x="1095" d="M113 942q0 243 182 377.5t496 134.5h116v-1079q0 -187 -100.5 -291t-274.5 -104q-54 0 -107.5 9.5t-80.5 18.5l-27 10l31 101q73 -35 182 -35q132 0 196.5 80.5t64.5 210.5v973q-66 0 -127 -7t-128.5 -23t-122.5 -46.5t-100.5 -73.5t-70.5 -108.5t-25 -147.5 q0 -61 14.5 -117.5t35.5 -93t41.5 -64.5t35.5 -41l14 -12l-71 -65q-7 5 -19 15.5t-42 47.5t-52.5 78.5t-41.5 110t-19 141.5zM702 1751q0 39 23.5 62.5t65.5 23.5q39 0 62.5 -23.5t23.5 -62.5q0 -40 -23 -64t-63 -24q-42 0 -65.5 24t-23.5 64z" />
<glyph horiz-adv-x="2041" d="M113 895q0 252 187.5 405.5t494.5 153.5h166l788 -1311l-4 113v1198h117v-1454h-158l-799 1325l6 -115v-831q0 -576 -460 -576q-75 0 -141.5 16t-95.5 32l-30 16l33 94q9 -6 26.5 -14.5t76 -22.5t122.5 -14q190 0 271.5 116.5t81.5 352.5v969q-77 0 -153 -13t-154 -46.5 t-137 -83.5t-96.5 -130t-37.5 -180q0 -76 22.5 -145.5t54.5 -114t63.5 -78t54.5 -48.5l22 -15l-65 -76q-5 3 -14.5 9.5t-36 28.5t-50.5 47.5t-53.5 67.5t-51 87.5t-36 108t-14.5 128.5zM1051 1651q1 6 3.5 16.5t15 37.5t29.5 47t49 37t71 17q37 0 72 -15.5t57.5 -34.5 t50.5 -34.5t53 -15.5q34 0 58 25t31 50l7 25l72 -37q-1 -6 -4 -17t-15.5 -38t-29.5 -47.5t-48.5 -37.5t-70.5 -17q-45 0 -86.5 25t-77.5 50t-67 25q-34 0 -58 -25t-31 -50l-8 -25z" />
<glyph horiz-adv-x="1925" d="M113 1001q0 69 14 133t36 110t49 86t54 66t49 44.5t36 26.5l14 8l61 -78q-8 -4 -22.5 -13t-50.5 -43.5t-63.5 -76t-50 -113.5t-22.5 -154q0 -200 121 -316t317 -134q-8 79 -8 180q0 748 580 748q577 0 577 -748q0 -747 -577 -747q-459 0 -555 464q-135 7 -243 53.5 t-176 122.5t-104 173.5t-36 207.5zM766 727q0 -99 8 -180q121 8 223 50t173 108t120 152.5t72.5 182.5t23.5 199q0 57 -8 111q-72 20 -151 20q-86 0 -156 -21.5t-117.5 -57t-82.5 -88.5t-54.5 -106.5t-31.5 -122t-15.5 -124.5t-3.5 -123zM791 446q76 -362 436 -362 q86 0 155.5 21.5t117 57t82.5 88.5t55 106.5t32 121.5t15.5 124.5t3.5 123.5q0 88 -7 161t-27 155t-63 148.5t-106 108.5q6 -35 6 -77q0 -105 -24.5 -207.5t-79.5 -201.5t-134.5 -176t-198.5 -129t-263 -63zM952 1776l70 77l278 -245l-51 -64z" />
<glyph horiz-adv-x="1925" d="M113 1001q0 69 14 133t36 110t49 86t54 66t49 44.5t36 26.5l14 8l61 -78q-8 -4 -22.5 -13t-50.5 -43.5t-63.5 -76t-50 -113.5t-22.5 -154q0 -200 121 -316t317 -134q-8 79 -8 180q0 748 580 748q577 0 577 -748q0 -747 -577 -747q-459 0 -555 464q-135 7 -243 53.5 t-176 122.5t-104 173.5t-36 207.5zM766 727q0 -99 8 -180q121 8 223 50t173 108t120 152.5t72.5 182.5t23.5 199q0 57 -8 111q-72 20 -151 20q-86 0 -156 -21.5t-117.5 -57t-82.5 -88.5t-54.5 -106.5t-31.5 -122t-15.5 -124.5t-3.5 -123zM791 446q76 -362 436 -362 q86 0 155.5 21.5t117 57t82.5 88.5t55 106.5t32 121.5t15.5 124.5t3.5 123.5q0 88 -7 161t-27 155t-63 148.5t-106 108.5q6 -35 6 -77q0 -105 -24.5 -207.5t-79.5 -201.5t-134.5 -176t-198.5 -129t-263 -63zM1149 1628l278 244l70 -78l-297 -231z" />
<glyph horiz-adv-x="1925" d="M113 1001q0 69 14 133t36 110t49 86t54 66t49 44.5t36 26.5l14 8l61 -78q-8 -4 -22.5 -13t-50.5 -43.5t-63.5 -76t-50 -113.5t-22.5 -154q0 -200 121 -316t317 -134q-8 79 -8 180q0 748 580 748q577 0 577 -748q0 -747 -577 -747q-459 0 -555 464q-135 7 -243 53.5 t-176 122.5t-104 173.5t-36 207.5zM766 727q0 -99 8 -180q121 8 223 50t173 108t120 152.5t72.5 182.5t23.5 199q0 57 -8 111q-72 20 -151 20q-86 0 -156 -21.5t-117.5 -57t-82.5 -88.5t-54.5 -106.5t-31.5 -122t-15.5 -124.5t-3.5 -123zM791 446q76 -362 436 -362 q86 0 155.5 21.5t117 57t82.5 88.5t55 106.5t32 121.5t15.5 124.5t3.5 123.5q0 88 -7 161t-27 155t-63 148.5t-106 108.5q6 -35 6 -77q0 -105 -24.5 -207.5t-79.5 -201.5t-134.5 -176t-198.5 -129t-263 -63zM954 1604l271 243l268 -243l-55 -60l-213 174l-215 -174z" />
<glyph horiz-adv-x="1925" d="M113 1001q0 69 14 133t36 110t49 86t54 66t49 44.5t36 26.5l14 8l61 -78q-8 -4 -22.5 -13t-50.5 -43.5t-63.5 -76t-50 -113.5t-22.5 -154q0 -200 121 -316t317 -134q-8 79 -8 180q0 748 580 748q577 0 577 -748q0 -747 -577 -747q-459 0 -555 464q-135 7 -243 53.5 t-176 122.5t-104 173.5t-36 207.5zM766 727q0 -99 8 -180q121 8 223 50t173 108t120 152.5t72.5 182.5t23.5 199q0 57 -8 111q-72 20 -151 20q-86 0 -156 -21.5t-117.5 -57t-82.5 -88.5t-54.5 -106.5t-31.5 -122t-15.5 -124.5t-3.5 -123zM791 446q76 -362 436 -362 q86 0 155.5 21.5t117 57t82.5 88.5t55 106.5t32 121.5t15.5 124.5t3.5 123.5q0 88 -7 161t-27 155t-63 148.5t-106 108.5q6 -35 6 -77q0 -105 -24.5 -207.5t-79.5 -201.5t-134.5 -176t-198.5 -129t-263 -63zM930 1651q1 6 3.5 16.5t15 37.5t29.5 47t49 37t71 17 q37 0 72 -15.5t57.5 -34.5t50.5 -34.5t53 -15.5q34 0 58 25t31 50l7 25l72 -37q-1 -6 -4 -17t-15.5 -38t-29.5 -47.5t-48.5 -37.5t-70.5 -17q-45 0 -86.5 25t-77.5 50t-67 25q-34 0 -58 -25t-31 -50l-7 -25z" />
<glyph horiz-adv-x="1925" d="M113 1001q0 69 14 133t36 110t49 86t54 66t49 44.5t36 26.5l14 8l61 -78q-8 -4 -22.5 -13t-50.5 -43.5t-63.5 -76t-50 -113.5t-22.5 -154q0 -200 121 -316t317 -134q-8 79 -8 180q0 748 580 748q577 0 577 -748q0 -747 -577 -747q-459 0 -555 464q-135 7 -243 53.5 t-176 122.5t-104 173.5t-36 207.5zM766 727q0 -99 8 -180q121 8 223 50t173 108t120 152.5t72.5 182.5t23.5 199q0 57 -8 111q-72 20 -151 20q-86 0 -156 -21.5t-117.5 -57t-82.5 -88.5t-54.5 -106.5t-31.5 -122t-15.5 -124.5t-3.5 -123zM791 446q76 -362 436 -362 q86 0 155.5 21.5t117 57t82.5 88.5t55 106.5t32 121.5t15.5 124.5t3.5 123.5q0 88 -7 161t-27 155t-63 148.5t-106 108.5q6 -35 6 -77q0 -105 -24.5 -207.5t-79.5 -201.5t-134.5 -176t-198.5 -129t-263 -63zM946 1708q0 34 20 55t56 21t57 -21t21 -55q0 -37 -20.5 -58.5 t-57.5 -21.5q-36 0 -56 21.5t-20 58.5zM1337 1708q0 34 20 55t56 21t57 -21t21 -55q0 -37 -20.5 -58.5t-57.5 -21.5q-36 0 -56 21.5t-20 58.5z" />
<glyph horiz-adv-x="1925" d="M113 1001q0 69 14 133t36 110t49 86t54 66t49 44.5t36 26.5l14 8l61 -78q-8 -4 -22.5 -13t-50.5 -43.5t-63.5 -76t-50 -113.5t-22.5 -154q0 -200 121 -316t317 -134q-8 79 -8 180q0 748 580 748q111 0 203 -29l81 223l95 -35l-84 -227q282 -158 282 -680 q0 -747 -577 -747q-113 0 -215 30l-84 -231l-94 37l86 235q-188 112 -248 393q-135 7 -243 53.5t-176 122.5t-104 173.5t-36 207.5zM766 727q0 -99 8 -180q121 8 223 50t173 108t120 152.5t72.5 182.5t23.5 199q0 57 -8 111q-72 20 -151 20q-86 0 -156 -21.5t-117.5 -57 t-82.5 -88.5t-54.5 -106.5t-31.5 -122t-15.5 -124.5t-3.5 -123zM791 446q76 -362 436 -362q86 0 155.5 21.5t117 57t82.5 88.5t55 106.5t32 121.5t15.5 124.5t3.5 123.5q0 88 -7 161t-27 155t-63 148.5t-106 108.5q6 -35 6 -77q0 -105 -24.5 -207.5t-79.5 -201.5 t-134.5 -176t-198.5 -129t-263 -63z" />
<glyph horiz-adv-x="1380" d="M147 57q0 52 9 103t21.5 86.5t25 63.5t21.5 42l9 13l99 -39q-8 -12 -20 -34.5t-32 -93t-20 -141.5q0 -190 125 -293.5t317 -103.5q109 0 195 35.5t138 95t79 132t27 151.5q0 62 -16 115.5t-47.5 96.5t-68.5 79t-88.5 69t-98.5 59.5t-106 57.5q-11 5 -16 8q-52 28 -83 45 t-78 45.5t-76 51.5t-65 55t-57.5 64t-42 71t-29.5 84.5t-9 95.5q0 88 30.5 158.5t81 115.5t120 75t142 42.5t152.5 12.5q95 0 187 -17t137 -34l45 -17l-37 -96q-17 6 -46.5 15.5t-116.5 25.5t-169 16q-90 0 -164.5 -18t-130.5 -53.5t-87 -93t-31 -132.5q0 -44 12 -84t29 -71 t50 -63.5t60 -54.5t74.5 -51t79 -46t86.5 -46q183 -95 261 -153q186 -136 221 -325q9 -48 9 -101q0 -98 -31 -186t-91.5 -160.5t-159.5 -119t-225 -54.5l-25 -101q30 6 61 6q80 0 133.5 -39t53.5 -118q0 -77 -54 -123.5t-165 -46.5q-54 0 -101 11t-67 21l-21 11l21 80 q75 -39 155 -39q129 0 129 88q0 90 -131 90q-75 0 -131 -21l47 181q-127 6 -226 49.5t-159 113.5t-90.5 156t-30.5 182z" />
<glyph horiz-adv-x="2041" d="M113 895q0 252 187.5 405.5t494.5 153.5h118v-905q0 -88 13 -158t34.5 -118t55 -83t67.5 -55t79 -32t84 -15.5t87 -3.5t87 3.5t84.5 15.5t79.5 32t67.5 55t55.5 83t35 118t13 158v690q0 63 -11.5 116t-30.5 87.5t-42 62t-45.5 42.5t-41.5 24.5t-30 12.5l-12 3l43 90 q6 -1 16.5 -4t40 -16t57 -31.5t60.5 -53.5t56.5 -78.5t40 -110t16.5 -144.5v-684q0 -158 -35 -270t-106 -178.5t-168 -96.5t-230 -30t-230 30t-167.5 96.5t-105.5 178.5t-35 270v793q-77 0 -153 -13t-154 -46.5t-137 -83.5t-96.5 -130t-37.5 -180q0 -76 22.5 -145.5 t54.5 -114t63.5 -78t54.5 -48.5l22 -15l-65 -76q-5 3 -14.5 9.5t-36 28.5t-50.5 47.5t-53.5 67.5t-51 87.5t-36 108t-14.5 128.5zM967 1833l69 80l279 -246l-51 -65z" />
<glyph horiz-adv-x="2041" d="M113 895q0 252 187.5 405.5t494.5 153.5h118v-905q0 -88 13 -158t34.5 -118t55 -83t67.5 -55t79 -32t84 -15.5t87 -3.5t87 3.5t84.5 15.5t79.5 32t67.5 55t55.5 83t35 118t13 158v690q0 63 -11.5 116t-30.5 87.5t-42 62t-45.5 42.5t-41.5 24.5t-30 12.5l-12 3l43 90 q6 -1 16.5 -4t40 -16t57 -31.5t60.5 -53.5t56.5 -78.5t40 -110t16.5 -144.5v-684q0 -158 -35 -270t-106 -178.5t-168 -96.5t-230 -30t-230 30t-167.5 96.5t-105.5 178.5t-35 270v793q-77 0 -153 -13t-154 -46.5t-137 -83.5t-96.5 -130t-37.5 -180q0 -76 22.5 -145.5 t54.5 -114t63.5 -78t54.5 -48.5l22 -15l-65 -76q-5 3 -14.5 9.5t-36 28.5t-50.5 47.5t-53.5 67.5t-51 87.5t-36 108t-14.5 128.5zM1137 1667l280 246l68 -80l-295 -231z" />
<glyph horiz-adv-x="2041" d="M113 895q0 252 187.5 405.5t494.5 153.5h118v-905q0 -88 13 -158t34.5 -118t55 -83t67.5 -55t79 -32t84 -15.5t87 -3.5t87 3.5t84.5 15.5t79.5 32t67.5 55t55.5 83t35 118t13 158v690q0 63 -11.5 116t-30.5 87.5t-42 62t-45.5 42.5t-41.5 24.5t-30 12.5l-12 3l43 90 q6 -1 16.5 -4t40 -16t57 -31.5t60.5 -53.5t56.5 -78.5t40 -110t16.5 -144.5v-684q0 -158 -35 -270t-106 -178.5t-168 -96.5t-230 -30t-230 30t-167.5 96.5t-105.5 178.5t-35 270v793q-77 0 -153 -13t-154 -46.5t-137 -83.5t-96.5 -130t-37.5 -180q0 -76 22.5 -145.5 t54.5 -114t63.5 -78t54.5 -48.5l22 -15l-65 -76q-5 3 -14.5 9.5t-36 28.5t-50.5 47.5t-53.5 67.5t-51 87.5t-36 108t-14.5 128.5zM918 1700l268 246l270 -246l-55 -60l-215 177l-213 -177z" />
<glyph horiz-adv-x="2041" d="M113 895q0 252 187.5 405.5t494.5 153.5h118v-905q0 -88 13 -158t34.5 -118t55 -83t67.5 -55t79 -32t84 -15.5t87 -3.5t87 3.5t84.5 15.5t79.5 32t67.5 55t55.5 83t35 118t13 158v690q0 63 -11.5 116t-30.5 87.5t-42 62t-45.5 42.5t-41.5 24.5t-30 12.5l-12 3l43 90 q6 -1 16.5 -4t40 -16t57 -31.5t60.5 -53.5t56.5 -78.5t40 -110t16.5 -144.5v-684q0 -158 -35 -270t-106 -178.5t-168 -96.5t-230 -30t-230 30t-167.5 96.5t-105.5 178.5t-35 270v793q-77 0 -153 -13t-154 -46.5t-137 -83.5t-96.5 -130t-37.5 -180q0 -76 22.5 -145.5 t54.5 -114t63.5 -78t54.5 -48.5l22 -15l-65 -76q-5 3 -14.5 9.5t-36 28.5t-50.5 47.5t-53.5 67.5t-51 87.5t-36 108t-14.5 128.5zM889 1765q0 34 20 55t56 21t56.5 -21t20.5 -55q0 -36 -20.5 -56.5t-56.5 -20.5t-56 20.5t-20 56.5zM1280 1765q0 34 20 55t56 21t57 -21 t21 -55q0 -35 -21 -56t-57 -21t-56 20.5t-20 56.5z" />
<glyph horiz-adv-x="1773" d="M113 905q0 244 165.5 396.5t440.5 152.5h35l458 -915l267 493q82 153 82 260q0 50 -18 87.5t-43.5 55.5t-51.5 29t-44 13l-18 2l29 98q14 -2 23.5 -3.5t39.5 -10.5t51.5 -20t51 -33.5t48.5 -50t32.5 -70t13.5 -93.5q0 -144 -88 -303l-317 -573v-146q0 -230 -112.5 -350.5 t-323.5 -120.5q-76 0 -144.5 16t-98.5 32l-30 16l33 94q9 -6 27 -14.5t78 -22.5t124 -14q328 0 328 362v146l-471 928q-67 -3 -130 -19t-124.5 -50.5t-107 -83t-73.5 -122t-28 -162.5q0 -60 12 -115t31.5 -95.5t43.5 -75.5t47.5 -58t43 -39.5t31.5 -23.5l12 -8l-65 -76 q-11 6 -28.5 18t-62 56t-79 95.5t-62.5 137t-28 180.5zM1030 1669l281 246l69 -78l-297 -231z" />
<glyph horiz-adv-x="1196" d="M-887 1960q6 4 17.5 9.5t50.5 21t81 27t107 21t131 9.5q58 0 115 -6.5t115 -22t102.5 -29.5t107.5 -41.5t98.5 -43.5t106 -50.5t101.5 -48.5q99 286 308.5 439t496.5 153q93 0 175.5 -16.5t153 -51.5t121.5 -86t80 -124t29 -162q0 -212 -165.5 -331.5t-473.5 -119.5 q-314 0 -649 144q-35 -161 -35 -363v-184q141 49 291 49q245 0 371 -138t126 -448q0 -158 -33.5 -272t-99 -182.5t-156 -100.5t-211.5 -32q-101 0 -202 20.5t-152 41.5l-51 21v1233q0 226 45 402q-35 16 -121 57.5t-126.5 59.5t-115.5 48.5t-126.5 44t-120 25t-133.5 11.5 q-173 0 -318 -70zM287 129q133 -47 280 -47q212 0 301.5 116t89.5 369t-89 368.5t-302 115.5q-138 0 -280 -50v-872zM352 1757q322 -143 621 -143q119 0 212 20.5t150 54t94 79.5t51.5 92.5t14.5 97.5q0 145 -111.5 239.5t-324.5 94.5q-113 0 -215.5 -29t-197.5 -89.5 t-171.5 -167t-122.5 -249.5z" />
<glyph horiz-adv-x="1181" d="M-164 1960q6 4 17.5 9.5t50.5 21t81.5 27t107.5 21t132 9.5t138.5 -11.5t121 -24t129 -44.5t112.5 -46.5t126 -59t117 -56.5q99 286 308.5 439t496.5 153q93 0 175.5 -16.5t153 -51.5t121.5 -86t80 -124t29 -162q0 -212 -165.5 -331.5t-473.5 -119.5q-177 0 -332 37.5 t-315 104.5q-35 -158 -35 -361v-1225q-20 -9 -56.5 -23t-143 -37t-206.5 -23q-121 0 -211.5 32t-156 100.5t-99 182.5t-33.5 272q0 310 127 448t371 138q155 0 289 -49v192q0 229 45 402q-37 17 -121.5 57.5t-125.5 59.5t-115 48.5t-126 43.5t-120 25.5t-133 11.5 q-175 0 -320 -70zM223 567q0 -253 89 -369t300 -116q148 0 281 47v872q-136 50 -281 50q-211 0 -300 -115.5t-89 -368.5zM1075 1757q322 -143 621 -143q120 0 213 20.5t150 54t94 79.5t51 92.5t14 97.5q0 145 -111.5 239.5t-324.5 94.5q-113 0 -216 -29t-198 -89.5 t-171.5 -167t-121.5 -249.5z" />
<glyph horiz-adv-x="817" d="M-1067 -838q0 212 166.5 331.5t474.5 119.5q312 0 645 -141q37 167 37 360v1200h-197v101h197v112q0 338 319 338q58 0 105 -8.5t61 -15.5l-20 -99q-59 17 -137 17q-109 0 -160 -51t-51 -177v-116h338v-101h-338v-1208q0 -214 -45 -402q33 -16 121 -57.5t127 -59.5 t115 -48t127 -43.5t119.5 -25t133.5 -11.5q177 0 320 69l39 -86q-6 -4 -17.5 -9.5t-50.5 -21t-81 -27t-107 -21t-132 -9.5q-59 0 -115 6.5t-115 22.5t-102 29t-108 41.5t-97.5 44t-106 51.5t-101.5 49q-98 -287 -307.5 -440.5t-497.5 -153.5q-116 0 -215.5 26.5t-177 79 t-122 138.5t-44.5 196zM-952 -838q0 -145 112.5 -239t323.5 -94q113 0 215.5 28.5t197.5 89.5t171 167t122 249q-322 143 -620 143q-119 0 -212 -20.5t-150 -54t-94 -79.5t-51.5 -92.5t-14.5 -97.5z" />
<glyph horiz-adv-x="1232" d="M-887 1960q6 4 17.5 9.5t50.5 21t81 27t107 21t131 9.5q58 0 115 -6.5t115 -22t102.5 -29.5t107.5 -41.5t98.5 -43.5t106 -50.5t101.5 -48.5q99 286 308.5 439t496.5 153q93 0 175.5 -16.5t153 -51.5t121.5 -86t80 -124t29 -162q0 -212 -165.5 -331.5t-473.5 -119.5 q-314 0 -649 144q-35 -161 -35 -363v-182q160 47 315 47q241 0 356 -104t115 -347v-702h-117v707q0 65 -11 117t-28.5 87t-45.5 61t-56.5 40.5t-66.5 23t-70.5 11t-73.5 2.5q-89 0 -168.5 -11.5t-113.5 -22.5l-35 -11v-1004h-117v1296q0 226 45 402q-35 16 -121 57.5 t-126.5 59.5t-115.5 48.5t-126.5 44t-120 25t-133.5 11.5q-173 0 -318 -70zM352 1757q322 -143 621 -143q119 0 212 20.5t150 54t94 79.5t51.5 92.5t14.5 97.5q0 145 -111.5 239.5t-324.5 94.5q-113 0 -215.5 -29t-197.5 -89.5t-171.5 -167t-122.5 -249.5z" />
<glyph horiz-adv-x="1099" d="M-887 1960q6 4 17.5 9.5t50.5 21t81 27t107 21t131 9.5q58 0 115 -6.5t115 -22t102.5 -29.5t107.5 -41.5t98.5 -43.5t106 -50.5t101.5 -48.5q99 286 308.5 439t496.5 153q93 0 175.5 -16.5t153 -51.5t121.5 -86t80 -124t29 -162q0 -212 -165.5 -331.5t-473.5 -119.5 q-314 0 -649 144q-35 -161 -35 -363v-686l559 531h151l-571 -545l336 -365q54 -60 97 -90.5t97 -30.5q15 0 32 3t26 5l10 3v-99q-35 -16 -86 -16q-133 0 -274 156l-377 417v-571h-117v1296q0 226 45 402q-35 16 -121 57.5t-126.5 59.5t-115.5 48.5t-126.5 44t-120 25 t-133.5 11.5q-173 0 -318 -70zM352 1757q322 -143 621 -143q119 0 212 20.5t150 54t94 79.5t51.5 92.5t14.5 97.5q0 145 -111.5 239.5t-324.5 94.5q-113 0 -215.5 -29t-197.5 -89.5t-171.5 -167t-122.5 -249.5z" />
<glyph horiz-adv-x="458" d="M-887 1960q6 4 17.5 9.5t50.5 21t81 27t107 21t131 9.5q58 0 115 -6.5t115 -22t102.5 -29.5t107.5 -41.5t98.5 -43.5t106 -50.5t101.5 -48.5q99 286 308.5 439t496.5 153q93 0 175.5 -16.5t153 -51.5t121.5 -86t80 -124t29 -162q0 -212 -165.5 -331.5t-473.5 -119.5 q-314 0 -649 144q-35 -161 -35 -363v-1288h-117v1296q0 226 45 402q-35 16 -121 57.5t-126.5 59.5t-115.5 48.5t-126.5 44t-120 25t-133.5 11.5q-173 0 -318 -70zM352 1757q322 -143 621 -143q119 0 212 20.5t150 54t94 79.5t51.5 92.5t14.5 97.5q0 145 -111.5 239.5 t-324.5 94.5q-113 0 -215.5 -29t-197.5 -89.5t-171.5 -167t-122.5 -249.5z" />
<glyph horiz-adv-x="1196" d="M-1151 -838q0 212 165.5 331.5t473.5 119.5q312 0 645 -141q37 167 37 360v1237q7 3 20.5 9t56.5 20.5t87.5 25.5t110.5 20t130 9q246 0 373 -139t127 -449t-126 -447.5t-371 -137.5q-150 0 -291 49v-205q0 -214 -45 -402q33 -16 121 -57.5t127 -59.5t115 -48t127 -43.5 t119.5 -25t133.5 -11.5q177 0 320 69l38 -86q-6 -4 -17.5 -9.5t-50 -21t-80.5 -27t-107 -21t-132 -9.5q-59 0 -115 6.5t-115 22.5t-102 29t-108 41.5t-97.5 44t-106 51.5t-101.5 49q-98 -287 -307 -440.5t-498 -153.5q-116 0 -215 26.5t-176.5 79t-121.5 138.5t-44 196z M-1036 -838q0 -145 111.5 -239t324.5 -94q89 0 171.5 17.5t164 57.5t149.5 100.5t125.5 152.5t93.5 208q-322 141 -618 141q-120 0 -213 -20.5t-150 -54t-94 -79.5t-51 -92.5t-14 -97.5zM287 129q133 -47 280 -47q213 0 302 115t89 368t-89.5 369.5t-301.5 116.5 q-153 0 -280 -50v-872z" />
<glyph horiz-adv-x="1181" d="M-428 -838q0 212 165.5 331.5t473.5 119.5q312 0 645 -141q37 167 37 360v197q-134 -49 -289 -49q-244 0 -371 137.5t-127 447.5t127 449t373 139q100 0 201.5 -21t152.5 -42l52 -21v-1245q0 -217 -45 -402q35 -16 121 -57.5t126 -59.5t115 -48t126.5 -43.5t119.5 -25 t133 -11.5q177 0 320 69l40 -86q-6 -4 -17.5 -9.5t-50.5 -21t-81.5 -27t-107.5 -21t-132 -9.5q-58 0 -114.5 6.5t-114.5 22.5t-102.5 29.5t-108 41t-98 43.5t-106 50.5t-101.5 48.5q-98 -286 -307.5 -439t-495.5 -153q-93 0 -175.5 16.5t-153 51.5t-121.5 86t-80 124 t-29 162zM-313 -838q0 -145 111.5 -239t324.5 -94q112 0 214.5 28.5t197.5 89.5t171.5 167t122.5 249q-322 143 -620 143q-120 0 -213 -20.5t-150 -54t-94 -79.5t-51 -92.5t-14 -97.5zM223 565q0 -253 89 -368t300 -115q148 0 281 47v872q-123 50 -281 50 q-211 0 -300 -116.5t-89 -369.5z" />
<glyph horiz-adv-x="1181" d="M-428 -838q0 212 165.5 331.5t473.5 119.5q312 0 645 -141q37 167 37 360v197q-134 -49 -289 -49q-244 0 -371 137.5t-127 447.5t127 449t373 139q100 0 201.5 -21t152.5 -42l52 -21v-1245q0 -217 -45 -402q35 -16 121 -57.5t126 -59.5t115 -48t126.5 -43.5t119.5 -25 t133 -11.5q177 0 320 69l40 -86q-6 -4 -17.5 -9.5t-50.5 -21t-81.5 -27t-107.5 -21t-132 -9.5q-58 0 -114.5 6.5t-114.5 22.5t-102.5 29.5t-108 41t-98 43.5t-106 50.5t-101.5 48.5q-98 -286 -307.5 -439t-495.5 -153q-93 0 -175.5 16.5t-153 51.5t-121.5 86t-80 124 t-29 162zM-313 -838q0 -145 111.5 -239t324.5 -94q112 0 214.5 28.5t197.5 89.5t171.5 167t122.5 249q-322 143 -620 143q-120 0 -213 -20.5t-150 -54t-94 -79.5t-51 -92.5t-14 -97.5zM223 565q0 -253 89 -368t300 -115q148 0 281 47v872q-123 50 -281 50 q-211 0 -300 -116.5t-89 -369.5zM365 1524l75 30q1 -6 3 -17t14 -38t29.5 -47.5t53 -37.5t81.5 -17q45 0 80 16t53 39.5t29 46.5t13 39l3 16l75 -30q-1 -9 -4 -24t-20 -53t-41.5 -67t-74 -53t-113.5 -24t-114 23t-75.5 55.5t-42 64.5t-20.5 55z" />
<glyph horiz-adv-x="1196" d="M170 63v1123q0 132 32 241.5t85 184.5t127.5 131.5t153.5 89t169 49.5l23 -98q-81 -18 -147.5 -46t-128.5 -76.5t-104 -112.5t-67.5 -157.5t-25.5 -209.5v-78q134 49 293 49q243 0 369 -138.5t126 -447.5q0 -158 -33.5 -272t-99 -182.5t-156 -100.5t-211.5 -32 q-101 0 -202 20.5t-152 41.5zM287 129q133 -47 280 -47q212 0 301.5 116t89.5 369t-89 368.5t-302 115.5q-153 0 -280 -50v-872z" />
<glyph horiz-adv-x="1196" d="M121 567q0 309 126.5 447.5t368.5 138.5q159 0 293 -49v78q0 116 -25.5 209.5t-67.5 157.5t-104 112.5t-128 76.5t-146 46l21 98q90 -17 169 -49.5t153.5 -89t127.5 -131.5t85 -184.5t32 -241.5v-1123q-20 -9 -56 -23t-141.5 -37t-205.5 -23q-247 0 -374.5 138 t-127.5 449zM240 567q0 -254 88.5 -369.5t300.5 -115.5q152 0 280 47v872q-123 50 -280 50q-211 0 -300 -115.5t-89 -368.5z" />
<glyph horiz-adv-x="839" d="M-180 -625q81 20 144 46.5t122.5 73t98.5 108t62 152.5t23 206v1071h-194v101h194v112q0 338 320 338q57 0 104 -8.5t64 -15.5l-23 -99q-57 17 -137 17q-108 0 -158.5 -51t-50.5 -177v-116h336v-101h-336v-1071q0 -134 -30 -242.5t-79.5 -181.5t-121.5 -127.5t-148 -85 t-168 -49.5z" />
<glyph horiz-adv-x="1232" d="M170 0v1186q0 95 16.5 178.5t45.5 149t71 120t90 94.5t105.5 71.5t115.5 51t121 31.5l23 -98q-80 -18 -146 -46t-128 -76.5t-104 -112.5t-67.5 -157.5t-25.5 -209.5v-76q160 47 311 47q245 0 360 -103.5t115 -347.5v-702h-117v707q0 65 -11 117t-29 87.5t-46 61.5t-57 40 t-68 22.5t-72.5 11t-76.5 2.5q-84 0 -161 -11.5t-113 -22.5l-35 -11v-1004h-117z" />
<glyph horiz-adv-x="1107" d="M170 0v1186q0 95 16.5 178.5t45.5 149t71 120t90 94.5t105.5 71.5t115.5 51t121 31.5l23 -98q-80 -18 -146 -46t-128 -76.5t-104 -112.5t-67.5 -157.5t-25.5 -209.5v-580l559 531h151l-571 -545l336 -365q54 -60 97 -90.5t97 -30.5q15 0 32 3t26 5l10 3v-99 q-35 -16 -88 -16q-131 0 -272 156l-377 417v-571h-117z" />
<glyph horiz-adv-x="458" d="M170 0v1186q0 95 16.5 178.5t45.5 149t71 120t90 94.5t105.5 71.5t115.5 51t121 31.5l23 -98q-80 -18 -146 -46t-128 -76.5t-104 -112.5t-67.5 -157.5t-25.5 -209.5v-1182h-117z" />
<glyph horiz-adv-x="1196" d="M-299 -625q83 17 146.5 40.5t126.5 66.5t104 102t66.5 149t25.5 206v1130q7 3 20.5 9t56.5 20.5t87.5 25.5t110.5 20t130 9q246 0 373 -139t127 -449t-126 -447.5t-371 -137.5q-146 0 -291 49v-88q0 -133 -32 -240t-84 -177.5t-127.5 -122.5t-153 -80t-169.5 -44z M287 129q133 -47 280 -47q213 0 302 115t89 368t-89.5 369.5t-301.5 116.5q-153 0 -280 -50v-872z" />
<glyph horiz-adv-x="1181" d="M-240 -518l58 88q7 -8 20 -20.5t60.5 -44.5t101 -56.5t141 -44.5t181.5 -20q281 0 427 150.5t146 408.5v86q-141 -49 -289 -49q-121 0 -211.5 31.5t-156 100t-99 182t-33.5 271.5t33.5 272t99.5 183t155.5 101t209.5 32q102 0 204 -21t153 -42l51 -21v-1124 q0 -319 -178 -492.5t-504 -173.5q-79 0 -153 11t-129.5 29t-104 39.5t-81.5 43.5t-56.5 40t-34.5 29zM223 565q0 -252 89.5 -367.5t301.5 -115.5q143 0 281 47v872q-127 50 -281 50q-212 0 -301.5 -116.5t-89.5 -369.5z" />
<glyph horiz-adv-x="1222" d="M-186 -547l55 88q7 -6 20.5 -17t61 -38t101 -47.5t140.5 -37.5t181 -17q287 0 430 149.5t143 409.5v80q-148 -41 -311 -41q-241 0 -358 103.5t-117 344.5v703h116v-707q0 -90 22 -154.5t54.5 -99.5t83.5 -55.5t94.5 -25.5t102.5 -5q91 0 169.5 11t111.5 23l32 11v1002 h117v-1188q0 -318 -181.5 -492t-508.5 -174q-104 0 -199.5 18t-158 43.5t-110.5 51t-69 43.5z" />
</font>
</defs>
</svg>
