<?xml version="1.0" standalone="no"?>
<!DOCTYPE svg PUBLIC "-//W3C//DTD SVG 1.1//EN" "http://www.w3.org/Graphics/SVG/1.1/DTD/svg11.dtd" >
<svg xmlns="http://www.w3.org/2000/svg">
<metadata></metadata>
<defs>
<font id="roihumedium_italic" horiz-adv-x="1214" >
<font-face units-per-em="2048" ascent="1638" descent="-410" />
<missing-glyph horiz-adv-x="419" />
<glyph unicode="&#xfb00;" horiz-adv-x="1681" d="M205 948l24 185h174l15 104q53 371 413 371q53 0 101.5 -8t71.5 -16l22 -7l-55 -180q-49 20 -121 20q-181 0 -205 -188l-14 -96h573l15 104q53 371 413 371q53 0 101.5 -8t70.5 -16l23 -7l-55 -180q-47 20 -121 20q-181 0 -205 -188l-14 -96h305l-25 -185h-305l-133 -948 h-230l134 948h-574l-133 -948h-227l133 948h-172z" />
<glyph unicode="&#xfb01;" horiz-adv-x="1345" d="M205 948l24 185h174l15 104q53 371 413 371q53 0 101.5 -8t71.5 -16l22 -7l-55 -180q-49 20 -121 20q-92 0 -141.5 -45.5t-63.5 -138.5l-14 -100h721l-158 -1133h-227l133 948h-496l-133 -948h-227l133 948h-172zM1143 1405q0 68 41.5 107.5t111.5 39.5q56 0 88.5 -28 t32.5 -80q0 -69 -43 -107.5t-112 -38.5q-56 0 -87.5 27.5t-31.5 79.5z" />
<glyph unicode="&#xfb02;" horiz-adv-x="1390" d="M205 948l24 185h174l15 104q53 371 413 371q53 0 101.5 -8t71.5 -16l22 -7l-55 -180q-49 20 -121 20q-181 0 -205 -188l-14 -96h303l-25 -185h-305l-133 -948h-227l133 948h-172zM1010 0l219 1556h225l-219 -1556h-225z" />
<glyph unicode="&#xfb03;" horiz-adv-x="2146" d="M205 948l24 185h174l15 104q53 371 413 371q53 0 101.5 -8t71.5 -16l22 -7l-55 -180q-49 20 -121 20q-92 0 -141 -46t-64 -142l-16 -96h575l15 104q53 371 413 371q53 0 101.5 -8t70.5 -16l23 -7l-55 -180q-47 20 -121 20q-178 0 -205 -188l-14 -96h718l-157 -1133h-228 l133 948h-493l-131 -948h-230l134 948h-574l-133 -948h-227l133 948h-172zM1942 1407q0 67 42.5 106t112.5 39q56 0 87.5 -27.5t31.5 -78.5q0 -69 -42.5 -108.5t-111.5 -39.5q-58 0 -89 28t-31 81z" />
<glyph unicode="&#xfb04;" horiz-adv-x="2191" d="M205 948l24 185h174l15 104q53 371 413 371q53 0 101.5 -8t71.5 -16l22 -7l-55 -180q-49 20 -121 20q-92 0 -141 -46t-64 -142l-16 -96h575l15 104q53 371 413 371q53 0 101.5 -8t70.5 -16l23 -7l-55 -180q-47 20 -121 20q-178 0 -205 -188l-14 -96h305l-25 -185h-307 l-131 -948h-230l134 948h-574l-133 -948h-227l133 948h-172zM1812 0l218 1556h227l-217 -1556h-228z" />
<glyph horiz-adv-x="0" />
<glyph horiz-adv-x="682" />
<glyph horiz-adv-x="0" />
<glyph horiz-adv-x="0" />
<glyph unicode="&#xd;" horiz-adv-x="0" />
<glyph unicode=" "  horiz-adv-x="419" />
<glyph unicode="&#x09;" horiz-adv-x="419" />
<glyph unicode="&#xa0;" horiz-adv-x="419" />
<glyph unicode="!" horiz-adv-x="567" d="M162 88q0 68 40.5 111t112.5 43q57 0 89 -29.5t32 -83.5q0 -68 -42 -111t-113 -43q-59 0 -89 30.5t-30 82.5zM246 408l116 1046h250l-174 -1046h-192z" />
<glyph unicode="&#x22;" horiz-adv-x="718" d="M272 963l50 532h192l-100 -532h-142zM578 963l49 532h192l-102 -532h-139z" />
<glyph unicode="#" horiz-adv-x="1503" d="M139 354l39 154h234l110 438h-231l37 154h233l90 354h185l-91 -354h383l91 354h184l-90 -354h231l-39 -154h-231l-111 -438h232l-37 -154h-234l-88 -354h-184l88 354h-383l-90 -354h-184l90 354h-234zM596 508h383l111 438h-383z" />
<glyph unicode="$" horiz-adv-x="1159" d="M162 88l61 166l31 -14q32 -14 105 -33.5t153 -24.5l68 484q-72 30 -122 60t-96.5 74t-70 104t-23.5 136q0 181 116.5 283.5t305.5 124.5l29 199h192l-28 -197q84 -7 159 -26t108 -34l32 -16l-64 -164q-12 6 -34 14.5t-90 25t-136 20.5l-65 -461q77 -32 128.5 -63 t94.5 -75t63.5 -103t20.5 -136q0 -181 -107 -291t-313 -135l-29 -211h-192l28 207q-96 6 -177 27.5t-114 40.5zM477 1057q0 -61 32.5 -100t100.5 -74l54 374q-187 -46 -187 -200zM707 199q91 24 135.5 80.5t44.5 132.5q0 114 -125 180z" />
<glyph unicode="%" horiz-adv-x="1685" d="M256 1047q0 79 21 153.5t62 138t111 102t160 38.5q75 0 131 -24t88.5 -66t48 -93.5t15.5 -113.5q0 -63 -12 -122.5t-39.5 -116t-68 -98.5t-102 -67.5t-136.5 -25.5q-137 0 -208 79t-71 216zM410 1044q0 -167 133 -172q97 0 146.5 87.5t49.5 226.5q0 78 -31.5 124 t-99.5 46q-97 0 -147.5 -86.5t-50.5 -225.5zM475 35l819 1444l115 -58l-821 -1446zM997 270q0 63 13 123.5t41 117t68.5 98.5t100.5 67.5t132 25.5q76 0 132 -23.5t88 -65.5t47 -93.5t15 -113.5q0 -79 -20 -152.5t-60.5 -137.5t-111.5 -102.5t-164 -38.5q-137 0 -209 79.5 t-72 215.5zM1151 268q0 -164 133 -170q98 0 147.5 86.5t49.5 225.5q0 170 -129 170q-99 0 -150 -86.5t-51 -225.5z" />
<glyph unicode="&#x26;" horiz-adv-x="1486" d="M168 367q0 84 30 156t84.5 126.5t113 94t132.5 75.5q-40 57 -69 137.5t-29 151.5q0 69 24.5 133.5t72.5 118.5t130 86.5t187 32.5q89 0 157.5 -25t108 -68.5t59 -95t19.5 -110.5q0 -74 -28.5 -137t-81.5 -112.5t-110.5 -85.5t-133.5 -71l282 -350q36 54 67 133.5 t42 140.5h190q-24 -113 -69 -226.5t-105 -190.5l139 -166l-163 -140l-127 152q-200 -152 -449 -152q-229 0 -351 110t-122 282zM393 385q0 -107 73.5 -168t199.5 -61q97 0 177.5 32.5t125.5 77.5l-334 416q-52 -27 -89.5 -52t-75 -61t-57.5 -82.5t-20 -101.5zM641 1110 q0 -95 82 -205q55 22 90.5 40.5t78.5 49t65 71t22 89.5q0 64 -37.5 108t-112.5 44q-80 0 -134 -54.5t-54 -142.5z" />
<glyph unicode="'" horiz-adv-x="415" d="M272 963l50 532h192l-100 -532h-142z" />
<glyph unicode="(" horiz-adv-x="665" d="M182 367q0 123 17.5 243.5t47 220t67.5 192.5t80 166.5t84 137.5t80 110t67.5 79t46.5 49l18 16l135 -90q-9 -9 -24.5 -26t-60 -75t-85 -122t-89.5 -165.5t-84.5 -207.5t-60 -245t-24.5 -281q0 -127 17.5 -248.5t42 -205t49 -148.5t42.5 -96l17 -31l-159 -91 q-9 12 -24 35.5t-54 103t-68.5 168t-53.5 227.5t-24 284z" />
<glyph unicode=")" horiz-adv-x="665" d="M-2 -360q9 9 24.5 26t60 75t85 122t89.5 165.5t84.5 207.5t60 245t24.5 281q0 127 -17.5 248.5t-42 205t-49 148.5t-41.5 96l-18 31l160 90q9 -12 24 -35.5t54 -103.5t68.5 -168t54 -227t24.5 -283q0 -123 -17.5 -243.5t-47 -220t-67.5 -192.5t-80.5 -167t-85 -138 t-80.5 -110t-67.5 -79t-47.5 -49l-17 -16z" />
<glyph unicode="*" horiz-adv-x="933" d="M262 1223l74 155l244 -98l26 276h164l-53 -276l270 98l29 -155l-273 -74l142 -211l-148 -96l-119 229l-180 -229l-123 96l201 211z" />
<glyph unicode="+" horiz-adv-x="1204" d="M233 524l25 170h354l52 365h172l-52 -365h357l-25 -170h-356l-49 -364h-174l51 364h-355z" />
<glyph unicode="," horiz-adv-x="550" d="M82 -242q36 86 80 250.5t47 216.5q56 33 117 33q46 0 74 -25t28 -71q0 -55 -51 -166.5t-101 -195.5l-51 -85z" />
<glyph unicode="-" horiz-adv-x="894" d="M209 508l24 178h621l-25 -178h-620z" />
<glyph unicode="." horiz-adv-x="559" d="M152 90q0 73 40.5 118.5t116.5 45.5q59 0 95 -29t36 -84q0 -73 -41.5 -119.5t-115.5 -46.5q-63 0 -97 30.5t-34 84.5z" />
<glyph unicode="/" horiz-adv-x="913" d="M10 -231l869 1812h202l-866 -1812h-205z" />
<glyph unicode="0" horiz-adv-x="1298" d="M201 500q0 87 7.5 174.5t27.5 186t51 185t80.5 167.5t113.5 139t153.5 92.5t196.5 34.5q474 0 474 -525q0 -94 -6 -180t-24.5 -187t-48 -185.5t-79.5 -165.5t-116.5 -137t-162.5 -90t-213 -34q-116 0 -205 41.5t-142.5 114.5t-80 166t-26.5 203zM424 487q0 -327 250 -327 q72 0 132 29.5t101 78t73 116.5t50.5 139.5t30.5 153.5t16 151t4 139q0 56 -7 102t-25 89t-46.5 72t-75.5 46.5t-108 17.5q-71 0 -129.5 -30.5t-98.5 -80.5t-71 -120t-48.5 -142t-29 -154t-15 -148t-3.5 -132z" />
<glyph unicode="1" horiz-adv-x="823" d="M227 1260l398 194h190l-205 -1454h-225l172 1237l-276 -133z" />
<glyph unicode="2" horiz-adv-x="1161" d="M123 0l24 178l490 430q174 153 244.5 266.5t70.5 212.5q0 93 -59 150t-180 57q-55 0 -112 -12t-98.5 -29.5t-75.5 -35t-51 -29.5l-18 -12l-77 159q8 6 22.5 15.5t63.5 34.5t101.5 44t132.5 34.5t161 15.5q200 0 309 -98t109 -261q0 -158 -92 -308.5t-302 -338.5 l-321 -289h586l-25 -184h-903z" />
<glyph unicode="3" horiz-adv-x="1126" d="M102 55l56 170q13 -7 38 -18t109 -29t176 -18q175 0 273 80.5t98 212.5q0 121 -85 174t-249 53l-106 -2l26 184q52 -4 101 -4q183 0 281 67t98 185q0 91 -63 137.5t-198 46.5q-83 0 -165.5 -16.5t-123.5 -32.5l-42 -16l-43 162q6 4 18.5 9.5t53.5 21t85.5 27t113.5 21 t140 9.5q220 0 332.5 -84.5t112.5 -237.5q0 -122 -68 -223t-207 -146q103 -40 157 -118.5t54 -208.5q0 -102 -35 -188.5t-104.5 -154t-183.5 -105.5t-263 -38q-109 0 -206 20t-139 40z" />
<glyph unicode="4" horiz-adv-x="1198" d="M121 346l18 184l748 924h227l-131 -924h207l-25 -184h-207l-49 -346h-225l47 346h-610zM342 530h416l86 619z" />
<glyph unicode="5" horiz-adv-x="1140" d="M127 53l61 170q12 -7 35.5 -17.5t100 -28t157.5 -17.5q178 0 285.5 89t107.5 247q0 71 -23.5 122.5t-67 81t-98 43t-122.5 13.5q-157 0 -313 -64l151 762h760l-24 -184h-553l-70 -348q78 12 137 12q97 0 177.5 -24.5t143 -73.5t97.5 -130t35 -186q0 -91 -21.5 -170.5 t-69.5 -149t-119 -119t-176 -78t-235 -28.5q-67 0 -128 8t-100.5 19.5t-70 23t-44.5 19.5z" />
<glyph unicode="6" horiz-adv-x="1200" d="M197 528q0 92 10 183t34 186.5t60 179t91 158.5t124.5 128.5t164 84.5t204.5 31q59 0 114.5 -9t93 -22t67 -26t43.5 -22l14 -9l-80 -162q-12 7 -33 17.5t-87.5 28t-133.5 17.5q-77 0 -141 -24t-109.5 -63t-81.5 -95.5t-58 -115.5t-38 -128q140 66 297 66 q203 0 314.5 -110.5t111.5 -307.5q0 -112 -36.5 -210t-103 -171.5t-169 -115.5t-226.5 -42q-446 0 -446 553zM422 514q0 -62 5 -109.5t20 -95.5t40 -79t68.5 -50.5t103.5 -19.5q66 0 118 23.5t83.5 59.5t52.5 84t29 92t8 87q0 44 -9.5 82t-33.5 77t-74.5 62t-123.5 23 q-134 0 -281 -78q-6 -86 -6 -158z" />
<glyph unicode="7" horiz-adv-x="1042" d="M223 0l664 1266h-627l27 188h874l-22 -162l-670 -1292h-246z" />
<glyph unicode="8" horiz-adv-x="1234" d="M156 348q0 83 25.5 154.5t70 123t93 87.5t106.5 63q-140 119 -140 293q0 194 133 302t353 108q213 0 323.5 -94t110.5 -248q0 -72 -23 -135.5t-62.5 -110t-80.5 -79t-88 -58.5q98 -53 154.5 -129.5t56.5 -192.5q0 -209 -148 -333t-397 -124q-243 0 -365 103t-122 270z M381 369q0 -103 70 -158t202 -55t218.5 70t86.5 192q0 40 -15 72t-36 53t-59.5 41.5t-70 33t-83 32.5t-84.5 34q-229 -110 -229 -315zM518 1075q0 -29 9 -55t22 -45.5t37.5 -38.5t45 -32t56.5 -29t59.5 -25t65.5 -25q209 119 209 299q0 87 -65.5 131.5t-176.5 44.5 q-115 0 -188.5 -56.5t-73.5 -168.5z" />
<glyph unicode="9" horiz-adv-x="1196" d="M205 63l65 162q12 -7 34 -17.5t88.5 -28t131.5 -17.5q96 0 171.5 35t125.5 97t81 134t50 160q-136 -66 -297 -66q-197 0 -310.5 111t-113.5 307q0 112 36.5 210t103 171.5t169 115.5t226.5 42q117 0 203.5 -39t138.5 -113.5t77 -173.5t25 -227q0 -93 -10 -183.5 t-33.5 -186t-59 -179t-90 -158.5t-123.5 -128.5t-163.5 -84.5t-204.5 -31q-59 0 -113.5 9t-90.5 22t-63.5 26t-40.5 22zM455 948q0 -34 5.5 -64.5t21.5 -64.5t41.5 -58t70.5 -40t104 -16q133 0 283 77q6 85 6 158q0 62 -5 109.5t-20 95.5t-40.5 79t-69 50.5t-102.5 19.5 q-66 0 -119 -23.5t-85 -59.5t-53.5 -84t-29.5 -92t-8 -87z" />
<glyph unicode=":" horiz-adv-x="612" d="M180 90q0 73 41 118.5t117 45.5q59 0 95 -29t36 -84q0 -73 -42 -119.5t-116 -46.5q-63 0 -97 30.5t-34 84.5zM295 920q0 73 41.5 118t116.5 45q61 0 96 -28.5t35 -83.5q0 -73 -41 -118.5t-117 -45.5q-64 0 -97.5 30t-33.5 83z" />
<glyph unicode=";" horiz-adv-x="614" d="M100 -242q35 86 78.5 250.5t46.5 216.5q56 33 119 33q46 0 74 -25t28 -71q0 -55 -50.5 -166.5t-101.5 -195.5l-50 -85zM297 920q0 73 41 118t117 45q59 0 95 -28.5t36 -83.5q0 -73 -42 -118.5t-116 -45.5q-64 0 -97.5 30t-33.5 83z" />
<glyph unicode="&#x3c;" horiz-adv-x="1288" d="M217 516l25 170l958 490l66 -179l-793 -399l682 -393l-115 -178z" />
<glyph unicode="=" horiz-adv-x="1153" d="M188 309l23 154h864l-22 -154h-865zM252 762l20 153h865l-21 -153h-864z" />
<glyph unicode="&#x3e;" horiz-adv-x="1288" d="M193 205l790 393l-680 399l113 179l823 -490l-25 -170l-960 -489z" />
<glyph unicode="?" horiz-adv-x="1026" d="M252 1409q18 8 51.5 19.5t135 31t202.5 19.5q216 0 329 -84.5t113 -241.5q0 -64 -17 -116t-46.5 -88.5t-67 -67t-79 -55.5t-83.5 -49t-79.5 -52.5t-67 -62t-46.5 -80.5t-17 -105q0 -11 0.5 -20.5t1.5 -14.5v-6h-215q-5 25 -5 64q0 76 21 139.5t55.5 105.5t79 79.5 t90.5 63t90.5 54t79 54.5t55.5 63.5t21 81.5q0 149 -250 149q-76 0 -155 -14t-119 -28l-41 -13zM297 90q0 65 41 109.5t113 44.5q55 0 89.5 -28.5t34.5 -84.5q0 -64 -39.5 -109t-113.5 -45q-60 0 -92.5 29.5t-32.5 83.5z" />
<glyph unicode="@" horiz-adv-x="2164" d="M201 387q0 171 43 329.5t132 297t215.5 241.5t303.5 162.5t385 59.5q177 0 321 -37t241 -101t162 -153.5t94.5 -190.5t29.5 -215q0 -159 -44.5 -294.5t-119.5 -227.5t-175 -143.5t-210 -51.5q-185 0 -281 119q-160 -98 -301 -98q-129 0 -206.5 80.5t-77.5 226.5 q0 89 21 176t65 167t106.5 141t152 97t193.5 36q179 0 357 -82l-176 -631q59 -66 151 -66q63 0 122 32.5t109.5 96t81.5 172.5t31 248q0 516 -659 516q-168 0 -310.5 -47t-244 -130t-172.5 -196t-105.5 -246t-34.5 -280q0 -149 43.5 -269.5t129 -209t220 -136.5t308.5 -48 q96 0 202.5 19.5t165.5 38.5l58 20l39 -170q-9 -4 -24.5 -10t-66.5 -21.5t-103.5 -27.5t-130.5 -22t-152 -10q-181 0 -329.5 44t-251 121.5t-173 184t-103 229t-32.5 259.5zM903 412q0 -73 33.5 -118.5t99.5 -45.5q62 0 120.5 22.5t94.5 48.5l144 502q-57 24 -133 27 q-113 0 -196.5 -62.5t-123 -159.5t-39.5 -214z" />
<glyph unicode="A" horiz-adv-x="1409" d="M59 0l695 1454h311l285 -1454h-242l-72 408h-544l-185 -408h-248zM580 598h424l-117 676z" />
<glyph unicode="B" horiz-adv-x="1333" d="M162 12l200 1422q220 45 453 45q269 0 397.5 -81.5t128.5 -262.5q0 -132 -68 -224.5t-200 -136.5q120 -39 172.5 -120.5t52.5 -211.5q0 -244 -170.5 -355.5t-506.5 -111.5q-100 0 -214.5 9.5t-179.5 18.5zM416 178q102 -12 221 -12q100 0 173.5 12.5t134 43.5t91.5 88.5 t31 140.5q0 121 -74.5 172t-253.5 51h-254zM508 842h235q184 0 271.5 62.5t87.5 189.5q0 61 -18.5 99.5t-59 59t-92 28t-131.5 7.5q-122 0 -232 -14z" />
<glyph unicode="C" horiz-adv-x="1210" d="M195 598q0 133 25 257t82.5 238.5t142.5 199.5t213 135.5t286 50.5q65 0 125.5 -8t100.5 -19.5t70 -23t44 -19.5l14 -8l-73 -180q-11 7 -32.5 17.5t-93 28t-147.5 17.5q-95 0 -173.5 -27t-131.5 -70.5t-93.5 -104.5t-63.5 -122t-37 -131t-18.5 -123t-4.5 -106 q0 -73 10 -132.5t38 -116.5t73 -95.5t119 -62t172 -23.5q69 0 132.5 11t92.5 21l29 11l28 -186q-12 -6 -35.5 -14.5t-105.5 -23t-174 -14.5q-614 0 -614 623z" />
<glyph unicode="D" horiz-adv-x="1404" d="M162 20l200 1416q236 43 451 43q162 0 280.5 -44.5t187.5 -125.5t101.5 -184.5t32.5 -231.5q0 -98 -10.5 -188.5t-37 -184t-67.5 -172.5t-105.5 -149t-146.5 -118.5t-195.5 -77t-248.5 -28.5q-104 0 -214.5 11t-169.5 22zM416 178q92 -10 202 -10q88 0 166.5 21t153 72.5 t127.5 130.5t85 203t32 282q0 219 -98 314t-283 95q-117 0 -232 -14z" />
<glyph unicode="E" d="M205 356q0 44 6 90l141 1008h946l-24 -190h-717l-59 -420h639l-29 -189h-637l-31 -215q-4 -40 -4 -55q0 -115 82 -166t258 -51q45 0 91 2t80.5 5.5t68.5 7.5t53.5 7t36.5 6l18 3l-28 -189q-144 -35 -359 -35q-532 0 -532 381z" />
<glyph unicode="F" horiz-adv-x="1179" d="M160 0l205 1454h938l-27 -192h-707l-65 -467h616l-24 -191h-617l-86 -604h-233z" />
<glyph unicode="G" horiz-adv-x="1323" d="M195 569q0 147 28 280t88.5 249t147.5 200t213 132.5t278 48.5q109 0 211.5 -20.5t150.5 -40.5l48 -21l-72 -178q-14 7 -39.5 17.5t-109.5 28t-172 17.5q-95 0 -174 -26t-133.5 -68t-96.5 -102t-66.5 -121.5t-40 -133t-21 -130.5t-5.5 -119q0 -412 404 -412q80 0 147 12 l86 584h223l-108 -746q-6 -3 -49 -12.5t-131 -21t-173 -11.5q-171 0 -296 44.5t-197.5 126.5t-106.5 186.5t-34 236.5z" />
<glyph unicode="H" horiz-adv-x="1447" d="M160 0l205 1454h233l-86 -610h662l86 610h229l-205 -1454h-229l90 645h-662l-90 -645h-233z" />
<glyph unicode="I" horiz-adv-x="569" d="M170 0l205 1454h229l-203 -1454h-231z" />
<glyph unicode="J" horiz-adv-x="890" d="M109 37l59 172q70 -41 164 -41q99 0 158 56.5t71 150.5l152 1079h233l-151 -1067q-27 -195 -131.5 -303.5t-290.5 -108.5q-74 0 -140 15.5t-95 31.5z" />
<glyph unicode="K" horiz-adv-x="1316" d="M160 0l205 1454h233l-98 -700l653 700h281l-697 -745l283 -387q54 -74 98.5 -109t104.5 -35q40 0 65 10l-24 -176q-49 -24 -131 -24q-90 0 -161 51t-147 158l-338 473l-94 -670h-233z" />
<glyph unicode="L" horiz-adv-x="1091" d="M203 344q0 40 6 86l145 1024h230l-144 -1024q-4 -40 -4 -55q0 -112 79 -158.5t241 -46.5q79 0 150.5 9t103.5 17l32 9l-28 -195q-98 -35 -299 -35q-512 0 -512 369z" />
<glyph unicode="M" horiz-adv-x="1767" d="M121 0l325 1454h256l248 -975l523 975h260l-84 -1454h-232l51 907l27 195l-92 -195l-373 -686h-227l-180 686l-41 189l-27 -189l-201 -907h-233z" />
<glyph unicode="N" horiz-adv-x="1456" d="M160 0l205 1454h258l505 -1102l13 148l135 954h223l-203 -1454h-252l-514 1112l-6 -137l-137 -975h-227z" />
<glyph unicode="O" horiz-adv-x="1427" d="M193 535q0 99 10.5 193t34.5 189t60.5 177t92.5 153.5t126 122.5t165 80t207 29q272 0 407.5 -148t135.5 -416q0 -99 -10 -192t-33.5 -188t-59.5 -176.5t-91.5 -153t-125.5 -122t-164.5 -79.5t-206.5 -29q-548 0 -548 560zM426 539q0 -67 8.5 -119.5t30.5 -101t58 -80.5 t94 -51t135 -19q81 0 148.5 30t113 78.5t80.5 116t55 135t32.5 142.5t16.5 132t4 111q0 65 -9 118t-32 101.5t-59 81.5t-94 52.5t-134 19.5q-85 0 -154 -30.5t-114.5 -78.5t-80 -116.5t-52.5 -134.5t-29.5 -143.5t-14.5 -132.5t-3 -111z" />
<glyph unicode="P" horiz-adv-x="1300" d="M160 0l202 1436q13 4 72.5 13.5t170.5 19.5t216 10q259 0 399 -110.5t140 -311.5q0 -120 -40 -221.5t-117 -178.5t-199 -121t-275 -44q-182 0 -268 8l-70 -500h-231zM487 688q75 -6 246 -6q187 0 290 97t103 251q0 256 -301 256q-141 0 -256 -14z" />
<glyph unicode="Q" horiz-adv-x="1427" d="M193 535q0 99 10.5 193t34.5 189t60.5 177t92.5 153.5t126 122.5t165 80t207 29q272 0 407.5 -148t135.5 -416q0 -99 -10 -192t-33.5 -188t-59.5 -176.5t-91.5 -153t-125.5 -122t-164.5 -79.5t-206.5 -29q-548 0 -548 560zM426 539q0 -67 8.5 -119.5t30.5 -101t58 -80.5 t94 -51t135 -19q81 0 148.5 30t113 78.5t80.5 116t55 135t32.5 142.5t16.5 132t4 111q0 65 -9 118t-32 101.5t-59 81.5t-94 52.5t-134 19.5q-85 0 -154 -30.5t-114.5 -78.5t-80 -116.5t-52.5 -134.5t-29.5 -143.5t-14.5 -132.5t-3 -111zM594 -328l27 162l630 -53l-28 -178z " />
<glyph unicode="R" horiz-adv-x="1357" d="M160 0l202 1436q5 1 68.5 10t89.5 12.5t81.5 9.5t103.5 8.5t96 2.5q273 0 420 -92t147 -285q0 -199 -95.5 -320t-293.5 -168l119 -299q29 -73 60 -105t87 -32l55 6l-24 -174q-35 -22 -113 -22q-57 0 -101.5 16.5t-77 50.5t-54.5 73.5t-45 96.5l-144 359h-69q-81 0 -199 4 l-82 -588h-231zM500 772q87 -6 192 -6q234 0 337.5 69t103.5 236q0 122 -85 168.5t-249 46.5q-106 0 -230 -14z" />
<glyph unicode="S" horiz-adv-x="1206" d="M160 57l63 185q18 -8 51 -19.5t129.5 -31t186.5 -19.5q161 0 252.5 58t91.5 167q0 30 -9 56.5t-20 45.5t-37 39t-44 31.5t-57.5 28t-60 24.5t-69.5 25q-47 17 -80.5 30.5t-76.5 35t-73 43.5t-61.5 53.5t-50.5 66.5t-31 82t-12 101q0 90 31.5 162.5t83.5 120t124 79 t150 45t164 13.5q118 0 224 -22t153 -44l47 -22l-66 -174l-41 16q-40 16 -128.5 34.5t-182.5 18.5q-46 0 -88 -5t-87 -19t-78 -36.5t-54 -60t-21 -86.5q0 -37 13.5 -67.5t33 -51.5t54.5 -41t64.5 -32t76.5 -29q78 -27 130.5 -48.5t107 -50.5t88 -59.5t61.5 -70.5t40.5 -89.5 t12.5 -111.5q0 -219 -152 -335t-415 -116q-114 0 -223.5 20t-162.5 40z" />
<glyph unicode="T" horiz-adv-x="1263" d="M238 1257l26 197h1143l-27 -197h-456l-176 -1257h-232l176 1257h-454z" />
<glyph unicode="U" horiz-adv-x="1437" d="M219 432q0 70 12 152l123 870h230l-125 -903q-8 -52 -8 -109q0 -69 17 -120t43 -80t66 -46.5t77.5 -22.5t86.5 -5q341 0 396 383l127 903h229l-123 -870q-23 -170 -74.5 -287.5t-135 -188.5t-191 -102t-252.5 -31q-498 0 -498 457z" />
<glyph unicode="V" horiz-adv-x="1384" d="M264 1454h236l205 -1280l577 1280h246l-690 -1454h-310z" />
<glyph unicode="W" horiz-adv-x="2011" d="M264 1454h242l115 -1079l4 -172l55 174l397 1007h240l117 -1009l4 -170l59 174l414 1075h246l-574 -1454h-301l-123 932l-6 123l-39 -123l-385 -932h-301z" />
<glyph unicode="X" horiz-adv-x="1353" d="M49 0l578 743l-365 711h256l277 -567l442 567h264l-569 -719l371 -735h-256l-285 569l-449 -569h-264z" />
<glyph unicode="Y" horiz-adv-x="1316" d="M250 1454h246l260 -696l467 696h252l-621 -876l-80 -578h-231l80 578z" />
<glyph unicode="Z" horiz-adv-x="1224" d="M94 0l27 193l899 1069h-739l26 192h1022l-29 -197l-897 -1064h756l-29 -193h-1036z" />
<glyph unicode="[" horiz-adv-x="688" d="M106 -426l279 1982h487l-24 -170h-279l-231 -1642h280l-24 -170h-488z" />
<glyph unicode="\" horiz-adv-x="913" d="M274 1581h205l359 -1812h-203z" />
<glyph unicode="]" horiz-adv-x="688" d="M-25 -426l23 170h278l232 1642h-279l23 170h487l-276 -1982h-488z" />
<glyph unicode="^" horiz-adv-x="1122" d="M211 893l479 663h178l293 -663l-170 -98l-241 557l-394 -557z" />
<glyph unicode="_" horiz-adv-x="1005" d="M-25 -180l23 155h1006l-23 -155h-1006z" />
<glyph unicode="`" horiz-adv-x="684" d="M342 1516l123 131l274 -269l-100 -110z" />
<glyph unicode="a" horiz-adv-x="1226" d="M176 442q0 157 35 286t105.5 225.5t184.5 150t263 53.5q113 0 229 -21.5t176 -43.5l60 -21l-146 -1014q-25 -9 -68.5 -22.5t-163 -36.5t-220.5 -23q-231 0 -343 117t-112 350zM401 453q0 -145 57 -217t193 -72q56 0 112.5 6t84.5 12l29 6l102 752q-110 29 -221 29 q-81 0 -144.5 -30t-103 -78.5t-64.5 -117.5t-35 -139.5t-10 -150.5z" />
<glyph unicode="b" horiz-adv-x="1234" d="M162 68l209 1488h227l-61 -434q1 0 13.5 3.5t33.5 9t46.5 10.5t58.5 8.5t63 3.5q232 0 346 -119t114 -344q0 -115 -19 -216.5t-64.5 -195.5t-114.5 -160.5t-176 -106.5t-242 -40q-69 0 -139.5 9.5t-121 23t-91.5 27.5t-62 23zM408 195q80 -31 206 -31q80 0 143.5 28 t105.5 75.5t70 114t40 140t12 156.5q0 145 -62 218t-202 73q-47 0 -99.5 -8.5t-81.5 -17.5l-28 -9z" />
<glyph unicode="c" horiz-adv-x="1040" d="M176 438q0 122 22 228.5t69 197t116.5 155.5t169 101.5t221.5 36.5q92 0 167 -17.5t105 -35.5l29 -17l-69 -165q-11 5 -31 13t-79.5 21t-115.5 13q-69 0 -125.5 -20t-94.5 -52.5t-67.5 -78.5t-46 -91.5t-26.5 -98t-13.5 -93t-3.5 -80.5q0 -51 7.5 -92t28 -79t53 -64 t85 -41t121.5 -15q67 0 125.5 12t79.5 21l23 -177q-11 -5 -31 -12.5t-88 -20t-143 -12.5q-488 0 -488 463z" />
<glyph unicode="d" horiz-adv-x="1230" d="M176 438q0 162 38 293t112 226.5t190 147.5t266 52q111 0 224 -35l61 434h229l-211 -1488q-8 -4 -22 -10t-60.5 -22t-95 -28.5t-120.5 -22.5t-142 -10q-469 0 -469 463zM401 453q0 -142 64 -215.5t203 -73.5q119 0 209 31l102 739q-78 35 -205 35q-84 0 -150 -30 t-107 -79t-68 -117t-37.5 -139t-10.5 -151z" />
<glyph unicode="e" horiz-adv-x="1153" d="M174 471q0 108 22.5 208t70 187.5t115.5 152t165 101.5t213 37q102 0 179 -28t122.5 -79t67.5 -115t22 -142q0 -30 -3.5 -62t-8.5 -57.5t-11.5 -52.5t-11.5 -42.5t-10.5 -32.5t-5.5 -18h-694q-7 -54 -7 -88q0 -276 324 -276q68 0 133.5 11t97.5 21l31 11l10 -178 q-13 -6 -37.5 -15t-106 -24t-169.5 -15q-260 0 -384 124.5t-124 371.5zM430 690h496l4 19q3 19 6.5 46t3.5 48q0 82 -50.5 127t-150.5 45q-59 0 -107.5 -17t-80.5 -43.5t-57 -65.5t-39 -76.5t-25 -82.5z" />
<glyph unicode="f" horiz-adv-x="880" d="M205 948l24 185h174l15 104q53 371 413 371q53 0 101.5 -8t71.5 -16l22 -7l-55 -180q-49 20 -121 20q-181 0 -205 -188l-14 -96h303l-25 -185h-305l-133 -948h-227l133 948h-172z" />
<glyph unicode="g" horiz-adv-x="1230" d="M176 440q0 127 22.5 234.5t71.5 197.5t121 152.5t176 97.5t232 35q111 0 218 -23t159 -46l51 -23l-140 -977q-18 -130 -57 -225.5t-107.5 -168t-175.5 -109t-253 -36.5q-86 0 -161 14.5t-107 28.5l-33 15l49 178q11 -5 31.5 -13.5t87.5 -22t137 -13.5q163 0 253.5 78 t114.5 204q-106 -32 -248 -32q-222 0 -332 112t-110 342zM401 455q0 -142 61 -213.5t197 -71.5q122 0 218 31l102 733q-82 35 -203 35q-174 0 -274.5 -130.5t-100.5 -383.5z" />
<glyph unicode="h" horiz-adv-x="1255" d="M154 0l219 1556h225l-59 -434q129 35 260 35q213 0 317.5 -79t104.5 -265q0 -57 -9 -121l-98 -692h-227l100 711q4 25 4 67q0 62 -19 102t-56 58.5t-74.5 24.5t-91.5 6q-62 0 -122 -8.5t-89 -16.5l-29 -8l-131 -936h-225z" />
<glyph unicode="i" horiz-adv-x="532" d="M154 0l159 1133h226l-160 -1133h-225zM330 1407q0 67 42.5 106t112.5 39q56 0 87.5 -27.5t31.5 -78.5q0 -69 -42.5 -108.5t-112.5 -39.5q-56 0 -87.5 28t-31.5 81z" />
<glyph unicode="j" horiz-adv-x="548" d="M-180 -408l49 166q43 -24 106 -24q90 0 133 54.5t56 156.5l168 1188h227l-166 -1172q-10 -70 -26 -127t-45.5 -111.5t-69.5 -91.5t-100 -59.5t-136 -22.5q-56 0 -105 10.5t-70 21.5zM346 1407q0 67 43 106t113 39q56 0 87.5 -27.5t31.5 -78.5q0 -69 -42.5 -108.5 t-111.5 -39.5q-58 0 -89.5 28t-31.5 81z" />
<glyph unicode="k" horiz-adv-x="1173" d="M154 0l219 1556h225l-133 -950l510 527h274l-555 -570l201 -284q37 -51 73.5 -78t92.5 -27q13 0 29 2t26 4l10 2l-24 -172q-41 -22 -121 -22q-83 0 -149 44t-127 132l-252 358l-74 -522h-225z" />
<glyph unicode="l" horiz-adv-x="532" d="M154 0l219 1556h225l-219 -1556h-225z" />
<glyph unicode="m" horiz-adv-x="1966" d="M154 0l149 1065q8 4 24 10t66.5 22t104.5 28t134 22t159 10q226 0 325 -86q206 86 408 86t304.5 -81.5t102.5 -266.5q0 -62 -8 -119l-96 -690h-228l99 711q4 25 4 65q0 49 -13.5 85t-34.5 56.5t-52 32.5t-58.5 15.5t-62.5 3.5q-133 0 -279 -64q8 -58 8 -92 q0 -49 -10 -121l-98 -692h-225l100 711q6 41 6 69q0 49 -13 84t-32.5 55t-51 31.5t-60.5 15t-68 3.5q-68 0 -130 -8.5t-90 -16.5l-28 -8l-131 -936h-225z" />
<glyph unicode="n" horiz-adv-x="1255" d="M154 0l149 1065q24 10 66.5 25.5t169 41t247.5 25.5q220 0 327.5 -79.5t107.5 -266.5q0 -55 -9 -119l-98 -692h-227l100 711q4 25 4 67q0 62 -19 102t-56 58.5t-74.5 24.5t-91.5 6q-62 0 -122 -8.5t-89 -16.5l-29 -8l-131 -936h-225z" />
<glyph unicode="o" horiz-adv-x="1224" d="M176 426q0 121 20 228t64 200t109 159.5t160 105t212 38.5q461 0 461 -457q0 -105 -18 -204.5t-61 -195.5t-106.5 -167t-162 -114.5t-219.5 -43.5q-459 0 -459 451zM401 432q0 -268 246 -268q75 0 134 34.5t95.5 88.5t60.5 126.5t33 142t9 140.5q0 273 -246 273 q-65 0 -117.5 -24t-86.5 -60.5t-59 -89t-38 -100t-20.5 -104t-9 -90.5t-1.5 -69z" />
<glyph unicode="p" horiz-adv-x="1234" d="M92 -426l211 1491q21 10 59.5 25.5t153.5 41t225 25.5q233 0 352 -116.5t119 -346.5q0 -162 -38 -293t-112 -226.5t-190 -147.5t-266 -52q-116 0 -223 35l-64 -436h-227zM408 199q83 -35 206 -35q84 0 150 30t106.5 78.5t67 117t37 139.5t10.5 151q0 143 -63 216t-201 73 q-119 0 -209 -31z" />
<glyph unicode="q" horiz-adv-x="1232" d="M176 438q0 115 19.5 217t65 195.5t115 160.5t176 106.5t241.5 39.5q110 0 218.5 -23t162.5 -46l53 -23l-209 -1491h-227l61 436q-1 0 -13.5 -3.5t-33.5 -8.5t-46.5 -10.5t-58.5 -9t-63 -3.5q-231 0 -346 119t-115 344zM403 455q0 -145 62.5 -218t202.5 -73q47 0 99.5 9 t80.5 17l29 9l106 739q-85 31 -209 31q-80 0 -143.5 -28t-105.5 -75.5t-70 -114t-40 -140t-12 -156.5z" />
<glyph unicode="r" horiz-adv-x="776" d="M154 0l147 1063q165 86 416 86q72 0 129 -8l-39 -189q-50 4 -84 4q-121 0 -213 -32l-131 -924h-225z" />
<glyph unicode="s" horiz-adv-x="1050" d="M143 47l56 174q16 -7 44.5 -16.5t114.5 -26t170 -16.5q236 0 236 145q0 58 -50 92.5t-159 71.5q-77 25 -132.5 52t-103 65t-72 90.5t-24.5 118.5q0 82 26.5 145.5t70.5 103t106.5 65.5t127.5 36t140 10q91 0 178.5 -13.5t129.5 -27.5l42 -14l-59 -176l-37 11 q-37 11 -112 23.5t-150 12.5q-39 0 -76.5 -6t-76.5 -19.5t-63 -42t-24 -67.5q0 -20 6.5 -37t21.5 -31t29 -24.5t41 -23t44.5 -19l52.5 -19.5q42 -15 69 -25t67 -28.5t66 -35.5t56 -43t47.5 -54t29 -65.5t11.5 -80.5q0 -99 -35 -173t-98.5 -118t-145 -65t-182.5 -21 q-100 0 -195.5 18t-141.5 36z" />
<glyph unicode="t" horiz-adv-x="897" d="M201 948l24 185h148l43 292l231 35l-47 -327h330l-25 -185h-330l-77 -555q-6 -47 -6 -82q0 -74 34 -110.5t117 -36.5q38 0 78.5 7t62.5 15l21 7l10 -170q-8 -5 -24.5 -13t-72.5 -21.5t-120 -13.5q-336 0 -336 312q0 54 8 106l78 555h-147z" />
<glyph unicode="u" horiz-adv-x="1249" d="M195 322q0 61 8 118l96 693h227l-100 -711q-4 -25 -4 -66q0 -50 14 -86t35 -56t55 -31.5t65 -15t73 -3.5q62 0 121.5 8t88.5 16l29 9l131 936h226l-150 -1065q-9 -4 -24.5 -10t-66.5 -22t-104.5 -28.5t-132.5 -22.5t-155 -10q-219 0 -325.5 79.5t-106.5 267.5z" />
<glyph unicode="v" horiz-adv-x="1163" d="M199 1133h227l166 -945l426 945h235l-528 -1133h-309z" />
<glyph unicode="w" horiz-adv-x="1753" d="M199 1133h229l111 -928l370 928h230l110 -928l371 928h231l-477 -1133h-289l-94 672l-8 149l-51 -149l-285 -672h-289z" />
<glyph unicode="x" horiz-adv-x="1089" d="M47 0l432 565l-272 568h242l192 -416l309 416h252l-434 -566l274 -567h-241l-195 416l-309 -416h-250z" />
<glyph unicode="y" horiz-adv-x="1249" d="M195 326q0 59 8 114l96 693h227l-100 -711q-4 -23 -4 -64q0 -50 14.5 -85.5t35.5 -55t55.5 -30.5t64 -14t70.5 -3q68 0 128.5 8t87.5 16l27 9l131 930h226l-148 -1047q-18 -130 -58.5 -226t-110 -167t-175.5 -106.5t-248 -35.5q-86 0 -164 14t-114 28l-35 14l51 176 q11 -5 32 -13t90 -21t142 -13q167 0 256 77t113 203q-127 -30 -264 -30q-219 0 -326.5 77.5t-107.5 262.5z" />
<glyph unicode="z" horiz-adv-x="1048" d="M106 0l25 186l655 762h-538l28 185h807l-26 -193l-649 -754h561l-25 -186h-838z" />
<glyph unicode="{" horiz-adv-x="765" d="M182 473l27 184q53 0 87 10.5t52.5 35t26.5 51t14 71.5l66 461q17 116 98.5 193t228.5 77h148l-23 -167h-102q-43 0 -71.5 -11.5t-43.5 -34t-21.5 -43.5t-11.5 -53l-63 -448q-25 -176 -156 -236q94 -47 94 -178q0 -17 -4 -53l-63 -449q-4 -32 -4 -47q0 -43 24 -67.5 t88 -24.5h103l-25 -170h-147q-131 0 -193.5 61.5t-62.5 161.5q0 17 4 49l63 457q7 40 7 64q0 54 -30.5 80t-109.5 26z" />
<glyph unicode="|" horiz-adv-x="624" d="M156 -426l278 1982h195l-277 -1982h-196z" />
<glyph unicode="}" horiz-adv-x="776" d="M-8 -426l22 168h103q34 0 60 8.5t40.5 20.5t24.5 32.5t14 37.5t8 42l64 449q25 175 155 235q-94 47 -94 178q0 18 4 54l64 448q4 32 4 47q0 43 -24.5 67.5t-88.5 24.5h-102l24 170h148q131 0 193.5 -61.5t62.5 -161.5q0 -17 -4 -49l-64 -457q-6 -34 -6 -63q0 -55 30 -81 t109 -26l-26 -184q-53 0 -87 -10.5t-53 -34.5t-27 -51t-14 -72l-65 -461q-16 -116 -98.5 -193t-229.5 -77h-147z" />
<glyph unicode="~" horiz-adv-x="1028" d="M156 516q2 5 5 14t15 35.5t26.5 50t39 53t52.5 50t67.5 35t82.5 14.5q47 0 94 -21t79.5 -45.5t73 -45.5t75.5 -21q49 0 88 33.5t54 66.5l14 33l122 -55q-3 -10 -9.5 -27t-30.5 -60t-54 -76t-81.5 -60t-110.5 -27q-45 0 -93 21t-82 45.5t-74.5 45.5t-72.5 21t-59.5 -13.5 t-44.5 -33t-30 -39.5t-18 -34l-5 -13z" />
<glyph unicode="&#xa1;" horiz-adv-x="567" d="M109 -362l180 1087h192l-125 -1087h-247zM289 1001q0 69 41 112.5t112 43.5q57 0 89 -30t32 -83q0 -69 -41.5 -111t-113.5 -42q-59 0 -89 29t-30 81z" />
<glyph unicode="&#xa2;" horiz-adv-x="1036" d="M201 612q0 178 51.5 320t158.5 236.5t259 119.5l28 191h191l-27 -187q44 -4 84.5 -12t66.5 -16.5t45.5 -17t28.5 -12.5l9 -5l-72 -174q-86 41 -188 51l-109 -762q104 0 205 39l18 -180q-10 -5 -29.5 -12t-84 -20t-134.5 -15l-24 -181h-193l29 199q-158 40 -235.5 156 t-77.5 282zM430 637q0 -182 113 -252l98 692q-62 -28 -106 -81t-65.5 -117.5t-30.5 -123t-9 -118.5z" />
<glyph unicode="&#xa3;" horiz-adv-x="1155" d="M135 0l25 182q125 95 171 202.5t46 240.5h-174l22 161h144q-11 108 -11 181q0 241 130 376.5t384 135.5q66 0 124 -9.5t94 -23.5t62 -27.5t37 -22.5l11 -10l-96 -153q-10 7 -28.5 17t-81.5 27t-132 17q-146 0 -217.5 -83.5t-71.5 -233.5q0 -63 13 -191h430l-23 -161h-403 q-11 -249 -195 -445h664l-25 -180h-899z" />
<glyph unicode="&#xa4;" horiz-adv-x="1181" d="M186 457l168 145q-41 66 -41 178q0 162 103 287l-123 143l104 95l125 -148q111 68 242 68q133 0 225 -66l162 146l80 -95l-164 -141q41 -66 41 -180q0 -161 -109 -289l125 -143l-102 -92l-127 149q-104 -63 -238 -63q-136 0 -221 63l-170 -149zM465 803q0 -95 58.5 -152 t152.5 -57q118 0 199 77t81 199q0 94 -58.5 153.5t-152.5 59.5q-117 0 -198.5 -79.5t-81.5 -200.5z" />
<glyph unicode="&#xa5;" horiz-adv-x="1224" d="M215 252l18 141h318l27 189h-318l21 141h268l-291 731h246l221 -643l408 643h243l-497 -731h272l-18 -141h-324l-27 -189h322l-19 -141h-323l-35 -252h-231l34 252h-315z" />
<glyph unicode="&#xa6;" horiz-adv-x="624" d="M156 -424l116 838h197l-119 -838h-194zM315 719l117 837h197l-117 -837h-197z" />
<glyph unicode="&#xa7;" horiz-adv-x="1171" d="M109 -358l57 170q6 -3 16 -8.5t45.5 -19t73.5 -23.5t98 -18.5t121 -8.5q146 0 220.5 59t74.5 164q0 26 -7 49t-17 40.5t-29.5 35.5t-36 30t-45 27.5t-48 24.5t-53 25t-53.5 26q-57 28 -93 48t-83 55t-73.5 70t-46 86.5t-19.5 111.5q0 228 197 332q-111 103 -111 256 q0 84 27.5 152.5t75 114.5t113.5 77t140 45t158 14q69 0 135 -8.5t110 -20t78 -24t50 -20.5l16 -7l-63 -170q-4 3 -12 7.5t-37.5 16t-64 20.5t-91.5 16.5t-119 7.5q-51 0 -99 -10t-94.5 -32.5t-75 -66t-28.5 -102.5q0 -25 7.5 -47t18.5 -39t31.5 -34t38 -29t48 -26.5 t51 -23.5t56.5 -24.5t56 -24.5q52 -23 89 -43t78.5 -52t67.5 -67t43 -85.5t17 -110.5q0 -242 -184 -351q100 -103 100 -245q0 -208 -135.5 -320.5t-378.5 -112.5q-116 0 -219 23.5t-147 46.5zM424 629q0 -34 15 -65.5t35 -53t57 -45.5t61.5 -37t69.5 -35l131 -65 q57 29 86.5 80t29.5 114q0 77 -52.5 128t-151.5 100q-143 67 -150 71q-131 -62 -131 -192z" />
<glyph unicode="&#xa8;" horiz-adv-x="923" d="M340 1419q0 58 34 92.5t95 34.5q49 0 73.5 -24t24.5 -68q0 -57 -34.5 -92t-94.5 -35q-46 0 -72 25t-26 67zM762 1419q0 57 35 92t94 35q47 0 71.5 -24.5t24.5 -67.5q0 -57 -34 -92t-93 -35q-48 0 -73 24.5t-25 67.5z" />
<glyph unicode="&#xa9;" horiz-adv-x="1742" d="M219 649q0 171 65.5 324.5t177 264.5t265.5 176t324 65q201 0 357 -90t238.5 -243.5t82.5 -342.5q0 -172 -68 -326.5t-181 -264t-265 -173.5t-316 -64q-200 0 -356.5 90t-240 243t-83.5 341zM367 662q0 -236 148 -387.5t396 -151.5q132 0 255.5 53t215 142t146.5 213.5 t55 261.5q0 232 -150.5 385t-398.5 153q-176 0 -328 -85t-245.5 -240t-93.5 -344zM586 657q0 76 18 147.5t55 133.5t88.5 108t122.5 72.5t154 26.5q59 0 117.5 -12.5t86.5 -24.5l29 -12l-49 -115q-76 37 -182 37q-68 0 -120.5 -26t-82.5 -64.5t-49 -89.5t-25 -93t-6 -83 q0 -230 234 -230q37 0 75.5 6.5t59.5 12.5t21 8l16 -119q-82 -35 -201 -35q-179 0 -270.5 97t-91.5 255z" />
<glyph unicode="&#xaa;" horiz-adv-x="808" d="M156 426l16 117h619l-17 -117h-618zM182 862q0 137 97.5 206t271.5 69q75 0 154 -9l10 64l2 35q0 62 -40 86t-126 24q-55 0 -114 -10.5t-91 -21.5l-31 -11l-10 129q44 19 122 37.5t169 18.5q295 0 295 -226q0 -38 -4 -61l-66 -469q-24 -12 -62.5 -26.5t-118.5 -30 t-161 -15.5q-140 0 -218.5 53t-78.5 158zM358 874q0 -56 37 -78t111 -22q90 0 153 25q22 165 29 211q-98 8 -145 8q-93 0 -139 -32.5t-46 -111.5z" />
<glyph unicode="&#xab;" horiz-adv-x="1282" d="M217 575l408 447l129 -100l-310 -347l213 -346l-157 -100zM715 575l407 447l129 -100l-309 -347l213 -346l-156 -100z" />
<glyph unicode="&#xac;" horiz-adv-x="1077" d="M197 618l22 162h836l-70 -501h-162l47 339h-673z" />
<glyph unicode="&#xad;" horiz-adv-x="892" d="M209 508l24 178h621l-25 -178h-620z" />
<glyph unicode="&#xae;" horiz-adv-x="1050" d="M231 993q0 126 65 238t177.5 180t243.5 68q173 0 284 -113t111 -281q0 -132 -61 -243t-173.5 -176.5t-252.5 -65.5q-174 0 -284 113t-110 280zM338 1004q0 -127 79.5 -211t207.5 -84q163 0 272 102.5t109 263.5q0 124 -80 209.5t-205 85.5q-156 0 -265 -101.5 t-118 -264.5zM467 825l59 420q78 19 166 19q170 0 170 -115q0 -105 -108 -143l43 -82q12 -29 34 -29q3 0 8.5 1t6.5 1l-10 -68q-19 -10 -48 -10q-58 0 -88 64l-51 108q-41 0 -57 2l-25 -168h-100zM602 1067q2 0 18.5 -1t32.5 -1q57 0 83 13t26 57q0 27 -18 39t-58 12l-68 -4 z" />
<glyph unicode="&#xaf;" horiz-adv-x="821" d="M313 1337l19 146h573l-18 -146h-574z" />
<glyph unicode="&#xb0;" horiz-adv-x="751" d="M256 1159q0 138 93.5 229t234.5 91q115 0 182.5 -67t67.5 -177q0 -137 -94 -226t-234 -89q-115 0 -182.5 65t-67.5 174zM393 1176q0 -59 36 -93t95 -34q75 0 123.5 46.5t48.5 123.5q0 59 -35.5 95t-95.5 36q-72 0 -122 -49.5t-50 -124.5z" />
<glyph unicode="&#xb1;" horiz-adv-x="1173" d="M156 0l24 170h864l-24 -170h-864zM246 713l22 168h357l51 364h170l-51 -364h358l-23 -168h-358l-51 -367h-172l51 367h-354z" />
<glyph unicode="&#xb2;" horiz-adv-x="763" d="M211 700l18 125l291 256q98 86 134 140.5t36 107.5t-34.5 84t-104.5 31q-46 0 -96 -15.5t-77 -30.5l-26 -16l-45 105q4 3 12.5 9t36 20.5t58 25.5t77.5 20t95 9q118 0 191 -61.5t73 -161.5q0 -81 -47.5 -166t-171.5 -191l-191 -164h338l-18 -127h-549z" />
<glyph unicode="&#xb3;" horiz-adv-x="768" d="M215 731l35 119q7 -4 21.5 -10t64.5 -16.5t106 -10.5q199 0 199 160q0 64 -45.5 89t-136.5 25q-16 0 -42 -1l-26 -1l17 123h67q94 0 151.5 37t57.5 107q0 92 -141 92q-49 0 -96 -9t-68.5 -17.5t-32.5 -14.5l-29 115q12 6 34.5 15t89.5 23.5t132 14.5q130 0 197.5 -52 t67.5 -139q0 -161 -172 -217q57 -19 97 -66.5t40 -117.5q0 -139 -93 -216t-268 -77q-63 0 -119.5 11t-82.5 23z" />
<glyph unicode="&#xb4;" horiz-adv-x="684" d="M332 1378l350 269l86 -129l-365 -250z" />
<glyph unicode="&#xb5;" horiz-adv-x="1249" d="M80 -426l219 1559h227l-100 -711q-4 -25 -4 -66q0 -49 14 -85t35.5 -56t55 -32t64.5 -15.5t73 -3.5q62 0 121.5 9t88.5 17l29 9l133 934h226l-150 -1065q-9 -4 -24.5 -10t-66.5 -22t-104.5 -28.5t-132.5 -22.5t-155 -10q-104 0 -164.5 21.5t-87.5 71.5l-70 -494h-227z " />
<glyph unicode="&#xb6;" horiz-adv-x="1089" d="M240 1014q0 465 559 465q92 0 172.5 -9.5t114.5 -19.5l34 -10l-159 -1137q-8 -60 -27 -114.5t-53 -105.5t-78.5 -88t-108.5 -59t-139 -22q-26 0 -80 4l27 178q2 0 19 -1t28 -1q174 0 205 221l139 998h-131l-88 -635h-86q-169 0 -258.5 90.5t-89.5 245.5z" />
<glyph unicode="&#xb7;" horiz-adv-x="577" d="M229 590q0 72 44 118t120 46q60 0 92.5 -32t32.5 -87q0 -72 -44.5 -118t-119.5 -46q-60 0 -92.5 32t-32.5 87z" />
<glyph unicode="&#xb8;" horiz-adv-x="704" d="M70 -410l41 111q62 -31 135 -31q135 0 135 86q0 68 -113 68q-72 0 -123 -17l99 244h135l-62 -160q21 3 41 3q80 0 131.5 -35t51.5 -105q0 -90 -71 -147.5t-212 -57.5q-55 0 -102 10.5t-66 20.5z" />
<glyph unicode="&#xb9;" horiz-adv-x="661" d="M297 1444l225 112h127l-119 -856h-151l102 719l-147 -76z" />
<glyph unicode="&#xba;" horiz-adv-x="847" d="M176 426l17 117h618l-18 -117h-617zM207 981q0 98 24.5 184.5t73.5 158t133.5 113.5t194.5 42q160 0 234.5 -91.5t74.5 -238.5q0 -79 -14.5 -151t-46 -136t-78 -110.5t-114.5 -73.5t-152 -27q-173 0 -251.5 89t-78.5 241zM381 973q0 -182 158 -182q231 0 231 370 q0 176 -156 178q-52 0 -93 -19t-65 -52.5t-40.5 -70t-23 -82t-9 -76.5t-2.5 -66z" />
<glyph unicode="&#xbb;" horiz-adv-x="1282" d="M190 229l310 346l-211 347l155 100l283 -447l-408 -446zM686 229l309 346l-211 347l158 100l283 -447l-410 -446z" />
<glyph unicode="&#xbc;" horiz-adv-x="1806" d="M295 1341l221 113h129l-121 -856h-147l100 719l-149 -76zM526 23l828 1456l108 -49l-827 -1457zM1116 190l14 129l431 537h149l-78 -539h113l-16 -127h-113l-27 -190h-153l26 190h-346zM1260 317h221l47 334z" />
<glyph unicode="&#xbd;" horiz-adv-x="1880" d="M295 1341l221 113h129l-121 -856h-147l100 719l-149 -76zM520 23l826 1456l110 -49l-827 -1457zM1225 0l18 125l293 256q98 86 134 140.5t36 107.5q0 52 -35 83t-106 31q-45 0 -95 -15.5t-77 -30.5l-27 -15l-43 102q4 3 12.5 9t36.5 21t58.5 26t77 20.5t94.5 9.5 q118 0 190 -60.5t72 -160.5q0 -81 -47.5 -166.5t-171.5 -191.5l-191 -164h340l-18 -127h-551z" />
<glyph unicode="&#xbe;" horiz-adv-x="1763" d="M199 625l39 120q7 -4 21.5 -10.5t64.5 -17t106 -10.5q199 0 199 159q0 64 -46 89.5t-137 25.5q-61 0 -67 -2l16 125h68q94 0 151.5 36.5t57.5 104.5q0 92 -142 92q-49 0 -95.5 -9t-68 -17.5t-32.5 -14.5l-29 115q12 6 33.5 15t89 24.5t135.5 15.5q130 0 196 -52.5 t66 -139.5q0 -161 -172 -217q57 -19 96 -66.5t39 -118.5q0 -139 -93 -215.5t-269 -76.5q-63 0 -119.5 11t-82.5 23zM608 23l828 1456l112 -49l-829 -1457zM1196 190l14 129l430 537h150l-78 -539h113l-17 -127h-112l-27 -190h-153l28 190h-348zM1339 317h222l47 334z" />
<glyph unicode="&#xbf;" horiz-adv-x="927" d="M76 -59q0 95 27.5 166.5t71 114.5t96.5 77.5t106.5 65.5t97 67t71 94t27.5 136v34h228v-61q0 -69 -17 -128t-45.5 -100.5t-65 -77t-77.5 -62.5t-82 -51.5t-77.5 -49t-65 -51t-45.5 -62t-17 -76.5q0 -141 232 -141q81 0 158.5 18t114.5 36l38 18l37 -174l-18 -9t-52 -21 t-84 -26t-112.5 -20.5t-139.5 -9.5q-203 0 -305 76.5t-102 216.5zM590 1004q0 69 41 111t112 42q59 0 89 -30.5t30 -82.5q0 -69 -40 -111t-115 -42q-56 0 -86.5 30.5t-30.5 82.5z" />
<glyph unicode="&#xc0;" horiz-adv-x="1409" d="M59 0l695 1454h311l285 -1454h-242l-72 408h-544l-185 -408h-248zM580 598h424l-117 676zM700 1788l123 133l275 -268l-101 -111z" />
<glyph unicode="&#xc1;" horiz-adv-x="1409" d="M59 0l695 1454h311l285 -1454h-242l-72 408h-544l-185 -408h-248zM580 598h424l-117 676zM795 1653l352 268l84 -133l-363 -246z" />
<glyph unicode="&#xc2;" horiz-adv-x="1409" d="M59 0l695 1454h311l285 -1454h-242l-72 408h-544l-185 -408h-248zM580 598h424l-117 676zM629 1642l344 267l268 -267l-98 -100l-197 172l-248 -172z" />
<glyph unicode="&#xc3;" horiz-adv-x="1409" d="M59 0l695 1454h311l285 -1454h-242l-72 408h-544l-185 -408h-248zM580 598h424l-117 676zM616 1661q2 8 7 21t23.5 46.5t41.5 59t63.5 46.5t86.5 21q37 0 71.5 -15.5t55.5 -34.5t48 -34.5t52 -15.5q34 0 61.5 25t38.5 50l11 25l100 -61q-2 -8 -7 -21.5t-24 -47.5 t-42.5 -59.5t-63.5 -47t-86 -21.5q-37 0 -71 16t-55.5 34.5t-48.5 34.5t-53 16q-21 0 -40.5 -10.5t-31.5 -25t-21 -29.5t-13 -25l-4 -11z" />
<glyph unicode="&#xc4;" horiz-adv-x="1409" d="M59 0l695 1454h311l285 -1454h-242l-72 408h-544l-185 -408h-248zM580 598h424l-117 676zM623 1704q0 57 34.5 91t92.5 34q98 0 98 -90q0 -58 -33.5 -93.5t-95.5 -35.5q-45 0 -70.5 26t-25.5 68zM1042 1704q0 58 34 91.5t95 33.5q47 0 72 -24t25 -66q0 -58 -34 -93.5 t-93 -35.5q-48 0 -73.5 25.5t-25.5 68.5z" />
<glyph unicode="&#xc5;" horiz-adv-x="1409" d="M59 0l695 1454h311l285 -1454h-242l-72 408h-544l-185 -408h-248zM580 598h424l-117 676zM731 1737q0 108 70.5 172.5t181.5 64.5q88 0 139.5 -46.5t51.5 -129.5q0 -108 -69.5 -171.5t-178.5 -63.5q-90 0 -142.5 46t-52.5 128zM854 1749q0 -40 22 -62t62 -22q53 0 84 32 t31 89q0 40 -22.5 64t-63.5 24q-52 0 -82.5 -34t-30.5 -91z" />
<glyph unicode="&#xc6;" horiz-adv-x="1996" d="M59 0l945 1454h1079l-25 -190h-717l-59 -420h637l-27 -189h-637l-30 -215q-4 -39 -4 -57q0 -115 82.5 -165t257.5 -50q113 0 211.5 11t134.5 20l-27 -189q-147 -35 -360 -35q-533 0 -533 381q0 38 2 58h-428l-256 -414h-246zM676 600h338l100 705z" />
<glyph unicode="&#xc7;" horiz-adv-x="1210" d="M195 598q0 133 25 257t82.5 238.5t142.5 199.5t213 135.5t286 50.5q65 0 125.5 -8t100.5 -19.5t70 -23t44 -19.5l14 -8l-73 -180q-11 7 -32.5 17.5t-93 28t-147.5 17.5q-95 0 -173.5 -27t-131.5 -70.5t-93.5 -104.5t-63.5 -122t-37 -131t-18.5 -123t-4.5 -106 q0 -73 10 -132.5t38 -116.5t73 -95.5t119 -62t172 -23.5q69 0 132.5 11t92.5 21l29 11l28 -186q-12 -6 -35.5 -14.5t-105.5 -23t-174 -14.5h-35l-31 -84q21 3 41 3q80 0 131.5 -35t51.5 -105q0 -91 -71.5 -148t-213.5 -57q-54 0 -101 10.5t-67 20.5l-20 10l43 111 q50 -31 133 -31q135 0 135 86q0 68 -113 68q-76 0 -121 -17l72 183q-448 75 -448 608z" />
<glyph unicode="&#xc8;" d="M205 356q0 44 6 90l141 1008h946l-24 -190h-717l-59 -420h639l-29 -189h-637l-31 -215q-4 -40 -4 -55q0 -115 82 -166t258 -51q45 0 91 2t80.5 5.5t68.5 7.5t53.5 7t36.5 6l18 3l-28 -189q-144 -35 -359 -35q-532 0 -532 381zM602 1788l123 133l276 -268l-102 -111z" />
<glyph unicode="&#xc9;" d="M205 356q0 44 6 90l141 1008h946l-24 -190h-717l-59 -420h639l-29 -189h-637l-31 -215q-4 -40 -4 -55q0 -115 82 -166t258 -51q45 0 91 2t80.5 5.5t68.5 7.5t53.5 7t36.5 6l18 3l-28 -189q-144 -35 -359 -35q-532 0 -532 381zM764 1653l350 268l84 -133l-364 -246z" />
<glyph unicode="&#xca;" d="M205 356q0 44 6 90l141 1008h946l-24 -190h-717l-59 -420h639l-29 -189h-637l-31 -215q-4 -40 -4 -55q0 -115 82 -166t258 -51q45 0 91 2t80.5 5.5t68.5 7.5t53.5 7t36.5 6l18 3l-28 -189q-144 -35 -359 -35q-532 0 -532 381zM561 1642l344 267l271 -267l-99 -100 l-200 172l-246 -172z" />
<glyph unicode="&#xcb;" horiz-adv-x="1208" d="M205 356q0 44 6 90l141 1008h946l-24 -190h-717l-59 -420h639l-29 -189h-637l-31 -215q-4 -40 -4 -55q0 -115 82 -166t258 -51q45 0 91 2t80.5 5.5t68.5 7.5t53.5 7t36.5 6l18 3l-28 -189q-144 -35 -359 -35q-532 0 -532 381zM551 1704q0 58 34 91.5t95 33.5 q47 0 72.5 -24t25.5 -66q0 -58 -34.5 -93.5t-94.5 -35.5q-46 0 -72 26t-26 68zM971 1706q0 56 35.5 89.5t93.5 33.5q48 0 73 -24t25 -66q0 -58 -34.5 -93.5t-94.5 -35.5q-45 0 -71.5 26.5t-26.5 69.5z" />
<glyph unicode="&#xcc;" horiz-adv-x="569" d="M170 0l205 1454h229l-203 -1454h-231zM262 1788l123 133l277 -268l-105 -111z" />
<glyph unicode="&#xcd;" horiz-adv-x="569" d="M170 0l205 1454h229l-203 -1454h-231zM391 1653l350 268l84 -133l-364 -246z" />
<glyph unicode="&#xce;" horiz-adv-x="569" d="M170 0l205 1454h229l-203 -1454h-231zM211 1642l344 267l268 -267l-98 -100l-199 172l-247 -172z" />
<glyph unicode="&#xcf;" horiz-adv-x="569" d="M170 0l205 1454h229l-203 -1454h-231zM203 1704q0 57 34.5 91t94.5 34q48 0 73 -24t25 -66q0 -58 -34.5 -93.5t-96.5 -35.5q-45 0 -70.5 26t-25.5 68zM623 1704q0 57 34.5 91t94.5 34q96 0 96 -90q0 -58 -34 -93.5t-93 -35.5q-46 0 -72 26t-26 68z" />
<glyph unicode="&#xd0;" horiz-adv-x="1404" d="M131 653l25 185h120l86 598q236 43 451 43q162 0 280.5 -44.5t187.5 -125.5t101.5 -184.5t32.5 -231.5q0 -98 -10.5 -188.5t-37 -184t-67.5 -172.5t-105.5 -149t-146.5 -118.5t-195.5 -77t-248.5 -28.5q-104 0 -214.5 11t-169.5 22l-58 12l90 633h-121zM416 178 q92 -10 202 -10q88 0 166.5 21t153 72.5t127.5 130.5t85 203t32 282q0 219 -98 314t-283 95q-117 0 -232 -14l-61 -434h340l-27 -185h-340z" />
<glyph unicode="&#xd1;" horiz-adv-x="1456" d="M160 0l205 1454h258l505 -1102l13 148l135 954h223l-203 -1454h-252l-514 1112l-6 -137l-137 -975h-227zM643 1661q2 8 6.5 21t23 46.5t41 59t62.5 46.5t86 21q39 0 74 -15.5t56 -34.5t48 -34.5t52 -15.5q34 0 61 25t37 50l10 25l100 -61q-2 -8 -7 -21.5t-24 -47.5 t-42 -59.5t-63 -47t-85 -21.5q-37 0 -70.5 16t-54.5 34.5t-48.5 34.5t-53.5 16q-35 0 -62.5 -25t-37.5 -51l-11 -25z" />
<glyph unicode="&#xd2;" horiz-adv-x="1425" d="M193 535q0 99 10.5 193t34.5 189t60.5 177t92.5 153.5t126 122.5t165 80t207 29q272 0 407.5 -148t135.5 -416q0 -99 -10 -192t-33.5 -188t-59.5 -176.5t-91.5 -153t-125.5 -122t-164.5 -79.5t-206.5 -29q-548 0 -548 560zM426 539q0 -67 8.5 -119.5t30.5 -101t58 -80.5 t94 -51t135 -19q81 0 148.5 30t113 78.5t80.5 116t55 135t32.5 142.5t16.5 132t4 111q0 65 -9 118t-32 101.5t-59 81.5t-94 52.5t-134 19.5q-85 0 -154 -30.5t-114.5 -78.5t-80 -116.5t-52.5 -134.5t-29.5 -143.5t-14.5 -132.5t-3 -111zM643 1788l123 133l276 -268 l-102 -111z" />
<glyph unicode="&#xd3;" horiz-adv-x="1427" d="M193 535q0 99 10.5 193t34.5 189t60.5 177t92.5 153.5t126 122.5t165 80t207 29q272 0 407.5 -148t135.5 -416q0 -99 -10 -192t-33.5 -188t-59.5 -176.5t-91.5 -153t-125.5 -122t-164.5 -79.5t-206.5 -29q-548 0 -548 560zM426 539q0 -67 8.5 -119.5t30.5 -101t58 -80.5 t94 -51t135 -19q81 0 148.5 30t113 78.5t80.5 116t55 135t32.5 142.5t16.5 132t4 111q0 65 -9 118t-32 101.5t-59 81.5t-94 52.5t-134 19.5q-85 0 -154 -30.5t-114.5 -78.5t-80 -116.5t-52.5 -134.5t-29.5 -143.5t-14.5 -132.5t-3 -111zM821 1653l353 268l81 -133l-362 -246 z" />
<glyph unicode="&#xd4;" horiz-adv-x="1427" d="M193 535q0 99 10.5 193t34.5 189t60.5 177t92.5 153.5t126 122.5t165 80t207 29q272 0 407.5 -148t135.5 -416q0 -99 -10 -192t-33.5 -188t-59.5 -176.5t-91.5 -153t-125.5 -122t-164.5 -79.5t-206.5 -29q-548 0 -548 560zM426 539q0 -67 8.5 -119.5t30.5 -101t58 -80.5 t94 -51t135 -19q81 0 148.5 30t113 78.5t80.5 116t55 135t32.5 142.5t16.5 132t4 111q0 65 -9 118t-32 101.5t-59 81.5t-94 52.5t-134 19.5q-85 0 -154 -30.5t-114.5 -78.5t-80 -116.5t-52.5 -134.5t-29.5 -143.5t-14.5 -132.5t-3 -111zM637 1642l344 267l270 -267l-98 -100 l-201 172l-245 -172z" />
<glyph unicode="&#xd5;" horiz-adv-x="1427" d="M193 535q0 99 10.5 193t34.5 189t60.5 177t92.5 153.5t126 122.5t165 80t207 29q272 0 407.5 -148t135.5 -416q0 -99 -10 -192t-33.5 -188t-59.5 -176.5t-91.5 -153t-125.5 -122t-164.5 -79.5t-206.5 -29q-548 0 -548 560zM426 539q0 -67 8.5 -119.5t30.5 -101t58 -80.5 t94 -51t135 -19q81 0 148.5 30t113 78.5t80.5 116t55 135t32.5 142.5t16.5 132t4 111q0 65 -9 118t-32 101.5t-59 81.5t-94 52.5t-134 19.5q-85 0 -154 -30.5t-114.5 -78.5t-80 -116.5t-52.5 -134.5t-29.5 -143.5t-14.5 -132.5t-3 -111zM608 1661q2 8 7 21t23.5 46.5t41 59 t63 46.5t86.5 21q38 0 73 -15.5t56 -34.5t48.5 -34.5t52.5 -15.5q34 0 60.5 25t36.5 50l9 25l103 -61q-2 -8 -7 -21.5t-24.5 -47.5t-43 -59.5t-63.5 -47t-86 -21.5q-37 0 -70.5 16t-54.5 34.5t-48 34.5t-52 16q-22 0 -41.5 -10.5t-31.5 -25t-20.5 -29.5t-12.5 -25l-4 -11z " />
<glyph unicode="&#xd6;" horiz-adv-x="1427" d="M193 535q0 99 10.5 193t34.5 189t60.5 177t92.5 153.5t126 122.5t165 80t207 29q272 0 407.5 -148t135.5 -416q0 -99 -10 -192t-33.5 -188t-59.5 -176.5t-91.5 -153t-125.5 -122t-164.5 -79.5t-206.5 -29q-548 0 -548 560zM426 539q0 -67 8.5 -119.5t30.5 -101t58 -80.5 t94 -51t135 -19q81 0 148.5 30t113 78.5t80.5 116t55 135t32.5 142.5t16.5 132t4 111q0 65 -9 118t-32 101.5t-59 81.5t-94 52.5t-134 19.5q-85 0 -154 -30.5t-114.5 -78.5t-80 -116.5t-52.5 -134.5t-29.5 -143.5t-14.5 -132.5t-3 -111zM631 1704q0 57 34.5 91t92.5 34 q48 0 73 -24t25 -66q0 -58 -34.5 -93.5t-94.5 -35.5q-46 0 -71 26t-25 68zM1051 1706q0 57 35 90t94 33q46 0 71 -24t25 -66q0 -58 -34 -93.5t-93 -35.5q-46 0 -72 26t-26 70z" />
<glyph unicode="&#xd7;" horiz-adv-x="1185" d="M201 295l358 313l-274 322l135 119l274 -322l359 315l100 -116l-358 -316l276 -319l-135 -121l-277 322l-358 -314z" />
<glyph unicode="&#xd8;" horiz-adv-x="1425" d="M193 535q0 99 10.5 193t34.5 189t60.5 177t92.5 153.5t126 122.5t165 80t207 29q106 0 215 -31l108 201l156 -74l-113 -207q177 -143 177 -453q0 -99 -10 -192t-33.5 -188t-59.5 -176.5t-91.5 -153t-125.5 -122t-164.5 -79.5t-206.5 -29q-117 0 -225 31l-115 -211 l-155 74l116 215q-169 136 -169 451zM426 539q0 -160 51 -246l529 975q-56 18 -132 18q-85 0 -154 -30.5t-114.5 -78.5t-80 -116.5t-52.5 -134.5t-29.5 -143.5t-14.5 -132.5t-3 -111zM614 186q56 -18 138 -18q81 0 148.5 30t113 78.5t80.5 116t55 135t32.5 142.5t16.5 132 t4 111q0 155 -57 250z" />
<glyph unicode="&#xd9;" horiz-adv-x="1437" d="M219 432q0 70 12 152l123 870h230l-125 -903q-8 -52 -8 -109q0 -69 17 -120t43 -80t66 -46.5t77.5 -22.5t86.5 -5q341 0 396 383l127 903h229l-123 -870q-23 -170 -74.5 -287.5t-135 -188.5t-191 -102t-252.5 -31q-498 0 -498 457zM668 1788l123 133l274 -268l-102 -111z " />
<glyph unicode="&#xda;" horiz-adv-x="1437" d="M219 432q0 70 12 152l123 870h230l-125 -903q-8 -52 -8 -109q0 -69 17 -120t43 -80t66 -46.5t77.5 -22.5t86.5 -5q341 0 396 383l127 903h229l-123 -870q-23 -170 -74.5 -287.5t-135 -188.5t-191 -102t-252.5 -31q-498 0 -498 457zM831 1653l353 268l84 -133l-365 -246z " />
<glyph unicode="&#xdb;" horiz-adv-x="1437" d="M219 432q0 70 12 152l123 870h230l-125 -903q-8 -52 -8 -109q0 -69 17 -120t43 -80t66 -46.5t77.5 -22.5t86.5 -5q341 0 396 383l127 903h229l-123 -870q-23 -170 -74.5 -287.5t-135 -188.5t-191 -102t-252.5 -31q-498 0 -498 457zM645 1642l342 267l268 -267l-98 -100 l-196 172l-248 -172z" />
<glyph unicode="&#xdc;" horiz-adv-x="1437" d="M219 432q0 70 12 152l123 870h230l-125 -903q-8 -52 -8 -109q0 -69 17 -120t43 -80t66 -46.5t77.5 -22.5t86.5 -5q341 0 396 383l127 903h229l-123 -870q-23 -170 -74.5 -287.5t-135 -188.5t-191 -102t-252.5 -31q-498 0 -498 457zM637 1704q0 57 34.5 91t92.5 34 q98 0 98 -90q0 -58 -33.5 -93.5t-95.5 -35.5q-45 0 -70.5 26t-25.5 68zM1057 1704q0 58 34 91.5t95 33.5q46 0 71 -24t25 -66q0 -58 -34 -93.5t-93 -35.5q-48 0 -73 25.5t-25 68.5z" />
<glyph unicode="&#xdd;" horiz-adv-x="1316" d="M250 1454h246l260 -696l467 696h252l-621 -876l-80 -578h-231l80 578zM782 1653l353 268l84 -133l-363 -246z" />
<glyph unicode="&#xde;" horiz-adv-x="1290" d="M160 0l205 1454h229l-27 -186q144 16 256 16q255 0 382.5 -105t127.5 -307q0 -120 -40.5 -223t-117 -182t-199 -124.5t-276.5 -45.5q-182 0 -268 6l-41 -303h-231zM459 494q58 -5 246 -5q189 0 292 96t103 255q0 123 -77.5 187.5t-221.5 64.5q-115 0 -260 -17z" />
<glyph unicode="&#xdf;" horiz-adv-x="1253" d="M150 0l163 1178q14 97 52.5 170.5t88 117t115 70.5t124.5 36t124 9q199 0 302.5 -86t103.5 -211q0 -72 -31 -130t-75.5 -95.5t-88.5 -70.5t-75 -71t-31 -81q0 -35 17 -66t44 -55t60 -48.5t65.5 -53t59.5 -61t44 -80.5t17 -105q0 -172 -115.5 -282t-331.5 -110 q-74 0 -143 13.5t-101 27.5l-32 13l53 172q96 -43 217 -43q101 0 166.5 46t65.5 134q0 46 -23.5 85t-58 65t-75.5 56.5t-75.5 60t-58 76.5t-23.5 105q0 57 17 105t44.5 81t60.5 61.5t66 53.5t60.5 50.5t44.5 58t17 70.5q0 65 -57.5 96t-149.5 31q-99 0 -169.5 -47 t-84.5 -150l-166 -1196h-227z" />
<glyph unicode="&#xe0;" horiz-adv-x="1226" d="M176 442q0 157 35 286t105.5 225.5t184.5 150t263 53.5q113 0 229 -21.5t176 -43.5l60 -21l-146 -1014q-25 -9 -68.5 -22.5t-163 -36.5t-220.5 -23q-231 0 -343 117t-112 350zM401 453q0 -145 57 -217t193 -72q56 0 112.5 6t84.5 12l29 6l102 752q-110 29 -221 29 q-81 0 -144.5 -30t-103 -78.5t-64.5 -117.5t-35 -139.5t-10 -150.5zM590 1516l123 131l274 -269l-100 -110z" />
<glyph unicode="&#xe1;" horiz-adv-x="1226" d="M176 442q0 157 35 286t105.5 225.5t184.5 150t263 53.5q113 0 229 -21.5t176 -43.5l60 -21l-146 -1014q-25 -9 -68.5 -22.5t-163 -36.5t-220.5 -23q-231 0 -343 117t-112 350zM401 453q0 -145 57 -217t193 -72q56 0 112.5 6t84.5 12l29 6l102 752q-110 29 -221 29 q-81 0 -144.5 -30t-103 -78.5t-64.5 -117.5t-35 -139.5t-10 -150.5zM684 1378l354 269l82 -131l-362 -248z" />
<glyph unicode="&#xe2;" horiz-adv-x="1226" d="M176 442q0 157 35 286t105.5 225.5t184.5 150t263 53.5q113 0 229 -21.5t176 -43.5l60 -21l-146 -1014q-25 -9 -68.5 -22.5t-163 -36.5t-220.5 -23q-231 0 -343 117t-112 350zM401 453q0 -145 57 -217t193 -72q56 0 112.5 6t84.5 12l29 6l102 752q-110 29 -221 29 q-81 0 -144.5 -30t-103 -78.5t-64.5 -117.5t-35 -139.5t-10 -150.5zM545 1366l344 268l268 -268l-98 -98l-199 172l-246 -172z" />
<glyph unicode="&#xe3;" horiz-adv-x="1226" d="M176 442q0 157 35 286t105.5 225.5t184.5 150t263 53.5q113 0 229 -21.5t176 -43.5l60 -21l-146 -1014q-25 -9 -68.5 -22.5t-163 -36.5t-220.5 -23q-231 0 -343 117t-112 350zM401 453q0 -145 57 -217t193 -72q56 0 112.5 6t84.5 12l29 6l102 752q-110 29 -221 29 q-81 0 -144.5 -30t-103 -78.5t-64.5 -117.5t-35 -139.5t-10 -150.5zM528 1358q2 8 6.5 21t23 46.5t41 59t63 46.5t86.5 21q48 0 89 -25t75 -50t65 -25q34 0 61.5 25t37.5 50l11 25l99 -61q-2 -8 -7 -21.5t-23.5 -47.5t-41.5 -59.5t-63 -47t-86 -21.5q-37 0 -71.5 16 t-56 34.5t-48.5 34.5t-52 16q-34 0 -61.5 -25.5t-37.5 -50.5l-11 -25z" />
<glyph unicode="&#xe4;" horiz-adv-x="1226" d="M176 442q0 157 35 286t105.5 225.5t184.5 150t263 53.5q113 0 229 -21.5t176 -43.5l60 -21l-146 -1014q-25 -9 -68.5 -22.5t-163 -36.5t-220.5 -23q-231 0 -343 117t-112 350zM401 453q0 -145 57 -217t193 -72q56 0 112.5 6t84.5 12l29 6l102 752q-110 29 -221 29 q-81 0 -144.5 -30t-103 -78.5t-64.5 -117.5t-35 -139.5t-10 -150.5zM555 1419q0 58 34 92.5t93 34.5q49 0 73.5 -24t24.5 -68q0 -57 -34.5 -92t-94.5 -35q-46 0 -71 25t-25 67zM975 1419q0 58 34 92.5t95 34.5q47 0 71.5 -24.5t24.5 -67.5q0 -56 -34.5 -91.5t-92.5 -35.5 q-48 0 -73 24.5t-25 67.5z" />
<glyph unicode="&#xe5;" horiz-adv-x="1226" d="M176 442q0 157 35 286t105.5 225.5t184.5 150t263 53.5q113 0 229 -21.5t176 -43.5l60 -21l-146 -1014q-25 -9 -68.5 -22.5t-163 -36.5t-220.5 -23q-231 0 -343 117t-112 350zM401 453q0 -145 57 -217t193 -72q56 0 112.5 6t84.5 12l29 6l102 752q-110 29 -221 29 q-81 0 -144.5 -30t-103 -78.5t-64.5 -117.5t-35 -139.5t-10 -150.5zM639 1442q0 108 70.5 171.5t181.5 63.5q89 0 139.5 -45.5t50.5 -128.5q0 -108 -69 -171.5t-178 -63.5q-90 0 -142.5 46t-52.5 128zM760 1454q0 -40 23.5 -63t64.5 -23q51 0 82 33t31 88q0 42 -21.5 65 t-60.5 23q-53 0 -86 -33.5t-33 -89.5z" />
<glyph unicode="&#xe6;" horiz-adv-x="1816" d="M139 285q0 348 518 348q102 0 213 -12q15 96 45 178q-9 170 -256 170q-80 0 -161 -16t-122 -32l-40 -16l-19 172q60 28 167 54t239 26q260 0 346 -127q143 127 358 127q103 0 180.5 -28t123 -79t68 -115t22.5 -142q0 -130 -54 -265h-673q-9 -46 -9 -88q0 -136 70 -206 t236 -70q68 0 133.5 11t97.5 21l31 11l12 -178q-13 -6 -38 -15t-106.5 -24t-168.5 -15q-258 0 -375 123q-181 -123 -434 -123q-186 0 -295 82t-109 228zM371 293q0 -79 56.5 -116.5t147.5 -37.5q179 0 324 84q-39 103 -39 230q-132 16 -211 16q-137 0 -207.5 -39.5 t-70.5 -136.5zM1118 690h477l3 19q4 19 8 46t4 48q0 82 -50.5 127t-152.5 45q-59 0 -105 -17t-75.5 -43t-52 -66.5t-34 -76t-22.5 -82.5z" />
<glyph unicode="&#xe7;" horiz-adv-x="1030" d="M168 438q0 122 22 228.5t69 197t116.5 155.5t169 101.5t221.5 36.5q92 0 167 -17.5t105 -35.5l29 -17l-70 -165q-11 5 -31 13t-79 21t-115 13q-69 0 -125.5 -20t-94.5 -52.5t-67.5 -78.5t-46 -91.5t-26.5 -98t-13.5 -93t-3.5 -80.5q0 -51 7.5 -92t28 -79t53 -64t85 -41 t121.5 -15q67 0 125.5 12t79.5 21l23 -177q-11 -5 -31 -12.5t-88.5 -20t-143.5 -12.5h-12l-33 -84q21 3 41 3q80 0 131.5 -35t51.5 -105q0 -90 -71 -147.5t-212 -57.5q-55 0 -102 10.5t-67 20.5l-20 10l41 111q56 -31 136 -31q133 0 133 86q0 68 -113 68q-70 0 -121 -17 l72 181q-342 62 -342 450z" />
<glyph unicode="&#xe8;" horiz-adv-x="1157" d="M178 471q0 108 22.5 208t70 187.5t115.5 152t165 101.5t213 37q102 0 179 -28t122.5 -79t67.5 -115t22 -142q0 -30 -3.5 -62t-8.5 -57.5t-11.5 -52.5t-11.5 -42.5t-10.5 -32.5t-5.5 -18h-694q-7 -54 -7 -88q0 -276 324 -276q68 0 133.5 11t97.5 21l31 11l10 -178 q-13 -6 -37.5 -15t-106 -24t-169.5 -15q-260 0 -384 124.5t-124 371.5zM434 690h496l4 19q3 19 6.5 46t3.5 48q0 82 -50.5 127t-150.5 45q-59 0 -107.5 -17t-80.5 -43.5t-57 -65.5t-39 -76.5t-25 -82.5zM539 1516l123 131l274 -269l-100 -110z" />
<glyph unicode="&#xe9;" horiz-adv-x="1157" d="M178 471q0 108 22.5 208t70 187.5t115.5 152t165 101.5t213 37q102 0 179 -28t122.5 -79t67.5 -115t22 -142q0 -30 -3.5 -62t-8.5 -57.5t-11.5 -52.5t-11.5 -42.5t-10.5 -32.5t-5.5 -18h-694q-7 -54 -7 -88q0 -276 324 -276q68 0 133.5 11t97.5 21l31 11l10 -178 q-13 -6 -37.5 -15t-106 -24t-169.5 -15q-260 0 -384 124.5t-124 371.5zM434 690h496l4 19q3 19 6.5 46t3.5 48q0 82 -50.5 127t-150.5 45q-59 0 -107.5 -17t-80.5 -43.5t-57 -65.5t-39 -76.5t-25 -82.5zM635 1378l352 269l82 -131l-362 -248z" />
<glyph unicode="&#xea;" horiz-adv-x="1157" d="M178 471q0 108 22.5 208t70 187.5t115.5 152t165 101.5t213 37q102 0 179 -28t122.5 -79t67.5 -115t22 -142q0 -30 -3.5 -62t-8.5 -57.5t-11.5 -52.5t-11.5 -42.5t-10.5 -32.5t-5.5 -18h-694q-7 -54 -7 -88q0 -276 324 -276q68 0 133.5 11t97.5 21l31 11l10 -178 q-13 -6 -37.5 -15t-106 -24t-169.5 -15q-260 0 -384 124.5t-124 371.5zM434 690h496l4 19q3 19 6.5 46t3.5 48q0 82 -50.5 127t-150.5 45q-59 0 -107.5 -17t-80.5 -43.5t-57 -65.5t-39 -76.5t-25 -82.5zM494 1366l344 268l266 -268l-96 -98l-199 172l-248 -172z" />
<glyph unicode="&#xeb;" horiz-adv-x="1157" d="M178 471q0 108 22.5 208t70 187.5t115.5 152t165 101.5t213 37q102 0 179 -28t122.5 -79t67.5 -115t22 -142q0 -30 -3.5 -62t-8.5 -57.5t-11.5 -52.5t-11.5 -42.5t-10.5 -32.5t-5.5 -18h-694q-7 -54 -7 -88q0 -276 324 -276q68 0 133.5 11t97.5 21l31 11l10 -178 q-13 -6 -37.5 -15t-106 -24t-169.5 -15q-260 0 -384 124.5t-124 371.5zM434 690h496l4 19q3 19 6.5 46t3.5 48q0 82 -50.5 127t-150.5 45q-59 0 -107.5 -17t-80.5 -43.5t-57 -65.5t-39 -76.5t-25 -82.5zM481 1419q0 58 34 92.5t95 34.5q47 0 72 -24.5t25 -67.5 q0 -57 -34 -92t-93 -35q-48 0 -73.5 25t-25.5 67zM901 1421q0 57 34.5 91t94.5 34q47 0 72.5 -24.5t25.5 -67.5q0 -56 -35.5 -91.5t-93.5 -35.5q-47 0 -72.5 25.5t-25.5 68.5z" />
<glyph unicode="&#xec;" horiz-adv-x="532" d="M154 0l159 1133h226l-160 -1133h-225zM229 1516l123 131l275 -269l-103 -110z" />
<glyph unicode="&#xed;" horiz-adv-x="532" d="M154 0l159 1133h226l-160 -1133h-225zM344 1378l350 269l84 -131l-362 -248z" />
<glyph unicode="&#xee;" horiz-adv-x="532" d="M152 1366l346 268l268 -268l-98 -98l-199 172l-250 -172zM154 0l159 1133h226l-160 -1133h-225z" />
<glyph unicode="&#xef;" horiz-adv-x="532" d="M145 1419q0 58 34 92.5t95 34.5q47 0 72 -24.5t25 -67.5q0 -56 -34.5 -91.5t-92.5 -35.5q-48 0 -73.5 25t-25.5 67zM154 0l159 1133h226l-160 -1133h-225zM565 1419q0 57 34.5 92t94.5 35q47 0 73 -24.5t26 -67.5q0 -56 -35 -91.5t-94 -35.5q-47 0 -73 25t-26 67z" />
<glyph unicode="&#xf0;" horiz-adv-x="1232" d="M176 428q0 145 29.5 263.5t80.5 198t120 133.5t146 78.5t161 24.5q112 0 221 -41q-41 109 -107 181l-94 -82l-94 110l74 64q-98 54 -228 61l45 164q166 -8 326 -102l160 137l94 -111l-135 -116q237 -216 237 -605q0 -133 -19.5 -250t-63 -221t-109.5 -178.5t-164 -118 t-221 -43.5q-459 0 -459 453zM401 432q0 -268 244 -268q54 0 99.5 17.5t78 45t58.5 70t42.5 83t28.5 93.5t17.5 92.5t9 89t4 74t0.5 55.5q0 58 -6 111q-105 55 -217 55q-54 0 -103 -14.5t-96.5 -52t-82 -94.5t-56 -148.5t-21.5 -208.5z" />
<glyph unicode="&#xf1;" horiz-adv-x="1255" d="M154 0l149 1065q24 10 66.5 25.5t169 41t247.5 25.5q220 0 327.5 -79.5t107.5 -266.5q0 -55 -9 -119l-98 -692h-227l100 711q4 25 4 67q0 62 -19 102t-56 58.5t-74.5 24.5t-91.5 6q-62 0 -122 -8.5t-89 -16.5l-29 -8l-131 -936h-225zM481 1358q2 8 6.5 21t23 46.5t41 59 t62.5 46.5t86 21q39 0 74 -15.5t56 -34.5t48 -34.5t52 -15.5q34 0 61 25t37 50l10 25l103 -61q-2 -8 -7.5 -21.5t-24.5 -47.5t-42.5 -59.5t-63.5 -47t-85 -21.5q-37 0 -70.5 16t-55 34.5t-48.5 34.5t-52 16q-36 0 -63.5 -25.5t-36.5 -50.5l-10 -25z" />
<glyph unicode="&#xf2;" horiz-adv-x="1224" d="M176 426q0 121 20 228t64 200t109 159.5t160 105t212 38.5q461 0 461 -457q0 -105 -18 -204.5t-61 -195.5t-106.5 -167t-162 -114.5t-219.5 -43.5q-459 0 -459 451zM401 432q0 -268 246 -268q75 0 134 34.5t95.5 88.5t60.5 126.5t33 142t9 140.5q0 273 -246 273 q-65 0 -117.5 -24t-86.5 -60.5t-59 -89t-38 -100t-20.5 -104t-9 -90.5t-1.5 -69zM539 1516l123 131l274 -269l-100 -110z" />
<glyph unicode="&#xf3;" horiz-adv-x="1224" d="M176 426q0 121 20 228t64 200t109 159.5t160 105t212 38.5q461 0 461 -457q0 -105 -18 -204.5t-61 -195.5t-106.5 -167t-162 -114.5t-219.5 -43.5q-459 0 -459 451zM401 432q0 -268 246 -268q75 0 134 34.5t95.5 88.5t60.5 126.5t33 142t9 140.5q0 273 -246 273 q-65 0 -117.5 -24t-86.5 -60.5t-59 -89t-38 -100t-20.5 -104t-9 -90.5t-1.5 -69zM637 1378l350 269l86 -131l-364 -248z" />
<glyph unicode="&#xf4;" horiz-adv-x="1224" d="M176 426q0 121 20 228t64 200t109 159.5t160 105t212 38.5q461 0 461 -457q0 -105 -18 -204.5t-61 -195.5t-106.5 -167t-162 -114.5t-219.5 -43.5q-459 0 -459 451zM401 432q0 -268 246 -268q75 0 134 34.5t95.5 88.5t60.5 126.5t33 142t9 140.5q0 273 -246 273 q-65 0 -117.5 -24t-86.5 -60.5t-59 -89t-38 -100t-20.5 -104t-9 -90.5t-1.5 -69zM496 1366l344 268l268 -268l-98 -98l-199 172l-246 -172z" />
<glyph unicode="&#xf5;" horiz-adv-x="1224" d="M176 426q0 121 20 228t64 200t109 159.5t160 105t212 38.5q461 0 461 -457q0 -105 -18 -204.5t-61 -195.5t-106.5 -167t-162 -114.5t-219.5 -43.5q-459 0 -459 451zM401 432q0 -268 246 -268q75 0 134 34.5t95.5 88.5t60.5 126.5t33 142t9 140.5q0 273 -246 273 q-65 0 -117.5 -24t-86.5 -60.5t-59 -89t-38 -100t-20.5 -104t-9 -90.5t-1.5 -69zM463 1358q2 8 7 21t23.5 46.5t41 59t63 46.5t86.5 21q48 0 88.5 -25t74 -50t64.5 -25q34 0 61.5 25t38.5 50l11 25l102 -61q-2 -8 -7.5 -21.5t-24.5 -47.5t-42.5 -59.5t-64 -47t-86.5 -21.5 q-37 0 -70 16t-54 34.5t-48 34.5t-53 16q-35 0 -62.5 -25.5t-37.5 -50.5l-11 -25z" />
<glyph unicode="&#xf6;" horiz-adv-x="1224" d="M176 426q0 121 20 228t64 200t109 159.5t160 105t212 38.5q461 0 461 -457q0 -105 -18 -204.5t-61 -195.5t-106.5 -167t-162 -114.5t-219.5 -43.5q-459 0 -459 451zM401 432q0 -268 246 -268q75 0 134 34.5t95.5 88.5t60.5 126.5t33 142t9 140.5q0 273 -246 273 q-65 0 -117.5 -24t-86.5 -60.5t-59 -89t-38 -100t-20.5 -104t-9 -90.5t-1.5 -69zM489 1419q0 58 34 92.5t93 34.5q49 0 74 -24t25 -68q0 -57 -34.5 -92t-94.5 -35q-46 0 -71.5 25t-25.5 67zM909 1419q0 58 34 92.5t95 34.5q47 0 72 -24.5t25 -67.5q0 -56 -34.5 -91.5 t-92.5 -35.5q-48 0 -73.5 25t-25.5 67z" />
<glyph unicode="&#xf7;" horiz-adv-x="1193" d="M219 528l19 142h905l-19 -142h-905zM506 188q0 62 35.5 100t101.5 38q49 0 75.5 -27.5t26.5 -71.5q0 -64 -36.5 -101.5t-100.5 -37.5q-51 0 -76.5 27t-25.5 73zM612 946q0 63 36 101t102 38q50 0 77 -27.5t27 -72.5q0 -62 -36.5 -99.5t-100.5 -37.5q-51 0 -78 26.5 t-27 71.5z" />
<glyph unicode="&#xf8;" horiz-adv-x="1224" d="M176 426q0 121 20 228t64 200t109 159.5t160 105t212 38.5q82 0 154 -16l94 174l160 -72l-94 -172q147 -114 147 -371q0 -105 -18 -204.5t-61 -195.5t-106.5 -167t-162 -114.5t-219.5 -43.5q-94 0 -168 19l-102 -187l-156 74l102 189q-135 110 -135 356zM401 432 q0 -88 27 -149l369 680q-27 6 -64 6q-65 0 -117.5 -24t-86.5 -60.5t-59 -89t-38 -100t-20.5 -104t-9 -90.5t-1.5 -69zM563 172q33 -8 84 -8q75 0 134 34.5t95.5 88.5t60.5 126.5t33 142t9 140.5q0 107 -37 170z" />
<glyph unicode="&#xf9;" horiz-adv-x="1249" d="M195 322q0 61 8 118l96 693h227l-100 -711q-4 -25 -4 -66q0 -50 14 -86t35 -56t55 -31.5t65 -15t73 -3.5q62 0 121.5 8t88.5 16l29 9l131 936h226l-150 -1065q-9 -4 -24.5 -10t-66.5 -22t-104.5 -28.5t-132.5 -22.5t-155 -10q-219 0 -325.5 79.5t-106.5 267.5zM590 1516 l123 131l274 -269l-100 -110z" />
<glyph unicode="&#xfa;" horiz-adv-x="1249" d="M195 322q0 61 8 118l96 693h227l-100 -711q-4 -25 -4 -66q0 -50 14 -86t35 -56t55 -31.5t65 -15t73 -3.5q62 0 121.5 8t88.5 16l29 9l131 936h226l-150 -1065q-9 -4 -24.5 -10t-66.5 -22t-104.5 -28.5t-132.5 -22.5t-155 -10q-219 0 -325.5 79.5t-106.5 267.5zM680 1378 l350 269l84 -131l-364 -248z" />
<glyph unicode="&#xfb;" horiz-adv-x="1249" d="M195 322q0 61 8 118l96 693h227l-100 -711q-4 -25 -4 -66q0 -50 14 -86t35 -56t55 -31.5t65 -15t73 -3.5q62 0 121.5 8t88.5 16l29 9l131 936h226l-150 -1065q-9 -4 -24.5 -10t-66.5 -22t-104.5 -28.5t-132.5 -22.5t-155 -10q-219 0 -325.5 79.5t-106.5 267.5zM506 1366 l342 268l270 -268l-98 -98l-199 172l-248 -172z" />
<glyph unicode="&#xfc;" horiz-adv-x="1249" d="M195 322q0 61 8 118l96 693h227l-100 -711q-4 -25 -4 -66q0 -50 14 -86t35 -56t55 -31.5t65 -15t73 -3.5q62 0 121.5 8t88.5 16l29 9l131 936h226l-150 -1065q-9 -4 -24.5 -10t-66.5 -22t-104.5 -28.5t-132.5 -22.5t-155 -10q-219 0 -325.5 79.5t-106.5 267.5zM506 1419 q0 58 34 92.5t93 34.5q49 0 73.5 -24t24.5 -68q0 -57 -34.5 -92t-94.5 -35q-46 0 -71 25t-25 67zM926 1421q0 57 35 91t94 34q47 0 71.5 -24.5t24.5 -67.5q0 -56 -34.5 -91.5t-92.5 -35.5q-47 0 -72.5 25.5t-25.5 68.5z" />
<glyph unicode="&#xfd;" horiz-adv-x="1249" d="M195 326q0 59 8 114l96 693h227l-100 -711q-4 -23 -4 -64q0 -50 14.5 -85.5t35.5 -55t55.5 -30.5t64 -14t70.5 -3q68 0 128.5 8t87.5 16l27 9l131 930h226l-148 -1047q-18 -130 -58.5 -226t-110 -167t-175.5 -106.5t-248 -35.5q-86 0 -164 14t-114 28l-35 14l51 176 q11 -5 32 -13t90 -21t142 -13q167 0 256 77t113 203q-127 -30 -264 -30q-219 0 -326.5 77.5t-107.5 262.5zM680 1378l354 269l82 -131l-362 -248z" />
<glyph unicode="&#xfe;" horiz-adv-x="1234" d="M92 -426l279 1982h227l-59 -434q128 35 217 35q234 0 345 -115t111 -348q0 -161 -37.5 -291.5t-110.5 -226.5t-190 -148.5t-268 -52.5q-92 0 -225 35l-62 -436h-227zM408 195q85 -31 206 -31q101 0 176 42.5t116.5 117t61 163t19.5 193.5q0 142 -61 215.5t-199 73.5 q-133 0 -215 -33z" />
<glyph unicode="&#xff;" horiz-adv-x="1249" d="M195 326q0 59 8 114l96 693h227l-100 -711q-4 -23 -4 -64q0 -50 14.5 -85.5t35.5 -55t55.5 -30.5t64 -14t70.5 -3q68 0 128.5 8t87.5 16l27 9l131 930h226l-148 -1047q-18 -130 -58.5 -226t-110 -167t-175.5 -106.5t-248 -35.5q-86 0 -164 14t-114 28l-35 14l51 176 q11 -5 32 -13t90 -21t142 -13q167 0 256 77t113 203q-127 -30 -264 -30q-219 0 -326.5 77.5t-107.5 262.5zM506 1419q0 57 35 92t94 35q49 0 73.5 -24t24.5 -68q0 -57 -34.5 -92t-96.5 -35q-45 0 -70.5 25t-25.5 67zM926 1421q0 57 35 91t94 34q96 0 96 -92q0 -57 -34 -92 t-93 -35q-47 0 -72.5 25.5t-25.5 68.5z" />
<glyph unicode="&#x11e;" horiz-adv-x="1323" d="M195 569q0 147 28 280t88.5 249t147.5 200t213 132.5t278 48.5q109 0 211.5 -20.5t150.5 -40.5l48 -21l-72 -178q-14 7 -39.5 17.5t-109.5 28t-172 17.5q-95 0 -174 -26t-133.5 -68t-96.5 -102t-66.5 -121.5t-40 -133t-21 -130.5t-5.5 -119q0 -412 404 -412q80 0 147 12 l86 584h223l-108 -746q-12 -4 -51 -13t-128 -20.5t-174 -11.5q-171 0 -296 44.5t-197.5 126.5t-106.5 186.5t-34 236.5zM692 1822v15l125 43v-8.5t3 -21.5t7.5 -30.5t16 -32.5t26.5 -30.5t40.5 -21.5t56.5 -9q44 0 79.5 16t55 38.5t33 45t17.5 38.5l5 16l115 -43 q-1 -5 -4 -14.5t-15 -37t-27 -52t-42 -55t-59 -52t-79 -36.5t-100 -15q-54 0 -97 14.5t-69 37.5t-44.5 51t-26.5 56t-12.5 51t-4.5 37z" />
<glyph unicode="&#x11f;" horiz-adv-x="1230" d="M176 440q0 127 22.5 234.5t71.5 197.5t121 152.5t176 97.5t232 35q111 0 218 -23t159 -46l51 -23l-140 -977q-18 -130 -57 -225.5t-107.5 -168t-175.5 -109t-253 -36.5q-86 0 -161 14.5t-107 28.5l-33 15l49 178q11 -5 31.5 -13.5t87.5 -22t137 -13.5q163 0 253.5 78 t114.5 204q-106 -32 -248 -32q-222 0 -332 112t-110 342zM401 455q0 -142 61 -213.5t197 -71.5q122 0 218 31l102 733q-82 35 -203 35q-174 0 -274.5 -130.5t-100.5 -383.5zM567 1534v14l125 45v-8.5t3 -22t7.5 -31t16 -32.5t26.5 -30.5t40.5 -21.5t56.5 -9q44 0 79.5 16 t55 39t33 45.5t18.5 38.5l4 16l117 -45q-1 -5 -4 -14.5t-15 -36.5t-27 -51.5t-42 -54.5t-59 -51.5t-79.5 -36.5t-101.5 -15t-97 14.5t-69 37.5t-44.5 50.5t-26.5 55t-12.5 50.5t-4.5 38z" />
<glyph unicode="&#x130;" horiz-adv-x="569" d="M170 0l205 1454h229l-203 -1454h-231zM412 1747q0 59 37.5 96t101.5 37q50 0 77 -26.5t27 -71.5q0 -61 -36.5 -97t-100.5 -36q-51 0 -78.5 26.5t-27.5 71.5z" />
<glyph unicode="&#x131;" horiz-adv-x="532" d="M154 0l159 1133h226l-160 -1133h-225z" />
<glyph unicode="&#x15e;" horiz-adv-x="1206" d="M164 57l63 185q18 -8 51 -19.5t129.5 -31t186.5 -19.5q161 0 252.5 58t91.5 167q0 30 -9 56.5t-20 45.5t-37 39t-44 31.5t-57.5 28t-60 24.5t-69.5 25q-47 17 -80.5 30.5t-76.5 35t-73 43.5t-61.5 53.5t-50.5 66.5t-31 82t-12 101q0 90 31.5 162.5t83.5 120t124 79 t150 45t164 13.5q118 0 224 -22t153 -44l47 -22l-66 -174l-41 16q-40 16 -128.5 34.5t-182.5 18.5q-46 0 -88 -5t-87 -19t-78 -36.5t-54 -60t-21 -86.5q0 -37 13.5 -67.5t33 -51.5t54.5 -41t64.5 -32t76.5 -29q78 -27 130.5 -48.5t107 -50.5t88 -59.5t61.5 -70.5t40.5 -89.5 t12.5 -111.5q0 -208 -137.5 -322.5t-376.5 -125.5l-32 -89q21 3 41 3q81 0 131.5 -35t50.5 -105q0 -90 -71 -147.5t-212 -57.5q-55 0 -101.5 10.5t-65.5 20.5l-19 10l41 111q50 -31 135 -31q131 0 131 86q0 68 -111 68q-75 0 -120 -17l67 173q-95 6 -184 25.5t-130 35.5z " />
<glyph unicode="&#x15f;" horiz-adv-x="1036" d="M143 43l47 176q16 -7 45 -16.5t113 -26t162 -16.5q122 0 185 37.5t63 103.5q0 17 -3.5 32t-14 29t-18 23.5t-28 21.5t-30 18.5t-38.5 18.5t-39.5 16.5t-45.5 18.5q-47 19 -72.5 30t-65.5 31t-62.5 36.5t-50 43t-41.5 54.5t-24 65.5t-10 81.5q0 91 39.5 158.5t107 105 t146 55t168.5 17.5q82 0 168.5 -13.5t130.5 -26t55 -17.5l-53 -178q-15 6 -42 14.5t-103.5 22.5t-145.5 14q-42 0 -82.5 -6.5t-81 -21.5t-65.5 -44.5t-25 -69.5t31.5 -70.5t65 -45.5t108.5 -42q5 -2 8 -3q38 -14 61.5 -23t58.5 -24.5t57.5 -30t50 -35.5t44 -44t32.5 -52 t23 -65t7 -77q0 -162 -110.5 -246.5t-301.5 -95.5l-32 -86q21 3 40 3q80 0 131.5 -35t51.5 -105q0 -90 -71 -147.5t-210 -57.5q-56 0 -103.5 10.5t-67.5 20.5l-19 10l41 111q62 -31 135 -31q135 0 135 86q0 68 -113 68q-72 0 -123 -17l70 173q-76 5 -148 20.5t-106.5 27.5 t-34.5 15z" />
<glyph unicode="&#x192;" horiz-adv-x="1148" d="M-104 -424l51 180q38 -16 116 -16q97 0 159 40t87 140l209 858h-223l41 174h225l64 254q23 91 61.5 159.5t83 109.5t101.5 66t110.5 33.5t116.5 8.5q103 0 172 -24l-56 -177q-44 15 -116 15q-202 0 -246 -180l-66 -265h312l-43 -174h-310l-206 -852q-93 -377 -467 -377 q-57 0 -107.5 9.5t-68.5 17.5z" />
<glyph unicode="&#x2c6;" horiz-adv-x="860" d="M315 1366l344 268l269 -268l-99 -98l-196 172l-248 -172z" />
<glyph unicode="&#x2da;" horiz-adv-x="702" d="M336 1442q0 108 70 171.5t182 63.5q89 0 140.5 -46t51.5 -128q0 -108 -70 -171.5t-180 -63.5q-90 0 -142 46t-52 128zM459 1454q0 -40 22.5 -63t63.5 -23q52 0 82 33t30 90q0 40 -21.5 63t-60.5 23q-53 0 -84.5 -33t-31.5 -90z" />
<glyph unicode="&#x2dc;" horiz-adv-x="888" d="M315 1358q2 8 6.5 21t23 46.5t41 59t63 46.5t86.5 21q49 0 90.5 -25t75.5 -50t65 -25q34 0 60.5 25t35.5 50l10 25l103 -61q-2 -8 -7.5 -21.5t-24.5 -47.5t-42.5 -59.5t-63.5 -47t-85 -21.5q-37 0 -70.5 16t-55 34.5t-48.5 34.5t-52 16q-36 0 -63.5 -25.5t-36.5 -50.5 l-10 -25z" />
<glyph unicode="&#x3a9;" horiz-adv-x="1486" d="M109 0l22 170h311q-84 74 -143 209.5t-59 312.5q0 116 23.5 225.5t78 212.5t134.5 179.5t202 123t272 46.5q112 0 202 -30t149.5 -81.5t99 -123t57 -151t17.5 -169.5q0 -135 -29.5 -256.5t-81 -214.5t-112.5 -163t-132 -120h279l-23 -170h-557l21 143q8 4 22.5 11.5 t55.5 38t78.5 68t83.5 102t79 139t55.5 181.5t22.5 226q0 56 -8 106.5t-29.5 102t-55 88.5t-89.5 60.5t-129 23.5q-96 0 -174 -34.5t-130 -93t-87 -140t-50.5 -172.5t-15.5 -193q0 -106 21.5 -197t50.5 -145.5t63 -95.5t54.5 -57t29.5 -19l-20 -143h-559z" />
<glyph unicode="&#x3c0;" horiz-adv-x="1640" d="M229 948l25 185h1425l-24 -185h-318l-77 -565q-7 -47 -7 -72q0 -70 32.5 -104.5t103.5 -34.5q34 0 65 7t45 13l14 7l9 -174q-8 -6 -23.5 -14t-69.5 -22t-114 -14q-291 0 -291 301q0 55 8 107l78 565h-371l-133 -948h-225l133 948h-285z" />
<glyph unicode="&#x2000;" horiz-adv-x="1208" />
<glyph unicode="&#x2001;" horiz-adv-x="2417" />
<glyph unicode="&#x2002;" horiz-adv-x="1208" />
<glyph unicode="&#x2003;" horiz-adv-x="2417" />
<glyph unicode="&#x2004;" horiz-adv-x="805" />
<glyph unicode="&#x2005;" horiz-adv-x="604" />
<glyph unicode="&#x2006;" horiz-adv-x="402" />
<glyph unicode="&#x2007;" horiz-adv-x="402" />
<glyph unicode="&#x2008;" horiz-adv-x="302" />
<glyph unicode="&#x2009;" horiz-adv-x="159" />
<glyph unicode="&#x200a;" horiz-adv-x="134" />
<glyph unicode="&#x2010;" horiz-adv-x="894" d="M209 508l24 178h621l-25 -178h-620z" />
<glyph unicode="&#x2011;" horiz-adv-x="894" d="M209 508l24 178h621l-25 -178h-620z" />
<glyph unicode="&#x2012;" horiz-adv-x="894" d="M209 508l24 178h621l-25 -178h-620z" />
<glyph unicode="&#x2013;" horiz-adv-x="1200" d="M217 508l25 178h909l-25 -178h-909z" />
<glyph unicode="&#x2014;" horiz-adv-x="1505" d="M217 508l25 178h1212l-24 -178h-1213z" />
<glyph unicode="&#x2018;" horiz-adv-x="532" d="M274 1067q0 49 50 162.5t100 202.5l51 88l127 -47q-33 -76 -76.5 -246t-46.5 -219q-53 -31 -108 -31q-43 0 -70 23.5t-27 66.5z" />
<glyph unicode="&#x2019;" horiz-adv-x="532" d="M285 1022q31 76 74.5 246.5t46.5 218.5q51 33 108 33q42 0 69 -24t27 -66q0 -50 -50 -163.5t-100 -201.5l-50 -88z" />
<glyph unicode="&#x201a;" horiz-adv-x="532" d="M78 -252q33 76 76.5 245.5t46.5 219.5q51 31 108 31q43 0 70 -23t27 -65q0 -50 -50 -164t-100 -202l-51 -89z" />
<glyph unicode="&#x201c;" horiz-adv-x="860" d="M299 1067q0 49 50 162.5t101 202.5l50 88l127 -47q-32 -77 -76 -247.5t-47 -217.5q-52 -31 -109 -31q-43 0 -69.5 23.5t-26.5 66.5zM625 1067q0 50 49.5 163.5t99.5 201.5l49 88l127 -47q-31 -75 -74.5 -245t-48.5 -220q-49 -31 -106 -31q-43 0 -69.5 23.5t-26.5 66.5z " />
<glyph unicode="&#x201d;" horiz-adv-x="860" d="M258 1022q32 74 76 244t49 221q49 33 106 33q42 0 69.5 -24t27.5 -66q0 -50 -50 -163.5t-100 -201.5l-51 -88zM584 1022q31 75 74.5 245t48.5 220q53 33 108 33q42 0 69 -24t27 -66q0 -50 -50.5 -163.5t-100.5 -201.5l-51 -88z" />
<glyph unicode="&#x201e;" horiz-adv-x="860" d="M78 -252q32 75 76 244t49 221q49 31 106 31q43 0 70 -23t27 -65q0 -32 -20.5 -91t-50 -119.5t-59.5 -117t-50 -92.5l-21 -35zM403 -252q31 75 74.5 244.5t48.5 220.5q52 31 109 31q43 0 69.5 -23t26.5 -65q0 -50 -51 -164t-102 -202l-50 -89z" />
<glyph unicode="&#x2026;" horiz-adv-x="1675" d="M152 90q0 73 40.5 118.5t116.5 45.5q59 0 95 -29t36 -84q0 -73 -41.5 -119.5t-115.5 -46.5q-63 0 -97 30.5t-34 84.5zM711 90q0 73 40.5 118.5t114.5 45.5q60 0 95.5 -29t35.5 -84q0 -73 -40.5 -119.5t-114.5 -46.5q-65 0 -98 30.5t-33 84.5zM1268 90q0 73 41.5 118.5 t115.5 45.5q60 0 95.5 -29t35.5 -84q0 -73 -41 -119.5t-116 -46.5q-63 0 -97 30.5t-34 84.5z" />
<glyph unicode="&#x202f;" horiz-adv-x="483" />
<glyph unicode="&#x2030;" horiz-adv-x="2424" d="M256 1047q0 79 21 153.5t62 138t111 102t160 38.5q75 0 131 -24t88.5 -66t48 -93.5t15.5 -113.5q0 -63 -12 -122.5t-39.5 -116t-68 -98.5t-102 -67.5t-136.5 -25.5q-137 0 -208 79t-71 216zM410 1044q0 -169 133 -172q97 0 146.5 87.5t49.5 226.5q0 78 -31.5 124 t-99.5 46q-97 0 -147.5 -86.5t-50.5 -225.5zM475 35l819 1444l115 -58l-821 -1446zM997 270q0 63 13 123.5t41 117t68.5 98.5t100.5 67.5t132 25.5q76 0 132 -23.5t88 -65.5t47 -93.5t15 -113.5q0 -79 -20 -152.5t-60.5 -137.5t-111.5 -102.5t-164 -38.5q-137 0 -209 79.5 t-72 215.5zM1151 268q0 -77 32.5 -123.5t100.5 -46.5q98 0 147.5 86.5t49.5 225.5q0 170 -129 170q-99 0 -150 -86.5t-51 -225.5zM1737 270q0 80 21 154.5t62.5 138t111.5 101.5t159 38q76 0 132 -23.5t88 -65.5t47.5 -93.5t15.5 -113.5q0 -79 -20 -152.5t-61 -137.5 t-112 -102.5t-164 -38.5q-137 0 -208.5 79.5t-71.5 215.5zM1890 268q0 -77 32.5 -123.5t100.5 -46.5q98 0 147.5 86.5t49.5 225.5q0 170 -131 170q-97 0 -148 -86.5t-51 -225.5z" />
<glyph unicode="&#x2039;" horiz-adv-x="792" d="M217 575l408 447l137 -100l-309 -347l213 -346l-166 -100z" />
<glyph unicode="&#x203a;" horiz-adv-x="792" d="M190 229l310 346l-211 347l164 100l282 -447l-409 -446z" />
<glyph unicode="&#x2044;" horiz-adv-x="565" d="M-84 23l827 1456l109 -49l-827 -1457z" />
<glyph unicode="&#x205f;" horiz-adv-x="604" />
<glyph unicode="&#x2070;" horiz-adv-x="874" d="M254 1006q0 84 11.5 160.5t40.5 152t73.5 130t116 88.5t161.5 34q77 0 132.5 -24.5t86.5 -69.5t45.5 -100.5t14.5 -125.5q0 -86 -12 -164t-40.5 -152.5t-71 -128.5t-110 -87t-151.5 -33q-160 0 -228.5 85t-68.5 235zM408 985q0 -80 31.5 -126t111.5 -46q58 0 101.5 31.5 t67.5 78.5t38.5 112.5t19 120.5t4.5 116q0 79 -31.5 124t-111.5 48q-49 0 -88 -21t-63 -59.5t-41 -82.5t-25 -99.5t-11 -101t-3 -95.5z" />
<glyph unicode="&#x2074;" horiz-adv-x="804" d="M215 891l14 129l428 536h160l-76 -538h113l-18 -127h-113l-27 -191h-157l26 191h-350zM362 1018h222l45 334z" />
<glyph unicode="&#x2075;" horiz-adv-x="780" d="M217 737l43 117q72 -41 186 -41q94 0 150.5 49t56.5 137q0 69 -43 104.5t-125 35.5q-103 0 -190 -33l90 450h457l-17 -124h-317l-37 -183q41 6 78 6q127 0 196.5 -60.5t69.5 -172.5q0 -146 -93 -241t-265 -95q-141 0 -240 51z" />
<glyph unicode="&#x2076;" horiz-adv-x="817" d="M250 1020q0 71 11.5 141.5t41 146t75 132.5t120 94t168.5 37q63 0 115 -15t73 -30l20 -15l-57 -108q-6 5 -18 11.5t-50 18t-79 11.5q-193 0 -244 -225q85 38 174 38q123 0 186.5 -66.5t63.5 -180.5q0 -140 -89 -232t-237 -92q-139 0 -206.5 89t-67.5 245zM406 985 q0 -170 129 -170q57 0 94 32t50 72.5t13 86.5q0 124 -127 124q-75 0 -157 -40q-2 -39 -2 -105z" />
<glyph unicode="&#x2077;" horiz-adv-x="727" d="M281 700l378 727h-360l18 129h541l-12 -92l-397 -764h-168z" />
<glyph unicode="&#x2078;" horiz-adv-x="845" d="M233 909q0 88 53 151t126 101q-90 62 -90 170q0 113 84.5 176.5t220.5 63.5q53 0 99.5 -10t88 -32t66 -62.5t24.5 -94.5q0 -143 -160 -233q63 -33 95 -77t32 -114q0 -124 -95 -194t-247 -70q-138 0 -217.5 60.5t-79.5 164.5zM393 920q0 -58 37.5 -87.5t106.5 -29.5 q78 0 128 35.5t50 99.5q0 28 -9 49t-32.5 37.5t-40 25t-56.5 24.5t-57 24q-50 -23 -88.5 -68.5t-38.5 -109.5zM471 1335q0 -19 4 -34t14.5 -28t19 -21.5t28 -18t30 -14.5t36.5 -15.5t38 -15.5q43 26 78 70t35 96q0 95 -127 98q-72 0 -114 -29t-42 -88z" />
<glyph unicode="&#x2079;" horiz-adv-x="817" d="M258 748l57 108q7 -5 19 -11.5t50.5 -18t78.5 -11.5q192 0 246 223q-76 -39 -174 -39q-122 0 -187 68t-65 182q0 140 88.5 231t236.5 91q140 0 208.5 -88.5t68.5 -245.5q0 -57 -8.5 -115.5t-26.5 -122.5t-51 -118.5t-77.5 -99t-110 -70t-144.5 -25.5q-62 0 -114 15.5 t-73 30.5zM442 1251q0 -123 125 -123q69 0 158 39q4 78 4 107q0 170 -131 170q-42 0 -74 -18t-49 -47.5t-25 -61.5t-8 -66z" />
<glyph unicode="&#x207f;" horiz-adv-x="878" d="M186 614l105 736q58 32 155 53.5t203 21.5q150 0 225.5 -57.5t75.5 -189.5q0 -34 -6 -78l-67 -486h-175l70 498q4 36 4 47q0 41 -12 68t-35 39t-44.5 16t-51.5 4q-50 0 -95.5 -6.5t-65.5 -13.5l-21 -6l-93 -646h-172z" />
<glyph unicode="&#x2080;" horiz-adv-x="874" d="M111 -18q0 84 11.5 160.5t40.5 152t74 130t116.5 88.5t162.5 34q147 0 212 -87t65 -233q0 -86 -11.5 -163.5t-40 -152.5t-71 -129t-110 -87t-152.5 -33q-160 0 -228.5 85t-68.5 235zM264 -39q0 -172 144 -172q58 0 101.5 31.5t67.5 78.5t38.5 112.5t19 120.5t4.5 116 q0 79 -31.5 124t-111.5 48q-49 0 -88 -21t-63.5 -59.5t-41.5 -82.5t-25 -99.5t-11 -101t-3 -95.5z" />
<glyph unicode="&#x2081;" horiz-adv-x="532" d="M125 420l223 112h127l-119 -856h-149l100 719l-147 -76z" />
<glyph unicode="&#x2082;" horiz-adv-x="763" d="M68 -324l18 125l291 256q98 86 134 140.5t36 107.5q0 54 -34 84.5t-105 30.5q-46 0 -96 -15.5t-76 -30.5l-27 -16l-45 105q4 3 12.5 9t36.5 20.5t58 25.5t76.5 20t94.5 9q119 0 192 -61.5t73 -161.5q0 -81 -48 -166t-172 -191l-190 -164h338l-19 -127h-548z" />
<glyph unicode="&#x2083;" horiz-adv-x="770" d="M63 -289l43 115q70 -37 187 -37q205 0 205 152q0 70 -43.5 96t-137.5 26q-14 0 -29.5 -0.5t-26.5 -1t-13 -0.5l16 123h68q93 0 151 37.5t58 104.5q0 47 -34 70.5t-110 23.5q-67 0 -120 -14.5t-74 -26.5l-27 115q12 6 34 15t88.5 23.5t131.5 14.5q131 0 197.5 -52 t66.5 -143q0 -76 -44 -130.5t-128 -82.5q137 -50 137 -194q0 -130 -93.5 -206.5t-266.5 -76.5q-68 0 -127 12t-84 24z" />
<glyph unicode="&#x2084;" horiz-adv-x="804" d="M68 -133l14 129l430 536h158l-76 -538h113l-19 -127h-113l-26 -191h-158l27 191h-350zM215 -6h221l45 334z" />
<glyph unicode="&#x2085;" horiz-adv-x="780" d="M74 -287l43 117q72 -41 184 -41q94 0 151.5 49t57.5 137q0 69 -43 104.5t-125 35.5q-103 0 -190 -33l90 450h456l-16 -124h-317l-37 -183q32 6 69 6q128 0 201.5 -61t73.5 -172q0 -146 -93 -241t-266 -95q-134 0 -239 51z" />
<glyph unicode="&#x2086;" horiz-adv-x="798" d="M106 -4q0 71 11.5 141.5t41 146t75 132.5t120 94t168.5 37q63 0 115.5 -15t74.5 -30l21 -15l-59 -108q-6 5 -18 11.5t-50.5 18t-79.5 11.5q-192 0 -243 -225q85 38 174 38q123 0 186.5 -66.5t63.5 -180.5q0 -140 -89 -232t-237 -92q-140 0 -207.5 89t-67.5 245zM262 -39 q0 -170 129 -170q43 0 75.5 18t49.5 47.5t25 61t8 64.5q0 124 -127 124q-76 0 -158 -40q-2 -39 -2 -105z" />
<glyph unicode="&#x2087;" horiz-adv-x="716" d="M137 -324l379 727h-360l18 129h541l-13 -92l-397 -764h-168z" />
<glyph unicode="&#x2088;" horiz-adv-x="845" d="M92 -115q0 88 52.5 151.5t125.5 100.5q-90 62 -90 170q0 113 85 176.5t222 63.5q52 0 98.5 -10t88 -32t66 -62.5t24.5 -94.5q0 -143 -160 -233q63 -33 95 -77t32 -114q0 -124 -95 -194t-247 -70q-138 0 -217.5 60.5t-79.5 164.5zM252 -104q0 -58 37.5 -87.5t105.5 -29.5 q78 0 128 35.5t50 99.5q0 28 -9 49t-32.5 37.5t-39.5 25t-56 24.5t-57 24q-50 -23 -88.5 -68.5t-38.5 -109.5zM330 311q0 -19 4 -34t14.5 -28t19 -21t28.5 -18.5t30 -15t37.5 -15t38.5 -15.5q42 27 77 70.5t35 95.5q0 95 -129 98q-72 0 -113.5 -29t-41.5 -88z" />
<glyph unicode="&#x2089;" horiz-adv-x="817" d="M125 -276l45 108q6 -5 18 -11.5t50.5 -18t78.5 -11.5q191 0 246 223q-88 -39 -174 -39q-122 0 -187 68t-65 182q0 139 90 230.5t238 91.5q138 0 206 -88.5t68 -245.5q0 -70 -11 -140.5t-40.5 -146t-73.5 -133t-116.5 -94.5t-163.5 -37q-58 0 -110.5 15.5t-75.5 30.5z M297 227q0 -123 127 -123q80 0 156 39q4 78 4 107q0 170 -131 170q-42 0 -74 -18t-49 -47.5t-25 -61.5t-8 -66z" />
<glyph unicode="&#x20ac;" horiz-adv-x="1282" d="M172 506l18 125h136q3 105 20 200h-129l19 123h139q32 107 83 192.5t129.5 157t195.5 111t264 39.5q95 0 177.5 -17t117.5 -34l36 -17l-78 -163q-10 5 -28.5 13t-83 21t-135.5 13q-334 0 -445 -316h572l-58 -123h-547q-17 -88 -20 -200h475l-57 -125h-416 q30 -322 346 -322q65 0 129.5 11t96.5 23l32 11l33 -163q-13 -7 -38 -18t-110 -29.5t-180 -18.5q-109 0 -197 26t-148.5 71.5t-102.5 110t-63 138.5t-27 160h-156z" />
<glyph unicode="&#x2122;" horiz-adv-x="1136" d="M254 1346l14 98h389l-14 -98h-139l-55 -394h-111l55 394h-139zM643 952l111 492h131l61 -291l141 291h132l-33 -492h-105l23 348l-129 -272h-96l-54 275l-73 -351h-109z" />
<glyph unicode="&#x2190;" horiz-adv-x="1824" d="M217 725l830 727l104 -123l-588 -514h1223l-27 -182h-1218l440 -514l-139 -123z" />
<glyph unicode="&#x2191;" horiz-adv-x="1693" d="M223 752l832 727l624 -727l-141 -123l-440 514l-160 -1143h-182l157 1141l-585 -512z" />
<glyph unicode="&#x2192;" horiz-adv-x="1824" d="M242 635l26 182h1229l-446 526l135 111l624 -729l-829 -727l-113 125l584 512h-1210z" />
<glyph unicode="&#x2193;" horiz-adv-x="1693" d="M217 702l139 121l443 -516l159 1147h183l-156 -1122l576 506l112 -136l-831 -727z" />
<glyph unicode="&#x2202;" horiz-adv-x="1239" d="M143 334q0 242 155.5 394.5t406.5 152.5q169 0 305 -82q24 151 24 219q0 67 -12 121t-38 99.5t-73.5 71t-113.5 25.5q-59 0 -116.5 -17.5t-97.5 -42.5t-71.5 -50t-47.5 -43l-15 -17l-33 172q7 6 19.5 15.5t54.5 34t87.5 43t116 34t142.5 15.5q118 0 203.5 -39.5 t132.5 -109.5t68.5 -153t21.5 -184q0 -76 -10 -161t-34.5 -185.5t-62 -194t-97.5 -181.5t-134.5 -152.5t-179 -104t-226.5 -39.5q-186 0 -280.5 98.5t-94.5 260.5zM375 340q0 -42 9 -79t28.5 -70t56.5 -52.5t88 -19.5q70 0 132 32t106.5 83t82 123.5t62 143.5t43.5 152 q-125 90 -262 90q-60 0 -111 -17t-86 -44t-62 -63.5t-43 -74t-26.5 -77.5t-14 -70.5t-3.5 -56.5z" />
<glyph unicode="&#x2206;" horiz-adv-x="1529" d="M98 0l750 1454h244l338 -1454h-1332zM401 190h781l-246 1031z" />
<glyph unicode="&#x220f;" horiz-adv-x="1656" d="M270 1257l29 197h1468l-28 -197h-295l-211 -1503h-225l213 1503h-430l-211 -1503h-226l213 1503h-297z" />
<glyph unicode="&#x2211;" horiz-adv-x="1206" d="M100 -246l27 195l592 655l-408 656l29 194h936l-27 -190h-674l408 -660l-592 -659h674l-29 -191h-936z" />
<glyph unicode="&#x221a;" horiz-adv-x="1630" d="M186 754l467 143l178 -965l742 1624h221l-844 -1804h-288l-187 905l-264 -84z" />
<glyph unicode="&#x221e;" horiz-adv-x="1669" d="M197 629q0 86 34 157.5t89.5 117t123 70.5t136.5 25q61 0 120 -21.5t106 -57.5t80 -68.5t60 -67.5q232 215 420 215q126 0 209.5 -80.5t83.5 -209.5q0 -87 -34.5 -158.5t-90.5 -115.5t-123 -67.5t-135 -23.5q-63 0 -125 22t-108.5 57t-79 67.5t-52.5 62.5 q-79 -81 -192.5 -145t-229.5 -64q-125 0 -208.5 76.5t-83.5 208.5zM360 647q0 -67 44.5 -107t111.5 -40q134 0 307 170q-131 170 -264 170q-83 0 -141 -56.5t-58 -136.5zM1036 670q49 -70 115.5 -120t138.5 -50q86 0 147.5 52.5t61.5 139.5q0 68 -45.5 109t-114.5 41 q-135 -12 -303 -172z" />
<glyph unicode="&#x222b;" horiz-adv-x="976" d="M10 -412l58 181q3 -1 15 -6t24.5 -9t34 -8t44.5 -4q81 0 117.5 43.5t48.5 124.5l168 1206q52 363 385 363q53 0 99.5 -9.5t67.5 -19.5l20 -10l-58 -180q-2 0 -21 7.5t-44 13t-54 5.5q-82 0 -118.5 -43t-48.5 -125l-168 -1206q-49 -363 -385 -363q-52 0 -98 9.5t-67 19.5z " />
<glyph unicode="&#x2248;" horiz-adv-x="1165" d="M201 408q5 6 13.5 16t37.5 36t60 45.5t79 35.5t96 16q47 0 94.5 -17t79.5 -37t73 -37t77 -17q53 0 105 27t78 54l26 27l59 -117q-5 -6 -13.5 -16t-37.5 -35t-60 -44.5t-78 -35.5t-95 -16q-59 0 -115.5 26.5t-109 53t-99.5 26.5q-32 0 -65.5 -11t-57.5 -26.5t-44 -31 t-30 -26.5l-10 -11zM258 803q5 6 13.5 16t37 36t60 45.5t79 35.5t95.5 16q60 0 118 -27t110 -54t97 -27q53 0 104 27t76 54l25 27l64 -114q-5 -6 -13.5 -16t-37.5 -36t-60 -46t-78.5 -36t-95.5 -16q-47 0 -93.5 17t-78.5 37.5t-74 37.5t-80 17q-51 0 -102 -27.5t-76 -54.5 l-26 -27z" />
<glyph unicode="&#x2260;" horiz-adv-x="1153" d="M188 309l23 154h268l197 299h-424l20 153h504l174 263l109 -64l-131 -199h209l-21 -153h-291l-196 -299h446l-22 -154h-527l-180 -274l-108 61l139 213h-189z" />
<glyph unicode="&#x2264;" horiz-adv-x="1198" d="M154 0l20 150h868l-18 -150h-870zM250 680l22 160l854 383l43 -154l-686 -311l600 -309l-88 -154z" />
<glyph unicode="&#x2265;" horiz-adv-x="1198" d="M176 0l19 150h870l-21 -150h-868zM242 449l686 309l-600 311l86 154l749 -383l-22 -160l-858 -385z" />
<glyph unicode="&#x25fc;" horiz-adv-x="1136" d="M0 0v1137h1137v-1137h-1137z" />
<glyph unicode="&#xfb06;" horiz-adv-x="1853" d="M143 47l56 174q16 -7 44.5 -16.5t114.5 -26t170 -16.5q236 0 236 145q0 58 -50 92.5t-159 71.5q-77 25 -132.5 52t-103 65t-72 90.5t-24.5 118.5q0 82 26.5 145.5t70.5 103t106.5 65.5t127.5 36t140 10q88 0 174 -14q-53 60 -53 160q0 135 105 220t286 85q120 0 236 -40 t180 -91l-49 -344h330l-25 -185h-330l-78 -555q-6 -47 -6 -84q0 -74 34 -109.5t120 -35.5q40 0 80.5 7t61.5 15l20 7l10 -170q-9 -5 -26 -13t-74 -21.5t-121 -13.5q-159 0 -246.5 73t-87.5 239q0 54 8 106l139 991q0 2 -22.5 11t-69.5 18.5t-98 9.5q-98 0 -161.5 -43.5 t-63.5 -128.5q0 -44 21.5 -86.5t55.5 -62.5l-59 -176l-37 11q-37 11 -112 23.5t-150 12.5q-39 0 -76.5 -6t-76.5 -19.5t-63 -42t-24 -67.5q0 -20 6.5 -37t21.5 -31t29 -24.5t41 -23t44.5 -19l52.5 -19.5q42 -15 69 -25t67 -28.5t66 -35.5t56 -43t47.5 -54t29 -65.5 t11.5 -80.5q0 -99 -35 -173t-98.5 -118t-145 -65t-182.5 -21q-100 0 -195.5 18t-141.5 36z" />
<glyph horiz-adv-x="1196" d="M94 -391l53 174q12 -6 37 -15t117 -23.5t201 -14.5q342 0 342 174q0 29 -10.5 50.5t-25 33t-38.5 19t-43 10t-47 3.5l-295 19q-111 7 -160 62.5t-49 129.5q0 138 154 240q-129 90 -129 258q0 192 139.5 310t359.5 118q153 0 261 -63q53 53 131.5 94t175.5 41l55 -4 l-25 -181q-16 3 -47 3q-116 0 -196 -39q63 -81 63 -205q0 -188 -138.5 -301t-354.5 -113q-100 0 -183 25q-63 -49 -63 -107q0 -61 98 -67l266 -17q334 -23 334 -289q0 -179 -143 -282t-442 -103q-114 0 -213.5 15t-142.5 30zM426 737q0 -92 53.5 -139t153.5 -47 q124 0 193 66.5t69 183.5q0 192 -203 192q-132 0 -199 -74.5t-67 -181.5z" />
<glyph horiz-adv-x="1169" d="M10 -414l41 172q60 -22 146 -22q99 0 168.5 58t140.5 206h-82l-217 1133h227l166 -949l428 949h234l-523 -1115q-46 -97 -81.5 -161.5t-84 -128t-99 -99.5t-118 -58t-149.5 -22q-56 0 -105 9.5t-70 18.5z" />
<glyph horiz-adv-x="1196" d="M94 -391l53 174q12 -6 37 -15t117 -23.5t201 -14.5q342 0 342 174q0 29 -10.5 50.5t-25 33t-38.5 19t-43 10t-47 3.5l-295 19q-111 7 -160 62.5t-49 129.5q0 138 154 240q-129 90 -129 258q0 192 139.5 310t359.5 118q153 0 261 -63q53 53 131.5 94t175.5 41l55 -4 l-25 -181q-16 3 -47 3q-116 0 -196 -39q63 -81 63 -205q0 -188 -138.5 -301t-354.5 -113q-100 0 -183 25q-63 -49 -63 -107q0 -61 98 -67l266 -17q334 -23 334 -289q0 -179 -143 -282t-442 -103q-114 0 -213.5 15t-142.5 30zM426 737q0 -92 53.5 -139t153.5 -47 q124 0 193 66.5t69 183.5q0 192 -203 192q-132 0 -199 -74.5t-67 -181.5zM502 1534v14l127 45q0 -6 0.5 -16.5t7.5 -37.5t20.5 -47t44.5 -37t74 -17q44 0 80 16t56 39t34 45.5t18 38.5l5 16l114 -45q-3 -11 -8.5 -28.5t-30.5 -62t-58.5 -79t-94.5 -62.5t-135 -28 q-54 0 -97 14.5t-69 37.5t-44.5 50.5t-26.5 55t-12.5 50.5t-4.5 38z" />
<glyph horiz-adv-x="1146" d="M10 -414l41 172q60 -22 146 -22q99 0 168.5 58t140.5 206h-82l-217 1133h227l166 -949l428 949h234l-523 -1115q-46 -97 -81.5 -161.5t-84 -128t-99 -99.5t-118 -58t-149.5 -22q-56 0 -105 9.5t-70 18.5zM664 1378l350 269l88 -129l-367 -250z" />
<glyph horiz-adv-x="1146" d="M10 -414l41 172q60 -22 146 -22q99 0 168.5 58t140.5 206h-82l-217 1133h227l166 -949l428 949h234l-523 -1115q-46 -97 -81.5 -161.5t-84 -128t-99 -99.5t-118 -58t-149.5 -22q-56 0 -105 9.5t-70 18.5zM457 1419q0 58 34 92.5t95 34.5q47 0 72.5 -24.5t25.5 -67.5 q0 -57 -34.5 -92t-94.5 -35q-48 0 -73 24.5t-25 67.5zM879 1419q0 58 34 92.5t95 34.5q47 0 71.5 -24.5t24.5 -67.5q0 -56 -34.5 -91.5t-92.5 -35.5q-48 0 -73 24.5t-25 67.5z" />
<glyph horiz-adv-x="1187" d="M154 0l219 1556h225l-68 -481q145 82 308 82q170 0 256 -86t86 -221q0 -129 -80 -227.5t-232 -141.5l72 -186q23 -61 52.5 -91t82.5 -30q15 0 31.5 2.5t25.5 5.5l9 2l-17 -170q-47 -26 -129 -26q-91 0 -152 46t-100 150l-102 269q-103 0 -197 16l-65 -469h-225zM467 623 q58 -7 135 -7q176 0 261 53t85 150q0 154 -190 154q-127 0 -252 -68z" />
<glyph horiz-adv-x="563" d="M160 76q0 66 39.5 100.5t111.5 34.5q55 0 86 -25t31 -73q0 -67 -40 -102.5t-109 -35.5q-119 0 -119 101zM233 309l99 901h239l-153 -901h-185z" />
<glyph horiz-adv-x="1359" d="M127 256l37 147h205l102 404h-205l37 147h205l65 256h179l-66 -256h309l66 256h178l-65 -256h208l-34 -147h-211l-103 -404h211l-39 -147h-211l-63 -256h-176l63 256h-309l-64 -256h-178l64 256h-205zM547 403h309l102 404h-309z" />
<glyph horiz-adv-x="1085" d="M152 70l55 176q6 -7 42.5 -20t103 -27t132.5 -19l52 367q-61 23 -105.5 47t-89.5 61t-68.5 90.5t-23.5 120.5q0 81 29.5 144t82.5 102.5t120 62.5t149 31l26 189h174l-26 -189q72 -6 139.5 -21.5t99.5 -27.5l31 -12l-59 -168q-23 10 -92 27.5t-146 25.5l-47 -342 q60 -23 105 -47.5t88.5 -62.5t66.5 -92t23 -121q0 -150 -99 -245.5t-280 -115.5l-25 -172h-172l23 170q-77 6 -154.5 23t-116.5 31zM457 874q0 -74 108 -124l39 274q-68 -15 -107.5 -54.5t-39.5 -95.5zM662 193q139 36 139 161q0 75 -99 129z" />
<glyph horiz-adv-x="1538" d="M233 895q0 146 86.5 243t245.5 97q125 -4 188.5 -74.5t63.5 -177.5q0 -138 -85.5 -238t-235.5 -100q-132 0 -197.5 70.5t-65.5 179.5zM379 895q0 -64 31 -102.5t90 -38.5q75 0 121.5 61t46.5 166q0 66 -30.5 104t-88.5 39q-79 0 -124.5 -60.5t-45.5 -168.5zM408 33 l782 1202l100 -55l-782 -1205zM893 225q0 94 36.5 170t113 123t182.5 47q125 -4 188.5 -74.5t63.5 -177.5q0 -65 -21 -125.5t-60 -108t-101 -76t-138 -28.5q-133 0 -198.5 70t-65.5 180zM1038 227q0 -65 31.5 -104t89.5 -39q76 0 122 61t46 168q0 65 -30.5 103t-88.5 41 q-78 0 -124 -61.5t-46 -168.5z" />
<glyph horiz-adv-x="1370" d="M150 309q0 79 24.5 143.5t69.5 109.5t94 75.5t113 56.5q-80 106 -80 217q0 149 97 235.5t277 86.5q145 -1 216 -69.5t71 -170.5q0 -67 -22 -122.5t-64 -95.5t-85.5 -67.5t-102.5 -54.5q45 -38 260 -293q87 130 100 277h170q-16 -213 -141 -389l131 -139l-123 -134 l-139 142q-168 -142 -416 -142q-217 0 -333.5 91.5t-116.5 242.5zM358 330q0 -88 66 -139.5t180 -51.5q182 0 277 92l-324 349q-44 -20 -75 -39.5t-61.5 -49t-46.5 -70t-16 -91.5zM563 922q0 -81 76 -164q45 20 75 37t62 43t48 60t16 75q0 48 -30.5 76.5t-88.5 31.5 q-72 0 -115 -41.5t-43 -117.5z" />
<glyph horiz-adv-x="1069" d="M139 -289l51 164q18 -10 50.5 -21.5t102.5 -24.5t142 -13q111 0 173 41.5t63 119.5q0 28 -13 51.5t-31 40t-51 33.5t-58.5 27t-69.5 25q-38 14 -61 22.5t-59 25t-57.5 31t-48 37.5t-41 48t-24.5 58.5t-10 72.5q0 94 41 166.5t100 109.5q-76 73 -76 188q0 87 33 152.5 t93.5 104.5t138 58t173.5 19q94 0 180 -14.5t125 -29.5l39 -15l-61 -160q-10 5 -39.5 14.5t-98 21t-138.5 11.5q-106 0 -169 -38t-63 -115q0 -26 12.5 -48t29 -37t48.5 -31.5t56.5 -26.5t66.5 -25q40 -15 63.5 -24t61 -26.5t60 -32.5t50 -39t42.5 -49t25.5 -59t10.5 -73 q0 -172 -135 -275q72 -72 72 -180q0 -168 -122 -259t-333 -91q-60 0 -117.5 6.5t-97 16t-70 19.5t-44.5 16zM403 502q0 -57 43 -94t123 -70q131 -51 166 -74q78 49 78 142q0 60 -41 96t-121 69q-141 55 -162 66q-86 -42 -86 -135z" />
<glyph horiz-adv-x="960" d="M178 811q0 95 24 168t79 132.5t156.5 91.5t244.5 32q87 0 163 -9.5t109 -18.5l33 -9l-127 -901q-10 -71 -36 -133.5t-70 -117t-115 -86.5t-160 -32q-60 0 -78 6l23 164q27 -2 45 -2q166 0 197 213l108 772h-112l-80 -577h-84q-159 0 -239.5 82.5t-80.5 224.5z" />
<glyph horiz-adv-x="555" d="M182 451q0 125 22 244t57 208.5t77.5 169t85 133.5t77.5 93.5t57 58.5l22 18l125 -82q-6 -6 -17.5 -18t-43.5 -53.5t-61 -88.5t-64.5 -123.5t-61 -157.5t-43 -191t-17.5 -224q0 -95 12 -183t28.5 -146.5t33.5 -103.5t29 -66l12 -21l-150 -82q-7 8 -19.5 24.5t-43.5 74.5 t-54.5 123.5t-43 172t-19.5 220.5z" />
<glyph horiz-adv-x="710" d="M43 0l580 1210h204l-579 -1210h-205z" />
<glyph horiz-adv-x="516" d="M45 -82q100 100 172 256t104.5 318t32.5 319q0 89 -12 172t-29 137t-34 95t-29 60l-12 19l149 82q7 -8 19.5 -23.5t43.5 -69.5t54.5 -116t43 -163t19.5 -209q0 -175 -43 -349t-134 -336.5t-220 -273.5z" />
<glyph horiz-adv-x="649" d="M147 -133l209 1474h420l-18 -139h-221l-170 -1194h221l-19 -141h-422z" />
<glyph horiz-adv-x="710" d="M223 1210h205l240 -1210h-205z" />
<glyph horiz-adv-x="649" d="M43 -133l20 141h222l168 1194h-222l21 139h420l-207 -1474h-422z" />
<glyph horiz-adv-x="667" d="M190 532l21 146q83 0 111 36t40 122l39 280q16 113 80 173.5t195 60.5h121l-21 -133h-61q-60 0 -83.5 -25t-31.5 -82l-39 -272q-26 -182 -147 -234q86 -42 86 -170q0 -40 -4 -63l-37 -271q-4 -28 -4 -37q0 -35 19.5 -52t68.5 -17h61l-18 -133h-119q-115 0 -164 44.5 t-49 131.5q0 7 4 57l39 279q6 41 6 69q0 46 -24.5 68t-88.5 22z" />
<glyph horiz-adv-x="612" d="M199 -117l200 1428h183l-201 -1428h-182z" />
<glyph horiz-adv-x="667" d="M41 -139l18 133h62q60 0 84.5 25t32.5 81l36 271q22 180 148 233q-86 41 -86 168q0 20 4 66l37 272q4 28 4 37q0 36 -19.5 53t-68.5 17h-62l19 133h119q115 0 164 -45t49 -129q0 -20 -4 -60l-41 -280q-7 -40 -7 -64q0 -47 25.5 -70.5t91.5 -23.5l-22 -146 q-82 0 -111 -36.5t-41 -122.5l-41 -279q-16 -115 -78 -174t-194 -59h-119z" />
<glyph horiz-adv-x="1208" d="M184 428q0 118 17 227t59 216.5t106.5 186.5t167 128t232.5 49q209 0 318.5 -117.5t109.5 -337.5q0 -137 -19 -254.5t-62 -220.5t-108 -175t-161.5 -113.5t-218.5 -41.5q-98 0 -173.5 22t-125.5 60.5t-82 96t-46 125t-14 149.5zM418 428q0 -57 10 -101.5t33.5 -83 t68.5 -59t109 -20.5q67 0 120.5 29t87.5 80t57.5 111.5t35.5 134.5t16.5 136.5t4.5 128.5q0 263 -209 263q-69 0 -123.5 -27.5t-90 -76.5t-60 -108t-37.5 -132.5t-18 -138.5t-5 -136z" />
<glyph horiz-adv-x="798" d="M193 1016l366 194h193l-170 -1210h-234l137 979l-227 -115z" />
<glyph horiz-adv-x="1097" d="M125 0l25 184q44 29 288 222q94 73 149 118t112 98t85 92t46 83t18 88q0 74 -51 116.5t-152 42.5q-84 0 -167.5 -25.5t-125.5 -50.5l-41 -26l-59 166q7 5 20 13.5t57 30.5t91.5 39t121 30.5t148.5 13.5q188 0 290.5 -91t102.5 -229q0 -79 -25.5 -150t-81 -142 t-121.5 -133.5t-167 -145.5l-194 -156h493l-26 -188h-836z" />
<glyph horiz-adv-x="1067" d="M119 53l57 166q12 -7 35 -16.5t97 -26t151 -16.5q319 0 319 223q0 90 -73.5 129t-208.5 39q-26 0 -53 -1t-44.5 -2t-19.5 -1l24 172q1 0 21 -1t50 -2t54 -1q149 0 225 51t76 149q0 136 -227 136q-83 0 -158 -15t-109 -30l-34 -15l-39 168q6 3 17 8t48.5 18.5t79 23.5 t106.5 18t132 8q210 0 308 -77t98 -204q0 -64 -19.5 -116.5t-54 -89t-71 -60.5t-79.5 -41q81 -28 131 -92.5t50 -161.5q0 -200 -135 -309t-402 -109q-69 0 -130.5 8t-100 19.5t-67.5 23t-41 19.5z" />
<glyph horiz-adv-x="1101" d="M117 258l20 182l654 770h233l-109 -770h170l-26 -182h-168l-37 -258h-231l36 258h-542zM332 440h354l70 498z" />
<glyph horiz-adv-x="1085" d="M121 53l59 164q12 -6 34 -15.5t97 -25.5t158 -16q168 0 252 70.5t84 197.5q0 197 -262 197q-42 0 -87 -4.5t-80 -11.5t-63 -13.5t-45 -11t-18 -4.5l125 630h696l-27 -180h-487l-49 -246q1 0 7.5 1.5t18 3t26.5 3.5t36 3.5t43 1.5q183 0 292 -90t109 -256 q0 -97 -31.5 -180.5t-96 -151t-173.5 -106t-252 -38.5q-71 0 -135 8t-104.5 19.5t-70.5 23t-43 19.5z" />
<glyph horiz-adv-x="1136" d="M180 455q0 77 9.5 152.5t31.5 153t55 146t83 129t112 104t146 68.5t182 25q88 0 167.5 -19t114.5 -38l35 -19l-65 -164q-11 6 -31 15.5t-81 25t-122 15.5q-83 0 -149 -27t-111 -76t-74 -108t-47 -133q126 63 279 63q183 0 280 -93.5t97 -250.5q0 -89 -31 -168.5t-90 -143 t-154 -100.5t-213 -37q-424 0 -424 480zM408 410q0 -58 8.5 -100t30 -79t63.5 -56t104 -19q68 0 119.5 23t80 61t42.5 80.5t14 89.5q0 182 -211 182q-129 0 -247 -66q-4 -41 -4 -116z" />
<glyph horiz-adv-x="985" d="M236 1022l26 188h805l-25 -168l-557 -1042h-245l551 1022h-555z" />
<glyph horiz-adv-x="1179" d="M150 299q0 70 24 130.5t63 102t75.5 68t74.5 43.5q-47 37 -80 100t-33 144q0 158 125 253t330 95q58 0 113 -7.5t114 -27.5t102 -51.5t71 -85t28 -121.5q0 -107 -59 -188t-137 -121q81 -42 123 -102.5t42 -163.5q0 -189 -137.5 -290.5t-380.5 -101.5q-223 0 -340.5 84.5 t-117.5 239.5zM387 332q0 -180 234 -180q120 0 194 51.5t74 148.5q0 37 -14 65t-34.5 45t-56 32t-67.5 23.5t-81 22.5t-85 27q-73 -32 -118.5 -95t-45.5 -140zM498 883q0 -27 6.5 -48.5t24.5 -38.5t33 -28t49.5 -23.5t56 -19.5t69.5 -20l45 -13q55 26 101.5 84.5t46.5 130.5 q0 79 -57.5 118.5t-145.5 39.5q-100 0 -164.5 -49t-64.5 -133z" />
<glyph horiz-adv-x="1136" d="M186 53l66 164q11 -6 30.5 -15t80.5 -24.5t122 -15.5q296 0 379 344q-128 -64 -276 -64q-183 0 -280 93.5t-97 250.5q0 89 31 168.5t89.5 142t153.5 99.5t213 37q424 0 424 -477q0 -110 -18.5 -215t-64.5 -209.5t-114.5 -182t-177 -126t-243.5 -48.5q-88 0 -167.5 19.5 t-114.5 39.5zM432 799q0 -181 209 -181q132 0 250 66q4 78 4 117q0 57 -9 99.5t-30.5 78.5t-63.5 55t-104 19q-68 0 -119.5 -23t-80 -61t-42.5 -80.5t-14 -89.5z" />
<glyph horiz-adv-x="1019" d="M250 1153q6 3 18 8.5t52.5 20t84.5 25t111.5 19.5t136.5 9q186 0 285.5 -72.5t99.5 -197.5q0 -67 -15.5 -118.5t-42 -85t-60.5 -58.5t-71.5 -42.5t-75 -33.5t-71.5 -35t-60.5 -43t-42 -62t-15.5 -88v-39h-217q-5 31 -5 74q0 73 24.5 128t64 87t86.5 56.5t94.5 44.5 t87 42.5t64 58t24.5 83.5q0 58 -52 89.5t-153 31.5q-79 0 -160 -17t-122 -34l-41 -17zM303 76q0 65 40 100t110 35q118 0 118 -98q0 -66 -41 -102t-110 -36q-117 0 -117 101z" />
<glyph horiz-adv-x="1273" d="M59 0l598 1210h297l260 -1210h-235l-55 303h-484l-141 -303h-240zM518 473h373l-105 574z" />
<glyph horiz-adv-x="1210" d="M162 18l166 1172q197 45 422 45q241 0 350.5 -71.5t109.5 -207.5q0 -263 -254 -331q107 -28 160 -89t53 -161q0 -129 -57 -215.5t-193 -135.5t-354 -49q-94 0 -194.5 10.5t-154.5 21.5zM408 158q93 -13 188 -13q192 0 269 53t77 173q0 42 -15 72t-39.5 48t-62.5 28.5 t-77 14t-91 3.5h-196zM483 690h176q59 0 102.5 4.5t87 18t71 37.5t44.5 65t17 98q0 79 -58 115.5t-186 36.5q-87 0 -202 -14z" />
<glyph horiz-adv-x="1087" d="M170 508q0 148 40.5 278t118.5 231t203 159.5t283 58.5q89 0 171.5 -18t120.5 -36l38 -18l-74 -159q-12 5 -34 12.5t-86.5 20t-125.5 12.5q-75 0 -138 -21.5t-106 -56.5t-76 -83t-52 -97t-31.5 -103t-16.5 -96.5t-4 -81.5q0 -74 15 -132t50 -109t103.5 -79t165.5 -28 q57 0 115 9t88 19l29 9l28 -168q-12 -6 -36 -15.5t-102.5 -25t-164.5 -15.5q-138 0 -240 38.5t-163 110.5t-90 167.5t-29 216.5z" />
<glyph horiz-adv-x="1273" d="M162 16l166 1176q182 43 389 43q287 0 423 -121.5t136 -365.5q0 -378 -178 -575.5t-561 -197.5q-93 0 -186.5 10.5t-140.5 20.5zM410 168q68 -6 163 -6q88 0 157 15t130 54t101 102.5t63 163t23 232.5q0 175 -82.5 247.5t-255.5 72.5q-80 0 -177 -11z" />
<glyph horiz-adv-x="1114" d="M203 344q0 28 8 102l106 764h844l-26 -184h-615l-47 -321h541l-23 -168h-540l-17 -119q-4 -40 -4 -58q0 -109 72.5 -154.5t240.5 -45.5q43 0 86 3t75.5 7.5t58 9t41 7.5t16.5 3l-27 -180q-114 -35 -307 -35q-253 0 -368 93t-115 276z" />
<glyph horiz-adv-x="1079" d="M160 0l170 1210h827l-24 -184h-601l-51 -348h527l-25 -176h-524l-72 -502h-227z" />
<glyph horiz-adv-x="1193" d="M170 492q0 159 43 292.5t125.5 234.5t212.5 157.5t295 56.5q94 0 183.5 -16.5t132.5 -32.5l42 -17l-65 -166q-132 48 -275 48q-98 0 -177 -29t-132 -78.5t-88.5 -119.5t-51.5 -149.5t-16 -170.5q0 -69 15.5 -126t50.5 -107t102 -78.5t160 -28.5q64 0 139 10l64 451h213 l-82 -588q-18 -8 -55.5 -19.5t-124.5 -26t-176 -14.5q-270 0 -402.5 139t-132.5 378z" />
<glyph horiz-adv-x="1333" d="M160 0l170 1210h227l-72 -510h559l72 510h227l-169 -1210h-228l72 512h-559l-72 -512h-227z" />
<glyph horiz-adv-x="552" d="M164 0l170 1210h225l-170 -1210h-225z" />
<glyph horiz-adv-x="796" d="M72 35l59 164q64 -37 154 -37q86 0 131.5 46.5t62.5 160.5l119 841h227l-116 -831q-13 -94 -38.5 -163.5t-70.5 -126t-117.5 -85.5t-171.5 -29q-71 0 -131 15t-84 30z" />
<glyph horiz-adv-x="1185" d="M160 0l170 1210h227l-76 -534l543 534h272l-604 -589l236 -334q39 -55 77.5 -84t92.5 -29q15 0 29 2t22.5 4t9.5 2l-24 -172q-49 -22 -121 -22q-49 0 -88.5 13t-73.5 41t-59.5 58t-59.5 80l-268 383l-78 -563h-227z" />
<glyph horiz-adv-x="980" d="M207 332q0 57 8 106l109 772h225l-109 -780q-6 -41 -6 -74q0 -102 62.5 -148t214.5 -46q56 0 115 8t90 16l30 7l-28 -183q-8 -4 -24 -10t-80.5 -15.5t-145.5 -9.5q-243 0 -352 91t-109 266z" />
<glyph horiz-adv-x="1556" d="M115 0l272 1210h268l185 -772l405 772h266l-67 -1210h-221l45 770l18 168l-74 -166l-327 -639h-170l-150 639l-24 166l-31 -166l-170 -772h-225z" />
<glyph horiz-adv-x="1329" d="M160 0l170 1210h268l408 -901l8 135l108 766h215l-170 -1210h-260l-418 911l-4 -141l-108 -770h-217z" />
<glyph horiz-adv-x="1275" d="M170 467q0 129 23.5 243t72.5 210.5t121 166.5t173 109t224 39q228 0 359 -125.5t131 -364.5q0 -129 -23.5 -243.5t-73 -211.5t-121.5 -167t-174 -109t-225 -39q-127 0 -222 36.5t-152.5 103.5t-85 155t-27.5 197zM399 477q0 -315 275 -315q82 0 147.5 36.5t106 94 t68 135t38 154t10.5 155.5q0 67 -14.5 121.5t-45.5 98.5t-85 68t-127 24q-84 0 -151 -37t-107.5 -95t-67 -135.5t-37 -152.5t-10.5 -152z" />
<glyph horiz-adv-x="1187" d="M160 0l168 1194q202 41 403 41q255 0 373.5 -95.5t118.5 -260.5q0 -247 -157 -369.5t-452 -122.5q-82 0 -172 12l-55 -399h-227zM469 578q87 -7 156 -7q184 0 276 66t92 215q0 108 -70 152.5t-210 44.5q-53 0 -181 -9z" />
<glyph horiz-adv-x="1275" d="M170 467q0 129 23.5 243t72.5 210.5t121 166.5t173 109t224 39q228 0 359 -125.5t131 -364.5q0 -129 -23.5 -243.5t-73 -211.5t-121.5 -167t-174 -109t-225 -39q-127 0 -222 36.5t-152.5 103.5t-85 155t-27.5 197zM399 477q0 -315 275 -315q82 0 147.5 36.5t106 94 t68 135t38 154t10.5 155.5q0 67 -14.5 121.5t-45.5 98.5t-85 68t-127 24q-84 0 -151 -37t-107.5 -95t-67 -135.5t-37 -152.5t-10.5 -152zM555 -287l29 162l536 -55l-33 -176z" />
<glyph horiz-adv-x="1249" d="M160 0l168 1194q196 41 407 41q494 0 494 -334q0 -314 -314 -401l93 -226q23 -55 47.5 -78.5t66.5 -23.5q12 0 23 1.5t17 2.5l5 2l-24 -168q-43 -22 -111 -22q-52 0 -91.5 16.5t-66.5 49.5t-42.5 61t-32.5 71l-115 283h-41q-110 0 -188 10l-68 -479h-227zM477 649 q46 -8 185 -8q59 0 104 4.5t91.5 20t76 41t48.5 70.5t19 106q0 94 -68 130t-210 36q-90 0 -191 -11z" />
<glyph horiz-adv-x="1099" d="M160 70l65 170q5 -3 14.5 -8.5t42 -20t67.5 -25t89 -19.5t109 -9q126 0 197 47.5t71 130.5q0 35 -13 61t-47.5 48.5t-69.5 38.5t-103 42q-52 21 -78.5 32t-71.5 32.5t-69 39t-55 46t-46.5 58t-27 69.5t-11.5 86q0 92 36 159.5t102 107t150 58.5t187 19q105 0 204 -19.5 t144 -35.5l46 -17l-64 -172q-16 7 -44.5 17.5t-113 28.5t-165.5 18q-121 0 -187.5 -38t-66.5 -112q0 -61 51.5 -96.5t193.5 -91.5q96 -37 155 -68t106 -73t67 -95t20 -125q0 -188 -128.5 -283.5t-358.5 -95.5q-74 0 -142.5 10t-113 23.5t-78 27.5t-48.5 24z" />
<glyph horiz-adv-x="1103" d="M205 1022l26 188h983l-26 -188h-379l-143 -1022h-228l144 1022h-377z" />
<glyph horiz-adv-x="1320" d="M209 373q0 58 8 110l102 727h228l-103 -733q-6 -50 -6 -88q0 -70 19.5 -117t56 -70t75 -31.5t91.5 -8.5q47 0 85.5 6.5t81 26.5t74 53.5t57 91.5t36.5 137l104 733h225l-102 -727q-38 -270 -178.5 -389t-400.5 -119q-223 0 -338 102t-115 296z" />
<glyph horiz-adv-x="1228" d="M229 1210h240l145 -823l23 -201l78 201l377 823h247l-579 -1210h-289z" />
<glyph horiz-adv-x="1734" d="M229 1210h242l86 -827l4 -156l53 156l316 772h194l101 -774l6 -158l51 160l317 827h246l-481 -1210h-277l-96 715l-6 125l-41 -125l-295 -715h-276z" />
<glyph horiz-adv-x="1202" d="M55 0l480 614l-310 596h252l221 -469l355 469h264l-479 -598l309 -612h-244l-229 459l-357 -459h-262z" />
<glyph horiz-adv-x="1165" d="M215 1210h240l213 -577l376 577h246l-528 -757l-64 -453h-227l61 451z" />
<glyph horiz-adv-x="1146" d="M121 0l26 186l725 838h-596l25 186h879l-27 -192l-721 -832h621l-27 -186h-905z" />
<glyph horiz-adv-x="1273" d="M59 0l598 1210h297l260 -1210h-235l-55 303h-484l-141 -303h-240zM518 473h373l-105 574zM551 1544l123 131l276 -268l-102 -111z" />
<glyph horiz-adv-x="1273" d="M59 0l598 1210h297l260 -1210h-235l-55 303h-484l-141 -303h-240zM518 473h373l-105 574zM711 1407l350 268l86 -131l-367 -248z" />
<glyph horiz-adv-x="1273" d="M59 0l598 1210h297l260 -1210h-235l-55 303h-484l-141 -303h-240zM518 473h373l-105 574zM526 1395l344 266l271 -266l-99 -99l-200 170l-246 -170z" />
<glyph horiz-adv-x="1273" d="M59 0l598 1210h297l260 -1210h-235l-55 303h-484l-141 -303h-240zM510 1386q2 8 6.5 21t23 46.5t41 59.5t62.5 47t86 21q49 0 90 -25t74.5 -50t64.5 -25q34 0 61.5 25t38.5 50l11 25l98 -63q-2 -8 -7 -21t-23.5 -46.5t-41.5 -59.5t-63 -47t-86 -21q-37 0 -70.5 15.5 t-54.5 34.5t-48.5 34.5t-53.5 15.5q-34 0 -61.5 -25t-38.5 -50l-11 -25zM518 473h373l-105 574z" />
<glyph horiz-adv-x="1273" d="M59 0l598 1210h297l260 -1210h-235l-55 303h-484l-141 -303h-240zM518 473h373l-105 574zM526 1448q0 57 34 92t93 35q47 0 74 -25t27 -67q0 -58 -35 -93.5t-96 -35.5q-47 0 -72 25t-25 69zM944 1448q0 57 35.5 92t95.5 35q45 0 70.5 -25t25.5 -67q0 -58 -34 -93.5 t-93 -35.5q-49 0 -74.5 25t-25.5 69z" />
<glyph horiz-adv-x="1273" d="M59 0l598 1210h297l260 -1210h-235l-55 303h-484l-141 -303h-240zM518 473h373l-105 574zM623 1470q0 107 71 171.5t180 64.5q89 0 141 -47t52 -129q0 -108 -70 -171t-180 -63q-89 0 -141.5 46t-52.5 128zM745 1483q0 -40 22.5 -63t63.5 -23q52 0 82.5 33t30.5 90 q0 40 -22 63t-62 23q-51 0 -83 -34t-32 -89z" />
<glyph horiz-adv-x="1763" d="M59 0l760 1210h993l-26 -182h-615l-45 -323h541l-25 -166h-540l-17 -121q-4 -40 -4 -60q0 -111 73 -154.5t243 -43.5q43 0 86 3t75 7.5t57.5 9t40 7.5t15.5 3l-29 -180q-116 -35 -309 -35q-460 0 -469 326h-375l-188 -301h-242zM580 469h286l82 586z" />
<glyph horiz-adv-x="1087" d="M170 508q0 148 40.5 278t118.5 231t203 159.5t283 58.5q89 0 171.5 -18t120.5 -36l38 -18l-74 -159q-12 5 -34 12.5t-86.5 20t-125.5 12.5q-75 0 -138 -21.5t-106 -56.5t-76 -83t-52 -97t-31.5 -103t-16.5 -96.5t-4 -81.5q0 -74 15 -132t50 -109t103.5 -79t165.5 -28 q57 0 115 9t88 19l29 9l28 -168q-12 -6 -36 -15.5t-104.5 -25t-168.5 -15.5l-33 -84q21 3 41 3q80 0 131.5 -35t51.5 -105q0 -90 -71 -147.5t-212 -57.5q-55 0 -102 10.5t-66 20.5l-20 10l43 111q50 -31 133 -31q135 0 135 86q0 68 -115 68q-70 0 -121 -17l72 181 q-198 34 -290.5 169.5t-92.5 350.5z" />
<glyph horiz-adv-x="1273" d="M127 526l23 158h106l72 508q182 43 389 43q287 0 423 -121.5t136 -365.5q0 -378 -178 -575.5t-561 -197.5q-93 0 -186.5 10.5t-140.5 20.5l-48 10l71 510h-106zM410 168q68 -6 163 -6q88 0 157 15t130 54t101 102.5t63 163t23 232.5q0 175 -82.5 247.5t-255.5 72.5 q-80 0 -177 -11l-49 -354h320l-23 -158h-319z" />
<glyph horiz-adv-x="1114" d="M203 344q0 28 8 102l106 764h844l-26 -184h-615l-47 -321h541l-23 -168h-540l-17 -119q-4 -40 -4 -58q0 -109 72.5 -154.5t240.5 -45.5q43 0 86 3t75.5 7.5t58 9t41 7.5t16.5 3l-27 -180q-114 -35 -307 -35q-253 0 -368 93t-115 276zM522 1559l123 129l277 -269 l-103 -110z" />
<glyph horiz-adv-x="1114" d="M203 344q0 28 8 102l106 764h844l-26 -184h-615l-47 -321h541l-23 -168h-540l-17 -119q-4 -40 -4 -58q0 -109 72.5 -154.5t240.5 -45.5q43 0 86 3t75.5 7.5t58 9t41 7.5t16.5 3l-27 -180q-114 -35 -307 -35q-253 0 -368 93t-115 276zM647 1419l350 269l86 -129l-366 -250 z" />
<glyph horiz-adv-x="1114" d="M203 344q0 28 8 102l106 764h844l-26 -184h-615l-47 -321h541l-23 -168h-540l-17 -119q-4 -40 -4 -58q0 -109 72.5 -154.5t240.5 -45.5q43 0 86 3t75.5 7.5t58 9t41 7.5t16.5 3l-27 -180q-114 -35 -307 -35q-253 0 -368 93t-115 276zM469 1407l344 268l268 -268l-96 -98 l-201 172l-247 -172z" />
<glyph horiz-adv-x="1114" d="M203 344q0 28 8 102l106 764h844l-26 -184h-615l-47 -321h541l-23 -168h-540l-17 -119q-4 -40 -4 -58q0 -109 72.5 -154.5t240.5 -45.5q43 0 86 3t75.5 7.5t58 9t41 7.5t16.5 3l-27 -180q-114 -35 -307 -35q-253 0 -368 93t-115 276zM461 1460q0 58 34 92.5t93 34.5 q47 0 72.5 -24.5t25.5 -67.5q0 -57 -34.5 -92t-96.5 -35q-45 0 -69.5 25t-24.5 67zM881 1462q0 57 34.5 91t94.5 34q45 0 70.5 -24.5t25.5 -67.5q0 -56 -35 -91.5t-94 -35.5q-46 0 -71 25t-25 69z" />
<glyph horiz-adv-x="1200" d="M170 492q0 159 43 292.5t125.5 234.5t212.5 157.5t295 56.5q94 0 183.5 -16.5t132.5 -32.5l42 -17l-65 -166q-132 48 -275 48q-98 0 -177 -29t-132 -78.5t-88.5 -119.5t-51.5 -149.5t-16 -170.5q0 -69 15.5 -126t50.5 -107t102 -78.5t160 -28.5q64 0 139 10l64 451h213 l-82 -588q-18 -8 -55.5 -19.5t-124.5 -26t-176 -14.5q-270 0 -402.5 139t-132.5 378zM582 1582v15l129 45v-16.5t7 -37.5t20.5 -47t44.5 -37t75 -17q43 0 78.5 16t55.5 38.5t34 45.5t18 39l5 16l114 -45q-1 -5 -4 -14.5t-14.5 -37t-26.5 -52t-42.5 -55t-59.5 -52t-79 -36.5 t-101 -15t-97 14.5t-69 37.5t-44.5 51t-26.5 56t-12.5 51t-4.5 37z" />
<glyph horiz-adv-x="552" d="M164 0l170 1210h225l-170 -1210h-225zM213 1565l125 131l272 -269l-100 -110z" />
<glyph horiz-adv-x="552" d="M164 0l170 1210h225l-170 -1210h-225zM352 1427l353 269l86 -131l-367 -248z" />
<glyph horiz-adv-x="552" d="M164 0l170 1210h225l-170 -1210h-225zM166 1403l346 268l268 -268l-98 -100l-199 172l-247 -172z" />
<glyph horiz-adv-x="552" d="M162 1468q0 57 34.5 92t94.5 35q46 0 71 -25t25 -67q0 -58 -34 -93.5t-93 -35.5q-48 0 -73 25t-25 69zM164 0l170 1210h225l-170 -1210h-225zM582 1468q0 58 35 92.5t94 34.5q46 0 72 -25t26 -67q0 -57 -35.5 -93t-93.5 -36q-47 0 -72.5 25.5t-25.5 68.5z" />
<glyph horiz-adv-x="552" d="M164 0l170 1210h225l-170 -1210h-225zM362 1468q0 59 38.5 96.5t103.5 37.5q50 0 77 -27t27 -72q0 -60 -37.5 -96.5t-101.5 -36.5q-52 0 -79.5 26.5t-27.5 71.5z" />
<glyph horiz-adv-x="1329" d="M160 0l170 1210h268l408 -901l8 135l108 766h215l-170 -1210h-260l-418 911l-4 -141l-108 -770h-217zM555 1391q2 8 7 21t24 46.5t42 59t63.5 46.5t86.5 21q38 0 73 -15.5t56 -34.5t48.5 -34.5t52.5 -15.5q34 0 61 25t37 50l10 25l98 -63q-2 -8 -7 -21t-23.5 -46.5 t-41.5 -59.5t-63 -47t-86 -21q-37 0 -70.5 15.5t-54.5 34.5t-48 34.5t-52 15.5q-35 0 -63 -25t-39 -50l-11 -25z" />
<glyph horiz-adv-x="1275" d="M170 467q0 129 23.5 243t72.5 210.5t121 166.5t173 109t224 39q228 0 359 -125.5t131 -364.5q0 -129 -23.5 -243.5t-73 -211.5t-121.5 -167t-174 -109t-225 -39q-127 0 -222 36.5t-152.5 103.5t-85 155t-27.5 197zM399 477q0 -315 275 -315q82 0 147.5 36.5t106 94 t68 135t38 154t10.5 155.5q0 67 -14.5 121.5t-45.5 98.5t-85 68t-127 24q-84 0 -151 -37t-107.5 -95t-67 -135.5t-37 -152.5t-10.5 -152zM573 1565l123 131l277 -269l-103 -110z" />
<glyph horiz-adv-x="1275" d="M170 467q0 129 23.5 243t72.5 210.5t121 166.5t173 109t224 39q228 0 359 -125.5t131 -364.5q0 -129 -23.5 -243.5t-73 -211.5t-121.5 -167t-174 -109t-225 -39q-127 0 -222 36.5t-152.5 103.5t-85 155t-27.5 197zM399 477q0 -315 275 -315q82 0 147.5 36.5t106 94 t68 135t38 154t10.5 155.5q0 67 -14.5 121.5t-45.5 98.5t-85 68t-127 24q-84 0 -151 -37t-107.5 -95t-67 -135.5t-37 -152.5t-10.5 -152zM698 1427l351 269l86 -131l-365 -248z" />
<glyph horiz-adv-x="1275" d="M170 467q0 129 23.5 243t72.5 210.5t121 166.5t173 109t224 39q228 0 359 -125.5t131 -364.5q0 -129 -23.5 -243.5t-73 -211.5t-121.5 -167t-174 -109t-225 -39q-127 0 -222 36.5t-152.5 103.5t-85 155t-27.5 197zM399 477q0 -315 275 -315q82 0 147.5 36.5t106 94 t68 135t38 154t10.5 155.5q0 67 -14.5 121.5t-45.5 98.5t-85 68t-127 24q-84 0 -151 -37t-107.5 -95t-67 -135.5t-37 -152.5t-10.5 -152zM528 1415l346 266l269 -266l-99 -98l-198 170l-248 -170z" />
<glyph horiz-adv-x="1275" d="M170 467q0 129 23.5 243t72.5 210.5t121 166.5t173 109t224 39q228 0 359 -125.5t131 -364.5q0 -129 -23.5 -243.5t-73 -211.5t-121.5 -167t-174 -109t-225 -39q-127 0 -222 36.5t-152.5 103.5t-85 155t-27.5 197zM399 477q0 -315 275 -315q82 0 147.5 36.5t106 94 t68 135t38 154t10.5 155.5q0 67 -14.5 121.5t-45.5 98.5t-85 68t-127 24q-84 0 -151 -37t-107.5 -95t-67 -135.5t-37 -152.5t-10.5 -152zM514 1407q2 8 7 21t23.5 46.5t41 59.5t63 47t86.5 21q38 0 73 -16t56 -34.5t48.5 -34.5t52.5 -16q34 0 60.5 25.5t36.5 50.5l9 25 l103 -64q-2 -8 -7 -21t-24.5 -46.5t-43 -59.5t-63.5 -47t-86 -21q-37 0 -70.5 16t-54.5 34.5t-48 34.5t-52 16q-35 0 -62.5 -25t-38.5 -51l-10 -25z" />
<glyph horiz-adv-x="1275" d="M170 467q0 129 23.5 243t72.5 210.5t121 166.5t173 109t224 39q228 0 359 -125.5t131 -364.5q0 -129 -23.5 -243.5t-73 -211.5t-121.5 -167t-174 -109t-225 -39q-127 0 -222 36.5t-152.5 103.5t-85 155t-27.5 197zM399 477q0 -315 275 -315q82 0 147.5 36.5t106 94 t68 135t38 154t10.5 155.5q0 67 -14.5 121.5t-45.5 98.5t-85 68t-127 24q-84 0 -151 -37t-107.5 -95t-67 -135.5t-37 -152.5t-10.5 -152zM522 1468q0 56 35 91.5t94 35.5q48 0 72.5 -24.5t24.5 -67.5q0 -58 -33.5 -93.5t-93.5 -35.5q-48 0 -73.5 25t-25.5 69zM942 1470 q0 56 35.5 90.5t93.5 34.5q46 0 72 -25t26 -67q0 -58 -35 -93.5t-94 -35.5q-47 0 -72.5 25.5t-25.5 70.5z" />
<glyph horiz-adv-x="1275" d="M170 467q0 129 23.5 243t72.5 210.5t121 166.5t173 109t224 39q90 0 166 -21l109 201l158 -74l-111 -200q168 -130 168 -396q0 -129 -23.5 -243.5t-73 -211.5t-121.5 -167t-174 -109t-225 -39q-83 0 -172 21l-104 -195l-158 72l107 197q-160 127 -160 397zM399 477 q0 -129 43 -201l412 762q-46 11 -82 11q-84 0 -151 -37t-107.5 -95t-67 -135.5t-37 -152.5t-10.5 -152zM582 172q34 -10 92 -10q82 0 147.5 36.5t106 94t68 135t38 154t10.5 155.5q0 123 -47 201z" />
<glyph horiz-adv-x="1099" d="M160 70l65 170q5 -3 14.5 -8.5t42 -20t67.5 -25t89 -19.5t109 -9q126 0 197 47.5t71 130.5q0 35 -13 61t-47.5 48.5t-69.5 38.5t-103 42q-52 21 -78.5 32t-71.5 32.5t-69 39t-55 46t-46.5 58t-27 69.5t-11.5 86q0 92 36 159.5t102 107t150 58.5t187 19q105 0 204 -19.5 t144 -35.5l46 -17l-64 -172q-16 7 -44.5 17.5t-113 28.5t-165.5 18q-121 0 -187.5 -38t-66.5 -112q0 -61 51.5 -96.5t193.5 -91.5q96 -37 155 -68t106 -73t67 -95t20 -125q0 -179 -117 -274t-327 -103l-33 -86q18 3 35 3q80 0 134.5 -35.5t54.5 -106.5q0 -89 -71.5 -146 t-211.5 -57q-55 0 -102 10.5t-67 20.5l-20 10l41 111q56 -31 136 -31q135 0 135 86q0 68 -115 68q-70 0 -121 -17l68 173q-90 8 -166 30.5t-107 41.5z" />
<glyph horiz-adv-x="1183" d="M160 0l170 1210h227l-25 -174q108 11 189 11q479 0 479 -334q0 -242 -153 -361t-439 -119q-116 0 -186 9l-35 -242h-227zM446 424q3 0 31.5 -1t68 -2t70.5 -1q83 0 143 10.5t110.5 37.5t76 79t25.5 129q0 184 -256 184q-113 0 -209 -14z" />
<glyph horiz-adv-x="1320" d="M209 373q0 58 8 110l102 727h228l-103 -733q-6 -50 -6 -88q0 -70 19.5 -117t56 -70t75 -31.5t91.5 -8.5q47 0 85.5 6.5t81 26.5t74 53.5t57 91.5t36.5 137l104 733h225l-102 -727q-38 -270 -178.5 -389t-400.5 -119q-223 0 -338 102t-115 296zM571 1565l123 131l277 -269 l-103 -110z" />
<glyph horiz-adv-x="1320" d="M209 373q0 58 8 110l102 727h228l-103 -733q-6 -50 -6 -88q0 -70 19.5 -117t56 -70t75 -31.5t91.5 -8.5q47 0 85.5 6.5t81 26.5t74 53.5t57 91.5t36.5 137l104 733h225l-102 -727q-38 -270 -178.5 -389t-400.5 -119q-223 0 -338 102t-115 296zM739 1427l353 269l86 -131 l-367 -248z" />
<glyph horiz-adv-x="1320" d="M209 373q0 58 8 110l102 727h228l-103 -733q-6 -50 -6 -88q0 -70 19.5 -117t56 -70t75 -31.5t91.5 -8.5q47 0 85.5 6.5t81 26.5t74 53.5t57 91.5t36.5 137l104 733h225l-102 -727q-38 -270 -178.5 -389t-400.5 -119q-223 0 -338 102t-115 296zM551 1415l346 266l268 -266 l-98 -98l-199 170l-245 -170z" />
<glyph horiz-adv-x="1320" d="M209 373q0 58 8 110l102 727h228l-103 -733q-6 -50 -6 -88q0 -70 19.5 -117t56 -70t75 -31.5t91.5 -8.5q47 0 85.5 6.5t81 26.5t74 53.5t57 91.5t36.5 137l104 733h225l-102 -727q-38 -270 -178.5 -389t-400.5 -119q-223 0 -338 102t-115 296zM545 1468q0 56 35 91.5 t94 35.5q48 0 73 -24.5t25 -67.5q0 -58 -35 -93.5t-94 -35.5q-48 0 -73 25t-25 69zM967 1468q0 58 34 92.5t95 34.5q46 0 71 -25t25 -67q0 -58 -33.5 -93.5t-93.5 -35.5q-48 0 -73 25t-25 69z" />
<glyph horiz-adv-x="1165" d="M215 1210h240l213 -577l376 577h246l-528 -757l-64 -453h-227l61 451zM670 1427l352 269l86 -131l-367 -248z" />
<glyph horiz-adv-x="1165" d="M215 1210h240l213 -577l376 577h246l-528 -757l-64 -453h-227l61 451zM469 1468q0 57 34.5 92t94.5 35q46 0 72 -25t26 -67q0 -57 -35.5 -93t-93.5 -36q-48 0 -73 25t-25 69zM891 1468q0 58 34 92.5t95 34.5q46 0 71 -25t25 -67q0 -58 -34 -93.5t-93 -35.5q-48 0 -73 25 t-25 69z" />
<glyph horiz-adv-x="2158" d="M160 70l65 170q5 -3 14.5 -8.5t42 -20t67.5 -25t89 -19.5t109 -9q126 0 197 47.5t71 130.5q0 35 -13 61t-47.5 48.5t-69.5 38.5t-103 42q-52 21 -78.5 32t-71.5 32.5t-69 39t-55 46t-46.5 58t-27 69.5t-11.5 86q0 92 36 159.5t102 107t150 58.5t187 19q105 0 204 -19.5 t144 -35.5l46 -17l-64 -172q-16 7 -44.5 17.5t-113 28.5t-165.5 18q-121 0 -187.5 -38t-66.5 -112q0 -61 51.5 -96.5t193.5 -91.5q96 -36 155.5 -67.5t106 -73t66.5 -95t20 -125.5q0 -188 -128.5 -283.5t-358.5 -95.5q-74 0 -142.5 10t-113 23.5t-78 27.5t-48.5 24zM1219 70 l65 170q5 -3 14.5 -8.5t42 -20t67.5 -25t89 -19.5t109 -9q126 0 197 47.5t71 130.5q0 28 -10.5 51t-26.5 40t-49 35t-63 30.5t-85 33.5q-52 20 -78.5 31.5t-71 33t-68.5 39t-55 46t-46.5 58t-27 69.5t-11.5 86q0 92 36 159.5t102 107t150 58.5t187 19q105 0 204 -19.5 t144 -35.5l45 -17l-63 -172q-16 7 -44.5 17.5t-113.5 28.5t-166 18q-121 0 -187.5 -38t-66.5 -112q0 -61 51.5 -96t194.5 -92q96 -36 155.5 -67.5t106 -73t66.5 -95t20 -125.5q0 -188 -128.5 -283.5t-358.5 -95.5q-74 0 -142.5 10t-113 23.5t-78 27.5t-48.5 24z" />
<glyph horiz-adv-x="684" d="M346 1544l123 131l276 -268l-102 -111z" />
<glyph horiz-adv-x="684" d="M334 1407l352 268l86 -131l-366 -248z" />
<glyph horiz-adv-x="860" d="M319 1395l345 266l268 -266l-98 -99l-197 170l-248 -170z" />
<glyph horiz-adv-x="888" d="M319 1386q2 8 7 21t23.5 46.5t41.5 59.5t63.5 47t86.5 21q48 0 89 -25t75 -50t65 -25q34 0 60.5 25t36.5 50l10 25l100 -63q-2 -8 -7 -21t-23.5 -46.5t-41.5 -59.5t-63 -47t-86 -21t-86.5 25t-74.5 50t-65 25q-22 0 -41.5 -10.5t-31.5 -25t-20.5 -29t-12.5 -24.5l-4 -11z " />
<glyph horiz-adv-x="923" d="M344 1448q0 57 34.5 92t94.5 35q46 0 72 -25t26 -67q0 -58 -35 -93.5t-94 -35.5q-48 0 -73 25t-25 69zM764 1448q0 57 35.5 92t95.5 35q45 0 70.5 -25t25.5 -67q0 -58 -34.5 -93.5t-94.5 -35.5q-47 0 -72.5 25.5t-25.5 68.5z" />
<glyph horiz-adv-x="821" d="M317 1366l19 143h573l-18 -143h-574z" />
<glyph horiz-adv-x="702" d="M338 1470q0 108 70.5 172t181.5 64q88 0 140 -46.5t52 -129.5q0 -108 -70 -171t-180 -63q-90 0 -142 46t-52 128zM461 1483q0 -40 22.5 -63t63.5 -23q52 0 82 33t30 90q0 40 -21 63t-60 23q-53 0 -85 -34t-32 -89z" />
<glyph horiz-adv-x="563" d="M160 0l155 901h185l-99 -901h-241zM305 1098q0 67 41 102t111 35q55 0 85.5 -25.5t30.5 -74.5q0 -66 -40 -101t-109 -35q-56 0 -87.5 25t-31.5 74z" />
<glyph horiz-adv-x="1001" d="M147 246q0 67 15.5 118.5t42 84.5t60.5 58.5t72 42.5t75.5 33t71.5 35t60.5 43t42 62t15.5 88v39h217q4 -31 4 -74q0 -73 -24.5 -128t-63.5 -87t-86.5 -56.5t-95 -44.5t-86.5 -42.5t-63.5 -58t-24.5 -83.5q0 -58 52 -89t153 -31q79 0 160 17t122 33l41 17l29 -166 q-6 -3 -18.5 -8.5t-53 -20t-84.5 -25t-111.5 -19.5t-136.5 -9q-186 0 -285.5 73t-99.5 198zM614 1098q0 66 41.5 101.5t110.5 35.5q117 0 117 -100q0 -65 -40 -100.5t-110 -35.5q-57 0 -88 25t-31 74z" />
<glyph horiz-adv-x="1136" d="M141 412l17 114h100q3 85 18 164h-96l17 115h108q64 189 210.5 297t389.5 108q83 0 156.5 -15t106.5 -29l32 -15l-74 -158q-9 5 -27 11.5t-75 18t-117 11.5q-133 0 -223.5 -60.5t-138.5 -168.5h502l-48 -115h-493q-16 -82 -19 -164h439l-47 -114h-385q33 -236 282 -236 q60 0 120.5 10t91.5 20l30 11l29 -158q-13 -7 -37 -16.5t-104 -26t-167 -16.5q-220 0 -339.5 111t-139.5 301h-119z" />
<glyph horiz-adv-x="991" d="M184 543q0 133 47.5 237.5t147 174.5t242.5 89l26 191h182l-26 -184q61 -5 114.5 -18.5t76.5 -24.5l24 -11l-68 -168q-74 31 -172 39l-71 -516q28 2 56 6.5t49.5 10t37.5 10t27 8.5t12 4l24 -166q-90 -45 -233 -55l-27 -195h-182l29 201q-156 27 -236 122t-80 245z M414 559q0 -146 112 -188l68 479q-180 -59 -180 -291z" />
<glyph horiz-adv-x="1089" d="M115 0l24 172q110 84 151.5 158t43.5 155v33h-178l18 135h145q-6 49 -6 105v22q8 211 124.5 333t340.5 122q59 0 112.5 -9t87.5 -21.5t59.5 -25t36.5 -21.5l11 -9l-86 -141q-8 6 -24 15t-69 24.5t-109 15.5q-135 0 -202.5 -78t-72.5 -209v-22q0 -52 6 -101h406l-21 -135 h-370q2 -10 2 -31q-2 -80 -41.5 -156t-138.5 -161h618l-25 -170h-843z" />
<glyph horiz-adv-x="1015" d="M-70 -272l47 166q38 -19 95 -19q167 0 213 184l114 465h-231l41 156h229l62 242q23 89 59 155.5t76 105t91 62t96 31.5t98 8q55 0 101.5 -9t65.5 -17l19 -9l-62 -157q-40 20 -112 20q-82 0 -134 -42.5t-77 -145.5l-62 -244h283l-41 -156h-278l-111 -446 q-93 -377 -426 -377q-44 0 -83 6.5t-56 13.5z" />
<glyph horiz-adv-x="1116" d="M184 193l17 116h286l23 160h-287l17 119h233l-250 622h244l184 -548l338 548h244l-426 -622h237l-16 -119h-291l-22 -160h291l-17 -116h-291l-26 -193h-228l27 193h-287z" />
<glyph horiz-adv-x="2199" d="M233 895q0 146 86.5 243t245.5 97q125 -4 188.5 -74.5t63.5 -177.5q0 -138 -85.5 -238t-235.5 -100q-132 0 -197.5 70.5t-65.5 179.5zM379 895q0 -64 31 -102.5t90 -38.5q75 0 121.5 61t46.5 166q0 66 -30.5 104t-88.5 39q-79 0 -124.5 -60.5t-45.5 -168.5zM408 33 l782 1202l100 -55l-782 -1205zM893 225q0 94 36.5 170t113 123t182.5 47q125 -4 188.5 -74.5t63.5 -177.5q0 -65 -21 -125.5t-60 -108t-101 -76t-138 -28.5q-133 0 -198.5 70t-65.5 180zM1038 227q0 -65 31.5 -104t89.5 -39q76 0 122 61t46 168q0 65 -30.5 103t-88.5 41 q-78 0 -124 -61.5t-46 -168.5zM1554 225q0 94 36.5 170t113 123t182.5 47q125 -4 188.5 -74.5t63.5 -177.5q0 -89 -35 -164t-109.5 -124.5t-174.5 -49.5q-132 0 -198.5 70.5t-66.5 179.5zM1702 227q0 -65 30.5 -104t88.5 -39q76 0 123 61t47 168q0 65 -31.5 103t-89.5 41 q-77 0 -122.5 -61.5t-45.5 -168.5z" />
<glyph horiz-adv-x="704" d="M70 -410l41 111q62 -31 135 -31q135 0 135 86q0 68 -113 68q-72 0 -123 -17l99 244h135l-62 -160q18 3 39 3q83 0 134 -35t51 -105q0 -90 -71 -147.5t-212 -57.5q-55 0 -102 10.5t-66 20.5z" />
<glyph horiz-adv-x="1861" d="M176 438q0 122 22 228.5t69 197t116.5 155.5t169 101.5t221.5 36.5q49 0 115 -8q-70 77 -70 186q0 131 98 215t265 84q117 0 238.5 -46.5t193.5 -98.5l-51 -356h331l-24 -185h-332l-78 -555q-6 -47 -6 -84q0 -74 34 -109.5t118 -35.5q38 0 78.5 7t61.5 15l21 7l11 -170 q-9 -5 -25.5 -13t-72.5 -21.5t-119 -13.5q-336 0 -336 312q0 54 8 106l141 1000q-4 4 -28.5 16.5t-74.5 26.5t-97 14q-89 0 -146 -41.5t-57 -124.5q0 -36 10.5 -69.5t26 -56t31 -39t25.5 -24.5l11 -8l-69 -165q-11 5 -31 13t-79.5 21t-115.5 13q-69 0 -125.5 -20 t-94.5 -52.5t-67.5 -78.5t-46 -91.5t-26.5 -98t-13.5 -93t-3.5 -80.5q0 -51 7.5 -92t28 -79t53 -64t85 -41t121.5 -15q67 0 125.5 12t79.5 21l23 -177q-11 -5 -31 -12.5t-88 -20t-143 -12.5q-488 0 -488 463z" />
<glyph horiz-adv-x="1712" d="M201 948l24 185h148l43 292l231 35l-47 -327h590l43 292l231 35l-47 -327h330l-27 -185h-327l-78 -555q-6 -47 -6 -84q0 -74 33.5 -109.5t117.5 -35.5q38 0 78.5 7t61.5 15l22 7l10 -170q-9 -5 -25.5 -13t-72.5 -21.5t-119 -13.5q-336 0 -336 312q0 54 8 106l78 555h-590 l-77 -555q-6 -47 -6 -82q0 -74 34.5 -110.5t118.5 -36.5q37 0 77.5 7t62.5 15l22 7l10 -170q-9 -5 -25.5 -13t-73 -21.5t-120.5 -13.5q-336 0 -336 312q0 54 8 106l78 555h-147z" />
<glyph horiz-adv-x="1683" d="M205 948l24 185h174l15 104q53 371 413 371q53 0 101.5 -8t71.5 -16l22 -7l-55 -180q-49 20 -121 20q-181 0 -205 -188l-14 -96h530l41 292l234 35l-47 -327h329l-26 -185h-328l-78 -555q-6 -41 -6 -74q0 -78 36 -116.5t118 -38.5q36 0 76.5 7t62.5 15l22 7l9 -170 q-10 -5 -28.5 -13t-79 -21.5t-124.5 -13.5q-321 0 -321 312q0 54 8 106l76 555h-531l-133 -948h-227l133 948h-172z" />
<glyph horiz-adv-x="2484" d="M205 948l24 185h174l15 104q53 371 413 371q53 0 101.5 -8t71.5 -16l22 -7l-55 -180q-49 20 -121 20q-92 0 -141 -46t-64 -142l-16 -96h575l15 104q53 371 413 371q53 0 101.5 -8t70.5 -16l23 -7l-55 -180q-47 20 -121 20q-178 0 -205 -188l-14 -96h530l43 292l231 35 l-47 -327h330l-25 -185h-329l-78 -555q-6 -37 -6 -65q0 -164 155 -164q39 0 79.5 7t61.5 15l21 7l6 -170q-11 -5 -31.5 -13t-84.5 -21.5t-129 -13.5q-308 0 -308 304q0 53 9 114l77 555h-532l-131 -948h-230l134 948h-574l-133 -948h-227l133 948h-172z" />
<glyph horiz-adv-x="2285" d="M176 438q0 122 22 228.5t69 197t116.5 155.5t169 101.5t221.5 36.5q45 0 111 -8q-39 68 -39 158q0 130 93.5 215.5t270.5 85.5q115 0 228.5 -40t179.5 -89l-51 -357q137 35 258 35q214 0 319 -79.5t105 -266.5q0 -62 -8 -119l-97 -692h-225l100 711q4 25 4 65 q0 61 -19.5 101.5t-56.5 59.5t-75 25.5t-92 6.5q-62 0 -122 -8.5t-89 -17.5l-29 -9l-131 -934h-225l194 1384q-3 3 -24 11.5t-66.5 18t-91.5 9.5q-92 0 -145.5 -39.5t-53.5 -121.5q0 -112 78 -175l-69 -165q-11 5 -31 13t-79.5 21t-115.5 13q-69 0 -125.5 -20t-94.5 -52.5 t-67.5 -78.5t-46 -91.5t-26.5 -98t-13.5 -93t-3.5 -80.5q0 -51 7.5 -92t28 -79t53 -64t85 -41t121.5 -15q67 0 125.5 12t79.5 21l23 -177q-11 -5 -31 -12.5t-88 -20t-143 -12.5q-488 0 -488 463z" />
<glyph horiz-adv-x="2207" d="M180 438q0 122 22 228.5t69 197t116.5 155.5t169 101.5t221.5 36.5q69 0 113 -8q-41 66 -41 158q0 130 94 215.5t273 85.5q115 0 228 -40t177 -89l-123 -863l512 517h275l-560 -566l205 -288q38 -52 73.5 -78.5t92.5 -26.5q13 0 29 2t26 4l9 2l-23 -172q-43 -22 -121 -22 q-83 0 -149 43.5t-129 132.5l-252 356l-74 -520h-225l196 1384q-78 39 -182 39q-93 0 -145.5 -39.5t-52.5 -121.5q0 -48 19 -92t37 -64l19 -19l-69 -165q-11 5 -30.5 13t-78.5 21t-115 13q-69 0 -126 -20t-95.5 -52.5t-67.5 -78.5t-45.5 -91.5t-27 -98t-13.5 -93t-3 -80.5 q0 -65 13 -114t44.5 -91t91 -64t145.5 -22q119 0 207 33l21 -177q-11 -5 -31 -12.5t-88 -20t-143 -12.5q-131 0 -226.5 33.5t-152 96.5t-83 145.5t-26.5 187.5z" />
<glyph horiz-adv-x="1562" d="M176 438q0 122 22 228.5t69 197t116.5 155.5t169 101.5t221.5 36.5q47 0 117 -8q-45 65 -45 158q0 130 93.5 215.5t270.5 85.5q115 0 228.5 -40t179.5 -89l-209 -1479h-225l194 1384q-3 3 -24 11.5t-66.5 18t-91.5 9.5q-92 0 -145.5 -39.5t-53.5 -121.5q0 -50 22 -102 t56 -73l-69 -165q-11 5 -31 13t-79.5 21t-115.5 13q-69 0 -125.5 -20t-94.5 -52.5t-67.5 -78.5t-46 -91.5t-26.5 -98t-13.5 -93t-3.5 -80.5q0 -51 7.5 -92t28 -79t53 -64t85 -41t121.5 -15q67 0 125.5 12t79.5 21l23 -177q-11 -5 -31 -12.5t-88 -20t-143 -12.5 q-488 0 -488 463z" />
<glyph horiz-adv-x="2293" d="M143 47l56 174q16 -7 44.5 -16.5t114.5 -26t170 -16.5q236 0 236 145q0 58 -50 92.5t-159 71.5q-77 25 -132.5 52t-103 65t-72 90.5t-24.5 118.5q0 82 26.5 145.5t70.5 103t106.5 65.5t127.5 36t140 10q88 0 174 -14q-53 60 -53 160q0 135 105 220t286 85 q119 0 235.5 -39.5t182.5 -89.5l-51 -357q153 35 256 35q217 0 322.5 -79.5t105.5 -266.5q0 -62 -8 -119l-97 -692h-229l100 711q5 31 5 65q0 49 -13.5 85t-35 56.5t-55 32.5t-65 15.5t-73.5 3.5q-63 0 -122.5 -8.5t-87.5 -17.5l-28 -9l-131 -934h-227l192 1384 q0 2 -22.5 11t-69.5 18.5t-98 9.5q-98 0 -161.5 -43.5t-63.5 -128.5q0 -44 21.5 -86.5t55.5 -62.5l-59 -176l-37 11q-37 11 -112 23.5t-150 12.5q-39 0 -76.5 -6t-76.5 -19.5t-63 -42t-24 -67.5q0 -20 6.5 -37t21.5 -31t29 -24.5t41 -23t44.5 -19l52.5 -19.5q42 -15 69 -25 t67 -28.5t66 -35.5t56 -43t47.5 -54t29 -65.5t11.5 -80.5q0 -99 -35 -173t-98.5 -118t-145 -65t-182.5 -21q-100 0 -195.5 18t-141.5 36z" />
<glyph horiz-adv-x="2209" d="M143 47l56 174q16 -7 44.5 -16.5t114.5 -26t170 -16.5q236 0 236 145q0 58 -50 92.5t-159 71.5q-77 25 -132.5 52t-103 65t-72 90.5t-24.5 118.5q0 82 26.5 145.5t70.5 103t106.5 65.5t127.5 36t140 10q88 0 174 -14q-53 60 -53 160q0 135 105 220t286 85 q119 0 235.5 -39.5t182.5 -89.5l-121 -861l508 515h275l-560 -566l205 -288q37 -51 73.5 -78t92.5 -27q13 0 29.5 2t26.5 4l10 2l-25 -172q-41 -22 -119 -22q-84 0 -149 44t-129 132l-252 352l-72 -516h-227l192 1384q0 2 -22.5 11t-69.5 18.5t-98 9.5q-98 0 -161.5 -43.5 t-63.5 -128.5q0 -44 21.5 -86.5t55.5 -62.5l-59 -176l-37 11q-37 11 -112 23.5t-150 12.5q-39 0 -76.5 -6t-76.5 -19.5t-63 -42t-24 -67.5q0 -20 6.5 -37t21.5 -31t29 -24.5t41 -23t44.5 -19l52.5 -19.5q42 -15 69 -25t67 -28.5t66 -35.5t56 -43t47.5 -54t29 -65.5 t11.5 -80.5q0 -99 -35 -173t-98.5 -118t-145 -65t-182.5 -21q-100 0 -195.5 18t-141.5 36z" />
<glyph horiz-adv-x="1536" d="M143 47l56 174q16 -7 44.5 -16.5t114.5 -26t170 -16.5q236 0 236 145q0 58 -50 92.5t-159 71.5q-77 25 -132.5 52t-103 65t-72 90.5t-24.5 118.5q0 82 26.5 145.5t70.5 103t106.5 65.5t127.5 36t140 10q88 0 174 -14q-53 60 -53 160q0 135 105 220t286 85 q119 0 235.5 -39.5t182.5 -89.5l-207 -1479h-227l192 1384q0 2 -22.5 11t-69.5 18.5t-98 9.5q-98 0 -161.5 -43.5t-63.5 -128.5q0 -44 21.5 -86.5t55.5 -62.5l-59 -176l-37 11q-37 11 -112 23.5t-150 12.5q-39 0 -76.5 -6t-76.5 -19.5t-63 -42t-24 -67.5q0 -20 6.5 -37 t21.5 -31t29 -24.5t41 -23t44.5 -19l52.5 -19.5q42 -15 69 -25t67 -28.5t66 -35.5t56 -43t47.5 -54t29 -65.5t11.5 -80.5q0 -99 -35 -173t-98.5 -118t-145 -65t-182.5 -21q-100 0 -195.5 18t-141.5 36z" />
<glyph horiz-adv-x="1345" d="M205 948l24 185h174l15 104q53 371 413 371q53 0 101.5 -8t71.5 -16l22 -7l-55 -180q-49 20 -121 20q-92 0 -141 -46t-64 -142l-16 -96h725l-166 -1172q-10 -70 -26 -127t-45.5 -111.5t-69.5 -91.5t-100 -59.5t-136 -22.5q-56 0 -104.5 10.5t-69.5 21.5l-21 11l48 166 q43 -24 106 -24q90 0 133 54.5t58 156.5l139 1003h-496l-133 -948h-227l133 948h-172zM1141 1407q0 67 42.5 106t112.5 39q56 0 87.5 -27.5t31.5 -78.5q0 -69 -42 -108.5t-111 -39.5q-58 0 -89.5 28t-31.5 81z" />
<glyph horiz-adv-x="1941" d="M205 948l24 185h174l15 104q53 371 413 371q53 0 101.5 -8t71.5 -16l22 -7l-55 -180q-49 20 -121 20q-92 0 -141 -46t-64 -142l-16 -96h590l-101 -711q-4 -25 -4 -66q0 -49 14 -84.5t35 -54.5t55 -30t63.5 -14t70.5 -3q68 0 128.5 8t87.5 16l27 9l129 930h226l-146 -1047 q-37 -263 -178 -400t-414 -137q-86 0 -166 14t-118 28l-37 14l57 178q11 -5 32.5 -13.5t91 -22t142.5 -13.5q92 0 160 22t109.5 63t64.5 88.5t35 108.5q-124 -30 -264 -30q-220 0 -329 76.5t-109 261.5q0 44 10 116l74 508h-361l-133 -948h-227l133 948h-172z" />
<glyph horiz-adv-x="2224" d="M143 47l56 174q16 -7 44.5 -16.5t114.5 -26t170 -16.5q236 0 236 145q0 58 -50 92.5t-159 71.5q-77 25 -132.5 52t-103 65t-72 90.5t-24.5 118.5q0 82 26.5 145.5t70.5 103t106.5 65.5t127.5 36t140 10q88 0 174 -14q-53 60 -53 160q0 135 105 220t286 85 q119 0 235.5 -39.5t182.5 -89.5l-55 -400q148 78 305 78q170 0 256 -86t86 -221q0 -129 -79.5 -227.5t-229.5 -141.5l71 -186q23 -61 52.5 -91t83.5 -30q14 0 29.5 2.5t24.5 5.5l9 2l-16 -170q-47 -26 -129 -26q-91 0 -152 46t-100 150l-103 269q-112 0 -194 14l-66 -467 h-227l192 1384q0 2 -22.5 11t-69.5 18.5t-98 9.5q-98 0 -161.5 -43.5t-63.5 -128.5q0 -44 21.5 -86.5t55.5 -62.5l-59 -176l-37 11q-37 11 -112 23.5t-150 12.5q-39 0 -76.5 -6t-76.5 -19.5t-63 -42t-24 -67.5q0 -20 6.5 -37t21.5 -31t29 -24.5t41 -23t44.5 -19l52.5 -19.5 q42 -15 69 -25t67 -28.5t66 -35.5t56 -43t47.5 -54t29 -65.5t11.5 -80.5q0 -99 -35 -173t-98.5 -118t-145 -65t-182.5 -21q-100 0 -195.5 18t-141.5 36zM1503 623q61 -7 137 -7q175 0 260 53t85 150q0 74 -47.5 114t-143.5 40q-129 0 -250 -68z" />
<glyph horiz-adv-x="2205" d="M166 438q0 122 22 228.5t69 197t116.5 155.5t169 101.5t221.5 36.5q69 0 113 -8q-41 66 -41 158q0 130 93.5 215.5t270.5 85.5q115 0 228.5 -40t179.5 -89l-58 -404q145 82 308 82q168 0 254 -86t86 -219q0 -131 -79.5 -229.5t-230.5 -141.5l72 -186q23 -61 52 -91 t83 -30q15 0 31 2.5t24 5.5l9 2l-17 -170q-45 -26 -127 -26q-91 0 -151 46t-101 150l-104 269q-97 0 -195 16l-65 -469h-225l194 1384q-78 39 -182 39q-91 0 -145 -43t-54 -125q0 -45 19.5 -87t37.5 -61.5t21 -19.5l-70 -165q-11 5 -31 13t-79 21t-115 13q-69 0 -125.5 -20 t-94.5 -52.5t-67.5 -78.5t-46 -91.5t-26.5 -98t-13.5 -93t-3.5 -80.5q0 -51 7.5 -92t28 -79t53 -64t85 -41t121.5 -15q67 0 125.5 12t79.5 21l22 -177q-11 -5 -31 -12.5t-88 -20t-143 -12.5q-487 0 -487 463zM1487 623q58 -7 135 -7q175 0 259.5 53t84.5 150q0 154 -190 154 q-125 0 -250 -68z" />
<glyph horiz-adv-x="1843" d="M211 848q0 104 34 197t108 173t181.5 137.5t262.5 90.5t344 33q97 0 186 -6.5t129 -12.5l41 -6l287 -1454h-242l-72 408h-548l-185 -408h-243l614 1286h-35q-317 0 -493.5 -117.5t-176.5 -332.5q0 -48 10 -93t23.5 -74.5t27.5 -52t24 -32.5l10 -11l-136 -108 q-6 6 -16.5 17t-36.5 48t-45.5 78.5t-36 106.5t-16.5 133zM1010 598h426l-119 674z" />
<glyph horiz-adv-x="1959" d="M197 819q0 106 31.5 197t113 178.5t208.5 148.5t331.5 98.5t468.5 37.5q230 0 366 -37t194 -111t58 -196q0 -133 -67.5 -225t-200.5 -136q119 -39 172 -121t53 -211q0 -244 -170.5 -355.5t-507.5 -111.5q-100 0 -214.5 9.5t-179.5 18.5l-65 9l175 1256 q-88 -9 -167.5 -29.5t-155.5 -57.5t-131 -86.5t-88.5 -121.5t-33.5 -158q0 -61 16.5 -116.5t40.5 -91t48 -62t40 -37.5l17 -12l-123 -123q-9 6 -24.5 16.5t-55 51t-69.5 87.5t-55 125.5t-25 165.5zM1042 176q105 -10 220 -10q100 0 174 12.5t134.5 43.5t92 88.5t31.5 140.5 q0 121 -74.5 172t-253.5 51h-256zM1135 842h235q184 0 271.5 62.5t87.5 189.5q0 60 -18.5 99t-59.5 59.5t-92.5 28t-131.5 7.5q-60 0 -118 -1.5t-85 -2.5l-28 -2z" />
<glyph horiz-adv-x="1325" d="M195 567q0 141 26.5 272t84 248t141 203.5t205.5 137.5t270 51q115 0 204 -29.5t142 -80.5t79.5 -113.5t26.5 -133.5q0 -79 -27 -149t-72.5 -122t-97.5 -90t-110 -63l-104 129q81 39 133.5 109t52.5 164q0 80 -57 133t-183 53q-85 0 -156 -28.5t-119.5 -74.5t-86.5 -109 t-60 -127t-35.5 -134.5t-18.5 -125.5t-5 -105q0 -414 410 -414q72 0 149 14t119 28l41 15l29 -184q-16 -7 -46 -18t-125.5 -29.5t-193.5 -18.5q-164 0 -285.5 46t-192.5 128.5t-104.5 186.5t-33.5 231z" />
<glyph horiz-adv-x="2050" d="M211 819q0 74 15.5 141t53 134.5t96.5 123.5t150 105.5t207.5 83t276 53t350.5 19.5q163 0 287 -31t201 -83t125 -128.5t66.5 -159.5t18.5 -184q0 -98 -10.5 -188.5t-37 -184t-67.5 -172.5t-105.5 -149t-147 -118.5t-196.5 -77t-249 -28.5q-103 0 -213 11t-168 22l-59 12 l174 1246q-88 -9 -167.5 -29t-156 -57t-132 -86t-89 -121t-33.5 -158q0 -61 17 -116.5t41 -91t48 -62t41 -37.5l17 -12l-123 -123q-9 6 -25 16.5t-55.5 51t-70 87.5t-55.5 125.5t-25 165.5zM1057 178q88 -10 203 -10q89 0 167.5 21t152.5 72.5t127.5 130.5t85.5 203t32 282 q0 218 -114.5 313.5t-326.5 95.5q-94 0 -172 -4z" />
<glyph horiz-adv-x="1873" d="M211 846q0 279 215.5 443.5t587.5 164.5h946l-25 -190h-716l-60 -420h637l-27 -189h-636l-31 -215q-4 -40 -4 -59q0 -114 82 -163.5t260 -49.5q44 0 90 2t80.5 5.5t68 7.5t53 7t36.5 6l18 3l-29 -189q-143 -35 -358 -35q-533 0 -533 383q0 42 6 88l113 818 q-112 0 -210.5 -22t-184.5 -69.5t-136.5 -133t-50.5 -201.5q0 -65 16.5 -124t39.5 -97t46 -66.5t39 -41.5l17 -13l-121 -123q-9 6 -24.5 18t-55 55t-69.5 93.5t-55 133t-25 173.5z" />
<glyph horiz-adv-x="1826" d="M211 846q0 279 215.5 443.5t587.5 164.5h938l-27 -192h-706l-66 -467h616l-24 -191h-619l-86 -604h-231l176 1264q-112 0 -210.5 -22t-184.5 -69.5t-136.5 -133t-50.5 -201.5q0 -65 16.5 -124t39.5 -97t46 -66.5t39 -41.5l17 -13l-121 -123q-9 6 -24.5 18t-55 55 t-69.5 93.5t-55 133t-25 173.5z" />
<glyph horiz-adv-x="1339" d="M197 561q0 147 29 281.5t90 251t147 202t207.5 134.5t265.5 49q218 0 332 -93.5t114 -232.5q0 -54 -18 -108t-46 -94.5t-53.5 -68.5t-47.5 -44l-144 88q22 15 55 71.5t33 120.5q0 72 -57.5 121t-183.5 49q-95 0 -173 -35t-130 -95t-90 -132.5t-58 -156t-29.5 -156.5 t-9.5 -142q0 -399 371 -399q83 0 188 23l60 423h217l-95 -673q-9 -63 -29 -118t-56.5 -107t-87.5 -89t-126 -59.5t-167 -22.5q-53 0 -104 8.5t-76 16.5l-25 8l39 164q60 -20 149 -20q119 0 184.5 55t79.5 156l9 63q-99 -18 -191 -18q-154 0 -267.5 45t-179 126t-96 182 t-30.5 226z" />
<glyph horiz-adv-x="2095" d="M211 846q0 279 215.5 443.5t587.5 164.5h231l-86 -610h662l86 610h231l-205 -1454h-231l92 645h-661l-93 -645h-231l176 1264q-112 0 -210.5 -22t-184.5 -69.5t-136.5 -133t-50.5 -201.5q0 -65 16.5 -124t39.5 -97t46 -66.5t39 -41.5l17 -13l-121 -123q-9 6 -24.5 18 t-55 55t-69.5 93.5t-55 133t-25 173.5z" />
<glyph horiz-adv-x="1208" d="M211 846q0 279 215.5 443.5t587.5 164.5h231l-205 -1454h-231l176 1264q-112 0 -210.5 -22t-184.5 -69.5t-136.5 -133t-50.5 -201.5q0 -65 16.5 -124t39.5 -97t46 -66.5t39 -41.5l17 -13l-121 -123q-9 6 -24.5 18t-55 55t-69.5 93.5t-55 133t-25 173.5z" />
<glyph horiz-adv-x="1200" d="M211 846q0 279 215.5 443.5t587.5 164.5h229l-211 -1493q-28 -196 -145.5 -304t-300.5 -108q-83 0 -154.5 18.5t-101.5 36.5l-31 19l61 164q8 -5 23 -12.5t65 -20t105 -12.5q102 0 167.5 54.5t80.5 158.5l184 1309q-112 0 -210.5 -22t-184.5 -69.5t-136.5 -133 t-50.5 -201.5q0 -65 16.5 -124t39.5 -97t46 -66.5t39 -41.5l17 -13l-121 -123q-9 6 -24.5 18t-55 55t-69.5 93.5t-55 133t-25 173.5z" />
<glyph horiz-adv-x="1968" d="M211 846q0 279 215.5 443.5t587.5 164.5h231l-96 -694l651 694h283l-697 -745l281 -387q53 -73 99 -108.5t106 -35.5q43 0 63 10l-24 -176q-49 -24 -129 -24q-91 0 -160.5 50.5t-148.5 158.5l-338 469l-95 -666h-231l176 1264q-112 0 -210.5 -22t-184.5 -69.5 t-136.5 -133t-50.5 -201.5q0 -65 16.5 -124t39.5 -97t46 -66.5t39 -41.5l17 -13l-121 -123q-9 6 -24.5 18t-55 55t-69.5 93.5t-55 133t-25 173.5z" />
<glyph horiz-adv-x="1753" d="M211 846q0 279 215.5 443.5t587.5 164.5h229l-143 -1024q-4 -40 -4 -55q0 -113 79 -159t240 -46q79 0 151 9t104 17l32 9l-29 -195q-98 -35 -299 -35q-512 0 -512 369q0 40 6 86l117 834q-112 0 -210.5 -22t-184.5 -69.5t-136.5 -133t-50.5 -201.5q0 -65 16.5 -124 t39.5 -97t46 -66.5t39 -41.5l17 -13l-121 -123q-9 6 -24.5 18t-55 55t-69.5 93.5t-55 133t-25 173.5z" />
<glyph horiz-adv-x="2367" d="M211 846q0 279 215.5 443.5t587.5 164.5h301l250 -975l522 975h258l-82 -1454h-233l51 907l26 195l-92 -195l-373 -686h-225l-182 686l-39 189l-27 -189l-202 -907h-234l283 1264h-31q-112 0 -210.5 -22t-184.5 -69.5t-136.5 -133t-50.5 -201.5q0 -65 16.5 -124t39.5 -97 t46 -66.5t39 -41.5l17 -13l-121 -123q-9 6 -24.5 18t-55 55t-69.5 93.5t-55 133t-25 173.5z" />
<glyph horiz-adv-x="2105" d="M211 846q0 279 215.5 443.5t587.5 164.5h256l508 -1102l12 148l133 954h225l-204 -1454h-250l-514 1112l-6 -137l-140 -975h-225l176 1264q-112 0 -210.5 -22t-184.5 -69.5t-136.5 -133t-50.5 -201.5q0 -65 16.5 -124t39.5 -97t46 -66.5t39 -41.5l17 -13l-121 -123 q-9 6 -24.5 18t-55 55t-69.5 93.5t-55 133t-25 173.5z" />
<glyph horiz-adv-x="1433" d="M199 535q0 179 33.5 339.5t91.5 278t131 201t155 125.5l90 -99q-76 -67 -132 -168.5t-86 -216.5t-44 -227t-14 -227q0 -63 7.5 -113.5t29.5 -100.5t57 -83.5t93.5 -54.5t136.5 -21q85 0 155 30.5t116.5 79t82 119.5t55.5 141.5t32 155t15.5 150.5t3.5 137q0 305 -217 305 q-109 0 -173 -88t-64 -209q0 -91 42 -173t124 -136l-119 -127q-112 65 -173 187.5t-61 248.5t51.5 236.5t154 182t235.5 71.5q430 0 430 -498q0 -112 -9.5 -213t-32.5 -204t-58.5 -188.5t-91.5 -161t-127 -127.5t-169 -82t-215 -30q-121 0 -215 30.5t-153.5 82t-98 125 t-54 152t-15.5 170.5z" />
<glyph horiz-adv-x="1935" d="M211 819q0 74 16 141t54 134.5t97 124t150.5 105.5t209 82.5t277 53t349.5 19.5q328 0 483.5 -97t155.5 -311q0 -97 -21 -180.5t-71 -158t-125.5 -127t-190.5 -83t-260 -30.5q-40 0 -96 2t-96 4t-41 2l-70 -500h-231l178 1266q-88 -8 -168 -28t-156 -57t-131.5 -86.5 t-89 -121.5t-33.5 -158q0 -61 17 -116.5t41 -91t48 -62t41 -37.5l17 -12l-123 -123q-9 6 -25 16.5t-55.5 51t-70 87.5t-55.5 125.5t-25 165.5zM1128 688q75 -6 218 -6q213 0 318 88t105 270q0 133 -93.5 189.5t-291.5 56.5q-31 0 -72.5 -1t-70 -2t-29.5 -1z" />
<glyph horiz-adv-x="1431" d="M199 535q0 179 33.5 339.5t91.5 278t131 201t155 125.5l90 -99q-76 -67 -132 -168.5t-86 -216.5t-44 -227t-14 -227q0 -63 7.5 -113.5t29.5 -100.5t57 -83.5t93.5 -54.5t136.5 -21q85 0 155 30.5t116.5 79t82 119.5t55.5 141.5t32 155t15.5 150.5t3.5 137q0 305 -217 305 q-109 0 -173 -88t-64 -209q0 -91 42 -173t124 -136l-119 -127q-112 65 -173 187.5t-61 248.5t51.5 236t154 181t235.5 71q430 0 430 -496q0 -112 -9.5 -213t-32.5 -204t-58.5 -188.5t-91.5 -161t-127 -127.5t-169 -82t-215 -30q-121 0 -215 30.5t-153.5 82t-98 125t-54 152 t-15.5 170.5zM598 -328l27 162l630 -53l-28 -178z" />
<glyph horiz-adv-x="2000" d="M211 819q0 74 16 141t54 134.5t97 124t150.5 105.5t209 82.5t277 53t349.5 19.5q328 0 486.5 -92t158.5 -285q0 -199 -95.5 -321t-295.5 -169l121 -297q29 -73 60 -105t87 -32l56 6l-25 -174q-35 -22 -111 -22t-131 32t-86.5 80t-62.5 125l-144 359h-79q-117 0 -187 6 l-84 -590h-231l178 1266q-88 -8 -168 -28t-156 -57t-131.5 -86.5t-89 -121.5t-33.5 -158q0 -61 17 -116.5t41 -91t48 -62t41 -37.5l17 -12l-123 -123q-9 6 -25 16.5t-55.5 51t-70 87.5t-55.5 125.5t-25 165.5zM1141 772q87 -6 192 -6q236 0 339.5 68.5t103.5 236.5 q0 63 -26.5 106.5t-76.5 66.5t-110 32.5t-140 9.5q-76 0 -211 -6z" />
<glyph horiz-adv-x="1232" d="M170 369q0 45 8.5 87t20.5 70t24 50t21 32l8 10l180 -45q-6 -8 -15 -22t-23.5 -60.5t-14.5 -95.5q0 -112 77.5 -169.5t209.5 -57.5q130 0 211 62.5t81 166.5q0 45 -16.5 82.5t-40 63.5t-66 51.5t-77 41.5t-90.5 38q-60 25 -98.5 42.5t-87.5 45.5t-79 57.5t-58 69t-41 90 t-13 111.5q0 81 28.5 147t77 110.5t116 74.5t143 43.5t159.5 13.5q113 0 210.5 -21t138.5 -42l42 -21l-78 -168q-12 7 -35 16.5t-103 26t-171 16.5q-299 0 -299 -184q0 -20 3 -37.5t11.5 -33.5t14.5 -28t23 -25.5t26 -22t33 -20.5t34.5 -18t41.5 -18.5t42.5 -16.5t47.5 -18 q67 -25 119 -50.5t106 -64t89.5 -82.5t58 -105.5t22.5 -133.5q0 -203 -144.5 -328t-398.5 -125q-230 0 -354.5 110t-124.5 284z" />
<glyph horiz-adv-x="1613" d="M211 846q0 280 213.5 444t585.5 164h749l-28 -197h-455l-178 -1257h-232l176 1257h-59q-89 0 -168 -12.5t-154.5 -43t-130 -77t-87.5 -120t-33 -166.5q0 -65 15.5 -124t37.5 -97t44.5 -66.5t38.5 -41.5l15 -13l-121 -121q-9 6 -24.5 18t-55 54.5t-69.5 92.5t-55 132.5 t-25 173.5z" />
<glyph horiz-adv-x="2097" d="M211 846q0 279 215.5 443.5t587.5 164.5h229l-127 -903q-8 -52 -8 -107q0 -69 17 -120.5t44 -80.5t67.5 -46.5t79 -23t87.5 -5.5q338 0 393 383l127 903h231l-122 -870q-25 -170 -77 -287.5t-135 -188.5t-191 -102t-253 -31q-495 0 -495 459q0 84 10 150l94 680 q-112 0 -210.5 -22t-184.5 -69.5t-136.5 -133t-50.5 -201.5q0 -65 16.5 -124t39.5 -97t46 -66.5t39 -41.5l17 -13l-121 -123q-9 6 -24.5 18t-55 55t-69.5 93.5t-55 133t-25 173.5z" />
<glyph horiz-adv-x="1955" d="M211 846q0 278 208.5 443t561.5 165h92l209 -1268l573 1268h248l-690 -1454h-309l-234 1260q-97 -11 -177.5 -39.5t-147.5 -77.5t-104.5 -127t-37.5 -178q0 -65 16.5 -124t39.5 -97t46 -66.5t39 -41.5l17 -13l-121 -121q-9 6 -24.5 18t-55 54.5t-69.5 92.5t-55 132.5 t-25 173.5z" />
<glyph horiz-adv-x="2609" d="M211 846q0 278 208.5 443t561.5 165h121l115 -1079l6 -172l55 174l397 1007h240l117 -1009l4 -170l57 174l414 1075h246l-572 -1454h-301l-123 932l-6 123l-41 -123l-385 -932h-299l-147 1262q-97 -11 -179 -39.5t-150.5 -77.5t-107.5 -127.5t-39 -179.5q0 -65 16.5 -124 t39.5 -97t46 -66.5t39 -41.5l17 -13l-121 -121q-9 6 -24.5 18t-55 54.5t-69.5 92.5t-55 132.5t-25 173.5z" />
<glyph horiz-adv-x="1890" d="M211 846q0 278 208.5 443t561.5 165h74l278 -567l443 567h264l-570 -717l371 -737h-256l-285 569l-448 -569h-266l577 743l-270 514q-101 -8 -185.5 -34.5t-154.5 -75t-110 -127.5t-40 -182q0 -65 16.5 -124t39.5 -97t46 -66.5t39 -41.5l17 -13l-121 -121q-9 6 -24.5 18 t-55 54.5t-69.5 92.5t-55 132.5t-25 173.5z" />
<glyph horiz-adv-x="1851" d="M211 846q0 278 208.5 443t561.5 165h49l262 -680l465 680h252l-620 -876l-80 -578h-232l80 580l-293 677q-75 -9 -140.5 -28t-125.5 -53t-102.5 -80t-67.5 -112t-25 -146q0 -65 16.5 -124t39.5 -97t46 -66.5t39 -41.5l17 -13l-121 -121q-9 6 -24.5 18t-55 54.5 t-69.5 92.5t-55 132.5t-25 173.5z" />
<glyph horiz-adv-x="1347" d="M197 0l26 193l932 1071h-377q-147 0 -237 -65.5t-90 -190.5q0 -44 11.5 -88t22.5 -66l11 -23l-164 -71q-3 4 -8 12.5t-18.5 36t-23.5 56.5t-18 73t-8 88q0 202 143 315t402 113h583l43 -190l-925 -1071h766l-27 -193h-1044z" />
<glyph horiz-adv-x="1843" d="M211 848q0 104 34 197t108 173t181.5 137.5t262.5 90.5t344 33q97 0 186 -6.5t129 -12.5l41 -6l287 -1454h-242l-72 408h-548l-185 -408h-243l614 1286h-35q-317 0 -493.5 -117.5t-176.5 -332.5q0 -48 10 -93t23.5 -74.5t27.5 -52t24 -32.5l10 -11l-136 -108 q-6 6 -16.5 17t-36.5 48t-45.5 78.5t-36 106.5t-16.5 133zM1010 598h426l-119 674zM1085 1790l125 131l277 -268l-103 -111z" />
<glyph horiz-adv-x="1843" d="M211 848q0 104 34 197t108 173t181.5 137.5t262.5 90.5t344 33q97 0 186 -6.5t129 -12.5l41 -6l287 -1454h-242l-72 408h-548l-185 -408h-243l614 1286h-35q-317 0 -493.5 -117.5t-176.5 -332.5q0 -48 10 -93t23.5 -74.5t27.5 -52t24 -32.5l10 -11l-136 -108 q-6 6 -16.5 17t-36.5 48t-45.5 78.5t-36 106.5t-16.5 133zM1010 598h426l-119 674zM1190 1665l352 266l86 -129l-366 -250z" />
<glyph horiz-adv-x="1843" d="M211 848q0 104 34 197t108 173t181.5 137.5t262.5 90.5t344 33q97 0 186 -6.5t129 -12.5l41 -6l287 -1454h-242l-72 408h-548l-185 -408h-243l614 1286h-35q-317 0 -493.5 -117.5t-176.5 -332.5q0 -48 10 -93t23.5 -74.5t27.5 -52t24 -32.5l10 -11l-136 -108 q-6 6 -16.5 17t-36.5 48t-45.5 78.5t-36 106.5t-16.5 133zM1010 598h426l-119 674zM1026 1642l342 267l270 -267l-98 -100l-199 172l-247 -172z" />
<glyph horiz-adv-x="1843" d="M211 848q0 104 34 197t108 173t181.5 137.5t262.5 90.5t344 33q97 0 186 -6.5t129 -12.5l41 -6l287 -1454h-242l-72 408h-548l-185 -408h-243l614 1286h-35q-317 0 -493.5 -117.5t-176.5 -332.5q0 -48 10 -93t23.5 -74.5t27.5 -52t24 -32.5l10 -11l-136 -108 q-6 6 -16.5 17t-36.5 48t-45.5 78.5t-36 106.5t-16.5 133zM1006 1661q2 8 7 21t23.5 46.5t41 59t63 46.5t86.5 21q48 0 89 -25t75 -50t65 -25q34 0 61 25t37 50l11 25l100 -61q-2 -8 -7 -21.5t-24 -47.5t-42.5 -59.5t-63.5 -47t-86 -21.5q-45 0 -85 25.5t-74 50.5t-66 25 q-35 0 -62.5 -25t-38.5 -51l-10 -25zM1010 598h426l-119 674z" />
<glyph horiz-adv-x="1843" d="M211 848q0 104 34 197t108 173t181.5 137.5t262.5 90.5t344 33q97 0 186 -6.5t129 -12.5l41 -6l287 -1454h-242l-72 408h-548l-185 -408h-243l614 1286h-35q-317 0 -493.5 -117.5t-176.5 -332.5q0 -48 10 -93t23.5 -74.5t27.5 -52t24 -32.5l10 -11l-136 -108 q-6 6 -16.5 17t-36.5 48t-45.5 78.5t-36 106.5t-16.5 133zM1010 598h426l-119 674zM1026 1704q0 58 34 91.5t95 33.5q96 0 96 -90q0 -58 -33.5 -93.5t-93.5 -35.5q-48 0 -73 25.5t-25 68.5zM1446 1706q0 57 35 90t94 33q47 0 72.5 -24t25.5 -66q0 -58 -35 -93.5t-94 -35.5 q-46 0 -72 26t-26 70z" />
<glyph horiz-adv-x="1843" d="M211 848q0 104 34 197t108 173t181.5 137.5t262.5 90.5t344 33q97 0 186 -6.5t129 -12.5l41 -6l287 -1454h-242l-72 408h-548l-185 -408h-243l614 1286h-35q-317 0 -493.5 -117.5t-176.5 -332.5q0 -48 10 -93t23.5 -74.5t27.5 -52t24 -32.5l10 -11l-136 -108 q-6 6 -16.5 17t-36.5 48t-45.5 78.5t-36 106.5t-16.5 133zM1010 598h426l-119 674zM1130 1737q0 109 70 173t182 64q89 0 141 -47t52 -129q0 -108 -70 -171.5t-180 -63.5q-91 0 -143 45.5t-52 128.5zM1253 1749q0 -40 22.5 -62t63.5 -22q53 0 83 32t30 89q0 40 -22.5 64 t-63.5 24q-52 0 -82.5 -34t-30.5 -91z" />
<glyph horiz-adv-x="2242" d="M193 848q0 104 34 197t107.5 173t181 137.5t262.5 90.5t344 33q95 0 182.5 -6.5t127.5 -12.5l41 -6h856l-25 -190h-717l-59 -420h637l-29 -189h-637l-29 -215q-4 -40 -4 -59q0 -115 81.5 -164t256.5 -49q115 0 213.5 11t134.5 20l-26 -189q-148 -35 -361 -35 q-532 0 -532 381q0 38 2 58h-426l-258 -414h-246l836 1286h-76q-323 0 -502.5 -117t-179.5 -333q0 -49 10 -94t24 -74.5t28 -52t24 -32.5l10 -10l-135 -108q-6 6 -16.5 17t-36.5 48t-45.5 78.5t-36 106.5t-16.5 133zM926 600h334l100 696z" />
<glyph horiz-adv-x="1325" d="M195 567q0 141 26.5 272t84 248t141 203.5t205.5 137.5t270 51q115 0 204 -29.5t142 -80.5t79.5 -113.5t26.5 -133.5q0 -79 -27 -149t-72.5 -122t-97.5 -90t-110 -63l-104 129q81 39 133.5 109t52.5 164q0 80 -57 133t-183 53q-85 0 -156 -28.5t-119.5 -74.5t-86.5 -109 t-60 -127t-35.5 -134.5t-18.5 -125.5t-5 -105q0 -414 410 -414q72 0 149 14t119 28l41 15l29 -184q-16 -7 -46 -18t-125.5 -29.5t-193.5 -18.5q-29 0 -43 2l-31 -86q18 3 35 3q80 0 134.5 -35.5t54.5 -106.5q0 -89 -71.5 -146t-211.5 -57q-55 0 -102 10.5t-67 20.5l-20 10 l43 111q50 -31 134 -31q133 0 133 86q0 68 -111 68q-81 0 -121 -17l70 185q-116 22 -203 75t-138.5 130t-76 169t-24.5 201z" />
<glyph horiz-adv-x="1339" d="M197 561q0 147 29 281.5t90 251t147 202t207.5 134.5t265.5 49q218 0 332 -93.5t114 -232.5q0 -54 -18 -108t-46 -94.5t-53.5 -68.5t-47.5 -44l-144 88q22 15 55 71.5t33 120.5q0 72 -57.5 121t-183.5 49q-95 0 -173 -35t-130 -95t-90 -132.5t-58 -156t-29.5 -156.5 t-9.5 -142q0 -399 371 -399q83 0 188 23l60 423h217l-95 -673q-9 -63 -29 -118t-56.5 -107t-87.5 -89t-126 -59.5t-167 -22.5q-53 0 -104 8.5t-76 16.5l-25 8l39 164q60 -20 149 -20q119 0 184.5 55t79.5 156l9 63q-99 -18 -191 -18q-154 0 -267.5 45t-179 126t-96 182 t-30.5 226zM705 1822v15l124 43v-8.5t3 -21.5t7.5 -30.5t16 -32.5t26.5 -30.5t40.5 -21.5t56.5 -9q44 0 79.5 16t55 38.5t33 45t17.5 38.5l5 16l117 -43q-3 -11 -8.5 -28.5t-31 -62.5t-58.5 -79.5t-94.5 -63t-135.5 -28.5q-54 0 -97 14.5t-69 37.5t-44.5 51t-26.5 56t-12 51 t-4 37z" />
<glyph horiz-adv-x="2050" d="M211 819q0 74 15.5 141t53 134.5t96.5 123.5t150 105.5t207.5 83t276 53t350.5 19.5q163 0 287 -31t201 -83t125 -128.5t66.5 -159.5t18.5 -184q0 -98 -10.5 -188.5t-37 -184t-67.5 -172.5t-105.5 -149t-147 -118.5t-196.5 -77t-249 -28.5q-103 0 -213 11t-168 22l-59 12 l88 633h-72l27 185h70l61 428q-88 -9 -167.5 -29t-156 -57t-132 -86t-89 -121t-33.5 -158q0 -61 17 -116.5t41 -91t48 -62t41 -37.5l17 -12l-123 -123q-9 6 -25 16.5t-55.5 51t-70 87.5t-55.5 125.5t-25 165.5zM1057 178q88 -10 203 -10q89 0 167.5 21t152.5 72.5 t127.5 130.5t85.5 203t32 282q0 218 -114.5 313.5t-326.5 95.5q-94 0 -172 -4l-63 -444h340l-25 -185h-342z" />
<glyph horiz-adv-x="1873" d="M211 846q0 279 215.5 443.5t587.5 164.5h946l-25 -190h-716l-60 -420h637l-27 -189h-636l-31 -215q-4 -40 -4 -59q0 -114 82 -163.5t260 -49.5q44 0 90 2t80.5 5.5t68 7.5t53 7t36.5 6l18 3l-29 -189q-143 -35 -358 -35q-533 0 -533 383q0 42 6 88l113 818 q-112 0 -210.5 -22t-184.5 -69.5t-136.5 -133t-50.5 -201.5q0 -65 16.5 -124t39.5 -97t46 -66.5t39 -41.5l17 -13l-121 -123q-9 6 -24.5 18t-55 55t-69.5 93.5t-55 133t-25 173.5zM1249 1790l125 131l277 -268l-105 -111z" />
<glyph horiz-adv-x="1873" d="M211 846q0 279 215.5 443.5t587.5 164.5h946l-25 -190h-716l-60 -420h637l-27 -189h-636l-31 -215q-4 -40 -4 -59q0 -114 82 -163.5t260 -49.5q44 0 90 2t80.5 5.5t68 7.5t53 7t36.5 6l18 3l-29 -189q-143 -35 -358 -35q-533 0 -533 383q0 42 6 88l113 818 q-112 0 -210.5 -22t-184.5 -69.5t-136.5 -133t-50.5 -201.5q0 -65 16.5 -124t39.5 -97t46 -66.5t39 -41.5l17 -13l-121 -123q-9 6 -24.5 18t-55 55t-69.5 93.5t-55 133t-25 173.5zM1395 1653l352 268l86 -131l-367 -248z" />
<glyph horiz-adv-x="1873" d="M211 846q0 279 215.5 443.5t587.5 164.5h946l-25 -190h-716l-60 -420h637l-27 -189h-636l-31 -215q-4 -40 -4 -59q0 -114 82 -163.5t260 -49.5q44 0 90 2t80.5 5.5t68 7.5t53 7t36.5 6l18 3l-29 -189q-143 -35 -358 -35q-533 0 -533 383q0 42 6 88l113 818 q-112 0 -210.5 -22t-184.5 -69.5t-136.5 -133t-50.5 -201.5q0 -65 16.5 -124t39.5 -97t46 -66.5t39 -41.5l17 -13l-121 -123q-9 6 -24.5 18t-55 55t-69.5 93.5t-55 133t-25 173.5zM1200 1642l344 267l271 -267l-99 -100l-200 172l-248 -172z" />
<glyph horiz-adv-x="1873" d="M211 846q0 279 215.5 443.5t587.5 164.5h946l-25 -190h-716l-60 -420h637l-27 -189h-636l-31 -215q-4 -40 -4 -59q0 -114 82 -163.5t260 -49.5q44 0 90 2t80.5 5.5t68 7.5t53 7t36.5 6l18 3l-29 -189q-143 -35 -358 -35q-533 0 -533 383q0 42 6 88l113 818 q-112 0 -210.5 -22t-184.5 -69.5t-136.5 -133t-50.5 -201.5q0 -65 16.5 -124t39.5 -97t46 -66.5t39 -41.5l17 -13l-121 -123q-9 6 -24.5 18t-55 55t-69.5 93.5t-55 133t-25 173.5zM1196 1704q0 58 34 91.5t95 33.5q46 0 71 -24t25 -66q0 -58 -33.5 -93.5t-93.5 -35.5 q-48 0 -73 25.5t-25 68.5zM1616 1706q0 57 35 90t94 33q47 0 72.5 -24t25.5 -66q0 -58 -35 -93.5t-94 -35.5q-46 0 -72 26t-26 70z" />
<glyph horiz-adv-x="1208" d="M211 846q0 279 215.5 443.5t587.5 164.5h231l-205 -1454h-231l176 1264q-112 0 -210.5 -22t-184.5 -69.5t-136.5 -133t-50.5 -201.5q0 -65 16.5 -124t39.5 -97t46 -66.5t39 -41.5l17 -13l-121 -123q-9 6 -24.5 18t-55 55t-69.5 93.5t-55 133t-25 173.5zM834 1790l124 131 l277 -268l-105 -111z" />
<glyph horiz-adv-x="1208" d="M211 846q0 279 215.5 443.5t587.5 164.5h231l-205 -1454h-231l176 1264q-112 0 -210.5 -22t-184.5 -69.5t-136.5 -133t-50.5 -201.5q0 -65 16.5 -124t39.5 -97t46 -66.5t39 -41.5l17 -13l-121 -123q-9 6 -24.5 18t-55 55t-69.5 93.5t-55 133t-25 173.5zM1001 1653 l353 268l86 -131l-367 -248z" />
<glyph horiz-adv-x="1208" d="M211 846q0 279 215.5 443.5t587.5 164.5h231l-205 -1454h-231l176 1264q-112 0 -210.5 -22t-184.5 -69.5t-136.5 -133t-50.5 -201.5q0 -65 16.5 -124t39.5 -97t46 -66.5t39 -41.5l17 -13l-121 -123q-9 6 -24.5 18t-55 55t-69.5 93.5t-55 133t-25 173.5zM799 1642l344 267 l270 -267l-98 -100l-199 172l-248 -172z" />
<glyph horiz-adv-x="1208" d="M211 846q0 279 215.5 443.5t587.5 164.5h231l-205 -1454h-231l176 1264q-112 0 -210.5 -22t-184.5 -69.5t-136.5 -133t-50.5 -201.5q0 -65 16.5 -124t39.5 -97t46 -66.5t39 -41.5l17 -13l-121 -123q-9 6 -24.5 18t-55 55t-69.5 93.5t-55 133t-25 173.5zM778 1704 q0 58 34 91.5t93 33.5q49 0 74 -24t25 -66q0 -58 -34.5 -93.5t-95.5 -35.5q-45 0 -70.5 26t-25.5 68zM1198 1704q0 58 34 91.5t95 33.5q46 0 71 -24t25 -66q0 -58 -34 -93.5t-93 -35.5q-48 0 -73 25.5t-25 68.5z" />
<glyph horiz-adv-x="1208" d="M211 846q0 279 215.5 443.5t587.5 164.5h231l-205 -1454h-231l176 1264q-112 0 -210.5 -22t-184.5 -69.5t-136.5 -133t-50.5 -201.5q0 -65 16.5 -124t39.5 -97t46 -66.5t39 -41.5l17 -13l-121 -123q-9 6 -24.5 18t-55 55t-69.5 93.5t-55 133t-25 173.5zM1044 1747 q0 59 38 96t102 37q51 0 78.5 -26.5t27.5 -71.5q0 -60 -37.5 -96.5t-101.5 -36.5q-50 0 -78.5 26.5t-28.5 71.5z" />
<glyph horiz-adv-x="2105" d="M211 846q0 279 215.5 443.5t587.5 164.5h256l508 -1102l12 148l133 954h225l-204 -1454h-250l-514 1112l-6 -137l-140 -975h-225l176 1264q-112 0 -210.5 -22t-184.5 -69.5t-136.5 -133t-50.5 -201.5q0 -65 16.5 -124t39.5 -97t46 -66.5t39 -41.5l17 -13l-121 -123 q-9 6 -24.5 18t-55 55t-69.5 93.5t-55 133t-25 173.5zM1286 1661q2 8 7 21t23.5 46.5t41 59t63 46.5t86.5 21q38 0 73 -15.5t56 -34.5t48.5 -34.5t52.5 -15.5q34 0 61 25t37 50l10 25l99 -61q-2 -8 -7 -21.5t-24 -47.5t-42 -59.5t-63 -47t-86 -21.5q-37 0 -70.5 16 t-54.5 34.5t-48 34.5t-52 16q-34 0 -61.5 -25t-38.5 -51l-11 -25z" />
<glyph horiz-adv-x="1433" d="M199 535q0 179 33.5 339.5t91.5 278t131 201t155 125.5l90 -99q-76 -67 -132 -168.5t-86 -216.5t-44 -227t-14 -227q0 -63 7.5 -113.5t29.5 -100.5t57 -83.5t93.5 -54.5t136.5 -21q85 0 155 30.5t116.5 79t82 119.5t55.5 141.5t32 155t15.5 150.5t3.5 137q0 305 -217 305 q-109 0 -173 -88t-64 -209q0 -91 42 -173t124 -136l-119 -127q-112 65 -173 187.5t-61 248.5t51.5 236.5t154 182t235.5 71.5q430 0 430 -498q0 -112 -9.5 -213t-32.5 -204t-58.5 -188.5t-91.5 -161t-127 -127.5t-169 -82t-215 -30q-121 0 -215 30.5t-153.5 82t-98 125 t-54 152t-15.5 170.5zM643 1790l123 131l276 -268l-102 -111z" />
<glyph horiz-adv-x="1433" d="M199 535q0 179 33.5 339.5t91.5 278t131 201t155 125.5l90 -99q-76 -67 -132 -168.5t-86 -216.5t-44 -227t-14 -227q0 -63 7.5 -113.5t29.5 -100.5t57 -83.5t93.5 -54.5t136.5 -21q85 0 155 30.5t116.5 79t82 119.5t55.5 141.5t32 155t15.5 150.5t3.5 137q0 305 -217 305 q-109 0 -173 -88t-64 -209q0 -91 42 -173t124 -136l-119 -127q-112 65 -173 187.5t-61 248.5t51.5 236.5t154 182t235.5 71.5q430 0 430 -498q0 -112 -9.5 -213t-32.5 -204t-58.5 -188.5t-91.5 -161t-127 -127.5t-169 -82t-215 -30q-121 0 -215 30.5t-153.5 82t-98 125 t-54 152t-15.5 170.5zM813 1665l352 268l86 -129l-366 -250z" />
<glyph horiz-adv-x="1433" d="M199 535q0 179 33.5 339.5t91.5 278t131 201t155 125.5l90 -99q-76 -67 -132 -168.5t-86 -216.5t-44 -227t-14 -227q0 -63 7.5 -113.5t29.5 -100.5t57 -83.5t93.5 -54.5t136.5 -21q85 0 155 30.5t116.5 79t82 119.5t55.5 141.5t32 155t15.5 150.5t3.5 137q0 305 -217 305 q-109 0 -173 -88t-64 -209q0 -91 42 -173t124 -136l-119 -127q-112 65 -173 187.5t-61 248.5t51.5 236.5t154 182t235.5 71.5q430 0 430 -498q0 -112 -9.5 -213t-32.5 -204t-58.5 -188.5t-91.5 -161t-127 -127.5t-169 -82t-215 -30q-121 0 -215 30.5t-153.5 82t-98 125 t-54 152t-15.5 170.5zM643 1642l342 267l268 -267l-98 -100l-197 172l-247 -172z" />
<glyph horiz-adv-x="1433" d="M199 535q0 179 33.5 339.5t91.5 278t131 201t155 125.5l90 -99q-76 -67 -132 -168.5t-86 -216.5t-44 -227t-14 -227q0 -63 7.5 -113.5t29.5 -100.5t57 -83.5t93.5 -54.5t136.5 -21q85 0 155 30.5t116.5 79t82 119.5t55.5 141.5t32 155t15.5 150.5t3.5 137q0 305 -217 305 q-109 0 -173 -88t-64 -209q0 -91 42 -173t124 -136l-119 -127q-112 65 -173 187.5t-61 248.5t51.5 236.5t154 182t235.5 71.5q430 0 430 -498q0 -112 -9.5 -213t-32.5 -204t-58.5 -188.5t-91.5 -161t-127 -127.5t-169 -82t-215 -30q-121 0 -215 30.5t-153.5 82t-98 125 t-54 152t-15.5 170.5zM621 1661q2 8 7 21t23.5 46.5t41 59t63 46.5t86.5 21q48 0 89 -25t75 -50t65 -25q34 0 61 25t38 50l10 25l98 -61q-2 -8 -7 -21.5t-23.5 -47.5t-41.5 -59.5t-63 -47t-86 -21.5q-37 0 -70.5 16t-55 34.5t-48.5 34.5t-52 16q-22 0 -41.5 -10.5t-31.5 -25 t-20.5 -29.5t-12.5 -25l-4 -11z" />
<glyph horiz-adv-x="1433" d="M199 535q0 179 33.5 339.5t91.5 278t131 201t155 125.5l90 -99q-76 -67 -132 -168.5t-86 -216.5t-44 -227t-14 -227q0 -63 7.5 -113.5t29.5 -100.5t57 -83.5t93.5 -54.5t136.5 -21q85 0 155 30.5t116.5 79t82 119.5t55.5 141.5t32 155t15.5 150.5t3.5 137q0 305 -217 305 q-109 0 -173 -88t-64 -209q0 -91 42 -173t124 -136l-119 -127q-112 65 -173 187.5t-61 248.5t51.5 236.5t154 182t235.5 71.5q430 0 430 -498q0 -112 -9.5 -213t-32.5 -204t-58.5 -188.5t-91.5 -161t-127 -127.5t-169 -82t-215 -30q-121 0 -215 30.5t-153.5 82t-98 125 t-54 152t-15.5 170.5zM627 1704q0 58 34 91.5t95 33.5q46 0 71 -24t25 -66q0 -58 -34.5 -93.5t-94.5 -35.5q-46 0 -71 26t-25 68zM1044 1706q0 56 36.5 89.5t95.5 33.5q46 0 71 -24t25 -66q0 -58 -34 -93.5t-93 -35.5q-47 0 -74 26.5t-27 69.5z" />
<glyph horiz-adv-x="1433" d="M199 535q0 179 33.5 339.5t91.5 278t131 201t155 125.5l90 -99q-76 -67 -132 -168.5t-86 -216.5t-44 -227t-14 -227q0 -158 53 -246l537 989q-6 2 -23 2q-109 0 -173 -88t-64 -209l2 -18l-140 -33q-10 47 -10 80q0 95 24.5 177t72.5 146t126.5 101t178.5 37q46 0 106 -11 l98 181l156 -74l-92 -170q162 -118 162 -424q0 -112 -9.5 -213t-32.5 -204t-58.5 -188.5t-91.5 -161t-127 -127.5t-169 -82t-215 -30q-114 0 -219 31l-115 -211l-155 74l119 219q-166 143 -166 447zM614 186q56 -18 134 -18q85 0 155 30.5t116.5 79t82 119.5t55.5 141.5 t32 155t15.5 150.5t3.5 137q0 140 -45 215z" />
<glyph horiz-adv-x="1232" d="M170 369q0 45 8.5 87t20.5 70t24 50t21 32l8 10l180 -45q-6 -8 -15 -22t-23.5 -60.5t-14.5 -95.5q0 -112 77.5 -169.5t209.5 -57.5q130 0 211 62.5t81 166.5q0 45 -16.5 82.5t-40 63.5t-66 51.5t-77 41.5t-90.5 38q-60 25 -98.5 42.5t-87.5 45.5t-79 57.5t-58 69t-41 90 t-13 111.5q0 81 28.5 147t77 110.5t116 74.5t143 43.5t159.5 13.5q113 0 210.5 -21t138.5 -42l42 -21l-78 -168q-12 7 -35 16.5t-103 26t-171 16.5q-299 0 -299 -184q0 -20 3 -37.5t11.5 -33.5t14.5 -28t23 -25.5t26 -22t33 -20.5t34.5 -18t41.5 -18.5t42.5 -16.5t47.5 -18 q67 -25 119 -50.5t106 -64t89.5 -82.5t58 -105.5t22.5 -133.5q0 -199 -140.5 -324t-387.5 -129l-31 -84q18 3 35 3q80 0 134 -35.5t54 -106.5q0 -89 -71.5 -146t-213.5 -57q-54 0 -101 10.5t-67 20.5l-20 10l43 111q50 -31 133 -31q135 0 135 86q0 68 -112 68 q-76 0 -121 -17l69 179q-175 27 -267.5 129.5t-92.5 253.5z" />
<glyph horiz-adv-x="2097" d="M211 846q0 279 215.5 443.5t587.5 164.5h229l-127 -903q-8 -52 -8 -107q0 -69 17 -120.5t44 -80.5t67.5 -46.5t79 -23t87.5 -5.5q338 0 393 383l127 903h231l-122 -870q-25 -170 -77 -287.5t-135 -188.5t-191 -102t-253 -31q-495 0 -495 459q0 84 10 150l94 680 q-112 0 -210.5 -22t-184.5 -69.5t-136.5 -133t-50.5 -201.5q0 -65 16.5 -124t39.5 -97t46 -66.5t39 -41.5l17 -13l-121 -123q-9 6 -24.5 18t-55 55t-69.5 93.5t-55 133t-25 173.5zM1309 1790l123 131l276 -268l-102 -111z" />
<glyph horiz-adv-x="2097" d="M211 846q0 279 215.5 443.5t587.5 164.5h229l-127 -903q-8 -52 -8 -107q0 -69 17 -120.5t44 -80.5t67.5 -46.5t79 -23t87.5 -5.5q338 0 393 383l127 903h231l-122 -870q-25 -170 -77 -287.5t-135 -188.5t-191 -102t-253 -31q-495 0 -495 459q0 84 10 150l94 680 q-112 0 -210.5 -22t-184.5 -69.5t-136.5 -133t-50.5 -201.5q0 -65 16.5 -124t39.5 -97t46 -66.5t39 -41.5l17 -13l-121 -123q-9 6 -24.5 18t-55 55t-69.5 93.5t-55 133t-25 173.5zM1503 1653l350 268l89 -131l-367 -248z" />
<glyph horiz-adv-x="2097" d="M211 846q0 279 215.5 443.5t587.5 164.5h229l-127 -903q-8 -52 -8 -107q0 -69 17 -120.5t44 -80.5t67.5 -46.5t79 -23t87.5 -5.5q338 0 393 383l127 903h231l-122 -870q-25 -170 -77 -287.5t-135 -188.5t-191 -102t-253 -31q-495 0 -495 459q0 84 10 150l94 680 q-112 0 -210.5 -22t-184.5 -69.5t-136.5 -133t-50.5 -201.5q0 -65 16.5 -124t39.5 -97t46 -66.5t39 -41.5l17 -13l-121 -123q-9 6 -24.5 18t-55 55t-69.5 93.5t-55 133t-25 173.5zM1296 1642l344 267l271 -267l-99 -100l-200 172l-246 -172z" />
<glyph horiz-adv-x="2097" d="M211 846q0 279 215.5 443.5t587.5 164.5h229l-127 -903q-8 -52 -8 -107q0 -69 17 -120.5t44 -80.5t67.5 -46.5t79 -23t87.5 -5.5q338 0 393 383l127 903h231l-122 -870q-25 -170 -77 -287.5t-135 -188.5t-191 -102t-253 -31q-495 0 -495 459q0 84 10 150l94 680 q-112 0 -210.5 -22t-184.5 -69.5t-136.5 -133t-50.5 -201.5q0 -65 16.5 -124t39.5 -97t46 -66.5t39 -41.5l17 -13l-121 -123q-9 6 -24.5 18t-55 55t-69.5 93.5t-55 133t-25 173.5zM1290 1704q0 58 34 91.5t95 33.5q47 0 73 -24t26 -66q0 -58 -35 -93.5t-94 -35.5 q-48 0 -73.5 25.5t-25.5 68.5zM1712 1704q0 58 34 91.5t95 33.5q46 0 71 -24t25 -66q0 -58 -34 -93.5t-93 -35.5q-48 0 -73 25.5t-25 68.5z" />
<glyph horiz-adv-x="1851" d="M211 846q0 278 208.5 443t561.5 165h49l262 -680l465 680h252l-620 -876l-80 -578h-232l80 580l-293 677q-75 -9 -140.5 -28t-125.5 -53t-102.5 -80t-67.5 -112t-25 -146q0 -65 16.5 -124t39.5 -97t46 -66.5t39 -41.5l17 -13l-121 -121q-9 6 -24.5 18t-55 54.5 t-69.5 92.5t-55 132.5t-25 173.5zM1300 1653l353 268l86 -131l-365 -248z" />
<glyph horiz-adv-x="2037" d="M184 -162l72 160q7 -5 19.5 -13.5t57.5 -22t95 -13.5q63 0 115.5 20t93 52.5t82.5 92.5t74.5 120t78.5 155l433 897h-37q-317 0 -494.5 -117.5t-177.5 -332.5q0 -48 10 -93t24 -74.5t28 -52t24 -32.5l10 -11l-135 -108q-6 6 -16.5 17t-36.5 48t-45.5 78.5t-36 106.5 t-16.5 133q0 104 34 197t107.5 173t181 137.5t262.5 90.5t344 33q96 0 185.5 -6.5t130.5 -12.5l41 -6l286 -1454h-239l-74 408h-547l-28 -64q-97 -212 -153 -301q-123 -193 -289 -253q-88 -32 -193 -32q-80 0 -147.5 20t-95.5 40zM1204 598h426l-119 672z" />
<glyph horiz-adv-x="1976" d="M211 819q0 74 16 141t54 134.5t97 124t150.5 105.5t209 82.5t277 53t349.5 19.5q150 0 260 -17.5t192 -57t123 -106.5t41 -163q0 -147 -78.5 -247t-226.5 -143q264 -67 264 -344q0 -264 -190.5 -398t-540.5 -134q-136 0 -260 20t-203.5 48t-139.5 56t-87 48l-26 20 l90 158q8 -7 24.5 -18.5t76.5 -40t132 -49.5l164 1155q-88 -8 -168 -28t-156 -57t-131.5 -86.5t-89 -121.5t-33.5 -158q0 -61 17 -116.5t41 -91t48 -62t41 -37.5l17 -12l-123 -123q-9 6 -25 16.5t-55.5 51t-70 87.5t-55.5 125.5t-25 165.5zM1042 72q106 -13 189 -13 q475 0 475 340q0 248 -307 248h-275zM1149 817h229q363 0 363 275q0 49 -16 84t-44 56t-75 33.5t-98.5 16.5t-125.5 4q-102 0 -170 -8z" />
<glyph horiz-adv-x="1366" d="M182 463q0 123 20 242.5t59.5 234.5t103.5 212t146.5 170.5t194.5 115t242 41.5q209 0 326 -99.5t117 -263.5q0 -78 -28 -148t-74.5 -121.5t-99.5 -88.5t-110 -60l-123 117q95 44 153 117.5t58 159.5q0 83 -57.5 138.5t-179.5 55.5q-90 0 -166 -34t-127.5 -89t-92 -130.5 t-64 -152t-39 -160.5t-20.5 -149.5t-5 -124.5q0 -80 12 -147.5t42 -130.5t76.5 -107t121 -70t170.5 -26q71 0 138.5 11.5t114 27.5t83 32.5t54.5 27.5l17 12l53 -166q-8 -6 -22.5 -15t-63 -32.5t-101.5 -41.5t-135.5 -33t-166.5 -15q-157 0 -277.5 49.5t-196.5 140.5 t-114.5 217t-38.5 283z" />
<glyph horiz-adv-x="2050" d="M211 819q0 74 15.5 141t53 134.5t96.5 123.5t150 105.5t207.5 83t276 53t350.5 19.5q130 0 233 -18.5t191 -62.5t146.5 -114.5t91 -178t32.5 -249.5q0 -987 -883 -987q-124 0 -240 19.5t-193 47t-136 55t-86 47.5l-27 19l95 162q8 -7 25 -18.5t77 -39.5t129 -48l164 1153 q-88 -9 -167.5 -29t-156 -57t-132 -86t-89 -121t-33.5 -158q0 -61 17 -116.5t41 -91t48 -62t41 -37.5l17 -12l-123 -123q-9 6 -25 16.5t-55.5 51t-70 87.5t-55.5 125.5t-25 165.5zM1042 74q92 -15 160 -15q70 0 131.5 9.5t125.5 33.5t116 62.5t98.5 100t78.5 142t50.5 192.5 t18.5 247q0 239 -107.5 339.5t-337.5 100.5q-94 0 -164 -4z" />
<glyph horiz-adv-x="1882" d="M211 846q0 279 215.5 443.5t587.5 164.5h946l-27 -190h-714l-70 -482h637l-27 -188h-637l-30 -221q-7 -58 -7 -92q0 -72 19.5 -124t50 -82t79 -48t96 -23.5t110.5 -5.5q69 0 134 8.5t108 20.5t76 24t48 21l15 8l37 -174q-7 -4 -20.5 -11.5t-59 -26t-95 -32.5 t-126.5 -25.5t-156 -11.5q-87 0 -162 12.5t-147.5 45.5t-123.5 84t-82.5 133t-31.5 188q0 62 8 117l123 885q-88 0 -169 -13t-158 -44.5t-133 -79t-90 -122t-34 -167.5q0 -65 16.5 -124t40 -97t47 -66.5t39.5 -41.5l17 -13l-121 -123q-9 6 -24.5 18t-55 55t-69.5 93.5 t-55 133t-25 173.5z" />
<glyph horiz-adv-x="1835" d="M213 -172l59 168q9 -5 25.5 -13t72 -21t115.5 -13q178 0 266.5 106t120.5 330l123 879q-88 0 -168.5 -13t-157.5 -44.5t-133 -79t-90 -122t-34 -167.5q0 -65 16.5 -124t40 -97t46.5 -66.5t39 -41.5l17 -13l-120 -123q-9 6 -24.5 18t-55.5 55t-70 93.5t-55 133t-25 173.5 q0 279 215.5 443.5t587.5 164.5h936l-27 -192h-706l-66 -467h617l-29 -193h-614l-31 -219q-16 -113 -43 -203t-74 -171t-111 -135t-158 -85t-212 -31q-84 0 -157.5 17.5t-104.5 34.5z" />
<glyph horiz-adv-x="1341" d="M174 -360l82 159q5 -4 14 -11t41 -25t68 -32t92.5 -25t116.5 -11q334 0 379 325q-83 -18 -189 -18q-153 0 -267 43.5t-181 121.5t-99 177.5t-32 220.5q0 147 30 282t91 250t147 200.5t206 133.5t261 48q113 0 201.5 -27t141.5 -73t80 -104t27 -124q0 -54 -19 -108.5 t-46.5 -95t-53.5 -68.5t-46 -41l-144 88q9 9 19.5 22t29 39.5t30 61t11.5 69.5q0 72 -59 120t-186 48q-80 0 -148.5 -25.5t-117.5 -68t-88 -101t-64 -121.5t-41 -132.5t-22.5 -131t-6.5 -120.5q0 -393 377 -393q87 0 184 22l58 403h219l-82 -587q-11 -79 -37 -151.5 t-74 -142t-113 -120t-160.5 -81t-209.5 -30.5q-77 0 -149 14t-119 33.5t-83 39t-53 33.5z" />
<glyph horiz-adv-x="2103" d="M213 -172l59 168q9 -5 25.5 -13t72 -21t115.5 -13q177 0 266 106t121 330l123 879q-88 0 -168.5 -13t-157.5 -44.5t-133 -79t-90 -122t-34 -167.5q0 -65 16.5 -124t40 -97t46.5 -66.5t39 -41.5l17 -13l-120 -123q-9 6 -24.5 18t-55.5 55t-70 93.5t-55 133t-25 173.5 q0 279 215.5 443.5t587.5 164.5h229l-86 -610h662l86 610h233l-204 -1454h-234l92 645h-661l-37 -262q-16 -113 -43 -203t-74 -171t-111 -135t-158 -85t-212 -31q-84 0 -157.5 17.5t-104.5 34.5z" />
<glyph horiz-adv-x="1179" d="M211 889q0 274 203.5 419.5t576.5 145.5h230l-142 -1016q-14 -100 -52 -183t-98.5 -146.5t-149 -98.5t-197.5 -35q-72 0 -134.5 13.5t-89.5 27.5l-26 13l74 174q67 -37 167 -37q118 0 187.5 74.5t87.5 201.5l115 822h-21q-541 0 -541 -385q0 -64 18.5 -126t36.5 -92 l19 -30l-147 -90q-5 6 -13 16t-28 45t-35.5 72.5t-28 96t-12.5 118.5z" />
<glyph horiz-adv-x="1304" d="M109 -63q0 60 13.5 117t32.5 95.5t38.5 68.5t32.5 44l14 14l168 -69q-4 -4 -10.5 -12t-23 -34.5t-29.5 -54t-23.5 -68.5t-10.5 -81q0 -119 74 -189.5t195 -70.5q128 0 221 87t119 273l170 1207q-92 0 -174.5 -12.5t-159 -43t-131.5 -77t-88 -118.5t-33 -163 q0 -64 17 -120.5t41 -91.5t48 -61t41 -37l17 -10l-127 -118q-9 5 -24.5 15.5t-55 50t-69.5 86t-54.5 124.5t-24.5 166q0 272 212 436t569 164h256l-197 -1382q-18 -125 -61 -224t-99.5 -162t-128.5 -104.5t-144.5 -58.5t-150.5 -17q-211 0 -335.5 119.5t-124.5 311.5z" />
<glyph horiz-adv-x="1933" d="M211 846q0 279 215.5 443.5t587.5 164.5h231l-96 -692l647 692h287l-701 -745l359 -545q124 -189 189 -264q145 -168 312 -198q42 -7 85 -7q45 0 88.5 7.5t64.5 15.5l21 8l18 -170q-9 -6 -27 -14t-80.5 -22t-132.5 -14q-101 0 -190.5 27.5t-158.5 71t-141 119.5t-127 150 t-128 185l-397 609l-97 -668h-231l176 1264q-88 0 -169 -13t-158 -44.5t-133 -79t-90 -122t-34 -167.5q0 -65 16.5 -124t40 -97t47 -66.5t39.5 -41.5l17 -13l-121 -123q-9 6 -24.5 18t-55 55t-69.5 93.5t-55 133t-25 173.5z" />
<glyph horiz-adv-x="1777" d="M211 846q0 279 215.5 443.5t587.5 164.5h231l-158 -1120q-6 -49 -6 -88q0 -74 21.5 -124.5t63.5 -78t92.5 -38.5t117.5 -11q60 0 117.5 8.5t96.5 20.5t69 24t45 21l14 8l37 -176q-6 -4 -18.5 -11t-53.5 -24.5t-85.5 -30.5t-114 -24t-140.5 -11q-79 0 -148.5 12.5 t-134.5 43.5t-111 79t-73.5 123.5t-27.5 171.5q0 58 8 113l129 922q-88 0 -169 -13t-158 -44.5t-133 -79t-90 -122t-34 -167.5q0 -65 16.5 -124t40 -97t47 -66.5t39.5 -41.5l17 -13l-121 -123q-9 6 -24.5 18t-55 55t-69.5 93.5t-55 133t-25 173.5z" />
<glyph horiz-adv-x="2430" d="M211 -172l61 168q9 -5 25 -13t70.5 -21t113.5 -13q89 0 154 29t110 90t74.5 139t54.5 194l193 863h-31q-88 0 -168.5 -13t-157.5 -44.5t-133 -79t-90 -122t-34 -167.5q0 -65 16.5 -124t39.5 -97t46.5 -66.5t40.5 -41.5l16 -13l-123 -123q-9 6 -24.5 18t-54.5 55t-69 93.5 t-54.5 133t-24.5 173.5q0 280 214.5 444t586.5 164h305l248 -975l522 975h256l-82 -1454h-233l53 907l25 195l-93 -195l-372 -686h-226l-182 686l-29 170l-153 -694q-26 -117 -55.5 -204.5t-77.5 -170t-110 -135t-153 -84t-206 -31.5q-77 0 -149.5 17.5t-106.5 34.5z" />
<glyph horiz-adv-x="2111" d="M213 -172l59 168q8 -5 24 -13t71 -21t116 -13q177 0 266 105t119 327l123 883q-88 0 -168.5 -13t-157.5 -44.5t-133 -79t-90 -122t-34 -167.5q0 -65 16.5 -124t40 -97t46.5 -66.5t39 -41.5l17 -13l-123 -123q-9 6 -24.5 18t-54.5 55t-69 93.5t-54.5 133t-24.5 173.5 q0 280 214.5 444t586.5 164h258l506 -1102l12 148l135 954h223l-204 -1454h-250l-514 1112l-4 -137l-82 -592q-15 -111 -41.5 -200.5t-72.5 -171t-109 -135.5t-155 -86t-208 -32q-88 0 -163 17.5t-105 34.5z" />
<glyph horiz-adv-x="1935" d="M211 936q0 81 19.5 155t50 127.5t68 98.5t75 74t68 49.5t50.5 29.5l19 9l98 -129q-5 -2 -14.5 -6.5t-36 -22t-50.5 -38t-53.5 -55.5t-51 -74.5t-36 -95t-14.5 -116.5q0 -136 84.5 -222.5t219.5 -107.5q6 134 30.5 253.5t77 234t129 197t193 132.5t262.5 50 q272 0 407.5 -148t135.5 -416q0 -99 -10 -192t-33.5 -188t-59.5 -176.5t-91.5 -153t-125.5 -122t-164.5 -79.5t-206.5 -29q-494 0 -542 457q-232 20 -365 162t-133 342zM936 621q251 39 395 206t144 441v10q-36 8 -91 8q-76 0 -139 -24.5t-107.5 -64t-79.5 -96.5t-56 -115 t-35.5 -126.5t-21 -124t-9.5 -114.5zM940 440q16 -130 90.5 -201t231.5 -71q81 0 148.5 30t113 78.5t80.5 116t55 135t32.5 142.5t16.5 132t4 111q0 181 -76 275q-3 -86 -25 -174.5t-74.5 -184t-128.5 -173t-197.5 -136.5t-270.5 -80z" />
<glyph horiz-adv-x="1953" d="M213 -172l59 168q9 -5 25.5 -13t72 -21t115.5 -13q177 0 266 106t121 330l123 881q-111 -11 -209 -41t-183 -82t-135 -136.5t-50 -191.5q0 -61 16.5 -116.5t40.5 -91t48 -62t41 -37.5l16 -12l-123 -123q-9 6 -24.5 16.5t-55.5 51t-70 87.5t-55 125.5t-25 165.5 q0 106 31.5 197t113 178.5t208.5 148.5t331.5 98.5t468.5 37.5q331 0 485 -100t154 -308q0 -97 -21 -180.5t-70.5 -158t-125 -127t-190.5 -83t-260 -30.5q-40 0 -96 2t-96.5 4t-41.5 2l-14 -117q-14 -112 -40.5 -203t-73.5 -171t-112 -134.5t-159.5 -85.5t-212.5 -31 q-84 0 -157.5 17.5t-104.5 34.5zM1145 688q75 -6 219 -6q212 0 317 88t105 270q0 133 -93.5 189.5t-291.5 56.5q-36 0 -93 -1t-79 -1z" />
<glyph horiz-adv-x="1413" d="M225 670q0 117 21.5 228t71.5 217.5t124 186.5t188 128.5t255 48.5q116 0 208 -28.5t153.5 -79t102 -122.5t58.5 -154.5t18 -179.5q0 -123 -16.5 -238.5t-55 -229t-96 -202.5t-146.5 -154t-200 -89q314 -305 695 -305q74 0 139 9.5t93 18.5l28 9l26 -174q-12 -6 -35 -15 t-104 -24t-174 -15q-101 0 -195.5 18.5t-167.5 45.5t-145.5 72t-120.5 82t-102.5 92t-81 86t-66.5 80h-14q-92 0 -160.5 37t-91.5 81l51 131q17 2 27 2q54 0 120.5 -18.5t106.5 -46.5q85 0 154.5 30t116 78t81.5 115.5t54 134t30.5 143t15 132.5t3.5 112q0 373 -322 373 q-98 0 -175.5 -42t-125.5 -108t-79 -154.5t-43.5 -174t-12.5 -174.5q0 -34 3 -68t7 -59t7.5 -45t6.5 -31t3 -12l-187 -43q-6 12 -14.5 35.5t-22.5 100t-14 159.5z" />
<glyph horiz-adv-x="1998" d="M211 819q0 74 16 141t54 134.5t97 124t150.5 105.5t209 82.5t277 53t349.5 19.5q323 0 484 -91t161 -286q0 -199 -95.5 -321t-295.5 -169l199 -442q36 -81 69 -142t83 -127t103.5 -108.5t128.5 -70t162 -27.5q45 0 91.5 7.5t69.5 15.5l24 8l18 -170q-10 -6 -29.5 -14 t-88 -22t-144.5 -14q-124 0 -227.5 38.5t-186.5 114.5t-149 174.5t-127 232.5l-236 518h-73q-119 0 -189 6l-84 -590h-231l178 1266q-88 -8 -168 -28t-156 -57t-131.5 -86.5t-89 -121.5t-33.5 -158q0 -61 17 -116.5t41 -91t48 -62t41 -37.5l17 -12l-123 -123q-9 6 -25 16.5 t-55.5 51t-70 87.5t-55.5 125.5t-25 165.5zM1141 772q87 -6 192 -6q236 0 339.5 68.5t103.5 236.5q0 63 -26 106.5t-76 66.5t-109.5 32.5t-139.5 9.5q-60 0 -213 -6z" />
<glyph horiz-adv-x="1355" d="M125 35q0 61 13.5 120t32 99.5t38.5 72.5t33 47t14 15l172 -65q-4 -5 -10 -14t-22 -38t-28 -60t-22 -76.5t-10 -90.5q0 -137 92 -220t238 -83q95 0 171 31.5t123 83t72 115.5t25 132q0 66 -23.5 123.5t-73.5 109t-99 89t-126 88.5q-76 50 -119 81t-98 81t-83.5 95 t-49 108.5t-20.5 136.5q0 117 46 207.5t126.5 145.5t183.5 82.5t223 27.5q112 0 215 -22t150 -44l47 -22l-70 -172q-18 7 -49 18t-120.5 29t-170.5 18q-157 0 -252.5 -64t-95.5 -184q0 -42 14.5 -80t35.5 -68t63 -65.5t79 -62t101 -68.5q50 -34 82.5 -56.5t78 -59.5 t74.5 -68t62 -75t52 -88t31.5 -99.5t12.5 -116.5q0 -87 -22.5 -169t-72.5 -157t-121 -131.5t-176 -89.5t-230 -33q-137 0 -243 40t-168.5 109t-94 154t-31.5 183z" />
<glyph horiz-adv-x="1613" d="M211 846q0 280 213.5 444t585.5 164h749l-28 -197h-457l-121 -874q-15 -111 -42.5 -201.5t-74.5 -171t-111.5 -135t-157 -86t-208.5 -31.5q-88 0 -163 17.5t-106 34.5l-30 18l59 168q9 -5 25.5 -13t72 -21t115.5 -13q177 0 266.5 106t121.5 330l122 872h-59 q-89 0 -168 -12.5t-154.5 -43t-130 -77t-87.5 -120t-33 -166.5q0 -65 15.5 -124t37.5 -97t44.5 -66.5t38.5 -41.5l15 -13l-121 -121q-9 6 -24.5 18t-55 54.5t-69.5 92.5t-55 132.5t-25 173.5z" />
<glyph horiz-adv-x="2097" d="M211 846q0 280 215 444t588 164h229l-127 -903q-8 -52 -8 -107q0 -69 17 -120.5t43.5 -80.5t67 -46.5t78.5 -23t87 -5.5q340 0 395 383l84 610q6 46 6 84q0 62 -14.5 113t-35 79.5t-41.5 48.5t-35 27l-15 7l113 157q25 -7 53.5 -20.5t67.5 -44.5t69.5 -72.5t52 -109 t21.5 -148.5q0 -28 -8 -98l-84 -600q-23 -170 -75 -287.5t-135 -188.5t-191 -102t-253 -31q-495 0 -495 459q0 84 10 150l94 680q-88 0 -169 -13t-158 -44.5t-133 -79t-90 -122t-34 -167.5q0 -65 16.5 -124t40 -97t47 -66.5t39.5 -41.5l17 -13l-121 -123q-9 6 -24.5 18 t-55 55t-69.5 93.5t-55 133t-25 173.5z" />
<glyph horiz-adv-x="1916" d="M211 846q0 278 208.5 443t561.5 165h92l211 -1290l418 868q36 74 53.5 114.5t33 91.5t15.5 89q0 43 -17.5 77.5t-43 53.5t-51 31t-42.5 16l-18 4l80 170q307 -92 307 -333q0 -138 -114 -371l-473 -975h-330l-232 1260q-97 -11 -178 -40t-148 -77.5t-105 -126t-38 -176.5 q0 -65 16.5 -124.5t40 -98t47 -67t39.5 -41.5l17 -13l-121 -121q-9 6 -24.5 18t-55 54.5t-69.5 92.5t-55 132.5t-25 173.5z" />
<glyph horiz-adv-x="2658" d="M211 846q0 278 208.5 443t561.5 165h119l117 -1079l4 -172l55 174l397 1007h238l119 -1009l6 -172l379 848q44 101 63 157t19 101q0 46 -17.5 83.5t-42 58t-49 34t-42.5 17.5l-17 5l90 170q139 -39 220 -126t81 -208q0 -73 -26.5 -159.5t-82.5 -210.5l-434 -973h-299 l-123 932l-6 123l-39 -123l-387 -932h-299l-147 1262q-97 -11 -179 -39.5t-150.5 -77.5t-107.5 -127.5t-39 -179.5q0 -65 16.5 -124t40 -97t47 -66.5t39.5 -41.5l17 -13l-121 -121q-9 6 -24.5 18t-55 54.5t-69.5 92.5t-55 132.5t-25 173.5z" />
<glyph horiz-adv-x="1890" d="M211 846q0 278 208.5 443t561.5 165h74l278 -567l443 567h264l-570 -717l283 -567q30 -61 52.5 -103t56 -95.5t64.5 -90t73 -74.5t86 -60.5t100.5 -37t118.5 -14.5q48 0 93.5 7.5t66.5 15.5l22 8l19 -170q-10 -6 -30 -14t-85.5 -22t-136.5 -14q-99 0 -185.5 26t-156.5 72 t-134.5 117.5t-116.5 153t-106 188.5l-254 506l-448 -569h-266l577 743l-270 514q-101 -8 -186 -34.5t-155.5 -75t-110.5 -127.5t-40 -182q0 -65 16.5 -124t40 -97t47 -66.5t39.5 -41.5l17 -13l-121 -121q-9 6 -24.5 18t-55 54.5t-69.5 92.5t-55 132.5t-25 173.5z" />
<glyph horiz-adv-x="1810" d="M211 846q0 275 203 441.5t544 166.5h82l252 -860l275 416q63 96 95 161t32 119q0 33 -13.5 59.5t-33 40.5t-39.5 24t-34 13l-13 3l86 165q42 -10 84.5 -30t86 -53.5t70.5 -86t27 -116.5q0 -145 -148 -365l-389 -579l-14 -103q-14 -106 -52 -193.5t-102 -159 t-164.5 -111.5t-228.5 -40q-84 0 -160 17t-109 34l-34 17l55 170q10 -5 28.5 -13t77.5 -21t120 -13q156 0 235.5 81t99.5 228l15 104l-285 895q-94 -11 -173 -40t-145 -77.5t-103.5 -125t-37.5 -174.5q0 -65 16.5 -124.5t40 -98t47 -67t39.5 -41.5l17 -13l-121 -121 q-9 6 -24.5 18t-55 54.5t-69.5 92.5t-55 132.5t-25 173.5z" />
<glyph horiz-adv-x="1333" d="M156 119l999 1145h-379q-146 0 -235.5 -65.5t-89.5 -190.5q0 -44 11.5 -88t22.5 -66l11 -23l-164 -71q-3 4 -8.5 12.5t-19 36t-23.5 56.5t-18.5 73t-8.5 88q0 201 143.5 314.5t401.5 113.5h581l47 -190l-849 -977l563 -434q204 -158 407 -158q59 0 109.5 10.5t70.5 20.5 l21 10l20 -170q-4 -2 -11.5 -6.5t-34.5 -14.5t-56.5 -18t-77.5 -14.5t-98 -6.5q-140 0 -258.5 47t-239.5 140l-559 428l-127 -146z" />
<glyph horiz-adv-x="2035" d="M182 -162l72 160q7 -5 19.5 -13.5t57.5 -22t95 -13.5q63 0 115.5 20t93 52.5t82.5 92.5t74.5 120t78.5 155l433 897h-37q-317 0 -494.5 -117.5t-177.5 -332.5q0 -48 10 -93t24 -74.5t28 -52t24 -32.5l10 -11l-135 -108q-6 6 -16.5 17t-36.5 48t-46 78.5t-36.5 106.5 t-16.5 133q0 104 34 197t108 173t181.5 137.5t262.5 90.5t344 33q96 0 185.5 -6.5t130.5 -12.5l41 -6l286 -1454h-239l-74 408h-547l-29 -64q-97 -212 -151 -299q-122 -193 -287 -254q-88 -33 -196 -33q-80 0 -147.5 20t-95.5 40zM1202 598h426l-119 672zM1260 1790l124 131 l277 -268l-105 -111z" />
<glyph horiz-adv-x="2035" d="M182 -162l72 160q7 -5 19.5 -13.5t57.5 -22t95 -13.5q63 0 115.5 20t93 52.5t82.5 92.5t74.5 120t78.5 155l433 897h-37q-317 0 -494.5 -117.5t-177.5 -332.5q0 -48 10 -93t24 -74.5t28 -52t24 -32.5l10 -11l-135 -108q-6 6 -16.5 17t-36.5 48t-46 78.5t-36.5 106.5 t-16.5 133q0 104 34 197t108 173t181.5 137.5t262.5 90.5t344 33q96 0 185.5 -6.5t130.5 -12.5l41 -6l286 -1454h-239l-74 408h-547l-29 -64q-97 -212 -151 -299q-122 -193 -287 -254q-88 -33 -196 -33q-80 0 -147.5 20t-95.5 40zM1202 598h426l-119 672zM1419 1665l350 266 l89 -129l-367 -250z" />
<glyph horiz-adv-x="2048" d="M182 -162l72 160q7 -5 19.5 -13.5t57.5 -22t95 -13.5q63 0 115.5 20t93 52.5t82.5 92.5t74.5 120t78.5 155l433 897h-37q-317 0 -494.5 -117.5t-177.5 -332.5q0 -48 10 -93t24 -74.5t28 -52t24 -32.5l10 -11l-135 -108q-6 6 -16.5 17t-36.5 48t-46 78.5t-36.5 106.5 t-16.5 133q0 104 34 197t108 173t181.5 137.5t262.5 90.5t344 33q96 0 185.5 -6.5t130.5 -12.5l41 -6l286 -1454h-239l-74 408h-547l-29 -64q-97 -212 -151 -299q-122 -193 -287 -254q-88 -33 -196 -33q-80 0 -147.5 20t-95.5 40zM1202 598h426l-119 672zM1243 1642l344 267 l268 -267l-98 -100l-196 172l-248 -172z" />
<glyph horiz-adv-x="2048" d="M182 -162l72 160q7 -5 19.5 -13.5t57.5 -22t95 -13.5q63 0 115.5 20t93 52.5t82.5 92.5t74.5 120t78.5 155l433 897h-37q-317 0 -494.5 -117.5t-177.5 -332.5q0 -48 10 -93t24 -74.5t28 -52t24 -32.5l10 -11l-135 -108q-6 6 -16.5 17t-36.5 48t-46 78.5t-36.5 106.5 t-16.5 133q0 104 34 197t108 173t181.5 137.5t262.5 90.5t344 33q96 0 185.5 -6.5t130.5 -12.5l41 -6l286 -1454h-239l-74 408h-547l-29 -64q-97 -212 -151 -299q-122 -193 -287 -254q-88 -33 -196 -33q-80 0 -147.5 20t-95.5 40zM1202 598h426l-119 672zM1225 1661 q2 8 6.5 21t23 46.5t41 59t62.5 46.5t86 21q49 0 90 -25t74.5 -50t64.5 -25q34 0 61 25t38 50l10 25l100 -61q-2 -8 -7 -21.5t-24 -47.5t-42 -59.5t-63 -47t-85 -21.5q-37 0 -70.5 16t-54.5 34.5t-48 34.5t-52 16q-22 0 -42 -10.5t-32 -25t-21 -29.5t-13 -25l-3 -11z" />
<glyph horiz-adv-x="2048" d="M182 -162l72 160q7 -5 19.5 -13.5t57.5 -22t95 -13.5q63 0 115.5 20t93 52.5t82.5 92.5t74.5 120t78.5 155l433 897h-37q-317 0 -494.5 -117.5t-177.5 -332.5q0 -48 10 -93t24 -74.5t28 -52t24 -32.5l10 -11l-135 -108q-6 6 -16.5 17t-36.5 48t-46 78.5t-36.5 106.5 t-16.5 133q0 104 34 197t108 173t181.5 137.5t262.5 90.5t344 33q96 0 185.5 -6.5t130.5 -12.5l41 -6l286 -1454h-239l-74 408h-547l-29 -64q-97 -212 -151 -299q-122 -193 -287 -254q-88 -33 -196 -33q-80 0 -147.5 20t-95.5 40zM1202 598h426l-119 672zM1231 1704 q0 58 34 91.5t95 33.5q46 0 71 -24t25 -66q0 -58 -34 -93.5t-93 -35.5q-48 0 -73 25.5t-25 68.5zM1651 1706q0 57 35 90t94 33q47 0 72.5 -24t25.5 -66q0 -58 -35 -93.5t-94 -35.5q-46 0 -72 26t-26 70z" />
<glyph horiz-adv-x="2048" d="M182 -162l72 160q7 -5 19.5 -13.5t57.5 -22t95 -13.5q63 0 115.5 20t93 52.5t82.5 92.5t74.5 120t78.5 155l433 897h-37q-317 0 -494.5 -117.5t-177.5 -332.5q0 -48 10 -93t24 -74.5t28 -52t24 -32.5l10 -11l-135 -108q-6 6 -16.5 17t-36.5 48t-46 78.5t-36.5 106.5 t-16.5 133q0 104 34 197t108 173t181.5 137.5t262.5 90.5t344 33q96 0 185.5 -6.5t130.5 -12.5l41 -6l286 -1454h-239l-74 408h-547l-29 -64q-97 -212 -151 -299q-122 -193 -287 -254q-88 -33 -196 -33q-80 0 -147.5 20t-95.5 40zM1202 598h426l-119 672zM1350 1737 q0 108 70.5 172.5t181.5 64.5q90 0 141 -46.5t51 -129.5q0 -108 -69.5 -171.5t-180.5 -63.5q-90 0 -142 46t-52 128zM1473 1751q0 -41 23 -63.5t63 -22.5q53 0 82.5 32t29.5 89q0 40 -22.5 64t-61.5 24q-51 0 -82.5 -34t-31.5 -89z" />
<glyph horiz-adv-x="2240" d="M193 848q0 104 34 197t107.5 173t181 137.5t262.5 90.5t344 33q95 0 182.5 -6.5t127.5 -12.5l41 -6h856l-27 -190h-717l-67 -482h634l-24 -188h-637l-31 -221q-6 -53 -6 -94q0 -70 19 -121.5t49.5 -82t78 -48t95.5 -23.5t112 -6q69 0 134 8.5t108 20.5t76 24t48 21l15 8 l35 -174q-7 -4 -20.5 -11.5t-58 -26t-94 -32.5t-126.5 -25.5t-156 -11.5q-86 0 -161 13t-147.5 45.5t-123.5 83.5t-82.5 132.5t-31.5 186.5q0 62 8 119l4 35h-428l-256 -414h-246l836 1286h-76q-323 0 -502.5 -117t-179.5 -333q0 -49 10 -94t24 -74.5t28 -52t24 -32.5 l10 -10l-135 -108q-6 6 -16.5 17t-36.5 48t-45.5 78.5t-36 106.5t-16.5 133zM924 600h338l98 700z" />
<glyph horiz-adv-x="1366" d="M182 463q0 123 20 242.5t59.5 234.5t103.5 212t146.5 170.5t194.5 115t242 41.5q209 0 326 -99.5t117 -263.5q0 -78 -28 -148t-74.5 -121.5t-99.5 -88.5t-110 -60l-123 117q95 44 153 117.5t58 159.5q0 83 -57.5 138.5t-179.5 55.5q-90 0 -166 -34t-127.5 -89t-92 -130.5 t-64 -152t-39 -160.5t-20.5 -149.5t-5 -124.5q0 -80 12 -147.5t42 -130.5t76.5 -107t121 -70t170.5 -26q71 0 138.5 11.5t114 27.5t83 32.5t54.5 27.5l17 12l53 -166q-7 -5 -21 -14t-60.5 -32t-97.5 -41t-130 -33t-160 -17l-34 -95q21 3 41 3q78 0 130 -35.5t52 -104.5 q0 -89 -71.5 -146t-211.5 -57q-55 0 -102.5 10t-67.5 20l-20 9l43 111q56 -31 133 -31q135 0 135 86q0 68 -111 68q-77 0 -122 -17l73 187q-255 33 -384.5 213t-129.5 469z" />
<glyph horiz-adv-x="1337" d="M172 -360l82 159q5 -4 14 -11t41 -25t68 -32t92.5 -25t116.5 -11q334 0 379 325q-83 -18 -189 -18q-153 0 -267 43.5t-181 121.5t-99 177.5t-32 220.5q0 147 30 282t91 250t147 200.5t206 133.5t261 48q113 0 201.5 -27t141.5 -73t80 -104t27 -124q0 -54 -19 -108.5 t-46.5 -95t-53.5 -68.5t-46 -41l-144 88q9 9 19.5 22t29 39.5t30 61t11.5 69.5q0 72 -59 120t-186 48q-80 0 -148.5 -25.5t-117.5 -68t-88 -101t-64 -121.5t-41 -132.5t-22.5 -131t-6.5 -120.5q0 -393 377 -393q87 0 184 22l58 403h219l-82 -587q-11 -79 -37 -151.5 t-74 -142t-113 -120t-160.5 -81t-209.5 -30.5q-77 0 -149 14t-119 33.5t-83 39t-53 33.5zM688 1822v15l127 43q0 -6 0.5 -16.5t8 -37t21 -47t45 -37t75.5 -16.5q43 0 78.5 16t55 38.5t32.5 45t17 38.5l5 16l117 -43q-3 -11 -8.5 -28.5t-31 -62.5t-58.5 -79.5t-94.5 -63 t-135.5 -28.5q-54 0 -97 14.5t-69 37.5t-44.5 51t-26.5 56t-12.5 51t-4.5 37z" />
<glyph horiz-adv-x="2050" d="M211 819q0 74 15.5 141t53 134.5t96.5 123.5t150 105.5t207.5 83t276 53t350.5 19.5q130 0 233 -18.5t191 -62.5t146.5 -114.5t91 -178t32.5 -249.5q0 -987 -883 -987q-124 0 -240 19.5t-193 47t-136 55t-86 47.5l-27 19l95 162q8 -7 25 -18.5t77 -39.5t129 -48l72 503 h-96l26 185h96l66 465q-88 -9 -167.5 -29t-156 -57t-132 -86t-89 -121t-33.5 -158q0 -61 17 -116.5t41 -91t48 -62t41 -37.5l17 -12l-123 -123q-9 6 -25 16.5t-55.5 51t-70 87.5t-55.5 125.5t-25 165.5zM1042 74q92 -15 160 -15q70 0 131.5 9.5t125.5 33.5t116 62.5 t98.5 100t78.5 142t50.5 192.5t18.5 247q0 239 -107.5 339.5t-337.5 100.5q-94 0 -164 -4l-67 -481h340l-27 -185h-340z" />
<glyph horiz-adv-x="1882" d="M211 846q0 279 215.5 443.5t587.5 164.5h946l-27 -190h-714l-70 -482h637l-27 -188h-637l-30 -221q-7 -58 -7 -92q0 -72 19.5 -124t50 -82t79 -48t96 -23.5t110.5 -5.5q69 0 134 8.5t108 20.5t76 24t48 21l15 8l37 -174q-7 -4 -20.5 -11.5t-59 -26t-95 -32.5 t-126.5 -25.5t-156 -11.5q-87 0 -162 12.5t-147.5 45.5t-123.5 84t-82.5 133t-31.5 188q0 62 8 117l123 885q-88 0 -169 -13t-158 -44.5t-133 -79t-90 -122t-34 -167.5q0 -65 16.5 -124t40 -97t47 -66.5t39.5 -41.5l17 -13l-121 -123q-9 6 -24.5 18t-55 55t-69.5 93.5 t-55 133t-25 173.5zM1223 1790l125 131l276 -268l-104 -111z" />
<glyph horiz-adv-x="1882" d="M211 846q0 279 215.5 443.5t587.5 164.5h946l-27 -190h-714l-70 -482h637l-27 -188h-637l-30 -221q-7 -58 -7 -92q0 -72 19.5 -124t50 -82t79 -48t96 -23.5t110.5 -5.5q69 0 134 8.5t108 20.5t76 24t48 21l15 8l37 -174q-7 -4 -20.5 -11.5t-59 -26t-95 -32.5 t-126.5 -25.5t-156 -11.5q-87 0 -162 12.5t-147.5 45.5t-123.5 84t-82.5 133t-31.5 188q0 62 8 117l123 885q-88 0 -169 -13t-158 -44.5t-133 -79t-90 -122t-34 -167.5q0 -65 16.5 -124t40 -97t47 -66.5t39.5 -41.5l17 -13l-121 -123q-9 6 -24.5 18t-55 55t-69.5 93.5 t-55 133t-25 173.5zM1395 1653l352 268l86 -131l-367 -248z" />
<glyph horiz-adv-x="1882" d="M211 846q0 279 215.5 443.5t587.5 164.5h946l-27 -190h-714l-70 -482h637l-27 -188h-637l-30 -221q-7 -58 -7 -92q0 -72 19.5 -124t50 -82t79 -48t96 -23.5t110.5 -5.5q69 0 134 8.5t108 20.5t76 24t48 21l15 8l37 -174q-7 -4 -20.5 -11.5t-59 -26t-95 -32.5 t-126.5 -25.5t-156 -11.5q-87 0 -162 12.5t-147.5 45.5t-123.5 84t-82.5 133t-31.5 188q0 62 8 117l123 885q-88 0 -169 -13t-158 -44.5t-133 -79t-90 -122t-34 -167.5q0 -65 16.5 -124t40 -97t47 -66.5t39.5 -41.5l17 -13l-121 -123q-9 6 -24.5 18t-55 55t-69.5 93.5 t-55 133t-25 173.5zM1204 1642l344 267l269 -267l-99 -100l-196 172l-248 -172z" />
<glyph horiz-adv-x="1882" d="M211 846q0 279 215.5 443.5t587.5 164.5h946l-27 -190h-714l-70 -482h637l-27 -188h-637l-30 -221q-7 -58 -7 -92q0 -72 19.5 -124t50 -82t79 -48t96 -23.5t110.5 -5.5q69 0 134 8.5t108 20.5t76 24t48 21l15 8l37 -174q-7 -4 -20.5 -11.5t-59 -26t-95 -32.5 t-126.5 -25.5t-156 -11.5q-87 0 -162 12.5t-147.5 45.5t-123.5 84t-82.5 133t-31.5 188q0 62 8 117l123 885q-88 0 -169 -13t-158 -44.5t-133 -79t-90 -122t-34 -167.5q0 -65 16.5 -124t40 -97t47 -66.5t39.5 -41.5l17 -13l-121 -123q-9 6 -24.5 18t-55 55t-69.5 93.5 t-55 133t-25 173.5zM1200 1704q0 58 34 91.5t95 33.5q47 0 72.5 -24t25.5 -66q0 -58 -35 -93.5t-94 -35.5q-48 0 -73 25.5t-25 68.5zM1622 1704q0 58 34 91.5t95 33.5q46 0 71 -24t25 -66q0 -58 -34 -93.5t-93 -35.5q-48 0 -73 25.5t-25 68.5z" />
<glyph horiz-adv-x="1179" d="M211 889q0 274 203.5 419.5t576.5 145.5h230l-142 -1016q-14 -100 -52 -183t-98.5 -146.5t-149 -98.5t-197.5 -35q-72 0 -134.5 13.5t-89.5 27.5l-26 13l74 174q67 -37 167 -37q118 0 187.5 74.5t87.5 201.5l115 822h-21q-541 0 -541 -385q0 -64 18.5 -126t36.5 -92 l19 -30l-147 -90q-5 6 -13 16t-28 45t-35.5 72.5t-28 96t-12.5 118.5zM805 1790l125 131l276 -268l-104 -111z" />
<glyph horiz-adv-x="1177" d="M211 889q0 274 203.5 419.5t576.5 145.5h230l-142 -1016q-14 -100 -52 -183t-98.5 -146.5t-149 -98.5t-197.5 -35q-72 0 -134.5 13.5t-89.5 27.5l-26 13l74 174q67 -37 167 -37q118 0 187.5 74.5t87.5 201.5l115 822h-21q-541 0 -541 -385q0 -64 18.5 -126t36.5 -92 l19 -30l-147 -90q-5 6 -13 16t-28 45t-35.5 72.5t-28 96t-12.5 118.5zM975 1653l350 268l86 -131l-364 -248z" />
<glyph horiz-adv-x="1177" d="M211 889q0 274 203.5 419.5t576.5 145.5h230l-142 -1016q-14 -100 -52 -183t-98.5 -146.5t-149 -98.5t-197.5 -35q-72 0 -134.5 13.5t-89.5 27.5l-26 13l74 174q67 -37 167 -37q118 0 187.5 74.5t87.5 201.5l115 822h-21q-541 0 -541 -385q0 -64 18.5 -126t36.5 -92 l19 -30l-147 -90q-5 6 -13 16t-28 45t-35.5 72.5t-28 96t-12.5 118.5zM739 1642l342 267l269 -267l-99 -100l-196 172l-248 -172z" />
<glyph horiz-adv-x="1177" d="M211 889q0 274 203.5 419.5t576.5 145.5h230l-142 -1016q-14 -100 -52 -183t-98.5 -146.5t-149 -98.5t-197.5 -35q-72 0 -134.5 13.5t-89.5 27.5l-26 13l74 174q67 -37 167 -37q118 0 187.5 74.5t87.5 201.5l115 822h-21q-541 0 -541 -385q0 -64 18.5 -126t36.5 -92 l19 -30l-147 -90q-5 6 -13 16t-28 45t-35.5 72.5t-28 96t-12.5 118.5zM737 1706q0 56 35.5 89.5t93.5 33.5q47 0 73 -24t26 -66q0 -58 -35 -93.5t-94 -35.5q-46 0 -72.5 26t-26.5 70zM1159 1704q0 58 34 91.5t95 33.5q46 0 71 -24t25 -66q0 -58 -34 -93.5t-93 -35.5 q-48 0 -73 25.5t-25 68.5z" />
<glyph horiz-adv-x="1177" d="M211 889q0 274 203.5 419.5t576.5 145.5h230l-142 -1016q-14 -100 -52 -183t-98.5 -146.5t-149 -98.5t-197.5 -35q-72 0 -134.5 13.5t-89.5 27.5l-26 13l74 174q67 -37 167 -37q118 0 187.5 74.5t87.5 201.5l115 822h-21q-541 0 -541 -385q0 -64 18.5 -126t36.5 -92 l19 -30l-147 -90q-5 6 -13 16t-28 45t-35.5 72.5t-28 96t-12.5 118.5zM977 1747q0 59 38 96t101 37q52 0 78.5 -26t26.5 -72q0 -61 -36.5 -97t-101.5 -36q-50 0 -78 26.5t-28 71.5z" />
<glyph horiz-adv-x="2111" d="M213 -172l59 168q8 -5 24 -13t71 -21t116 -13q177 0 266 105t119 327l123 883q-88 0 -168.5 -13t-157.5 -44.5t-133 -79t-90 -122t-34 -167.5q0 -65 16.5 -124t40 -97t46.5 -66.5t39 -41.5l17 -13l-123 -123q-9 6 -24.5 18t-54.5 55t-69 93.5t-54.5 133t-24.5 173.5 q0 280 214.5 444t586.5 164h258l506 -1102l12 148l135 954h223l-204 -1454h-250l-514 1112l-4 -137l-82 -592q-15 -111 -41.5 -200.5t-72.5 -171t-109 -135.5t-155 -86t-208 -32q-88 0 -163 17.5t-105 34.5zM1286 1661q2 8 7 21t23.5 46.5t41 59t63 46.5t86.5 21 q38 0 73 -15.5t56 -34.5t48.5 -34.5t52.5 -15.5q34 0 61 25t37 50l10 25l99 -61q-2 -8 -7 -21.5t-24 -47.5t-42 -59.5t-63 -47t-86 -21.5q-37 0 -70.5 16t-54.5 34.5t-48 34.5t-52 16q-35 0 -63 -25t-39 -51l-11 -25z" />
<glyph horiz-adv-x="1931" d="M211 936q0 81 19.5 155t50 127.5t68 98.5t75 74t68 49.5t50.5 29.5l19 9l98 -129q-5 -2 -14.5 -6.5t-36 -22t-50.5 -38t-53.5 -55.5t-51 -74.5t-36 -95t-14.5 -116.5q0 -136 84.5 -222.5t219.5 -107.5q6 134 30.5 253.5t77 234t129 197t193 132.5t262.5 50 q272 0 407.5 -148t135.5 -416q0 -99 -10 -192t-33.5 -188t-59.5 -176.5t-91.5 -153t-125.5 -122t-164.5 -79.5t-206.5 -29q-494 0 -542 457q-232 20 -365 162t-133 342zM936 621q251 39 395 206t144 441v10q-36 8 -91 8q-76 0 -139 -24.5t-107.5 -64t-79.5 -96.5t-56 -115 t-35.5 -126.5t-21 -124t-9.5 -114.5zM940 440q16 -130 90.5 -201t231.5 -71q81 0 148.5 30t113 78.5t80.5 116t55 135t32.5 142.5t16.5 132t4 111q0 181 -76 275q-3 -86 -25 -174.5t-74.5 -184t-128.5 -173t-197.5 -136.5t-270.5 -80zM1145 1790l123 131l276 -268l-102 -111 z" />
<glyph horiz-adv-x="1931" d="M211 936q0 81 19.5 155t50 127.5t68 98.5t75 74t68 49.5t50.5 29.5l19 9l98 -129q-5 -2 -14.5 -6.5t-36 -22t-50.5 -38t-53.5 -55.5t-51 -74.5t-36 -95t-14.5 -116.5q0 -136 84.5 -222.5t219.5 -107.5q6 134 30.5 253.5t77 234t129 197t193 132.5t262.5 50 q272 0 407.5 -148t135.5 -416q0 -99 -10 -192t-33.5 -188t-59.5 -176.5t-91.5 -153t-125.5 -122t-164.5 -79.5t-206.5 -29q-494 0 -542 457q-232 20 -365 162t-133 342zM936 621q251 39 395 206t144 441v10q-36 8 -91 8q-76 0 -139 -24.5t-107.5 -64t-79.5 -96.5t-56 -115 t-35.5 -126.5t-21 -124t-9.5 -114.5zM940 440q16 -130 90.5 -201t231.5 -71q81 0 148.5 30t113 78.5t80.5 116t55 135t32.5 142.5t16.5 132t4 111q0 181 -76 275q-3 -86 -25 -174.5t-74.5 -184t-128.5 -173t-197.5 -136.5t-270.5 -80zM1335 1665l351 268l86 -129l-365 -250z " />
<glyph horiz-adv-x="1931" d="M211 936q0 81 19.5 155t50 127.5t68 98.5t75 74t68 49.5t50.5 29.5l19 9l98 -129q-5 -2 -14.5 -6.5t-36 -22t-50.5 -38t-53.5 -55.5t-51 -74.5t-36 -95t-14.5 -116.5q0 -136 84.5 -222.5t219.5 -107.5q6 134 30.5 253.5t77 234t129 197t193 132.5t262.5 50 q272 0 407.5 -148t135.5 -416q0 -99 -10 -192t-33.5 -188t-59.5 -176.5t-91.5 -153t-125.5 -122t-164.5 -79.5t-206.5 -29q-494 0 -542 457q-232 20 -365 162t-133 342zM936 621q251 39 395 206t144 441v10q-36 8 -91 8q-76 0 -139 -24.5t-107.5 -64t-79.5 -96.5t-56 -115 t-35.5 -126.5t-21 -124t-9.5 -114.5zM940 440q16 -130 90.5 -201t231.5 -71q81 0 148.5 30t113 78.5t80.5 116t55 135t32.5 142.5t16.5 132t4 111q0 181 -76 275q-3 -86 -25 -174.5t-74.5 -184t-128.5 -173t-197.5 -136.5t-270.5 -80zM1143 1642l342 267l268 -267l-98 -100 l-197 172l-248 -172z" />
<glyph horiz-adv-x="1931" d="M211 936q0 81 19.5 155t50 127.5t68 98.5t75 74t68 49.5t50.5 29.5l19 9l98 -129q-5 -2 -14.5 -6.5t-36 -22t-50.5 -38t-53.5 -55.5t-51 -74.5t-36 -95t-14.5 -116.5q0 -136 84.5 -222.5t219.5 -107.5q6 134 30.5 253.5t77 234t129 197t193 132.5t262.5 50 q272 0 407.5 -148t135.5 -416q0 -99 -10 -192t-33.5 -188t-59.5 -176.5t-91.5 -153t-125.5 -122t-164.5 -79.5t-206.5 -29q-494 0 -542 457q-232 20 -365 162t-133 342zM936 621q251 39 395 206t144 441v10q-36 8 -91 8q-76 0 -139 -24.5t-107.5 -64t-79.5 -96.5t-56 -115 t-35.5 -126.5t-21 -124t-9.5 -114.5zM940 440q16 -130 90.5 -201t231.5 -71q81 0 148.5 30t113 78.5t80.5 116t55 135t32.5 142.5t16.5 132t4 111q0 181 -76 275q-3 -86 -25 -174.5t-74.5 -184t-128.5 -173t-197.5 -136.5t-270.5 -80zM1120 1661q2 8 7 21t23.5 46.5t41 59 t63 46.5t86.5 21q38 0 73 -15.5t56 -34.5t48.5 -34.5t52.5 -15.5q34 0 61 25t37 50l10 25l101 -61q-2 -8 -7 -21.5t-24.5 -47.5t-43 -59.5t-63.5 -47t-86 -21.5q-37 0 -70.5 16t-54.5 34.5t-48 34.5t-52 16q-22 0 -41.5 -10.5t-31.5 -25t-20.5 -29.5t-12.5 -25l-4 -11z" />
<glyph horiz-adv-x="1931" d="M211 936q0 81 19.5 155t50 127.5t68 98.5t75 74t68 49.5t50.5 29.5l19 9l98 -129q-5 -2 -14.5 -6.5t-36 -22t-50.5 -38t-53.5 -55.5t-51 -74.5t-36 -95t-14.5 -116.5q0 -136 84.5 -222.5t219.5 -107.5q6 134 30.5 253.5t77 234t129 197t193 132.5t262.5 50 q272 0 407.5 -148t135.5 -416q0 -99 -10 -192t-33.5 -188t-59.5 -176.5t-91.5 -153t-125.5 -122t-164.5 -79.5t-206.5 -29q-494 0 -542 457q-232 20 -365 162t-133 342zM936 621q251 39 395 206t144 441v10q-36 8 -91 8q-76 0 -139 -24.5t-107.5 -64t-79.5 -96.5t-56 -115 t-35.5 -126.5t-21 -124t-9.5 -114.5zM940 440q16 -130 90.5 -201t231.5 -71q81 0 148.5 30t113 78.5t80.5 116t55 135t32.5 142.5t16.5 132t4 111q0 181 -76 275q-3 -86 -25 -174.5t-74.5 -184t-128.5 -173t-197.5 -136.5t-270.5 -80zM1128 1704q0 57 34.5 91t94.5 34 q47 0 73 -24t26 -66q0 -58 -34.5 -93.5t-96.5 -35.5q-46 0 -71.5 26t-25.5 68zM1548 1704q0 57 34.5 91t94.5 34q48 0 72.5 -24t24.5 -66q0 -58 -34 -93.5t-93 -35.5q-46 0 -72.5 26t-26.5 68z" />
<glyph horiz-adv-x="1931" d="M211 936q0 81 19.5 155t50 127.5t68 98.5t75 74t68 49.5t50.5 29.5l19 9l98 -129q-5 -2 -14.5 -6.5t-36 -22t-50.5 -38t-53.5 -55.5t-51 -74.5t-36 -95t-14.5 -116.5q0 -136 84.5 -222.5t219.5 -107.5q6 134 30.5 253.5t77 234t129 197t193 132.5t262.5 50q120 0 215 -31 l131 242l156 -74l-136 -250q177 -143 177 -451q0 -99 -10 -192t-33.5 -188t-59.5 -176.5t-91.5 -153t-125.5 -122t-164.5 -79.5t-206.5 -29q-129 0 -227 31l-141 -260l-158 74l145 266q-138 113 -161 346q-232 20 -365 162t-133 342zM936 621q251 39 395 206t144 441v10 q-36 8 -91 8q-76 0 -139 -24.5t-107.5 -64t-79.5 -96.5t-56 -115t-35.5 -126.5t-21 -124t-9.5 -114.5zM940 440q16 -130 90.5 -201t231.5 -71q81 0 148.5 30t113 78.5t80.5 116t55 135t32.5 142.5t16.5 132t4 111q0 181 -76 275q-3 -86 -25 -174.5t-74.5 -184t-128.5 -173 t-197.5 -136.5t-270.5 -80z" />
<glyph horiz-adv-x="1355" d="M125 35q0 61 13.5 120t32 99.5t38.5 72.5t33 47t14 15l172 -65q-4 -5 -10 -14t-22 -38t-28 -60t-22 -76.5t-10 -90.5q0 -137 92 -220t238 -83q95 0 171 31.5t123 83t72 115.5t25 132q0 66 -23.5 123.5t-73.5 109t-99 89t-126 88.5q-76 50 -119 81t-98 81t-83.5 95 t-49 108.5t-20.5 136.5q0 117 46 207.5t126.5 145.5t183.5 82.5t223 27.5q112 0 215 -22t150 -44l47 -22l-70 -172q-18 7 -49 18t-120.5 29t-170.5 18q-157 0 -252.5 -64t-95.5 -184q0 -42 14.5 -80t35.5 -68t63 -65.5t79 -62t101 -68.5q50 -34 82.5 -56.5t78 -59.5 t74.5 -68t62 -75t52 -88t31.5 -99.5t12.5 -116.5q0 -104 -34 -201t-101 -179t-178.5 -135.5t-253.5 -62.5l-33 -86q21 3 43 3q80 0 130 -34.5t50 -103.5q0 -92 -70.5 -148t-211.5 -56q-55 0 -101.5 10t-65.5 20l-20 10l41 109q70 -31 135 -31q58 0 96 20t38 66q0 70 -113 70 q-73 0 -121 -18l68 172q-117 11 -206.5 55t-143 110.5t-80.5 146t-27 169.5z" />
<glyph horiz-adv-x="2097" d="M211 846q0 280 215 444t588 164h229l-127 -903q-8 -52 -8 -107q0 -69 17 -120.5t43.5 -80.5t67 -46.5t78.5 -23t87 -5.5q340 0 395 383l84 610q6 46 6 84q0 62 -14.5 113t-35 79.5t-41.5 48.5t-35 27l-15 7l113 157q25 -7 53.5 -20.5t67.5 -44.5t69.5 -72.5t52 -109 t21.5 -148.5q0 -28 -8 -98l-84 -600q-23 -170 -75 -287.5t-135 -188.5t-191 -102t-253 -31q-495 0 -495 459q0 84 10 150l94 680q-88 0 -169 -13t-158 -44.5t-133 -79t-90 -122t-34 -167.5q0 -65 16.5 -124t40 -97t47 -66.5t39.5 -41.5l17 -13l-121 -123q-9 6 -24.5 18 t-55 55t-69.5 93.5t-55 133t-25 173.5zM1206 1837l123 129l277 -268l-103 -111z" />
<glyph horiz-adv-x="2097" d="M211 846q0 280 215 444t588 164h229l-127 -903q-8 -52 -8 -107q0 -69 17 -120.5t43.5 -80.5t67 -46.5t78.5 -23t87 -5.5q340 0 395 383l84 610q6 46 6 84q0 62 -14.5 113t-35 79.5t-41.5 48.5t-35 27l-15 7l113 157q25 -7 53.5 -20.5t67.5 -44.5t69.5 -72.5t52 -109 t21.5 -148.5q0 -28 -8 -98l-84 -600q-23 -170 -75 -287.5t-135 -188.5t-191 -102t-253 -31q-495 0 -495 459q0 84 10 150l94 680q-88 0 -169 -13t-158 -44.5t-133 -79t-90 -122t-34 -167.5q0 -65 16.5 -124t40 -97t47 -66.5t39.5 -41.5l17 -13l-121 -123q-9 6 -24.5 18 t-55 55t-69.5 93.5t-55 133t-25 173.5zM1366 1698l352 268l86 -129l-366 -250z" />
<glyph horiz-adv-x="2097" d="M211 846q0 280 215 444t588 164h229l-127 -903q-8 -52 -8 -107q0 -69 17 -120.5t43.5 -80.5t67 -46.5t78.5 -23t87 -5.5q340 0 395 383l84 610q6 46 6 84q0 62 -14.5 113t-35 79.5t-41.5 48.5t-35 27l-15 7l113 157q25 -7 53.5 -20.5t67.5 -44.5t69.5 -72.5t52 -109 t21.5 -148.5q0 -28 -8 -98l-84 -600q-23 -170 -75 -287.5t-135 -188.5t-191 -102t-253 -31q-495 0 -495 459q0 84 10 150l94 680q-88 0 -169 -13t-158 -44.5t-133 -79t-90 -122t-34 -167.5q0 -65 16.5 -124t40 -97t47 -66.5t39.5 -41.5l17 -13l-121 -123q-9 6 -24.5 18 t-55 55t-69.5 93.5t-55 133t-25 173.5zM1110 1714l344 266l268 -266l-98 -100l-199 172l-247 -172z" />
<glyph horiz-adv-x="2097" d="M211 846q0 280 215 444t588 164h229l-127 -903q-8 -52 -8 -107q0 -69 17 -120.5t43.5 -80.5t67 -46.5t78.5 -23t87 -5.5q340 0 395 383l84 610q6 46 6 84q0 62 -14.5 113t-35 79.5t-41.5 48.5t-35 27l-15 7l113 157q25 -7 53.5 -20.5t67.5 -44.5t69.5 -72.5t52 -109 t21.5 -148.5q0 -28 -8 -98l-84 -600q-23 -170 -75 -287.5t-135 -188.5t-191 -102t-253 -31q-495 0 -495 459q0 84 10 150l94 680q-88 0 -169 -13t-158 -44.5t-133 -79t-90 -122t-34 -167.5q0 -65 16.5 -124t40 -97t47 -66.5t39.5 -41.5l17 -13l-121 -123q-9 6 -24.5 18 t-55 55t-69.5 93.5t-55 133t-25 173.5zM1069 1749q0 58 34 92.5t93 34.5q49 0 74.5 -24.5t25.5 -67.5q0 -57 -34.5 -92t-96.5 -35q-46 0 -71 25t-25 67zM1489 1749q0 57 34.5 92t94.5 35q47 0 72.5 -24.5t25.5 -67.5q0 -56 -35 -91.5t-94 -35.5q-48 0 -73 24.5t-25 67.5z " />
<glyph horiz-adv-x="1810" d="M211 846q0 275 203 441.5t544 166.5h82l252 -860l275 416q63 96 95 161t32 119q0 33 -13.5 59.5t-33 40.5t-39.5 24t-34 13l-13 3l86 165q42 -10 84.5 -30t86 -53.5t70.5 -86t27 -116.5q0 -145 -148 -365l-389 -579l-14 -103q-14 -106 -52 -193.5t-102 -159 t-164.5 -111.5t-228.5 -40q-84 0 -160 17t-109 34l-34 17l55 170q10 -5 28.5 -13t77.5 -21t120 -13q156 0 235.5 81t99.5 228l15 104l-285 895q-94 -11 -173 -40t-145 -77.5t-103.5 -125t-37.5 -174.5q0 -65 16.5 -124.5t40 -98t47 -67t39.5 -41.5l17 -13l-121 -121 q-9 6 -24.5 18t-55 54.5t-69.5 92.5t-55 132.5t-25 173.5zM1217 1714l352 268l86 -131l-367 -247z" />
<glyph horiz-adv-x="1234" d="M-608 1966q14 8 44 21t86 32t139 32t171 13q100 0 192 -16t183.5 -50t152 -62t156.5 -78q143 265 373 412t516 147q261 0 411 -120t150 -329q0 -112 -46 -207t-134 -167t-228 -113t-317 -41q-170 0 -315.5 36t-294.5 101q-48 -144 -74 -322l-20 -133q1 0 13.5 3.5t33.5 9 t46.5 10.5t58.5 8.5t63 3.5q232 0 346 -119t114 -344q0 -115 -19 -216.5t-64.5 -195.5t-114.5 -160.5t-176 -106.5t-242 -40q-69 0 -139.5 9.5t-121 23t-91.5 27.5t-62 23l-20 10l172 1212q32 220 96 387q-103 54 -160 81t-147.5 63t-175.5 51.5t-176 15.5q-170 0 -328 -70z M408 195q80 -31 206 -31q80 0 143.5 28t105.5 75.5t70 114t40 140t12 156.5q0 145 -62 218t-202 73q-47 0 -99.5 -8.5t-81.5 -17.5l-28 -9zM709 1763q134 -64 265 -99.5t283 -35.5q98 0 178 16t131.5 43.5t88.5 61t56.5 72.5t27.5 73t8 68q0 49 -17 93.5t-54.5 85.5 t-108.5 65t-168 24t-189.5 -25.5t-183.5 -79t-173 -146t-144 -216.5z" />
<glyph horiz-adv-x="1222" d="M76 1966q20 11 46 21.5t85 31t141 33t170 12.5q100 0 191.5 -15.5t183.5 -50.5t151 -62t158 -78q143 265 373 412t516 147q261 0 411 -120t150 -329q0 -112 -46 -207t-134 -167t-228 -113t-317 -41q-305 0 -612 139q-52 -158 -74 -324l-164 -1187q-8 -4 -22 -10 t-60.5 -22t-95 -28.5t-120.5 -22.5t-142 -10q-233 0 -352 116.5t-119 346.5q0 162 38 293t112.5 226.5t191 147.5t266.5 52q111 0 223 -35l23 158q27 207 96 387q-103 54 -160 81t-147.5 63t-175.5 51.5t-176 15.5q-170 0 -328 -70zM393 453q0 -142 63.5 -215.5t200.5 -73.5 q121 0 211 31l103 739q-77 35 -205 35q-84 0 -150 -30t-107 -79t-68 -117t-37.5 -139t-10.5 -151zM1391 1765q137 -65 268.5 -101t284.5 -36q117 0 207.5 23.5t142.5 58.5t84.5 82t43.5 87.5t11 82.5q0 49 -17 93.5t-54.5 85.5t-108.5 65t-168 24t-190 -25.5t-184.5 -78.5 t-174.5 -145t-145 -216z" />
<glyph horiz-adv-x="864" d="M-1194 -868q0 112 46 207t134.5 167t229 113t317.5 41q302 0 608 -137q54 153 76 321l156 1104h-172l26 185h172l15 100q52 371 413 371q53 0 101.5 -7t71.5 -15l22 -7l-53 -182q-49 20 -123 20q-178 0 -205 -188l-14 -92h303l-25 -185h-305l-160 -1128 q-31 -215 -100 -387q105 -54 162 -81t148.5 -63t176.5 -51.5t177 -15.5q171 0 327 69l51 -159q-194 -97 -442 -97q-81 0 -161 12.5t-140 29t-136.5 48.5t-121.5 54t-123 63q-145 -265 -374 -412t-515 -147q-262 0 -412.5 120t-150.5 329zM-973 -862q0 -49 17 -93.5 t54.5 -85.5t108.5 -65t168 -24t190 25t184.5 78t174 145t144.5 216q-133 66 -265 102t-286 36q-98 0 -178 -16t-131.5 -43.5t-88.5 -61t-56.5 -72.5t-27.5 -73t-8 -68z" />
<glyph horiz-adv-x="1255" d="M-608 1968q24 13 66 30.5t151 41.5t223 24q100 0 192 -16t183.5 -50t152 -62t156.5 -78q143 265 373 412t516 147q261 0 411 -120t150 -329q0 -112 -46 -207t-134 -167t-228 -113t-317 -41q-300 0 -610 137q-52 -159 -74 -322l-18 -133q129 35 260 35q213 0 317.5 -79 t104.5 -265q0 -57 -9 -121l-98 -692h-227l100 711q4 25 4 67q0 62 -19 102t-56 58.5t-74.5 24.5t-91.5 6q-31 0 -63 -2.5t-56 -5.5t-47 -7.5t-37 -8t-25 -6.5t-12 -3l-131 -936h-225l180 1280q30 207 96 387q-103 54 -160 81t-147.5 63t-175.5 51.5t-176 15.5 q-170 0 -328 -70zM705 1765q135 -66 266.5 -101.5t285.5 -35.5q98 0 178 16t131.5 43.5t88.5 61t56.5 72.5t27.5 73t8 68q0 49 -17 93.5t-54.5 85.5t-108.5 65t-168 24t-190 -25.5t-184.5 -78.5t-174.5 -145t-145 -216z" />
<glyph horiz-adv-x="1171" d="M-610 1968q192 96 442 96q100 0 191.5 -15.5t183.5 -50.5t151 -62t158 -78q143 265 372.5 412t516.5 147q261 0 411 -120t150 -329q0 -112 -46 -207t-134 -167t-228 -113t-317 -41q-171 0 -317.5 36t-294.5 101q-49 -149 -72 -322l-90 -637l508 515h274l-559 -566 l205 -288q37 -51 73.5 -78t92.5 -27q13 0 29 2t26 4l10 2l-24 -172q-41 -22 -121 -22q-83 0 -149 44t-127 132l-252 354l-74 -518h-225l180 1280q27 207 96 387q-102 53 -160.5 81t-148.5 63.5t-175 51t-175 15.5q-172 0 -330 -70zM705 1765q135 -66 266.5 -101.5 t285.5 -35.5q98 0 178 16t131.5 43.5t88.5 61t56.5 72.5t27.5 73t8 68q0 49 -17 93.5t-54.5 85.5t-108.5 65t-168 24t-190 -25.5t-184.5 -78.5t-174.5 -145t-145 -216z" />
<glyph horiz-adv-x="532" d="M-610 1968q192 96 442 96q100 0 191.5 -15.5t183.5 -50.5t151 -62t158 -78q143 265 372.5 412t516.5 147q261 0 411 -120t150 -329q0 -112 -46 -207t-134 -167t-228 -113t-317 -41q-171 0 -317.5 36t-294.5 101q-49 -149 -72 -322l-178 -1255h-225l180 1280 q27 207 96 387q-102 53 -160.5 81t-148.5 63.5t-175 51t-175 15.5q-172 0 -330 -70zM705 1765q135 -66 266.5 -101.5t285.5 -35.5q98 0 178 16t131.5 43.5t88.5 61t56.5 72.5t27.5 73t8 68q0 49 -17 93.5t-54.5 85.5t-108.5 65t-168 24t-190 -25.5t-184.5 -78.5t-174.5 -145 t-145 -216z" />
<glyph horiz-adv-x="1234" d="M-1278 -864q0 112 46 207t134.5 166.5t229 112t317.5 40.5q298 0 608 -135q54 153 76 319l170 1219q21 10 59.5 25.5t153.5 41t225 25.5q233 0 352 -116.5t119 -346.5q0 -162 -38 -293t-112 -226.5t-190 -147.5t-266 -52q-116 0 -223 35l-27 -186q-30 -210 -98 -389 q83 -43 127.5 -65t120.5 -54.5t133 -48.5t132 -28.5t149 -12.5q171 0 327 69l51 -159q-22 -13 -66.5 -31.5t-153 -42t-222.5 -23.5q-81 0 -161 12.5t-140 29t-136.5 48.5t-121.5 54t-123 63q-143 -265 -373 -412t-516 -147q-262 0 -412.5 120t-150.5 329zM-1057 -860 q0 -38 9.5 -73.5t35 -71.5t63.5 -62t100 -42.5t140 -16.5q97 0 190 25t185 78t175 145t145 216q-135 66 -267 102t-286 36q-117 0 -207.5 -23.5t-142.5 -59t-85 -82.5t-44 -88t-11 -83zM408 199q83 -35 206 -35q84 0 150 30t106.5 78.5t67 117t37 139.5t10.5 151 q0 143 -63 216t-201 73q-119 0 -209 -31z" />
<glyph horiz-adv-x="1222" d="M-588 -848q0 112 46 207.5t134 167.5t228.5 113t318.5 41q294 0 602 -134q44 114 76 293q10 49 25 170q-1 0 -13.5 -3.5t-33.5 -8.5t-46.5 -10.5t-58.5 -9t-63 -3.5q-231 0 -346 119t-115 344q0 115 19 216.5t65 195.5t115 160.5t175.5 106.5t241.5 40q110 0 219 -23 t163 -46l53 -23l-162 -1176q-34 -231 -115 -434q82 -43 128.5 -66t123 -56t134.5 -49.5t133.5 -29t150.5 -12.5q169 0 327 70l52 -160q-192 -96 -443 -96q-102 0 -194 16t-188.5 53t-150 62.5t-159.5 79.5q-146 -265 -371.5 -414t-507.5 -149q-263 0 -413 119.5t-150 328.5z M-369 -842q0 -49 17.5 -93.5t55.5 -85.5t109.5 -65t168.5 -24q123 0 243 47.5t236.5 156t200.5 267.5q-276 131 -541 131q-98 0 -178 -16t-131.5 -43.5t-88.5 -61t-56.5 -72.5t-27.5 -73t-8 -68zM393 455q0 -145 62 -218t202 -73q47 0 99.5 9t81.5 17l28 9l107 739 q-85 31 -209 31q-80 0 -143.5 -28t-105.5 -75.5t-70 -114t-40 -140t-12 -156.5z" />
<glyph horiz-adv-x="1230" d="M-588 -848q0 112 46 207.5t134 167.5t228.5 113t318.5 41q294 0 602 -134q44 114 76 293q10 49 25 170q-1 0 -13.5 -3.5t-33.5 -8.5t-46.5 -10.5t-58.5 -9t-63 -3.5q-231 0 -346 119t-115 344q0 115 19 216.5t65 195.5t115 160.5t175.5 106.5t241.5 40q110 0 219 -23 t163 -46l53 -23l-162 -1176q-34 -231 -115 -434q82 -43 128.5 -66t123 -56t134.5 -49.5t133.5 -29t150.5 -12.5q169 0 327 70l52 -160q-192 -96 -443 -96q-102 0 -194 16t-188.5 53t-150 62.5t-159.5 79.5q-146 -265 -371.5 -414t-507.5 -149q-263 0 -413 119.5t-150 328.5z M-369 -842q0 -49 17.5 -93.5t55.5 -85.5t109.5 -65t168.5 -24q123 0 243 47.5t236.5 156t200.5 267.5q-276 131 -541 131q-98 0 -178 -16t-131.5 -43.5t-88.5 -61t-56.5 -72.5t-27.5 -73t-8 -68zM393 455q0 -145 62 -218t202 -73q47 0 99.5 9t81.5 17l28 9l107 739 q-85 31 -209 31q-80 0 -143.5 -28t-105.5 -75.5t-70 -114t-40 -140t-12 -156.5zM567 1534v14l125 45v-8.5t3 -22t7.5 -31t16 -32.5t26.5 -30.5t40.5 -21.5t56.5 -9q44 0 79.5 16t55 39t33 45.5t18.5 38.5l4 16l117 -45q-1 -5 -4 -14.5t-15 -36.5t-27 -51.5t-42 -54.5 t-59 -51.5t-79.5 -36.5t-101.5 -15t-97 14.5t-69 37.5t-44.5 50.5t-26.5 55t-12.5 50.5t-4.5 38z" />
<glyph horiz-adv-x="1234" d="M162 68l155 1108q45 324 232.5 502.5t484.5 203.5l23 -176q-435 -53 -508 -506l-12 -78q1 0 13.5 3.5t33.5 9t46.5 10.5t58.5 8.5t63 3.5q232 0 346 -119t114 -344q0 -115 -19 -216.5t-64.5 -195.5t-114.5 -160.5t-176 -106.5t-242 -40q-69 0 -139.5 9.5t-121 23 t-91.5 27.5t-62 23zM408 195q80 -31 206 -31q80 0 143.5 28t105.5 75.5t70 114t40 140t12 156.5q0 145 -62 218t-202 73q-47 0 -99.5 -8.5t-81.5 -17.5l-28 -9z" />
<glyph horiz-adv-x="1230" d="M176 438q0 162 38 293t112 226.5t190 147.5t266 52q114 0 226 -35l10 74q8 74 8 102q0 184 -103 284t-290 124l53 176q121 -13 222 -56t178.5 -114t121 -177.5t43.5 -238.5q0 -63 -8 -120l-158 -1108q-8 -4 -22 -10t-60.5 -22t-95 -28.5t-120.5 -22.5t-142 -10 q-469 0 -469 463zM401 453q0 -142 64 -215.5t203 -73.5q119 0 209 31l102 739q-78 35 -205 35q-84 0 -150 -30t-107 -79t-68 -117t-37.5 -139t-10.5 -151z" />
<glyph horiz-adv-x="878" d="M-260 -539q444 58 506 498l139 989h-174l27 185h172l14 96q12 91 42 159.5t69 109.5t91.5 66.5t103.5 34.5t112 9q47 0 95 -8t73 -16l24 -7l-55 -180q-49 20 -121 20q-90 0 -141 -43.5t-66 -142.5l-14 -98h305l-27 -185h-305l-133 -964q-45 -325 -232.5 -503.5 t-484.5 -203.5z" />
<glyph horiz-adv-x="1255" d="M154 0l163 1176q45 325 232 503t485 203l23 -176q-435 -53 -508 -506l-12 -78q132 35 262 35q213 0 317.5 -79t104.5 -265q0 -57 -9 -121l-98 -692h-225l100 711l4 65q0 50 -14 86t-35 56.5t-54.5 32t-64.5 15t-73 3.5q-63 0 -123.5 -8.5t-89.5 -16.5l-29 -8l-131 -936 h-225z" />
<glyph horiz-adv-x="1163" d="M154 0l163 1176q45 324 232.5 502.5t484.5 203.5l23 -176q-212 -26 -343.5 -150t-164.5 -356l-82 -582l518 515h264l-555 -547l217 -307q37 -52 71 -78.5t83 -26.5q13 0 28 2t24 4l9 2l-24 -172q-45 -22 -121 -22q-83 0 -149 44t-127 132l-252 354l-72 -518h-227z" />
<glyph horiz-adv-x="532" d="M154 0l163 1176q45 324 232.5 502.5t484.5 203.5l23 -176q-212 -26 -343.5 -150t-164.5 -356l-168 -1200h-227z" />
</font>
</defs>
</svg>
