<?xml version="1.0" standalone="no"?>
<!DOCTYPE svg PUBLIC "-//W3C//DTD SVG 1.1//EN" "http://www.w3.org/Graphics/SVG/1.1/DTD/svg11.dtd" >
<svg xmlns="http://www.w3.org/2000/svg">
<metadata></metadata>
<defs>
<font id="roihulight" horiz-adv-x="1404" >
<font-face units-per-em="2048" ascent="1638" descent="-410" />
<missing-glyph horiz-adv-x="428" />
<glyph unicode="&#xfb00;" horiz-adv-x="1624" d="M78 1012v121h190v108q0 348 332 348q60 0 110 -8.5t64 -15.5l-24 -119q-56 16 -136 16q-103 0 -151.5 -49t-48.5 -168v-112h628v108q0 348 332 348q60 0 110 -8.5t64 -15.5l-24 -119q-55 16 -133 16q-105 0 -154 -49t-49 -168v-112h330v-121h-330v-1012h-146v1012h-628 v-1012h-146v1012h-190z" />
<glyph unicode="&#xfb01;" horiz-adv-x="1269" d="M78 1012v121h190v108q0 348 332 348q60 0 110 -8.5t64 -15.5l-24 -119q-56 16 -136 16q-103 0 -151.5 -49t-48.5 -168v-112h690v-1133h-146v1012h-544v-1012h-146v1012h-190zM932 1425q0 43 26 69t72 26q44 0 72 -26t28 -69q0 -45 -27.5 -71.5t-72.5 -26.5 q-47 0 -72.5 26t-25.5 72z" />
<glyph unicode="&#xfb02;" horiz-adv-x="1310" d="M78 1012v121h190v108q0 348 332 348q60 0 110 -8.5t64 -15.5l-24 -119q-56 16 -136 16q-103 0 -151.5 -49t-48.5 -168v-112h327v-121h-327v-1012h-146v1012h-190zM997 0v1556h146v-1556h-146z" />
<glyph unicode="&#xfb03;" horiz-adv-x="2041" d="M78 1012v121h190v108q0 348 332 348q60 0 110 -8.5t64 -15.5l-24 -119q-56 16 -136 16q-103 0 -151.5 -49t-48.5 -168v-112h628v108q0 348 332 348q60 0 110 -8.5t64 -15.5l-24 -119q-55 16 -133 16q-105 0 -154 -49t-49 -168v-112h688v-1133h-145v1012h-543v-1012h-146 v1012h-628v-1012h-146v1012h-190zM1704 1425q0 43 26.5 69t73.5 26q44 0 71.5 -26t27.5 -69q0 -45 -27 -71.5t-72 -26.5q-47 0 -73.5 26t-26.5 72z" />
<glyph unicode="&#xfb04;" horiz-adv-x="2086" d="M78 1012v121h190v108q0 348 332 348q60 0 110 -8.5t64 -15.5l-24 -119q-56 16 -136 16q-103 0 -151.5 -49t-48.5 -168v-112h628v108q0 348 332 348q60 0 110 -8.5t64 -15.5l-24 -119q-55 16 -133 16q-105 0 -154 -49t-49 -168v-112h330v-121h-330v-1012h-146v1012h-628 v-1012h-146v1012h-190zM1774 0v1556h147v-1556h-147z" />
<glyph horiz-adv-x="0" />
<glyph horiz-adv-x="682" />
<glyph horiz-adv-x="0" />
<glyph horiz-adv-x="0" />
<glyph unicode="&#xd;" horiz-adv-x="0" />
<glyph unicode=" "  horiz-adv-x="428" />
<glyph unicode="&#x09;" horiz-adv-x="428" />
<glyph unicode="&#xa0;" horiz-adv-x="428" />
<glyph unicode="!" horiz-adv-x="507" d="M158 76q0 44 25 69t71 25q45 0 70.5 -25.5t25.5 -68.5q0 -45 -25.5 -72t-70.5 -27q-46 0 -71 27t-25 72zM174 1454h162l-21 -1096h-120z" />
<glyph unicode="&#x22;" horiz-adv-x="630" d="M119 1495h133l-21 -491h-92zM379 1495h133l-23 -491h-90z" />
<glyph unicode="#" horiz-adv-x="1488" d="M98 365l13 110h247l58 504h-248l12 111h248l41 364h129l-41 -364h438l41 364h129l-41 -364h244l-12 -111h-244l-55 -504h243l-14 -110h-242l-40 -365h-130l41 365h-440l-41 -365h-129l41 365h-248zM487 475h441l55 504h-438z" />
<glyph unicode="$" horiz-adv-x="1128" d="M131 1081q0 168 104 258t271 109v194h127v-188q94 -3 176 -18.5t117 -29.5l35 -15l-35 -115q-11 6 -33 14.5t-98 23t-162 15.5v-538q62 -19 109.5 -39t98 -53t83.5 -72.5t54 -98.5t21 -131q0 -161 -90 -265t-276 -126v-211h-127v205q-106 2 -196 19.5t-128 34.5l-37 16 l33 114q13 -6 38 -15.5t110 -26t180 -17.5v563q-64 20 -112 40t-100 53.5t-85.5 73t-55.5 97.5t-22 129zM266 1083q0 -54 18 -96t54 -71t74.5 -48.5t93.5 -38.5v492q-240 -38 -240 -238zM633 133q227 42 227 258q0 54 -17 97t-49.5 73t-70.5 50t-90 38v-516z" />
<glyph unicode="%" horiz-adv-x="1681" d="M115 1114q0 70 15.5 131.5t49.5 115t95 85t143 31.5t143 -31.5t95 -85t49.5 -115t15.5 -131.5q0 -69 -15.5 -130t-49.5 -113.5t-95 -83.5t-143 -31t-143 31t-95 83.5t-49.5 113.5t-15.5 130zM227 1114q0 -117 45.5 -190.5t145.5 -73.5t145 73.5t45 190.5q0 120 -45 194 t-145 74t-145.5 -74t-45.5 -194zM477 20l623 1457l98 -41l-623 -1459zM963 340q0 69 15.5 130t48.5 113.5t94 83.5t143 31t143 -31t95 -83.5t49.5 -113.5t15.5 -130q0 -70 -15.5 -131.5t-49.5 -115t-95 -85t-143 -31.5t-143 31.5t-94 85t-48.5 115t-15.5 131.5zM1075 340 q0 -120 44.5 -194t144.5 -74t145 74t45 194q0 117 -45 190.5t-145 73.5q-52 0 -89.5 -21t-59 -58.5t-31 -83t-9.5 -101.5z" />
<glyph unicode="&#x26;" horiz-adv-x="1437" d="M123 381q0 78 24.5 145.5t70 120.5t95 91.5t113.5 76.5q-64 72 -108 162.5t-44 183.5q0 58 19.5 112t58.5 101t107.5 75t158.5 28q71 0 128 -18.5t94.5 -49t62.5 -71t36 -83.5t11 -88q0 -66 -24 -122.5t-71.5 -103t-96 -80t-119.5 -73.5l410 -417q68 134 79 311h129 q-7 -233 -114 -406l203 -204l-99 -97l-188 191q-174 -189 -455 -189q-217 0 -349 111.5t-132 292.5zM268 385q0 -132 96 -208.5t250 -76.5q218 0 357 156l-453 465q-55 -32 -94 -61.5t-77.5 -70.5t-58.5 -92.5t-20 -111.5zM414 1161q0 -125 135 -280q51 26 81 43t70 45 t61 53.5t36.5 61.5t15.5 77q0 83 -49.5 141t-147.5 58q-99 0 -150.5 -59t-51.5 -140z" />
<glyph unicode="'" horiz-adv-x="372" d="M119 1495h133l-21 -491h-92z" />
<glyph unicode="(" horiz-adv-x="614" d="M121 565q0 131 18.5 257.5t48.5 224.5t66 186t72 149.5t66 107t48 67.5l19 22l94 -66q-12 -15 -31.5 -42.5t-69.5 -121t-88.5 -196t-70 -263t-31.5 -325.5t30 -323.5t72.5 -266.5t85.5 -192.5t73 -124.5l30 -41l-94 -66q-14 15 -36.5 44t-81 128t-103 208.5t-81 282 t-36.5 351.5z" />
<glyph unicode=")" horiz-adv-x="614" d="M59 -383l16.5 22t41 62.5t58 102.5t61.5 140t58.5 175.5t41 207.5t16.5 238t-16 237.5t-42 209t-57 174t-62.5 141t-57.5 101.5t-42 64l-16 21l97 66q14 -15 36.5 -44t81 -128t103 -208.5t81 -282t36.5 -351.5q0 -131 -18.5 -257.5t-48.5 -224.5t-66 -186t-72 -149.5 t-66 -107t-49 -67.5l-18 -22z" />
<glyph unicode="*" horiz-adv-x="884" d="M98 1264l39 114l260 -100l-12 278h121l-14 -276l260 98l36 -114l-270 -78l176 -215l-98 -70l-152 229l-151 -229l-98 70l174 215z" />
<glyph unicode="+" horiz-adv-x="1163" d="M162 557v115h360v372h119v-372h360v-115h-360v-375h-119v375h-360z" />
<glyph unicode="," horiz-adv-x="509" d="M127 -268q21 73 42 221t17 213q33 27 80 27q39 0 63.5 -24t24.5 -67q0 -48 -32 -147.5t-64 -174.5l-33 -75z" />
<glyph unicode="-" horiz-adv-x="876" d="M141 539v116h594v-116h-594z" />
<glyph unicode="." horiz-adv-x="518" d="M154 86q0 47 28 77t78 30t77.5 -30t27.5 -77q0 -49 -27.5 -79t-77.5 -30t-78 30t-28 79z" />
<glyph unicode="/" horiz-adv-x="856" d="M47 -231l615 1810h135l-613 -1810h-137z" />
<glyph unicode="0" horiz-adv-x="1280" d="M125 727q0 86 5.5 160t20.5 152.5t39 141t64 119t93 94.5t127.5 60.5t166.5 22.5t166.5 -22.5t127 -60.5t92.5 -95t64 -119t38.5 -140.5t20 -152.5t5.5 -160t-5.5 -160t-20 -152.5t-38.5 -140.5t-64 -119t-92.5 -95t-127 -60.5t-166.5 -22.5t-166.5 22.5t-127.5 60.5 t-93 94.5t-64 119t-39 141t-20.5 152.5t-5.5 160zM272 727q0 -53 1 -94t5.5 -94.5t12 -95t21 -88.5t32.5 -81.5t47 -68t63 -54.5t82.5 -34t104.5 -13t104.5 13t82.5 34t63 54.5t47 68t32.5 81.5t21 88.5t12 95t5.5 94.5t1 94t-1 94t-5.5 94.5t-12 95t-21 88.5t-32.5 81.5 t-47 68t-63 54.5t-82.5 34t-104.5 13t-104.5 -13t-82.5 -34t-63 -54.5t-47 -68t-32.5 -81.5t-21 -88.5t-12 -95t-5.5 -94.5t-1 -94z" />
<glyph unicode="1" horiz-adv-x="782" d="M63 1262l349 192h131v-1454h-146v1311l-280 -152z" />
<glyph unicode="2" horiz-adv-x="1128" d="M125 1346q6 5 18.5 14t53.5 31.5t86 40t116 31.5t144 14q110 0 196 -30.5t138.5 -85t79 -124.5t26.5 -152q0 -142 -77.5 -288.5t-237.5 -313.5l-344 -358h659v-125h-852v123l440 455q265 275 265 497q0 123 -75.5 199t-230.5 76q-92 0 -178.5 -28t-127.5 -56l-40 -27z " />
<glyph unicode="3" horiz-adv-x="1101" d="M84 51l35 117q17 -7 47.5 -17.5t121.5 -28.5t179 -18q172 0 269.5 78t97.5 232q0 301 -412 301l-115 -2v129q39 -4 139 -4q174 0 265.5 74.5t91.5 199.5q0 115 -80 176.5t-242 61.5q-88 0 -170.5 -17t-120.5 -34l-38 -17l-41 111q6 3 17 9t49 20.5t80 25.5t107 20t132 9 q226 0 337 -95.5t111 -261.5q0 -117 -57.5 -205t-184.5 -127q128 -41 202.5 -136t74.5 -246q0 -203 -132.5 -316t-373.5 -113q-98 0 -195.5 18.5t-145.5 36.5z" />
<glyph unicode="4" horiz-adv-x="1165" d="M72 506l643 948h145v-948h223v-127h-223v-379h-145v379h-641zM217 506h498v735z" />
<glyph unicode="5" horiz-adv-x="1118" d="M119 51l39 117q14 -7 40 -17.5t107 -28.5t162 -18q177 0 281 86t104 261t-104 260.5t-273 85.5q-178 0 -317 -74l43 731h721v-125h-586l-27 -434q102 27 201 27q218 0 353.5 -121t135.5 -346q0 -227 -141 -352.5t-383 -125.5q-96 0 -185 18.5t-130 36.5z" />
<glyph unicode="6" horiz-adv-x="1171" d="M125 674q0 129 15 240t53.5 217.5t98.5 180.5t157.5 119.5t224.5 45.5q79 0 157.5 -19t116.5 -38l39 -19l-43 -111q-13 7 -37 17t-91.5 26.5t-129.5 16.5q-94 0 -166 -32t-115.5 -81.5t-72 -122.5t-40 -142t-16.5 -153q163 101 351 101q211 0 324.5 -123.5t113.5 -337.5 q0 -215 -118.5 -348.5t-338.5 -133.5q-483 0 -483 697zM272 641q0 -37 0.5 -64.5t4 -73t10 -79.5t18.5 -78t29 -76t43.5 -65t59.5 -54t79 -34t100 -13q73 0 130 23.5t89.5 60t53.5 86t28 95t7 94.5q0 23 -1.5 45t-9 56.5t-20 64t-36.5 61t-56 53.5t-81 36t-110 14 q-177 0 -338 -113v-39z" />
<glyph unicode="7" horiz-adv-x="1017" d="M90 1329v125h834v-102l-521 -1352h-157l516 1329h-672z" />
<glyph unicode="8" horiz-adv-x="1218" d="M115 381q0 79 24 146.5t64.5 114.5t81.5 79t88 55q-209 120 -209 338q0 173 121.5 267t320.5 94q201 0 324 -95t123 -260q0 -67 -21.5 -127t-58.5 -104t-73.5 -74.5t-78.5 -54.5q132 -53 207.5 -141.5t75.5 -233.5q0 -191 -130.5 -299.5t-363.5 -108.5 q-234 0 -364.5 108.5t-130.5 295.5zM262 389q0 -98 47.5 -164t122.5 -94.5t174 -28.5q157 0 254.5 71t97.5 210q0 50 -13.5 90.5t-42 70t-59 50.5t-78 39.5t-85 30t-93.5 28.5t-91 29q-234 -115 -234 -332zM299 1116q0 -40 11 -74t26.5 -58.5t45.5 -47.5t54.5 -37.5 t67.5 -31.5t71 -26t78 -24l45 -14q220 125 220 315q0 122 -85 179t-223 57q-139 0 -225 -57t-86 -181z" />
<glyph unicode="9" horiz-adv-x="1169" d="M104 995q0 214 120 348t339 134q481 0 481 -697q0 -130 -14.5 -240.5t-52 -217t-97.5 -180.5t-157.5 -119.5t-224.5 -45.5q-80 0 -158 19t-116 38l-38 19l41 111q13 -7 37 -17t91.5 -26.5t129.5 -16.5q95 0 167 32t115 81t71.5 122t40 142t16.5 154q-155 -100 -348 -100 q-213 0 -328 123.5t-115 336.5zM248 991q0 -23 1.5 -45t9 -56.5t19.5 -63.5t35.5 -60.5t55.5 -53.5t81 -36t109 -14q183 0 340 110v41q0 50 -1 85.5t-8.5 96t-20 104t-38 94t-60.5 82.5t-90 53.5t-124 21.5q-74 0 -131 -23.5t-89.5 -60t-53.5 -86t-28 -95t-7 -94.5z" />
<glyph unicode=":" horiz-adv-x="565" d="M176 86q0 47 29 77t80 30q48 0 76 -30t28 -77q0 -48 -28 -78.5t-76 -30.5q-51 0 -80 30t-29 79zM176 961q0 48 28.5 77t80.5 29q49 0 76.5 -29t27.5 -77q0 -50 -27.5 -78.5t-76.5 -28.5q-52 0 -80.5 28.5t-28.5 78.5z" />
<glyph unicode=";" horiz-adv-x="563" d="M139 -268q20 65 40 199.5t20 211.5v23q33 27 82 27q39 0 63.5 -24t24.5 -67q0 -48 -32.5 -147.5t-64.5 -174.5l-32 -75zM176 961q0 48 28 77t79 29q49 0 76.5 -29t27.5 -77q0 -50 -27.5 -78.5t-76.5 -28.5q-52 0 -79.5 28.5t-27.5 78.5z" />
<glyph unicode="&#x3c;" horiz-adv-x="1263" d="M150 520v123l886 490l58 -113l-803 -440l803 -439l-58 -110z" />
<glyph unicode="=" horiz-adv-x="1120" d="M150 324v108h819v-108h-819zM150 762v110h819v-110h-819z" />
<glyph unicode="&#x3e;" horiz-adv-x="1263" d="M170 141l801 439l-801 440l57 113l885 -490v-123l-885 -489z" />
<glyph unicode="?" horiz-adv-x="989" d="M74 1393l15 9t44.5 20.5t73.5 25.5t102 20t131 9q222 0 327 -88.5t105 -241.5q0 -75 -23 -135t-60.5 -100t-82 -75t-89.5 -67.5t-82.5 -68t-60.5 -87.5t-23 -116q0 -19 2.5 -42t4.5 -36l3 -14h-148q-10 55 -10 108q0 74 23.5 135.5t60.5 104t82 80t90 70.5t82 67 t60.5 79.5t23.5 98.5q0 95 -72.5 148t-226.5 53q-88 0 -165 -18.5t-111 -37.5l-33 -18zM301 76q0 44 25 69t71 25q45 0 71 -25.5t26 -68.5q0 -45 -26 -72t-71 -27q-46 0 -71 27t-25 72z" />
<glyph unicode="@" horiz-adv-x="2150" d="M147 518q0 153 35.5 292t113 261.5t190 212t277 141.5t363.5 52q185 0 334.5 -44t249 -119t167 -178.5t97 -218t29.5 -241.5q0 -270 -126 -433t-329 -163q-169 0 -266 123q-157 -123 -324 -123q-137 0 -220 88t-83 274q0 80 15 158t51 154t88 133t133.5 92t181.5 35 q138 0 324 -64l-90 -651q70 -98 192 -98q61 0 116 27.5t101 82.5t73.5 148t27.5 213q0 68 -8 130.5t-30 132t-56.5 128.5t-92 113.5t-132 92.5t-181 60.5t-235.5 22.5q-176 0 -318.5 -43.5t-240.5 -119t-164 -181.5t-96.5 -228.5t-30.5 -261.5q0 -249 95 -438.5 t280.5 -296.5t437.5 -107q118 0 238.5 26t181.5 52l61 25l41 -113q-9 -5 -25.5 -12.5t-70 -27.5t-110.5 -35t-143 -27.5t-171 -12.5q-160 0 -297.5 36.5t-240.5 103t-182.5 156.5t-129.5 198.5t-75.5 227t-25.5 245.5zM784 455q0 -256 191 -256q123 0 252 96l82 577 q-106 27 -164 27q-76 0 -137.5 -24.5t-102.5 -66.5t-68.5 -99.5t-40 -120.5t-12.5 -133z" />
<glyph unicode="A" horiz-adv-x="1378" d="M68 0l520 1454h205l520 -1454h-154l-160 455h-620l-158 -455h-153zM424 584h530l-264 757z" />
<glyph unicode="B" horiz-adv-x="1306" d="M174 14v1426q247 37 444 37q262 0 394.5 -89t132.5 -284q0 -256 -238 -332q155 -39 226 -134.5t71 -248.5q0 -224 -142.5 -318t-438.5 -94q-102 0 -214 9.5t-173 18.5zM322 121q131 -15 292 -15q110 0 185 12t136 43t90.5 90.5t29.5 149.5q0 161 -98 231t-312 70h-323 v-581zM322 821h286q205 0 296 59.5t91 206.5q0 65 -19 112t-51 75.5t-83 45t-106 22.5t-130 6q-134 0 -284 -19v-508z" />
<glyph unicode="C" horiz-adv-x="1208" d="M117 727q0 121 18.5 225t64.5 203t118 168.5t186 111.5t260 42q91 0 177.5 -16t127.5 -32l41 -16l-41 -121q-13 6 -37 15.5t-101 25t-157 15.5q-510 0 -510 -621t510 -621q80 0 154 14t108 28l33 14l41 -121q-16 -7 -45 -17.5t-119.5 -28.5t-181.5 -18q-146 0 -260 42 t-186 111.5t-118 168.5t-64.5 203t-18.5 225z" />
<glyph unicode="D" horiz-adv-x="1382" d="M174 14v1426q207 37 416 37q160 0 280 -39t194.5 -104.5t120.5 -163.5t63.5 -203.5t17.5 -237.5q0 -94 -9 -174t-30.5 -158.5t-56 -140.5t-87.5 -115t-123 -88.5t-164.5 -55.5t-209.5 -20q-90 0 -193 9.5t-161 18.5zM322 125q133 -19 270 -19q60 0 110 5.5t106 22t99 44 t84 75t68 111.5t43 157t16 208q0 147 -26 256.5t-70.5 178.5t-113 110.5t-145 57.5t-175.5 16q-100 0 -266 -19v-1204z" />
<glyph unicode="E" horiz-adv-x="1206" d="M164 420v1034h915v-127h-768v-506h684v-127h-684v-276q0 -165 103 -238.5t307 -73.5q91 0 181 8.5t134 16.5l45 8v-127q-153 -35 -372 -35q-545 0 -545 443z" />
<glyph unicode="F" horiz-adv-x="1169" d="M174 0v1454h907v-127h-757v-541h673v-127h-673v-659h-150z" />
<glyph unicode="G" horiz-adv-x="1312" d="M117 725q0 122 19 228t66 204.5t119.5 167.5t186.5 110.5t260 41.5q97 0 193 -16t143 -32l47 -16l-37 -119q-15 6 -42 15t-112.5 24t-173.5 15q-522 0 -522 -625q0 -617 512 -617q97 0 238 29v623h143v-719q-15 -6 -61.5 -19t-142 -28t-183.5 -15q-148 0 -262.5 41.5 t-187 110.5t-119.5 167t-65.5 202.5t-18.5 226.5z" />
<glyph unicode="H" horiz-adv-x="1425" d="M174 0v1454h150v-639h780v639h147v-1454h-147v686h-780v-686h-150z" />
<glyph unicode="I" horiz-adv-x="516" d="M184 0v1454h148v-1454h-148z" />
<glyph unicode="J" horiz-adv-x="874" d="M106 33l37 119q9 -5 25 -12.5t70.5 -20.5t113.5 -13q103 0 157 60.5t54 175.5v1112h148v-1108q0 -186 -93 -277.5t-251 -91.5q-73 0 -138 14t-94 28z" />
<glyph unicode="K" horiz-adv-x="1259" d="M174 0v1454h150v-719l657 719h180l-674 -735l439 -467q63 -66 110 -97.5t103 -31.5q43 0 63 10v-121q-37 -16 -98 -16q-78 0 -149 43t-152 131l-479 514v-684h-150z" />
<glyph unicode="L" horiz-adv-x="1099" d="M164 397v1057h147v-1057q0 -160 102.5 -225.5t301.5 -65.5q86 0 160 10t105 20l32 9v-133q-113 -35 -314 -35q-272 0 -403 101.5t-131 318.5z" />
<glyph unicode="M" horiz-adv-x="1703" d="M115 0l123 1454h180l434 -1057l434 1057h180l123 -1454h-149l-90 1098l-4 155l-58 -155l-354 -858h-164l-356 858l-58 151l-2 -151l-92 -1098h-147z" />
<glyph unicode="N" horiz-adv-x="1433" d="M174 0v1454h195l751 -1253l-6 118v1135h146v-1454h-187l-762 1268l11 -119v-1149h-148z" />
<glyph unicode="O" d="M117 727q0 750 585 750q586 0 586 -750t-586 -750q-585 0 -585 750zM264 727q0 -65 3.5 -119.5t14.5 -120.5t30 -117.5t52 -102.5t78 -85t111.5 -55t148.5 -21t148.5 21t111.5 55t78.5 85t52.5 102.5t30 117.5t14.5 120.5t3.5 119.5t-3.5 119.5t-14.5 120.5t-30 117.5 t-52.5 102.5t-78.5 85t-111.5 55t-148.5 21t-148.5 -21t-111.5 -55t-78 -85t-52 -102.5t-30 -117.5t-14.5 -120.5t-3.5 -119.5z" />
<glyph unicode="P" horiz-adv-x="1273" d="M174 0v1440q9 2 72 10.5t177 17.5t210 9q269 0 407 -121.5t138 -354.5q0 -97 -32 -180.5t-96 -151t-171 -106.5t-246 -39q-209 0 -311 11v-535h-148zM322 659q69 -6 305 -6q192 0 297.5 92.5t105.5 255.5q0 173 -103 260t-292 87q-135 0 -313 -21v-668z" />
<glyph unicode="Q" d="M117 727q0 750 585 750q586 0 586 -750t-586 -750q-585 0 -585 750zM264 727q0 -65 3.5 -119.5t14.5 -120.5t30 -117.5t52 -102.5t78 -85t111.5 -55t148.5 -21t148.5 21t111.5 55t78.5 85t52.5 102.5t30 117.5t14.5 120.5t3.5 119.5t-3.5 119.5t-14.5 120.5t-30 117.5 t-52.5 102.5t-78.5 85t-111.5 55t-148.5 21t-148.5 -21t-111.5 -55t-78 -85t-52 -102.5t-30 -117.5t-14.5 -120.5t-3.5 -119.5zM633 -287l10 107l608 -49l-10 -121z" />
<glyph unicode="R" horiz-adv-x="1353" d="M174 0v1440q278 37 442 37q277 0 420.5 -104t143.5 -331q0 -168 -86 -271t-273 -140l219 -375q41 -71 77 -102t93 -31q14 0 26.5 1.5t17.5 3.5l6 1v-119q-29 -14 -84 -14q-65 0 -115.5 27t-84 68t-73.5 112l-233 409q-29 -2 -88 -2q-142 0 -260 8v-618h-148zM322 745 q3 0 98.5 -3t154.5 -3q244 0 350.5 65.5t106.5 233.5q0 75 -20 130t-55 89t-88.5 55t-113 28.5t-137.5 7.5q-145 0 -296 -21v-582z" />
<glyph unicode="S" horiz-adv-x="1208" d="M119 1090q0 88 30.5 156.5t79.5 111t117.5 70t138.5 38.5t148 11q104 0 203 -17.5t146 -35.5l48 -17l-39 -119q-15 7 -43.5 17t-118.5 26.5t-182 16.5q-179 0 -283 -62.5t-104 -189.5q0 -37 10.5 -68.5t25 -54.5t44 -44t53 -34t66.5 -28.5t71.5 -23.5t79.5 -22 q52 -14 86 -25t82.5 -28t81 -35t70.5 -43t62.5 -55t46 -67t32 -84t10.5 -101q0 -195 -140.5 -300.5t-391.5 -105.5q-109 0 -212 18t-151 36l-49 18l37 123q19 -7 52.5 -18t132.5 -29.5t194 -18.5q185 0 284 68.5t99 200.5q0 33 -7 62.5t-17.5 52.5t-30.5 44t-37.5 36 t-47 30.5t-51 25t-58.5 21.5t-59 19t-63 18q-57 15 -94.5 26.5t-89 31.5t-85 40.5t-70 51.5t-58 66.5t-35.5 84t-14 105.5z" />
<glyph unicode="T" horiz-adv-x="1259" d="M68 1323v131h1124v-131h-487v-1323h-148v1323h-489z" />
<glyph unicode="U" horiz-adv-x="1423" d="M164 561v893h147v-903q0 -115 24.5 -199t61 -130.5t92.5 -73.5t106.5 -34.5t115.5 -7.5q46 0 83.5 3.5t80 15t75.5 31t64.5 53t52 79.5t33 113t12.5 150v903h145v-893q0 -161 -35 -274t-106.5 -181t-170 -98.5t-234.5 -30.5q-135 0 -234 30.5t-170.5 98.5t-107 181 t-35.5 274z" />
<glyph unicode="V" horiz-adv-x="1351" d="M68 1454h153l449 -1348l460 1348h154l-510 -1454h-209z" />
<glyph unicode="W" horiz-adv-x="2000" d="M68 1454h153l326 -1202l28 -141l33 143l314 1135h155l316 -1137l28 -139l33 143l324 1198h155l-395 -1454h-215l-299 1055l-25 119l-24 -119l-299 -1055h-215z" />
<glyph unicode="X" horiz-adv-x="1312" d="M57 0l502 731l-500 723h168l426 -618l428 618h170l-499 -723l503 -731h-172l-428 616l-428 -616h-170z" />
<glyph unicode="Y" horiz-adv-x="1288" d="M55 1454h162l424 -727l430 727h162l-516 -854v-600h-148v600z" />
<glyph unicode="Z" horiz-adv-x="1202" d="M102 0v129l824 1196h-822v129h994v-131l-824 -1194h826v-129h-998z" />
<glyph unicode="[" horiz-adv-x="628" d="M176 -426v1982h422v-120h-283v-1741h283v-121h-422z" />
<glyph unicode="\" horiz-adv-x="856" d="M57 1579h138l612 -1810h-135z" />
<glyph unicode="]" horiz-adv-x="628" d="M33 -305h280v1741h-280v120h420v-1982h-420v121z" />
<glyph unicode="^" horiz-adv-x="1073" d="M96 897l375 659h133l373 -659l-109 -66l-331 594l-330 -594z" />
<glyph unicode="_" horiz-adv-x="972" d="M0 -23h973v-102h-973v102z" />
<glyph unicode="`" horiz-adv-x="651" d="M139 1511l76 95l289 -250l-62 -78z" />
<glyph unicode="a" horiz-adv-x="1142" d="M113 297q0 324 465 324q127 0 266 -25v164q0 144 -75.5 206t-229.5 62q-87 0 -168.5 -17t-119.5 -33l-38 -17l-31 118q166 76 371 76q218 0 327 -94.5t109 -300.5v-697q-7 -3 -20 -9t-56.5 -21t-91 -26t-121 -20.5t-147.5 -9.5q-440 0 -440 320zM260 295q0 -57 22 -97 t63.5 -61t91.5 -30t116 -9q72 0 144.5 10.5t109.5 20.5l37 10v340q-140 21 -258 21q-75 0 -129.5 -8.5t-101.5 -30.5t-71 -63.5t-24 -102.5z" />
<glyph unicode="b" horiz-adv-x="1208" d="M166 63v1493h145v-448q143 47 275 47q248 0 374.5 -140.5t126.5 -447.5q0 -308 -127 -449t-380 -141q-103 0 -206.5 21.5t-155.5 43.5zM311 145q120 -41 262 -41q202 0 285.5 111.5t83.5 351.5q0 239 -84 350t-285 111q-145 0 -262 -45v-838z" />
<glyph unicode="c" horiz-adv-x="1024" d="M121 567q0 105 15 190.5t52 161t94 126.5t145 80.5t202 29.5q78 0 147 -12.5t99 -24.5l30 -12l-33 -117q-104 39 -237 39q-71 0 -128 -16t-95 -41.5t-66 -65t-43 -77.5t-23.5 -87.5t-11 -87t-2.5 -84.5q0 -51 2.5 -91.5t12 -90.5t25 -88.5t43.5 -76.5t66.5 -62.5t95 -40 t126.5 -15.5q58 0 115 9.5t84.5 18t35.5 13.5l33 -118q-11 -6 -33 -14t-94 -22t-149 -14q-114 0 -202 29.5t-145 81t-94 127t-52 161.5t-15 191z" />
<glyph unicode="d" horiz-adv-x="1208" d="M121 567q0 307 126.5 447.5t373.5 140.5q135 0 274 -47v448h147v-1493l-21 -9t-58 -21t-89.5 -26t-113.5 -20.5t-133 -9.5q-252 0 -379 141t-127 449zM266 567q0 -240 83.5 -351.5t283.5 -111.5q147 0 262 41v838q-113 45 -262 45q-201 0 -284 -110.5t-83 -350.5z" />
<glyph unicode="e" horiz-adv-x="1144" d="M121 567q0 128 25.5 231t79 185t146.5 127t220 45q96 0 171.5 -23.5t124 -64t80.5 -98t45 -121.5t13 -139q0 -76 -16 -164h-744q0 -44 3 -81t12 -83.5t25 -84t44 -74.5t65.5 -62t94 -40.5t125.5 -15.5q86 0 164 15t113 30l36 15l23 -121q-15 -7 -43 -18t-118 -29.5 t-185 -18.5q-504 0 -504 590zM268 664h613q2 20 2 61q0 50 -6 90t-25 81.5t-50 69.5t-84.5 46t-125.5 18q-298 0 -324 -366z" />
<glyph unicode="f" horiz-adv-x="856" d="M78 1012v121h190v108q0 348 332 348q60 0 110 -8.5t64 -15.5l-24 -119q-56 16 -136 16q-103 0 -151.5 -49t-48.5 -168v-112h327v-121h-327v-1012h-146v1012h-190z" />
<glyph unicode="g" horiz-adv-x="1208" d="M121 565q0 308 127 449t379 141q104 0 207.5 -21.5t155.5 -43.5l52 -21v-997q0 -118 -23.5 -208.5t-77.5 -163t-152.5 -111t-237.5 -38.5q-86 0 -166 14.5t-117 28.5l-37 15l31 123q12 -6 35 -15t95.5 -24t148.5 -15q73 0 130 13t94.5 38t64 55.5t41 72.5t20.5 81.5 t8 88.5q-119 -45 -278 -45q-247 0 -373.5 139t-126.5 444zM266 565q0 -239 83 -347.5t284 -108.5q142 0 262 41v833q-113 45 -262 45q-200 0 -283.5 -111.5t-83.5 -351.5z" />
<glyph unicode="h" horiz-adv-x="1239" d="M166 0v1556h145v-446q158 45 295 45q245 0 361 -104t116 -351v-700h-145v707q0 85 -20 145.5t-49.5 94t-77.5 52.5t-90 24t-101 5q-78 0 -150.5 -11t-105.5 -21l-33 -11v-985h-145z" />
<glyph unicode="i" horiz-adv-x="477" d="M139 1425q0 43 27 69t74 26q44 0 71 -26t27 -69q0 -45 -26.5 -71.5t-71.5 -26.5q-47 0 -74 26t-27 72zM166 0v1133h145v-1133h-145z" />
<glyph unicode="j" horiz-adv-x="497" d="M-158 -418l25 115q51 -21 133 -21q100 0 143 62t43 176v1219h148v-1211q0 -79 -18.5 -144t-56 -117t-101 -81t-148.5 -29q-46 0 -88 7.5t-61 15.5zM160 1425q0 43 26.5 69t73.5 26q44 0 71 -26t27 -69q0 -45 -26.5 -71.5t-71.5 -26.5q-47 0 -73.5 26t-26.5 72z" />
<glyph unicode="k" horiz-adv-x="1118" d="M166 0v1556h145v-956l529 533h182l-545 -547l314 -348q35 -39 58 -60t57.5 -39t70.5 -18q15 0 31.5 2.5t25.5 4.5l10 3v-119q-35 -16 -94 -16q-137 0 -282 160l-357 405v-561h-145z" />
<glyph unicode="l" horiz-adv-x="477" d="M166 0v1556h145v-1556h-145z" />
<glyph unicode="m" horiz-adv-x="1978" d="M166 0v1069q7 3 20.5 9t59 21t93.5 26t122.5 20.5t148.5 9.5q235 0 344 -100q200 100 416 100q229 0 342 -108.5t113 -348.5v-698h-148v705q0 84 -20 145t-49.5 94.5t-74 53t-82.5 25t-85 5.5q-160 0 -340 -82q41 -100 41 -246v-700h-145v707q0 84 -18.5 145t-46 94 t-71.5 52.5t-83 24.5t-93 5q-84 0 -159 -11t-107 -21l-33 -11v-985h-145z" />
<glyph unicode="n" horiz-adv-x="1239" d="M166 0v1069l21 9t59.5 21t93.5 26t119.5 20.5t142.5 9.5q249 0 365 -104t116 -351v-700h-145v707q0 85 -20 145.5t-49.5 94t-77.5 52.5t-90 24t-101 5q-78 0 -150.5 -11t-105.5 -21l-33 -11v-985h-145z" />
<glyph unicode="o" horiz-adv-x="1210" d="M121 565q0 103 14 188.5t49 161.5t89 128t138.5 82t194.5 30q486 0 486 -590q0 -588 -486 -588q-110 0 -194.5 30t-138.5 81.5t-89 127.5t-49 161t-14 188zM266 565q0 -47 2 -83.5t10 -87t21.5 -88t39 -77.5t60.5 -66t88 -42.5t119 -16.5t118.5 16.5t87.5 42.5t60 66 t38.5 78t21.5 88t10 86.5t2 83.5q0 40 -1.5 72.5t-6.5 76t-15.5 78t-26.5 72.5t-42 66t-59.5 51t-81 35t-105.5 12q-66 0 -119 -16.5t-88 -42.5t-60.5 -66.5t-39 -78.5t-21.5 -88t-10 -87t-2 -84z" />
<glyph unicode="p" horiz-adv-x="1208" d="M166 -426v1495q21 10 57.5 24t145 38t211.5 24q253 0 380 -141t127 -449q0 -307 -126.5 -447.5t-374.5 -140.5q-129 0 -275 48v-451h-145zM311 147q112 -43 262 -43q201 0 285 111t84 350q0 240 -83.5 351.5t-285.5 111.5q-142 0 -262 -41v-840z" />
<glyph unicode="q" horiz-adv-x="1208" d="M121 565q0 308 127 449t379 141q104 0 207.5 -21.5t155.5 -43.5l52 -21v-1495h-147v451q-142 -48 -274 -48q-247 0 -373.5 140.5t-126.5 447.5zM266 565q0 -240 83 -350.5t284 -110.5q155 0 262 43v840q-115 41 -262 41q-200 0 -283.5 -111.5t-83.5 -351.5z" />
<glyph unicode="r" horiz-adv-x="731" d="M166 0v1067q61 35 157 56.5t205 21.5q57 0 117 -8l-10 -125q-37 4 -100 4q-137 0 -224 -35v-981h-145z" />
<glyph unicode="s" horiz-adv-x="1007" d="M111 852q0 86 37.5 148t102 94t136.5 46.5t156 14.5q76 0 152 -10.5t115 -21.5l38 -11l-27 -121q-116 37 -270 37q-142 0 -219.5 -44t-77.5 -130q0 -36 15 -65t37 -48.5t63 -38t75 -30t91 -27.5q45 -13 75.5 -23t73 -27.5t70.5 -35t58.5 -44.5t48.5 -57.5t30 -72 t12 -90.5q0 -160 -115.5 -239t-318.5 -79q-84 0 -167.5 13t-125.5 26l-41 13l25 123q15 -5 42 -13t106.5 -21.5t154.5 -13.5q299 0 299 187q0 39 -14.5 70t-37 52.5t-62 41t-75 31.5t-90.5 28q-48 14 -79 24.5t-74.5 28t-71 34.5t-58.5 43t-48.5 55t-29 68t-11.5 85z" />
<glyph unicode="t" horiz-adv-x="876" d="M78 1012v121h158v301l147 26v-327h371v-121h-371v-643q0 -133 45 -199t158 -66q42 0 86 8.5t67 16.5l23 8l20 -121q-82 -39 -207 -39q-163 0 -251 92t-88 302v641h-158z" />
<glyph unicode="u" horiz-adv-x="1230" d="M154 432v701h147v-707q0 -85 20 -146t50 -94.5t77.5 -52.5t90 -24t100.5 -5q77 0 149.5 11t105.5 21l34 11v986h145v-1070l-21 -9t-59.5 -21t-93.5 -26t-120.5 -20.5t-143.5 -9.5q-247 0 -364 104t-117 351z" />
<glyph unicode="v" horiz-adv-x="1122" d="M53 1133h150l358 -1027l361 1027h147l-401 -1133h-213z" />
<glyph unicode="w" horiz-adv-x="1697" d="M53 1133h150l286 -1014l287 1014h148l286 -1014l287 1014h148l-328 -1133h-207l-229 786l-31 140l-33 -140l-227 -786h-207z" />
<glyph unicode="x" horiz-adv-x="1038" d="M55 0l375 565l-375 568h164l299 -459l301 459h164l-375 -568l375 -565h-164l-301 457l-299 -457h-164z" />
<glyph unicode="y" horiz-adv-x="1230" d="M154 432v701h147v-707q0 -84 20.5 -144.5t50 -93t77 -51.5t88 -23.5t96.5 -4.5q86 0 159.5 10.5t104.5 21.5l31 11v981h145v-1061q0 -119 -23 -209t-76.5 -162.5t-151.5 -111t-238 -38.5q-86 0 -166 14.5t-117 28.5l-37 15l29 123q12 -6 34.5 -15t95 -24t148.5 -15 q87 0 151.5 19t103 49.5t62.5 77t33 92t11 104.5q-133 -38 -297 -38q-243 0 -362 103.5t-119 346.5z" />
<glyph unicode="z" horiz-adv-x="1026" d="M113 0v123l614 887h-600v123h768v-138l-606 -872h624v-123h-800z" />
<glyph unicode="{" horiz-adv-x="718" d="M133 500v129q84 0 115 36t31 113v545q0 105 61 169t184 64h138v-118h-117q-76 0 -101.5 -35t-25.5 -98v-539q0 -160 -107 -203q107 -43 107 -201v-538q0 -63 25.5 -98t101.5 -35h117v-119h-138q-123 0 -184 64t-61 169v545q0 77 -31.5 114t-114.5 36z" />
<glyph unicode="|" horiz-adv-x="593" d="M233 -426v1982h127v-1982h-127z" />
<glyph unicode="}" horiz-adv-x="733" d="M57 -309h119q75 0 101 35.5t26 97.5v538q0 159 105 201q-105 42 -105 203v539q0 62 -26 97.5t-101 35.5h-119v118h138q124 0 184.5 -64t60.5 -169v-545q0 -77 31 -113t115 -36v-129q-83 1 -114.5 -36t-31.5 -114v-545q0 -105 -60.5 -169t-184.5 -64h-138v119z" />
<glyph unicode="~" horiz-adv-x="972" d="M88 526q1 9 4.5 23.5t20 52.5t39 67t65.5 52.5t96 23.5q47 0 97 -21.5t85.5 -47t79 -47t78.5 -21.5q31 0 56.5 14t40 34t24.5 40.5t14 34.5l3 14l94 -32q-2 -9 -5.5 -23.5t-20 -52.5t-39.5 -67t-65.5 -52.5t-95.5 -23.5q-45 0 -95 21.5t-86.5 47t-80.5 47t-78 21.5 q-32 0 -58 -14t-40 -34.5t-24 -40.5t-13 -34l-4 -14z" />
<glyph unicode="&#xa1;" horiz-adv-x="507" d="M158 1057q0 45 25.5 71.5t70.5 26.5q46 0 71 -26.5t25 -71.5q0 -44 -25 -69t-71 -25q-45 0 -70.5 25.5t-25.5 68.5zM174 -362l21 1136h120l21 -1136h-162z" />
<glyph unicode="&#xa2;" horiz-adv-x="1013" d="M117 731q0 112 22 204.5t68 168t123.5 124t181.5 64.5v185h127v-177q74 -2 138 -15t91 -25l27 -13l-33 -121q-9 5 -33 14t-78 19.5t-112 11.5v-882q58 0 112.5 11.5t77.5 20.5t33 15l33 -121q-10 -5 -29.5 -13.5t-86 -23t-140.5 -16.5v-185h-127v191 q-138 22 -228.5 102.5t-128.5 195.5t-38 265zM262 733q0 -367 250 -430v854q-250 -66 -250 -424z" />
<glyph unicode="&#xa3;" horiz-adv-x="1132" d="M123 647v111h156q-54 208 -54 319q0 85 24 156t73 126.5t130.5 86.5t188.5 31q62 0 119 -8.5t94 -21t65 -25t41 -20.5l13 -9l-60 -109q-11 7 -32.5 18t-91.5 29.5t-144 18.5q-145 0 -211.5 -75t-66.5 -206q0 -28 3 -57.5t9.5 -65t11.5 -58.5t16 -67t15 -63h459v-111h-437 q15 -88 15 -145q0 -213 -156 -379h701v-123h-861v125q179 155 179 362q0 59 -19 160h-180z" />
<glyph unicode="&#xa4;" horiz-adv-x="1155" d="M129 467l143 143q-73 94 -73 240q0 140 71 235l-139 140l68 69l139 -143q100 78 242 78q133 0 237 -74l139 139l68 -69l-139 -138q78 -100 78 -237q0 -140 -80 -244l143 -139l-68 -70l-145 146q-95 -70 -233 -70q-145 0 -238 72l-145 -148zM307 850q0 -120 78 -196 t195 -76t194.5 76t77.5 196q0 118 -78 196t-194 78t-194.5 -78t-78.5 -196z" />
<glyph unicode="&#xa5;" horiz-adv-x="1177" d="M57 1454h158l373 -688l375 688h155l-420 -745h301v-105h-337v-211h337v-104h-337v-289h-148v289h-336v104h336v211h-336v105h299z" />
<glyph unicode="&#xa6;" horiz-adv-x="593" d="M233 414h127v-838h-127v838zM233 719v837h127v-837h-127z" />
<glyph unicode="&#xa7;" horiz-adv-x="1181" d="M143 647q0 191 146 283q-144 99 -144 282q0 80 26.5 143t72 104.5t109 69t133 39t149.5 11.5q102 0 192 -13.5t129 -26.5l39 -13l-39 -117q-12 5 -35 13t-103.5 21t-170.5 13q-177 0 -268.5 -60.5t-91.5 -178.5q0 -49 21 -90.5t52 -70t83 -55t95.5 -43.5t108.5 -40 q10 -3 15 -5q47 -17 80.5 -30.5t76 -35t71 -43t59 -53.5t48.5 -67.5t29.5 -83t11.5 -102.5q0 -187 -127 -279q125 -106 125 -285q0 -184 -127.5 -283.5t-371.5 -99.5q-101 0 -194 15t-136 30l-43 15l35 121q14 -6 40.5 -16t112.5 -26t178 -16q183 0 274 65.5t91 186.5 q0 41 -10.5 76.5t-26 62t-43.5 51t-52.5 40.5t-65.5 34.5t-69 29t-75 26.5q-164 56 -232 95q-154 90 -175 250q-3 27 -3 56zM281 666q0 -47 16 -86t39.5 -65.5t64.5 -51.5t76.5 -40.5t89.5 -35.5q19 -7 73.5 -28t92.5 -36.5t72 -33.5q96 63 96 194q0 52 -17 95.5t-42.5 73.5 t-68.5 57t-81 44.5t-94 37.5q-24 9 -90.5 33.5t-101.5 39.5q-125 -61 -125 -198z" />
<glyph unicode="&#xa8;" horiz-adv-x="880" d="M154 1430q0 39 23 61t65 22q40 0 63 -22.5t23 -60.5q0 -40 -23.5 -64.5t-62.5 -24.5q-42 0 -65 24t-23 65zM553 1430q0 39 23 61t65 22q39 0 61.5 -22.5t22.5 -60.5q0 -40 -22.5 -64.5t-61.5 -24.5q-42 0 -65 24t-23 65z" />
<glyph unicode="&#xa9;" horiz-adv-x="1753" d="M129 727q0 153 59 292t159 239.5t238.5 159.5t291.5 59t292 -59t239 -159.5t159 -239.5t59 -292t-59 -292t-159 -239.5t-239 -159.5t-292 -59t-291.5 59t-238.5 159.5t-159 239.5t-59 292zM238 727q0 -134 49.5 -252.5t134 -203t203 -134t252.5 -49.5q133 0 251.5 49.5 t204 134t135.5 203.5t50 252t-50 251.5t-135 203.5t-204 134.5t-252 49.5q-134 0 -252.5 -49.5t-203 -134.5t-134 -203.5t-49.5 -251.5zM492 725q0 193 99 313.5t296 120.5q53 0 108 -9.5t84 -18.5l29 -9l-23 -92q-96 31 -192 31q-71 0 -125 -22.5t-84.5 -56t-49 -80.5 t-24.5 -88.5t-6 -88.5q0 -39 4.5 -74t15 -75t32 -71.5t52 -58t78 -41t107.5 -14.5q43 0 91 7.5t74 15.5l27 8l23 -90q-102 -39 -223 -39q-100 0 -176.5 33.5t-123 93.5t-70 137t-23.5 168z" />
<glyph unicode="&#xaa;" horiz-adv-x="794" d="M68 889q0 64 25.5 111t71 74t102 39.5t126.5 12.5q73 0 187 -12v86q0 101 -49.5 139.5t-159.5 38.5q-58 0 -117 -12t-89 -24l-30 -11l-20 92q42 22 114 38t154 16q154 0 233.5 -66.5t79.5 -210.5v-481q-39 -23 -127 -45.5t-188 -22.5q-141 0 -227 58.5t-86 179.5z M106 444v91h584v-91h-584zM184 889q0 -80 51 -112t148 -32q117 0 197 33v242q-85 12 -185 12q-103 0 -157 -31.5t-54 -111.5z" />
<glyph unicode="&#xab;" horiz-adv-x="1214" d="M147 575l340 437l97 -72l-279 -365l279 -364l-97 -72zM610 575l340 437l97 -72l-279 -365l279 -364l-97 -72z" />
<glyph unicode="&#xac;" horiz-adv-x="1058" d="M119 643v113h803v-455h-113v342h-690z" />
<glyph unicode="&#xad;" horiz-adv-x="874" d="M141 539v116h594v-116h-594z" />
<glyph unicode="&#xae;" horiz-adv-x="1069" d="M102 1044q0 88 34 168t92 138t138.5 92.5t168.5 34.5q118 0 217.5 -58t157 -158t57.5 -217q0 -180 -126 -307t-306 -127t-306.5 127t-126.5 307zM197 1044q0 -145 96.5 -242t241.5 -97q143 0 241 97.5t98 241.5q0 141 -98.5 239.5t-240.5 98.5q-144 0 -241 -98t-97 -240z M362 821v439q76 14 164 14q185 0 185 -133q0 -96 -101 -127l70 -105q17 -26 39 -26l14 2v-60q-14 -8 -39 -8q-56 0 -92 57l-82 130q-49 0 -69 2v-185h-89zM451 1073q3 0 22.5 -1t36.5 -1q59 0 87 12.5t28 55.5q0 39 -21 54t-76 15q-23 0 -50 -2l-27 -2v-131z" />
<glyph unicode="&#xaf;" horiz-adv-x="806" d="M135 1348v106h537v-106h-537z" />
<glyph unicode="&#xb0;" horiz-adv-x="724" d="M98 1214q0 114 73.5 188.5t190.5 74.5q119 0 193 -74.5t74 -188.5q0 -115 -74 -187.5t-193 -72.5q-118 0 -191 72.5t-73 187.5zM203 1214q0 -71 45 -114t114 -43q70 0 115 43t45 114q0 69 -45.5 114.5t-114.5 45.5q-68 0 -113.5 -45.5t-45.5 -114.5z" />
<glyph unicode="&#xb1;" horiz-adv-x="1140" d="M150 680v115h360v372h119v-372h360v-115h-360v-375h-119v375h-360zM160 0v115h819v-115h-819z" />
<glyph unicode="&#xb2;" horiz-adv-x="753" d="M115 1491q4 3 12 8.5t33.5 19.5t53.5 24.5t70 19t85 8.5q128 0 199 -71.5t71 -180.5q0 -156 -180 -336l-189 -186h369v-97h-518v95l252 256q87 88 121 149t34 117q0 73 -44.5 115.5t-131.5 42.5q-101 0 -194 -62z" />
<glyph unicode="&#xb3;" horiz-adv-x="768" d="M115 735l24 88q88 -41 205 -41q96 0 147.5 36.5t51.5 127.5q0 92 -56.5 128t-164.5 36h-20t-20 -0.5t-16.5 -1t-12.5 -0.5h-5v92h80q95 0 146.5 39.5t51.5 110.5q0 62 -38.5 93.5t-125.5 31.5q-123 0 -204 -45l-35 81q4 2 11 6.5t31.5 14.5t51 18t68.5 14.5t86 6.5 q139 0 202.5 -58.5t63.5 -152.5q0 -149 -152 -197q78 -20 125 -75t47 -148q0 -126 -85.5 -190t-225.5 -64q-62 0 -119.5 12t-84.5 24z" />
<glyph unicode="&#xb4;" horiz-adv-x="651" d="M147 1356l289 250l78 -93l-305 -235z" />
<glyph unicode="&#xb5;" horiz-adv-x="1230" d="M154 -426v1559h147v-707q0 -85 20 -146t50 -94.5t77.5 -52.5t90 -24t100.5 -5q77 0 149.5 11t105.5 21l34 11v986h145v-1070l-21 -9t-59.5 -21t-93.5 -26t-120.5 -20.5t-143.5 -9.5q-134 0 -214 29t-120 98v-530h-147z" />
<glyph unicode="&#xb6;" horiz-adv-x="1017" d="M98 1090q0 190 113 288.5t354 98.5q76 0 142.5 -8.5t94.5 -17.5l29 -9v-1182q0 -47 -6 -90t-25 -91.5t-48.5 -83.5t-82 -58t-120.5 -23q-26 0 -72 4v123q10 -2 49 -2q33 0 58.5 7.5t52.5 29t42 68.5t15 116v1100h-131v-664h-86q-185 0 -282 107.5t-97 286.5z" />
<glyph unicode="&#xb7;" horiz-adv-x="538" d="M164 614q0 49 27.5 78t78.5 29q50 0 77.5 -29.5t27.5 -77.5t-27.5 -77t-77.5 -29q-51 0 -78.5 28.5t-27.5 77.5z" />
<glyph unicode="&#xb8;" horiz-adv-x="694" d="M137 -406l21 89q74 -37 153 -37q127 0 127 84q0 86 -129 86q-76 0 -127 -19l60 240h106l-39 -158q36 4 56 4q83 0 136.5 -38.5t53.5 -120.5q0 -77 -56 -125t-173 -48q-53 0 -100 10.5t-68 21.5z" />
<glyph unicode="&#xb9;" horiz-adv-x="583" d="M92 1444l199 112h100v-856h-108v756l-150 -86z" />
<glyph unicode="&#xba;" horiz-adv-x="833" d="M68 1065q0 69 11 128t36.5 112t64.5 90.5t99.5 59.5t136.5 22q96 0 165.5 -32.5t108 -91.5t56.5 -130t18 -158t-18 -158.5t-56.5 -130.5t-108 -92t-165.5 -33q-95 0 -164.5 33t-108.5 92t-57 130.5t-18 158.5zM125 444v91h582v-91h-582zM186 1065q0 -32 1.5 -58.5t7 -60 t15.5 -60t27 -53t41 -44t59 -28.5t79 -11q62 0 106.5 21.5t67.5 51.5t36 76.5t16 82t3 83.5q0 32 -1.5 57.5t-6.5 59.5t-14 59.5t-26.5 52.5t-41 44.5t-59 28.5t-80.5 11q-51 0 -90 -14t-63.5 -39.5t-40.5 -54.5t-23.5 -68t-10 -69.5t-2.5 -67.5z" />
<glyph unicode="&#xbb;" horiz-adv-x="1214" d="M168 211l276 364l-276 365l96 72l340 -437l-340 -436zM631 211l274 364l-274 365l94 72l342 -437l-342 -436z" />
<glyph unicode="&#xbc;" horiz-adv-x="1781" d="M117 1341l196 113h101v-856h-107v756l-151 -86zM520 14l625 1463l88 -37l-625 -1463zM1083 303l367 553h106v-553h117v-96h-117v-207h-108v207h-363zM1190 303h258v387z" />
<glyph unicode="&#xbd;" horiz-adv-x="1863" d="M117 1341l196 113h101v-856h-107v756l-151 -86zM518 14l623 1463l90 -37l-625 -1463zM1225 788q4 3 11.5 8.5t33 20t53 25t70 19.5t86.5 9q127 0 197.5 -70t70.5 -179q0 -161 -180 -338l-189 -187h369v-96h-518v94l254 256q88 88 120.5 150t32.5 118q0 74 -43.5 115 t-128.5 41q-104 0 -198 -63z" />
<glyph unicode="&#xbe;" horiz-adv-x="1867" d="M117 629l24 88q86 -39 205 -39q94 0 145.5 36t51.5 126q0 94 -56 129t-165 35q-14 0 -31.5 -1t-30.5 -1l-12 -1v93h80q96 0 147 39.5t51 111.5q0 62 -38.5 92.5t-125.5 30.5q-72 0 -127.5 -15.5t-76.5 -29.5l-33 84q10 6 29.5 15.5t84 25.5t134.5 16q137 0 201.5 -58 t64.5 -151q0 -151 -152 -196q78 -20 125 -75t47 -148q0 -128 -86 -191t-227 -63q-61 0 -118 12t-84 24zM616 14l625 1463l90 -37l-624 -1463zM1161 303l367 553h106v-553h117v-96h-117v-207h-108v207h-363zM1266 303h260v387z" />
<glyph unicode="&#xbf;" horiz-adv-x="868" d="M82 -14q0 75 23.5 135t60.5 100t82 75t90 67.5t82 68t60.5 87.5t23.5 116q0 20 -2.5 43t-5.5 36l-2 13h145q12 -46 12 -109q0 -74 -23.5 -135.5t-60.5 -104t-82 -79.5t-90 -70t-82 -67t-60.5 -79.5t-23.5 -98.5q0 -95 72.5 -148t226.5 -53q87 0 164.5 18.5t111.5 36.5 l34 19l43 -117l-15 -9t-45 -20.5t-74.5 -25.5t-103 -20t-131.5 -9q-220 0 -325 88.5t-105 241.5zM461 1057q0 45 25.5 71.5t70.5 26.5q46 0 71 -26.5t25 -71.5q0 -44 -25 -69t-71 -25q-45 0 -70.5 25.5t-25.5 68.5z" />
<glyph unicode="&#xc0;" horiz-adv-x="1378" d="M68 0l520 1454h205l520 -1454h-154l-160 455h-620l-158 -455h-153zM424 584h530l-264 757zM455 1778l75 92l289 -250l-61 -78z" />
<glyph unicode="&#xc1;" horiz-adv-x="1378" d="M68 0l520 1454h205l520 -1454h-154l-160 455h-620l-158 -455h-153zM424 584h530l-264 757zM573 1620l291 250l74 -92l-301 -236z" />
<glyph unicode="&#xc2;" horiz-adv-x="1378" d="M68 0l520 1454h205l520 -1454h-154l-160 455h-620l-158 -455h-153zM410 1614l280 250l279 -250l-64 -72l-215 176l-217 -176zM424 584h530l-264 757z" />
<glyph unicode="&#xc3;" horiz-adv-x="1378" d="M68 0l520 1454h205l520 -1454h-154l-160 455h-620l-158 -455h-153zM395 1653q1 7 3.5 18t15.5 39.5t30 50.5t50.5 40t74.5 18q37 0 72.5 -16t58.5 -34.5t51.5 -34.5t53.5 -16q21 0 39 10.5t28 25t17 29.5t9 25l3 11l82 -43q-1 -7 -4 -18t-15.5 -40t-30 -51.5t-50.5 -40.5 t-74 -18q-46 0 -88.5 25t-79 50t-68.5 25q-34 0 -58 -25t-31 -50l-7 -25zM424 584h530l-264 757z" />
<glyph unicode="&#xc4;" horiz-adv-x="1378" d="M68 0l520 1454h205l520 -1454h-154l-160 455h-620l-158 -455h-153zM406 1712q0 38 21.5 61t61.5 23t63 -23t23 -61q0 -40 -22.5 -64t-63.5 -24q-40 0 -61.5 23.5t-21.5 64.5zM424 584h530l-264 757zM803 1712q0 38 23 61t63 23t63 -23t23 -61q0 -40 -22.5 -64t-63.5 -24 t-63.5 24t-22.5 64z" />
<glyph unicode="&#xc5;" horiz-adv-x="1378" d="M68 0l520 1454h205l520 -1454h-154l-160 455h-620l-158 -455h-153zM424 584h530l-264 757zM485 1759q0 89 57 141t148 52q90 0 146.5 -52t56.5 -141t-56.5 -138.5t-146.5 -49.5q-92 0 -148.5 49.5t-56.5 138.5zM584 1759q0 -51 28 -78.5t78 -27.5t78.5 27.5t28.5 78.5 q0 52 -28.5 81.5t-78.5 29.5t-78 -29.5t-28 -81.5z" />
<glyph unicode="&#xc6;" horiz-adv-x="1978" d="M68 0l778 1454h1005v-127h-768v-506h684v-127h-684v-276q0 -165 103 -238.5t307 -73.5q91 0 180.5 8.5t133.5 16.5l44 8v-127q-153 -35 -372 -35q-543 0 -543 443v37h-473l-240 -457h-155zM528 584h408v772z" />
<glyph unicode="&#xc7;" horiz-adv-x="1208" d="M117 727q0 121 18.5 225t64.5 203t118 168.5t186 111.5t260 42q91 0 177.5 -16t127.5 -32l41 -16l-41 -121q-13 6 -37 15.5t-101 25t-157 15.5q-510 0 -510 -621t510 -621q80 0 154 14t108 28l33 14l41 -121q-16 -7 -45 -17.5t-119 -28.5t-180 -18l-25 -98q36 4 56 4 q83 0 137.5 -38.5t54.5 -120.5q0 -77 -57 -125t-172 -48q-54 0 -101.5 10.5t-68.5 21.5l-21 11l23 89q75 -37 151 -37q127 0 127 84q0 86 -129 86q-76 0 -127 -19l45 187q-122 14 -217 62t-155.5 117.5t-99.5 163t-54.5 191t-15.5 209.5z" />
<glyph unicode="&#xc8;" horiz-adv-x="1206" d="M164 420v1034h915v-127h-768v-506h684v-127h-684v-276q0 -165 103 -238.5t307 -73.5q91 0 181 8.5t134 16.5l45 8v-127q-153 -35 -372 -35q-545 0 -545 443zM379 1778l76 92l286 -250l-59 -78z" />
<glyph unicode="&#xc9;" horiz-adv-x="1206" d="M164 420v1034h915v-127h-768v-506h684v-127h-684v-276q0 -165 103 -238.5t307 -73.5q91 0 181 8.5t134 16.5l45 8v-127q-153 -35 -372 -35q-545 0 -545 443zM559 1620l287 250l76 -92l-304 -236z" />
<glyph unicode="&#xca;" horiz-adv-x="1206" d="M164 420v1034h915v-127h-768v-506h684v-127h-684v-276q0 -165 103 -238.5t307 -73.5q91 0 181 8.5t134 16.5l45 8v-127q-153 -35 -372 -35q-545 0 -545 443zM358 1614l279 250l281 -250l-62 -72l-219 176l-215 -176z" />
<glyph unicode="&#xcb;" horiz-adv-x="1204" d="M164 420v1034h915v-127h-768v-506h684v-127h-684v-276q0 -165 103 -238.5t307 -73.5q91 0 181 8.5t134 16.5l45 8v-127q-153 -35 -372 -35q-545 0 -545 443zM352 1712q0 38 23 61t63 23q39 0 62.5 -23.5t23.5 -60.5q0 -40 -23 -64t-63 -24q-41 0 -63.5 24t-22.5 64z M750 1712q0 37 23.5 60.5t62.5 23.5q41 0 64.5 -23.5t23.5 -60.5q0 -40 -23.5 -64t-64.5 -24q-40 0 -63 24t-23 64z" />
<glyph unicode="&#xcc;" horiz-adv-x="516" d="M8 1778l76 92l289 -250l-64 -78zM184 0v1454h148v-1454h-148z" />
<glyph unicode="&#xcd;" horiz-adv-x="516" d="M164 1620l287 250l75 -92l-303 -236zM184 0v1454h148v-1454h-148z" />
<glyph unicode="&#xce;" horiz-adv-x="516" d="M-20 1614l278 250l279 -250l-62 -72l-217 176l-217 -176zM184 0v1454h148v-1454h-148z" />
<glyph unicode="&#xcf;" horiz-adv-x="516" d="M-27 1712q0 38 23 61t63 23t63 -23t23 -61q0 -40 -22.5 -64t-63.5 -24t-63.5 24t-22.5 64zM184 0v1454h148v-1454h-148zM373 1712q0 38 22 61t64 23q39 0 61.5 -23.5t22.5 -60.5q0 -40 -22.5 -64t-61.5 -24q-42 0 -64 23.5t-22 64.5z" />
<glyph unicode="&#xd0;" horiz-adv-x="1382" d="M49 684v121h125v635q207 37 416 37q160 0 280 -39t194.5 -104.5t120.5 -163.5t63.5 -203.5t17.5 -237.5q0 -94 -9 -174t-30.5 -158.5t-56 -140.5t-87.5 -115t-123 -88.5t-164.5 -55.5t-209.5 -20q-90 0 -193 9.5t-161 18.5l-58 9v670h-125zM322 125q133 -19 270 -19 q60 0 110 5.5t106 22t99 44t84 75t68 111.5t43 157t16 208q0 147 -26 256.5t-70.5 178.5t-113 110.5t-145 57.5t-175.5 16q-100 0 -266 -19v-524h387v-121h-387v-559z" />
<glyph unicode="&#xd1;" horiz-adv-x="1433" d="M174 0v1454h195l751 -1253l-6 118v1135h146v-1454h-187l-762 1268l11 -119v-1149h-148zM428 1653q1 7 3.5 18t15.5 39.5t30 50.5t50.5 40t74.5 18q38 0 73.5 -16t58.5 -34.5t51 -34.5t53 -16q21 0 39 10.5t28 25t17 29.5t10 25l2 11l82 -43q-1 -7 -4 -18t-16 -40 t-30.5 -51.5t-50.5 -40.5t-73 -18q-45 0 -88 25t-80 50t-68 25q-34 0 -58 -25t-31 -50l-7 -25z" />
<glyph unicode="&#xd2;" d="M117 727q0 750 585 750q586 0 586 -750t-586 -750q-585 0 -585 750zM264 727q0 -65 3.5 -119.5t14.5 -120.5t30 -117.5t52 -102.5t78 -85t111.5 -55t148.5 -21t148.5 21t111.5 55t78.5 85t52.5 102.5t30 117.5t14.5 120.5t3.5 119.5t-3.5 119.5t-14.5 120.5t-30 117.5 t-52.5 102.5t-78.5 85t-111.5 55t-148.5 21t-148.5 -21t-111.5 -55t-78 -85t-52 -102.5t-30 -117.5t-14.5 -120.5t-3.5 -119.5zM401 1778l74 92l289 -250l-62 -78z" />
<glyph unicode="&#xd3;" d="M117 727q0 750 585 750q586 0 586 -750t-586 -750q-585 0 -585 750zM264 727q0 -65 3.5 -119.5t14.5 -120.5t30 -117.5t52 -102.5t78 -85t111.5 -55t148.5 -21t148.5 21t111.5 55t78.5 85t52.5 102.5t30 117.5t14.5 120.5t3.5 119.5t-3.5 119.5t-14.5 120.5t-30 117.5 t-52.5 102.5t-78.5 85t-111.5 55t-148.5 21t-148.5 -21t-111.5 -55t-78 -85t-52 -102.5t-30 -117.5t-14.5 -120.5t-3.5 -119.5zM606 1620l289 250l74 -92l-301 -236z" />
<glyph unicode="&#xd4;" d="M117 727q0 750 585 750q586 0 586 -750t-586 -750q-585 0 -585 750zM264 727q0 -65 3.5 -119.5t14.5 -120.5t30 -117.5t52 -102.5t78 -85t111.5 -55t148.5 -21t148.5 21t111.5 55t78.5 85t52.5 102.5t30 117.5t14.5 120.5t3.5 119.5t-3.5 119.5t-14.5 120.5t-30 117.5 t-52.5 102.5t-78.5 85t-111.5 55t-148.5 21t-148.5 -21t-111.5 -55t-78 -85t-52 -102.5t-30 -117.5t-14.5 -120.5t-3.5 -119.5zM424 1614l278 250l281 -250l-63 -72l-218 176l-217 -176z" />
<glyph unicode="&#xd5;" d="M117 727q0 750 585 750q586 0 586 -750t-586 -750q-585 0 -585 750zM264 727q0 -65 3.5 -119.5t14.5 -120.5t30 -117.5t52 -102.5t78 -85t111.5 -55t148.5 -21t148.5 21t111.5 55t78.5 85t52.5 102.5t30 117.5t14.5 120.5t3.5 119.5t-3.5 119.5t-14.5 120.5t-30 117.5 t-52.5 102.5t-78.5 85t-111.5 55t-148.5 21t-148.5 -21t-111.5 -55t-78 -85t-52 -102.5t-30 -117.5t-14.5 -120.5t-3.5 -119.5zM389 1653q1 7 3.5 18t15.5 39.5t30 50.5t50.5 40t74.5 18q37 0 72.5 -16t58.5 -34.5t51.5 -34.5t53.5 -16q21 0 39 10.5t28 25t17 29.5t9 25 l3 11l82 -43q-1 -7 -4 -18t-16 -40t-30.5 -51.5t-50.5 -40.5t-73 -18q-46 0 -89 25t-79.5 50t-67.5 25q-34 0 -58 -25t-31 -50l-7 -25z" />
<glyph unicode="&#xd6;" d="M117 727q0 750 585 750q586 0 586 -750t-586 -750q-585 0 -585 750zM264 727q0 -65 3.5 -119.5t14.5 -120.5t30 -117.5t52 -102.5t78 -85t111.5 -55t148.5 -21t148.5 21t111.5 55t78.5 85t52.5 102.5t30 117.5t14.5 120.5t3.5 119.5t-3.5 119.5t-14.5 120.5t-30 117.5 t-52.5 102.5t-78.5 85t-111.5 55t-148.5 21t-148.5 -21t-111.5 -55t-78 -85t-52 -102.5t-30 -117.5t-14.5 -120.5t-3.5 -119.5zM418 1712q0 37 22.5 60.5t61.5 23.5q41 0 64.5 -23.5t23.5 -60.5q0 -40 -23.5 -64t-64.5 -24q-39 0 -61.5 24t-22.5 64zM815 1712 q0 37 23.5 60.5t62.5 23.5q40 0 63 -23t23 -61q0 -40 -22.5 -64t-63.5 -24q-40 0 -63 24t-23 64z" />
<glyph unicode="&#xd7;" horiz-adv-x="1146" d="M160 944l82 82l329 -332l326 326l80 -80l-326 -324l336 -333l-84 -82l-334 334l-323 -324l-78 80l321 321z" />
<glyph unicode="&#xd8;" d="M117 727q0 750 585 750q108 0 203 -29l66 176l112 -47l-67 -176q272 -163 272 -674q0 -750 -586 -750q-112 0 -210 29l-72 -190l-115 45l74 196q-262 166 -262 670zM264 727q0 -80 6 -147.5t22 -143.5t51 -139.5t87 -106.5l428 1135q-74 23 -156 23t-148.5 -21 t-111.5 -55t-78 -85t-52 -102.5t-30 -117.5t-14.5 -120.5t-3.5 -119.5zM539 131q73 -25 163 -25q82 0 148.5 21t111.5 55t78.5 85t52.5 102.5t30 117.5t14.5 120.5t3.5 119.5q0 81 -6.5 149t-23.5 144.5t-53.5 140.5t-90.5 107z" />
<glyph unicode="&#xd9;" horiz-adv-x="1423" d="M164 561v893h147v-903q0 -115 24.5 -199t61 -130.5t92.5 -73.5t106.5 -34.5t115.5 -7.5q46 0 83.5 3.5t80 15t75.5 31t64.5 53t52 79.5t33 113t12.5 150v903h145v-893q0 -161 -35 -274t-106.5 -181t-170 -98.5t-234.5 -30.5q-135 0 -234 30.5t-170.5 98.5t-107 181 t-35.5 274zM436 1778l76 92l289 -250l-64 -78z" />
<glyph unicode="&#xda;" horiz-adv-x="1423" d="M164 561v893h147v-903q0 -115 24.5 -199t61 -130.5t92.5 -73.5t106.5 -34.5t115.5 -7.5q46 0 83.5 3.5t80 15t75.5 31t64.5 53t52 79.5t33 113t12.5 150v903h145v-893q0 -161 -35 -274t-106.5 -181t-170 -98.5t-234.5 -30.5q-135 0 -234 30.5t-170.5 98.5t-107 181 t-35.5 274zM614 1620l289 250l74 -92l-301 -236z" />
<glyph unicode="&#xdb;" horiz-adv-x="1423" d="M164 561v893h147v-903q0 -115 24.5 -199t61 -130.5t92.5 -73.5t106.5 -34.5t115.5 -7.5q46 0 83.5 3.5t80 15t75.5 31t64.5 53t52 79.5t33 113t12.5 150v903h145v-893q0 -161 -35 -274t-106.5 -181t-170 -98.5t-234.5 -30.5q-135 0 -234 30.5t-170.5 98.5t-107 181 t-35.5 274zM432 1614l279 250l280 -250l-63 -72l-217 176l-215 -176z" />
<glyph unicode="&#xdc;" horiz-adv-x="1423" d="M164 561v893h147v-903q0 -115 24.5 -199t61 -130.5t92.5 -73.5t106.5 -34.5t115.5 -7.5q46 0 83.5 3.5t80 15t75.5 31t64.5 53t52 79.5t33 113t12.5 150v903h145v-893q0 -161 -35 -274t-106.5 -181t-170 -98.5t-234.5 -30.5q-135 0 -234 30.5t-170.5 98.5t-107 181 t-35.5 274zM426 1712q0 38 23 61t63 23t63 -23t23 -61q0 -40 -22.5 -64t-63.5 -24t-63.5 24t-22.5 64zM825 1712q0 38 23 61t63 23q39 0 62.5 -23.5t23.5 -60.5q0 -40 -23 -64t-63 -24q-41 0 -63.5 24t-22.5 64z" />
<glyph unicode="&#xdd;" horiz-adv-x="1288" d="M55 1454h162l424 -727l430 727h162l-516 -854v-600h-148v600zM561 1620l291 250l74 -92l-301 -236z" />
<glyph unicode="&#xde;" horiz-adv-x="1257" d="M174 0v1454h148v-201q179 23 311 23q269 0 407 -121t138 -354q0 -97 -32 -181t-96 -151.5t-171 -106t-246 -38.5q-178 0 -311 10v-334h-148zM322 461q92 -8 305 -8q192 0 297.5 92.5t105.5 255.5q0 173 -103 259.5t-292 86.5q-117 0 -313 -23v-663z" />
<glyph unicode="&#xdf;" horiz-adv-x="1216" d="M164 0v1219q0 85 26.5 150.5t67 104t96 63.5t107 33.5t106.5 8.5q195 0 305.5 -82.5t110.5 -224.5q0 -54 -20.5 -100.5t-51.5 -77.5t-67 -62.5t-67 -57t-51.5 -59.5t-20.5 -71q0 -45 24 -81.5t62 -63t84 -51.5t92 -55.5t84 -67t62 -94t24 -128.5q0 -148 -100 -237 t-283 -89q-78 0 -153.5 15t-111.5 30l-36 15l28 119q12 -6 34.5 -15t90.5 -24t133 -15q114 0 184 50t70 145q0 55 -24 98.5t-62 73t-84 56t-92 54.5t-84 60.5t-62 82t-24 112.5q0 67 29 120.5t70 88t82.5 66.5t70.5 73t29 90t-23 85t-62 56t-85 29.5t-99 9.5 q-114 0 -188 -52.5t-74 -170.5v-1229h-147z" />
<glyph unicode="&#xe0;" horiz-adv-x="1142" d="M113 297q0 324 465 324q127 0 266 -25v164q0 144 -75.5 206t-229.5 62q-87 0 -168.5 -17t-119.5 -33l-38 -17l-31 118q166 76 371 76q218 0 327 -94.5t109 -300.5v-697q-7 -3 -20 -9t-56.5 -21t-91 -26t-121 -20.5t-147.5 -9.5q-440 0 -440 320zM260 295q0 -57 22 -97 t63.5 -61t91.5 -30t116 -9q72 0 144.5 10.5t109.5 20.5l37 10v340q-140 21 -258 21q-75 0 -129.5 -8.5t-101.5 -30.5t-71 -63.5t-24 -102.5zM350 1511l76 95l287 -250l-60 -78z" />
<glyph unicode="&#xe1;" horiz-adv-x="1142" d="M113 297q0 324 465 324q127 0 266 -25v164q0 144 -75.5 206t-229.5 62q-87 0 -168.5 -17t-119.5 -33l-38 -17l-31 118q166 76 371 76q218 0 327 -94.5t109 -300.5v-697q-7 -3 -20 -9t-56.5 -21t-91 -26t-121 -20.5t-147.5 -9.5q-440 0 -440 320zM260 295q0 -57 22 -97 t63.5 -61t91.5 -30t116 -9q72 0 144.5 10.5t109.5 20.5l37 10v340q-140 21 -258 21q-75 0 -129.5 -8.5t-101.5 -30.5t-71 -63.5t-24 -102.5zM424 1356l289 250l73 -95l-301 -233z" />
<glyph unicode="&#xe2;" horiz-adv-x="1142" d="M113 297q0 324 465 324q127 0 266 -25v164q0 144 -75.5 206t-229.5 62q-87 0 -168.5 -17t-119.5 -33l-38 -17l-31 118q166 76 371 76q218 0 327 -94.5t109 -300.5v-697q-7 -3 -20 -9t-56.5 -21t-91 -26t-121 -20.5t-147.5 -9.5q-440 0 -440 320zM260 295q0 -57 22 -97 t63.5 -61t91.5 -30t116 -9q72 0 144.5 10.5t109.5 20.5l37 10v340q-140 21 -258 21q-75 0 -129.5 -8.5t-101.5 -30.5t-71 -63.5t-24 -102.5zM287 1350l278 252l279 -252l-62 -70l-217 174l-217 -174z" />
<glyph unicode="&#xe3;" horiz-adv-x="1142" d="M113 297q0 324 465 324q127 0 266 -25v164q0 144 -75.5 206t-229.5 62q-87 0 -168.5 -17t-119.5 -33l-38 -17l-31 118q166 76 371 76q218 0 327 -94.5t109 -300.5v-697q-7 -3 -20 -9t-56.5 -21t-91 -26t-121 -20.5t-147.5 -9.5q-440 0 -440 320zM260 295q0 -57 22 -97 t63.5 -61t91.5 -30t116 -9q72 0 144.5 10.5t109.5 20.5l37 10v340q-140 21 -258 21q-75 0 -129.5 -8.5t-101.5 -30.5t-71 -63.5t-24 -102.5zM266 1348q1 7 3.5 18t15 39.5t30 50t50 39.5t73.5 18q38 0 74 -15.5t59 -34.5t51.5 -34.5t53.5 -15.5q34 0 58 25t31 50l7 25 l80 -45q-1 -7 -4 -18t-15.5 -39.5t-30 -50t-50 -39.5t-72.5 -18q-46 0 -89 25t-79.5 50t-67.5 25q-34 0 -58 -25t-31 -50l-7 -25z" />
<glyph unicode="&#xe4;" horiz-adv-x="1142" d="M113 297q0 324 465 324q127 0 266 -25v164q0 144 -75.5 206t-229.5 62q-87 0 -168.5 -17t-119.5 -33l-38 -17l-31 118q166 76 371 76q218 0 327 -94.5t109 -300.5v-697q-7 -3 -20 -9t-56.5 -21t-91 -26t-121 -20.5t-147.5 -9.5q-440 0 -440 320zM260 295q0 -57 22 -97 t63.5 -61t91.5 -30t116 -9q72 0 144.5 10.5t109.5 20.5l37 10v340q-140 21 -258 21q-75 0 -129.5 -8.5t-101.5 -30.5t-71 -63.5t-24 -102.5zM283 1430q0 39 22.5 61t63.5 22t63.5 -22t22.5 -61q0 -40 -22.5 -64.5t-63.5 -24.5t-63.5 24.5t-22.5 64.5zM680 1430q0 39 23 61 t65 22q40 0 62 -22.5t22 -60.5q0 -40 -22.5 -64.5t-61.5 -24.5q-42 0 -65 24t-23 65z" />
<glyph unicode="&#xe5;" horiz-adv-x="1142" d="M113 297q0 324 465 324q127 0 266 -25v164q0 144 -75.5 206t-229.5 62q-87 0 -168.5 -17t-119.5 -33l-38 -17l-31 118q166 76 371 76q218 0 327 -94.5t109 -300.5v-697q-7 -3 -20 -9t-56.5 -21t-91 -26t-121 -20.5t-147.5 -9.5q-440 0 -440 320zM260 295q0 -57 22 -97 t63.5 -61t91.5 -30t116 -9q72 0 144.5 10.5t109.5 20.5l37 10v340q-140 21 -258 21q-75 0 -129.5 -8.5t-101.5 -30.5t-71 -63.5t-24 -102.5zM375 1468q0 89 56 140t147 51q90 0 146 -51t56 -140t-56 -139.5t-146 -50.5q-91 0 -147 50.5t-56 139.5zM469 1468 q0 -51 29.5 -79.5t79.5 -28.5q48 0 77 29t29 79q0 52 -29 80.5t-77 28.5q-50 0 -79.5 -28.5t-29.5 -80.5z" />
<glyph unicode="&#xe6;" horiz-adv-x="1845" d="M113 299q0 322 471 322q120 0 260 -21q0 71 14 160q-3 139 -84 203.5t-239 64.5q-84 0 -164.5 -17t-118.5 -33l-39 -17l-31 118q166 76 371 76q294 0 385 -174q114 172 358 172q118 0 204 -35t134 -98t70 -139.5t22 -171.5q0 -87 -14 -164h-723q0 -49 1.5 -83.5t9 -84.5 t21.5 -84.5t40 -72.5t63 -61.5t92.5 -39t126.5 -15.5q81 0 157.5 15t112.5 30l36 15l24 -121q-15 -7 -43 -18t-117 -29.5t-180 -18.5q-245 0 -366 134q-186 -134 -435 -134q-90 0 -163 17t-132 53.5t-91.5 100.5t-32.5 151zM260 295q0 -57 22 -97t62.5 -61t88 -30t108.5 -9 q207 0 366 107q-51 108 -61 274q-136 21 -256 21q-75 0 -131.5 -9.5t-103 -31.5t-71 -63t-24.5 -101zM989 664h592q2 20 2 67q0 45 -6 83t-24 79.5t-48.5 69.5t-84 46.5t-124.5 18.5q-75 0 -131.5 -23t-88.5 -57t-51.5 -85.5t-26.5 -96.5t-9 -102z" />
<glyph unicode="&#xe7;" horiz-adv-x="1024" d="M121 567q0 105 15 190.5t52 161t94 126.5t145 80.5t202 29.5q78 0 147 -12.5t99 -24.5l30 -12l-33 -117q-104 39 -237 39q-71 0 -128 -16t-95 -41.5t-66 -65t-43 -77.5t-23.5 -87.5t-11 -87t-2.5 -84.5q0 -51 2.5 -91.5t12 -90.5t25 -88.5t43.5 -76.5t66.5 -62.5t95 -40 t126.5 -15.5q58 0 115 9.5t84.5 18t35.5 13.5l33 -118q-11 -5 -31.5 -13t-87.5 -21.5t-139 -15.5l-24 -98q36 4 55 4q83 0 137.5 -38.5t54.5 -120.5q0 -77 -57 -125t-172 -48q-54 0 -101.5 10.5t-67.5 21.5l-21 11l22 89q76 -37 152 -37q125 0 125 84q0 86 -127 86 q-76 0 -127 -19l47 185q-117 13 -201 62t-131.5 129t-68.5 176.5t-21 217.5z" />
<glyph unicode="&#xe8;" horiz-adv-x="1144" d="M121 567q0 128 25.5 231t79 185t146.5 127t220 45q96 0 171.5 -23.5t124 -64t80.5 -98t45 -121.5t13 -139q0 -76 -16 -164h-744q0 -44 3 -81t12 -83.5t25 -84t44 -74.5t65.5 -62t94 -40.5t125.5 -15.5q86 0 164 15t113 30l36 15l23 -121q-15 -7 -43 -18t-118 -29.5 t-185 -18.5q-504 0 -504 590zM268 664h613q2 20 2 61q0 50 -6 90t-25 81.5t-50 69.5t-84.5 46t-125.5 18q-298 0 -324 -366zM336 1511l76 95l286 -250l-59 -78z" />
<glyph unicode="&#xe9;" horiz-adv-x="1144" d="M121 567q0 128 25.5 231t79 185t146.5 127t220 45q96 0 171.5 -23.5t124 -64t80.5 -98t45 -121.5t13 -139q0 -76 -16 -164h-744q0 -44 3 -81t12 -83.5t25 -84t44 -74.5t65.5 -62t94 -40.5t125.5 -15.5q86 0 164 15t113 30l36 15l23 -121q-15 -7 -43 -18t-118 -29.5 t-185 -18.5q-504 0 -504 590zM268 664h613q2 20 2 61q0 50 -6 90t-25 81.5t-50 69.5t-84.5 46t-125.5 18q-298 0 -324 -366zM455 1356l288 250l76 -95l-303 -233z" />
<glyph unicode="&#xea;" horiz-adv-x="1144" d="M121 567q0 128 25.5 231t79 185t146.5 127t220 45q96 0 171.5 -23.5t124 -64t80.5 -98t45 -121.5t13 -139q0 -76 -16 -164h-744q0 -44 3 -81t12 -83.5t25 -84t44 -74.5t65.5 -62t94 -40.5t125.5 -15.5q86 0 164 15t113 30l36 15l23 -121q-15 -7 -43 -18t-118 -29.5 t-185 -18.5q-504 0 -504 590zM268 664h613q2 20 2 61q0 50 -6 90t-25 81.5t-50 69.5t-84.5 46t-125.5 18q-298 0 -324 -366zM322 1350l280 252l279 -252l-64 -70l-215 174l-217 -174z" />
<glyph unicode="&#xeb;" horiz-adv-x="1144" d="M121 567q0 128 25.5 231t79 185t146.5 127t220 45q96 0 171.5 -23.5t124 -64t80.5 -98t45 -121.5t13 -139q0 -76 -16 -164h-744q0 -44 3 -81t12 -83.5t25 -84t44 -74.5t65.5 -62t94 -40.5t125.5 -15.5q86 0 164 15t113 30l36 15l23 -121q-15 -7 -43 -18t-118 -29.5 t-185 -18.5q-504 0 -504 590zM268 664h613q2 20 2 61q0 50 -6 90t-25 81.5t-50 69.5t-84.5 46t-125.5 18q-298 0 -324 -366zM307 1430q0 39 22 61t64 22q39 0 61.5 -22.5t22.5 -60.5q0 -40 -22.5 -64.5t-61.5 -24.5q-42 0 -64 24t-22 65zM705 1430q0 38 23 60.5t63 22.5 q41 0 63.5 -22t22.5 -61q0 -40 -22.5 -64.5t-63.5 -24.5q-39 0 -62.5 24.5t-23.5 64.5z" />
<glyph unicode="&#xec;" horiz-adv-x="477" d="M8 1511l76 95l287 -250l-62 -78zM166 0v1133h145v-1133h-145z" />
<glyph unicode="&#xed;" horiz-adv-x="477" d="M152 1356l288 250l76 -95l-303 -233zM166 0v1133h145v-1133h-145z" />
<glyph unicode="&#xee;" horiz-adv-x="477" d="M-41 1350l281 252l278 -252l-61 -70l-217 174l-220 -174zM166 0v1133h145v-1133h-145z" />
<glyph unicode="&#xef;" horiz-adv-x="477" d="M-47 1430q0 39 22.5 61t63.5 22t63.5 -22t22.5 -61q0 -40 -22.5 -64.5t-63.5 -24.5t-63.5 24.5t-22.5 64.5zM166 0v1133h145v-1133h-145zM352 1430q0 39 22.5 61t63.5 22q40 0 63 -22.5t23 -60.5q0 -40 -23.5 -64.5t-62.5 -24.5q-41 0 -63.5 24.5t-22.5 64.5z" />
<glyph unicode="&#xf0;" horiz-adv-x="1198" d="M121 567q0 120 26 215.5t70 157.5t106 103.5t130.5 59t146.5 17.5q119 0 246 -43q-74 153 -201 250l-141 -141l-76 76l125 124q-132 66 -270 66l18 115q170 0 338 -92l143 143l76 -76l-125 -127q161 -119 260 -321.5t99 -485.5q0 -110 -14 -201t-48.5 -172.5t-89 -137 t-139.5 -88t-195 -32.5t-195 30t-139 81.5t-88.5 128t-48.5 161.5t-14 189zM266 567q0 -47 2 -84t10 -87.5t21.5 -88.5t39 -78t60.5 -66t88 -42.5t119 -16.5t118.5 17.5t87.5 45.5t60 70.5t38.5 83.5t21.5 95t10 94.5t2 91.5q0 179 -47 338q-125 61 -266 61 q-58 0 -109 -12.5t-99 -44t-82 -79.5t-54.5 -124t-20.5 -174z" />
<glyph unicode="&#xf1;" horiz-adv-x="1239" d="M166 0v1069l21 9t59.5 21t93.5 26t119.5 20.5t142.5 9.5q249 0 365 -104t116 -351v-700h-145v707q0 85 -20 145.5t-49.5 94t-77.5 52.5t-90 24t-101 5q-78 0 -150.5 -11t-105.5 -21l-33 -11v-985h-145zM305 1348q1 7 3.5 18t15.5 39.5t30 50t50.5 39.5t74.5 18 q38 0 74 -15.5t59 -34.5t51.5 -34.5t53.5 -15.5q34 0 57.5 25t29.5 50l7 25l82 -45q-1 -7 -4 -18t-15.5 -39.5t-30 -50t-50.5 -39.5t-74 -18q-45 0 -87.5 25t-79 50t-67.5 25q-22 0 -40 -10.5t-28 -25t-16.5 -29t-8.5 -24.5l-3 -11z" />
<glyph unicode="&#xf2;" horiz-adv-x="1210" d="M121 565q0 103 14 188.5t49 161.5t89 128t138.5 82t194.5 30q486 0 486 -590q0 -588 -486 -588q-110 0 -194.5 30t-138.5 81.5t-89 127.5t-49 161t-14 188zM266 565q0 -47 2 -83.5t10 -87t21.5 -88t39 -77.5t60.5 -66t88 -42.5t119 -16.5t118.5 16.5t87.5 42.5t60 66 t38.5 78t21.5 88t10 86.5t2 83.5q0 40 -1.5 72.5t-6.5 76t-15.5 78t-26.5 72.5t-42 66t-59.5 51t-81 35t-105.5 12q-66 0 -119 -16.5t-88 -42.5t-60.5 -66.5t-39 -78.5t-21.5 -88t-10 -87t-2 -84zM332 1511l74 95l288 -250l-61 -78z" />
<glyph unicode="&#xf3;" horiz-adv-x="1210" d="M121 565q0 103 14 188.5t49 161.5t89 128t138.5 82t194.5 30q486 0 486 -590q0 -588 -486 -588q-110 0 -194.5 30t-138.5 81.5t-89 127.5t-49 161t-14 188zM266 565q0 -47 2 -83.5t10 -87t21.5 -88t39 -77.5t60.5 -66t88 -42.5t119 -16.5t118.5 16.5t87.5 42.5t60 66 t38.5 78t21.5 88t10 86.5t2 83.5q0 40 -1.5 72.5t-6.5 76t-15.5 78t-26.5 72.5t-42 66t-59.5 51t-81 35t-105.5 12q-66 0 -119 -16.5t-88 -42.5t-60.5 -66.5t-39 -78.5t-21.5 -88t-10 -87t-2 -84zM461 1356l289 250l75 -95l-303 -233z" />
<glyph unicode="&#xf4;" horiz-adv-x="1210" d="M121 565q0 103 14 188.5t49 161.5t89 128t138.5 82t194.5 30q486 0 486 -590q0 -588 -486 -588q-110 0 -194.5 30t-138.5 81.5t-89 127.5t-49 161t-14 188zM266 565q0 -47 2 -83.5t10 -87t21.5 -88t39 -77.5t60.5 -66t88 -42.5t119 -16.5t118.5 16.5t87.5 42.5t60 66 t38.5 78t21.5 88t10 86.5t2 83.5q0 40 -1.5 72.5t-6.5 76t-15.5 78t-26.5 72.5t-42 66t-59.5 51t-81 35t-105.5 12q-66 0 -119 -16.5t-88 -42.5t-60.5 -66.5t-39 -78.5t-21.5 -88t-10 -87t-2 -84zM322 1350l280 252l279 -252l-64 -70l-215 174l-217 -174z" />
<glyph unicode="&#xf5;" horiz-adv-x="1210" d="M121 565q0 103 14 188.5t49 161.5t89 128t138.5 82t194.5 30q486 0 486 -590q0 -588 -486 -588q-110 0 -194.5 30t-138.5 81.5t-89 127.5t-49 161t-14 188zM266 565q0 -47 2 -83.5t10 -87t21.5 -88t39 -77.5t60.5 -66t88 -42.5t119 -16.5t118.5 16.5t87.5 42.5t60 66 t38.5 78t21.5 88t10 86.5t2 83.5q0 40 -1.5 72.5t-6.5 76t-15.5 78t-26.5 72.5t-42 66t-59.5 51t-81 35t-105.5 12q-66 0 -119 -16.5t-88 -42.5t-60.5 -66.5t-39 -78.5t-21.5 -88t-10 -87t-2 -84zM289 1348q1 7 4 18t16 39.5t30.5 50t51 39.5t74.5 18q37 0 72.5 -15.5 t58 -34.5t51 -34.5t53.5 -15.5q34 0 58 25t32 50l7 25l82 -45q-1 -7 -4 -18t-16.5 -39.5t-31.5 -50t-51 -39.5t-74 -18q-45 0 -87 25t-78.5 50t-67.5 25q-34 0 -58 -25t-31 -50l-7 -25z" />
<glyph unicode="&#xf6;" horiz-adv-x="1210" d="M121 565q0 103 14 188.5t49 161.5t89 128t138.5 82t194.5 30q486 0 486 -590q0 -588 -486 -588q-110 0 -194.5 30t-138.5 81.5t-89 127.5t-49 161t-14 188zM266 565q0 -47 2 -83.5t10 -87t21.5 -88t39 -77.5t60.5 -66t88 -42.5t119 -16.5t118.5 16.5t87.5 42.5t60 66 t38.5 78t21.5 88t10 86.5t2 83.5q0 40 -1.5 72.5t-6.5 76t-15.5 78t-26.5 72.5t-42 66t-59.5 51t-81 35t-105.5 12q-66 0 -119 -16.5t-88 -42.5t-60.5 -66.5t-39 -78.5t-21.5 -88t-10 -87t-2 -84zM315 1430q0 39 22.5 61t63.5 22t63.5 -22t22.5 -61q0 -40 -22.5 -64.5 t-63.5 -24.5t-63.5 24.5t-22.5 64.5zM715 1430q0 39 22.5 61t63.5 22q40 0 63 -22.5t23 -60.5q0 -40 -23.5 -64.5t-62.5 -24.5q-41 0 -63.5 24.5t-22.5 64.5z" />
<glyph unicode="&#xf7;" horiz-adv-x="1161" d="M150 559v103h860v-103h-860zM487 227q0 43 24.5 69t68.5 26q45 0 69.5 -26.5t24.5 -68.5q0 -45 -24.5 -70.5t-69.5 -25.5t-69 25.5t-24 70.5zM487 963q0 44 24 69t69 25t69.5 -25.5t24.5 -68.5q0 -44 -24.5 -69.5t-69.5 -25.5t-69 25.5t-24 69.5z" />
<glyph unicode="&#xf8;" horiz-adv-x="1210" d="M121 565q0 104 14 189t48.5 161t88.5 128t139 82t195 30q65 0 137 -14l62 159l115 -47l-60 -155q232 -125 232 -533q0 -104 -14 -189t-48.5 -161t-89 -128t-139.5 -82t-195 -30q-82 0 -164 21l-61 -164l-113 47l62 164q-209 130 -209 522zM266 565q0 -57 3.5 -102 t14 -101.5t35 -104t62.5 -81.5l317 842q-48 10 -92 10q-66 0 -119 -16.5t-88 -42.5t-60.5 -66.5t-39 -78.5t-21.5 -88t-10 -87t-2 -84zM487 117q52 -15 119 -15q58 0 105.5 12t81 35t59.5 51t42 66t26.5 72.5t15.5 78t6.5 76t1.5 72.5q0 60 -4 107t-16 106.5t-40.5 108.5 t-72.5 82z" />
<glyph unicode="&#xf9;" horiz-adv-x="1230" d="M154 432v701h147v-707q0 -85 20 -146t50 -94.5t77.5 -52.5t90 -24t100.5 -5q77 0 149.5 11t105.5 21l34 11v986h145v-1070l-21 -9t-59.5 -21t-93.5 -26t-120.5 -20.5t-143.5 -9.5q-247 0 -364 104t-117 351zM424 1511l76 95l288 -250l-61 -78z" />
<glyph unicode="&#xfa;" horiz-adv-x="1230" d="M154 432v701h147v-707q0 -85 20 -146t50 -94.5t77.5 -52.5t90 -24t100.5 -5q77 0 149.5 11t105.5 21l34 11v986h145v-1070l-21 -9t-59.5 -21t-93.5 -26t-120.5 -20.5t-143.5 -9.5q-247 0 -364 104t-117 351zM496 1356l288 250l76 -95l-303 -233z" />
<glyph unicode="&#xfb;" horiz-adv-x="1230" d="M154 432v701h147v-707q0 -85 20 -146t50 -94.5t77.5 -52.5t90 -24t100.5 -5q77 0 149.5 11t105.5 21l34 11v986h145v-1070l-21 -9t-59.5 -21t-93.5 -26t-120.5 -20.5t-143.5 -9.5q-247 0 -364 104t-117 351zM332 1350l278 252l281 -252l-62 -70l-219 174l-215 -174z" />
<glyph unicode="&#xfc;" horiz-adv-x="1230" d="M154 432v701h147v-707q0 -85 20 -146t50 -94.5t77.5 -52.5t90 -24t100.5 -5q77 0 149.5 11t105.5 21l34 11v986h145v-1070l-21 -9t-59.5 -21t-93.5 -26t-120.5 -20.5t-143.5 -9.5q-247 0 -364 104t-117 351zM336 1430q0 38 22 60.5t62 22.5q41 0 63.5 -22t22.5 -61 q0 -40 -22.5 -64.5t-63.5 -24.5q-39 0 -61.5 24.5t-22.5 64.5zM733 1430q0 38 23 60.5t63 22.5q41 0 63.5 -22t22.5 -61q0 -40 -22.5 -64.5t-63.5 -24.5q-39 0 -62.5 24.5t-23.5 64.5z" />
<glyph unicode="&#xfd;" horiz-adv-x="1230" d="M154 432v701h147v-707q0 -84 20.5 -144.5t50 -93t77 -51.5t88 -23.5t96.5 -4.5q86 0 159.5 10.5t104.5 21.5l31 11v981h145v-1061q0 -119 -23 -209t-76.5 -162.5t-151.5 -111t-238 -38.5q-86 0 -166 14.5t-117 28.5l-37 15l29 123q12 -6 34.5 -15t95 -24t148.5 -15 q87 0 151.5 19t103 49.5t62.5 77t33 92t11 104.5q-133 -38 -297 -38q-243 0 -362 103.5t-119 346.5zM496 1356l288 250l76 -95l-303 -233z" />
<glyph unicode="&#xfe;" horiz-adv-x="1208" d="M166 -426v1982h145v-448q139 47 269 47q253 0 380 -141t127 -449q0 -307 -126.5 -447.5t-374.5 -140.5q-124 0 -275 48v-451h-145zM311 145q120 -41 262 -41q201 0 285 111t84 350q0 240 -83.5 351.5t-285.5 111.5q-150 0 -262 -43v-840z" />
<glyph unicode="&#xff;" horiz-adv-x="1230" d="M154 432v701h147v-707q0 -84 20.5 -144.5t50 -93t77 -51.5t88 -23.5t96.5 -4.5q86 0 159.5 10.5t104.5 21.5l31 11v981h145v-1061q0 -119 -23 -209t-76.5 -162.5t-151.5 -111t-238 -38.5q-86 0 -166 14.5t-117 28.5l-37 15l29 123q12 -6 34.5 -15t95 -24t148.5 -15 q87 0 151.5 19t103 49.5t62.5 77t33 92t11 104.5q-133 -38 -297 -38q-243 0 -362 103.5t-119 346.5zM334 1430q0 39 22.5 61t63.5 22t63.5 -22t22.5 -61q0 -40 -22.5 -64.5t-63.5 -24.5t-63.5 24.5t-22.5 64.5zM733 1430q0 39 22.5 61t63.5 22q40 0 63 -22.5t23 -60.5 q0 -40 -23.5 -64.5t-62.5 -24.5q-41 0 -63.5 24.5t-22.5 64.5z" />
<glyph unicode="&#x11e;" horiz-adv-x="1312" d="M117 725q0 122 19 228t66 204.5t119.5 167.5t186.5 110.5t260 41.5q97 0 193 -16t143 -32l47 -16l-37 -119q-15 6 -42 15t-112.5 24t-173.5 15q-522 0 -522 -625q0 -617 512 -617q97 0 238 29v623h143v-719q-15 -6 -61.5 -19t-142 -28t-183.5 -15q-148 0 -262.5 41.5 t-187 110.5t-119.5 167t-65.5 202.5t-18.5 226.5zM449 1815l88 34q1 -6 3 -16.5t13.5 -37.5t28.5 -47t52.5 -37t80.5 -17t79.5 16t51.5 39t27.5 45.5t12.5 38.5l3 16l88 -34q-1 -9 -4 -24.5t-20.5 -55.5t-43 -70t-77 -55t-117.5 -25q-67 0 -119 23.5t-78.5 57.5t-43.5 68 t-21 58z" />
<glyph unicode="&#x11f;" horiz-adv-x="1208" d="M121 565q0 308 127 449t379 141q104 0 207.5 -21.5t155.5 -43.5l52 -21v-997q0 -118 -23.5 -208.5t-77.5 -163t-152.5 -111t-237.5 -38.5q-86 0 -166 14.5t-117 28.5l-37 15l31 123q12 -6 35 -15t95.5 -24t148.5 -15q73 0 130 13t94.5 38t64 55.5t41 72.5t20.5 81.5 t8 88.5q-119 -45 -278 -45q-247 0 -373.5 139t-126.5 444zM266 565q0 -239 83 -347.5t284 -108.5q142 0 262 41v833q-113 45 -262 45q-200 0 -283.5 -111.5t-83.5 -351.5zM367 1530l88 35q1 -6 3 -17t13.5 -38t28.5 -48t51.5 -38t79.5 -17t79.5 16.5t52 39.5t28.5 46t13 39 l3 17l88 -35q-1 -5 -2 -13.5t-8.5 -32.5t-18 -46t-31.5 -48.5t-47.5 -46t-67 -32.5t-89.5 -13t-89.5 13t-67 33.5t-47 45t-31.5 49t-18 45t-9 33.5z" />
<glyph unicode="&#x130;" horiz-adv-x="516" d="M164 1755q0 42 25 68t69 26q45 0 70.5 -26t25.5 -68q0 -43 -25.5 -69.5t-70.5 -26.5q-44 0 -69 26.5t-25 69.5zM184 0v1454h148v-1454h-148z" />
<glyph unicode="&#x131;" horiz-adv-x="477" d="M166 0v1133h145v-1133h-145z" />
<glyph unicode="&#x15e;" horiz-adv-x="1200" d="M119 1090q0 88 30.5 156.5t79.5 111t117.5 70t138.5 38.5t148 11q104 0 203 -17.5t146 -35.5l48 -17l-39 -119q-15 7 -43.5 17t-118.5 26.5t-182 16.5q-179 0 -283 -62.5t-104 -189.5q0 -37 10.5 -68.5t25 -54.5t44 -44t53 -34t66.5 -28.5t71.5 -23.5t79.5 -22 q52 -14 86 -25t82.5 -28t81 -35t70.5 -43t62.5 -55t46 -67t32 -84t10.5 -101q0 -176 -115 -279t-325 -122l-25 -103q36 4 56 4q83 0 137.5 -38.5t54.5 -120.5q0 -77 -57 -125t-172 -48q-54 0 -101.5 10.5t-68.5 21.5l-21 11l23 89q75 -37 151 -37q125 0 125 84q0 86 -127 86 q-76 0 -127 -19l46 180q-106 1 -205.5 19t-145.5 36l-47 17l37 123q19 -7 52.5 -18t132.5 -29.5t194 -18.5q185 0 284 68.5t99 200.5q0 33 -7 62.5t-17.5 52.5t-30.5 44t-37.5 36t-47 30.5t-51 25t-58.5 21.5t-59 19t-63 18q-57 15 -94.5 26.5t-89 31.5t-85 40.5t-70 51.5 t-58 66.5t-35.5 84t-14 105.5z" />
<glyph unicode="&#x15f;" horiz-adv-x="1007" d="M111 852q0 86 37.5 148t102 94t136.5 46.5t156 14.5q76 0 152 -10.5t115 -21.5l38 -11l-27 -121q-116 37 -270 37q-142 0 -219.5 -44t-77.5 -130q0 -36 15 -65t37 -48.5t63 -38t75 -30t91 -27.5q45 -13 75.5 -23t73 -27.5t70.5 -35t58.5 -44.5t48.5 -57.5t30 -72 t12 -90.5q0 -147 -96.5 -224.5t-269.5 -88.5l-25 -103q36 4 57 4q83 0 137 -38.5t54 -120.5q0 -77 -57 -125t-173 -48q-54 0 -101 10.5t-67 21.5l-20 11l20 89q76 -37 152 -37q127 0 127 84q0 86 -129 86q-76 0 -127 -19l45 180q-76 3 -149.5 16t-109.5 25l-36 11l25 123 q15 -5 42 -13t106.5 -21.5t154.5 -13.5q299 0 299 187q0 39 -14.5 70t-37 52.5t-62 41t-75 31.5t-90.5 28q-48 14 -79 24.5t-74.5 28t-71 34.5t-58.5 43t-48.5 55t-29 68t-11.5 85z" />
<glyph unicode="&#x192;" horiz-adv-x="1122" d="M-63 -422l24 123q55 -20 131 -20q114 0 174.5 46.5t73.5 166.5l96 935h-233l10 117h236l30 287q9 82 36.5 145t64 100.5t85.5 60.5t95.5 31.5t99.5 8.5q38 0 80.5 -6.5t65.5 -12.5l24 -6l-26 -120q-56 18 -130 18q-115 0 -175.5 -46.5t-71.5 -166.5l-31 -293h330 l-13 -117h-329l-99 -929q-9 -82 -36.5 -145t-64 -101t-85.5 -62t-95.5 -32.5t-99.5 -8.5q-38 0 -80 6.5t-64 13.5z" />
<glyph unicode="&#x2c6;" horiz-adv-x="829" d="M135 1350l281 252l278 -252l-63 -70l-215 174l-217 -174z" />
<glyph unicode="&#x2da;" horiz-adv-x="684" d="M139 1468q0 89 56 140t147 51q90 0 146.5 -51t56.5 -140t-56.5 -139.5t-146.5 -50.5q-91 0 -147 50.5t-56 139.5zM236 1468q0 -51 28 -79.5t78 -28.5t78.5 28.5t28.5 79.5q0 52 -28.5 80.5t-78.5 28.5t-78 -28.5t-28 -80.5z" />
<glyph unicode="&#x2dc;" horiz-adv-x="860" d="M135 1348q1 7 3.5 18t15.5 39.5t30 50t50.5 39.5t74.5 18q38 0 74 -15.5t59 -34.5t51.5 -34.5t53.5 -15.5q34 0 57.5 25t29.5 50l7 25l82 -45q-1 -7 -4 -18t-15.5 -39.5t-30 -50t-50.5 -39.5t-74 -18q-45 0 -87.5 25t-79 50t-67.5 25q-22 0 -40 -10.5t-28 -25t-16.5 -29 t-8.5 -24.5l-3 -11z" />
<glyph unicode="&#x3a9;" horiz-adv-x="1456" d="M123 0v111h338q-45 31 -86 70t-85.5 100t-76 132t-52 168.5t-20.5 206.5q0 107 18 203t61.5 186t109 155.5t168 105t231.5 39.5t231 -39.5t167.5 -104.5t108.5 -155t61 -185.5t18 -201.5q0 -134 -29.5 -249.5t-79 -197t-102 -137.5t-111.5 -96h340v-111h-524v88 q7 3 20 9.5t50 33t70.5 59.5t74.5 91.5t70.5 126.5t50 168t20.5 212q0 53 -4 102t-16.5 107t-32 106.5t-53.5 95t-78.5 78.5t-109 51.5t-142.5 19.5q-91 0 -163 -25t-118.5 -70.5t-78.5 -99.5t-48.5 -121t-23 -125t-6.5 -121q0 -109 19 -206t48 -165t67 -125.5t73 -92 t70 -61t53.5 -36t27.5 -12.5v-88h-526z" />
<glyph unicode="&#x3c0;" horiz-adv-x="1607" d="M106 1012v121h1375v-121h-344v-650q0 -129 39 -190t143 -61q36 0 70 6.5t49 12.5l16 7l23 -117q-7 -5 -20 -12t-59 -19t-98 -12q-309 0 -309 385v650h-432v-1012h-145v1012h-308z" />
<glyph unicode="&#x2000;" horiz-adv-x="1202" />
<glyph unicode="&#x2001;" horiz-adv-x="2404" />
<glyph unicode="&#x2002;" horiz-adv-x="1202" />
<glyph unicode="&#x2003;" horiz-adv-x="2404" />
<glyph unicode="&#x2004;" horiz-adv-x="801" />
<glyph unicode="&#x2005;" horiz-adv-x="601" />
<glyph unicode="&#x2006;" horiz-adv-x="400" />
<glyph unicode="&#x2007;" horiz-adv-x="400" />
<glyph unicode="&#x2008;" horiz-adv-x="300" />
<glyph unicode="&#x2009;" horiz-adv-x="161" />
<glyph unicode="&#x200a;" horiz-adv-x="133" />
<glyph unicode="&#x2010;" horiz-adv-x="876" d="M141 539v116h594v-116h-594z" />
<glyph unicode="&#x2011;" horiz-adv-x="876" d="M141 539v116h594v-116h-594z" />
<glyph unicode="&#x2012;" horiz-adv-x="876" d="M141 539v116h594v-116h-594z" />
<glyph unicode="&#x2013;" horiz-adv-x="1167" d="M150 539v116h868v-116h-868z" />
<glyph unicode="&#x2014;" horiz-adv-x="1478" d="M150 539v116h1177v-116h-1177z" />
<glyph unicode="&#x2018;" horiz-adv-x="475" d="M123 1110q0 44 32.5 146t64.5 182l32 80l82 -33q-17 -60 -36 -203.5t-19 -214.5v-14q-31 -25 -74 -25q-37 0 -59.5 21t-22.5 61z" />
<glyph unicode="&#x2019;" horiz-adv-x="475" d="M141 1059q17 60 36.5 204t19.5 214v14q30 27 73 27q36 0 59 -21.5t23 -60.5q0 -44 -32 -146t-64 -182l-31 -80z" />
<glyph unicode="&#x201a;" horiz-adv-x="487" d="M119 -285q18 57 36.5 196t18.5 214v22q31 25 74 25q37 0 59.5 -21t22.5 -59q0 -44 -32 -146.5t-64 -182.5l-31 -80z" />
<glyph unicode="&#x201c;" horiz-adv-x="763" d="M158 1110q0 44 32 146t64 182l33 80l82 -33q-18 -59 -37 -199.5t-19 -212.5v-20q-30 -25 -73 -25q-37 0 -59.5 21t-22.5 61zM434 1110q0 44 32 146t64 182l31 80l84 -33q-17 -60 -36 -203.5t-19 -214.5v-14q-31 -25 -74 -25q-37 0 -59.5 21t-22.5 61z" />
<glyph unicode="&#x201d;" horiz-adv-x="763" d="M119 1059q18 57 36.5 195.5t18.5 213.5v23q31 27 74 27q36 0 59 -21.5t23 -60.5q0 -44 -32 -146t-64 -182l-31 -80zM397 1059q16 63 35 202t19 209v21q30 27 73 27q36 0 59 -21.5t23 -60.5q0 -44 -32 -146t-64 -182l-31 -80z" />
<glyph unicode="&#x201e;" horiz-adv-x="763" d="M119 -285q18 57 36.5 196t18.5 214v22q31 25 74 25q37 0 59.5 -21t22.5 -59q0 -44 -32 -146.5t-64 -182.5l-31 -80zM397 -285q16 63 35 202.5t19 209.5v20q30 25 73 25q37 0 59.5 -21t22.5 -59q0 -44 -32 -146.5t-64 -182.5l-31 -80z" />
<glyph unicode="&#x2026;" horiz-adv-x="1556" d="M154 86q0 47 28 77t78 30t77.5 -30t27.5 -77q0 -49 -27.5 -79t-77.5 -30t-78 30t-28 79zM672 86q0 47 28 77t78 30t77.5 -30t27.5 -77q0 -49 -27.5 -79t-77.5 -30t-78 30t-28 79zM1190 86q0 47 28.5 77t79.5 30q48 0 76.5 -30t28.5 -77q0 -48 -28 -78.5t-77 -30.5 q-51 0 -79.5 30t-28.5 79z" />
<glyph unicode="&#x202f;" horiz-adv-x="480" />
<glyph unicode="&#x2030;" horiz-adv-x="2414" d="M115 1114q0 70 15.5 131.5t49.5 115t95 85t143 31.5t143 -31.5t95 -85t49.5 -115t15.5 -131.5q0 -69 -15.5 -130t-49.5 -113.5t-95 -83.5t-143 -31t-143 31t-95 83.5t-49.5 113.5t-15.5 130zM227 1114q0 -117 45.5 -190.5t145.5 -73.5t145 73.5t45 190.5q0 120 -45 194 t-145 74t-145.5 -74t-45.5 -194zM483 14l625 1463l90 -37l-627 -1463zM963 340q0 69 15.5 130t48.5 113.5t94 83.5t143 31t143 -31t95 -83.5t49.5 -113.5t15.5 -130q0 -70 -15.5 -131.5t-49.5 -115t-95 -85t-143 -31.5t-143 31.5t-94 85t-48.5 115t-15.5 131.5zM1075 340 q0 -120 44.5 -194t144.5 -74t145 74t45 194q0 117 -45 190.5t-145 73.5q-52 0 -89.5 -21t-59 -58.5t-31 -83t-9.5 -101.5zM1694 340q0 69 15.5 130t49.5 113.5t95 83.5t143 31t143 -31t94 -83.5t48.5 -113.5t15.5 -130q0 -70 -15.5 -131.5t-48.5 -115t-94 -85t-143 -31.5 t-143 31.5t-95 85t-49.5 115t-15.5 131.5zM1806 340q0 -120 45.5 -194t145.5 -74q99 0 143.5 74t44.5 194q0 55 -10 101t-31 83.5t-58.5 58.5t-88.5 21q-100 0 -145.5 -73.5t-45.5 -190.5z" />
<glyph unicode="&#x2039;" horiz-adv-x="755" d="M147 575l340 437l101 -72l-279 -365l279 -364l-101 -72z" />
<glyph unicode="&#x203a;" horiz-adv-x="755" d="M168 211l276 364l-276 365l98 72l342 -437l-342 -436z" />
<glyph unicode="&#x2044;" horiz-adv-x="559" d="M-78 14l625 1463l90 -37l-627 -1463z" />
<glyph unicode="&#x205f;" horiz-adv-x="601" />
<glyph unicode="&#x2070;" horiz-adv-x="870" d="M115 1128q0 72 7 131.5t28.5 119.5t56 100.5t93 66t136.5 25.5t136 -25.5t92.5 -66t55.5 -100.5t28.5 -119.5t7.5 -131.5t-7.5 -131.5t-28.5 -119t-55.5 -100t-92.5 -66t-136 -25.5t-136.5 25.5t-93 66t-56 100t-28.5 119t-7 131.5zM231 1128q0 -44 0.5 -71t5 -68t12 -66 t22.5 -55t36.5 -46.5t54 -28t74.5 -11.5q41 0 73.5 11.5t54 28t36.5 46t23 55.5t12 66t5 68t1 71t-1 71t-5 68t-12 66t-23 55.5t-36.5 46.5t-54 28.5t-73.5 11.5q-42 0 -74.5 -11.5t-54 -28t-36.5 -46.5t-22.5 -55.5t-12 -66.5t-5 -68t-0.5 -71z" />
<glyph unicode="&#x2074;" horiz-adv-x="776" d="M86 907v97l367 550h106v-553h117v-94h-117v-209h-110v209h-363zM190 1001h259v388z" />
<glyph unicode="&#x2075;" horiz-adv-x="778" d="M115 735l24 94q83 -47 205 -47q94 0 148.5 48.5t54.5 136.5q0 95 -51.5 144.5t-151.5 49.5q-99 0 -192 -39l24 434h438v-92h-340l-14 -229q60 16 109 16q143 0 218 -74t75 -204q0 -128 -82.5 -207.5t-225.5 -79.5q-128 0 -239 49z" />
<glyph unicode="&#x2076;" horiz-adv-x="813" d="M115 1104q0 73 9.5 137.5t34 126t61.5 106t95.5 71t133.5 26.5q53 0 103 -13.5t74 -26.5l23 -13l-39 -82q-7 4 -19.5 10.5t-54 17.5t-85.5 11q-204 0 -220 -275q85 51 195 51q133 0 202.5 -74t69.5 -202t-76.5 -208.5t-205.5 -80.5q-154 0 -227.5 110.5t-73.5 307.5z M231 1077q0 -295 185 -295q87 0 128.5 57.5t41.5 131.5q0 184 -170 184q-101 0 -185 -55v-23z" />
<glyph unicode="&#x2077;" horiz-adv-x="710" d="M109 1460v96h520v-59l-310 -797h-114l291 760h-387z" />
<glyph unicode="&#x2078;" horiz-adv-x="845" d="M115 920q0 85 45 144t108 93q-127 65 -127 193q0 104 77.5 161.5t201.5 57.5q130 0 206 -57t76 -158q0 -120 -137 -209q76 -34 120 -85.5t44 -135.5q0 -117 -83 -178.5t-226 -61.5t-224 61t-81 175zM229 926q0 -77 51.5 -113.5t141.5 -36.5t142 36t52 108 q0 34 -11.5 60.5t-28 43t-46.5 31.5t-53 22.5t-62 20t-61 20.5q-125 -61 -125 -192zM252 1356q0 -26 6.5 -47t21 -37t28 -27t38.5 -21t41.5 -16t48 -15.5t47.5 -14.5q109 69 109 176q0 62 -45 92.5t-125 30.5q-78 0 -124 -29.5t-46 -91.5z" />
<glyph unicode="&#x2079;" horiz-adv-x="813" d="M115 1282q0 128 76.5 208.5t205.5 80.5q154 0 227.5 -110.5t73.5 -307.5q0 -73 -9.5 -137.5t-33.5 -126t-61 -106t-95.5 -71t-133.5 -26.5q-53 0 -103 13t-74 27l-24 13l39 82q7 -4 19.5 -10.5t54 -17.5t85.5 -11q60 0 103 22.5t66.5 64.5t35 86.5t15.5 101.5 q-85 -51 -195 -51q-133 0 -202.5 74t-69.5 202zM227 1286q0 -184 170 -184q99 0 187 55v23q0 295 -187 295q-87 0 -128.5 -57.5t-41.5 -131.5z" />
<glyph unicode="&#x207f;" horiz-adv-x="864" d="M109 614v740q57 29 146 50t185 21q165 0 245.5 -75.5t80.5 -245.5v-490h-117v496q0 58 -12.5 99.5t-30.5 64t-47 35t-53 15.5t-57 3q-63 0 -119 -8.5t-80 -17.5l-25 -9v-678h-116z" />
<glyph unicode="&#x2080;" horiz-adv-x="870" d="M115 104q0 72 7 131.5t28.5 119.5t56 100.5t93 66t136.5 25.5t136 -25.5t92.5 -66t55.5 -100.5t28.5 -119.5t7.5 -131.5t-7.5 -131.5t-28.5 -119t-55.5 -100t-92.5 -66t-136 -25.5t-136.5 25.5t-93 66t-56 100t-28.5 119t-7 131.5zM231 104q0 -44 0.5 -71t5 -68t12 -66 t22.5 -55t36.5 -46.5t54 -28t74.5 -11.5q41 0 73.5 11.5t54 28t36.5 46t23 55.5t12 66t5 68t1 71t-1 71t-5 68t-12 66t-23 55.5t-36.5 46.5t-54 28.5t-73.5 11.5q-42 0 -74.5 -11.5t-54 -28t-36.5 -46.5t-22.5 -55.5t-12 -66.5t-5 -68t-0.5 -71z" />
<glyph unicode="&#x2081;" horiz-adv-x="583" d="M92 420l199 112h100v-856h-108v756l-150 -86z" />
<glyph unicode="&#x2082;" horiz-adv-x="753" d="M115 467q4 3 12 8.5t33.5 19.5t53.5 24.5t70 19t85 8.5q128 0 199 -71.5t71 -180.5q0 -154 -182 -336l-189 -186h371v-97h-518v95l252 256q87 88 121 149t34 117q0 73 -44.5 115.5t-131.5 42.5q-101 0 -194 -62z" />
<glyph unicode="&#x2083;" horiz-adv-x="772" d="M115 -289l24 88q88 -41 205 -41q96 0 147.5 36.5t51.5 127.5q0 92 -56.5 128t-164.5 36h-20t-20 -0.5t-16.5 -1t-12.5 -0.5h-5v92h80q95 0 146.5 39.5t51.5 110.5q0 62 -38.5 93.5t-125.5 31.5q-123 0 -204 -45l-35 81q4 2 11 6.5t31.5 14.5t51 18t68.5 14.5t86 6.5 q139 0 202.5 -58.5t63.5 -152.5q0 -149 -152 -197q78 -20 125 -75t47 -148q0 -126 -85.5 -190t-225.5 -64q-62 0 -119.5 12t-84.5 24z" />
<glyph unicode="&#x2084;" horiz-adv-x="776" d="M88 -20l367 552h106v-552h117v-97h-117v-207h-108v207h-363zM193 -20h260v387z" />
<glyph unicode="&#x2085;" horiz-adv-x="778" d="M115 -289l24 94q83 -47 205 -47q94 0 148.5 48.5t54.5 136.5q0 95 -51.5 144.5t-151.5 49.5q-99 0 -192 -39l24 434h438v-92h-340l-14 -229q60 16 109 16q143 0 218 -74t75 -204q0 -128 -82.5 -207.5t-225.5 -79.5q-128 0 -239 49z" />
<glyph unicode="&#x2086;" horiz-adv-x="813" d="M115 80q0 73 9.5 137.5t34 126t61.5 106t95.5 71t133.5 26.5q53 0 103 -13.5t74 -26.5l23 -13l-39 -82q-7 4 -19.5 10.5t-54 17.5t-85.5 11q-204 0 -220 -275q85 51 195 51q133 0 202.5 -74t69.5 -202t-76.5 -208.5t-205.5 -80.5q-154 0 -227.5 110.5t-73.5 307.5z M231 53q0 -295 185 -295q87 0 128.5 57.5t41.5 131.5q0 184 -170 184q-101 0 -185 -55v-23z" />
<glyph unicode="&#x2087;" horiz-adv-x="727" d="M109 436v96h520v-59l-310 -797h-114l291 760h-387z" />
<glyph unicode="&#x2088;" horiz-adv-x="845" d="M115 -104q0 85 45 144t108 93q-127 65 -127 193q0 104 77.5 161.5t201.5 57.5q125 0 203.5 -58t78.5 -157q0 -120 -137 -209q76 -34 120 -85.5t44 -135.5q0 -118 -81 -179t-224 -61q-145 0 -227 61t-82 175zM229 -98q0 -77 51.5 -113.5t141.5 -36.5t142 36t52 108 q0 34 -11.5 60.5t-28 43t-46.5 31.5t-53 22.5t-62 20t-61 20.5q-125 -61 -125 -192zM252 332q0 -26 6.5 -47t21 -37t28 -27t38.5 -21t41.5 -16t48 -15.5t47.5 -14.5q109 69 109 176q0 62 -45 92.5t-125 30.5q-78 0 -124 -29.5t-46 -91.5z" />
<glyph unicode="&#x2089;" horiz-adv-x="813" d="M115 258q0 128 76.5 208.5t205.5 80.5q154 0 227.5 -110.5t73.5 -307.5q0 -73 -9.5 -137.5t-33.5 -126t-61 -106t-95.5 -71t-133.5 -26.5q-53 0 -103 13t-74 27l-24 13l39 82q7 -4 19.5 -10.5t54 -17.5t85.5 -11q60 0 103 22.5t66.5 64.5t35 86.5t15.5 101.5 q-85 -51 -195 -51q-133 0 -202.5 74t-69.5 202zM227 262q0 -184 170 -184q99 0 187 55v23q0 295 -187 295q-87 0 -128.5 -57.5t-41.5 -131.5z" />
<glyph unicode="&#x20ac;" horiz-adv-x="1269" d="M109 512v100h143q-4 37 -4 113l4 127h-143v98h155q86 504 565 504q92 0 175.5 -16.5t121.5 -32.5l37 -16l-39 -111q-11 6 -32.5 14.5t-93.5 22.5t-150 14q-89 0 -160 -21.5t-117.5 -56.5t-80.5 -86t-51.5 -102t-28.5 -113h610l-33 -98h-588q-4 -45 -4 -125q0 -76 2 -115 h512l-30 -100h-471q13 -80 39 -144t75 -121.5t131.5 -89.5t194.5 -32q78 0 147 12.5t99 25.5l30 13l39 -110q-14 -7 -41 -18t-114 -29.5t-179 -18.5q-484 0 -567 512h-153z" />
<glyph unicode="&#x2122;" horiz-adv-x="1103" d="M63 1364v76h373v-76h-145v-403h-86v403h-142zM500 961l39 479h112l105 -297l106 297h113l35 -479h-80l-31 385l-100 -304h-86l-103 308l-26 -389h-84z" />
<glyph unicode="&#x2190;" horiz-adv-x="1835" d="M119 725l729 727l82 -82l-588 -584h1333v-122h-1331l586 -586l-82 -82z" />
<glyph unicode="&#x2191;" horiz-adv-x="1703" d="M123 748l729 729l727 -729l-82 -82l-586 585v-1251h-120v1251l-586 -585z" />
<glyph unicode="&#x2192;" horiz-adv-x="1835" d="M160 664v122h1331l-586 586l82 82l729 -729l-729 -727l-82 82l588 584h-1333z" />
<glyph unicode="&#x2193;" horiz-adv-x="1703" d="M123 707l82 81l586 -587v1253h120v-1251l586 585l82 -81l-729 -730z" />
<glyph unicode="&#x2202;" horiz-adv-x="1212" d="M104 391q0 220 128.5 350.5t349.5 130.5q188 0 344 -102q4 51 4 137q0 92 -15.5 170t-50 147.5t-100 109.5t-156.5 40q-61 0 -116.5 -17t-90.5 -41.5t-61 -49t-38 -41.5l-11 -17l-51 121q5 6 15.5 16t46.5 35.5t76 45t104 35.5t132 16q109 0 193 -35t136 -92.5t85 -138.5 t46 -164.5t13 -178.5q0 -91 -7.5 -176.5t-26.5 -176t-47.5 -167.5t-74 -146.5t-103.5 -118.5t-138.5 -77.5t-175.5 -28.5q-198 0 -304 114.5t-106 299.5zM264 389q0 -44 6.5 -84.5t24 -82.5t45.5 -72t74 -49t106 -19q68 0 125 24.5t97.5 69t71.5 99t51.5 123t33 133 t19.5 135.5q-149 106 -316 106q-83 0 -146.5 -28t-98.5 -69t-57 -96t-29 -100t-7 -90z" />
<glyph unicode="&#x2206;" horiz-adv-x="1525" d="M113 0l567 1454h166l565 -1454h-1298zM301 127h922l-459 1173z" />
<glyph unicode="&#x220f;" horiz-adv-x="1634" d="M98 1323v131h1438v-131h-311v-1569h-146v1569h-522v-1569h-145v1569h-314z" />
<glyph unicode="&#x2211;" horiz-adv-x="1202" d="M145 -117l549 721l-549 721v129h912v-127h-738l547 -723l-547 -723h738v-127h-912v129z" />
<glyph unicode="&#x221a;" horiz-adv-x="1615" d="M88 754l375 133l362 -1028l592 1697h146l-633 -1804h-209l-348 975l-248 -90z" />
<glyph unicode="&#x221e;" horiz-adv-x="1644" d="M117 676q0 139 92.5 224t218.5 85q181 0 393 -229q44 46 82 80.5t89.5 71.5t107.5 57t112 20q132 0 224 -89t92 -220q0 -139 -94 -222t-220 -83q-78 0 -159 37.5t-135 84t-99 101.5q-187 -223 -391 -223q-128 0 -220.5 83t-92.5 222zM229 676q0 -89 59 -144t144 -55 q149 0 320 199q-181 196 -328 196q-86 0 -140.5 -57t-54.5 -139zM895 676q164 -199 317 -199q83 0 144 55t61 144q0 90 -60.5 144t-144.5 54q-148 -12 -317 -198z" />
<glyph unicode="&#x222b;" horiz-adv-x="940" d="M70 -408l28 119l8 -3q7 -4 17.5 -8.5t25 -8.5t35.5 -7t43 -3q92 0 126 50t34 144v1278q0 324 289 324q49 0 92.5 -10.5t62.5 -20.5l19 -10l-27 -119l-7 4q-8 4 -19 8t-26 8.5t-36 7.5t-43 3q-92 0 -126 -50.5t-34 -144.5v-1278q0 -176 -76.5 -250t-211.5 -74 q-49 0 -92.5 10.5t-62.5 20.5z" />
<glyph unicode="&#x2248;" horiz-adv-x="1134" d="M150 389q4 6 11 15.5t31.5 33.5t51.5 43t69.5 34t87.5 15q47 0 95.5 -17.5t81.5 -38.5t75 -38.5t78 -17.5q32 0 64 11.5t54 28t40 33t27 27.5l8 12l61 -79q-4 -6 -11 -15.5t-31.5 -34t-51.5 -43t-70 -34t-88 -15.5q-47 0 -94 17.5t-80 39t-74.5 39t-78.5 17.5 q-32 0 -64 -11.5t-54.5 -28t-40.5 -33.5t-27 -29l-9 -11zM150 768q4 6 11 15.5t31.5 33.5t51.5 43t69.5 34t87.5 15q47 0 95.5 -17.5t81.5 -38.5t75 -38.5t78 -17.5q32 0 64 11.5t54 28t40 33t27 28.5l8 11l61 -80q-4 -6 -11 -15.5t-31.5 -33.5t-51.5 -43t-70 -34t-88 -15 q-47 0 -94 17.5t-80 39t-74.5 39t-78.5 17.5q-32 0 -64 -11.5t-54.5 -28t-40.5 -33.5t-27 -28l-9 -12z" />
<glyph unicode="&#x2260;" horiz-adv-x="1120" d="M150 324v108h249l179 330h-428v110h487l143 263l88 -52l-114 -211h215v-110h-277l-178 -330h455v-108h-512l-144 -265l-88 50l117 215h-192z" />
<glyph unicode="&#x2264;" horiz-adv-x="1171" d="M154 0v102h833v-102h-833zM154 666v118l796 394l45 -101l-710 -352l710 -352l-45 -101z" />
<glyph unicode="&#x2265;" horiz-adv-x="1171" d="M176 373l709 352l-709 352l43 101l799 -394v-118l-799 -394zM184 0v102h834v-102h-834z" />
<glyph unicode="&#x25fc;" horiz-adv-x="1136" d="M0 0v1137h1137v-1137h-1137z" />
<glyph unicode="&#xfb06;" horiz-adv-x="1773" d="M111 852q0 86 37.5 148t102 94t136.5 46.5t156 14.5q69 0 137 -10q-43 30 -68.5 81.5t-25.5 114.5q0 108 82.5 178t234.5 70q123 0 233.5 -39t155.5 -71v-346h371v-121h-371v-647q0 -130 45 -195.5t158 -65.5q42 0 86 8.5t67 16.5l23 8l21 -121q-82 -39 -207 -39 q-163 0 -251.5 92t-88.5 302v1044q-11 5 -31 12.5t-81 20t-120 12.5q-208 0 -208 -153q0 -74 44 -128t99 -67l-27 -121q-116 37 -270 37q-142 0 -219.5 -44t-77.5 -130q0 -36 15 -65t37 -48.5t63 -38t75 -30t91 -27.5q45 -13 75.5 -23t73 -27.5t70.5 -35t58.5 -44.5 t48.5 -57.5t30 -72t12 -90.5q0 -160 -115.5 -239t-318.5 -79q-84 0 -167.5 13t-125.5 26l-41 13l25 123q15 -5 42 -13t106.5 -21.5t154.5 -13.5q299 0 299 187q0 39 -14.5 70t-37 52.5t-62 41t-75 31.5t-90.5 28q-48 14 -79 24.5t-74.5 28t-71 34.5t-58.5 43t-48.5 55 t-29 68t-11.5 85z" />
<glyph horiz-adv-x="1175" d="M113 772q0 179 117 281t315 102q144 0 252 -57q46 44 120 78t158 34l49 -4v-131q-16 2 -41 2q-111 0 -204 -41q98 -103 98 -264q0 -179 -116.5 -281t-315.5 -102q-98 0 -187 29q-65 -58 -65 -123q0 -78 108 -84l301 -18q54 -3 100.5 -12.5t95.5 -31t83 -53t56 -83.5 t22 -119q0 -165 -132 -254t-401 -89q-109 0 -206.5 14.5t-139.5 28.5l-43 15l31 123q14 -6 42 -15t124.5 -24t204.5 -15q374 0 374 209q0 39 -14.5 69t-35.5 46.5t-52 27.5t-56 15t-57 6l-325 23q-105 7 -159 59t-54 131q0 111 102 201q-149 105 -149 307zM258 772 q0 -126 74 -194t213 -68t212.5 68t73.5 196q0 126 -72.5 193t-213.5 67q-139 0 -213 -68t-74 -194z" />
<glyph horiz-adv-x="1122" d="M53 -414l29 117q65 -25 151 -25q98 0 163 72t126 250h-67l-402 1133h150l358 -1029l361 1029h147l-399 -1125q-33 -97 -61 -162t-65.5 -125.5t-79 -95t-98 -54.5t-126.5 -20q-52 0 -98.5 8.5t-67.5 17.5z" />
<glyph horiz-adv-x="1175" d="M113 772q0 179 117 281t315 102q144 0 252 -57q46 44 120 78t158 34l49 -4v-131q-16 2 -41 2q-111 0 -204 -41q98 -103 98 -264q0 -179 -116.5 -281t-315.5 -102q-98 0 -187 29q-65 -58 -65 -123q0 -78 108 -84l301 -18q54 -3 100.5 -12.5t95.5 -31t83 -53t56 -83.5 t22 -119q0 -165 -132 -254t-401 -89q-109 0 -206.5 14.5t-139.5 28.5l-43 15l31 123q14 -6 42 -15t124.5 -24t204.5 -15q374 0 374 209q0 39 -14.5 69t-35.5 46.5t-52 27.5t-56 15t-57 6l-325 23q-105 7 -159 59t-54 131q0 111 102 201q-149 105 -149 307zM258 772 q0 -126 74 -194t213 -68t212.5 68t73.5 196q0 126 -72.5 193t-213.5 67q-139 0 -213 -68t-74 -194zM303 1530l90 35q1 -6 2.5 -17t13 -38t28.5 -48t52 -38t80 -17t79.5 16.5t52 39.5t28.5 46t13 39l3 17l89 -35q-1 -5 -2.5 -13.5t-9 -32.5t-18 -46t-31.5 -48.5t-47.5 -46 t-67 -32.5t-89.5 -13q-67 0 -119 24t-78.5 58t-43.5 68t-21 58z" />
<glyph horiz-adv-x="1122" d="M53 -414l29 117q65 -25 151 -25q98 0 163 72t126 250h-67l-402 1133h150l358 -1029l361 1029h147l-399 -1125q-33 -97 -61 -162t-65.5 -125.5t-79 -95t-98 -54.5t-126.5 -20q-52 0 -98.5 8.5t-67.5 17.5zM485 1356l289 250l80 -93l-307 -235z" />
<glyph horiz-adv-x="1122" d="M53 -414l29 117q65 -25 151 -25q98 0 163 72t126 250h-67l-402 1133h150l358 -1029l361 1029h147l-399 -1125q-33 -97 -61 -162t-65.5 -125.5t-79 -95t-98 -54.5t-126.5 -20q-52 0 -98.5 8.5t-67.5 17.5zM281 1430q0 39 22.5 61t63.5 22q40 0 63 -22.5t23 -60.5 q0 -40 -23.5 -64.5t-62.5 -24.5q-41 0 -63.5 24.5t-22.5 64.5zM680 1430q0 39 22.5 61t63.5 22q40 0 63 -22.5t23 -60.5q0 -40 -23.5 -64.5t-62.5 -24.5q-41 0 -63.5 24.5t-22.5 64.5z" />
<glyph horiz-adv-x="1146" d="M166 0v1556h145v-491q145 90 326 90q97 0 171.5 -26.5t118 -73t65.5 -104t22 -124.5q0 -124 -75 -212.5t-226 -122.5l129 -240q36 -67 72 -99t96 -32q16 0 33.5 3t26.5 6l9 3l8 -115q-38 -22 -110 -22q-84 0 -143 41.5t-107 130.5l-166 305h-26q-95 0 -224 21v-494h-145z M311 606q111 -12 195 -12q192 0 276 55.5t84 169.5q0 104 -66 156.5t-190 52.5q-98 0 -175 -26.5t-124 -59.5v-336z" />
<glyph horiz-adv-x="507" d="M158 70q0 43 25 65.5t71 22.5q43 0 68.5 -23t25.5 -65q0 -44 -25.5 -68.5t-68.5 -24.5q-46 0 -71 24.5t-25 68.5zM174 1210h158l-23 -952h-112z" />
<glyph horiz-adv-x="1333" d="M98 264l11 107h215l53 469h-215l12 106h213l31 264h127l-31 -264h358l31 264h127l-31 -264h218l-13 -106h-215l-53 -469h215l-12 -107h-215l-29 -264h-127l29 264h-359l-28 -264h-127l28 264h-213zM451 371h358l53 469h-358z" />
<glyph horiz-adv-x="1044" d="M121 903q0 74 26.5 130t74 90.5t105.5 54t130 26.5v189h123v-183q74 -2 145.5 -12.5t106.5 -20.5l34 -10l-28 -120q-7 4 -38.5 12.5t-95 18.5t-124.5 12v-422q45 -14 74 -24.5t68.5 -28t65.5 -35t54 -43.5t44.5 -55t27 -68.5t10.5 -85.5q0 -144 -89 -225t-255 -99v-180 h-123v176q-82 2 -161 13.5t-117 22.5l-38 11l25 119q117 -41 291 -45v454q-61 19 -101 34.5t-89 43.5t-77.5 60t-48.5 81t-20 109zM266 903q0 -74 49 -116.5t142 -77.5v372q-93 -15 -142 -60.5t-49 -117.5zM580 127q100 17 149 69t49 130q0 81 -52 129t-146 82v-410z" />
<glyph horiz-adv-x="1519" d="M115 940q0 123 71 208t207 85t207.5 -85t71.5 -208q0 -125 -71 -210t-208 -85q-70 0 -124.5 24t-87.5 66t-49.5 94t-16.5 111zM223 940q0 -98 44.5 -153.5t125.5 -55.5q79 0 124.5 56t45.5 153q0 96 -45.5 151.5t-124.5 55.5q-81 0 -125.5 -55.5t-44.5 -151.5zM406 23 l618 1210l86 -43l-618 -1213zM850 272q0 123 70.5 208t205.5 85q71 0 125.5 -24t87.5 -65.5t49.5 -93t16.5 -110.5q0 -80 -28 -144.5t-93 -107.5t-158 -43q-134 0 -205 85.5t-71 209.5zM956 272q0 -97 45.5 -153t124.5 -56q81 0 125.5 55.5t44.5 153.5q0 97 -44.5 153 t-125.5 56q-79 0 -124.5 -56.5t-45.5 -152.5z" />
<glyph horiz-adv-x="1329" d="M119 340q0 72 21 130.5t61.5 100.5t83 71t102.5 58q-119 127 -119 271q0 114 74.5 188t222.5 74q147 0 219 -72.5t72 -183.5q0 -60 -19.5 -107.5t-59 -83.5t-79 -60.5t-98.5 -51.5q22 -16 365 -355q77 140 77 345h121q0 -254 -102 -424l180 -170l-78 -95l-178 166 q-150 -164 -420 -164q-215 0 -330.5 99t-115.5 264zM256 346q0 -122 84.5 -187t228.5 -65q212 0 318 129l-410 395q-50 -24 -85 -45.5t-68.5 -54t-50.5 -75.5t-17 -97zM399 967q0 -114 107 -217q51 23 84.5 42t67.5 46.5t50.5 62.5t16.5 78q0 67 -42 106t-118 39t-121 -40 t-45 -117z" />
<glyph horiz-adv-x="1058" d="M143 496q0 77 31 132t78 87q-109 84 -109 225q0 66 23.5 118t62 85.5t92.5 55.5t111 31t121 9q80 0 156.5 -12.5t112.5 -24.5l36 -12l-27 -113q-8 4 -39 12.5t-96.5 18.5t-130.5 10q-130 0 -204 -45.5t-74 -134.5q0 -23 5 -43.5t18 -38t24 -30.5t34.5 -26.5t38.5 -22 t47 -20.5t47.5 -17.5t52.5 -17.5t52 -17q68 -23 115 -45t95.5 -59t73.5 -92t25 -128q0 -135 -98 -217q98 -84 98 -219q0 -153 -112.5 -232.5t-310.5 -79.5q-82 0 -164.5 13t-123.5 26l-42 13l28 116q14 -6 46 -15t108 -21.5t150 -12.5q136 0 207 50t71 141q0 41 -18 75 t-38.5 54.5t-69 43t-74 31t-88.5 28.5l-9 3q-50 15 -82.5 26.5t-75.5 31t-70.5 42t-53 53.5t-38 72.5t-12.5 92.5zM281 512q0 -44 17 -77.5t51.5 -58t69 -40t87.5 -33.5q161 -53 209 -78q71 48 71 140q0 48 -17.5 85t-52 63t-70.5 42.5t-89 34.5q-25 9 -91.5 30t-100.5 35 q-84 -39 -84 -143z" />
<glyph horiz-adv-x="892" d="M61 881q0 81 21 143t68.5 110t131 73.5t201.5 25.5q75 0 140 -8.5t93 -16.5l27 -8v-934q0 -45 -6 -87t-24.5 -89t-47.5 -81.5t-80 -57.5t-118 -23q-30 0 -70 4v117q12 -2 49 -2q25 0 45 4t43.5 18t39 37t26 64.5t10.5 97.5v854h-110v-604h-86q-178 0 -265.5 98t-87.5 265 z" />
<glyph horiz-adv-x="489" d="M119 606q0 105 14 203t37 171t50.5 137t55 107t50.5 74.5t37 45.5l14 14l88 -64q-8 -9 -22 -26.5t-49.5 -81t-62.5 -136.5t-49 -193t-22 -251t21 -250t51 -195t60.5 -134t51.5 -83l21 -26l-88 -63l-14.5 14.5t-36.5 44.5t-51 75t-54 106t-51.5 137.5t-36 170t-14.5 203.5 z" />
<glyph horiz-adv-x="653" d="M47 0l410 1210h137l-410 -1210h-137z" />
<glyph horiz-adv-x="438" d="M59 -82q8 9 22 26.5t50 81t63 136.5t49.5 193t22.5 251q0 95 -11.5 184.5t-29.5 156.5t-40 125.5t-44.5 98t-40.5 68.5t-30 42l-11 13l88 64l14.5 -14.5t36.5 -44.5t51.5 -75t54.5 -106t51.5 -138t36 -170.5t14.5 -203.5t-14.5 -203t-37 -171t-50 -137t-55.5 -107 t-50.5 -74t-36.5 -45l-15 -14z" />
<glyph horiz-adv-x="589" d="M176 -115v1438h352v-102h-217v-1231h217v-105h-352z" />
<glyph horiz-adv-x="653" d="M57 1210h138l409 -1210h-137z" />
<glyph horiz-adv-x="589" d="M61 -10h218v1231h-218v102h353v-1438h-353v105z" />
<glyph horiz-adv-x="630" d="M133 551v108q76 0 98.5 33.5t22.5 112.5v325q0 99 51 148t164 49h100v-102h-75q-61 0 -83 -23t-22 -78v-317q0 -164 -100 -203q100 -39 100 -201v-317q0 -55 22 -77.5t83 -22.5h75v-103h-100q-113 0 -164 49t-51 148v326q0 79 -22.5 112t-98.5 33z" />
<glyph horiz-adv-x="589" d="M233 -117v1428h123v-1428h-123z" />
<glyph horiz-adv-x="630" d="M61 -14h76q61 0 83 22.5t22 77.5v317q0 80 22.5 130t77.5 71q-55 21 -77.5 71.5t-22.5 131.5v317q0 55 -22 78t-83 23h-76v102h101q113 0 164 -49t51 -148v-325q0 -79 22.5 -112.5t98.5 -33.5v-108q-76 0 -98.5 -33t-22.5 -112v-326q0 -99 -51 -148t-164 -49h-101v103z " />
<glyph horiz-adv-x="1161" d="M125 606q0 113 11 201t41.5 171t80.5 136.5t132 86t192 32.5t191 -32.5t131 -86t80 -136.5t41 -171t11 -201t-11 -201.5t-41 -171.5t-80 -137t-131 -86.5t-191 -32.5t-192 32.5t-132 86.5t-80.5 137t-41.5 171.5t-11 201.5zM274 606q0 -44 0.5 -73.5t3.5 -74.5t8.5 -76.5 t16.5 -71.5t26.5 -67t39 -55.5t53 -45t70.5 -27.5t90 -11t89.5 11t70 27.5t52.5 45t38 55.5t26 67.5t16.5 71t8.5 76.5t3.5 75t0.5 73t-0.5 72.5t-3.5 74t-8.5 76.5t-16.5 71t-26 67t-38 55.5t-52.5 45t-70 27.5t-89.5 11t-90 -11t-70.5 -27.5t-53 -45t-39 -55.5t-26.5 -67 t-16.5 -71t-8.5 -76t-3.5 -74t-0.5 -73z" />
<glyph horiz-adv-x="747" d="M63 1018l312 192h131v-1210h-148v1057l-237 -142z" />
<glyph horiz-adv-x="1054" d="M109 1112q7 5 19 13t53.5 29t86 37t113 29t137.5 13q102 0 179 -28t121 -77t65.5 -107.5t21.5 -125.5q0 -140 -88 -274t-272 -304q-133 -120 -205 -192h565v-125h-772v123q134 129 275 260q194 179 272 288t78 218q0 105 -65 161t-195 56q-89 0 -172 -27t-122 -53 l-38 -27z" />
<glyph horiz-adv-x="1030" d="M84 55l39 115q12 -7 34.5 -18t100 -29.5t164.5 -18.5q338 0 338 246q0 125 -88 177.5t-256 52.5h-113v120q86 -4 119 -4q162 0 234.5 56t72.5 161q0 94 -63 143.5t-213 49.5q-84 0 -161 -16.5t-112 -33.5l-35 -16l-39 115q5 3 15 8.5t44 19t72 23.5t99 18.5t125 8.5 q113 0 194.5 -24t127 -67t66.5 -96t21 -118q0 -116 -55 -183t-135 -98q227 -69 227 -303q0 -179 -127 -273t-356 -94q-64 0 -122.5 8t-96.5 19.5t-66.5 23t-41.5 19.5z" />
<glyph horiz-adv-x="1079" d="M72 389l598 821h147v-821h182v-127h-182v-262h-147v262h-596zM211 389h459v623z" />
<glyph horiz-adv-x="1062" d="M119 51l39 117q4 -3 13 -7t39 -15t63.5 -19.5t87 -15.5t110.5 -7q162 0 242 70t80 203q0 274 -316 274q-73 0 -147.5 -12.5t-113.5 -25.5l-38 -13l39 610h649v-127h-510l-22 -327q1 0 9.5 2t24.5 5t37 6t51.5 5t63.5 2q202 0 312 -102.5t110 -294.5q0 -181 -116 -291.5 t-339 -110.5q-108 0 -200 18.5t-130 36.5z" />
<glyph horiz-adv-x="1095" d="M125 586q0 107 14 197.5t49.5 175.5t91 144t143 94.5t200.5 35.5q83 0 154.5 -16t101.5 -32l30 -16l-39 -112q-10 5 -28 13.5t-81 22t-132 13.5q-83 0 -145 -25.5t-99.5 -66t-62 -101.5t-34.5 -119t-14 -132q141 96 320 96q189 0 292 -105t103 -278q0 -83 -25.5 -154 t-76 -126t-131.5 -86.5t-185 -31.5q-124 0 -213 45.5t-139 130.5t-72 191t-22 242zM272 526q1 -68 7.5 -123t26 -113t51.5 -97t87.5 -64t130.5 -25q74 0 129 23t86 62.5t45.5 85.5t14.5 98q0 35 -5.5 66.5t-23 68t-45.5 62.5t-78.5 43.5t-117.5 17.5q-167 0 -308 -105z" />
<glyph horiz-adv-x="944" d="M92 1085v125h758v-104l-442 -1106h-154l434 1085h-596z" />
<glyph horiz-adv-x="1146" d="M117 328q0 67 19 123t51 93t64 61t68 40q-73 38 -114 107.5t-41 165.5q0 150 110.5 232.5t298.5 82.5q186 0 297 -81t111 -226q0 -99 -48.5 -170t-117.5 -111q217 -68 217 -307q0 -177 -119 -269t-338 -92q-218 0 -338 91t-120 260zM264 342q0 -126 84 -185t223 -59 q141 0 226.5 59t85.5 179q0 53 -19.5 91.5t-48.5 60t-77 38t-90.5 24.5t-104 20t-103.5 24q-176 -78 -176 -252zM309 913q0 -27 6 -49.5t14 -40t25.5 -33t31.5 -26t42 -21t47 -16.5t56 -14.5t59 -12.5t67 -12l31 -6q150 75 150 229q0 100 -72.5 152.5t-190.5 52.5 q-119 0 -192.5 -52t-73.5 -151z" />
<glyph horiz-adv-x="1095" d="M106 836q0 83 26 154t76.5 125.5t131.5 86t184 31.5q447 0 447 -608q0 -107 -14 -198t-49.5 -176t-91 -144t-143 -94.5t-200.5 -35.5q-82 0 -153.5 16t-102.5 32l-31 16l39 113q10 -6 28.5 -14t81.5 -22t132 -14q83 0 145 25.5t99.5 66t61.5 101.5t33.5 119.5t12.5 132.5 q-135 -96 -317 -96q-189 0 -292.5 105t-103.5 278zM248 838q0 -35 5 -66.5t22.5 -68t45.5 -62.5t78 -43.5t117 -17.5q168 0 307 104q-1 48 -4.5 87.5t-12 84.5t-22.5 79.5t-37 68t-54 55t-75 34.5t-98 13q-74 0 -128.5 -23t-85 -62.5t-44.5 -85t-14 -97.5z" />
<glyph horiz-adv-x="978" d="M90 1153q6 3 16.5 8.5t46.5 19.5t76 24.5t103 19t129 8.5q192 0 292.5 -82.5t100.5 -214.5q0 -69 -21.5 -122t-56 -85.5t-76 -59t-83.5 -49.5t-76.5 -48t-56 -63t-21.5 -87q0 -60 8 -96h-137q-17 57 -17 112q0 58 17 104t44.5 75t62.5 54.5t72 43t72 39.5t62.5 44.5 t44.5 58t17 79.5q0 79 -64 126.5t-192 47.5q-84 0 -164.5 -18t-118.5 -36l-39 -18zM309 70q0 88 94 88q45 0 71 -23t26 -65q0 -44 -26 -68.5t-71 -24.5t-69.5 24.5t-24.5 68.5z" />
<glyph horiz-adv-x="1236" d="M68 0l456 1210h187l460 -1210h-153l-127 344h-547l-125 -344h-151zM387 459h461l-230 628z" />
<glyph horiz-adv-x="1177" d="M174 14v1182q195 37 383 37q252 0 363.5 -83.5t111.5 -240.5q0 -125 -59.5 -192t-167.5 -94q136 -30 202 -102t66 -197q0 -170 -123 -258.5t-397 -88.5q-84 0 -178.5 9.5t-147.5 18.5zM322 111q93 -13 221 -13q208 0 295.5 53.5t87.5 174.5q0 51 -13.5 89.5t-40.5 63.5 t-58.5 41t-77 24t-86 10.5t-95.5 2.5h-233v-446zM322 672h208q64 0 111 4t96 18t80 38t50.5 66.5t19.5 100.5q0 113 -76.5 163t-247.5 50q-111 0 -241 -14v-426z" />
<glyph horiz-adv-x="1067" d="M106 606q0 107 18 198.5t59.5 171.5t103.5 136.5t154 88.5t208 32q84 0 163.5 -14.5t117.5 -29.5l37 -15l-35 -113q-13 5 -37 12.5t-96 20t-140 12.5q-100 0 -176 -34t-119 -84.5t-69 -120.5t-34.5 -130.5t-8.5 -126.5q0 -70 8.5 -133t35.5 -134t70 -121.5t118.5 -84 t174.5 -33.5q68 0 136.5 11.5t102.5 22.5l34 12l35 -113q-15 -7 -41.5 -17t-109.5 -26.5t-167 -16.5q-115 0 -207.5 33t-154.5 90t-103.5 137.5t-59.5 172t-18 196.5z" />
<glyph horiz-adv-x="1236" d="M174 12v1186q193 35 373 35q161 0 272.5 -38t180.5 -118t99.5 -194.5t30.5 -276.5q0 -327 -135.5 -478t-449.5 -151q-81 0 -173.5 8.5t-145.5 17.5zM322 117q119 -13 225 -13q85 0 147 11.5t119.5 44t93.5 88t57 147t21 217.5q0 272 -99.5 383t-338.5 111 q-118 0 -225 -14v-975z" />
<glyph horiz-adv-x="1091" d="M164 420v790h799v-125h-652v-399h572v-117h-572v-159q0 -169 86.5 -237.5t282.5 -68.5q76 0 147.5 8.5t104.5 16.5l33 8v-125q-122 -35 -310 -35q-259 0 -375 110t-116 333z" />
<glyph horiz-adv-x="1052" d="M174 0v1210h787v-125h-639v-415h559v-121h-559v-549h-148z" />
<glyph horiz-adv-x="1169" d="M106 604q0 135 32 246.5t98 198.5t177 135.5t259 48.5q84 0 170.5 -14.5t131.5 -29.5l44 -15l-37 -113q-139 45 -289 45q-109 0 -191.5 -33t-128.5 -82.5t-74.5 -120t-37 -133.5t-8.5 -135q0 -498 438 -498q79 0 191 19v498h141v-588q-45 -17 -142.5 -36.5t-199.5 -19.5 q-123 0 -220.5 32.5t-163 89.5t-109 137t-62.5 171t-19 197z" />
<glyph horiz-adv-x="1300" d="M174 0v1210h148v-536h657v536h145v-1210h-145v547h-657v-547h-148z" />
<glyph horiz-adv-x="497" d="M176 0v1210h146v-1210h-146z" />
<glyph horiz-adv-x="782" d="M82 27l37 116q70 -39 176 -39q44 0 75.5 10t58 34.5t39.5 72t13 117.5v872h146v-868q0 -176 -80 -270.5t-244 -94.5q-59 0 -114.5 12.5t-80.5 24.5z" />
<glyph horiz-adv-x="1107" d="M174 0v1210h148v-559l544 559h183l-570 -585l338 -385q38 -44 57.5 -63.5t53 -37.5t71.5 -18q10 0 20.5 1t17.5 2.5t13 3l10 2.5l3 1v-119q-35 -16 -94 -16q-78 0 -140 39.5t-137 126.5l-370 426v-588h-148z" />
<glyph horiz-adv-x="962" d="M166 416v794h145v-802q0 -168 76.5 -236t267.5 -68q71 0 132 8.5t87 16.5l25 8v-125q-9 -4 -28 -10t-87 -15.5t-147 -9.5q-258 0 -364.5 105t-106.5 334z" />
<glyph horiz-adv-x="1513" d="M125 0l102 1210h193l336 -872l338 872h192l103 -1210h-146l-76 899l-6 154l-45 -148l-293 -762h-135l-291 758l-47 152l-6 -150l-76 -903h-143z" />
<glyph horiz-adv-x="1298" d="M174 0v1210h195l622 -1030l-8 131v899h141v-1210h-186l-633 1044l12 -131v-913h-143z" />
<glyph horiz-adv-x="1247" d="M106 606q0 140 28 251t88 197t162 132.5t241 46.5q138 0 239.5 -46.5t161 -132.5t87.5 -197t28 -251t-28 -251t-87.5 -197.5t-161 -133.5t-239.5 -47q-139 0 -241 47t-162 133.5t-88 197.5t-28 251zM252 606q0 -502 373 -502q368 0 368 502q0 500 -368 500 q-373 0 -373 -500z" />
<glyph horiz-adv-x="1148" d="M174 0v1198q189 35 367 35q140 0 240 -27t159 -80t86 -123t27 -163q0 -416 -518 -416q-36 0 -89.5 3t-88.5 6l-35 3v-436h-148zM322 555q81 -6 186 -6q98 0 167 12t123.5 42.5t81.5 86.5t27 139q0 154 -93 215.5t-273 61.5q-101 0 -219 -12v-539z" />
<glyph horiz-adv-x="1247" d="M106 606q0 139 28.5 250.5t88.5 197.5t162 132.5t240 46.5q137 0 238 -46.5t161 -132.5t88.5 -197.5t28.5 -250.5t-28.5 -250.5t-88.5 -198t-161 -133.5t-238 -47q-138 0 -240 47t-162 133.5t-88.5 198t-28.5 250.5zM252 606q0 -502 373 -502q368 0 368 502 q0 500 -368 500q-373 0 -373 -500zM571 -248l17 115l510 -51l-17 -129z" />
<glyph horiz-adv-x="1210" d="M174 0v1198q187 35 371 35q265 0 386.5 -92.5t121.5 -272.5q0 -294 -312 -356l166 -293q55 -98 133 -98q9 0 18.5 1t16 2.5t11.5 3t8 2.5l4 1v-119q-31 -16 -90 -16q-77 0 -132.5 41t-103.5 129l-182 330h-47q-39 0 -94.5 3t-90.5 6l-36 3v-508h-148zM322 629 q92 -8 213 -8q68 0 115 3.5t99.5 18t84 39.5t52.5 71t21 111q0 136 -87 189t-269 53q-101 0 -229 -14v-463z" />
<glyph horiz-adv-x="1077" d="M117 918q0 86 35.5 148.5t98.5 98t141 52t173 16.5q87 0 172 -11.5t127 -23.5l41 -12l-37 -119q-135 39 -303 39q-301 0 -301 -180q0 -23 5.5 -42.5t12 -35.5t22.5 -31.5t27.5 -25.5t37 -23t40 -20t49 -19.5t51 -18t56.5 -18.5q169 -55 235 -93q136 -78 157 -216 q4 -29 4 -61q0 -173 -121 -259t-342 -86q-95 0 -184.5 15t-131.5 30l-43 15l35 121q16 -6 45.5 -15t115.5 -24t167 -15q158 0 235.5 54t77.5 155q0 33 -9 60.5t-21 48t-37.5 39.5t-45.5 30.5t-60 27t-65 23.5t-75 23q-48 15 -81.5 26.5t-77 30.5t-73.5 37.5t-61 45.5 t-49.5 57t-30.5 70t-12 86z" />
<glyph horiz-adv-x="1069" d="M68 1085v125h933v-125h-393v-1085h-147v1085h-393z" />
<glyph horiz-adv-x="1292" d="M164 457v753h147v-755q0 -89 20.5 -155t51.5 -102.5t78 -58.5t89.5 -28.5t96.5 -6.5q53 0 95.5 6.5t89.5 28.5t78.5 58.5t52 102.5t20.5 155v755h145v-753q0 -480 -481 -480q-483 0 -483 480z" />
<glyph horiz-adv-x="1177" d="M68 1210h153l314 -909l55 -186l53 186l313 909h154l-424 -1210h-192z" />
<glyph horiz-adv-x="1720" d="M68 1210h153l252 -913l35 -154l35 154l245 854h144l246 -856l34 -154l35 154l250 915h156l-336 -1210h-191l-239 829l-29 119l-24 -119l-240 -829h-188z" />
<glyph horiz-adv-x="1155" d="M66 0l417 608l-417 602h167l345 -505l344 505h168l-420 -602l420 -608h-166l-346 500l-345 -500h-167z" />
<glyph horiz-adv-x="1118" d="M55 1210h160l342 -618l346 618h160l-430 -743v-467h-146v465z" />
<glyph horiz-adv-x="1103" d="M129 0v125l657 960h-647v125h824v-127l-658 -958h670v-125h-846z" />
<glyph horiz-adv-x="1236" d="M68 0l456 1210h187l460 -1210h-153l-127 344h-547l-125 -344h-151zM342 1536l80 92l289 -250l-62 -78zM387 459h461l-230 628z" />
<glyph horiz-adv-x="1236" d="M68 0l456 1210h187l460 -1210h-153l-127 344h-547l-125 -344h-151zM387 459h461l-230 628zM512 1378l287 250l78 -92l-306 -236z" />
<glyph horiz-adv-x="1236" d="M68 0l456 1210h187l460 -1210h-153l-127 344h-547l-125 -344h-151zM340 1372l278 252l281 -252l-61 -67l-220 172l-215 -172zM387 459h461l-230 628z" />
<glyph horiz-adv-x="1236" d="M68 0l456 1210h187l460 -1210h-153l-127 344h-547l-125 -344h-151zM324 1372q1 7 3.5 18t15.5 39.5t30 50.5t50.5 40t74.5 18q48 0 90.5 -25t78 -50t66.5 -25q34 0 58 25t31 50l7 25l82 -45q-1 -7 -4 -18t-15.5 -39.5t-30 -50.5t-50.5 -40t-74 -18q-37 0 -72 15.5 t-58 34.5t-51.5 34.5t-53.5 15.5q-34 0 -58 -25t-31 -50l-7 -25zM387 459h461l-230 628z" />
<glyph horiz-adv-x="1236" d="M68 0l456 1210h187l460 -1210h-153l-127 344h-547l-125 -344h-151zM336 1452q0 39 22.5 62.5t63.5 23.5q39 0 62.5 -23.5t23.5 -62.5q0 -40 -23 -64t-63 -24q-41 0 -63.5 24t-22.5 64zM387 459h461l-230 628zM733 1452q0 39 23 62.5t65 23.5q39 0 61.5 -23.5t22.5 -62.5 q0 -40 -22.5 -64t-61.5 -24q-42 0 -65 24t-23 64z" />
<glyph horiz-adv-x="1236" d="M68 0l456 1210h187l460 -1210h-153l-127 344h-547l-125 -344h-151zM387 459h461l-230 628zM414 1491q0 89 55.5 140.5t146.5 51.5q90 0 146.5 -51.5t56.5 -140.5t-56.5 -138.5t-146.5 -49.5q-91 0 -146.5 49.5t-55.5 138.5zM510 1491q0 -50 28.5 -78.5t77.5 -28.5 q50 0 78.5 29t28.5 78q0 52 -28.5 81.5t-78.5 29.5t-78 -29.5t-28 -81.5z" />
<glyph horiz-adv-x="1720" d="M68 0l632 1210h891v-123h-653v-401h573v-115h-573v-161q0 -169 87.5 -239.5t283.5 -70.5q76 0 146.5 9t102.5 17l33 9v-123q-119 -35 -307 -35q-231 0 -347.5 88.5t-135.5 272.5h-404l-176 -338h-153zM451 455h342v647z" />
<glyph horiz-adv-x="1067" d="M106 606q0 107 18 198.5t59.5 171.5t103.5 136.5t154 88.5t208 32q84 0 163.5 -14.5t117.5 -29.5l37 -15l-35 -113q-13 5 -37 12.5t-96 20t-140 12.5q-100 0 -176 -34t-119 -84.5t-69 -120.5t-34.5 -130.5t-8.5 -126.5q0 -70 8.5 -133t35.5 -134t70 -121.5t118.5 -84 t174.5 -33.5q68 0 136.5 11.5t102.5 22.5l34 12l35 -113q-14 -6 -39.5 -15.5t-105.5 -26t-160 -18.5l-25 -98q36 4 57 4q83 0 137 -38.5t54 -120.5q0 -77 -57 -125t-171 -48q-55 0 -102.5 10.5t-67.5 21.5l-20 11l22 89q74 -37 150 -37q127 0 127 84q0 86 -129 86 q-76 0 -127 -19l47 187q-119 15 -207.5 69.5t-141 139.5t-77.5 188t-25 225z" />
<glyph horiz-adv-x="1236" d="M57 551v106h117v541q193 35 373 35q161 0 272.5 -38t180.5 -118t99.5 -194.5t30.5 -276.5q0 -327 -135.5 -478t-449.5 -151q-81 0 -173.5 8.5t-145.5 17.5l-52 9v539h-117zM322 117q119 -13 225 -13q85 0 147 11.5t119.5 44t93.5 88t57 147t21 217.5q0 272 -99.5 383 t-338.5 111q-118 0 -225 -14v-435h368v-106h-368v-434z" />
<glyph horiz-adv-x="1091" d="M164 420v790h799v-125h-652v-399h572v-117h-572v-159q0 -169 86.5 -237.5t282.5 -68.5q76 0 147.5 8.5t104.5 16.5l33 8v-125q-122 -35 -310 -35q-259 0 -375 110t-116 333zM326 1554l77 93l287 -250l-59 -78z" />
<glyph horiz-adv-x="1091" d="M164 420v790h799v-125h-652v-399h572v-117h-572v-159q0 -169 86.5 -237.5t282.5 -68.5q76 0 147.5 8.5t104.5 16.5l33 8v-125q-122 -35 -310 -35q-259 0 -375 110t-116 333zM461 1397l289 250l77 -93l-305 -235z" />
<glyph horiz-adv-x="1091" d="M164 420v790h799v-125h-652v-399h572v-117h-572v-159q0 -169 86.5 -237.5t282.5 -68.5q76 0 147.5 8.5t104.5 16.5l33 8v-125q-122 -35 -310 -35q-259 0 -375 110t-116 333zM293 1391l278 251l281 -251l-64 -70l-217 174l-217 -174z" />
<glyph horiz-adv-x="1091" d="M164 420v790h799v-125h-652v-399h572v-117h-572v-159q0 -169 86.5 -237.5t282.5 -68.5q76 0 147.5 8.5t104.5 16.5l33 8v-125q-122 -35 -310 -35q-259 0 -375 110t-116 333zM285 1470q0 39 22.5 61.5t61.5 22.5q41 0 63.5 -22.5t22.5 -61.5q0 -40 -22.5 -64t-63.5 -24 q-39 0 -61.5 24t-22.5 64zM682 1470q0 38 23 61t63 23q41 0 63.5 -22.5t22.5 -61.5q0 -40 -22.5 -64t-63.5 -24q-40 0 -63 24t-23 64z" />
<glyph horiz-adv-x="1177" d="M106 604q0 135 32 246.5t98 198.5t177 135.5t259 48.5q84 0 170.5 -14.5t131.5 -29.5l44 -15l-37 -113q-139 45 -289 45q-109 0 -191.5 -33t-128.5 -82.5t-74.5 -120t-37 -133.5t-8.5 -135q0 -498 438 -498q79 0 191 19v498h141v-588q-45 -17 -142.5 -36.5t-199.5 -19.5 q-123 0 -220.5 32.5t-163 89.5t-109 137t-62.5 171t-19 197zM375 1575l88 35q1 -6 3 -17t13.5 -38t28.5 -48t51.5 -38t79.5 -17t79.5 16.5t52 39.5t28.5 46t13 40l3 16l88 -35q-1 -5 -2 -13.5t-8.5 -32.5t-18 -46t-31.5 -48.5t-47.5 -46t-67 -32.5t-89.5 -13t-89.5 13 t-67 33.5t-47 45t-31.5 49t-18 45t-9 33.5z" />
<glyph horiz-adv-x="497" d="M-16 1556l77 93l289 -250l-61 -78zM176 0v1210h146v-1210h-146z" />
<glyph horiz-adv-x="497" d="M166 1399l289 250l77 -93l-305 -235zM176 0v1210h146v-1210h-146z" />
<glyph horiz-adv-x="497" d="M-31 1376l281 252l278 -252l-61 -69l-217 174l-219 -174zM176 0v1210h146v-1210h-146z" />
<glyph horiz-adv-x="497" d="M-37 1473q0 39 22.5 62.5t63.5 23.5t63.5 -23.5t22.5 -62.5q0 -40 -22.5 -64.5t-63.5 -24.5t-63.5 24.5t-22.5 64.5zM176 0v1210h146v-1210h-146zM362 1473q0 39 23 62.5t64 23.5q39 0 62.5 -23.5t23.5 -62.5q0 -40 -23.5 -64.5t-62.5 -24.5q-41 0 -64 24.5t-23 64.5z " />
<glyph horiz-adv-x="497" d="M154 1477q0 42 25.5 68t70.5 26q44 0 69 -26t25 -68q0 -43 -25 -70t-69 -27q-45 0 -70.5 26.5t-25.5 70.5zM176 0v1210h146v-1210h-146z" />
<glyph horiz-adv-x="1298" d="M174 0v1210h195l622 -1030l-8 131v899h141v-1210h-186l-633 1044l12 -131v-913h-143zM369 1386q1 7 4 18t16 39.5t30.5 50.5t51 40t74.5 18q37 0 72.5 -15.5t58 -34.5t51 -34.5t53.5 -15.5q34 0 57.5 25t30.5 50l6 25l84 -45q-1 -7 -4 -18t-16.5 -39.5t-31 -50.5 t-50.5 -40t-74 -18q-36 0 -70.5 16t-57.5 34.5t-51.5 34.5t-53.5 16q-22 0 -40 -10.5t-28.5 -25t-17.5 -29.5t-9 -25l-3 -11z" />
<glyph horiz-adv-x="1247" d="M106 606q0 140 28 251t88 197t162 132.5t241 46.5q138 0 239.5 -46.5t161 -132.5t87.5 -197t28 -251t-28 -251t-87.5 -197.5t-161 -133.5t-239.5 -47q-139 0 -241 47t-162 133.5t-88 197.5t-28 251zM252 606q0 -502 373 -502q368 0 368 502q0 500 -368 500 q-373 0 -373 -500zM352 1556l78 93l287 -250l-60 -78z" />
<glyph horiz-adv-x="1247" d="M106 606q0 140 28 251t88 197t162 132.5t241 46.5q138 0 239.5 -46.5t161 -132.5t87.5 -197t28 -251t-28 -251t-87.5 -197.5t-161 -133.5t-239.5 -47q-139 0 -241 47t-162 133.5t-88 197.5t-28 251zM252 606q0 -502 373 -502q368 0 368 502q0 500 -368 500 q-373 0 -373 -500zM520 1399l287 250l78 -93l-305 -235z" />
<glyph horiz-adv-x="1247" d="M106 606q0 140 28 251t88 197t162 132.5t241 46.5q138 0 239.5 -46.5t161 -132.5t87.5 -197t28 -251t-28 -251t-87.5 -197.5t-161 -133.5t-239.5 -47q-139 0 -241 47t-162 133.5t-88 197.5t-28 251zM252 606q0 -502 373 -502q368 0 368 502q0 500 -368 500 q-373 0 -373 -500zM344 1393l281 252l278 -252l-63 -68l-215 172l-219 -172z" />
<glyph horiz-adv-x="1247" d="M106 606q0 140 28 251t88 197t162 132.5t241 46.5q138 0 239.5 -46.5t161 -132.5t87.5 -197t28 -251t-28 -251t-87.5 -197.5t-161 -133.5t-239.5 -47q-139 0 -241 47t-162 133.5t-88 197.5t-28 251zM252 606q0 -502 373 -502q368 0 368 502q0 500 -368 500 q-373 0 -373 -500zM328 1393q1 7 3.5 18t15.5 39.5t30 50.5t50.5 40t74.5 18q38 0 74 -16t58.5 -34.5t51 -34.5t53.5 -16q34 0 57.5 25t30.5 51l7 25l81 -46q-1 -7 -4 -18t-15.5 -39.5t-30 -50t-50.5 -39.5t-74 -18q-45 0 -87 25t-78.5 50t-67.5 25q-22 0 -40 -10.5t-28 -25 t-16.5 -29t-9.5 -25.5l-2 -10z" />
<glyph horiz-adv-x="1247" d="M106 606q0 140 28 251t88 197t162 132.5t241 46.5q138 0 239.5 -46.5t161 -132.5t87.5 -197t28 -251t-28 -251t-87.5 -197.5t-161 -133.5t-239.5 -47q-139 0 -241 47t-162 133.5t-88 197.5t-28 251zM252 606q0 -502 373 -502q368 0 368 502q0 500 -368 500 q-373 0 -373 -500zM338 1473q0 39 22.5 62.5t63.5 23.5q39 0 62.5 -23.5t23.5 -62.5q0 -40 -23.5 -64.5t-62.5 -24.5q-41 0 -63.5 24.5t-22.5 64.5zM735 1473q0 39 23.5 62.5t64.5 23.5q39 0 62.5 -23.5t23.5 -62.5q0 -40 -23.5 -64.5t-62.5 -24.5q-41 0 -64.5 24.5 t-23.5 64.5z" />
<glyph horiz-adv-x="1247" d="M106 606q0 140 28 251t88 197t162 132.5t241 46.5q82 0 153 -19l68 179l115 -45l-68 -179q248 -137 248 -563q0 -140 -28 -251t-87.5 -197.5t-161 -133.5t-239.5 -47q-89 0 -170 23l-66 -176l-115 45l66 178q-234 142 -234 559zM252 606q0 -310 139 -426l342 912 q-58 14 -108 14q-373 0 -373 -500zM500 121q52 -17 125 -17q368 0 368 502q0 318 -149 432z" />
<glyph horiz-adv-x="1077" d="M117 918q0 86 35.5 148.5t98.5 98t141 52t173 16.5q87 0 172 -11.5t127 -23.5l41 -12l-37 -119q-135 39 -303 39q-301 0 -301 -180q0 -23 5.5 -42.5t12 -35.5t22.5 -31.5t27.5 -25.5t37 -23t40 -20t49 -19.5t51 -18t56.5 -18.5q169 -55 235 -93q136 -78 157 -216 q4 -29 4 -61q0 -156 -99 -241t-282 -99l-25 -103q32 4 51 4q83 0 140 -39t57 -120q0 -77 -57 -125t-173 -48q-54 0 -101 10.5t-67 21.5l-20 11l21 89q75 -37 151 -37q127 0 127 84q0 86 -129 86q-76 0 -127 -19l47 180q-89 2 -173 17t-124 29l-39 14l35 121q16 -6 45.5 -15 t115.5 -24t167 -15q158 0 235.5 54t77.5 155q0 33 -9 60.5t-21 48t-37.5 39.5t-45.5 30.5t-60 27t-65 23.5t-75 23q-48 15 -81.5 26.5t-77 30.5t-73.5 37.5t-61 45.5t-49.5 57t-30.5 70t-12 86z" />
<glyph horiz-adv-x="1140" d="M174 0v1210h148v-192q131 16 239 16q261 0 376.5 -96t115.5 -281q0 -393 -508 -393q-99 0 -223 8v-272h-148zM322 397q72 -8 202 -8q71 0 123 5.5t104 21.5t84 44t52 75.5t20 113.5q0 130 -82 194t-254 64q-130 0 -249 -18v-492z" />
<glyph horiz-adv-x="1292" d="M164 457v753h147v-755q0 -89 20.5 -155t51.5 -102.5t78 -58.5t89.5 -28.5t96.5 -6.5q53 0 95.5 6.5t89.5 28.5t78.5 58.5t52 102.5t20.5 155v755h145v-753q0 -480 -481 -480q-483 0 -483 480zM365 1556l79 93l289 -250l-61 -78z" />
<glyph horiz-adv-x="1292" d="M164 457v753h147v-755q0 -89 20.5 -155t51.5 -102.5t78 -58.5t89.5 -28.5t96.5 -6.5q53 0 95.5 6.5t89.5 28.5t78.5 58.5t52 102.5t20.5 155v755h145v-753q0 -480 -481 -480q-483 0 -483 480zM553 1399l291 250l78 -93l-306 -235z" />
<glyph horiz-adv-x="1292" d="M164 457v753h147v-755q0 -89 20.5 -155t51.5 -102.5t78 -58.5t89.5 -28.5t96.5 -6.5q53 0 95.5 6.5t89.5 28.5t78.5 58.5t52 102.5t20.5 155v755h145v-753q0 -480 -481 -480q-483 0 -483 480zM367 1393l280 252l279 -252l-64 -68l-215 172l-217 -172z" />
<glyph horiz-adv-x="1292" d="M164 457v753h147v-755q0 -89 20.5 -155t51.5 -102.5t78 -58.5t89.5 -28.5t96.5 -6.5q53 0 95.5 6.5t89.5 28.5t78.5 58.5t52 102.5t20.5 155v755h145v-753q0 -480 -481 -480q-483 0 -483 480zM360 1473q0 39 22.5 62.5t63.5 23.5q39 0 62.5 -23.5t23.5 -62.5 q0 -40 -23.5 -64.5t-62.5 -24.5q-41 0 -63.5 24.5t-22.5 64.5zM760 1473q0 39 22.5 62.5t63.5 23.5t63.5 -23.5t22.5 -62.5q0 -40 -22.5 -64.5t-63.5 -24.5t-63.5 24.5t-22.5 64.5z" />
<glyph horiz-adv-x="1118" d="M55 1210h160l342 -618l346 618h160l-430 -743v-467h-146v465zM473 1399l289 250l80 -93l-307 -235z" />
<glyph horiz-adv-x="1118" d="M55 1210h160l342 -618l346 618h160l-430 -743v-467h-146v465zM274 1473q0 39 22.5 62.5t63.5 23.5q39 0 62.5 -23.5t23.5 -62.5q0 -40 -23.5 -64.5t-62.5 -24.5q-41 0 -63.5 24.5t-22.5 64.5zM674 1473q0 39 22.5 62.5t63.5 23.5q39 0 62.5 -23.5t23.5 -62.5 q0 -40 -23.5 -64.5t-62.5 -24.5q-41 0 -63.5 24.5t-22.5 64.5z" />
<glyph horiz-adv-x="2111" d="M117 918q0 86 35.5 148.5t98.5 98t141 52t173 16.5q87 0 172 -11.5t127 -23.5l41 -12l-37 -119q-135 39 -303 39q-301 0 -301 -180q0 -23 5.5 -42.5t12 -35.5t22.5 -31.5t27.5 -25.5t37 -23t40 -20t49 -19.5t51 -18t56.5 -18.5q169 -55 235 -93q136 -78 157 -216 q4 -29 4 -61q0 -173 -121 -259t-342 -86q-95 0 -184.5 15t-131.5 30l-43 15l35 121q16 -6 45.5 -15t115.5 -24t167 -15q158 0 235.5 54t77.5 155q0 33 -9 60.5t-21 48t-37.5 39.5t-45.5 30.5t-60 27t-65 23.5t-75 23q-48 15 -81.5 26.5t-77 30.5t-73.5 37.5t-61 45.5 t-49.5 57t-30.5 70t-12 86zM1149 918q0 86 35.5 148.5t98.5 98t141 52t173 16.5q87 0 172 -11.5t127 -23.5l41 -12l-36 -119q-136 39 -304 39q-301 0 -301 -180q0 -23 5.5 -42.5t12 -35.5t22.5 -31.5t27.5 -25.5t37 -23t40 -20t49 -19.5t51 -18t56.5 -18.5q169 -55 235 -93 q136 -78 157 -216q4 -30 4 -61q0 -173 -121 -259t-342 -86q-95 0 -184.5 15t-131.5 30l-43 15l35 121q16 -6 45.5 -15t115.5 -24t167 -15q158 0 235.5 54t77.5 155q0 33 -9 60.5t-21 48t-37.5 39.5t-45.5 30.5t-60 27t-65 23.5t-75 23q-48 15 -81.5 26.5t-77 30.5 t-73.5 37.5t-61 45.5t-49.5 57t-30.5 70t-12 86z" />
<glyph horiz-adv-x="651" d="M137 1536l78 92l289 -250l-62 -78z" />
<glyph horiz-adv-x="651" d="M147 1378l289 250l78 -92l-305 -236z" />
<glyph horiz-adv-x="829" d="M135 1372l281 252l278 -252l-63 -67l-215 172l-217 -172z" />
<glyph horiz-adv-x="860" d="M135 1372q1 7 3.5 18t15.5 39.5t30 50.5t50.5 40t74.5 18q38 0 74 -15.5t59 -34.5t51.5 -34.5t53.5 -15.5q34 0 57.5 25t29.5 50l7 25l82 -45q-1 -7 -4 -18t-15.5 -39.5t-30 -50.5t-50.5 -40t-74 -18q-45 0 -87.5 25t-79 50t-67.5 25q-22 0 -40 -10.5t-28 -25t-16.5 -29 t-8.5 -24.5l-3 -11z" />
<glyph horiz-adv-x="880" d="M154 1452q0 39 23 62.5t65 23.5q39 0 62.5 -23.5t23.5 -62.5q0 -40 -23 -64t-63 -24q-42 0 -65 24t-23 64zM553 1452q0 39 23 62.5t65 23.5q39 0 61.5 -23.5t22.5 -62.5q0 -40 -22.5 -64t-61.5 -24q-42 0 -65 24t-23 64z" />
<glyph horiz-adv-x="806" d="M135 1372v105h537v-105h-537z" />
<glyph horiz-adv-x="684" d="M139 1491q0 89 56 140.5t147 51.5q90 0 146.5 -51.5t56.5 -140.5t-56.5 -138.5t-146.5 -49.5q-91 0 -147 49.5t-56 138.5zM236 1491q0 -50 28.5 -78.5t77.5 -28.5q50 0 78.5 29t28.5 78q0 52 -28.5 81.5t-78.5 29.5t-78 -29.5t-28 -81.5z" />
<glyph horiz-adv-x="507" d="M158 1141q0 44 25.5 68t70.5 24t70.5 -24t25.5 -68q0 -42 -25.5 -65t-70.5 -23t-70.5 23t-25.5 65zM174 0l23 952h112l23 -952h-158z" />
<glyph horiz-adv-x="966" d="M125 274q0 69 21.5 121.5t56 85t76 58t83.5 47.5t76.5 46.5t56 61.5t21.5 86q0 75 -10 105h139q17 -85 17 -113q0 -58 -17 -104t-44.5 -75t-62.5 -54.5t-72 -43t-72 -39.5t-62.5 -44.5t-44.5 -58t-17 -79.5q0 -79 64 -126.5t192 -47.5q84 0 164.5 18t119.5 36l38 18 l39 -115q-6 -3 -16.5 -8.5t-46.5 -19.5t-75.5 -24.5t-102.5 -19t-128 -8.5q-193 0 -293 82t-100 215zM479 1141q0 44 25.5 68t68.5 24q46 0 71.5 -24t25.5 -68q0 -42 -25.5 -65t-71.5 -23q-43 0 -68.5 23t-25.5 65z" />
<glyph horiz-adv-x="1110" d="M88 418v92h111q-4 62 -4 96q0 70 4 105h-111v92h123q73 407 494 407q76 0 150.5 -13t111.5 -27l37 -13l-35 -113q-115 46 -252 46q-300 0 -361 -287h545l-24 -92h-533q-4 -35 -4 -101q0 -67 2 -100h477l-24 -92h-441q13 -63 36 -112.5t64 -92.5t107.5 -66.5t155.5 -23.5 q61 0 124 10.5t95 21.5l33 11l35 -113q-14 -6 -40.5 -15t-104.5 -23.5t-154 -14.5q-426 0 -496 418h-121z" />
<glyph horiz-adv-x="972" d="M115 610q0 185 91.5 295.5t276.5 130.5v197h123v-193q67 -3 129 -15.5t91 -24.5l28 -11l-33 -115q-88 38 -215 44v-613q56 3 110 14t80 21l25 10l33 -114q-11 -5 -31.5 -13.5t-85 -23.5t-131.5 -19v-203h-123v207q-184 21 -276 131.5t-92 294.5zM262 610 q0 -128 49.5 -203t171.5 -96v598q-122 -21 -171.5 -96t-49.5 -203z" />
<glyph horiz-adv-x="1071" d="M88 532v99h162q-41 139 -41 233q0 79 22.5 144.5t68.5 116.5t123 79.5t179 28.5q53 0 103 -8.5t83 -20.5t58.5 -24t37.5 -20l11 -9l-59 -96q-10 6 -28 15.5t-76.5 25.5t-119.5 16q-135 0 -199.5 -69.5t-64.5 -186.5q0 -94 43 -225h428v-99h-397q16 -62 16 -114 q0 -156 -153 -299h641v-119h-801v121q176 150 176 299q0 42 -18 112h-195z" />
<glyph horiz-adv-x="993" d="M-61 -274l28 118q37 -22 121 -22q188 0 211 217l53 508h-256l13 110h253l31 287q37 340 340 340q46 0 89.5 -8t63.5 -16l21 -9l-30 -112q-43 24 -134 24q-95 0 -144 -48t-62 -169l-31 -289h303l-12 -110h-303l-52 -500q-10 -101 -44 -172.5t-84 -107.5t-101.5 -51 t-112.5 -15q-86 0 -161 25z" />
<glyph horiz-adv-x="1048" d="M57 1210h158l309 -596l310 596h155l-352 -641h260v-92h-299v-178h299v-92h-299v-207h-145v207h-301v92h301v178h-301v92h258z" />
<glyph horiz-adv-x="2168" d="M115 940q0 123 71 208t207 85t207.5 -85t71.5 -208q0 -125 -71 -210t-208 -85q-70 0 -124.5 24t-87.5 66t-49.5 94t-16.5 111zM223 940q0 -98 44.5 -153.5t125.5 -55.5q79 0 124.5 56t45.5 153q0 96 -45.5 151.5t-124.5 55.5q-81 0 -125.5 -55.5t-44.5 -151.5zM406 23 l618 1210l86 -43l-618 -1213zM850 272q0 123 70.5 208t205.5 85q71 0 125.5 -24t87.5 -65.5t49.5 -93t16.5 -110.5q0 -80 -28 -144.5t-93 -107.5t-158 -43q-134 0 -205 85.5t-71 209.5zM956 272q0 -97 45.5 -153t124.5 -56q81 0 125.5 55.5t44.5 153.5q0 97 -44.5 153 t-125.5 56q-79 0 -124.5 -56.5t-45.5 -152.5zM1497 272q0 59 17 110.5t50 93t87.5 65.5t124.5 24t124.5 -24t87.5 -65.5t49.5 -93t16.5 -110.5q0 -124 -71 -209.5t-207 -85.5t-207.5 85.5t-71.5 209.5zM1606 272q0 -97 45.5 -153t124.5 -56q81 0 125.5 55.5t44.5 153.5 q0 97 -44.5 153t-125.5 56q-79 0 -124.5 -56.5t-45.5 -152.5z" />
<glyph horiz-adv-x="694" d="M137 -406l21 89q77 -37 153 -37q127 0 127 84q0 86 -129 86q-76 0 -127 -19l60 240h106l-39 -158q36 4 58 4q83 0 135.5 -39t52.5 -120q0 -77 -56 -125t-173 -48q-53 0 -100 10.5t-68 21.5z" />
<glyph horiz-adv-x="1822" d="M121 567q0 105 15 190.5t52 161t94 126.5t145 80.5t202 29.5q51 0 98 -6q-96 79 -96 203q0 110 80 183t223 73q84 0 176.5 -27t141.5 -51.5t75 -42.5v-354h373v-121h-373v-643q0 -131 44.5 -198t160.5 -67q41 0 83.5 7.5t65 15t25.5 10.5l23 -121q-84 -39 -209 -39 q-162 0 -250 91.5t-88 300.5v1052q-4 4 -32.5 17t-87.5 28t-116 15q-92 0 -144 -44.5t-52 -121.5q0 -56 45.5 -119t109.5 -90l-33 -117q-104 39 -237 39q-71 0 -128 -16t-95 -41.5t-66 -65t-43 -77.5t-23.5 -87.5t-11 -87t-2.5 -84.5q0 -51 2.5 -91.5t12 -90.5t25 -88.5 t43.5 -76.5t66.5 -62.5t95 -40t126.5 -15.5q58 0 115 9.5t84.5 18t35.5 13.5l33 -118q-11 -6 -33 -14t-94 -22t-149 -14q-114 0 -202 29.5t-145 81t-94 127t-52 161.5t-15 191z" />
<glyph horiz-adv-x="1662" d="M76 1012v121h160v301l145 26v-327h641v301l147 26v-327h371v-121h-371v-643q0 -133 45 -199t158 -66q42 0 85 7.5t65.5 15t25.5 10.5l21 -121q-82 -39 -207 -39q-163 0 -251.5 91.5t-88.5 302.5v641h-641v-643q0 -133 45 -199t158 -66q42 0 85 7.5t65.5 15t25.5 10.5 l20 -121q-82 -39 -207 -39q-163 0 -250 91.5t-87 302.5v641h-160z" />
<glyph horiz-adv-x="1638" d="M78 1012v121h190v108q0 348 332 348q60 0 110 -8.5t64 -15.5l-24 -119q-56 16 -136 16q-103 0 -151.5 -49t-48.5 -168v-112h583v301l148 26v-327h371v-121h-371v-643q0 -133 45 -199t158 -66q42 0 85 7.5t65.5 15t25.5 10.5l20 -121q-82 -39 -207 -39q-163 0 -251.5 92 t-88.5 302v641h-583v-1012h-146v1012h-190z" />
<glyph horiz-adv-x="2412" d="M78 1012v121h190v108q0 348 332 348q60 0 110 -8.5t64 -15.5l-24 -119q-56 16 -136 16q-103 0 -151.5 -49t-48.5 -168v-112h628v108q0 348 332 348q60 0 110 -8.5t64 -15.5l-24 -119q-55 16 -133 16q-105 0 -154 -49t-49 -168v-112h586v301l145 26v-327h371v-121h-371 v-643q0 -133 45 -199t158 -66q42 0 86 8.5t67 16.5l23 8l20 -121q-82 -39 -207 -39q-163 0 -250 92t-87 302v641h-586v-1012h-146v1012h-628v-1012h-146v1012h-190z" />
<glyph horiz-adv-x="2256" d="M121 567q0 105 15 190.5t52 161t94 126.5t145 80.5t202 29.5q7 0 100 -6q-76 73 -76 184q0 109 77.5 182.5t225.5 73.5q118 0 224.5 -39t148.5 -71v-369q165 45 295 45q245 0 362 -104t117 -351v-700h-145v707q0 61 -10.5 110t-27 82t-43.5 57t-54 38t-64 21.5t-68 10 t-71 2.5q-78 0 -151 -11t-107 -21l-33 -11v-985h-145v1415q-3 3 -28.5 13t-79.5 22t-109 12q-94 0 -144.5 -43t-50.5 -116q0 -63 35.5 -117t97.5 -80l-33 -117q-104 39 -237 39q-71 0 -128 -16t-95 -41.5t-66 -65t-43 -77.5t-23.5 -87.5t-11 -87t-2.5 -84.5q0 -51 2.5 -91.5 t12 -90.5t25 -88.5t43.5 -76.5t66.5 -62.5t95 -40t126.5 -15.5q58 0 115 9.5t84.5 18t35.5 13.5l33 -118q-11 -6 -33 -14t-94 -22t-149 -14q-114 0 -202 29.5t-145 81t-94 127t-52 161.5t-15 191z" />
<glyph horiz-adv-x="2134" d="M121 567q0 105 15 190.5t52 161t94 126.5t145 80.5t202 29.5q7 0 100 -6q-76 73 -76 184q0 109 77.5 182.5t225.5 73.5q118 0 224.5 -39t148.5 -71v-877l529 531h182l-547 -547l315 -348q53 -58 94.5 -87.5t94.5 -29.5q14 0 30 2.5t25 4.5l10 3v-119q-35 -16 -94 -16 q-137 0 -282 160l-357 401v-557h-145v1415q-3 3 -28.5 13t-79.5 22t-109 12q-94 0 -144.5 -43t-50.5 -116q0 -63 35.5 -117t97.5 -80l-33 -117q-104 39 -237 39q-71 0 -128 -16t-95 -41.5t-66 -65t-43 -77.5t-23.5 -87.5t-11 -87t-2.5 -84.5q0 -51 2.5 -91.5t12 -90.5 t25 -88.5t43.5 -76.5t66.5 -62.5t95 -40t126.5 -15.5q58 0 115 9.5t84.5 18t35.5 13.5l33 -118q-11 -6 -33 -14t-94 -22t-149 -14q-114 0 -202 29.5t-145 81t-94 127t-52 161.5t-15 191z" />
<glyph horiz-adv-x="1501" d="M125 567q0 105 15 190.5t52 161t94 126.5t145 80.5t202 29.5q7 0 100 -6q-76 73 -76 184q0 109 78 182.5t226 73.5q118 0 224 -39t148 -71v-1479h-145v1415q-3 3 -28.5 13t-79.5 22t-109 12q-94 0 -144.5 -43t-50.5 -116q0 -63 36 -117t99 -80l-34 -117q-105 39 -238 39 q-71 0 -128 -16t-95 -41.5t-66 -65t-43 -77.5t-23.5 -87.5t-11 -87t-2.5 -84.5q0 -73 6 -129t28.5 -122.5t60.5 -110.5t108.5 -73.5t167.5 -29.5q58 0 115 9.5t85 18t36 13.5l34 -118q-12 -6 -34 -14t-94.5 -22t-149.5 -14q-114 0 -202 29.5t-145 81t-94 127t-52 161.5 t-15 191z" />
<glyph horiz-adv-x="2222" d="M111 852q0 86 37.5 148t102 94t136.5 46.5t156 14.5q70 0 135 -10q-42 30 -66 81t-24 115q0 109 83 178.5t234 69.5q123 0 233.5 -39t155.5 -71v-369q158 45 293 45q247 0 363 -104t116 -351v-700h-145v707q0 85 -20 145.5t-49.5 94t-77.5 52.5t-90 24t-101 5 q-78 0 -150.5 -11t-105.5 -21l-33 -11v-985h-145v1415l-7 3q-6 2 -17.5 6t-26.5 9t-35.5 9.5t-43 8.5t-50 6.5t-54.5 2.5q-206 0 -206 -153q0 -73 42 -125.5t97 -69.5l-27 -121q-116 37 -270 37q-142 0 -219.5 -44t-77.5 -130q0 -36 15 -65t37 -48.5t63 -38t75 -30t91 -27.5 q45 -13 75.5 -23t73 -27.5t70.5 -35t58.5 -44.5t48.5 -57.5t30 -72t12 -90.5q0 -160 -115.5 -239t-318.5 -79q-84 0 -167.5 13t-125.5 26l-41 13l25 123q15 -5 42 -13t106.5 -21.5t154.5 -13.5q299 0 299 187q0 39 -14.5 70t-37 52.5t-62 41t-75 31.5t-90.5 28 q-48 14 -79 24.5t-74.5 28t-71 34.5t-58.5 43t-48.5 55t-29 68t-11.5 85z" />
<glyph horiz-adv-x="2101" d="M111 852q0 86 37.5 148t102 94t136.5 46.5t156 14.5q69 0 137 -10q-43 28 -67.5 79.5t-24.5 116.5q0 109 83 178.5t234 69.5q123 0 233.5 -39t155.5 -71v-875l527 529h184l-547 -547l316 -348q35 -39 58 -60t57.5 -39t70.5 -18q15 0 31 2.5t25 4.5l9 3v-119 q-35 -16 -94 -16q-135 0 -280 160l-357 401v-557h-145v1415l-7 3q-6 2 -17.5 6t-26.5 9t-35.5 9.5t-43 8.5t-50 6.5t-54.5 2.5q-206 0 -206 -153q0 -45 15.5 -82.5t40 -59.5t45 -34.5t38.5 -18.5l-27 -121q-116 37 -270 37q-142 0 -219.5 -44t-77.5 -130q0 -36 15 -65 t37 -48.5t63 -38t75 -30t91 -27.5q45 -13 75.5 -23t73 -27.5t70.5 -35t58.5 -44.5t48.5 -57.5t30 -72t12 -90.5q0 -160 -115.5 -239t-318.5 -79q-84 0 -167.5 13t-125.5 26l-41 13l25 123q15 -5 42 -13t106.5 -21.5t154.5 -13.5q299 0 299 187q0 39 -14.5 70t-37 52.5 t-62 41t-75 31.5t-90.5 28q-48 14 -79 24.5t-74.5 28t-71 34.5t-58.5 43t-48.5 55t-29 68t-11.5 85z" />
<glyph horiz-adv-x="1460" d="M111 852q0 86 37.5 148t102 94t136.5 46.5t156 14.5q69 0 137 -10q-43 28 -67.5 79.5t-24.5 116.5q0 109 83 178.5t234 69.5q123 0 233.5 -39t155.5 -71v-1479h-145v1415l-7 3q-6 2 -17.5 6t-26.5 9t-35.5 9.5t-43 8.5t-50 6.5t-54.5 2.5q-206 0 -206 -153 q0 -45 15.5 -82.5t40 -59.5t45 -34.5t38.5 -18.5l-27 -121q-116 37 -270 37q-142 0 -219.5 -44t-77.5 -130q0 -36 15 -65t37 -48.5t63 -38t75 -30t91 -27.5q45 -13 75.5 -23t73 -27.5t70.5 -35t58.5 -44.5t48.5 -57.5t30 -72t12 -90.5q0 -160 -115.5 -239t-318.5 -79 q-84 0 -167.5 13t-125.5 26l-41 13l25 123q15 -5 42 -13t106.5 -21.5t154.5 -13.5q299 0 299 187q0 39 -14.5 70t-37 52.5t-62 41t-75 31.5t-90.5 28q-48 14 -79 24.5t-74.5 28t-71 34.5t-58.5 43t-48.5 55t-29 68t-11.5 85z" />
<glyph horiz-adv-x="1269" d="M78 1012v121h190v108q0 348 332 348q60 0 110 -8.5t64 -15.5l-24 -119q-56 16 -136 16q-103 0 -151.5 -49t-48.5 -168v-112h692v-1211q0 -79 -18 -144t-55 -117t-100.5 -81t-148.5 -29q-47 0 -89.5 7.5t-61.5 15.5l-19 8l27 115q51 -21 131 -21q189 0 189 238v1098h-547 v-1012h-146v1012h-190zM932 1425q0 43 26.5 69t73.5 26q44 0 71 -26t27 -69q0 -45 -26.5 -71.5t-71.5 -26.5q-47 0 -73.5 26t-26.5 72z" />
<glyph horiz-adv-x="1884" d="M78 1012v121h190v108q0 348 332 348q60 0 110 -8.5t64 -15.5l-24 -119q-56 16 -136 16q-103 0 -151.5 -49t-48.5 -168v-112h540v-707q0 -84 20.5 -144.5t50.5 -93t78 -51.5t88.5 -23.5t96.5 -4.5q84 0 158 10.5t106 21.5l31 11v981h143v-1061q0 -119 -23 -209 t-76.5 -162.5t-151.5 -111t-238 -38.5q-86 0 -165.5 14.5t-116.5 28.5l-37 15l28 121q12 -6 35 -14.5t96.5 -23t149.5 -14.5q86 0 150.5 19t102.5 49.5t61.5 77t32.5 92t11 104.5q-129 -38 -297 -38q-243 0 -361 103.5t-118 346.5v580h-395v-1012h-146v1012h-190z" />
<glyph horiz-adv-x="2129" d="M111 852q0 86 37.5 148t102 94t136 46.5t154.5 14.5q71 0 139 -10q-43 28 -67.5 79t-24.5 115q0 111 82.5 180.5t236.5 69.5q121 0 231.5 -39t155.5 -71v-414q145 90 324 90q98 0 172.5 -26.5t118 -73t65 -104t21.5 -124.5q0 -124 -74 -212.5t-225 -122.5l129 -240 q36 -67 71.5 -99t94.5 -32q16 0 33.5 3t26.5 6l9 3l8 -115q-36 -22 -110 -22q-82 0 -141 42t-107 130l-168 305h-26q-99 0 -222 21v-494h-145v1415l-7 3q-6 2 -17 6t-26.5 9t-35.5 9.5t-42 8.5t-49 6.5t-54 2.5q-209 0 -209 -155q0 -70 44 -124t95 -69l-27 -121 q-116 37 -270 37q-142 0 -219.5 -44t-77.5 -130q0 -36 15 -65t37 -48.5t63 -38t75 -30t91 -27.5q45 -13 75.5 -23t73 -27.5t70.5 -35t58.5 -44.5t48.5 -57.5t30 -72t12 -90.5q0 -160 -115.5 -239t-318.5 -79q-84 0 -167.5 13t-125.5 26l-41 13l25 123q15 -5 42 -13 t106.5 -21.5t154.5 -13.5q299 0 299 187q0 39 -14.5 70t-37 52.5t-62 41t-75 31.5t-90.5 28q-48 14 -79 24.5t-74.5 28t-71 34.5t-58.5 43t-48.5 55t-29 68t-11.5 85zM1294 606q111 -12 195 -12q190 0 275 56t85 169q0 104 -66 156.5t-190 52.5q-98 0 -175 -26.5t-124 -59.5 v-336z" />
<glyph horiz-adv-x="2174" d="M129 567q0 105 15 190.5t51.5 161t94 126.5t145 80.5t200.5 29.5q9 0 102 -6q-75 72 -75 184q0 110 77 183t228 73q116 0 224 -39.5t146 -70.5v-414q145 90 326 90q97 0 171.5 -26.5t118 -73t65.5 -104t22 -124.5q0 -124 -75 -212.5t-226 -122.5l129 -240 q36 -66 72.5 -98.5t95.5 -32.5q16 0 33.5 3t26.5 6l9 3l9 -115q-39 -22 -111 -22q-84 0 -143 41.5t-107 130.5l-166 305h-26q-95 0 -224 21v-494h-145v1415q-3 3 -29 13t-79.5 22t-104.5 12q-97 0 -148 -42.5t-51 -116.5q0 -63 36 -117t99 -80l-34 -117q-105 39 -236 39 q-71 0 -128.5 -16t-95.5 -41.5t-66 -64.5t-43.5 -76.5t-24 -87t-11 -87t-2.5 -84.5q0 -73 6 -130t28.5 -123.5t61 -110.5t109.5 -73.5t168 -29.5q57 0 113.5 9.5t84.5 18t36 13.5l34 -118q-12 -6 -34 -14t-94 -22t-148 -14q-115 0 -203 29.5t-145.5 80.5t-94.5 126.5 t-52 162t-15 191.5zM1337 606q111 -12 195 -12q192 0 277 56t85 169q0 104 -66.5 156.5t-191.5 52.5q-163 0 -299 -86v-336z" />
<glyph horiz-adv-x="1769" d="M98 891q0 95 28.5 180t90.5 159.5t152 129t222 86t292 31.5q70 0 146 -5.5t117 -11.5l40 -6l518 -1454h-154l-159 455h-621l-158 -455h-155l479 1346q-39 2 -62 2q-195 0 -339 -51t-226 -155.5t-82 -252.5q0 -61 14 -117.5t33.5 -92.5t39.5 -63.5t34 -39.5l14 -13 l-90 -84q-7 6 -19 17t-42 50.5t-52.5 83.5t-41.5 115t-19 146zM815 584h531l-265 762z" />
<glyph horiz-adv-x="1923" d="M98 864q0 102 32.5 190t108.5 167t192 135t293 88.5t400 32.5q335 0 485 -83t150 -290q0 -257 -237 -332q156 -37 226.5 -134t70.5 -251q0 -223 -142.5 -316.5t-439.5 -93.5q-108 0 -219.5 8.5t-169.5 17.5l-57 9v1315q-114 -15 -210.5 -48t-178 -87.5t-128.5 -139.5 t-47 -192q0 -73 22 -138t53.5 -105.5t63.5 -71t54 -43.5l22 -13l-75 -94q-11 6 -29 17t-64.5 53t-82 91.5t-64.5 132.5t-29 175zM938 121q154 -15 285 -15q90 0 155 7t123.5 25.5t93.5 51.5t55.5 85.5t20.5 125.5q0 161 -98 231t-313 70h-322v-581zM938 821h285 q205 0 297 59.5t92 206.5q0 67 -19.5 114.5t-53 75.5t-90 44t-117 21.5t-148.5 5.5q-176 0 -246 -9v-518z" />
<glyph horiz-adv-x="1302" d="M117 723q0 119 20.5 226t68 204.5t119 168.5t180 113t243.5 42q115 0 204 -31.5t141.5 -85.5t78.5 -119t26 -137q0 -124 -75 -223t-208 -164l-65 98q205 108 205 281q0 49 -16 92t-50 80t-95.5 58.5t-143.5 21.5q-88 0 -160.5 -23t-122 -60t-87.5 -90.5t-59.5 -108.5 t-34.5 -119.5t-17.5 -117t-4.5 -108.5q0 -615 508 -615q82 0 160.5 15t116.5 30l38 15l37 -121q-15 -8 -44.5 -19t-124.5 -30t-197 -19q-146 0 -259 42.5t-184 112t-116.5 168t-63.5 202t-18 221.5z" />
<glyph horiz-adv-x="1998" d="M98 864q0 102 32.5 190t108.5 167t192 135t293 88.5t400 32.5q95 0 171 -7t157 -26.5t142 -53.5t117.5 -90.5t92.5 -134t57 -187.5t21 -247q0 -93 -9 -173.5t-30.5 -158.5t-55.5 -140.5t-87 -116t-122 -89.5t-162 -56t-206 -20q-75 0 -176 8.5t-171 17.5t-72 9v1313 q-90 -12 -169.5 -34t-153 -60.5t-126 -89t-84 -123t-31.5 -158.5q0 -73 22 -138t53.5 -105.5t63.5 -71t54 -43.5l22 -13l-75 -94q-11 6 -29 17t-64.5 53t-82 91.5t-64.5 132.5t-29 175zM938 125q140 -19 283 -19q88 0 157 13.5t138.5 54.5t115.5 108.5t74.5 183t28.5 271.5 q0 151 -26.5 260t-72.5 176.5t-122.5 106.5t-162.5 53.5t-206 14.5q-125 0 -207 -9v-1214z" />
<glyph horiz-adv-x="1839" d="M98 881q0 168 86.5 298t246 202.5t366.5 72.5h915v-127h-768v-506h684v-127h-684v-276q0 -166 105 -239t309 -73q84 0 172.5 9t135.5 17l46 9v-129q-164 -35 -369 -35q-280 0 -413 110.5t-133 332.5v907q-76 0 -151.5 -13.5t-152.5 -46.5t-135 -82.5t-94.5 -128 t-36.5 -175.5q0 -76 22 -144t53.5 -111.5t63.5 -76t54 -46.5l22 -14l-75 -94q-11 6 -29 18.5t-64.5 56.5t-82 95.5t-64.5 136.5t-29 179z" />
<glyph horiz-adv-x="1789" d="M98 881q0 168 86.5 298t246 202.5t366.5 72.5h907v-127h-760v-541h676v-127h-676v-659h-147v1327q-76 0 -151.5 -13.5t-152.5 -46.5t-135 -82.5t-94.5 -128t-36.5 -175.5q0 -76 22 -144t53.5 -111.5t63.5 -76t54 -46.5l22 -14l-75 -94q-11 6 -29 18.5t-64.5 56.5 t-82 95.5t-64.5 136.5t-29 179z" />
<glyph horiz-adv-x="1329" d="M117 711q0 125 22 236t71.5 209t122.5 168.5t181.5 111.5t243.5 41q111 0 197.5 -28.5t138 -76.5t78 -107.5t26.5 -125.5q0 -50 -14.5 -98.5t-37.5 -83.5t-36.5 -52t-24.5 -28l-100 63q6 6 20 26t33 68t19 94q0 93 -72.5 156.5t-228.5 63.5q-87 0 -159 -22t-122 -59 t-88 -89.5t-61 -108t-37.5 -121t-19.5 -122.5t-5 -117q0 -54 4 -103.5t16 -112t32.5 -115t56.5 -104.5t83.5 -87.5t118 -58t156.5 -22.5q143 0 283 58v450h141v-661q0 -177 -113.5 -289.5t-310.5 -112.5q-52 0 -100 6.5t-70 12.5l-22 6l20 121q70 -23 162 -23q153 0 223 76 t70 201v78q-135 -52 -293 -52q-135 0 -241.5 42t-173.5 111.5t-110.5 166.5t-61 198.5t-17.5 215.5z" />
<glyph horiz-adv-x="2048" d="M98 881q0 168 86.5 298t246 202.5t366.5 72.5h147v-639h780v639h148v-1454h-148v686h-780v-686h-147v1327q-76 0 -151.5 -13.5t-152.5 -46.5t-135 -82.5t-94.5 -128t-36.5 -175.5q0 -76 22 -144t53.5 -111.5t63.5 -76t54 -46.5l22 -14l-75 -94q-11 6 -29 18.5t-64.5 56.5 t-82 95.5t-64.5 136.5t-29 179z" />
<glyph horiz-adv-x="1128" d="M98 881q0 168 86.5 298t246 202.5t366.5 72.5h147v-1454h-147v1327q-76 0 -151.5 -13.5t-152.5 -46.5t-135 -82.5t-94.5 -128t-36.5 -175.5q0 -76 22 -144t53.5 -111.5t63.5 -76t54 -46.5l22 -14l-75 -94q-11 6 -29 18.5t-64.5 56.5t-82 95.5t-64.5 136.5t-29 179z" />
<glyph horiz-adv-x="1138" d="M98 881q0 254 195.5 413.5t509.5 159.5h160v-1517q0 -123 -57.5 -212.5t-146 -131.5t-194.5 -42q-72 0 -132.5 14t-84.5 28l-24 14l34 114q9 -4 25 -11t67.5 -18t106.5 -11q116 0 187 68t71 183v1395h-12q-77 0 -153 -13.5t-153.5 -47t-136.5 -83t-96 -127.5t-37 -175 q0 -76 22 -144t53.5 -111.5t63.5 -76t54 -46.5l22 -14l-75 -94q-11 6 -29 18.5t-64.5 56.5t-82 95.5t-64.5 136.5t-29 179z" />
<glyph horiz-adv-x="1882" d="M98 881q0 168 86.5 298t246 202.5t366.5 72.5h147v-719l658 719h180l-674 -735l440 -467q63 -67 109 -98t102 -31q46 0 66 10v-121q-40 -16 -101 -16q-76 0 -147.5 43t-153.5 131l-479 514v-684h-147v1327q-77 0 -153 -13.5t-152.5 -46.5t-134.5 -82.5t-94 -128 t-36 -175.5q0 -76 22 -144t53.5 -111.5t63.5 -76t54 -46.5l22 -14l-75 -94q-11 6 -29 18.5t-64.5 56.5t-82 95.5t-64.5 136.5t-29 179z" />
<glyph horiz-adv-x="1730" d="M98 881q0 168 86.5 298t246 202.5t366.5 72.5h147v-1057q0 -82 29 -140t84.5 -90.5t125 -46.5t160.5 -14q84 0 159 10t108 20l32 9v-133q-114 -35 -315 -35q-262 0 -396 102.5t-134 317.5v930q-77 0 -153 -13.5t-152.5 -46.5t-134.5 -82.5t-94 -128t-36 -175.5 q0 -76 22 -144t53.5 -111.5t63.5 -76t54 -46.5l22 -14l-75 -94q-11 6 -29 18.5t-64.5 56.5t-82 95.5t-64.5 136.5t-29 179z" />
<glyph horiz-adv-x="2299" d="M98 881q0 168 86.5 298t246 202.5t366.5 72.5h217l434 -1057l434 1057h180l123 -1454h-149l-90 1098l-4 155l-56 -155l-354 -858h-168l-354 858l-58 151l-2 -151l-92 -1098h-147l112 1327h-26q-77 0 -153 -13.5t-152.5 -46.5t-134.5 -82.5t-94 -128t-36 -175.5 q0 -76 22 -144t53.5 -111.5t63.5 -76t54 -46.5l22 -14l-75 -94q-11 6 -29 18.5t-64.5 56.5t-82 95.5t-64.5 136.5t-29 179z" />
<glyph horiz-adv-x="2056" d="M98 881q0 168 86.5 298t246 202.5t366.5 72.5h194l752 -1253l-6 118v1135h145v-1454h-186l-762 1268l8 -119v-1149h-145v1327q-77 0 -153 -13.5t-152.5 -46.5t-134.5 -82.5t-94 -128t-36 -175.5q0 -76 22 -144t53.5 -111.5t63.5 -76t54 -46.5l22 -14l-75 -94 q-11 6 -29 18.5t-64.5 56.5t-82 95.5t-64.5 136.5t-29 179z" />
<glyph horiz-adv-x="1402" d="M117 731q0 264 81 462t228 280l63 -72q-225 -179 -225 -674q0 -65 3 -119t14.5 -120t30 -117.5t51.5 -103t77.5 -85.5t111 -55t148.5 -21t148.5 21t111.5 55t78.5 85t52.5 102.5t30 117.5t14.5 120.5t3.5 119.5q0 109 -7.5 195.5t-28.5 168.5t-55.5 136.5t-90 87.5 t-130.5 33q-114 0 -178.5 -81t-64.5 -210q0 -110 53.5 -208.5t161.5 -164.5l-72 -92q-130 71 -201 198t-71 265q0 117 41.5 211t128 152.5t204.5 58.5q87 0 157.5 -26.5t117 -68t81.5 -105t53.5 -126t30 -142.5t14.5 -142.5t3 -137.5q0 -752 -586 -752q-139 0 -244 43 t-168.5 112.5t-103 170.5t-53.5 203t-14 225z" />
<glyph horiz-adv-x="1880" d="M98 864q0 101 34 190t111 167.5t192.5 134.5t289 88.5t389.5 32.5q170 0 292.5 -24t211.5 -78t132.5 -145.5t43.5 -221.5q0 -484 -596 -484q-42 0 -103.5 3t-107 5.5t-49.5 2.5v-535h-147v1327q-111 -15 -207 -48t-178.5 -87.5t-130.5 -139.5t-48 -192q0 -73 22 -138 t53.5 -105.5t63.5 -71t54 -43.5l22 -13l-75 -94q-11 6 -29 17t-64.5 53t-82 91.5t-64.5 132.5t-29 175zM938 662q112 -9 252 -9q232 0 344.5 84t112.5 271q0 101 -33.5 168.5t-102 104.5t-156.5 52t-214 15q-11 0 -203 -7v-679z" />
<glyph d="M117 731q0 264 81.5 462t229.5 280l64 -72q-228 -182 -228 -674q0 -64 3.5 -118.5t14.5 -120.5t30 -118t52 -103t78 -85t111.5 -55t148.5 -21t148.5 21t111.5 55t78.5 85t52.5 102.5t30 117.5t14.5 120.5t3.5 119.5q0 108 -8 195t-29 169t-55 136.5t-90 87.5t-130 33 q-115 0 -179 -80.5t-64 -210.5q0 -110 53.5 -208.5t161.5 -164.5l-72 -92q-130 71 -201 198t-71 265q0 117 41.5 211t127.5 152.5t203 58.5q87 0 157.5 -26.5t117.5 -68t82 -105t54 -126t30.5 -142.5t14.5 -142.5t3 -137.5q0 -752 -586 -752q-585 0 -585 754zM633 -289 l12 107l606 -51l-12 -119z" />
<glyph horiz-adv-x="1951" d="M98 864q0 102 32.5 190t108.5 167t192 135t294 88.5t403 32.5q361 0 513.5 -97t152.5 -336q0 -171 -84.5 -274t-273.5 -139l221 -375q41 -71 77 -102t93 -31q13 0 24.5 1.5t16.5 3.5l6 1v-119q-27 -14 -84 -14q-64 0 -114 27t-83 68t-73 112l-236 409q-12 -2 -82 -2 q-124 0 -264 11v-621h-147v1327q-114 -15 -210.5 -48t-178 -87.5t-128.5 -139.5t-47 -192q0 -73 22 -138t53.5 -105.5t63.5 -71t54 -43.5l22 -13l-75 -94q-11 6 -29 17t-64.5 53t-82 91.5t-64.5 132.5t-29 175zM938 743q87 -6 254 -6q243 0 349 67t106 236q0 76 -20 130.5 t-55.5 88.5t-93 54t-122.5 27.5t-154 7.5q-94 0 -264 -11v-594z" />
<glyph horiz-adv-x="1228" d="M123 393q0 44 7 85t16.5 67.5t19.5 47t17 29.5l7 9l117 -47q-5 -7 -12.5 -21t-20 -60.5t-12.5 -96.5q0 -148 93 -224t247 -76q161 0 263 77.5t102 213.5q0 43 -12 79.5t-29 63t-48.5 50.5t-58 39.5t-72 32t-75 26t-80.5 23.5q-76 21 -132 43.5t-108.5 56t-85.5 74 t-53 97.5t-20 128q0 79 26 142t70.5 104.5t106.5 69t131 39.5t147 12q100 0 190.5 -17.5t131.5 -35.5l40 -17l-39 -117q-13 6 -37.5 16t-108.5 26t-177 16q-340 0 -340 -234q0 -50 17.5 -89.5t43.5 -65.5t73.5 -49t87.5 -36.5t106 -31.5q74 -20 130 -41t119.5 -57.5 t104.5 -80.5t68.5 -111t27.5 -149q0 -196 -140 -311t-368 -115q-223 0 -352 111t-129 305z" />
<glyph horiz-adv-x="1566" d="M98 889q0 258 178.5 411.5t495.5 153.5h729v-131h-487v-1323h-150v1323h-104q-77 0 -148.5 -12.5t-142.5 -43.5t-123 -78.5t-84.5 -124t-32.5 -173.5q0 -56 11.5 -108t30.5 -91t42 -73.5t45.5 -58t41.5 -40.5t30 -25l12 -8l-75 -92q-11 7 -29 19.5t-64.5 58t-82 98 t-64.5 138.5t-29 180z" />
<glyph horiz-adv-x="2056" d="M98 881q0 168 86.5 298t246 202.5t366.5 72.5h147v-903q0 -83 12.5 -150t32.5 -113t51.5 -79.5t64 -53t75.5 -31t80 -15t83 -3.5t83.5 3.5t80.5 15t75.5 31t64.5 53t52.5 79.5t33 113t12.5 150v903h145v-893q0 -161 -35.5 -274t-107 -181t-170.5 -98.5t-234 -30.5 q-274 0 -410 134.5t-136 449.5v766q-77 0 -153 -13.5t-152.5 -46.5t-134.5 -82.5t-94 -128t-36 -175.5q0 -76 22 -144t53.5 -111.5t63.5 -76t54 -46.5l22 -14l-75 -94q-11 6 -29 18.5t-64.5 56.5t-82 95.5t-64.5 136.5t-29 179z" />
<glyph horiz-adv-x="1923" d="M98 893q0 250 176 405.5t476 155.5h43l454 -1356l455 1356h153l-493 -1454h-229l-453 1325q-66 -5 -128 -22t-122 -50.5t-104.5 -81t-71.5 -119t-27 -157.5q0 -79 22.5 -150t54.5 -116t63.5 -78t54.5 -47l22 -15l-75 -94q-6 3 -15.5 9.5t-37.5 29t-54 49t-57 70t-53.5 91 t-38 113.5t-15.5 136z" />
<glyph horiz-adv-x="2584" d="M98 893q0 250 176 405.5t476 155.5h57l323 -1202l31 -141l33 143l315 1135h152l313 -1137l33 -139l33 143l323 1198h154l-393 -1454h-215l-299 1055l-27 119l-24 -119l-299 -1055h-213l-363 1325q-67 -4 -129.5 -20.5t-123 -50.5t-105 -81.5t-72 -119t-27.5 -158.5 q0 -79 22.5 -150t54.5 -116t63.5 -78t54.5 -47l22 -15l-75 -94q-6 3 -15.5 9.5t-37.5 29t-54 49t-57 70t-53.5 91t-38 113.5t-15.5 136z" />
<glyph horiz-adv-x="1865" d="M98 893q0 250 174 405.5t469 155.5h43l424 -618l428 618h170l-501 -723l505 -731h-172l-428 618l-428 -618h-172l504 731l-420 594q-68 -3 -131.5 -18.5t-125.5 -48.5t-108 -80.5t-74 -120.5t-28 -162q0 -79 22.5 -150t54.5 -116t63.5 -78t54.5 -47l22 -15l-75 -94 q-6 3 -15.5 9.5t-37.5 29t-54 49t-57 70t-53.5 91t-38 113.5t-15.5 136z" />
<glyph horiz-adv-x="1828" d="M98 893q0 249 171 405t458 156h31l426 -717l428 717h162l-517 -854v-600h-147v602l-442 723q-66 -5 -127 -22.5t-119 -52t-100.5 -82.5t-68.5 -118.5t-26 -154.5q0 -58 12 -112t31 -93.5t42.5 -74t46.5 -57t42 -38.5t31 -24l12 -7l-75 -94q-6 3 -15.5 9.5t-37.5 29 t-54 48.5t-57 69.5t-53.5 91.5t-38 113.5t-15.5 136.5z" />
<glyph horiz-adv-x="1277" d="M98 1063q0 172 122.5 281.5t334.5 109.5h582l34 -127l-827 -1198h832v-129h-1002v129l832 1198h-449q-155 0 -240.5 -72.5t-85.5 -197.5q0 -64 23.5 -125t46.5 -90l23 -29l-101 -70q-5 5 -13.5 14.5t-30 41.5t-38 67t-30 88.5t-13.5 108.5z" />
<glyph horiz-adv-x="1769" d="M98 891q0 95 28.5 180t90.5 159.5t152 129t222 86t292 31.5q70 0 146 -5.5t117 -11.5l40 -6l518 -1454h-154l-159 455h-621l-158 -455h-155l479 1346q-39 2 -62 2q-195 0 -339 -51t-226 -155.5t-82 -252.5q0 -61 14 -117.5t33.5 -92.5t39.5 -63.5t34 -39.5l14 -13 l-90 -84q-7 6 -19 17t-42 50.5t-52.5 83.5t-41.5 115t-19 146zM811 1780l80 90l287 -250l-60 -78zM815 584h531l-265 762z" />
<glyph horiz-adv-x="1769" d="M98 891q0 95 28.5 180t90.5 159.5t152 129t222 86t292 31.5q70 0 146 -5.5t117 -11.5l40 -6l518 -1454h-154l-159 455h-621l-158 -455h-155l479 1346q-39 2 -62 2q-195 0 -339 -51t-226 -155.5t-82 -252.5q0 -61 14 -117.5t33.5 -92.5t39.5 -63.5t34 -39.5l14 -13 l-90 -84q-7 6 -19 17t-42 50.5t-52.5 83.5t-41.5 115t-19 146zM815 584h531l-265 762zM950 1636l287 250l80 -92l-307 -235z" />
<glyph horiz-adv-x="1769" d="M98 891q0 95 28.5 180t90.5 159.5t152 129t222 86t292 31.5q70 0 146 -5.5t117 -11.5l40 -6l518 -1454h-154l-159 455h-621l-158 -455h-155l479 1346q-39 2 -62 2q-195 0 -339 -51t-226 -155.5t-82 -252.5q0 -61 14 -117.5t33.5 -92.5t39.5 -63.5t34 -39.5l14 -13 l-90 -84q-7 6 -19 17t-42 50.5t-52.5 83.5t-41.5 115t-19 146zM799 1614l278 250l281 -250l-62 -72l-219 176l-215 -176zM815 584h531l-265 762z" />
<glyph horiz-adv-x="1769" d="M98 891q0 95 28.5 180t90.5 159.5t152 129t222 86t292 31.5q70 0 146 -5.5t117 -11.5l40 -6l518 -1454h-154l-159 455h-621l-158 -455h-155l479 1346q-39 2 -62 2q-195 0 -339 -51t-226 -155.5t-82 -252.5q0 -61 14 -117.5t33.5 -92.5t39.5 -63.5t34 -39.5l14 -13 l-90 -84q-7 6 -19 17t-42 50.5t-52.5 83.5t-41.5 115t-19 146zM754 1653q1 7 3.5 18t15.5 39.5t30 50.5t50.5 40t74.5 18q47 0 90.5 -25.5t79.5 -50.5t67 -25q34 0 57.5 25t30.5 51l7 25l81 -43q-1 -7 -4 -18t-15.5 -40t-30 -51.5t-50.5 -40.5t-74 -18q-45 0 -87 25 t-78.5 50t-67.5 25q-22 0 -40 -10.5t-28.5 -25t-17.5 -29t-10 -25.5l-2 -10zM815 584h531l-265 762z" />
<glyph horiz-adv-x="1769" d="M98 891q0 95 28.5 180t90.5 159.5t152 129t222 86t292 31.5q70 0 146 -5.5t117 -11.5l40 -6l518 -1454h-154l-159 455h-621l-158 -455h-155l479 1346q-39 2 -62 2q-195 0 -339 -51t-226 -155.5t-82 -252.5q0 -61 14 -117.5t33.5 -92.5t39.5 -63.5t34 -39.5l14 -13 l-90 -84q-7 6 -19 17t-42 50.5t-52.5 83.5t-41.5 115t-19 146zM786 1712q0 38 23 61t63 23q39 0 61.5 -23.5t22.5 -60.5q0 -40 -22.5 -64t-61.5 -24q-41 0 -63.5 24t-22.5 64zM815 584h531l-265 762zM1184 1712q0 37 23.5 60.5t62.5 23.5q40 0 63 -23t23 -61 q0 -40 -22.5 -64t-63.5 -24q-40 0 -63 24t-23 64z" />
<glyph horiz-adv-x="1769" d="M98 891q0 95 28.5 180t90.5 159.5t152 129t222 86t292 31.5q70 0 146 -5.5t117 -11.5l40 -6l518 -1454h-154l-159 455h-621l-158 -455h-155l479 1346q-39 2 -62 2q-195 0 -339 -51t-226 -155.5t-82 -252.5q0 -61 14 -117.5t33.5 -92.5t39.5 -63.5t34 -39.5l14 -13 l-90 -84q-7 6 -19 17t-42 50.5t-52.5 83.5t-41.5 115t-19 146zM815 584h531l-265 762zM854 1759q0 89 57 141t148 52q90 0 146.5 -52t56.5 -141t-56.5 -138.5t-146.5 -49.5q-92 0 -148.5 49.5t-56.5 138.5zM952 1759q0 -51 28.5 -78.5t78.5 -27.5t78 27.5t28 78.5 q0 52 -28 81.5t-78 29.5t-78.5 -29.5t-28.5 -81.5z" />
<glyph horiz-adv-x="2193" d="M98 891q0 95 28.5 180t90.5 159.5t152 129t222 86t292 31.5q70 0 146 -5.5t117 -11.5l40 -6h880v-127h-768v-506h684v-127h-684v-276q0 -165 103 -238.5t307 -73.5q91 0 181 8.5t135 16.5l44 8v-127q-153 -35 -372 -35q-545 0 -545 443v37h-473l-240 -457h-157l718 1343 q-72 5 -125 5q-195 0 -339 -51t-226 -155.5t-82 -252.5q0 -61 14 -117.5t33.5 -92.5t39.5 -63.5t34 -39.5l14 -13l-90 -84q-7 6 -19 17t-42 50.5t-52.5 83.5t-41.5 115t-19 146zM743 584h408v772z" />
<glyph horiz-adv-x="1302" d="M117 723q0 119 20.5 226t68 204.5t119 168.5t180 113t243.5 42q115 0 204 -31.5t141.5 -85.5t78.5 -119t26 -137q0 -124 -75 -223t-208 -164l-65 98q205 108 205 281q0 49 -16 92t-50 80t-95.5 58.5t-143.5 21.5q-88 0 -160.5 -23t-122 -60t-87.5 -90.5t-59.5 -108.5 t-34.5 -119.5t-17.5 -117t-4.5 -108.5q0 -615 508 -615q82 0 160.5 15t116.5 30l38 15l37 -121q-15 -8 -44.5 -19t-128 -30t-206.5 -19l-24 -98q32 4 51 4q83 0 140 -39t57 -120q0 -77 -57 -125t-173 -48q-54 0 -101.5 10.5t-67.5 21.5l-21 11l22 89q76 -37 152 -37 q127 0 127 84q0 86 -129 86q-76 0 -127 -19l47 189q-119 15 -211 64.5t-150 119t-95.5 162t-52.5 188t-15 203.5z" />
<glyph horiz-adv-x="1329" d="M117 711q0 125 22 236t71.5 209t122.5 168.5t181.5 111.5t243.5 41q111 0 197.5 -28.5t138 -76.5t78 -107.5t26.5 -125.5q0 -50 -14.5 -98.5t-37.5 -83.5t-36.5 -52t-24.5 -28l-100 63q6 6 20 26t33 68t19 94q0 93 -72.5 156.5t-228.5 63.5q-87 0 -159 -22t-122 -59 t-88 -89.5t-61 -108t-37.5 -121t-19.5 -122.5t-5 -117q0 -54 4 -103.5t16 -112t32.5 -115t56.5 -104.5t83.5 -87.5t118 -58t156.5 -22.5q143 0 283 58v450h141v-661q0 -177 -113.5 -289.5t-310.5 -112.5q-52 0 -100 6.5t-70 12.5l-22 6l20 121q70 -23 162 -23q153 0 223 76 t70 201v78q-135 -52 -293 -52q-135 0 -241.5 42t-173.5 111.5t-110.5 166.5t-61 198.5t-17.5 215.5zM465 1815l88 34q1 -6 3 -16.5t13.5 -37.5t28.5 -47t51.5 -37t79.5 -17t80 16t52.5 39t28 45.5t12.5 38.5l3 16l90 -34q-1 -5 -2 -13t-8.5 -32t-18.5 -46t-32 -48.5 t-47.5 -45.5t-67.5 -32t-90 -13t-89.5 12.5t-67 33t-47 45t-31.5 49t-18 45t-9 32.5z" />
<glyph horiz-adv-x="1998" d="M98 864q0 102 32.5 190t108.5 167t192 135t293 88.5t400 32.5q95 0 171 -7t157 -26.5t142 -53.5t117.5 -90.5t92.5 -134t57 -187.5t21 -247q0 -93 -9 -173.5t-30.5 -158.5t-55.5 -140.5t-87 -116t-122 -89.5t-162 -56t-206 -20q-75 0 -176 8.5t-171 17.5t-72 9v672h-80 v121h80v520q-90 -12 -169.5 -34t-153 -60.5t-126 -89t-84 -123t-31.5 -158.5q0 -73 22 -138t53.5 -105.5t63.5 -71t54 -43.5l22 -13l-75 -94q-11 6 -29 17t-64.5 53t-82 91.5t-64.5 132.5t-29 175zM938 125q140 -19 283 -19q88 0 157 13.5t138.5 54.5t115.5 108.5t74.5 183 t28.5 271.5q0 151 -26.5 260t-72.5 176.5t-122.5 106.5t-162.5 53.5t-206 14.5q-125 0 -207 -9v-534h387v-121h-387v-559z" />
<glyph horiz-adv-x="1839" d="M98 881q0 168 86.5 298t246 202.5t366.5 72.5h915v-127h-768v-506h684v-127h-684v-276q0 -166 105 -239t309 -73q84 0 172.5 9t135.5 17l46 9v-129q-164 -35 -369 -35q-280 0 -413 110.5t-133 332.5v907q-76 0 -151.5 -13.5t-152.5 -46.5t-135 -82.5t-94.5 -128 t-36.5 -175.5q0 -76 22 -144t53.5 -111.5t63.5 -76t54 -46.5l22 -14l-75 -94q-11 6 -29 18.5t-64.5 56.5t-82 95.5t-64.5 136.5t-29 179zM991 1780l78 90l289 -250l-62 -78z" />
<glyph horiz-adv-x="1839" d="M98 881q0 168 86.5 298t246 202.5t366.5 72.5h915v-127h-768v-506h684v-127h-684v-276q0 -166 105 -239t309 -73q84 0 172.5 9t135.5 17l46 9v-129q-164 -35 -369 -35q-280 0 -413 110.5t-133 332.5v907q-76 0 -151.5 -13.5t-152.5 -46.5t-135 -82.5t-94.5 -128 t-36.5 -175.5q0 -76 22 -144t53.5 -111.5t63.5 -76t54 -46.5l22 -14l-75 -94q-11 6 -29 18.5t-64.5 56.5t-82 95.5t-64.5 136.5t-29 179zM1167 1620l289 250l78 -90l-305 -238z" />
<glyph horiz-adv-x="1839" d="M98 881q0 168 86.5 298t246 202.5t366.5 72.5h915v-127h-768v-506h684v-127h-684v-276q0 -166 105 -239t309 -73q84 0 172.5 9t135.5 17l46 9v-129q-164 -35 -369 -35q-280 0 -413 110.5t-133 332.5v907q-76 0 -151.5 -13.5t-152.5 -46.5t-135 -82.5t-94.5 -128 t-36.5 -175.5q0 -76 22 -144t53.5 -111.5t63.5 -76t54 -46.5l22 -14l-75 -94q-11 6 -29 18.5t-64.5 56.5t-82 95.5t-64.5 136.5t-29 179zM973 1614l280 250l281 -250l-64 -72l-217 176l-217 -176z" />
<glyph horiz-adv-x="1839" d="M98 881q0 168 86.5 298t246 202.5t366.5 72.5h915v-127h-768v-506h684v-127h-684v-276q0 -166 105 -239t309 -73q84 0 172.5 9t135.5 17l46 9v-129q-164 -35 -369 -35q-280 0 -413 110.5t-133 332.5v907q-76 0 -151.5 -13.5t-152.5 -46.5t-135 -82.5t-94.5 -128 t-36.5 -175.5q0 -76 22 -144t53.5 -111.5t63.5 -76t54 -46.5l22 -14l-75 -94q-11 6 -29 18.5t-64.5 56.5t-82 95.5t-64.5 136.5t-29 179zM969 1712q0 38 23 61t63 23t63 -23t23 -61q0 -40 -22.5 -64t-63.5 -24t-63.5 24t-22.5 64zM1368 1712q0 38 23 61t63 23 q39 0 62.5 -23.5t23.5 -60.5q0 -40 -23 -64t-63 -24q-41 0 -63.5 24t-22.5 64z" />
<glyph horiz-adv-x="1128" d="M98 881q0 168 86.5 298t246 202.5t366.5 72.5h147v-1454h-147v1327q-76 0 -151.5 -13.5t-152.5 -46.5t-135 -82.5t-94.5 -128t-36.5 -175.5q0 -76 22 -144t53.5 -111.5t63.5 -76t54 -46.5l22 -14l-75 -94q-11 6 -29 18.5t-64.5 56.5t-82 95.5t-64.5 136.5t-29 179z M553 1780l80 90l287 -250l-62 -78z" />
<glyph horiz-adv-x="1128" d="M98 881q0 168 86.5 298t246 202.5t366.5 72.5h147v-1454h-147v1327q-76 0 -151.5 -13.5t-152.5 -46.5t-135 -82.5t-94.5 -128t-36.5 -175.5q0 -76 22 -144t53.5 -111.5t63.5 -76t54 -46.5l22 -14l-75 -94q-11 6 -29 18.5t-64.5 56.5t-82 95.5t-64.5 136.5t-29 179z M750 1620l286 250l80 -90l-307 -238z" />
<glyph horiz-adv-x="1128" d="M98 881q0 168 86.5 298t246 202.5t366.5 72.5h147v-1454h-147v1327q-76 0 -151.5 -13.5t-152.5 -46.5t-135 -82.5t-94.5 -128t-36.5 -175.5q0 -76 22 -144t53.5 -111.5t63.5 -76t54 -46.5l22 -14l-75 -94q-11 6 -29 18.5t-64.5 56.5t-82 95.5t-64.5 136.5t-29 179z M530 1614l281 250l279 -250l-62 -72l-217 176l-217 -176z" />
<glyph horiz-adv-x="1128" d="M98 881q0 168 86.5 298t246 202.5t366.5 72.5h147v-1454h-147v1327q-76 0 -151.5 -13.5t-152.5 -46.5t-135 -82.5t-94.5 -128t-36.5 -175.5q0 -76 22 -144t53.5 -111.5t63.5 -76t54 -46.5l22 -14l-75 -94q-11 6 -29 18.5t-64.5 56.5t-82 95.5t-64.5 136.5t-29 179z M522 1712q0 38 22 61t62 23q39 0 62.5 -23.5t23.5 -60.5q0 -40 -23 -64t-63 -24t-62 23.5t-22 64.5zM920 1712q0 38 23 61t63 23q39 0 62.5 -23.5t23.5 -60.5q0 -40 -23 -64t-63 -24q-41 0 -63.5 24t-22.5 64z" />
<glyph horiz-adv-x="1128" d="M98 881q0 168 86.5 298t246 202.5t366.5 72.5h147v-1454h-147v1327q-76 0 -151.5 -13.5t-152.5 -46.5t-135 -82.5t-94.5 -128t-36.5 -175.5q0 -76 22 -144t53.5 -111.5t63.5 -76t54 -46.5l22 -14l-75 -94q-11 6 -29 18.5t-64.5 56.5t-82 95.5t-64.5 136.5t-29 179z M770 1755q0 42 25.5 68t70.5 26q44 0 70.5 -26t26.5 -68q0 -43 -26.5 -69.5t-70.5 -26.5q-45 0 -70.5 26.5t-25.5 69.5z" />
<glyph horiz-adv-x="2056" d="M98 881q0 168 86.5 298t246 202.5t366.5 72.5h194l752 -1253l-6 118v1135h145v-1454h-186l-762 1268l8 -119v-1149h-145v1327q-77 0 -153 -13.5t-152.5 -46.5t-134.5 -82.5t-94 -128t-36 -175.5q0 -76 22 -144t53.5 -111.5t63.5 -76t54 -46.5l22 -14l-75 -94 q-11 6 -29 18.5t-64.5 56.5t-82 95.5t-64.5 136.5t-29 179zM1051 1653q1 7 3.5 18t15.5 39.5t30 50.5t50.5 40t74.5 18q47 0 90 -25.5t78.5 -50.5t66.5 -25q21 0 39 10.5t28 25t17 29.5t10 25l2 11l82 -43q-1 -7 -4 -18t-15.5 -40t-30 -51.5t-50.5 -40.5t-74 -18 q-37 0 -72 15.5t-58 34.5t-51.5 34.5t-53.5 15.5q-34 0 -58 -25t-31 -50l-7 -25z" />
<glyph d="M117 731q0 264 81 462t228 280l63 -72q-225 -179 -225 -674q0 -65 3 -119t14.5 -120t30 -117.5t51.5 -103t77.5 -85.5t111 -55t148.5 -21t148.5 21t111.5 55t78.5 85t52.5 102.5t30 117.5t14.5 120.5t3.5 119.5q0 109 -7.5 195.5t-28.5 168.5t-55.5 136.5t-90 87.5 t-130.5 33q-114 0 -178.5 -81t-64.5 -210q0 -110 53.5 -208.5t161.5 -164.5l-72 -92q-130 71 -201 198t-71 265q0 117 41.5 211t128 152.5t204.5 58.5q87 0 157.5 -26.5t117 -68t81.5 -105t53.5 -126t30 -142.5t14.5 -142.5t3 -137.5q0 -752 -586 -752q-139 0 -244 43 t-168.5 112.5t-103 170.5t-53.5 203t-14 225zM414 1780l78 90l288 -250l-61 -78z" />
<glyph d="M117 731q0 264 81 462t228 280l63 -72q-225 -179 -225 -674q0 -65 3 -119t14.5 -120t30 -117.5t51.5 -103t77.5 -85.5t111 -55t148.5 -21t148.5 21t111.5 55t78.5 85t52.5 102.5t30 117.5t14.5 120.5t3.5 119.5q0 109 -7.5 195.5t-28.5 168.5t-55.5 136.5t-90 87.5 t-130.5 33q-114 0 -178.5 -81t-64.5 -210q0 -110 53.5 -208.5t161.5 -164.5l-72 -92q-130 71 -201 198t-71 265q0 117 41.5 211t128 152.5t204.5 58.5q87 0 157.5 -26.5t117 -68t81.5 -105t53.5 -126t30 -142.5t14.5 -142.5t3 -137.5q0 -752 -586 -752q-139 0 -244 43 t-168.5 112.5t-103 170.5t-53.5 203t-14 225zM612 1638l289 250l78 -92l-305 -235z" />
<glyph d="M117 731q0 264 81 462t228 280l63 -72q-225 -179 -225 -674q0 -65 3 -119t14.5 -120t30 -117.5t51.5 -103t77.5 -85.5t111 -55t148.5 -21t148.5 21t111.5 55t78.5 85t52.5 102.5t30 117.5t14.5 120.5t3.5 119.5q0 109 -7.5 195.5t-28.5 168.5t-55.5 136.5t-90 87.5 t-130.5 33q-114 0 -178.5 -81t-64.5 -210q0 -110 53.5 -208.5t161.5 -164.5l-72 -92q-130 71 -201 198t-71 265q0 117 41.5 211t128 152.5t204.5 58.5q87 0 157.5 -26.5t117 -68t81.5 -105t53.5 -126t30 -142.5t14.5 -142.5t3 -137.5q0 -752 -586 -752q-139 0 -244 43 t-168.5 112.5t-103 170.5t-53.5 203t-14 225zM428 1630l279 250l280 -250l-63 -69l-217 174l-215 -174z" />
<glyph d="M117 731q0 264 81 462t228 280l63 -72q-225 -179 -225 -674q0 -65 3 -119t14.5 -120t30 -117.5t51.5 -103t77.5 -85.5t111 -55t148.5 -21t148.5 21t111.5 55t78.5 85t52.5 102.5t30 117.5t14.5 120.5t3.5 119.5q0 109 -7.5 195.5t-28.5 168.5t-55.5 136.5t-90 87.5 t-130.5 33q-114 0 -178.5 -81t-64.5 -210q0 -110 53.5 -208.5t161.5 -164.5l-72 -92q-130 71 -201 198t-71 265q0 117 41.5 211t128 152.5t204.5 58.5q87 0 157.5 -26.5t117 -68t81.5 -105t53.5 -126t30 -142.5t14.5 -142.5t3 -137.5q0 -752 -586 -752q-139 0 -244 43 t-168.5 112.5t-103 170.5t-53.5 203t-14 225zM403 1653q1 7 4 18t16 39.5t30.5 50.5t50.5 40t74 18q38 0 73.5 -16t58 -34.5t50.5 -34.5t53 -16q21 0 39 10.5t28 25t17 29.5t9 25l3 11l82 -43q-1 -7 -4 -18t-15.5 -40t-30 -51.5t-50.5 -40.5t-74 -18q-45 0 -87.5 25 t-79.5 50t-68 25q-34 0 -58 -25t-32 -50l-7 -25z" />
<glyph d="M117 731q0 264 81 462t228 280l63 -72q-225 -179 -225 -674q0 -65 3 -119t14.5 -120t30 -117.5t51.5 -103t77.5 -85.5t111 -55t148.5 -21t148.5 21t111.5 55t78.5 85t52.5 102.5t30 117.5t14.5 120.5t3.5 119.5q0 109 -7.5 195.5t-28.5 168.5t-55.5 136.5t-90 87.5 t-130.5 33q-114 0 -178.5 -81t-64.5 -210q0 -110 53.5 -208.5t161.5 -164.5l-72 -92q-130 71 -201 198t-71 265q0 117 41.5 211t128 152.5t204.5 58.5q87 0 157.5 -26.5t117 -68t81.5 -105t53.5 -126t30 -142.5t14.5 -142.5t3 -137.5q0 -752 -586 -752q-139 0 -244 43 t-168.5 112.5t-103 170.5t-53.5 203t-14 225zM408 1712q0 38 23 61t65 23q39 0 61.5 -23.5t22.5 -60.5q0 -40 -22.5 -64t-61.5 -24q-42 0 -65 24t-23 64zM807 1712q0 38 23 61t63 23q39 0 62.5 -23.5t23.5 -60.5q0 -40 -23 -64t-63 -24q-41 0 -63.5 24t-22.5 64z" />
<glyph d="M117 731q0 264 81 462t228 280l63 -72q-225 -179 -225 -674q0 -80 6 -147t22 -142.5t51 -138.5t87 -106l434 1153q-6 0 -18.5 1t-18.5 1q-114 0 -178.5 -81t-64.5 -210q0 -24 2.5 -48.5t5.5 -37.5l2 -13l-119 -24q-20 49 -20 121q0 117 41.5 211t128 152.5t204.5 58.5 q38 0 82 -7l60 154l112 -47l-55 -145q56 -29 99.5 -75.5t71 -106t45.5 -121.5t27 -136t12 -133.5t3 -130.5q0 -752 -586 -752q-113 0 -208 29l-72 -190l-115 45l74 196q-262 164 -262 674zM539 131q70 -25 161 -25q82 0 148.5 21t111.5 55t78.5 85t52.5 102.5t30 117.5 t14.5 120.5t3.5 119.5q0 457 -160 573z" />
<glyph horiz-adv-x="1228" d="M123 393q0 44 7 85t16.5 67.5t19.5 47t17 29.5l7 9l117 -47q-5 -7 -12.5 -21t-20 -60.5t-12.5 -96.5q0 -148 93 -224t247 -76q161 0 263 77.5t102 213.5q0 43 -12 79.5t-29 63t-48.5 50.5t-58 39.5t-72 32t-75 26t-80.5 23.5q-76 21 -132 43.5t-108.5 56t-85.5 74 t-53 97.5t-20 128q0 79 26 142t70.5 104.5t106.5 69t131 39.5t147 12q100 0 190.5 -17.5t131.5 -35.5l40 -17l-39 -117q-13 6 -37.5 16t-108.5 26t-177 16q-340 0 -340 -234q0 -50 17.5 -89.5t43.5 -65.5t73.5 -49t87.5 -36.5t106 -31.5q74 -20 130 -41t119.5 -57.5 t104.5 -80.5t68.5 -111t27.5 -149q0 -185 -125 -297t-332 -126l-24 -101q32 4 51 4q83 0 140 -39t57 -120q0 -77 -57 -125t-173 -48q-54 0 -101.5 10.5t-67.5 21.5l-21 11l22 89q76 -37 152 -37q127 0 127 84q0 86 -129 86q-76 0 -127 -19l45 183q-199 14 -312.5 122.5 t-113.5 290.5z" />
<glyph horiz-adv-x="2056" d="M98 881q0 168 86.5 298t246 202.5t366.5 72.5h147v-903q0 -83 12.5 -150t32.5 -113t51.5 -79.5t64 -53t75.5 -31t80 -15t83 -3.5t83.5 3.5t80.5 15t75.5 31t64.5 53t52.5 79.5t33 113t12.5 150v903h145v-893q0 -161 -35.5 -274t-107 -181t-170.5 -98.5t-234 -30.5 q-274 0 -410 134.5t-136 449.5v766q-77 0 -153 -13.5t-152.5 -46.5t-134.5 -82.5t-94 -128t-36 -175.5q0 -76 22 -144t53.5 -111.5t63.5 -76t54 -46.5l22 -14l-75 -94q-11 6 -29 18.5t-64.5 56.5t-82 95.5t-64.5 136.5t-29 179zM1057 1780l78 90l288 -250l-61 -78z" />
<glyph horiz-adv-x="2056" d="M98 881q0 168 86.5 298t246 202.5t366.5 72.5h147v-903q0 -83 12.5 -150t32.5 -113t51.5 -79.5t64 -53t75.5 -31t80 -15t83 -3.5t83.5 3.5t80.5 15t75.5 31t64.5 53t52.5 79.5t33 113t12.5 150v903h145v-893q0 -161 -35.5 -274t-107 -181t-170.5 -98.5t-234 -30.5 q-274 0 -410 134.5t-136 449.5v766q-77 0 -153 -13.5t-152.5 -46.5t-134.5 -82.5t-94 -128t-36 -175.5q0 -76 22 -144t53.5 -111.5t63.5 -76t54 -46.5l22 -14l-75 -94q-11 6 -29 18.5t-64.5 56.5t-82 95.5t-64.5 136.5t-29 179zM1262 1620l286 250l80 -90l-305 -238z" />
<glyph horiz-adv-x="2056" d="M98 881q0 168 86.5 298t246 202.5t366.5 72.5h147v-903q0 -83 12.5 -150t32.5 -113t51.5 -79.5t64 -53t75.5 -31t80 -15t83 -3.5t83.5 3.5t80.5 15t75.5 31t64.5 53t52.5 79.5t33 113t12.5 150v903h145v-893q0 -161 -35.5 -274t-107 -181t-170.5 -98.5t-234 -30.5 q-274 0 -410 134.5t-136 449.5v766q-77 0 -153 -13.5t-152.5 -46.5t-134.5 -82.5t-94 -128t-36 -175.5q0 -76 22 -144t53.5 -111.5t63.5 -76t54 -46.5l22 -14l-75 -94q-11 6 -29 18.5t-64.5 56.5t-82 95.5t-64.5 136.5t-29 179zM1061 1614l278 250l281 -250l-61 -72 l-220 176l-217 -176z" />
<glyph horiz-adv-x="2056" d="M98 881q0 168 86.5 298t246 202.5t366.5 72.5h147v-903q0 -83 12.5 -150t32.5 -113t51.5 -79.5t64 -53t75.5 -31t80 -15t83 -3.5t83.5 3.5t80.5 15t75.5 31t64.5 53t52.5 79.5t33 113t12.5 150v903h145v-893q0 -161 -35.5 -274t-107 -181t-170.5 -98.5t-234 -30.5 q-274 0 -410 134.5t-136 449.5v766q-77 0 -153 -13.5t-152.5 -46.5t-134.5 -82.5t-94 -128t-36 -175.5q0 -76 22 -144t53.5 -111.5t63.5 -76t54 -46.5l22 -14l-75 -94q-11 6 -29 18.5t-64.5 56.5t-82 95.5t-64.5 136.5t-29 179zM1049 1712q0 38 23 61t63 23q39 0 62.5 -23.5 t23.5 -60.5q0 -40 -23 -64t-63 -24q-41 0 -63.5 24t-22.5 64zM1448 1712q0 38 23 61t63 23q39 0 62.5 -23.5t23.5 -60.5q0 -40 -23 -64t-63 -24q-41 0 -63.5 24t-22.5 64z" />
<glyph horiz-adv-x="1828" d="M98 893q0 249 171 405t458 156h31l426 -717l428 717h162l-517 -854v-600h-147v602l-442 723q-66 -5 -127 -22.5t-119 -52t-100.5 -82.5t-68.5 -118.5t-26 -154.5q0 -58 12 -112t31 -93.5t42.5 -74t46.5 -57t42 -38.5t31 -24l12 -7l-75 -94q-6 3 -15.5 9.5t-37.5 29 t-54 48.5t-57 69.5t-53.5 91.5t-38 113.5t-15.5 136.5zM1098 1620l288 250l78 -90l-305 -238z" />
<glyph horiz-adv-x="1910" d="M86 -131l45 106q8 -6 22 -15t63 -24.5t103 -15.5q64 0 116.5 21t92 56.5t76.5 97.5t65.5 128t63.5 164l346 959q-47 2 -63 2q-195 0 -339 -51t-226 -155.5t-82 -252.5q0 -61 14 -117.5t33.5 -92.5t39.5 -63.5t34 -39.5l14 -13l-90 -84q-7 6 -19 17t-42 50.5t-52.5 83.5 t-41.5 115t-19 146q0 95 28.5 180t90 159.5t152 129t222 86t291.5 31.5q70 0 146 -5.5t116 -11.5l41 -6l518 -1454h-153l-160 455h-623l-30 -93q-27 -78 -48.5 -133t-51.5 -119t-59 -107.5t-69.5 -86.5t-85 -68.5t-101.5 -41t-124 -15.5q-47 0 -90.5 8t-72 19.5t-50 23 t-31.5 19.5zM954 584h533l-264 762z" />
<glyph horiz-adv-x="1925" d="M98 864q0 102 32.5 190t108.5 167t192 135t293 88.5t400 32.5q125 0 220 -10.5t175.5 -36.5t131.5 -69t79.5 -109t28.5 -156q0 -272 -264 -344q326 -75 326 -414q0 -234 -162 -342.5t-485 -108.5q-134 0 -256.5 18t-201.5 44t-138.5 52t-85.5 44l-27 18l53 111 q12 -9 34 -22.5t93 -44.5t146 -48v1268q-114 -15 -210.5 -48t-178 -87.5t-128.5 -139.5t-47 -192q0 -73 22 -138t53.5 -105.5t63.5 -71t54 -43.5l22 -13l-75 -94q-11 6 -29 17t-64.5 53t-82 91.5t-64.5 132.5t-29 175zM938 31q116 -17 236 -17q248 0 373.5 76t125.5 262 q0 332 -422 332h-313v-653zM938 805h285q200 0 294.5 63.5t94.5 208.5q0 67 -20 114.5t-56 78t-95.5 48t-128.5 24t-165 6.5q-129 0 -209 -11v-532z" />
<glyph horiz-adv-x="1390" d="M117 631q0 134 22 254.5t72 230t124.5 188.5t187.5 126t253 47q115 0 206.5 -31.5t147 -85t84.5 -119.5t29 -139q0 -124 -76 -226.5t-204 -166.5l-70 98q99 51 153 125.5t54 161.5q0 49 -18 92.5t-55 81t-101.5 59t-149.5 21.5q-90 0 -164.5 -25t-126.5 -66.5t-92 -100.5 t-63.5 -122t-38 -137t-20 -138.5t-5.5 -133.5q0 -63 4.5 -121t19 -130.5t38 -133t65 -120.5t96 -101.5t135.5 -67t179 -25.5q71 0 140.5 13t117.5 31t85.5 36.5t55.5 31.5l19 13l51 -110q-8 -6 -22 -15.5t-62.5 -34.5t-101 -44t-133 -34.5t-162.5 -15.5q-108 0 -200 24.5 t-160.5 67.5t-122.5 105t-89.5 133t-58.5 156t-33 170t-10 178z" />
<glyph horiz-adv-x="1998" d="M98 864q0 102 32.5 190t108.5 167t192 135t293 88.5t400 32.5q97 0 176 -8t159.5 -30.5t141.5 -60t115.5 -98.5t89.5 -143.5t55.5 -198t20.5 -258.5q0 -140 -19 -252.5t-67.5 -216t-126 -173t-202.5 -110.5t-289 -41q-123 0 -241.5 17.5t-199.5 42.5t-144 50t-93 43 l-31 17l51 111q12 -8 34.5 -20t93.5 -41t143 -46v1264q-90 -12 -169.5 -34t-153 -60.5t-126 -89t-84 -123t-31.5 -158.5q0 -73 22 -138t53.5 -105.5t63.5 -71t54 -43.5l22 -13l-75 -94q-11 6 -29 17t-64.5 53t-82 91.5t-64.5 132.5t-29 175zM938 35q122 -21 256 -21 q64 0 117 6.5t110.5 25t102 49.5t85.5 83t67.5 122t42.5 170t16 224q0 129 -17 229.5t-52.5 172.5t-84.5 121t-118 77.5t-147.5 41t-178.5 12.5q-123 0 -199 -9v-1304z" />
<glyph horiz-adv-x="1841" d="M98 881q0 168 86.5 298t246 202.5t366.5 72.5h915v-127h-768v-557h684v-127h-684v-274q0 -101 23.5 -175t61.5 -117t96.5 -69t116 -34.5t132.5 -8.5q101 0 200.5 21.5t148.5 43.5l49 21l47 -110l-23 -11.5t-63 -26.5t-98.5 -33t-124.5 -26t-146 -12q-567 0 -567 539v956 q-76 0 -151.5 -13.5t-152.5 -46.5t-135 -82.5t-94.5 -128t-36.5 -175.5q0 -76 22 -144t53.5 -111.5t63.5 -76t54 -46.5l22 -14l-75 -94q-11 6 -29 18.5t-64.5 56.5t-82 95.5t-64.5 136.5t-29 179z" />
<glyph horiz-adv-x="1789" d="M98 881q0 168 86.5 298t246 202.5t366.5 72.5h907v-127h-760v-541h674v-129h-674v-276q0 -590 -479 -590q-76 0 -144 16.5t-98 32.5l-30 17l34 112q9 -5 27 -13.5t76.5 -22t122.5 -13.5q186 0 265 114t79 347v946q-76 0 -151.5 -13.5t-152.5 -46.5t-135 -82.5t-94.5 -128 t-36.5 -175.5q0 -76 22 -144t53.5 -111.5t63.5 -76t54 -46.5l22 -14l-75 -94q-11 6 -29 18.5t-64.5 56.5t-82 95.5t-64.5 136.5t-29 179z" />
<glyph horiz-adv-x="1329" d="M117 709q0 126 22 237t71 209.5t122 169t181.5 111.5t242.5 41q112 0 199.5 -28.5t139 -76.5t77.5 -107t26 -126q0 -50 -14.5 -98.5t-37.5 -83.5t-36.5 -52t-24.5 -28l-100 63q6 6 20 26t33 68t19 94q0 93 -72.5 156.5t-228.5 63.5q-87 0 -159 -22t-122 -59t-88 -89.5 t-61 -108t-37.5 -121t-19.5 -122.5t-5 -117q0 -53 4 -102t16.5 -109t33 -110.5t56.5 -100t84 -84t118 -55.5t155 -21q150 0 283 55v432h143v-598q0 -213 -138 -347t-384 -134q-72 0 -140.5 12.5t-115 30t-82.5 34.5t-53 30l-17 12l56 108q5 -4 15.5 -11t44.5 -24t72 -30 t97.5 -24t120.5 -11q179 0 280 89.5t101 260.5v39q-132 -51 -295 -51q-134 0 -239.5 40t-172.5 106t-111 159t-61.5 192t-17.5 212z" />
<glyph horiz-adv-x="2045" d="M98 881q0 168 86.5 298t246 202.5t366.5 72.5h147v-639h780v639h148v-1454h-148v686h-780v-305q0 -590 -479 -590q-76 0 -145 16.5t-100 32.5l-30 17l37 112q9 -5 27 -13.5t76 -22t121 -13.5q186 0 266 114t80 347v946q-76 0 -151.5 -13.5t-152.5 -46.5t-135 -82.5 t-94.5 -128t-36.5 -175.5q0 -76 22 -144t53.5 -111.5t63.5 -76t54 -46.5l22 -14l-75 -94q-11 6 -29 18.5t-64.5 56.5t-82 95.5t-64.5 136.5t-29 179z" />
<glyph horiz-adv-x="1114" d="M98 930q0 247 183 385.5t505 138.5h148v-1061q0 -192 -104 -304t-287 -112q-59 0 -115.5 10.5t-83.5 21.5l-27 11l37 121q75 -35 181 -35q127 0 189 78.5t62 208.5v934q-80 0 -152.5 -9.5t-149 -36.5t-131.5 -69.5t-90.5 -115.5t-35.5 -168q0 -57 13.5 -110.5t32.5 -89 t37.5 -62.5t31.5 -40l14 -12l-86 -77q-7 5 -18.5 15.5t-41 47.5t-52.5 79t-41.5 110t-18.5 141z" />
<glyph horiz-adv-x="1232" d="M92 -18q0 55 10.5 105.5t25 84t29.5 59t25 37.5l11 11l110 -50l-9 -11q-8 -12 -19.5 -31.5t-22.5 -46t-19 -65.5t-8 -81q0 -155 92.5 -242.5t231.5 -87.5q75 0 139 25.5t114 74.5t78.5 129.5t28.5 182.5v1251q-83 0 -158.5 -11t-152.5 -40.5t-132.5 -75t-90.5 -120.5 t-35 -171q0 -54 12 -104.5t31 -87.5t42 -69t46.5 -53t42.5 -36t31 -22l12 -7l-76 -94q-6 3 -15.5 9t-37.5 27t-53 46t-56 66t-53.5 86t-37.5 107.5t-15 129.5q0 248 184 397.5t498 149.5h162v-1374q0 -134 -42 -240.5t-113.5 -171.5t-160.5 -99t-188 -34q-201 0 -331 120 t-130 327z" />
<glyph horiz-adv-x="1835" d="M98 881q0 168 86.5 298t246 202.5t366.5 72.5h147v-719l658 719h180l-674 -739l520 -594q45 -51 66.5 -75.5t65 -71.5t69.5 -72t69 -63.5t74 -59.5t74 -47t80.5 -38.5t81.5 -22t88 -9.5q56 0 105 9t70 17l21 9l27 -115q-9 -5 -27 -13t-80 -21t-131 -13q-90 0 -175.5 26 t-156.5 67t-152 111.5t-145 137.5t-151 168l-557 639v-684h-147v1327q-76 0 -151.5 -13.5t-152.5 -46.5t-135 -82.5t-94.5 -128t-36.5 -175.5q0 -76 22 -144t53.5 -111.5t63.5 -76t54 -46.5l22 -14l-75 -94q-11 6 -29 18.5t-64.5 56.5t-82 95.5t-64.5 136.5t-29 179z" />
<glyph horiz-adv-x="1732" d="M98 881q0 168 86.5 298t246 202.5t366.5 72.5h147v-1124q0 -108 27 -182.5t78.5 -114t114 -56t147.5 -16.5q65 0 125 9t98.5 22t67.5 26t42 22l13 9l47 -112q-6 -4 -17 -11t-49 -25.5t-81 -32t-112 -25t-142 -11.5q-85 0 -157 14.5t-137.5 50.5t-111.5 92t-73 143.5 t-27 199.5v995q-76 0 -151.5 -13.5t-152.5 -46.5t-135 -82.5t-94.5 -128t-36.5 -175.5q0 -76 22 -144t53.5 -111.5t63.5 -76t54 -46.5l22 -14l-75 -94q-11 6 -29 18.5t-64.5 56.5t-82 95.5t-64.5 136.5t-29 179z" />
<glyph horiz-adv-x="2301" d="M100 881q0 168 86.5 298t246 202.5t366.5 72.5h217l434 -1057l434 1057h180l123 -1454h-147l-92 1098l-4 155l-56 -155l-354 -858h-168l-354 858l-47 139l-70 -856q-24 -298 -133 -444t-346 -146q-76 0 -145 16.5t-99 32.5l-31 17l37 112q9 -5 26.5 -13.5t75.5 -22 t121 -13.5q94 0 158 30t102.5 93.5t57.5 144t29 199.5l75 940h-24q-77 0 -152.5 -13.5t-152.5 -46.5t-134.5 -82.5t-94 -128t-36.5 -175.5q0 -76 22 -144t53.5 -111.5t63.5 -76t54 -46.5l22 -14l-75 -94q-11 6 -29 18.5t-64.5 56.5t-82 95.5t-64.5 136.5t-29 179z" />
<glyph horiz-adv-x="2054" d="M98 881q0 168 86.5 298t246 202.5t366.5 72.5h192l752 -1253l-6 118v1135h145v-1454h-186l-760 1266l6 -117v-768q0 -590 -475 -590q-76 0 -145 16.5t-100 32.5l-30 17l37 112q9 -5 27 -13.5t76 -22t121 -13.5q186 0 266 113t80 344v950q-76 0 -151.5 -13.5t-152.5 -46.5 t-135 -82.5t-94.5 -128t-36.5 -175.5q0 -76 22 -144t53.5 -111.5t63.5 -76t54 -46.5l22 -14l-75 -94q-11 6 -29 18.5t-64.5 56.5t-82 95.5t-64.5 136.5t-29 179z" />
<glyph horiz-adv-x="1918" d="M98 989q0 71 14.5 136t37.5 112.5t50.5 88.5t55 68t50.5 46.5t38 27.5l14 9l76 -93q-8 -4 -22 -13.5t-50 -44t-63 -76t-49.5 -112.5t-22.5 -151q0 -98 33 -177t90 -131t130.5 -82.5t158.5 -37.5q-8 73 -8 168q0 750 586 750q585 0 585 -750t-585 -750q-462 0 -560 461 q-262 12 -410.5 168t-148.5 383zM780 727q0 -81 6 -166q180 20 311 111.5t196 230.5t65 311q0 59 -8 117q-66 17 -133 17q-82 0 -148.5 -21t-111 -54.5t-78 -85t-52 -103t-29.5 -117.5t-14.5 -120.5t-3.5 -119.5zM805 444q79 -338 412 -338q82 0 148.5 21t111.5 55t78 85 t52 102.5t30 117.5t14.5 120.5t3.5 119.5q0 84 -6.5 153t-24 147t-56 141.5t-95.5 105.5q8 -46 8 -72q0 -100 -23 -198t-75 -193.5t-128.5 -171t-192 -128.5t-257.5 -67z" />
<glyph horiz-adv-x="1880" d="M98 864q0 101 34 190t111 167.5t192.5 134.5t289 88.5t389.5 32.5q170 0 292.5 -24t211.5 -78t132.5 -145.5t43.5 -221.5q0 -484 -596 -484q-42 0 -103.5 3t-107 5.5t-49.5 2.5v-154q0 -590 -479 -590q-76 0 -144.5 16.5t-98.5 32.5l-30 17l35 112q9 -5 26.5 -13.5 t75.5 -22t121 -13.5q187 0 267 114t80 347v946q-111 -15 -207 -48t-178.5 -87.5t-130.5 -139.5t-48 -192q0 -73 22 -138t53.5 -105.5t63.5 -71t54 -43.5l22 -13l-75 -94q-11 6 -29 17t-64.5 53t-82 91.5t-64.5 132.5t-29 175zM938 662q112 -9 252 -9q232 0 344.5 84 t112.5 271q0 101 -33.5 168.5t-102 104.5t-156.5 52t-214 15q-11 0 -203 -7v-679z" />
<glyph horiz-adv-x="1400" d="M129 801q0 104 17 197t59 182.5t106 153.5t165.5 103.5t230.5 39.5q577 0 577 -752q0 -638 -424 -727q76 -57 126 -92t139 -87t165 -82t179 -52.5t206 -22.5q73 0 146.5 11t110.5 21l38 11l21 -117q-16 -6 -44.5 -15t-118 -23.5t-179.5 -14.5q-74 0 -147.5 10.5t-134 26 t-125 43.5t-111 51t-103.5 62.5t-90 63.5t-82.5 67.5t-69.5 62t-63 58.5q-15 -3 -47 -3q-84 0 -154 23t-112 57l32 113q19 4 50 4q101 0 217 -68q80 2 144.5 24t108.5 56t77 84.5t51 101.5t29 116t14.5 119t3.5 118t-3.5 118t-14.5 120t-29.5 118.5t-51.5 104t-77 86 t-109.5 55.5t-146.5 21q-98 0 -174 -31t-124.5 -83t-80 -124.5t-44 -149t-12.5 -163.5q0 -224 84 -418l-121 -49q-4 7 -11 20.5t-25 60t-32 97.5t-25 130.5t-11 162.5z" />
<glyph horiz-adv-x="1949" d="M98 864q0 102 32.5 190t108.5 167t192 135t294 88.5t403 32.5q366 0 516 -96.5t150 -336.5q0 -174 -88 -277t-274 -136l313 -502q47 -76 89 -134t102.5 -124t120.5 -109t138 -71.5t160 -28.5q53 0 104.5 9t76.5 17l26 9l27 -115q-11 -5 -30.5 -13t-85 -21t-134.5 -13 q-221 0 -393 132.5t-326 387.5l-340 557q-7 0 -39 -1t-39 -1q-124 0 -264 11v-621h-147v1327q-114 -15 -210.5 -48t-178 -87.5t-128.5 -139.5t-47 -192q0 -73 22 -138t53.5 -105.5t63.5 -71t54 -43.5l22 -13l-75 -94q-11 6 -29 17t-64.5 53t-82 91.5t-64.5 132.5t-29 175z M938 743q87 -6 254 -6q244 0 349.5 67t105.5 236q0 76 -20 130.5t-55.5 88.5t-93.5 54t-124 27.5t-156 7.5t-260 -11v-594z" />
<glyph horiz-adv-x="1380" d="M137 59q0 82 21 159t42 113l21 36l123 -45q-7 -12 -18 -35t-29 -91t-18 -135q0 -182 118 -281t303 -99q103 0 184.5 33.5t131 90.5t75 126t25.5 145q0 51 -12 96.5t-32.5 82t-52.5 71t-65 61t-77.5 55t-83.5 50.5t-90 49q-13 7 -19 10q-81 44 -130 73.5t-113 79 t-100 97.5t-61.5 116.5t-25.5 147.5q0 88 29.5 159t79 117.5t118.5 77.5t145 44.5t160 13.5q96 0 189.5 -18t138.5 -36l45 -18l-41 -115q-17 6 -46.5 16t-116.5 26t-169 16q-177 0 -284 -71t-107 -210q0 -42 11 -80t27.5 -67.5t47.5 -60.5t57 -52.5t71.5 -49t76.5 -44.5 t84 -45q180 -98 256 -154q190 -142 225 -333q9 -48 9 -101q0 -103 -34.5 -196t-101 -168.5t-177 -120t-251.5 -44.5q-139 0 -248 41.5t-175.5 113t-101 161.5t-34.5 192z" />
<glyph horiz-adv-x="1566" d="M98 889q0 258 178.5 411.5t495.5 153.5h729v-131h-487v-942q0 -590 -477 -590q-78 0 -147 16.5t-98 32.5l-30 17l35 112q9 -5 26.5 -13.5t75.5 -22t121 -13.5q187 0 265.5 113.5t78.5 347.5v942h-104q-77 0 -148.5 -12.5t-142.5 -43.5t-123 -78.5t-84.5 -124 t-32.5 -173.5q0 -56 11.5 -108t30.5 -91t42 -73.5t45.5 -58t41.5 -40.5t30 -25l12 -8l-75 -92q-11 7 -29 19.5t-64.5 58t-82 98t-64.5 138.5t-29 180z" />
<glyph horiz-adv-x="2056" d="M98 881q0 168 86.5 298t246 202.5t366.5 72.5h147v-903q0 -83 12.5 -150t32.5 -113t51.5 -79.5t64 -53t75.5 -31t80 -15t83 -3.5t83.5 3.5t80.5 15t75.5 31t64.5 53t52.5 79.5t33 113t12.5 150v672q0 85 -21.5 152.5t-51.5 102.5t-60.5 57.5t-51.5 28.5l-22 7l59 106 q6 -1 16.5 -4.5t41 -18.5t58 -35t61.5 -56.5t58.5 -81t41 -111.5t16.5 -145v-664q0 -161 -35.5 -274t-107 -181t-170.5 -98.5t-234 -30.5q-274 0 -410 134.5t-136 449.5v766q-76 0 -151.5 -13.5t-152.5 -46.5t-135 -82.5t-94.5 -128t-36.5 -175.5q0 -76 22 -144t53.5 -111.5 t63.5 -76t54 -46.5l22 -14l-75 -94q-11 6 -29 18.5t-64.5 56.5t-82 95.5t-64.5 136.5t-29 179z" />
<glyph horiz-adv-x="1853" d="M98 893q0 250 176 405.5t476 155.5h43l454 -1360l340 938q51 139 51 232q0 62 -22.5 111.5t-55 75t-64.5 42t-54 21.5l-23 4l45 118q152 -37 235 -129.5t83 -232.5q0 -122 -60 -285l-360 -989h-229l-455 1325q-84 -6 -160 -32.5t-143.5 -75.5t-107.5 -132t-40 -190 q0 -79 22.5 -150t54.5 -116t63.5 -78t54.5 -47l22 -15l-75 -94q-6 3 -15.5 9.5t-37.5 29t-54 49t-57 70t-53.5 91t-38 113.5t-15.5 136z" />
<glyph horiz-adv-x="2588" d="M98 893q0 250 176 405.5t476 155.5h57l323 -1202l31 -141l33 143l315 1135h152l313 -1137l33 -139l299 960q49 159 49 236q0 45 -12 83t-31 63t-41.5 45t-45.5 30.5t-42 17.5t-31 9l-12 2l43 118q157 -36 235.5 -128.5t78.5 -231.5q0 -102 -56 -287l-317 -1030h-215 l-299 1055l-27 119l-24 -119l-299 -1055h-213l-363 1325q-67 -4 -129.5 -20.5t-123 -50.5t-105 -81.5t-72 -119t-27.5 -158.5q0 -79 22.5 -150t54.5 -116t63.5 -78t54.5 -47l22 -15l-75 -94q-6 3 -15.5 9.5t-37.5 29t-54 49t-57 70t-53.5 91t-38 113.5t-15.5 136z" />
<glyph horiz-adv-x="1873" d="M98 893q0 250 176 405.5t476 155.5h41l426 -618l425 618h170l-499 -723l418 -602q42 -59 68.5 -95.5t71.5 -91.5t80.5 -89.5t85.5 -74.5t97.5 -62.5t106.5 -38t120 -15.5q49 0 97 9t71 17l23 9l26 -115q-11 -5 -31 -13t-82 -21t-126 -13q-89 0 -171.5 25t-153 68 t-142 111t-132 142.5t-130.5 173.5l-396 561l-426 -616h-172l506 731l-420 594q-68 -3 -132.5 -18t-127.5 -48t-110 -80.5t-76 -120.5t-29 -163q0 -79 22.5 -150t54.5 -116t63.5 -78t54.5 -47l22 -15l-75 -94q-6 3 -15.5 9.5t-37.5 29t-54 49t-57 70t-53.5 91t-38 113.5 t-15.5 136z" />
<glyph horiz-adv-x="1777" d="M98 893q0 250 171 405.5t462 155.5h39l436 -901l252 469q84 157 84 254q0 46 -17.5 82.5t-42.5 54.5t-50 29.5t-42 14.5l-18 3l43 119q27 -6 52 -13t68 -29t73.5 -51t54 -81t23.5 -117q0 -139 -95 -311l-313 -571v-136q0 -227 -114.5 -353t-336.5 -126q-79 0 -149 16.5 t-100 32.5l-31 17l35 112q9 -5 27 -13.5t77 -22t123 -13.5q321 0 321 348v135l-456 922q-66 -4 -128 -21.5t-121 -51.5t-102.5 -82t-69.5 -119t-26 -156q0 -58 12 -112t31 -93.5t42.5 -74t46.5 -57t42 -38.5t31 -24l12 -7l-75 -94q-6 3 -15.5 9.5t-37.5 29t-54 48.5 t-57 69.5t-53.5 91.5t-38 113.5t-15.5 136.5z" />
<glyph horiz-adv-x="1243" d="M98 1063q0 172 122.5 281.5t334.5 109.5h582l34 -127l-751 -1085l717 -443q117 -73 209.5 -105t181.5 -32q62 0 120.5 12t86.5 24l28 13l29 -114q-11 -7 -32.5 -17.5t-92.5 -27.5t-147 -17q-219 0 -463 150l-715 442l-102 -147l-109 90l875 1257h-449 q-155 0 -240.5 -72.5t-85.5 -197.5q0 -64 23.5 -125t46.5 -90l23 -29l-101 -70q-5 5 -13.5 14.5t-30 41.5t-38 67t-30 88.5t-13.5 108.5z" />
<glyph horiz-adv-x="1910" d="M86 -131l45 106q8 -6 22 -15t63 -24.5t103 -15.5q64 0 116.5 21t92 56.5t76.5 97.5t65.5 128t63.5 164l346 959q-47 2 -63 2q-195 0 -339 -51t-226 -155.5t-82 -252.5q0 -61 14 -117.5t33.5 -92.5t39.5 -63.5t34 -39.5l14 -13l-90 -84q-7 6 -19 17t-42 50.5t-52.5 83.5 t-41.5 115t-19 146q0 95 28.5 180t90 159.5t152 129t222 86t291.5 31.5q70 0 146 -5.5t116 -11.5l41 -6l518 -1454h-153l-160 455h-623l-30 -93q-27 -78 -48.5 -133t-51.5 -119t-59 -107.5t-69.5 -86.5t-85 -68.5t-101.5 -41t-124 -15.5q-47 0 -90.5 8t-72 19.5t-50 23 t-31.5 19.5zM924 1780l77 90l289 -250l-61 -78zM954 584h533l-264 762z" />
<glyph horiz-adv-x="1910" d="M86 -131l45 106q8 -6 22 -15t63 -24.5t103 -15.5q64 0 116.5 21t92 56.5t76.5 97.5t65.5 128t63.5 164l346 959q-47 2 -63 2q-195 0 -339 -51t-226 -155.5t-82 -252.5q0 -61 14 -117.5t33.5 -92.5t39.5 -63.5t34 -39.5l14 -13l-90 -84q-7 6 -19 17t-42 50.5t-52.5 83.5 t-41.5 115t-19 146q0 95 28.5 180t90 159.5t152 129t222 86t291.5 31.5q70 0 146 -5.5t116 -11.5l41 -6l518 -1454h-153l-160 455h-623l-30 -93q-27 -78 -48.5 -133t-51.5 -119t-59 -107.5t-69.5 -86.5t-85 -68.5t-101.5 -41t-124 -15.5q-47 0 -90.5 8t-72 19.5t-50 23 t-31.5 19.5zM954 584h533l-264 762zM1106 1636l287 250l80 -92l-306 -235z" />
<glyph horiz-adv-x="1929" d="M86 -131l45 106q8 -6 22 -15t63 -24.5t103 -15.5q64 0 116.5 21t92 56.5t76.5 97.5t65.5 128t63.5 164l346 959q-47 2 -63 2q-195 0 -339 -51t-226 -155.5t-82 -252.5q0 -61 14 -117.5t33.5 -92.5t39.5 -63.5t34 -39.5l14 -13l-90 -84q-7 6 -19 17t-42 50.5t-52.5 83.5 t-41.5 115t-19 146q0 95 28.5 180t90 159.5t152 129t222 86t291.5 31.5q70 0 146 -5.5t116 -11.5l41 -6l518 -1454h-153l-160 455h-623l-30 -93q-27 -78 -48.5 -133t-51.5 -119t-59 -107.5t-69.5 -86.5t-85 -68.5t-101.5 -41t-124 -15.5q-47 0 -90.5 8t-72 19.5t-50 23 t-31.5 19.5zM928 1614l280 250l279 -250l-62 -72l-217 176l-217 -176zM954 584h533l-264 762z" />
<glyph horiz-adv-x="1929" d="M86 -131l45 106q8 -6 22 -15t63 -24.5t103 -15.5q64 0 116.5 21t92 56.5t76.5 97.5t65.5 128t63.5 164l346 959q-47 2 -63 2q-195 0 -339 -51t-226 -155.5t-82 -252.5q0 -61 14 -117.5t33.5 -92.5t39.5 -63.5t34 -39.5l14 -13l-90 -84q-7 6 -19 17t-42 50.5t-52.5 83.5 t-41.5 115t-19 146q0 95 28.5 180t90 159.5t152 129t222 86t291.5 31.5q70 0 146 -5.5t116 -11.5l41 -6l518 -1454h-153l-160 455h-623l-30 -93q-27 -78 -48.5 -133t-51.5 -119t-59 -107.5t-69.5 -86.5t-85 -68.5t-101.5 -41t-124 -15.5q-47 0 -90.5 8t-72 19.5t-50 23 t-31.5 19.5zM909 1653q1 7 3.5 18t15.5 39.5t30 50.5t50.5 40t74.5 18q38 0 74 -16t59 -34.5t51.5 -34.5t53.5 -16q21 0 38.5 10.5t27.5 25t16.5 29.5t8.5 25l3 11l82 -43q-1 -7 -4 -18t-15.5 -40t-30 -51.5t-50.5 -40.5t-74 -18q-45 0 -87 25t-78.5 50t-67.5 25 q-35 0 -59 -25t-31 -50l-7 -25zM954 584h533l-264 762z" />
<glyph horiz-adv-x="1929" d="M86 -131l45 106q8 -6 22 -15t63 -24.5t103 -15.5q64 0 116.5 21t92 56.5t76.5 97.5t65.5 128t63.5 164l346 959q-47 2 -63 2q-195 0 -339 -51t-226 -155.5t-82 -252.5q0 -61 14 -117.5t33.5 -92.5t39.5 -63.5t34 -39.5l14 -13l-90 -84q-7 6 -19 17t-42 50.5t-52.5 83.5 t-41.5 115t-19 146q0 95 28.5 180t90 159.5t152 129t222 86t291.5 31.5q70 0 146 -5.5t116 -11.5l41 -6l518 -1454h-153l-160 455h-623l-30 -93q-27 -78 -48.5 -133t-51.5 -119t-59 -107.5t-69.5 -86.5t-85 -68.5t-101.5 -41t-124 -15.5q-47 0 -90.5 8t-72 19.5t-50 23 t-31.5 19.5zM918 1712q0 38 23 61t63 23t63 -23t23 -61q0 -40 -22.5 -64t-63.5 -24t-63.5 24t-22.5 64zM954 584h533l-264 762zM1317 1712q0 38 23 61t63 23q39 0 62.5 -23.5t23.5 -60.5q0 -40 -23 -64t-63 -24q-41 0 -63.5 24t-22.5 64z" />
<glyph horiz-adv-x="1929" d="M86 -131l45 106q8 -6 22 -15t63 -24.5t103 -15.5q64 0 116.5 21t92 56.5t76.5 97.5t65.5 128t63.5 164l346 959q-47 2 -63 2q-195 0 -339 -51t-226 -155.5t-82 -252.5q0 -61 14 -117.5t33.5 -92.5t39.5 -63.5t34 -39.5l14 -13l-90 -84q-7 6 -19 17t-42 50.5t-52.5 83.5 t-41.5 115t-19 146q0 95 28.5 180t90 159.5t152 129t222 86t291.5 31.5q70 0 146 -5.5t116 -11.5l41 -6l518 -1454h-153l-160 455h-623l-30 -93q-27 -78 -48.5 -133t-51.5 -119t-59 -107.5t-69.5 -86.5t-85 -68.5t-101.5 -41t-124 -15.5q-47 0 -90.5 8t-72 19.5t-50 23 t-31.5 19.5zM954 584h533l-264 762zM1012 1759q0 89 56 141t146 52q91 0 148 -52t57 -141t-56.5 -138.5t-148.5 -49.5q-90 0 -146 49.5t-56 138.5zM1108 1759q0 -50 29 -78t77 -28q50 0 78.5 27.5t28.5 78.5q0 52 -28.5 81.5t-78.5 29.5q-48 0 -77 -29.5t-29 -81.5z" />
<glyph horiz-adv-x="2195" d="M98 891q0 95 28.5 180t90.5 159.5t152 129t222 86t292 31.5q70 0 146 -5.5t117 -11.5l40 -6h880v-127h-770v-557h686v-127h-686v-274q0 -99 23.5 -173.5t61.5 -118.5t94.5 -70.5t114 -36t128.5 -9.5q68 0 135 9.5t114 22.5t84.5 26t56.5 23l18 9l47 -110 q-8 -4 -22.5 -11.5t-62 -26.5t-98 -33t-126.5 -26t-152 -12q-92 0 -169.5 14.5t-151.5 52t-125.5 96.5t-83 155t-31.5 221v86h-473l-240 -457h-157l718 1343q-72 5 -125 5q-195 0 -339 -51t-226 -155.5t-82 -252.5q0 -61 14 -117.5t33.5 -92.5t39.5 -63.5t34 -39.5l14 -13 l-90 -84q-7 6 -19 17t-42 50.5t-52.5 83.5t-41.5 115t-19 146zM743 584h408v772z" />
<glyph horiz-adv-x="1390" d="M117 631q0 134 22 254.5t72 230t124.5 188.5t187.5 126t253 47q115 0 206.5 -31.5t147 -85t84.5 -119.5t29 -139q0 -124 -76 -226.5t-204 -166.5l-70 98q99 51 153 125.5t54 161.5q0 49 -18 92.5t-55 81t-101.5 59t-149.5 21.5q-90 0 -164.5 -25t-126.5 -66.5t-92 -100.5 t-63.5 -122t-38 -137t-20 -138.5t-5.5 -133.5q0 -63 4.5 -121t19 -130.5t38 -133t65 -120.5t96 -101.5t135.5 -67t179 -25.5q71 0 140.5 13t117.5 31t85.5 36.5t55.5 31.5l19 13l51 -110q-7 -5 -20.5 -14t-57.5 -32t-92.5 -41.5t-122.5 -35t-150 -19.5l-26 -114q32 4 51 4 q82 0 139.5 -38.5t57.5 -119.5q0 -78 -57 -125t-173 -47q-54 0 -101.5 10.5t-67.5 20.5l-21 10l22 88q76 -37 152 -37q127 0 127 84q0 86 -129 86q-79 0 -127 -18l49 196q-114 9 -207 46t-158.5 97t-113.5 136t-75.5 168t-40.5 186.5t-13 198.5z" />
<glyph horiz-adv-x="1329" d="M117 709q0 126 22 237t71 209.5t122 169t181.5 111.5t242.5 41q112 0 199.5 -28.5t139 -76.5t77.5 -107t26 -126q0 -50 -14.5 -98.5t-37.5 -83.5t-36.5 -52t-24.5 -28l-100 63q6 6 20 26t33 68t19 94q0 93 -72.5 156.5t-228.5 63.5q-87 0 -159 -22t-122 -59t-88 -89.5 t-61 -108t-37.5 -121t-19.5 -122.5t-5 -117q0 -53 4 -102t16.5 -109t33 -110.5t56.5 -100t84 -84t118 -55.5t155 -21q150 0 283 55v432h143v-598q0 -213 -138 -347t-384 -134q-72 0 -140.5 12.5t-115 30t-82.5 34.5t-53 30l-17 12l56 108q5 -4 15.5 -11t44.5 -24t72 -30 t97.5 -24t120.5 -11q179 0 280 89.5t101 260.5v39q-132 -51 -295 -51q-134 0 -239.5 40t-172.5 106t-111 159t-61.5 192t-17.5 212zM449 1815l88 34q1 -6 3 -16.5t13.5 -37.5t28.5 -47t51.5 -37t79.5 -17t79.5 16t52 39t28.5 45.5t13 38.5l3 16l88 -34q-1 -9 -4 -24.5 t-20.5 -55.5t-43.5 -70t-77.5 -55t-118.5 -25q-49 0 -89.5 12.5t-67 33t-47 45t-31.5 49t-18 45t-9 32.5z" />
<glyph horiz-adv-x="1998" d="M98 864q0 102 32.5 190t108.5 167t192 135t293 88.5t400 32.5q97 0 176 -8t159.5 -30.5t141.5 -60t115.5 -98.5t89.5 -143.5t55.5 -198t20.5 -258.5q0 -140 -19 -252.5t-67.5 -216t-126 -173t-202.5 -110.5t-289 -41q-123 0 -241.5 17.5t-199.5 42.5t-144 50t-93 43 l-31 17l51 111q12 -8 34.5 -20t93.5 -41t143 -46v609h-134v121h134v534q-90 -12 -169.5 -34t-153 -60.5t-126 -89t-84 -123t-31.5 -158.5q0 -73 22 -138t53.5 -105.5t63.5 -71t54 -43.5l22 -13l-75 -94q-11 6 -29 17t-64.5 53t-82 91.5t-64.5 132.5t-29 175zM938 35 q122 -21 256 -21q64 0 117 6.5t110.5 25t102 49.5t85.5 83t67.5 122t42.5 170t16 224q0 129 -17 229.5t-52.5 172.5t-84.5 121t-118 77.5t-147.5 41t-178.5 12.5q-123 0 -199 -9v-548h369v-121h-369v-635z" />
<glyph horiz-adv-x="1841" d="M98 881q0 168 86.5 298t246 202.5t366.5 72.5h915v-127h-768v-557h684v-127h-684v-274q0 -101 23.5 -175t61.5 -117t96.5 -69t116 -34.5t132.5 -8.5q101 0 200.5 21.5t148.5 43.5l49 21l47 -110l-23 -11.5t-63 -26.5t-98.5 -33t-124.5 -26t-146 -12q-567 0 -567 539v956 q-76 0 -151.5 -13.5t-152.5 -46.5t-135 -82.5t-94.5 -128t-36.5 -175.5q0 -76 22 -144t53.5 -111.5t63.5 -76t54 -46.5l22 -14l-75 -94q-11 6 -29 18.5t-64.5 56.5t-82 95.5t-64.5 136.5t-29 179zM975 1780l80 90l288 -250l-63 -78z" />
<glyph horiz-adv-x="1841" d="M98 881q0 168 86.5 298t246 202.5t366.5 72.5h915v-127h-768v-557h684v-127h-684v-274q0 -101 23.5 -175t61.5 -117t96.5 -69t116 -34.5t132.5 -8.5q101 0 200.5 21.5t148.5 43.5l49 21l47 -110l-23 -11.5t-63 -26.5t-98.5 -33t-124.5 -26t-146 -12q-567 0 -567 539v956 q-76 0 -151.5 -13.5t-152.5 -46.5t-135 -82.5t-94.5 -128t-36.5 -175.5q0 -76 22 -144t53.5 -111.5t63.5 -76t54 -46.5l22 -14l-75 -94q-11 6 -29 18.5t-64.5 56.5t-82 95.5t-64.5 136.5t-29 179zM1165 1620l289 250l80 -90l-307 -238z" />
<glyph horiz-adv-x="1841" d="M98 881q0 168 86.5 298t246 202.5t366.5 72.5h915v-127h-768v-557h684v-127h-684v-274q0 -101 23.5 -175t61.5 -117t96.5 -69t116 -34.5t132.5 -8.5q101 0 200.5 21.5t148.5 43.5l49 21l47 -110l-23 -11.5t-63 -26.5t-98.5 -33t-124.5 -26t-146 -12q-567 0 -567 539v956 q-76 0 -151.5 -13.5t-152.5 -46.5t-135 -82.5t-94.5 -128t-36.5 -175.5q0 -76 22 -144t53.5 -111.5t63.5 -76t54 -46.5l22 -14l-75 -94q-11 6 -29 18.5t-64.5 56.5t-82 95.5t-64.5 136.5t-29 179zM979 1614l281 250l278 -250l-63 -72l-215 176l-218 -176z" />
<glyph horiz-adv-x="1841" d="M98 881q0 168 86.5 298t246 202.5t366.5 72.5h915v-127h-768v-557h684v-127h-684v-274q0 -101 23.5 -175t61.5 -117t96.5 -69t116 -34.5t132.5 -8.5q101 0 200.5 21.5t148.5 43.5l49 21l47 -110l-23 -11.5t-63 -26.5t-98.5 -33t-124.5 -26t-146 -12q-567 0 -567 539v956 q-76 0 -151.5 -13.5t-152.5 -46.5t-135 -82.5t-94.5 -128t-36.5 -175.5q0 -76 22 -144t53.5 -111.5t63.5 -76t54 -46.5l22 -14l-75 -94q-11 6 -29 18.5t-64.5 56.5t-82 95.5t-64.5 136.5t-29 179zM973 1712q0 38 23 61t63 23q41 0 64.5 -23.5t23.5 -60.5q0 -40 -23.5 -64 t-64.5 -24t-63.5 24t-22.5 64zM1372 1712q0 38 23 61t63 23t63 -23t23 -61q0 -40 -22.5 -64t-63.5 -24t-63.5 24t-22.5 64z" />
<glyph horiz-adv-x="1114" d="M98 930q0 247 183 385.5t505 138.5h148v-1061q0 -192 -104 -304t-287 -112q-59 0 -115.5 10.5t-83.5 21.5l-27 11l37 121q75 -35 181 -35q127 0 189 78.5t62 208.5v934q-80 0 -152.5 -9.5t-149 -36.5t-131.5 -69.5t-90.5 -115.5t-35.5 -168q0 -57 13.5 -110.5t32.5 -89 t37.5 -62.5t31.5 -40l14 -12l-86 -77q-7 5 -18.5 15.5t-41 47.5t-52.5 79t-41.5 110t-18.5 141zM528 1780l78 90l289 -250l-61 -78z" />
<glyph horiz-adv-x="1114" d="M98 930q0 247 183 385.5t505 138.5h148v-1061q0 -192 -104 -304t-287 -112q-59 0 -115.5 10.5t-83.5 21.5l-27 11l37 121q75 -35 181 -35q127 0 189 78.5t62 208.5v934q-80 0 -152.5 -9.5t-149 -36.5t-131.5 -69.5t-90.5 -115.5t-35.5 -168q0 -57 13.5 -110.5t32.5 -89 t37.5 -62.5t31.5 -40l14 -12l-86 -77q-7 5 -18.5 15.5t-41 47.5t-52.5 79t-41.5 110t-18.5 141zM721 1620l289 250l77 -90l-305 -238z" />
<glyph horiz-adv-x="1114" d="M98 930q0 247 183 385.5t505 138.5h148v-1061q0 -192 -104 -304t-287 -112q-59 0 -115.5 10.5t-83.5 21.5l-27 11l37 121q75 -35 181 -35q127 0 189 78.5t62 208.5v934q-80 0 -152.5 -9.5t-149 -36.5t-131.5 -69.5t-90.5 -115.5t-35.5 -168q0 -57 13.5 -110.5t32.5 -89 t37.5 -62.5t31.5 -40l14 -12l-86 -77q-7 5 -18.5 15.5t-41 47.5t-52.5 79t-41.5 110t-18.5 141zM475 1614l279 250l280 -250l-63 -72l-217 176l-215 -176z" />
<glyph horiz-adv-x="1114" d="M98 930q0 247 183 385.5t505 138.5h148v-1061q0 -192 -104 -304t-287 -112q-59 0 -115.5 10.5t-83.5 21.5l-27 11l37 121q75 -35 181 -35q127 0 189 78.5t62 208.5v934q-80 0 -152.5 -9.5t-149 -36.5t-131.5 -69.5t-90.5 -115.5t-35.5 -168q0 -57 13.5 -110.5t32.5 -89 t37.5 -62.5t31.5 -40l14 -12l-86 -77q-7 5 -18.5 15.5t-41 47.5t-52.5 79t-41.5 110t-18.5 141zM494 1712q0 38 23 61t63 23q39 0 62.5 -23.5t23.5 -60.5q0 -40 -23 -64t-63 -24q-41 0 -63.5 24t-22.5 64zM893 1712q0 38 23 61t63 23q39 0 62.5 -23.5t23.5 -60.5 q0 -40 -23 -64t-63 -24q-41 0 -63.5 24t-22.5 64z" />
<glyph horiz-adv-x="1114" d="M98 930q0 247 183 385.5t505 138.5h148v-1061q0 -192 -104 -304t-287 -112q-59 0 -115.5 10.5t-83.5 21.5l-27 11l37 121q75 -35 181 -35q127 0 189 78.5t62 208.5v934q-80 0 -152.5 -9.5t-149 -36.5t-131.5 -69.5t-90.5 -115.5t-35.5 -168q0 -57 13.5 -110.5t32.5 -89 t37.5 -62.5t31.5 -40l14 -12l-86 -77q-7 5 -18.5 15.5t-41 47.5t-52.5 79t-41.5 110t-18.5 141zM709 1755q0 42 25 68t69 26q45 0 70.5 -26t25.5 -68q0 -43 -25.5 -69.5t-70.5 -26.5q-44 0 -69 26.5t-25 69.5z" />
<glyph horiz-adv-x="2056" d="M98 881q0 168 86.5 298t246 202.5t366.5 72.5h192l752 -1253l-6 118v1135h145v-1454h-186l-760 1266l6 -117v-768q0 -590 -475 -590q-76 0 -145 16.5t-100 32.5l-30 17l37 112q9 -5 27 -13.5t76 -22t121 -13.5q186 0 266 113t80 344v950q-76 0 -151.5 -13.5t-152.5 -46.5 t-135 -82.5t-94.5 -128t-36.5 -175.5q0 -76 22 -144t53.5 -111.5t63.5 -76t54 -46.5l22 -14l-75 -94q-11 6 -29 18.5t-64.5 56.5t-82 95.5t-64.5 136.5t-29 179zM1061 1653q1 7 3.5 18t15.5 39.5t30 50.5t50.5 40t74.5 18q38 0 74 -16t59 -34.5t51.5 -34.5t53.5 -16 q21 0 38.5 10.5t27.5 25t16.5 29.5t8.5 25l3 11l82 -43q-1 -7 -4 -18t-15.5 -40t-30 -51.5t-50.5 -40.5t-74 -18q-45 0 -87.5 25t-79 50t-67.5 25q-22 0 -40 -10.5t-28.5 -25t-17.5 -29t-9 -25.5l-3 -10z" />
<glyph horiz-adv-x="1918" d="M98 989q0 71 14.5 136t37.5 112.5t50.5 88.5t55 68t50.5 46.5t38 27.5l14 9l76 -93q-8 -4 -22 -13.5t-50 -44t-63 -76t-49.5 -112.5t-22.5 -151q0 -98 33 -177t90 -131t130.5 -82.5t158.5 -37.5q-8 73 -8 168q0 750 586 750q585 0 585 -750t-585 -750q-462 0 -560 461 q-262 12 -410.5 168t-148.5 383zM780 727q0 -81 6 -166q180 20 311 111.5t196 230.5t65 311q0 59 -8 117q-66 17 -133 17q-82 0 -148.5 -21t-111 -54.5t-78 -85t-52 -103t-29.5 -117.5t-14.5 -120.5t-3.5 -119.5zM805 444q79 -338 412 -338q82 0 148.5 21t111.5 55t78 85 t52 102.5t30 117.5t14.5 120.5t3.5 119.5q0 84 -6.5 153t-24 147t-56 141.5t-95.5 105.5q8 -46 8 -72q0 -100 -23 -198t-75 -193.5t-128.5 -171t-192 -128.5t-257.5 -67zM928 1780l78 90l288 -250l-61 -78z" />
<glyph horiz-adv-x="1918" d="M98 989q0 71 14.5 136t37.5 112.5t50.5 88.5t55 68t50.5 46.5t38 27.5l14 9l76 -93q-8 -4 -22 -13.5t-50 -44t-63 -76t-49.5 -112.5t-22.5 -151q0 -98 33 -177t90 -131t130.5 -82.5t158.5 -37.5q-8 73 -8 168q0 750 586 750q585 0 585 -750t-585 -750q-462 0 -560 461 q-262 12 -410.5 168t-148.5 383zM780 727q0 -81 6 -166q180 20 311 111.5t196 230.5t65 311q0 59 -8 117q-66 17 -133 17q-82 0 -148.5 -21t-111 -54.5t-78 -85t-52 -103t-29.5 -117.5t-14.5 -120.5t-3.5 -119.5zM805 444q79 -338 412 -338q82 0 148.5 21t111.5 55t78 85 t52 102.5t30 117.5t14.5 120.5t3.5 119.5q0 84 -6.5 153t-24 147t-56 141.5t-95.5 105.5q8 -46 8 -72q0 -100 -23 -198t-75 -193.5t-128.5 -171t-192 -128.5t-257.5 -67zM1130 1638l287 250l78 -92l-305 -235z" />
<glyph horiz-adv-x="1918" d="M98 989q0 71 14.5 136t37.5 112.5t50.5 88.5t55 68t50.5 46.5t38 27.5l14 9l76 -93q-8 -4 -22 -13.5t-50 -44t-63 -76t-49.5 -112.5t-22.5 -151q0 -98 33 -177t90 -131t130.5 -82.5t158.5 -37.5q-8 73 -8 168q0 750 586 750q585 0 585 -750t-585 -750q-462 0 -560 461 q-262 12 -410.5 168t-148.5 383zM780 727q0 -81 6 -166q180 20 311 111.5t196 230.5t65 311q0 59 -8 117q-66 17 -133 17q-82 0 -148.5 -21t-111 -54.5t-78 -85t-52 -103t-29.5 -117.5t-14.5 -120.5t-3.5 -119.5zM805 444q79 -338 412 -338q82 0 148.5 21t111.5 55t78 85 t52 102.5t30 117.5t14.5 120.5t3.5 119.5q0 84 -6.5 153t-24 147t-56 141.5t-95.5 105.5q8 -46 8 -72q0 -100 -23 -198t-75 -193.5t-128.5 -171t-192 -128.5t-257.5 -67zM936 1614l278 250l281 -250l-63 -72l-218 176l-215 -176z" />
<glyph horiz-adv-x="1918" d="M98 989q0 71 14.5 136t37.5 112.5t50.5 88.5t55 68t50.5 46.5t38 27.5l14 9l76 -93q-8 -4 -22 -13.5t-50 -44t-63 -76t-49.5 -112.5t-22.5 -151q0 -98 33 -177t90 -131t130.5 -82.5t158.5 -37.5q-8 73 -8 168q0 750 586 750q585 0 585 -750t-585 -750q-462 0 -560 461 q-262 12 -410.5 168t-148.5 383zM780 727q0 -81 6 -166q180 20 311 111.5t196 230.5t65 311q0 59 -8 117q-66 17 -133 17q-82 0 -148.5 -21t-111 -54.5t-78 -85t-52 -103t-29.5 -117.5t-14.5 -120.5t-3.5 -119.5zM805 444q79 -338 412 -338q82 0 148.5 21t111.5 55t78 85 t52 102.5t30 117.5t14.5 120.5t3.5 119.5q0 84 -6.5 153t-24 147t-56 141.5t-95.5 105.5q8 -46 8 -72q0 -100 -23 -198t-75 -193.5t-128.5 -171t-192 -128.5t-257.5 -67zM911 1653q1 7 4 18t15.5 39.5t30 50.5t50.5 40t74 18q38 0 73.5 -16t58.5 -34.5t51 -34.5t53 -16 q21 0 39 10.5t28 25t17 29.5t9 25l3 11l84 -43q-1 -7 -4 -18t-16.5 -40t-31 -51.5t-50.5 -40.5t-74 -18q-45 0 -87.5 25t-79.5 50t-68 25q-34 0 -58 -25t-32 -50l-7 -25z" />
<glyph horiz-adv-x="1918" d="M98 989q0 71 14.5 136t37.5 112.5t50.5 88.5t55 68t50.5 46.5t38 27.5l14 9l76 -93q-8 -4 -22 -13.5t-50 -44t-63 -76t-49.5 -112.5t-22.5 -151q0 -98 33 -177t90 -131t130.5 -82.5t158.5 -37.5q-8 73 -8 168q0 750 586 750q585 0 585 -750t-585 -750q-462 0 -560 461 q-262 12 -410.5 168t-148.5 383zM780 727q0 -81 6 -166q180 20 311 111.5t196 230.5t65 311q0 59 -8 117q-66 17 -133 17q-82 0 -148.5 -21t-111 -54.5t-78 -85t-52 -103t-29.5 -117.5t-14.5 -120.5t-3.5 -119.5zM805 444q79 -338 412 -338q82 0 148.5 21t111.5 55t78 85 t52 102.5t30 117.5t14.5 120.5t3.5 119.5q0 84 -6.5 153t-24 147t-56 141.5t-95.5 105.5q8 -46 8 -72q0 -100 -23 -198t-75 -193.5t-128.5 -171t-192 -128.5t-257.5 -67zM924 1712q0 38 23 61t63 23t63 -23t23 -61q0 -40 -22.5 -64t-63.5 -24t-63.5 24t-22.5 64zM1323 1712 q0 38 23 61t63 23q39 0 62.5 -23.5t23.5 -60.5q0 -40 -23 -64t-63 -24q-41 0 -63.5 24t-22.5 64z" />
<glyph horiz-adv-x="1918" d="M98 989q0 71 14.5 136t37.5 112.5t50.5 88.5t55 68t50.5 46.5t38 27.5l14 9l76 -93q-8 -4 -22 -13.5t-50 -44t-63 -76t-49.5 -112.5t-22.5 -151q0 -98 33 -177t90 -131t130.5 -82.5t158.5 -37.5q-8 73 -8 168q0 750 586 750q107 0 202 -29l86 233l113 -47l-88 -233 q272 -163 272 -674q0 -750 -585 -750q-113 0 -211 29l-101 -266l-112 45l102 272q-183 113 -238 381q-262 12 -410.5 168t-148.5 383zM780 727q0 -81 6 -166q180 20 311 111.5t196 230.5t65 311q0 59 -8 117q-66 17 -133 17q-82 0 -148.5 -21t-111 -54.5t-78 -85t-52 -103 t-29.5 -117.5t-14.5 -120.5t-3.5 -119.5zM805 444q79 -338 412 -338q82 0 148.5 21t111.5 55t78 85t52 102.5t30 117.5t14.5 120.5t3.5 119.5q0 84 -6.5 153t-24 147t-56 141.5t-95.5 105.5q8 -46 8 -72q0 -100 -23 -198t-75 -193.5t-128.5 -171t-192 -128.5t-257.5 -67z " />
<glyph horiz-adv-x="1380" d="M137 59q0 82 21 159t42 113l21 36l123 -45q-7 -12 -18 -35t-29 -91t-18 -135q0 -182 118 -281t303 -99q103 0 184.5 33.5t131 90.5t75 126t25.5 145q0 51 -12 96.5t-32.5 82t-52.5 71t-65 61t-77.5 55t-83.5 50.5t-90 49q-13 7 -19 10q-81 44 -130 73.5t-113 79 t-100 97.5t-61.5 116.5t-25.5 147.5q0 88 29.5 159t79 117.5t118.5 77.5t145 44.5t160 13.5q96 0 189.5 -18t138.5 -36l45 -18l-41 -115q-17 6 -46.5 16t-116.5 26t-169 16q-177 0 -284 -71t-107 -210q0 -42 11 -80t27.5 -67.5t47.5 -60.5t57 -52.5t71.5 -49t76.5 -44.5 t84 -45q180 -98 256 -154q190 -142 225 -333q9 -48 9 -101q0 -98 -31 -187t-92 -162.5t-161 -121t-228 -55.5l-23 -97q30 6 59 6q81 0 135 -39t54 -120q0 -78 -57.5 -125t-174.5 -47q-53 0 -100 11t-67 21l-21 11l20 86q78 -37 154 -37q127 0 127 86t-129 86q-76 0 -127 -19 l45 177q-126 8 -224.5 52.5t-159 114t-91.5 155.5t-31 183z" />
<glyph horiz-adv-x="2056" d="M98 881q0 168 86.5 298t246 202.5t366.5 72.5h147v-903q0 -83 12.5 -150t32.5 -113t51.5 -79.5t64 -53t75.5 -31t80 -15t83 -3.5t83.5 3.5t80.5 15t75.5 31t64.5 53t52.5 79.5t33 113t12.5 150v672q0 85 -21.5 152.5t-51.5 102.5t-60.5 57.5t-51.5 28.5l-22 7l59 106 q6 -1 16.5 -4.5t41 -18.5t58 -35t61.5 -56.5t58.5 -81t41 -111.5t16.5 -145v-664q0 -161 -35.5 -274t-107 -181t-170.5 -98.5t-234 -30.5q-274 0 -410 134.5t-136 449.5v766q-76 0 -151.5 -13.5t-152.5 -46.5t-135 -82.5t-94.5 -128t-36.5 -175.5q0 -76 22 -144t53.5 -111.5 t63.5 -76t54 -46.5l22 -14l-75 -94q-11 6 -29 18.5t-64.5 56.5t-82 95.5t-64.5 136.5t-29 179zM971 1835l78 90l288 -250l-61 -78z" />
<glyph horiz-adv-x="2056" d="M98 881q0 168 86.5 298t246 202.5t366.5 72.5h147v-903q0 -83 12.5 -150t32.5 -113t51.5 -79.5t64 -53t75.5 -31t80 -15t83 -3.5t83.5 3.5t80.5 15t75.5 31t64.5 53t52.5 79.5t33 113t12.5 150v672q0 85 -21.5 152.5t-51.5 102.5t-60.5 57.5t-51.5 28.5l-22 7l59 106 q6 -1 16.5 -4.5t41 -18.5t58 -35t61.5 -56.5t58.5 -81t41 -111.5t16.5 -145v-664q0 -161 -35.5 -274t-107 -181t-170.5 -98.5t-234 -30.5q-274 0 -410 134.5t-136 449.5v766q-76 0 -151.5 -13.5t-152.5 -46.5t-135 -82.5t-94.5 -128t-36.5 -175.5q0 -76 22 -144t53.5 -111.5 t63.5 -76t54 -46.5l22 -14l-75 -94q-11 6 -29 18.5t-64.5 56.5t-82 95.5t-64.5 136.5t-29 179zM1137 1675l288 250l78 -90l-305 -238z" />
<glyph horiz-adv-x="2056" d="M98 881q0 168 86.5 298t246 202.5t366.5 72.5h147v-903q0 -83 12.5 -150t32.5 -113t51.5 -79.5t64 -53t75.5 -31t80 -15t83 -3.5t83.5 3.5t80.5 15t75.5 31t64.5 53t52.5 79.5t33 113t12.5 150v672q0 85 -21.5 152.5t-51.5 102.5t-60.5 57.5t-51.5 28.5l-22 7l59 106 q6 -1 16.5 -4.5t41 -18.5t58 -35t61.5 -56.5t58.5 -81t41 -111.5t16.5 -145v-664q0 -161 -35.5 -274t-107 -181t-170.5 -98.5t-234 -30.5q-274 0 -410 134.5t-136 449.5v766q-76 0 -151.5 -13.5t-152.5 -46.5t-135 -82.5t-94.5 -128t-36.5 -175.5q0 -76 22 -144t53.5 -111.5 t63.5 -76t54 -46.5l22 -14l-75 -94q-11 6 -29 18.5t-64.5 56.5t-82 95.5t-64.5 136.5t-29 179zM901 1704l279 250l278 -250l-61 -70l-217 174l-217 -174z" />
<glyph horiz-adv-x="2056" d="M98 881q0 168 86.5 298t246 202.5t366.5 72.5h147v-903q0 -83 12.5 -150t32.5 -113t51.5 -79.5t64 -53t75.5 -31t80 -15t83 -3.5t83.5 3.5t80.5 15t75.5 31t64.5 53t52.5 79.5t33 113t12.5 150v672q0 85 -21.5 152.5t-51.5 102.5t-60.5 57.5t-51.5 28.5l-22 7l59 106 q6 -1 16.5 -4.5t41 -18.5t58 -35t61.5 -56.5t58.5 -81t41 -111.5t16.5 -145v-664q0 -161 -35.5 -274t-107 -181t-170.5 -98.5t-234 -30.5q-274 0 -410 134.5t-136 449.5v766q-76 0 -151.5 -13.5t-152.5 -46.5t-135 -82.5t-94.5 -128t-36.5 -175.5q0 -76 22 -144t53.5 -111.5 t63.5 -76t54 -46.5l22 -14l-75 -94q-11 6 -29 18.5t-64.5 56.5t-82 95.5t-64.5 136.5t-29 179zM866 1767q0 38 23 61t63 23t63 -23t23 -61q0 -40 -22.5 -64t-63.5 -24t-63.5 24t-22.5 64zM1266 1767q0 38 23 61t63 23q39 0 62.5 -23.5t23.5 -60.5q0 -40 -23 -64t-63 -24 q-41 0 -63.5 24t-22.5 64z" />
<glyph horiz-adv-x="1777" d="M98 893q0 250 171 405.5t462 155.5h39l436 -901l252 469q84 157 84 254q0 46 -17.5 82.5t-42.5 54.5t-50 29.5t-42 14.5l-18 3l43 119q27 -6 52 -13t68 -29t73.5 -51t54 -81t23.5 -117q0 -139 -95 -311l-313 -571v-136q0 -227 -114.5 -353t-336.5 -126q-79 0 -149 16.5 t-100 32.5l-31 17l35 112q9 -5 27 -13.5t77 -22t123 -13.5q321 0 321 348v135l-456 922q-66 -4 -128 -21.5t-121 -51.5t-102.5 -82t-69.5 -119t-26 -156q0 -58 12 -112t31 -93.5t42.5 -74t46.5 -57t42 -38.5t31 -24l12 -7l-75 -94q-6 3 -15.5 9.5t-37.5 29t-54 48.5 t-57 69.5t-53.5 91.5t-38 113.5t-15.5 136.5zM1026 1681l289 250l78 -90l-306 -237z" />
<glyph horiz-adv-x="1206" d="M-885 1964q6 4 17 10t49.5 22t81.5 28t111 22t139 10q42 0 85 -4t77.5 -8.5t80 -17t72 -19t75 -25.5t68 -26t72.5 -32t66.5 -31t72 -34.5t68.5 -33.5q102 278 312 428.5t499 150.5q163 0 290 -49t204 -153t77 -252q0 -212 -165 -337.5t-472 -125.5q-315 0 -651 143 q-33 -168 -33 -354v-168q143 47 275 47q248 0 374.5 -140.5t126.5 -447.5q0 -308 -127 -449t-380 -141q-103 0 -206.5 21.5t-155.5 43.5l-52 21v1231q0 210 45 398q-19 9 -118 55.5t-127.5 59t-110.5 45t-128 43.5t-114 22.5t-131 11.5q-177 0 -320 -69zM311 145 q120 -41 262 -41q202 0 285.5 111.5t83.5 351.5q0 239 -84 350t-285 111q-145 0 -262 -45v-838zM381 1761q154 -70 300 -108.5t314 -38.5q121 0 213.5 23t145 58t85.5 81.5t43.5 87t10.5 82.5q0 64 -24 121.5t-73 105.5t-133 76t-194 28q-86 0 -165.5 -17t-159 -55.5 t-146 -97t-123.5 -147t-94 -199.5z" />
<glyph horiz-adv-x="1200" d="M-164 1964q6 4 17 10t49.5 22t81 28t110.5 22t139 10q42 0 85 -4t77 -8t80.5 -17t71.5 -19t76 -26t68.5 -26t73 -32t66 -31t72.5 -35t68 -33q102 278 312 428.5t501 150.5q121 0 223 -28.5t180 -83.5t122 -143t44 -199q0 -212 -165 -337.5t-472 -125.5q-315 0 -651 143 q-33 -168 -33 -354v-1213q-21 -10 -57.5 -24t-145 -38t-211.5 -24q-252 0 -378.5 141t-126.5 449q0 307 126 447.5t373 140.5q132 0 275 -47v186q0 222 45 398q-19 9 -118 55.5t-127.5 59t-110.5 45t-128 43.5t-114 22.5t-131 11.5q-177 0 -320 -69zM258 567 q0 -240 83.5 -351.5t283.5 -111.5q142 0 262 41v838q-113 45 -262 45q-201 0 -284 -110.5t-83 -350.5zM1102 1761q154 -70 300 -108.5t314 -38.5q121 0 213.5 23t145 58t85.5 81.5t43.5 87t10.5 82.5q0 64 -24 121.5t-73 105.5t-133 76t-194 28q-86 0 -165.5 -17t-159 -55.5 t-146 -97t-123.5 -147t-94 -199.5z" />
<glyph horiz-adv-x="821" d="M-1073 -829q0 212 165 337t472 125q313 0 649 -143q35 155 35 354v1168h-191v121h191v108q0 83 19 146t50 100.5t76 61t90 32t99 8.5q59 0 109 -8.5t63 -15.5l-25 -119q-55 16 -133 16q-105 0 -154 -49t-49 -168v-112h330v-121h-330v-1186q0 -209 -45 -397 q24 -11 118.5 -56t126.5 -59t111.5 -45.5t126.5 -43t115 -23t131 -11.5q175 0 320 70l49 -105q-6 -4 -17 -10t-50 -22t-82 -28t-111 -22t-139 -10q-77 0 -157.5 13.5t-135.5 28t-143 51.5t-123 53.5t-134 65.5q-10 5 -15.5 7.5t-14 7t-15.5 7.5q-102 -279 -312 -430.5 t-499 -151.5q-121 0 -224 28.5t-181 84t-122 143.5t-44 199zM-934 -825q0 -64 24 -121.5t73 -105.5t133 -76.5t194 -28.5q86 0 165.5 17t158.5 55.5t145.5 97t123.5 147t95 199.5q-154 70 -300 108.5t-314 38.5q-121 0 -213.5 -23t-145 -57.5t-85.5 -81.5t-43.5 -87 t-10.5 -82z" />
<glyph horiz-adv-x="1239" d="M-885 1964q6 4 17 10t49.5 22t81.5 28t111 22t139 10q42 0 85 -4t77.5 -8.5t80 -17t72 -19t75 -25.5t68 -26t72.5 -32t66.5 -31t72 -34.5t68.5 -33.5q102 278 312 428.5t499 150.5q163 0 290 -49t204 -153t77 -252q0 -212 -165 -337.5t-472 -125.5q-315 0 -651 143 q-33 -168 -33 -354v-166h2q158 45 295 45q243 0 359 -104.5t116 -350.5v-700h-145v707q0 85 -20 146t-49.5 94t-76.5 52t-88 24t-98 5q-81 0 -154.5 -11t-105.5 -20t-35 -12v-985h-145v1294q0 210 45 398q-19 9 -118 55.5t-127.5 59t-110.5 45t-128 43.5t-114 22.5 t-131 11.5q-177 0 -320 -69zM381 1761q154 -70 300 -108.5t314 -38.5q121 0 213.5 23t145 58t85.5 81.5t43.5 87t10.5 82.5q0 64 -24 121.5t-73 105.5t-133 76t-194 28q-86 0 -165.5 -17t-159 -55.5t-146 -97t-123.5 -147t-94 -199.5z" />
<glyph horiz-adv-x="1118" d="M-885 1964q6 4 17 10t49.5 22t81.5 28t111 22t139 10q42 0 85 -4t77.5 -8.5t80 -17t72 -19t75 -25.5t68 -26t72.5 -32t66.5 -31t72 -34.5t68.5 -33.5q102 278 312 428.5t499 150.5q163 0 290 -49t204 -153t77 -252q0 -212 -165 -337.5t-472 -125.5q-315 0 -651 143 q-33 -168 -33 -354v-672l529 529h182l-545 -547l314 -348q35 -39 58 -60t57.5 -39t70.5 -18q15 0 31.5 2.5t25.5 4.5l10 3v-119q-37 -16 -94 -16q-73 0 -140.5 39t-141.5 121l-357 401v-557h-145v1294q0 210 45 398q-19 9 -118 55.5t-127.5 59t-110.5 45t-128 43.5 t-114 22.5t-131 11.5q-177 0 -320 -69zM381 1761q154 -70 300 -108.5t314 -38.5q121 0 213.5 23t145 58t85.5 81.5t43.5 87t10.5 82.5q0 64 -24 121.5t-73 105.5t-133 76t-194 28q-86 0 -165.5 -17t-159 -55.5t-146 -97t-123.5 -147t-94 -199.5z" />
<glyph horiz-adv-x="477" d="M-885 1964q6 4 17 10t49.5 22t81.5 28t111 22t139 10q42 0 85 -4t77.5 -8.5t80 -17t72 -19t75 -25.5t68 -26t72.5 -32t66.5 -31t72 -34.5t68.5 -33.5q102 278 312 428.5t499 150.5q163 0 290 -49t204 -153t77 -252q0 -212 -165 -337.5t-472 -125.5q-315 0 -651 143 q-33 -168 -33 -354v-1276h-145v1294q0 210 45 398q-19 9 -118 55.5t-127.5 59t-110.5 45t-128 43.5t-114 22.5t-131 11.5q-177 0 -320 -69zM381 1761q154 -70 300 -108.5t314 -38.5q121 0 213.5 23t145 58t85.5 81.5t43.5 87t10.5 82.5q0 64 -24 121.5t-73 105.5t-133 76 t-194 28q-86 0 -165.5 -17t-159 -55.5t-146 -97t-123.5 -147t-94 -199.5z" />
<glyph horiz-adv-x="1208" d="M-1155 -829q0 212 165 337t472 125q317 0 649 -143q35 155 35 354v1225q21 10 57.5 24t145 38t211.5 24q253 0 380 -141t127 -449q0 -307 -126.5 -447.5t-374.5 -140.5q-124 0 -275 48v-199q0 -209 -45 -397q24 -11 118.5 -56t126.5 -59t111.5 -45.5t126.5 -43t115 -23 t131 -11.5q175 0 320 70l47 -105q-6 -4 -17 -10t-49.5 -22t-81 -28t-110.5 -22t-139 -10q-65 0 -127 7t-127.5 25t-110.5 32t-117 46t-104 47t-111 54q-27 13 -41 20q-102 -278 -312 -428.5t-499 -150.5q-121 0 -224 28.5t-181 84t-122 143.5t-44 199zM-1016 -825 q0 -64 24 -121.5t73 -105.5t133 -76.5t194 -28.5q86 0 165.5 17t159 55.5t146 97t123.5 147t94 199.5q-154 70 -300 108.5t-314 38.5q-121 0 -213.5 -23t-145 -57.5t-85.5 -81.5t-43.5 -87t-10.5 -82zM311 145q120 -41 262 -41q201 0 285 111t84 350q0 241 -83.5 353 t-285.5 112q-145 0 -262 -45v-840z" />
<glyph horiz-adv-x="1200" d="M-434 -829q0 212 165.5 337t473.5 125q311 0 647 -143q35 155 35 354v181q-146 -48 -275 -48q-247 0 -373 140.5t-126 447.5q0 308 126.5 449t378.5 141q103 0 206.5 -21.5t155.5 -43.5l52 -21v-1243q0 -209 -45 -397q19 -9 118 -55.5t128 -59t111 -45.5t128 -44 t114.5 -22.5t131.5 -11.5q173 0 318 70l49 -105q-6 -4 -17 -10t-49.5 -22t-81.5 -28t-111 -22t-140 -10q-77 0 -157.5 13.5t-135.5 28t-143 51.5t-123 53.5t-134 65.5q-10 5 -15.5 7.5t-14 7t-15.5 7.5q-102 -279 -312 -430.5t-499 -151.5q-162 0 -289 49t-204.5 153.5 t-77.5 252.5zM-293 -825q0 -64 24 -121.5t72 -105.5t132 -76.5t194 -28.5q107 0 206 28t191.5 86.5t168 161t122.5 240.5q-153 70 -300 108.5t-314 38.5q-120 0 -212 -23t-144.5 -57.5t-85.5 -81.5t-43.5 -87t-10.5 -82zM258 565q0 -240 83 -350.5t284 -110.5q150 0 262 43 v838q-108 43 -262 43q-200 0 -283.5 -111.5t-83.5 -351.5z" />
<glyph horiz-adv-x="1200" d="M-434 -829q0 212 165.5 337t473.5 125q311 0 647 -143q35 155 35 354v181q-146 -48 -275 -48q-247 0 -373 140.5t-126 447.5q0 308 126.5 449t378.5 141q103 0 206.5 -21.5t155.5 -43.5l52 -21v-1243q0 -209 -45 -397q19 -9 118 -55.5t128 -59t111 -45.5t128 -44 t114.5 -22.5t131.5 -11.5q173 0 318 70l49 -105q-6 -4 -17 -10t-49.5 -22t-81.5 -28t-111 -22t-140 -10q-77 0 -157.5 13.5t-135.5 28t-143 51.5t-123 53.5t-134 65.5q-10 5 -15.5 7.5t-14 7t-15.5 7.5q-102 -279 -312 -430.5t-499 -151.5q-162 0 -289 49t-204.5 153.5 t-77.5 252.5zM-293 -825q0 -64 24 -121.5t72 -105.5t132 -76.5t194 -28.5q107 0 206 28t191.5 86.5t168 161t122.5 240.5q-153 70 -300 108.5t-314 38.5q-120 0 -212 -23t-144.5 -57.5t-85.5 -81.5t-43.5 -87t-10.5 -82zM258 565q0 -240 83 -350.5t284 -110.5q150 0 262 43 v838q-108 43 -262 43q-200 0 -283.5 -111.5t-83.5 -351.5zM358 1530l88 35q1 -6 3 -17t13.5 -38t29 -48t52 -38t79.5 -17t79.5 16.5t52 39.5t28.5 46t13 39l3 17l88 -35q-1 -5 -2 -13.5t-8.5 -32.5t-18 -46t-31.5 -48.5t-47.5 -46t-67 -32.5t-89.5 -13q-67 0 -118.5 24 t-78 58t-43.5 68t-21 58z" />
<glyph horiz-adv-x="1208" d="M166 63v1139q0 126 32 232.5t87 181.5t131.5 131t161 88t180.5 47l22 -119q-469 -93 -469 -573v-82q139 47 277 47q246 0 372.5 -141t126.5 -447q0 -308 -127 -449t-380 -141q-103 0 -206.5 21.5t-155.5 43.5zM311 145q120 -41 262 -41q202 0 285.5 111.5t83.5 351.5 t-84 351.5t-285 111.5q-145 0 -262 -45v-840z" />
<glyph horiz-adv-x="1208" d="M121 567q0 306 127 447t373 141q137 0 276 -47v82q0 480 -469 573l23 119q96 -15 180.5 -47t161 -88t131 -131t86.5 -181.5t32 -232.5v-1139l-21 -9t-57.5 -21t-89.5 -26t-113 -20.5t-132 -9.5q-254 0 -381 141t-127 449zM266 567q0 -240 83.5 -351.5t285.5 -111.5 q142 0 262 41v840q-118 45 -262 45q-201 0 -285 -111.5t-84 -351.5z" />
<glyph horiz-adv-x="833" d="M-195 -600q81 17 145.5 42t123.5 69t97.5 103.5t61.5 147t23 197.5v1053h-190v121h190v108q0 348 332 348q60 0 110 -8.5t64 -15.5l-25 -119q-55 16 -133 16q-105 0 -154 -49t-49 -168v-112h330v-121h-330v-1053q0 -130 -30 -237t-81.5 -182.5t-124.5 -130.5t-155.5 -86 t-179.5 -46z" />
<glyph horiz-adv-x="1239" d="M166 0v1202q0 127 32 233t86.5 181t131 131t161.5 88t181 47l22 -119q-469 -93 -469 -573v-80q158 45 295 45q245 0 361 -104t116 -351v-700h-143v707q0 61 -10.5 110t-27 82t-43.5 57t-54 38t-64 21.5t-68 10t-71 2.5q-79 0 -152 -11t-106 -21l-33 -11v-985h-145z" />
<glyph horiz-adv-x="1120" d="M166 0v1202q0 127 32 233t86.5 181t131 131t161.5 88t181 47l22 -119q-469 -93 -469 -573v-586l529 529h182l-547 -547l316 -348q35 -39 58 -60t57.5 -39t70.5 -18q15 0 31.5 2.5t25.5 4.5l10 3v-119q-35 -16 -94 -16q-137 0 -282 160l-357 401v-557h-145z" />
<glyph horiz-adv-x="477" d="M166 0v1202q0 127 32 233t86.5 181t131 131t161.5 88t181 47l22 -119q-469 -93 -469 -573v-1190h-145z" />
<glyph horiz-adv-x="1208" d="M-303 -604q84 16 148 38t127 62.5t103.5 96t65.5 141.5t25 196v1139q21 10 57.5 24t145 38t211.5 24q253 0 380 -141t127 -449q0 -307 -126.5 -447.5t-374.5 -140.5q-114 0 -275 46v-93q0 -129 -32 -233.5t-86 -175.5t-131.5 -122.5t-161 -79.5t-181.5 -42zM311 145 q115 -41 262 -41q201 0 285 111t84 350q0 241 -83.5 353t-285.5 112q-149 0 -262 -45v-840z" />
<glyph horiz-adv-x="1200" d="M-244 -508l66 105q7 -8 21.5 -21t63.5 -45.5t104 -58t143 -46t182 -20.5q120 0 219.5 32.5t174.5 97.5t117 170t42 241v78q-146 -48 -268 -48q-254 0 -381 140.5t-127 447.5t126.5 448.5t374.5 141.5q107 0 212 -21.5t156 -43.5l52 -21v-1124q0 -311 -181 -488.5 t-509 -177.5q-81 0 -157 11.5t-133 30.5t-107 42t-84 45.5t-59 41.5t-36 30zM258 565q0 -239 83.5 -350t285.5 -111q136 0 262 41v840q-112 43 -262 43q-201 0 -285 -111.5t-84 -351.5z" />
<glyph horiz-adv-x="1228" d="M-203 -543l64 105l22 -16.5t63.5 -37.5t104 -47.5t141 -37.5t177.5 -17q258 0 408.5 135.5t150.5 405.5v73q-129 -38 -293 -38q-243 0 -362 103.5t-119 346.5v701h147v-707q0 -84 20.5 -144.5t50 -93t77 -51.5t88 -23.5t96.5 -4.5q84 0 158 10.5t105 20.5l32 10v983h145 v-1188q0 -311 -184.5 -488.5t-515.5 -177.5q-105 0 -203 18.5t-163 44.5t-114.5 52t-72.5 44z" />
<glyph horiz-adv-x="495" d="M-285 -604q469 90 469 573v1164h146v-1178q0 -126 -32 -232t-87 -181t-131.5 -131t-161 -87.5t-180.5 -46.5zM158 1425q0 43 26 69t72 26q44 0 72 -26t28 -69q0 -45 -27.5 -71.5t-72.5 -26.5q-47 0 -72.5 26t-25.5 72z" />
<glyph horiz-adv-x="1228" d="M-203 -543l64 105l22 -16.5t63.5 -37.5t104 -47.5t141 -37.5t177.5 -17q258 0 408.5 135.5t150.5 405.5v73q-129 -38 -293 -38q-243 0 -362 103.5t-119 346.5v701h147v-707q0 -84 20.5 -144.5t50 -93t77 -51.5t88 -23.5t96.5 -4.5q84 0 158 10.5t105 20.5l32 10v983h145 v-1188q0 -311 -184.5 -488.5t-515.5 -177.5q-105 0 -203 18.5t-163 44.5t-114.5 52t-72.5 44zM537 1356l286 250l80 -93l-305 -235z" />
<glyph horiz-adv-x="1228" d="M-203 -543l64 105l22 -16.5t63.5 -37.5t104 -47.5t141 -37.5t177.5 -17q258 0 408.5 135.5t150.5 405.5v73q-129 -38 -293 -38q-243 0 -362 103.5t-119 346.5v701h147v-707q0 -84 20.5 -144.5t50 -93t77 -51.5t88 -23.5t96.5 -4.5q84 0 158 10.5t105 20.5l32 10v983h145 v-1188q0 -311 -184.5 -488.5t-515.5 -177.5q-105 0 -203 18.5t-163 44.5t-114.5 52t-72.5 44zM334 1430q0 39 22.5 61t63.5 22q40 0 62 -22.5t22 -60.5q0 -40 -22.5 -64.5t-61.5 -24.5q-41 0 -63.5 24.5t-22.5 64.5zM731 1430q0 38 23 60.5t63 22.5q41 0 64.5 -22.5 t23.5 -60.5q0 -40 -23.5 -64.5t-64.5 -24.5q-39 0 -62.5 24.5t-23.5 64.5z" />
<glyph horiz-adv-x="1189" d="M-252 -508l66 105q7 -8 21.5 -21t63.5 -45.5t104 -58t143 -46t182 -20.5q120 0 219.5 32.5t174.5 97.5t117 170t42 241v78q-146 -48 -269 -48q-254 0 -381 140.5t-127 447.5t127 448.5t375 141.5q107 0 212 -21.5t156 -43.5l52 -21v-1124q0 -311 -181 -488.5t-509 -177.5 q-81 0 -157 11.5t-133 30.5t-107 42t-84 45.5t-59 41.5t-36 30zM250 565q0 -239 83.5 -350t284.5 -111q137 0 263 41v840q-112 43 -263 43q-200 0 -284 -111.5t-84 -351.5zM354 1530l88 35q1 -6 3 -17t13.5 -38t28.5 -48t51.5 -38t79.5 -17t79.5 16.5t52 39.5t29 46t13.5 39 l3 17l88 -35q-1 -5 -2.5 -13.5t-9 -32.5t-18 -46t-31.5 -48.5t-47.5 -46t-67 -32.5t-89.5 -13t-89.5 13t-67 33.5t-47 45t-31.5 49t-18 45t-9 33.5z" />
<glyph horiz-adv-x="1265" d="M117 565q0 128 29 232t89 186t161.5 127t238.5 45q135 0 236 -45t160.5 -127t88.5 -186t29 -232t-29 -232t-88.5 -185t-160.5 -126t-236 -45q-137 0 -238.5 45t-161.5 126t-89 185t-29 232zM262 565q0 -63 7.5 -120t32 -122t64 -111t109 -77t160.5 -31t159.5 31t107.5 77 t63 111t31.5 122t7.5 120t-7.5 120t-31.5 122.5t-63 112t-107.5 77.5t-159.5 31t-160.5 -31t-109 -77.5t-64 -111.5t-32 -122.5t-7.5 -120.5z" />
<glyph horiz-adv-x="966" d="M86 940l348 193h131v-1008h281v-125h-711v125h283v864l-277 -151z" />
<glyph horiz-adv-x="1179" d="M133 1024q6 5 18.5 14t53.5 31.5t86 40t115.5 31.5t142.5 14q206 0 318 -102t112 -258q0 -89 -40.5 -180t-99.5 -161.5t-138.5 -138.5t-145 -111.5t-131.5 -80.5h608v-123h-882v123q14 7 39 19t96 51.5t135.5 81t143.5 104.5t135.5 125t95.5 138.5t39 148.5 q0 105 -77 171t-225 66q-56 0 -111.5 -11t-94.5 -27t-70.5 -32t-47.5 -27l-15 -11z" />
</font>
</defs>
</svg>
