<?xml version="1.0" standalone="no"?>
<!DOCTYPE svg PUBLIC "-//W3C//DTD SVG 1.1//EN" "http://www.w3.org/Graphics/SVG/1.1/DTD/svg11.dtd" >
<svg xmlns="http://www.w3.org/2000/svg">
<metadata></metadata>
<defs>
<font id="roihuitalic" horiz-adv-x="1198" >
<font-face units-per-em="2048" ascent="1638" descent="-410" />
<missing-glyph horiz-adv-x="423" />
<glyph unicode="&#xfb00;" horiz-adv-x="1648" d="M209 983l20 150h183l16 112q50 352 387 352q52 0 99.5 -7.5t68.5 -15.5l21 -7l-48 -148q-51 23 -127 23q-98 0 -151 -50t-68 -153l-16 -106h604l16 112q50 352 388 352q52 0 99 -7.5t68 -15.5l21 -7l-47 -148q-51 23 -127 23q-98 0 -151 -50t-68 -153l-17 -106h320 l-21 -150h-319l-137 -983h-185l140 983h-605l-137 -983h-184l139 983h-182z" />
<glyph unicode="&#xfb01;" horiz-adv-x="1300" d="M209 983l20 150h183l16 112q50 352 387 352q52 0 99.5 -7.5t68.5 -15.5l21 -7l-48 -148q-51 23 -127 23q-98 0 -151 -50t-68 -153l-16 -106h704l-157 -1133h-183l138 983h-523l-137 -983h-184l139 983h-182zM1133 1407q0 58 35.5 92.5t95.5 34.5q47 0 74.5 -25t27.5 -69 q0 -59 -36.5 -92t-96.5 -33q-47 0 -73.5 24t-26.5 68z" />
<glyph unicode="&#xfb02;" horiz-adv-x="1343" d="M209 983l20 150h183l16 112q50 352 387 352q52 0 99.5 -7.5t68.5 -15.5l21 -7l-48 -148q-51 23 -127 23q-98 0 -151 -50t-68 -153l-16 -106h317l-20 -150h-318l-137 -983h-184l139 983h-182zM999 0l220 1556h182l-219 -1556h-183z" />
<glyph unicode="&#xfb03;" horiz-adv-x="2084" d="M209 983l20 150h183l16 112q50 352 387 352q52 0 99.5 -7.5t68.5 -15.5l21 -7l-48 -148q-51 23 -127 23q-98 0 -151 -50t-68 -153l-16 -106h604l16 112q50 352 388 352q52 0 99 -7.5t68 -15.5l21 -7l-47 -148q-51 23 -127 23q-98 0 -151 -50t-68 -153l-17 -106h703 l-158 -1133h-182l137 983h-520l-137 -983h-185l140 983h-605l-137 -983h-184l139 983h-182zM1917 1409q0 57 36.5 91t96.5 34q46 0 73 -24.5t27 -67.5q0 -59 -36 -93t-95 -34q-50 0 -76 24t-26 70z" />
<glyph unicode="&#xfb04;" horiz-adv-x="2129" d="M209 983l20 150h183l16 112q50 352 387 352q52 0 99.5 -7.5t68.5 -15.5l21 -7l-48 -148q-51 23 -127 23q-98 0 -151 -50t-68 -153l-16 -106h604l16 112q50 352 388 352q52 0 99 -7.5t68 -15.5l21 -7l-47 -148q-51 23 -127 23q-98 0 -151 -50t-68 -153l-17 -106h320 l-21 -150h-319l-137 -983h-185l140 983h-605l-137 -983h-184l139 983h-182zM1788 0l217 1556h182l-217 -1556h-182z" />
<glyph horiz-adv-x="0" />
<glyph horiz-adv-x="682" />
<glyph horiz-adv-x="0" />
<glyph horiz-adv-x="0" />
<glyph unicode="&#xd;" horiz-adv-x="0" />
<glyph unicode=" "  horiz-adv-x="423" />
<glyph unicode="&#x09;" horiz-adv-x="423" />
<glyph unicode="&#xa0;" horiz-adv-x="423" />
<glyph unicode="!" horiz-adv-x="534" d="M164 72q0 58 34.5 94.5t96.5 36.5q48 0 74 -26.5t26 -70.5q0 -58 -36 -93.5t-97 -35.5q-48 0 -73 25.5t-25 69.5zM246 381l125 1073h200l-174 -1073h-151z" />
<glyph unicode="&#x22;" horiz-adv-x="669" d="M276 985l50 510h159l-94 -510h-115zM557 985l49 510h160l-96 -510h-113z" />
<glyph unicode="#" horiz-adv-x="1495" d="M145 360l33 129h240l121 476h-240l33 129h239l93 360h153l-92 -360h416l90 360h153l-90 -360h238l-33 -129h-237l-121 -476h239l-32 -129h-240l-90 -360h-154l90 360h-415l-90 -360h-154l90 360h-240zM571 489h416l121 476h-416z" />
<glyph unicode="$" horiz-adv-x="1142" d="M166 86l49 135l33 -15q32 -14 108.5 -33t161.5 -23l76 532q-75 29 -126.5 58.5t-99 72.5t-71 103t-23.5 137q0 92 33.5 165.5t93 121t135 75t164.5 35.5l29 195h156l-29 -193q86 -6 162 -24.5t110 -33.5l33 -16l-53 -135q-12 6 -34.5 15t-93.5 25t-144 20l-70 -506 q59 -24 102.5 -47t85 -55.5t67 -70t41 -88.5t15.5 -112q0 -180 -107.5 -289.5t-316.5 -130.5l-28 -209h-156l29 205q-96 5 -179 26.5t-118 40.5zM438 1061q0 -77 43 -123t135 -86l64 444q-113 -20 -177.5 -77.5t-64.5 -157.5zM676 160q120 22 176.5 88.5t56.5 159.5 q0 79 -41 128.5t-127 88.5z" />
<glyph unicode="%" horiz-adv-x="1683" d="M262 1044q0 62 12 121.5t39 116.5t66.5 100t99 69t131.5 26q75 0 130 -23.5t86.5 -65.5t46 -92.5t14.5 -111.5q0 -62 -11 -120.5t-37 -115.5t-65 -99.5t-99.5 -68.5t-135.5 -26q-137 0 -207 76.5t-70 213.5zM393 1047q0 -182 148 -187q73 0 122.5 45.5t71 116.5t21.5 162 q0 186 -146 186q-108 0 -162.5 -90.5t-54.5 -232.5zM483 31l820 1446l102 -52l-823 -1448zM1001 268q0 62 12 121.5t39 116.5t66.5 99.5t99.5 68.5t132 26q75 0 130 -23.5t86 -65t45.5 -92t14.5 -111.5q0 -62 -11 -120.5t-37 -116t-65 -100t-99.5 -68.5t-135.5 -26 q-137 0 -207 77t-70 214zM1133 270q0 -181 147 -186q73 0 122.5 45.5t71 116.5t21.5 162q0 186 -145 186q-108 0 -162.5 -91t-54.5 -233z" />
<glyph unicode="&#x26;" horiz-adv-x="1460" d="M172 365q0 70 22.5 132.5t57.5 108.5t87 88.5t100 71t108 57.5q-40 57 -70.5 140.5t-30.5 154.5q0 66 23 127.5t68.5 114.5t125 85t181.5 32q84 0 148 -24.5t100.5 -67t54.5 -92.5t18 -107q0 -74 -29.5 -137t-85 -112.5t-114.5 -85.5t-139 -73l309 -395q41 61 76.5 150.5 t46.5 156.5h155q-26 -117 -73.5 -235t-108.5 -195l141 -176l-145 -107l-123 154q-192 -154 -440 -154q-226 0 -344.5 108.5t-118.5 279.5zM354 371q0 -116 79 -182t216 -66q105 0 193 36t143 89l-352 457q-60 -30 -103 -57.5t-86.5 -68t-66.5 -93t-23 -115.5zM621 1118 q0 -102 88 -223q40 15 66 26.5t63.5 30.5t62 39t48 46.5t35 59t11.5 70.5q0 71 -41 119.5t-125 48.5q-89 0 -148.5 -60.5t-59.5 -156.5z" />
<glyph unicode="'" horiz-adv-x="391" d="M276 985l50 510h159l-94 -510h-115z" />
<glyph unicode="(" horiz-adv-x="636" d="M182 365q0 156 27.5 307.5t72 268.5t98 222.5t107 179.5t98 128.5t71.5 80.5l28 27l109 -76q-9 -9 -25 -26t-61 -76t-86.5 -124t-92 -168t-86.5 -210t-61 -248t-25 -284q0 -129 17.5 -252.5t43 -207.5t51 -150.5t42.5 -98.5l18 -31l-129 -76q-9 12 -23.5 35.5t-52 103 t-66 167t-52 226t-23.5 282.5z" />
<glyph unicode=")" horiz-adv-x="636" d="M2 -373q9 9 24.5 26t61 76t86.5 124.5t91.5 168.5t86.5 210t61 248t25 284q0 129 -17.5 252t-43 207.5t-51 150.5t-42.5 98l-18 31l129 76q9 -12 23.5 -35.5t52.5 -103t67 -167.5t52.5 -226t23.5 -281q0 -156 -27.5 -307.5t-72 -269t-98.5 -223t-107.5 -179.5t-98 -128.5 t-72.5 -80.5l-27 -27z" />
<glyph unicode="*" horiz-adv-x="907" d="M268 1245l64 133l246 -100l26 278h139l-53 -276l273 98l24 -133l-276 -76l143 -213l-125 -82l-121 230l-180 -230l-104 82l202 213z" />
<glyph unicode="+" horiz-adv-x="1181" d="M238 543l20 139h356l52 369h143l-51 -369h358l-20 -139h-359l-51 -371h-143l51 371h-356z" />
<glyph unicode="," horiz-adv-x="528" d="M86 -256q33 80 76 235t47 214q45 28 98 28q39 0 63.5 -22t24.5 -62q0 -49 -48 -156t-96 -189l-48 -83z" />
<glyph unicode="-" horiz-adv-x="884" d="M213 524l20 146h607l-21 -146h-606z" />
<glyph unicode="." horiz-adv-x="536" d="M158 76q0 63 35 102t100 39q52 0 82.5 -25t30.5 -71q0 -64 -35.5 -104t-100.5 -40q-55 0 -83.5 26t-28.5 73z" />
<glyph unicode="/" horiz-adv-x="880" d="M12 -231l869 1810h166l-867 -1810h-168z" />
<glyph unicode="0" horiz-adv-x="1288" d="M207 496q0 86 7.5 172.5t27 185.5t49.5 186t79 168.5t111 140t150.5 93.5t193.5 35q128 0 220 -39.5t144 -112.5t75.5 -163t23.5 -204q0 -94 -5.5 -179t-23 -187.5t-45.5 -186.5t-77.5 -165.5t-114.5 -137.5t-160.5 -90.5t-212.5 -34.5q-93 0 -168 28.5t-125.5 77.5 t-84.5 116t-49 141t-15 156zM387 487q0 -358 279 -358q79 0 144.5 30t110.5 79t79.5 119t55 143.5t33 159t17 158.5t4.5 149q0 78 -13 138.5t-44.5 112t-91.5 79.5t-146 28q-77 0 -141 -31.5t-107.5 -83t-76.5 -124t-52 -146.5t-31 -159.5t-16 -154.5t-4 -139z" />
<glyph unicode="1" horiz-adv-x="800" d="M236 1262l385 192h157l-205 -1454h-182l180 1278l-290 -143z" />
<glyph unicode="2" horiz-adv-x="1142" d="M127 0l20 147l498 445q181 161 255.5 283.5t74.5 228.5q0 99 -64 160t-194 61q-57 0 -115 -12t-100 -28.5t-75.5 -33.5t-50.5 -29l-18 -12l-67 131q8 6 22.5 15t62.5 32.5t98.5 41.5t126.5 32.5t151 14.5q200 0 302.5 -94t102.5 -250q0 -157 -93 -312t-300 -342 l-363 -327h621l-21 -152h-874z" />
<glyph unicode="3" horiz-adv-x="1112" d="M104 53l48 142q13 -7 37.5 -18t109.5 -29.5t180 -18.5q184 0 291 86.5t107 233.5q0 133 -90.5 191t-264.5 58l-112 -2l22 156q56 -4 107 -4q200 0 301.5 75.5t101.5 202.5q0 98 -66 148.5t-210 50.5q-86 0 -170 -17t-125 -34l-41 -17l-41 136l18 9t52.5 20.5t84 25.5 t111 20t135.5 9q214 0 322 -83.5t108 -234.5q0 -56 -15 -110t-47 -105t-89 -92t-133 -64q221 -79 221 -331q0 -217 -147.5 -348.5t-424.5 -131.5q-105 0 -200 19t-138 38z" />
<glyph unicode="4" horiz-adv-x="1179" d="M125 365l16 151l764 938h182l-133 -938h215l-20 -151h-215l-51 -365h-183l52 365h-627zM319 516h453l94 670z" />
<glyph unicode="5" horiz-adv-x="1128" d="M135 51l51 142q13 -7 37.5 -17.5t100.5 -28.5t153 -18q191 0 307.5 95.5t116.5 269.5q0 149 -88 216.5t-238 67.5q-84 0 -171 -18.5t-148 -50.5l147 745h740l-21 -151h-573l-76 -392q85 19 162 19q95 0 175 -25t142.5 -74t97.5 -130.5t35 -186.5q0 -119 -37 -215.5 t-110.5 -169t-192.5 -112.5t-274 -40q-64 0 -122.5 7.5t-95.5 18.5t-65 22t-40 19z" />
<glyph unicode="6" horiz-adv-x="1183" d="M203 528q0 92 9.5 183t33 186t58.5 178.5t89 158t121.5 128t159.5 84.5t200 31q88 0 168 -21t116 -42l36 -21l-68 -133q-12 7 -33 18t-87.5 29t-133.5 18q-86 0 -157 -27.5t-120 -72.5t-86.5 -108.5t-60 -129.5t-36.5 -143q148 80 321 80q201 0 311.5 -110t110.5 -306 q0 -111 -35.5 -207.5t-100 -168.5t-163.5 -113.5t-219 -41.5q-434 0 -434 551zM383 520q0 -69 5.5 -121.5t22.5 -105.5t45.5 -87t77 -55.5t115.5 -21.5q74 0 133 26t94.5 66t58.5 92.5t31.5 99.5t8.5 93t-10.5 87.5t-37 85t-83 69.5t-137.5 26q-154 0 -318 -96 q-6 -57 -6 -158z" />
<glyph unicode="7" horiz-adv-x="1028" d="M236 0l686 1300h-654l23 154h852l-19 -129l-692 -1325h-196z" />
<glyph unicode="8" horiz-adv-x="1226" d="M162 352q0 70 18.5 132.5t48 107t70.5 82.5t80.5 62.5t83.5 43.5q-146 115 -146 297q0 193 131.5 296.5t344.5 103.5q206 0 313.5 -91.5t107.5 -244.5q0 -252 -264 -385q103 -53 162 -130t59 -196q0 -206 -144.5 -329.5t-385.5 -123.5q-238 0 -358.5 103.5t-120.5 271.5z M342 365q0 -114 78 -175t227 -61q147 0 243.5 76t96.5 215q0 44 -17 79t-41.5 57.5t-67.5 44.5t-79.5 35t-93.5 33t-94 36q-252 -109 -252 -340zM485 1083q0 -31 9 -58t22 -47.5t38.5 -40.5t45.5 -33t58 -29.5t61 -25.5t67 -26l29 -10q232 123 232 320q0 97 -74 145.5 t-199 48.5q-127 0 -208 -59.5t-81 -184.5z" />
<glyph unicode="9" horiz-adv-x="1181" d="M213 61l53 134q12 -7 33 -18t87.5 -29.5t133.5 -18.5q86 0 156.5 27.5t119.5 72t87 109t60.5 130t37.5 142.5q-144 -80 -322 -80q-194 0 -307.5 111t-113.5 305q0 111 35.5 207.5t100 168.5t163.5 113.5t219 41.5q114 0 198 -39t135.5 -113t76 -173.5t24.5 -225.5 q0 -93 -9.5 -183.5t-32.5 -185.5t-57.5 -178.5t-88.5 -158t-121 -128t-159 -84.5t-200 -31q-56 0 -108 8.5t-87 21t-62 25t-39 20.5zM416 948q0 -36 6 -69t23.5 -70.5t46 -65t78.5 -45.5t116 -18q162 0 318 96q6 85 6 158q0 69 -5.5 121.5t-22.5 105.5t-46 87t-77.5 55.5 t-115.5 21.5q-62 0 -114 -18t-86.5 -49t-60 -69t-39.5 -81.5t-20.5 -83t-6.5 -76.5z" />
<glyph unicode=":" horiz-adv-x="585" d="M184 76q0 63 35 102t100 39q52 0 82.5 -25t30.5 -71q0 -64 -35 -104t-100 -40q-55 0 -84 26.5t-29 72.5zM303 932q0 63 35 102t100 39q52 0 82.5 -25t30.5 -71q0 -64 -35 -103.5t-100 -39.5q-55 0 -84 26t-29 72z" />
<glyph unicode=";" horiz-adv-x="585" d="M100 -256q33 77 75.5 233t47.5 216q46 28 101 28q39 0 63.5 -22t24.5 -62q0 -49 -49 -156t-97 -189l-49 -83zM303 932q0 63 35 102t100 39q52 0 82.5 -25t30.5 -71q0 -64 -35 -103.5t-100 -39.5q-55 0 -84 26t-29 72z" />
<glyph unicode="&#x3c;" horiz-adv-x="1273" d="M221 518l21 144l956 489l53 -141l-833 -422l715 -418l-93 -141z" />
<glyph unicode="=" horiz-adv-x="1134" d="M193 317l18 129h840l-19 -129h-839zM254 762l18 129h840l-18 -129h-840z" />
<glyph unicode="&#x3e;" horiz-adv-x="1273" d="M190 170l832 418l-713 422l90 141l820 -489l-21 -144l-956 -489z" />
<glyph unicode="?" horiz-adv-x="1005" d="M252 1409q17 8 48.5 19t128 30t192.5 19q218 0 328 -85t110 -241q0 -79 -28.5 -140.5t-74.5 -101.5t-101 -74.5t-110 -68t-101 -72.5t-74.5 -99t-28.5 -136l2 -39h-172q-4 22 -4 59q0 68 17.5 125.5t47 99.5t67.5 78t80.5 64.5t85 55t80.5 53t67.5 55t47 65.5t17.5 80 q0 168 -277 168q-78 0 -157.5 -14.5t-119.5 -28.5l-40 -14zM303 74q0 54 35 92.5t96 38.5q47 0 76 -24.5t29 -71.5q0 -52 -33.5 -92t-97.5 -40q-50 0 -77.5 25.5t-27.5 71.5z" />
<glyph unicode="@" horiz-adv-x="2156" d="M207 389q0 168 42 326t130 296t213 241.5t301.5 163t384.5 59.5q176 0 317.5 -37t237 -100.5t160 -152.5t93 -189t28.5 -214q0 -159 -43.5 -295t-117 -228t-171.5 -144t-207 -52q-181 0 -270 125q-155 -104 -314 -104q-124 0 -201 80.5t-77 228.5q0 88 20.5 174.5 t64 166.5t105 141.5t150.5 98t194 36.5q157 0 344 -78l-178 -643q61 -84 166 -84q52 0 102.5 19t99.5 63.5t86 109t60 163.5t23 220q0 545 -678 545q-177 0 -325 -49.5t-253.5 -136t-179 -205t-108.5 -256t-35 -289.5q0 -155 45 -280.5t133 -217t226.5 -141t318.5 -49.5 q104 0 214 20.5t153 34.5t75 27l31 -139q-8 -4 -23 -10.5t-64.5 -22.5t-102 -28.5t-132.5 -23t-160 -10.5q-180 0 -327.5 44.5t-248.5 122.5t-170 185t-100.5 229t-31.5 259zM870 406q0 -82 37.5 -132.5t110.5 -50.5q69 0 134.5 24.5t107.5 55.5l155 543q-78 25 -149 28 q-95 0 -172 -38.5t-125 -104t-73.5 -149t-25.5 -176.5z" />
<glyph unicode="A" horiz-adv-x="1392" d="M63 0l715 1454h246l305 -1454h-192l-86 434h-582l-207 -434h-199zM543 590h477l-137 708z" />
<glyph unicode="B" horiz-adv-x="1316" d="M170 8l201 1430q225 39 440 39q258 0 384 -80.5t126 -261.5q0 -272 -268 -361q120 -37 173.5 -120t53.5 -214q0 -241 -167.5 -352t-496.5 -111q-90 0 -201.5 7.5t-178.5 15.5zM373 145q108 -12 250 -12q87 0 154.5 8t129 29t102 55.5t64 89.5t23.5 129q0 133 -83.5 188.5 t-279.5 55.5h-284zM469 831h264q205 0 301 68.5t96 206.5q0 67 -20.5 110t-66 66t-102 31t-142.5 8q-130 0 -262 -16z" />
<glyph unicode="C" horiz-adv-x="1210" d="M201 600q0 126 23.5 246t80 236t139.5 202.5t212 139.5t288 53q98 0 184.5 -19t123.5 -38l38 -19l-61 -146q-12 7 -34 18t-96 29.5t-153 18.5q-105 0 -191 -30.5t-143 -78.5t-100 -116t-66 -133t-37 -139.5t-18 -126t-4 -101.5q0 -77 10 -140t39 -125t76.5 -104t127 -68 t185.5 -26q72 0 138.5 11t97.5 22l31 12l24 -151q-12 -6 -35.5 -14t-104.5 -22t-171 -14q-134 0 -237.5 30.5t-172 84t-112.5 133t-63 171.5t-19 204z" />
<glyph unicode="D" horiz-adv-x="1392" d="M170 16l201 1422q231 39 430 39q159 0 277 -45t186 -126.5t100.5 -184.5t32.5 -230q0 -95 -10.5 -183.5t-36.5 -181t-66 -171.5t-104 -150t-145.5 -120.5t-194.5 -78.5t-248 -29q-93 0 -198.5 9.5t-164.5 19.5zM373 145q114 -12 223 -12q93 0 175 19t164.5 70.5 t141.5 131.5t96 212.5t37 303.5q0 126 -29 215t-85 140t-129.5 73.5t-171.5 22.5q-120 0 -260 -16z" />
<glyph unicode="E" horiz-adv-x="1210" d="M211 348q0 40 6 84l143 1022h930l-20 -156h-746l-65 -467h663l-22 -153h-664l-35 -250q-4 -37 -4 -66q0 -123 85.5 -176t271.5 -53q87 0 174 8t126.5 14.5t55.5 10.5l-23 -154q-139 -35 -356 -35q-520 0 -520 371z" />
<glyph unicode="F" horiz-adv-x="1173" d="M168 0l205 1454h921l-22 -156h-735l-72 -507h649l-20 -154h-650l-90 -637h-186z" />
<glyph unicode="G" horiz-adv-x="1316" d="M201 567q0 143 26 273t84 247t143 203t210.5 136.5t279.5 50.5q68 0 135 -8.5t114 -20.5t84.5 -24t56.5 -20l18 -7l-62 -144q-14 7 -41.5 18t-115 29.5t-179.5 18.5q-104 0 -189.5 -29.5t-143 -76.5t-101.5 -113t-68.5 -132.5t-39.5 -142.5t-20 -134t-5 -116 q0 -442 442 -442q84 0 177 14l90 615h182l-109 -739q-16 -5 -54.5 -14.5t-126 -21.5t-169.5 -12q-136 0 -242.5 30t-176.5 83t-115 128.5t-64.5 161.5t-19.5 189z" />
<glyph unicode="H" horiz-adv-x="1435" d="M168 0l205 1454h186l-88 -627h727l88 627h184l-204 -1454h-185l95 668h-727l-95 -668h-186z" />
<glyph unicode="I" horiz-adv-x="540" d="M178 0l205 1454h184l-205 -1454h-184z" />
<glyph unicode="J" horiz-adv-x="868" d="M113 33l49 143q8 -5 22.5 -12t58 -19t87.5 -12q108 0 169.5 61t75.5 162l154 1098h186l-153 -1089q-25 -185 -126.5 -286.5t-275.5 -101.5q-68 0 -129.5 14t-89.5 28z" />
<glyph unicode="K" horiz-adv-x="1284" d="M168 0l205 1454h186l-100 -715l702 715h236l-735 -747l319 -424q50 -67 98 -101.5t107 -34.5q32 0 65 11l-20 -146q-45 -20 -115 -20q-84 0 -151 46t-140 144l-374 496l-97 -678h-186z" />
<glyph unicode="L" horiz-adv-x="1095" d="M209 332q0 36 6 80l147 1042h185l-148 -1042q-4 -40 -4 -58q0 -120 86.5 -169.5t259.5 -49.5q80 0 153.5 9.5t107.5 18.5l34 9l-22 -160q-100 -35 -301 -35q-504 0 -504 355z" />
<glyph unicode="M" horiz-adv-x="1744" d="M123 0l326 1454h213l270 -1020l557 1020h215l-82 -1454h-186l55 981l27 199l-97 -199l-411 -750h-209l-203 750l-43 190l-27 -190l-219 -981h-186z" />
<glyph unicode="N" horiz-adv-x="1443" d="M168 0l205 1454h217l551 -1182l10 127l149 1055h181l-205 -1454h-209l-559 1194l-6 -123l-152 -1071h-182z" />
<glyph unicode="O" horiz-adv-x="1415" d="M199 535q0 141 19.5 269.5t69 254t124.5 216t195 146.5t272 56q266 0 401 -147.5t135 -414.5q0 -99 -9.5 -192.5t-33 -188.5t-58.5 -176t-89 -152t-122.5 -121t-161.5 -79t-202 -29q-540 0 -540 558zM385 537q0 -92 15.5 -160.5t54 -126t111.5 -87.5t179 -30q88 0 161 32 t122 83t87 122t59 142t34.5 149.5t18 137.5t4.5 114q0 71 -10 129t-35 111.5t-65 89.5t-104.5 57t-148.5 21q-92 0 -166.5 -32.5t-123.5 -83.5t-86 -123.5t-57 -142t-32 -150.5t-15 -137.5t-3 -114.5z" />
<glyph unicode="P" horiz-adv-x="1286" d="M168 0l203 1438q10 3 68.5 12t168 18t209.5 9q250 0 387 -109.5t137 -306.5q0 -91 -24 -172t-74 -151t-122.5 -120.5t-176 -79t-227.5 -28.5q-189 0 -291 10l-74 -520h-184zM446 672q81 -6 279 -6q200 0 315 104t115 270q0 281 -334 281q-140 0 -284 -16z" />
<glyph unicode="Q" horiz-adv-x="1415" d="M199 535q0 141 19.5 269.5t69 254t124.5 216t195 146.5t272 56q266 0 401 -147.5t135 -414.5q0 -99 -9.5 -192.5t-33 -188.5t-58.5 -176t-89 -152t-122.5 -121t-161.5 -79t-202 -29q-540 0 -540 558zM385 537q0 -92 15.5 -160.5t54 -126t111.5 -87.5t179 -30q88 0 161 32 t122 83t87 122t59 142t34.5 149.5t18 137.5t4.5 114q0 71 -10 129t-35 111.5t-65 89.5t-104.5 57t-148.5 21q-92 0 -166.5 -32.5t-123.5 -83.5t-86 -123.5t-57 -142t-32 -150.5t-15 -137.5t-3 -114.5zM600 -305l18 131l617 -51l-21 -146z" />
<glyph unicode="R" horiz-adv-x="1345" d="M168 0l203 1438q275 39 422 39q264 0 409.5 -89.5t145.5 -279.5q0 -197 -99 -318.5t-309 -166.5l141 -340q31 -73 62 -104.5t88 -31.5q13 0 27 1.5t22 3.5l8 2l-20 -144q-29 -18 -97 -18q-99 0 -156.5 55t-103.5 166l-161 387q-29 -2 -91 -2q-107 0 -221 8l-86 -606h-184 zM459 760q93 -6 213 -6q261 0 375 73.5t114 257.5q0 57 -18.5 99t-49.5 68t-79 41.5t-100.5 21.5t-120.5 6q-120 0 -256 -16z" />
<glyph unicode="S" horiz-adv-x="1202" d="M170 53l51 150q18 -8 51 -19t129.5 -30t186.5 -19q179 0 280 67.5t101 190.5q0 48 -19 87t-40 63t-74.5 51t-82 38.5t-103.5 37.5q-3 1 -5 2q-68 24 -114 44t-101 55t-88 73.5t-55.5 97.5t-22.5 131q0 88 31.5 158.5t83 115.5t123 75t146.5 42.5t157 12.5q113 0 215 -21 t148 -42l46 -21l-53 -144l-40 17q-40 16 -128.5 35.5t-183.5 19.5q-51 0 -98.5 -6t-97 -22.5t-85.5 -42t-59 -67.5t-23 -96q0 -41 14 -74.5t35 -56.5t57.5 -44.5t67.5 -35t80 -30.5q81 -29 134 -50.5t109.5 -51t90.5 -59.5t63 -70t41.5 -89.5t12.5 -111.5 q0 -211 -149.5 -324t-409.5 -113q-108 0 -213.5 19t-156.5 38z" />
<glyph unicode="T" horiz-adv-x="1261" d="M246 1294l22 160h1133l-23 -160h-473l-182 -1294h-184l182 1294h-475z" />
<glyph unicode="U" horiz-adv-x="1429" d="M227 430q0 71 11 141l124 883h185l-127 -903q-8 -57 -8 -117q0 -76 18.5 -132t47.5 -88t73.5 -51t86 -24.5t95.5 -5.5q373 0 432 418l127 903h185l-125 -883q-23 -165 -73.5 -279.5t-131.5 -184t-186 -100t-248 -30.5q-238 0 -362 113t-124 340z" />
<glyph unicode="V" horiz-adv-x="1366" d="M268 1454h187l235 -1304l619 1304h198l-712 -1454h-244z" />
<glyph unicode="W" horiz-adv-x="2004" d="M268 1454h193l137 -1147l8 -155l51 157l441 1077h194l138 -1079l8 -153l55 157l457 1143h196l-587 -1454h-254l-138 999l-8 121l-39 -121l-420 -999h-254z" />
<glyph unicode="X" horiz-adv-x="1331" d="M51 0l598 743l-383 711h205l309 -594l482 594h213l-590 -721l391 -733h-205l-317 598l-488 -598h-215z" />
<glyph unicode="Y" horiz-adv-x="1300" d="M256 1454h197l292 -709l504 709h205l-631 -866l-82 -588h-184l82 592z" />
<glyph unicode="Z" horiz-adv-x="1212" d="M98 0l23 158l946 1138h-780l22 158h1006l-23 -160l-946 -1136h791l-23 -158h-1016z" />
<glyph unicode="[" horiz-adv-x="655" d="M113 -426l278 1982h451l-21 -143h-280l-238 -1696h281l-21 -143h-450z" />
<glyph unicode="\" horiz-adv-x="880" d="M276 1579h168l359 -1810h-166z" />
<glyph unicode="]" horiz-adv-x="655" d="M-27 -426l21 143h280l238 1696h-281l21 143h450l-278 -1982h-451z" />
<glyph unicode="^" horiz-adv-x="1095" d="M217 895l471 661h154l286 -661l-141 -80l-246 578l-403 -578z" />
<glyph unicode="_" horiz-adv-x="987" d="M-20 -150l18 127h987l-18 -127h-987z" />
<glyph unicode="`" horiz-adv-x="665" d="M348 1513l105 111l262 -258l-84 -92z" />
<glyph unicode="a" horiz-adv-x="1212" d="M180 442q0 160 35.5 289t106 224.5t182 147.5t256.5 52q113 0 224.5 -21t166.5 -42l55 -21l-143 -1012q-9 -3 -25 -8.5t-65.5 -20t-99 -25t-119 -19.5t-131.5 -9q-222 0 -332.5 115t-110.5 350zM362 449q0 -162 63 -240t216 -78q63 0 127 7.5t96 15.5l33 8l111 805 q-129 34 -254 34q-76 0 -138 -22.5t-104 -63.5t-72 -92.5t-46.5 -116t-24 -127t-7.5 -130.5z" />
<glyph unicode="b" horiz-adv-x="1222" d="M168 66l211 1490h182l-63 -442q112 41 235 41q461 0 461 -459q0 -117 -19.5 -220t-64.5 -196t-113 -159t-172 -105t-235 -39q-107 0 -212.5 22.5t-157.5 44.5zM365 168q103 -37 235 -37q89 0 160.5 30t117.5 81.5t77 123t44 150.5t13 168q0 159 -71 238t-226 79 q-53 0 -112.5 -10t-92.5 -20l-33 -10z" />
<glyph unicode="c" horiz-adv-x="1036" d="M180 430q0 155 34.5 284t104.5 229t185 156t266 56q90 0 163 -16.5t101 -32.5l27 -16l-57 -136q-11 5 -31.5 13t-82 21t-120.5 13q-77 0 -140.5 -23.5t-105 -60t-72.5 -88.5t-47.5 -101.5t-27 -107.5t-13 -98.5t-2.5 -81.5q0 -67 14 -118.5t48 -96.5t99 -69.5t159 -24.5 q69 0 129 11.5t82 21.5l18 -146q-10 -5 -29 -11.5t-84 -18t-136 -11.5q-130 0 -224.5 33t-150 94.5t-81.5 142t-26 183.5z" />
<glyph unicode="d" horiz-adv-x="1216" d="M180 436q0 336 154.5 527.5t445.5 191.5q127 0 248 -41l64 442h182l-211 -1490q-7 -4 -21 -10t-58.5 -21t-91 -27t-115.5 -21.5t-136 -9.5q-461 0 -461 459zM362 449q0 -159 71 -238.5t226 -79.5q124 0 238 37l111 793q-98 40 -234 40q-95 0 -168.5 -33t-118.5 -86.5 t-74 -127.5t-40 -148t-11 -157z" />
<glyph unicode="e" horiz-adv-x="1144" d="M180 467q0 138 36.5 260t106 218.5t182 153t253.5 56.5q195 0 288 -98.5t93 -255.5q0 -58 -12.5 -121.5t-24.5 -97.5l-12 -35h-719q-9 -55 -9 -105q0 -311 347 -311q69 0 135.5 11.5t98.5 23.5l32 12l8 -147q-12 -6 -36 -15t-103 -24t-166 -15q-260 0 -379 124.5 t-119 365.5zM393 690h559q17 70 17 125q0 90 -57 140.5t-171 50.5q-274 0 -348 -316z" />
<glyph unicode="f" horiz-adv-x="862" d="M209 983l20 150h183l16 112q50 352 387 352q52 0 99.5 -7.5t68.5 -15.5l21 -7l-48 -148q-51 23 -127 23q-98 0 -151 -50t-68 -153l-16 -106h317l-20 -150h-318l-137 -983h-184l139 983h-182z" />
<glyph unicode="g" horiz-adv-x="1216" d="M180 438q0 220 65.5 378.5t204.5 248.5t343 90q107 0 209.5 -22t151.5 -44l50 -22l-139 -987q-14 -98 -38 -175t-68.5 -145t-106.5 -113t-154 -70.5t-209 -25.5q-84 0 -158 14.5t-106 28.5l-32 15l43 147q11 -6 31.5 -14.5t87.5 -22.5t139 -14q92 0 163.5 25.5t116.5 71 t72 100t39 121.5q-123 -39 -269 -39q-217 0 -326.5 110.5t-109.5 343.5zM362 449q0 -158 68 -235t221 -77q127 0 246 37l111 787q-95 40 -232 40q-192 0 -303 -138.5t-111 -413.5z" />
<glyph unicode="h" horiz-adv-x="1247" d="M160 0l219 1556h182l-61 -440q137 39 280 39q215 0 319.5 -78.5t104.5 -261.5q0 -62 -8 -119l-98 -696h-183l101 709q6 43 6 75q0 57 -16 98t-40 63.5t-62.5 35.5t-73 16.5t-82.5 3.5q-71 0 -139 -9.5t-100 -19.5l-32 -9l-135 -963h-182z" />
<glyph unicode="i" horiz-adv-x="501" d="M160 0l159 1133h183l-160 -1133h-182zM334 1409q0 57 36.5 91t96.5 34q47 0 74.5 -24.5t27.5 -67.5q0 -59 -36.5 -93t-96.5 -34q-48 0 -75 24.5t-27 69.5z" />
<glyph unicode="j" horiz-adv-x="520" d="M-182 -408l43 140q46 -27 112 -27q93 0 137.5 56t59.5 165l170 1207h182l-168 -1194q-9 -67 -24 -121t-42 -105.5t-64.5 -85.5t-93 -55t-126.5 -21q-52 0 -98.5 10.5t-67.5 20.5zM352 1409q0 57 36.5 91t96.5 34q47 0 74 -24.5t27 -67.5q0 -59 -36 -93t-95 -34 q-48 0 -75.5 24.5t-27.5 69.5z" />
<glyph unicode="k" horiz-adv-x="1140" d="M160 0l219 1556h182l-135 -954l555 531h231l-594 -568l228 -309q41 -55 79 -83t97 -28q14 0 31.5 2.5t28.5 4.5l10 2l-21 -142q-34 -20 -106 -20q-146 0 -269 168l-278 381l-76 -541h-182z" />
<glyph unicode="l" horiz-adv-x="501" d="M160 0l219 1556h182l-219 -1556h-182z" />
<glyph unicode="m" horiz-adv-x="1972" d="M160 0l149 1067q8 4 23 9.5t64 21t101 27t129.5 21t153.5 9.5q234 0 328 -94q210 94 420 94q201 0 302 -82.5t101 -263.5q0 -60 -8 -115l-98 -694h-183l99 707q6 40 6 73q0 57 -15.5 98.5t-39 64.5t-58.5 36.5t-66 17.5t-71 4q-151 0 -317 -73q10 -41 10 -109 q0 -63 -8 -123l-99 -696h-182l100 709q7 51 7 79q0 55 -14.5 95t-36.5 62.5t-57 35.5t-67.5 16.5t-76.5 3.5q-76 0 -146 -9.5t-102 -19.5l-31 -9l-135 -963h-182z" />
<glyph unicode="n" horiz-adv-x="1247" d="M160 0l149 1067q8 4 23.5 9.5t64.5 21t100.5 27t127.5 21t149 9.5q218 0 324 -78.5t106 -261.5q0 -62 -8 -119l-98 -696h-183l101 709q6 43 6 75q0 57 -16 98t-40 63.5t-62.5 35.5t-73 16.5t-82.5 3.5q-71 0 -139 -9.5t-100 -19.5l-32 -9l-135 -963h-182z" />
<glyph unicode="o" horiz-adv-x="1214" d="M180 424q0 121 19.5 227.5t62.5 199.5t106.5 160t157.5 105.5t209 38.5q451 0 451 -453q0 -73 -8.5 -144t-28.5 -143.5t-49.5 -136.5t-74.5 -119.5t-101 -95.5t-131 -63t-162 -23q-451 0 -451 447zM362 426q0 -295 279 -295q82 0 147 36t105.5 92.5t67 133.5t37 152.5 t10.5 154.5q0 301 -281 301q-73 0 -131.5 -26.5t-96 -66t-65 -97t-41 -108t-21 -112t-9 -95.5t-1.5 -70z" />
<glyph unicode="p" horiz-adv-x="1222" d="M100 -426l211 1493q20 10 57 24.5t147.5 39t217.5 24.5q461 0 461 -459q0 -336 -154.5 -527.5t-445.5 -191.5q-127 0 -248 41l-63 -444h-183zM367 172q100 -41 233 -41q95 0 168.5 33.5t118.5 86.5t74 127.5t40 148.5t11 157q0 159 -71 238t-226 79q-127 0 -238 -36z" />
<glyph unicode="q" horiz-adv-x="1218" d="M180 436q0 117 19.5 220t64.5 196t113 159t172 105t235 39q107 0 212.5 -22t157.5 -44l52 -22l-211 -1493h-182l64 444q-113 -41 -236 -41q-461 0 -461 459zM362 449q0 -159 71 -238.5t226 -79.5q53 0 112.5 10.5t92.5 20.5l33 10l113 793q-100 36 -236 36 q-111 0 -193 -45t-128.5 -124t-68.5 -174.5t-22 -208.5z" />
<glyph unicode="r" horiz-adv-x="761" d="M160 0l149 1065q157 82 385 82q72 0 129 -8l-32 -154q-31 4 -93 4q-36 0 -70 -3t-60 -7.5t-43 -9t-33 -9.5l-15 -4l-135 -956h-182z" />
<glyph unicode="s" horiz-adv-x="1007" d="M137 45l41 145q16 -7 44.5 -16.5t112.5 -26t163 -16.5q135 0 204.5 43t69.5 119q0 30 -12.5 55.5t-29 43t-50.5 37t-58.5 30t-72.5 30.5q-150 62 -206 100q-121 81 -131 213q-1 13 -1 27q0 71 26.5 128t70.5 93.5t103.5 60.5t121.5 34t129 10q82 0 167.5 -13.5 t130.5 -26.5l44 -13l-48 -152q-15 6 -41 14.5t-102 22.5t-145 14q-45 0 -89 -7t-89.5 -23.5t-74 -50.5t-28.5 -80q0 -28 12.5 -51.5t27.5 -38.5t50.5 -33t58 -27t72.5 -28q45 -17 72 -28t67.5 -31t65.5 -38t54 -45.5t45 -57t27 -69.5t11 -86q0 -85 -34 -149.5t-95.5 -103.5 t-142 -58t-178.5 -19q-92 0 -182 16.5t-135.5 32t-45.5 19.5z" />
<glyph unicode="t" horiz-adv-x="882" d="M209 983l20 150h154l43 297l186 30l-47 -327h353l-21 -150h-352q-84 -606 -84 -610q-8 -66 -8 -90q0 -77 36.5 -114.5t126.5 -37.5q39 0 81.5 7.5t65.5 15.5l23 8l11 -144q-8 -5 -23 -11.5t-67.5 -18t-110.5 -11.5q-158 0 -242 68.5t-84 228.5q0 48 9 107l83 602h-153z " />
<glyph unicode="u" horiz-adv-x="1239" d="M201 317q0 62 8 119l98 697h182l-100 -709q-6 -41 -6 -76q0 -57 16 -98t40 -63.5t63 -35.5t73.5 -16.5t81.5 -3.5q71 0 139 9.5t100 19.5l32 10l135 963h180l-149 -1067q-8 -4 -23.5 -10t-64.5 -21t-100.5 -27t-127.5 -21.5t-149 -9.5q-218 0 -323 78t-105 262z" />
<glyph unicode="v" horiz-adv-x="1150" d="M205 1133h182l193 -990l464 990h191l-543 -1133h-258z" />
<glyph unicode="w" horiz-adv-x="1746" d="M205 1133h184l129 -975l404 975h198l129 -975l404 975h186l-483 -1133h-252l-107 735l-10 144l-51 -144l-315 -735h-252z" />
<glyph unicode="x" horiz-adv-x="1060" d="M51 0l445 565l-285 568h197l215 -441l340 441h206l-446 -566l287 -567h-197l-217 440l-338 -440h-207z" />
<glyph unicode="y" horiz-adv-x="1239" d="M201 324q0 57 8 112l98 697h182l-100 -709q-6 -41 -6 -72q0 -57 16.5 -98t41 -63t63 -34.5t72 -16t79.5 -3.5q77 0 146 9.5t99 19.5l30 10l135 957h180l-147 -1055q-14 -99 -39.5 -176.5t-70 -144.5t-107.5 -111.5t-153.5 -69.5t-205.5 -25q-86 0 -162.5 14.5 t-110.5 28.5l-34 15l43 145q11 -5 32.5 -13.5t91 -22t144.5 -13.5q93 0 165 25t117 70t71.5 98.5t38.5 119.5q-136 -34 -287 -34q-218 0 -324 78t-106 262z" />
<glyph unicode="z" horiz-adv-x="1030" d="M106 0l21 152l702 831h-573l23 150h786l-23 -162l-694 -819h596l-20 -152h-818z" />
<glyph unicode="{" horiz-adv-x="739" d="M193 487l22 154q91 0 125.5 37.5t46.5 120.5l72 508q15 109 91 179t210 70h141l-18 -141h-111q-78 0 -108 -35.5t-39 -99.5l-70 -500q-25 -167 -143 -217q86 -40 86 -160q0 -19 -4 -55l-70 -498q-4 -28 -4 -43q0 -43 24.5 -67.5t87.5 -24.5h111l-20 -141h-142 q-120 0 -177.5 56.5t-57.5 148.5q0 17 4 45l72 506q4 40 4 55q0 52 -29 77t-104 25z" />
<glyph unicode="|" horiz-adv-x="608" d="M166 -426l278 1982h158l-278 -1982h-158z" />
<glyph unicode="}" horiz-adv-x="751" d="M-2 -426l18 141h111q78 0 108 35.5t39 99.5l70 500q25 167 143 217q-86 40 -86 160q0 10 5 55l69 498q4 28 4 43q0 43 -24.5 67.5t-87.5 24.5h-111l20 141h142q120 0 177.5 -56t57.5 -148q0 -17 -4 -45l-71 -506q-5 -50 -5 -56q0 -52 29.5 -77t104.5 -25l-23 -154 q-91 0 -125.5 -37t-46.5 -120l-72 -508q-15 -109 -91 -179.5t-210 -70.5h-141z" />
<glyph unicode="~" horiz-adv-x="997" d="M160 522q3 10 9 25.5t28.5 56t50.5 71t77 56t105 25.5q47 0 94 -21t79.5 -46.5t73 -46.5t75.5 -21q31 0 58.5 14t44.5 33.5t29.5 39.5t17.5 34l5 14l105 -43q-3 -10 -9 -25.5t-29 -56t-51.5 -71t-77 -56t-104.5 -25.5q-45 0 -92.5 21t-80.5 46.5t-73.5 46.5t-74.5 21 q-50 0 -89.5 -34t-54.5 -68l-14 -33z" />
<glyph unicode="&#xa1;" horiz-adv-x="534" d="M117 -362l180 1114h152l-132 -1114h-200zM297 1024q0 58 34.5 94.5t96.5 36.5q48 0 74 -26t26 -70q0 -58 -36 -93.5t-97 -35.5q-48 0 -73 25t-25 69z" />
<glyph unicode="&#xa2;" horiz-adv-x="1024" d="M205 612q0 273 123 459t354 219l27 187h155l-26 -185q45 -3 86.5 -11t68.5 -16.5t47.5 -16.5t29.5 -12l9 -5l-59 -144q-86 44 -205 52l-117 -828q123 0 220 39l16 -149q-10 -5 -30 -12t-86.5 -19t-139.5 -12l-25 -181h-155l26 195q-162 38 -240.5 155.5t-78.5 284.5z M389 629q0 -228 158 -291l110 784q-81 -25 -137.5 -83.5t-83 -135t-37 -142t-10.5 -132.5z" />
<glyph unicode="&#xa3;" horiz-adv-x="1142" d="M139 0l21 150q130 100 178.5 208.5t48.5 241.5v37h-178l18 133h152q-14 122 -14 211q0 111 29 200t88.5 156t155.5 103.5t224 36.5q64 0 120 -9t90.5 -21.5t59.5 -25t36 -21.5l10 -9l-78 -129q-10 7 -30 17.5t-86 28t-138 17.5q-157 0 -232 -90t-75 -246q0 -67 16 -219 h444l-18 -133h-420q0 -134 -45.5 -254.5t-163.5 -235.5h686l-20 -147h-879z" />
<glyph unicode="&#xa4;" horiz-adv-x="1167" d="M190 463l166 143q-43 70 -43 182q0 163 107 289l-121 142l88 79l123 -145q113 74 248 74q134 0 227 -70l158 141l69 -79l-161 -140q45 -71 45 -184q0 -165 -113 -291l123 -141l-88 -80l-125 147q-106 -67 -242 -67q-137 0 -223 67l-168 -147zM442 809q0 -101 63 -162 t163 -61q124 0 211.5 82.5t87.5 210.5q0 99 -63.5 163t-162.5 64q-123 0 -211 -85.5t-88 -211.5z" />
<glyph unicode="&#xa5;" d="M217 272l16 121h328l29 201h-328l17 121h286l-305 739h197l252 -668l442 668h197l-514 -739h288l-16 -121h-332l-29 -201h332l-16 -121h-332l-39 -272h-184l39 272h-328z" />
<glyph unicode="&#xa6;" horiz-adv-x="608" d="M166 -424l117 838h157l-116 -838h-158zM326 719l118 837h158l-119 -837h-157z" />
<glyph unicode="&#xa7;" horiz-adv-x="1177" d="M117 -362l47 141q6 -3 16.5 -8.5t46 -19t74.5 -23.5t100 -18.5t123 -8.5q164 0 247 67.5t83 188.5q0 26 -6 49.5t-13.5 42t-25.5 37.5t-30 31.5t-39 28.5t-41 24.5t-48.5 23.5t-48 20.5t-51.5 21.5q-55 23 -97 44.5t-88 55t-75 70.5t-48.5 88.5t-19.5 111.5 q0 113 52 193.5t139 128.5q-109 94 -109 252q0 85 28.5 152.5t76 112.5t114 74.5t139.5 42.5t154 13q68 0 133 -8.5t108 -20t76.5 -24t49.5 -20.5l16 -7l-53 -139q-4 3 -12.5 7.5t-38.5 17t-65 22t-93.5 17t-122.5 7.5q-57 0 -112 -12t-106 -38t-82.5 -74.5t-31.5 -114.5 q0 -28 8.5 -52.5t20 -43.5t34 -38t41 -31.5t52 -29t54 -25t60.5 -25t60 -25.5q53 -23 91 -43t80.5 -51.5t68.5 -66.5t43.5 -85.5t17.5 -110.5q0 -238 -176 -346q94 -94 94 -238q0 -205 -133 -315.5t-375 -110.5q-72 0 -140 9t-114.5 21.5t-82.5 25.5t-53 22zM397 633 q0 -40 16 -74t37 -57t63.5 -49t71.5 -39.5t85 -38.5q92 -41 151 -74q60 31 90.5 87.5t30.5 127.5q0 85 -53.5 139.5t-151.5 100.5q-18 8 -90 39.5t-110 50.5q-63 -29 -101.5 -84.5t-38.5 -128.5z" />
<glyph unicode="&#xa8;" horiz-adv-x="899" d="M348 1417q0 50 30 80.5t83 30.5q41 0 63.5 -21.5t22.5 -58.5q0 -50 -30.5 -81.5t-82.5 -31.5q-42 0 -64 22t-22 60zM758 1417q0 50 29.5 80.5t82.5 30.5q41 0 62.5 -21.5t21.5 -58.5q0 -51 -29.5 -82t-80.5 -31q-42 0 -64 22t-22 60z" />
<glyph unicode="&#xa9;" horiz-adv-x="1748" d="M223 649q0 169 66 322.5t177.5 264t266 176t324.5 65.5q199 0 354 -89.5t237.5 -242t82.5 -340.5q0 -174 -69 -329t-183.5 -263.5t-266 -172t-313.5 -63.5q-200 0 -355 89.5t-238 242t-83 340.5zM350 655q0 -240 152 -395.5t409 -155.5q136 0 263 54t222 146t152.5 221.5 t57.5 271.5q0 240 -154.5 396.5t-411.5 156.5q-183 0 -340.5 -89t-253.5 -250t-96 -356zM588 653q0 97 28.5 186t82.5 159.5t139 112.5t190 42q57 0 115.5 -11.5t88.5 -23.5l30 -12l-41 -100q-82 36 -197 36q-75 0 -132 -29.5t-88.5 -72t-51 -98.5t-25.5 -100.5t-6 -86.5 q0 -245 252 -245q38 0 79.5 6t63.5 12l23 6l12 -102q-84 -33 -199 -33q-180 0 -272 97.5t-92 256.5z" />
<glyph unicode="&#xaa;" horiz-adv-x="800" d="M164 436l14 103h598l-14 -103h-598zM186 862q0 72 27 126t76.5 86t113.5 47.5t142 15.5q73 0 178 -11l10 70q4 28 4 41q0 69 -43.5 96t-136.5 27q-56 0 -115.5 -11t-91.5 -23l-31 -11l-8 108q44 20 120 37t161 17q287 0 287 -222q0 -9 -5 -59l-67 -475 q-42 -23 -133 -46.5t-197 -23.5q-135 0 -213 53t-78 158zM330 872q0 -61 42.5 -86.5t125.5 -25.5q97 0 178 28q6 52 33 228q-83 12 -172 12q-105 0 -156 -35t-51 -121z" />
<glyph unicode="&#xab;" horiz-adv-x="1245" d="M223 575l404 441l104 -84l-319 -357l221 -356l-129 -84zM700 575l406 441l104 -84l-321 -357l223 -356l-129 -84z" />
<glyph unicode="&#xac;" horiz-adv-x="1067" d="M203 633l18 133h817l-65 -475h-133l47 342h-684z" />
<glyph unicode="&#xad;" horiz-adv-x="882" d="M213 524l20 146h607l-21 -146h-606z" />
<glyph unicode="&#xae;" horiz-adv-x="1060" d="M240 995q0 121 63.5 232t175.5 180.5t242 69.5q170 0 281.5 -112.5t111.5 -277.5q0 -201 -137 -341t-346 -140q-170 0 -280.5 112t-110.5 277zM340 1004q0 -127 80.5 -212t208.5 -85q168 0 277.5 104.5t109.5 267.5q0 124 -81 210.5t-206 86.5q-159 0 -269 -102.5 t-120 -269.5zM473 823l62 428q75 19 163 19q170 0 170 -113q0 -109 -114 -147l49 -95q14 -26 35 -26l14 2l-8 -64q-16 -10 -43 -10q-56 0 -86 62l-60 118q-45 0 -63 2l-27 -176h-92zM602 1071q3 0 20.5 -1t34.5 -1q25 0 39.5 1t31.5 5t25.5 12t14.5 22.5t6 35.5 q0 29 -18.5 41t-63.5 12l-74 -4z" />
<glyph unicode="&#xaf;" horiz-adv-x="813" d="M319 1343l17 123h553l-17 -123h-553z" />
<glyph unicode="&#xb0;" horiz-adv-x="737" d="M260 1169q0 132 90 220t225 88q109 0 174.5 -65t65.5 -169q0 -132 -90 -218.5t-225 -86.5q-109 0 -174.5 63.5t-65.5 167.5zM381 1186q0 -61 37 -97t98 -36q76 0 127 48.5t51 125.5q0 61 -37 99t-98 38q-73 0 -125.5 -51.5t-52.5 -126.5z" />
<glyph unicode="&#xb1;" horiz-adv-x="1155" d="M158 0l20 139h840l-21 -139h-839zM246 694l18 140h359l51 368h141l-51 -368h360l-18 -140h-363l-51 -370h-141l51 370h-356z" />
<glyph unicode="&#xb2;" horiz-adv-x="757" d="M215 700l16 109l289 256q107 94 146 153.5t39 116.5q0 58 -37.5 91.5t-112.5 33.5q-106 0 -201 -61l-41 90q4 3 12 8.5t35 20t56.5 25t74.5 19.5t91 9q116 0 186 -61.5t70 -157.5q0 -80 -47.5 -167t-176.5 -198l-204 -176h354l-16 -111h-533z" />
<glyph unicode="&#xb3;" horiz-adv-x="768" d="M219 733l33 103q7 -4 22 -10.5t66 -17.5t109 -11q213 0 213 176q0 71 -49 99t-144 28q-14 0 -31 -0.5t-28.5 -1t-12.5 -0.5l15 106h73q101 0 159 41t58 117q0 98 -145 98q-72 0 -126.5 -14.5t-78.5 -28.5l-26 99q12 6 34 15t88 24.5t130 15.5q128 0 192 -52.5t64 -138.5 q0 -162 -177 -217q57 -17 98.5 -65.5t41.5 -120.5q0 -142 -93.5 -216.5t-259.5 -74.5q-62 0 -118 12t-82 24z" />
<glyph unicode="&#xb4;" horiz-adv-x="665" d="M336 1366l336 258l73 -108l-350 -242z" />
<glyph unicode="&#xb5;" horiz-adv-x="1239" d="M88 -426l219 1559h182l-100 -709q-6 -41 -6 -76q0 -57 16 -98t40 -63.5t63 -35.5t73.5 -16.5t81.5 -3.5q71 0 139.5 9.5t101.5 19.5l32 10l135 963h180l-149 -1067q-8 -4 -23.5 -10t-64.5 -21t-100.5 -27t-127.5 -21.5t-149 -9.5q-120 0 -189.5 25.5t-99.5 85.5l-72 -514 h-182z" />
<glyph unicode="&#xb6;" horiz-adv-x="1050" d="M244 1020q0 457 540 457q84 0 156 -8.5t102 -17.5l31 -9l-164 -1163q-9 -67 -32.5 -126.5t-64.5 -115.5t-110 -89.5t-157 -33.5q-24 0 -74 4l21 148q15 -3 49 -3q169 0 200 222l148 1054h-131l-90 -651h-86q-166 0 -252 89.5t-86 242.5z" />
<glyph unicode="&#xb7;" horiz-adv-x="555" d="M240 594q0 63 37.5 102t103.5 39q51 0 78.5 -27.5t27.5 -74.5q0 -63 -38 -102t-103 -39q-51 0 -78.5 27.5t-27.5 74.5z" />
<glyph unicode="&#xb8;" horiz-adv-x="698" d="M76 -408l37 99q63 -35 141 -35q137 0 137 92q0 72 -115 72q-69 0 -126 -19l96 242h119l-62 -158q16 2 49 2q78 0 127 -33.5t49 -103.5q0 -89 -67 -144t-201 -55q-54 0 -100 10.5t-65 20.5z" />
<glyph unicode="&#xb9;" horiz-adv-x="669" d="M307 1444l219 112h113l-121 -856h-127l105 740l-156 -82z" />
<glyph unicode="&#xba;" horiz-adv-x="839" d="M182 436l15 103h598l-15 -103h-598zM209 979q0 77 14.5 148t46.5 135.5t80 111.5t119.5 75t159.5 28q81 0 140.5 -25.5t94 -71.5t50.5 -102.5t16 -126.5q0 -79 -13.5 -150.5t-44 -136t-75.5 -111.5t-112.5 -74.5t-149.5 -27.5q-170 0 -248 89.5t-78 238.5zM352 973 q0 -205 178 -205q258 0 258 393q0 196 -176 201q-51 0 -92.5 -16.5t-68 -41.5t-46 -62t-29.5 -71t-16 -75.5t-7 -67.5t-1 -55z" />
<glyph unicode="&#xbb;" horiz-adv-x="1245" d="M195 219l319 356l-219 357l129 84l278 -441l-403 -440zM672 219l319 356l-219 357l129 84l281 -441l-406 -440z" />
<glyph unicode="&#xbc;" horiz-adv-x="1785" d="M301 1341l217 113h113l-121 -856h-125l104 739l-157 -82zM524 18l830 1459l94 -41l-830 -1461zM1106 199l12 112l438 545h123l-77 -547h114l-14 -110h-115l-28 -199h-127l28 199h-354zM1237 309h238l51 357z" />
<glyph unicode="&#xbd;" horiz-adv-x="1863" d="M301 1341l217 113h113l-121 -856h-125l104 739l-157 -82zM520 18l828 1459l96 -41l-830 -1461zM1219 0l16 109l289 256q107 94 145.5 153t38.5 117t-37 91.5t-112 33.5q-104 0 -201 -62l-41 90q4 3 12 8.5t35 20t56 25t74 19.5t91 9q116 0 186 -61.5t70 -157.5 q0 -80 -47 -166.5t-176 -197.5l-205 -176h354l-16 -111h-532z" />
<glyph unicode="&#xbe;" horiz-adv-x="1720" d="M207 627l33 102q7 -4 21.5 -10.5t65.5 -17.5t109 -11q213 0 213 176q0 71 -48.5 99t-143.5 28q-14 0 -31 -0.5t-28.5 -1t-12.5 -0.5l14 107h74q101 0 159 41t58 116q0 99 -145 99q-72 0 -126.5 -14.5t-78.5 -28.5l-27 98q12 6 34 15t88 24.5t130 15.5q128 0 192 -52 t64 -138q0 -162 -176 -217q57 -17 98 -65.5t41 -121.5q0 -142 -93 -216t-259 -74q-62 0 -118 12t-82 24zM610 18l830 1459l98 -41l-831 -1461zM1188 199l12 112l438 545h123l-78 -547h115l-14 -110h-115l-29 -199h-127l29 199h-354zM1319 309h237l52 357z" />
<glyph unicode="&#xbf;" horiz-adv-x="894" d="M76 -57q0 73 17.5 132.5t47 100t67.5 74t80.5 59.5t85 51t80.5 54.5t67.5 64t47 85.5t17.5 114v35h182v-56q0 -88 -28 -159.5t-72.5 -118t-98.5 -86t-108 -72.5t-98.5 -67.5t-72.5 -82t-28 -104.5q0 -157 256 -157q53 0 104.5 7.5t88 18t65.5 21.5t44 19l14 7l30 -143 q-6 -3 -17 -9t-49.5 -20.5t-80.5 -25.5t-108.5 -20t-135.5 -9q-200 0 -298.5 76.5t-98.5 210.5zM600 1026q0 58 35 93.5t94 35.5q50 0 75 -25t25 -69q0 -59 -34 -95t-97 -36q-46 0 -72 26t-26 70z" />
<glyph unicode="&#xc0;" horiz-adv-x="1392" d="M63 0l715 1454h246l305 -1454h-192l-86 434h-582l-207 -434h-199zM543 590h477l-137 708zM702 1782l105 110l262 -258l-84 -92z" />
<glyph unicode="&#xc1;" horiz-adv-x="1392" d="M63 0l715 1454h246l305 -1454h-192l-86 434h-582l-207 -434h-199zM543 590h477l-137 708zM799 1634l338 258l69 -110l-346 -240z" />
<glyph unicode="&#xc2;" horiz-adv-x="1392" d="M63 0l715 1454h246l305 -1454h-192l-86 434h-582l-207 -434h-199zM543 590h477l-137 708zM633 1626l330 258l254 -258l-84 -84l-195 174l-244 -174z" />
<glyph unicode="&#xc3;" horiz-adv-x="1392" d="M63 0l715 1454h246l305 -1454h-192l-86 434h-582l-207 -434h-199zM543 590h477l-137 708zM623 1657q2 7 6.5 19t22 43t39 54.5t59 42.5t81.5 19q37 0 71 -15.5t54.5 -34.5t47 -34.5t51.5 -15.5q34 0 61.5 25t37.5 50l11 25l88 -51q-2 -7 -7 -19.5t-23 -43.5t-40 -54.5 t-60 -43t-81 -19.5q-37 0 -70 15.5t-53.5 34.5t-47 34.5t-52.5 15.5q-34 0 -61.5 -25t-37.5 -50l-11 -25z" />
<glyph unicode="&#xc4;" horiz-adv-x="1392" d="M63 0l715 1454h246l305 -1454h-192l-86 434h-582l-207 -434h-199zM543 590h477l-137 708zM635 1700q0 50 29.5 80t80.5 30q42 0 64 -21t22 -58q0 -51 -29.5 -82t-82.5 -31q-40 0 -62 22t-22 60zM1042 1700q0 50 30 80t83 30q41 0 62.5 -21t21.5 -58q0 -50 -29.5 -81.5 t-81.5 -31.5q-42 0 -64 22t-22 60z" />
<glyph unicode="&#xc5;" horiz-adv-x="1392" d="M63 0l715 1454h246l305 -1454h-192l-86 434h-582l-207 -434h-199zM543 590h477l-137 708zM731 1735q0 104 68.5 165.5t173.5 61.5q84 0 134 -45.5t50 -124.5q0 -103 -67.5 -164t-171.5 -61q-86 0 -136.5 44.5t-50.5 123.5zM840 1745q0 -41 23.5 -63.5t66.5 -22.5 q55 0 87 32.5t32 90.5q0 42 -24.5 66t-66.5 24q-54 0 -86 -34.5t-32 -92.5z" />
<glyph unicode="&#xc6;" horiz-adv-x="1986" d="M63 0l967 1454h1038l-20 -156h-745l-66 -467h664l-23 -153h-664l-34 -250q-4 -32 -4 -66q0 -123 85 -176t271 -53q87 0 174 8t126.5 14.5t55.5 10.5l-22 -154q-140 -35 -357 -35q-520 0 -520 375q0 40 6 86h-452l-283 -438h-197zM641 592h377l104 743z" />
<glyph unicode="&#xc7;" horiz-adv-x="1210" d="M201 600q0 126 23.5 246t80 236t139.5 202.5t212 139.5t288 53q98 0 184.5 -19t123.5 -38l38 -19l-61 -146q-12 7 -34 18t-96 29.5t-153 18.5q-105 0 -191 -30.5t-143 -78.5t-100 -116t-66 -133t-37 -139.5t-18 -126t-4 -101.5q0 -77 10 -140t39 -125t76.5 -104t127 -68 t185.5 -26q72 0 138.5 11t97.5 22l31 12l24 -151q-12 -6 -35.5 -14t-104.5 -22t-171 -14h-37l-35 -92q16 2 47 2q78 0 128 -34t50 -103q0 -89 -67 -144t-201 -55q-54 0 -100.5 10.5t-65.5 20.5l-20 10l39 99q56 -35 139 -35q137 0 137 92q0 72 -112 72q-76 0 -127 -19 l71 189q-450 68 -450 610z" />
<glyph unicode="&#xc8;" horiz-adv-x="1210" d="M211 348q0 40 6 84l143 1022h930l-20 -156h-746l-65 -467h663l-22 -153h-664l-35 -250q-4 -37 -4 -66q0 -123 85.5 -176t271.5 -53q87 0 174 8t126.5 14.5t55.5 10.5l-23 -154q-139 -35 -356 -35q-520 0 -520 371zM616 1782l105 110l262 -258l-84 -92z" />
<glyph unicode="&#xc9;" horiz-adv-x="1210" d="M211 348q0 40 6 84l143 1022h930l-20 -156h-746l-65 -467h663l-22 -153h-664l-35 -250q-4 -37 -4 -66q0 -123 85.5 -176t271.5 -53q87 0 174 8t126.5 14.5t55.5 10.5l-23 -154q-139 -35 -356 -35q-520 0 -520 371zM776 1634l336 258l72 -110l-348 -240z" />
<glyph unicode="&#xca;" horiz-adv-x="1210" d="M211 348q0 40 6 84l143 1022h930l-20 -156h-746l-65 -467h663l-22 -153h-664l-35 -250q-4 -37 -4 -66q0 -123 85.5 -176t271.5 -53q87 0 174 8t126.5 14.5t55.5 10.5l-23 -154q-139 -35 -356 -35q-520 0 -520 371zM575 1626l328 258l256 -258l-84 -84l-196 174l-244 -174 z" />
<glyph unicode="&#xcb;" horiz-adv-x="1206" d="M211 348q0 40 6 84l143 1022h930l-20 -156h-746l-65 -467h663l-22 -153h-664l-35 -250q-4 -37 -4 -66q0 -123 85.5 -176t271.5 -53q87 0 174 8t126.5 14.5t55.5 10.5l-23 -154q-139 -35 -356 -35q-520 0 -520 371zM573 1700q0 50 30 80t83 30q41 0 62.5 -21t21.5 -58 q0 -50 -29.5 -81.5t-81.5 -31.5q-42 0 -64 22t-22 60zM981 1702q0 49 31 78.5t82 29.5q41 0 63.5 -21t22.5 -58q0 -50 -30.5 -81.5t-82.5 -31.5q-41 0 -63.5 22.5t-22.5 61.5z" />
<glyph unicode="&#xcc;" horiz-adv-x="540" d="M178 0l205 1454h184l-205 -1454h-184zM260 1782l105 110l262 -258l-86 -92z" />
<glyph unicode="&#xcd;" horiz-adv-x="540" d="M178 0l205 1454h184l-205 -1454h-184zM391 1634l336 258l72 -110l-348 -240z" />
<glyph unicode="&#xce;" horiz-adv-x="540" d="M178 0l205 1454h184l-205 -1454h-184zM209 1626l328 258l254 -258l-84 -84l-195 174l-244 -174z" />
<glyph unicode="&#xcf;" horiz-adv-x="540" d="M178 0l205 1454h184l-205 -1454h-184zM209 1700q0 50 29 80t81 30q42 0 64.5 -21t22.5 -58q0 -51 -30 -82t-83 -31q-40 0 -62 22t-22 60zM616 1700q0 50 30 80t83 30q41 0 62.5 -21t21.5 -58q0 -50 -29.5 -81.5t-81.5 -31.5q-42 0 -64 22t-22 60z" />
<glyph unicode="&#xd0;" horiz-adv-x="1392" d="M139 670l21 149h123l88 619q231 39 430 39q159 0 277 -45t186 -126.5t100.5 -184.5t32.5 -230q0 -95 -10.5 -183.5t-36.5 -181t-66 -171.5t-104 -150t-145.5 -120.5t-194.5 -78.5t-248 -29q-93 0 -198.5 9.5t-164.5 19.5l-59 10l92 654h-123zM373 145q114 -12 223 -12 q93 0 175 19t164.5 70.5t141.5 131.5t96 212.5t37 303.5q0 126 -29 215t-85 140t-129.5 73.5t-171.5 22.5q-120 0 -260 -16l-68 -486h367l-21 -149h-367z" />
<glyph unicode="&#xd1;" horiz-adv-x="1443" d="M168 0l205 1454h217l551 -1182l10 127l149 1055h181l-205 -1454h-209l-559 1194l-6 -123l-152 -1071h-182zM653 1657q2 7 6.5 19t21.5 43t38.5 54.5t59 42.5t81.5 19q48 0 88 -25t73 -50t64 -25q34 0 61 25t38 50l10 25l88 -51q-2 -7 -7 -19.5t-23 -43.5t-39.5 -54.5 t-59 -43t-80.5 -19.5q-37 0 -70 15.5t-54 34.5t-47.5 34.5t-51.5 15.5q-35 0 -62.5 -25t-37.5 -50l-11 -25z" />
<glyph unicode="&#xd2;" horiz-adv-x="1415" d="M199 535q0 141 19.5 269.5t69 254t124.5 216t195 146.5t272 56q266 0 401 -147.5t135 -414.5q0 -99 -9.5 -192.5t-33 -188.5t-58.5 -176t-89 -152t-122.5 -121t-161.5 -79t-202 -29q-540 0 -540 558zM385 537q0 -92 15.5 -160.5t54 -126t111.5 -87.5t179 -30q88 0 161 32 t122 83t87 122t59 142t34.5 149.5t18 137.5t4.5 114q0 71 -10 129t-35 111.5t-65 89.5t-104.5 57t-148.5 21q-92 0 -166.5 -32.5t-123.5 -83.5t-86 -123.5t-57 -142t-32 -150.5t-15 -137.5t-3 -114.5zM647 1782l105 110l262 -258l-84 -92z" />
<glyph unicode="&#xd3;" horiz-adv-x="1415" d="M199 535q0 141 19.5 269.5t69 254t124.5 216t195 146.5t272 56q266 0 401 -147.5t135 -414.5q0 -99 -9.5 -192.5t-33 -188.5t-58.5 -176t-89 -152t-122.5 -121t-161.5 -79t-202 -29q-540 0 -540 558zM385 537q0 -92 15.5 -160.5t54 -126t111.5 -87.5t179 -30q88 0 161 32 t122 83t87 122t59 142t34.5 149.5t18 137.5t4.5 114q0 71 -10 129t-35 111.5t-65 89.5t-104.5 57t-148.5 21q-92 0 -166.5 -32.5t-123.5 -83.5t-86 -123.5t-57 -142t-32 -150.5t-15 -137.5t-3 -114.5zM827 1634l338 258l70 -110l-346 -240z" />
<glyph unicode="&#xd4;" horiz-adv-x="1415" d="M199 535q0 141 19.5 269.5t69 254t124.5 216t195 146.5t272 56q266 0 401 -147.5t135 -414.5q0 -99 -9.5 -192.5t-33 -188.5t-58.5 -176t-89 -152t-122.5 -121t-161.5 -79t-202 -29q-540 0 -540 558zM385 537q0 -92 15.5 -160.5t54 -126t111.5 -87.5t179 -30q88 0 161 32 t122 83t87 122t59 142t34.5 149.5t18 137.5t4.5 114q0 71 -10 129t-35 111.5t-65 89.5t-104.5 57t-148.5 21q-92 0 -166.5 -32.5t-123.5 -83.5t-86 -123.5t-57 -142t-32 -150.5t-15 -137.5t-3 -114.5zM645 1626l328 258l256 -258l-84 -84l-197 174l-243 -174z" />
<glyph unicode="&#xd5;" horiz-adv-x="1415" d="M199 535q0 141 19.5 269.5t69 254t124.5 216t195 146.5t272 56q266 0 401 -147.5t135 -414.5q0 -99 -9.5 -192.5t-33 -188.5t-58.5 -176t-89 -152t-122.5 -121t-161.5 -79t-202 -29q-540 0 -540 558zM385 537q0 -92 15.5 -160.5t54 -126t111.5 -87.5t179 -30q88 0 161 32 t122 83t87 122t59 142t34.5 149.5t18 137.5t4.5 114q0 71 -10 129t-35 111.5t-65 89.5t-104.5 57t-148.5 21q-92 0 -166.5 -32.5t-123.5 -83.5t-86 -123.5t-57 -142t-32 -150.5t-15 -137.5t-3 -114.5zM616 1657q2 7 6.5 19t21.5 43t38.5 54.5t59 42.5t81.5 19q38 0 72 -15.5 t55 -34.5t47.5 -34.5t51.5 -15.5q34 0 61 25t37 50l10 25l88 -51q-2 -7 -7 -19.5t-23 -43.5t-39.5 -54.5t-59 -43t-80.5 -19.5q-37 0 -70 15.5t-54 34.5t-47.5 34.5t-51.5 15.5q-35 0 -62.5 -25t-38.5 -50l-10 -25z" />
<glyph unicode="&#xd6;" horiz-adv-x="1415" d="M199 535q0 141 19.5 269.5t69 254t124.5 216t195 146.5t272 56q266 0 401 -147.5t135 -414.5q0 -99 -9.5 -192.5t-33 -188.5t-58.5 -176t-89 -152t-122.5 -121t-161.5 -79t-202 -29q-540 0 -540 558zM385 537q0 -92 15.5 -160.5t54 -126t111.5 -87.5t179 -30q88 0 161 32 t122 83t87 122t59 142t34.5 149.5t18 137.5t4.5 114q0 71 -10 129t-35 111.5t-65 89.5t-104.5 57t-148.5 21q-92 0 -166.5 -32.5t-123.5 -83.5t-86 -123.5t-57 -142t-32 -150.5t-15 -137.5t-3 -114.5zM645 1700q0 50 30 80t81 30q42 0 64 -21t22 -58q0 -51 -30 -82t-83 -31 q-40 0 -62 22t-22 60zM1053 1702q0 49 30.5 78.5t81.5 29.5q41 0 62.5 -21t21.5 -58q0 -51 -29.5 -82t-80.5 -31q-41 0 -63.5 22.5t-22.5 61.5z" />
<glyph unicode="&#xd7;" horiz-adv-x="1163" d="M205 293l362 317l-278 328l112 98l279 -325l367 319l81 -96l-364 -320l283 -327l-113 -101l-283 328l-364 -317z" />
<glyph unicode="&#xd8;" horiz-adv-x="1415" d="M199 535q0 141 19.5 269.5t69 254t124.5 216t195 146.5t272 56q127 0 223 -35l102 192l129 -57l-106 -201q188 -142 188 -461q0 -99 -9.5 -192.5t-33 -188.5t-58.5 -176t-89 -152t-122.5 -121t-161.5 -79t-202 -29q-129 0 -233 33l-109 -205l-129 60l111 211 q-180 134 -180 459zM385 537q0 -205 80 -299l561 1058q-70 25 -158 25q-92 0 -166.5 -32.5t-123.5 -83.5t-86 -123.5t-57 -142t-32 -150.5t-15 -137.5t-3 -114.5zM582 156q74 -23 163 -23q88 0 161 32t122 83t87 122t59 142t34.5 149.5t18 137.5t4.5 114q0 205 -88 306z" />
<glyph unicode="&#xd9;" horiz-adv-x="1429" d="M227 430q0 71 11 141l124 883h185l-127 -903q-8 -57 -8 -117q0 -76 18.5 -132t47.5 -88t73.5 -51t86 -24.5t95.5 -5.5q373 0 432 418l127 903h185l-125 -883q-23 -165 -73.5 -279.5t-131.5 -184t-186 -100t-248 -30.5q-238 0 -362 113t-124 340zM678 1782l104 110 l262 -258l-86 -92z" />
<glyph unicode="&#xda;" horiz-adv-x="1429" d="M227 430q0 71 11 141l124 883h185l-127 -903q-8 -57 -8 -117q0 -76 18.5 -132t47.5 -88t73.5 -51t86 -24.5t95.5 -5.5q373 0 432 418l127 903h185l-125 -883q-23 -165 -73.5 -279.5t-131.5 -184t-186 -100t-248 -30.5q-238 0 -362 113t-124 340zM838 1634l336 258 l71 -110l-348 -240z" />
<glyph unicode="&#xdb;" horiz-adv-x="1429" d="M227 430q0 71 11 141l124 883h185l-127 -903q-8 -57 -8 -117q0 -76 18.5 -132t47.5 -88t73.5 -51t86 -24.5t95.5 -5.5q373 0 432 418l127 903h185l-125 -883q-23 -165 -73.5 -279.5t-131.5 -184t-186 -100t-248 -30.5q-238 0 -362 113t-124 340zM653 1626l328 258 l254 -258l-84 -84l-195 174l-243 -174z" />
<glyph unicode="&#xdc;" horiz-adv-x="1429" d="M227 430q0 71 11 141l124 883h185l-127 -903q-8 -57 -8 -117q0 -76 18.5 -132t47.5 -88t73.5 -51t86 -24.5t95.5 -5.5q373 0 432 418l127 903h185l-125 -883q-23 -165 -73.5 -279.5t-131.5 -184t-186 -100t-248 -30.5q-238 0 -362 113t-124 340zM653 1700q0 50 30 80 t81 30q42 0 64 -21t22 -58q0 -51 -30 -82t-83 -31q-40 0 -62 22t-22 60zM1061 1700q0 50 30 80t83 30q41 0 62 -21t21 -58q0 -51 -29.5 -82t-80.5 -31q-42 0 -64 22t-22 60z" />
<glyph unicode="&#xdd;" horiz-adv-x="1300" d="M256 1454h197l292 -709l504 709h205l-631 -866l-82 -588h-184l82 592zM786 1634l338 258l70 -110l-346 -240z" />
<glyph unicode="&#xde;" horiz-adv-x="1271" d="M168 0l205 1454h184l-29 -194q160 20 289 20q247 0 371.5 -104t124.5 -302q0 -114 -39 -214.5t-114 -179t-196.5 -124t-275.5 -45.5q-173 0 -291 8l-45 -319h-184zM418 475q75 -6 278 -6t316.5 102.5t113.5 276.5q0 136 -84.5 205t-242.5 69q-145 0 -293 -20z" />
<glyph unicode="&#xdf;" horiz-adv-x="1232" d="M158 0l168 1200q13 90 49 159t82.5 110t107.5 66.5t117.5 34.5t118.5 9q186 0 287.5 -81.5t101.5 -203.5q0 -74 -33.5 -133t-81 -97.5t-95 -72.5t-81 -74t-33.5 -86q0 -38 18.5 -70t48 -56.5t65.5 -48.5t72 -52.5t65.5 -61t48 -81t18.5 -107.5q0 -168 -114 -272.5 t-324 -104.5q-76 0 -147.5 14t-104.5 28l-33 14l45 143q12 -5 33 -13.5t84 -22t123 -13.5q114 0 187 52t73 151q0 44 -19 80.5t-48.5 62.5t-66 50.5t-73 50.5t-66 55.5t-48.5 72t-19 93.5q0 58 18 106.5t47.5 82t64.5 63t70 55t64.5 51.5t47.5 60.5t18 74.5q0 71 -64.5 104 t-163.5 33q-51 0 -95 -11t-82.5 -34.5t-64.5 -65.5t-34 -100l-170 -1214h-182z" />
<glyph unicode="&#xe0;" horiz-adv-x="1212" d="M180 442q0 160 35.5 289t106 224.5t182 147.5t256.5 52q113 0 224.5 -21t166.5 -42l55 -21l-143 -1012q-9 -3 -25 -8.5t-65.5 -20t-99 -25t-119 -19.5t-131.5 -9q-222 0 -332.5 115t-110.5 350zM362 449q0 -162 63 -240t216 -78q63 0 127 7.5t96 15.5l33 8l111 805 q-129 34 -254 34q-76 0 -138 -22.5t-104 -63.5t-72 -92.5t-46.5 -116t-24 -127t-7.5 -130.5zM596 1513l104 111l263 -258l-84 -92z" />
<glyph unicode="&#xe1;" horiz-adv-x="1212" d="M180 442q0 160 35.5 289t106 224.5t182 147.5t256.5 52q113 0 224.5 -21t166.5 -42l55 -21l-143 -1012q-9 -3 -25 -8.5t-65.5 -20t-99 -25t-119 -19.5t-131.5 -9q-222 0 -332.5 115t-110.5 350zM362 449q0 -162 63 -240t216 -78q63 0 127 7.5t96 15.5l33 8l111 805 q-129 34 -254 34q-76 0 -138 -22.5t-104 -63.5t-72 -92.5t-46.5 -116t-24 -127t-7.5 -130.5zM688 1366l338 258l70 -111l-346 -239z" />
<glyph unicode="&#xe2;" horiz-adv-x="1212" d="M180 442q0 160 35.5 289t106 224.5t182 147.5t256.5 52q113 0 224.5 -21t166.5 -42l55 -21l-143 -1012q-9 -3 -25 -8.5t-65.5 -20t-99 -25t-119 -19.5t-131.5 -9q-222 0 -332.5 115t-110.5 350zM362 449q0 -162 63 -240t216 -78q63 0 127 7.5t96 15.5l33 8l111 805 q-129 34 -254 34q-76 0 -138 -22.5t-104 -63.5t-72 -92.5t-46.5 -116t-24 -127t-7.5 -130.5zM549 1358l328 258l253 -258l-83 -84l-195 174l-244 -174z" />
<glyph unicode="&#xe3;" horiz-adv-x="1212" d="M180 442q0 160 35.5 289t106 224.5t182 147.5t256.5 52q113 0 224.5 -21t166.5 -42l55 -21l-143 -1012q-9 -3 -25 -8.5t-65.5 -20t-99 -25t-119 -19.5t-131.5 -9q-222 0 -332.5 115t-110.5 350zM362 449q0 -162 63 -240t216 -78q63 0 127 7.5t96 15.5l33 8l111 805 q-129 34 -254 34q-76 0 -138 -22.5t-104 -63.5t-72 -92.5t-46.5 -116t-24 -127t-7.5 -130.5zM528 1352q2 7 6.5 19t21.5 43t38.5 54.5t59 42.5t81.5 19q38 0 72 -15.5t55 -34.5t47.5 -34.5t51.5 -15.5q34 0 61.5 25t37.5 50l11 25l86 -51q-2 -7 -6.5 -19.5t-22.5 -43.5 t-40 -55t-59.5 -43.5t-80.5 -19.5q-37 0 -70 16t-54 34.5t-47.5 34.5t-51.5 16q-34 0 -61.5 -25.5t-38.5 -50.5l-11 -25z" />
<glyph unicode="&#xe4;" horiz-adv-x="1212" d="M180 442q0 160 35.5 289t106 224.5t182 147.5t256.5 52q113 0 224.5 -21t166.5 -42l55 -21l-143 -1012q-9 -3 -25 -8.5t-65.5 -20t-99 -25t-119 -19.5t-131.5 -9q-222 0 -332.5 115t-110.5 350zM362 449q0 -162 63 -240t216 -78q63 0 127 7.5t96 15.5l33 8l111 805 q-129 34 -254 34q-76 0 -138 -22.5t-104 -63.5t-72 -92.5t-46.5 -116t-24 -127t-7.5 -130.5zM569 1417q0 50 29.5 80.5t81.5 30.5q42 0 64 -21t22 -59q0 -51 -30 -82t-83 -31q-40 0 -62 22t-22 60zM977 1417q0 50 30 80.5t83 30.5q41 0 62.5 -21.5t21.5 -58.5 q0 -50 -30.5 -81.5t-80.5 -31.5q-42 0 -64 22t-22 60z" />
<glyph unicode="&#xe5;" horiz-adv-x="1212" d="M180 442q0 160 35.5 289t106 224.5t182 147.5t256.5 52q113 0 224.5 -21t166.5 -42l55 -21l-143 -1012q-9 -3 -25 -8.5t-65.5 -20t-99 -25t-119 -19.5t-131.5 -9q-222 0 -332.5 115t-110.5 350zM362 449q0 -162 63 -240t216 -78q63 0 127 7.5t96 15.5l33 8l111 805 q-129 34 -254 34q-76 0 -138 -22.5t-104 -63.5t-72 -92.5t-46.5 -116t-24 -127t-7.5 -130.5zM637 1442q0 104 67.5 164.5t174.5 60.5q84 0 133 -44.5t49 -123.5q0 -103 -67 -164t-171 -61q-86 0 -136 44.5t-50 123.5zM743 1454q0 -42 25 -66t68 -24q53 0 85.5 33.5 t32.5 89.5q0 43 -23.5 66.5t-64.5 23.5q-55 0 -89 -33.5t-34 -89.5z" />
<glyph unicode="&#xe6;" horiz-adv-x="1826" d="M145 289q0 340 508 340q94 0 244 -15q12 99 47 189q-1 103 -69.5 150.5t-204.5 47.5q-82 0 -164 -16.5t-123 -32.5l-41 -16l-16 143q173 76 393 76q273 0 352 -149q143 149 375 149q195 0 288 -98.5t93 -255.5q0 -58 -12.5 -121.5t-24.5 -97.5l-12 -35h-701 q-8 -49 -8 -105q0 -152 73.5 -231.5t254.5 -79.5q69 0 135.5 11.5t98.5 23.5l32 12l8 -147q-12 -6 -36 -15t-103 -24t-166 -15q-262 0 -377 134q-182 -134 -448 -134q-181 0 -288.5 82t-107.5 230zM330 291q0 -87 64 -128.5t165 -41.5q209 0 365 98q-37 93 -37 246 q-133 18 -244 18q-154 0 -233.5 -43.5t-79.5 -148.5zM1100 690h540q17 70 17 125q0 90 -56.5 140.5t-170.5 50.5q-67 0 -120 -19t-86 -48t-59 -73.5t-39.5 -84t-25.5 -91.5z" />
<glyph unicode="&#xe7;" horiz-adv-x="1024" d="M168 430q0 155 34.5 284t104.5 229t185 156t266 56q90 0 163 -16.5t101 -32.5l27 -16l-58 -136q-11 5 -31.5 13t-81.5 21t-120 13q-77 0 -140.5 -23.5t-105 -60t-72.5 -88.5t-47.5 -101.5t-27 -107.5t-13 -98.5t-2.5 -81.5q0 -67 14 -118.5t48 -96.5t99 -69.5t159 -24.5 q69 0 129 11.5t82 21.5l18 -146q-10 -5 -29.5 -11.5t-84.5 -18t-136 -11.5h-14l-35 -92q16 2 49 2q78 0 127 -33.5t49 -103.5q0 -89 -67 -144t-201 -55q-54 0 -100 10.5t-65 20.5l-19 10l37 99q56 -35 141 -35q135 0 135 92q0 72 -113 72q-70 0 -127 -19l74 187 q-352 53 -352 442z" />
<glyph unicode="&#xe8;" horiz-adv-x="1150" d="M186 467q0 138 36.5 260t106 218.5t182 153t253.5 56.5q195 0 288 -98.5t93 -255.5q0 -58 -12.5 -121.5t-24.5 -97.5l-12 -35h-719q-8 -49 -8 -105q0 -311 346 -311q69 0 135.5 11.5t98.5 23.5l32 12l8 -147q-12 -6 -36 -15t-103 -24t-166 -15q-260 0 -379 124.5 t-119 365.5zM399 690h559q17 70 17 125q0 90 -56.5 140.5t-170.5 50.5q-275 0 -349 -316zM547 1513l104 111l262 -258l-84 -92z" />
<glyph unicode="&#xe9;" horiz-adv-x="1150" d="M186 467q0 138 36.5 260t106 218.5t182 153t253.5 56.5q195 0 288 -98.5t93 -255.5q0 -58 -12.5 -121.5t-24.5 -97.5l-12 -35h-719q-8 -49 -8 -105q0 -311 346 -311q69 0 135.5 11.5t98.5 23.5l32 12l8 -147q-12 -6 -36 -15t-103 -24t-166 -15q-260 0 -379 124.5 t-119 365.5zM399 690h559q17 70 17 125q0 90 -56.5 140.5t-170.5 50.5q-275 0 -349 -316zM643 1366l338 258l70 -111l-346 -239z" />
<glyph unicode="&#xea;" horiz-adv-x="1150" d="M186 467q0 138 36.5 260t106 218.5t182 153t253.5 56.5q195 0 288 -98.5t93 -255.5q0 -58 -12.5 -121.5t-24.5 -97.5l-12 -35h-719q-8 -49 -8 -105q0 -311 346 -311q69 0 135.5 11.5t98.5 23.5l32 12l8 -147q-12 -6 -36 -15t-103 -24t-166 -15q-260 0 -379 124.5 t-119 365.5zM399 690h559q17 70 17 125q0 90 -56.5 140.5t-170.5 50.5q-275 0 -349 -316zM506 1358l328 258l253 -258l-83 -84l-195 174l-244 -174z" />
<glyph unicode="&#xeb;" horiz-adv-x="1150" d="M186 467q0 138 36.5 260t106 218.5t182 153t253.5 56.5q195 0 288 -98.5t93 -255.5q0 -58 -12.5 -121.5t-24.5 -97.5l-12 -35h-719q-8 -49 -8 -105q0 -311 346 -311q69 0 135.5 11.5t98.5 23.5l32 12l8 -147q-12 -6 -36 -15t-103 -24t-166 -15q-260 0 -379 124.5 t-119 365.5zM399 690h559q17 70 17 125q0 90 -56.5 140.5t-170.5 50.5q-275 0 -349 -316zM498 1417q0 50 29.5 80.5t82.5 30.5q41 0 62.5 -21.5t21.5 -58.5q0 -51 -29.5 -82t-80.5 -31q-42 0 -64 22t-22 60zM905 1419q0 50 30.5 79.5t82.5 29.5q41 0 63.5 -21.5t22.5 -58.5 q0 -50 -31 -81.5t-82 -31.5q-41 0 -63.5 22.5t-22.5 61.5z" />
<glyph unicode="&#xec;" horiz-adv-x="501" d="M160 0l159 1133h183l-160 -1133h-182zM225 1513l105 111l262 -258l-86 -92z" />
<glyph unicode="&#xed;" horiz-adv-x="501" d="M160 0l159 1133h183l-160 -1133h-182zM344 1366l336 258l72 -111l-349 -239z" />
<glyph unicode="&#xee;" horiz-adv-x="501" d="M150 1358l329 258l254 -258l-84 -84l-194 174l-246 -174zM160 0l159 1133h183l-160 -1133h-182z" />
<glyph unicode="&#xef;" horiz-adv-x="501" d="M150 1417q0 50 29.5 80.5t82.5 30.5q41 0 62.5 -21.5t21.5 -58.5q0 -50 -30 -81.5t-80 -31.5q-42 0 -64 22t-22 60zM160 0l159 1133h183l-160 -1133h-182zM559 1417q0 50 29.5 80.5t81.5 30.5q41 0 63.5 -21.5t22.5 -58.5q0 -50 -30.5 -81.5t-82.5 -31.5q-40 0 -62 22 t-22 60z" />
<glyph unicode="&#xf0;" horiz-adv-x="1224" d="M180 424q0 150 31 270.5t83 199t123.5 131t147.5 75t160 22.5q119 0 240 -45q-51 146 -154 238l-127 -113l-78 92l103 92q-104 52 -226 58l39 137q157 -7 305 -94l162 139l78 -92l-137 -117q121 -103 193.5 -261t72.5 -374q0 -132 -19 -248t-62.5 -219.5t-108 -177.5 t-161 -117t-216.5 -43q-449 0 -449 447zM362 428q0 -297 277 -297q54 0 101 14.5t81.5 42t62.5 60t47.5 77t34 84t23 90.5t13.5 86t7 80.5t2.5 65.5t0.5 49q0 49 -8 135q-120 62 -250 62q-59 0 -112.5 -15.5t-105.5 -54.5t-90 -99.5t-61 -158t-23 -221.5z" />
<glyph unicode="&#xf1;" horiz-adv-x="1247" d="M160 0l149 1067q8 4 23.5 9.5t64.5 21t100.5 27t127.5 21t149 9.5q218 0 324 -78.5t106 -261.5q0 -62 -8 -119l-98 -696h-183l101 709q6 43 6 75q0 57 -16 98t-40 63.5t-62.5 35.5t-73 16.5t-82.5 3.5q-71 0 -139 -9.5t-100 -19.5l-32 -9l-135 -963h-182zM489 1352 q2 7 6.5 19t21.5 43t38.5 54.5t59 42.5t81.5 19q38 0 72 -15.5t55 -34.5t47.5 -34.5t51.5 -15.5q34 0 61 25t37 50l10 25l88 -51q-2 -7 -7 -19.5t-23 -43.5t-39.5 -55t-59 -43.5t-80.5 -19.5q-37 0 -70 16t-54 34.5t-47.5 34.5t-51.5 16q-35 0 -62.5 -25.5t-37.5 -50.5 l-11 -25z" />
<glyph unicode="&#xf2;" horiz-adv-x="1214" d="M180 424q0 121 19.5 227.5t62.5 199.5t106.5 160t157.5 105.5t209 38.5q451 0 451 -453q0 -73 -8.5 -144t-28.5 -143.5t-49.5 -136.5t-74.5 -119.5t-101 -95.5t-131 -63t-162 -23q-451 0 -451 447zM362 426q0 -295 279 -295q82 0 147 36t105.5 92.5t67 133.5t37 152.5 t10.5 154.5q0 301 -281 301q-73 0 -131.5 -26.5t-96 -66t-65 -97t-41 -108t-21 -112t-9 -95.5t-1.5 -70zM541 1513l104 111l262 -258l-84 -92z" />
<glyph unicode="&#xf3;" horiz-adv-x="1214" d="M180 424q0 121 19.5 227.5t62.5 199.5t106.5 160t157.5 105.5t209 38.5q451 0 451 -453q0 -73 -8.5 -144t-28.5 -143.5t-49.5 -136.5t-74.5 -119.5t-101 -95.5t-131 -63t-162 -23q-451 0 -451 447zM362 426q0 -295 279 -295q82 0 147 36t105.5 92.5t67 133.5t37 152.5 t10.5 154.5q0 301 -281 301q-73 0 -131.5 -26.5t-96 -66t-65 -97t-41 -108t-21 -112t-9 -95.5t-1.5 -70zM645 1366l336 258l72 -111l-348 -239z" />
<glyph unicode="&#xf4;" horiz-adv-x="1214" d="M180 424q0 121 19.5 227.5t62.5 199.5t106.5 160t157.5 105.5t209 38.5q451 0 451 -453q0 -73 -8.5 -144t-28.5 -143.5t-49.5 -136.5t-74.5 -119.5t-101 -95.5t-131 -63t-162 -23q-451 0 -451 447zM362 426q0 -295 279 -295q82 0 147 36t105.5 92.5t67 133.5t37 152.5 t10.5 154.5q0 301 -281 301q-73 0 -131.5 -26.5t-96 -66t-65 -97t-41 -108t-21 -112t-9 -95.5t-1.5 -70zM504 1358l327 258l254 -258l-84 -84l-194 174l-244 -174z" />
<glyph unicode="&#xf5;" horiz-adv-x="1214" d="M180 424q0 121 19.5 227.5t62.5 199.5t106.5 160t157.5 105.5t209 38.5q451 0 451 -453q0 -73 -8.5 -144t-28.5 -143.5t-49.5 -136.5t-74.5 -119.5t-101 -95.5t-131 -63t-162 -23q-451 0 -451 447zM362 426q0 -295 279 -295q82 0 147 36t105.5 92.5t67 133.5t37 152.5 t10.5 154.5q0 301 -281 301q-73 0 -131.5 -26.5t-96 -66t-65 -97t-41 -108t-21 -112t-9 -95.5t-1.5 -70zM471 1352q2 7 6.5 19t22 43t39.5 54.5t59.5 42.5t81.5 19q37 0 70.5 -15.5t54 -34.5t47 -34.5t51.5 -15.5q34 0 61.5 25t38.5 50l11 25l88 -51q-2 -7 -7 -19.5 t-23 -43.5t-40 -55t-60 -43.5t-81 -19.5q-37 0 -70 16t-53.5 34.5t-47 34.5t-52.5 16q-34 0 -61.5 -25.5t-38.5 -50.5l-11 -25z" />
<glyph unicode="&#xf6;" horiz-adv-x="1214" d="M180 424q0 121 19.5 227.5t62.5 199.5t106.5 160t157.5 105.5t209 38.5q451 0 451 -453q0 -73 -8.5 -144t-28.5 -143.5t-49.5 -136.5t-74.5 -119.5t-101 -95.5t-131 -63t-162 -23q-451 0 -451 447zM362 426q0 -295 279 -295q82 0 147 36t105.5 92.5t67 133.5t37 152.5 t10.5 154.5q0 301 -281 301q-73 0 -131.5 -26.5t-96 -66t-65 -97t-41 -108t-21 -112t-9 -95.5t-1.5 -70zM504 1417q0 50 29 80.5t81 30.5q42 0 64 -21t22 -59q0 -51 -29.5 -82t-82.5 -31q-40 0 -62 22t-22 60zM911 1417q0 50 30 80.5t83 30.5q41 0 62.5 -21.5t21.5 -58.5 q0 -50 -30.5 -81.5t-80.5 -31.5q-42 0 -64 22t-22 60z" />
<glyph unicode="&#xf7;" horiz-adv-x="1175" d="M223 545l17 121h880l-16 -121h-881zM512 201q0 55 31.5 89t89.5 34q43 0 66.5 -24.5t23.5 -63.5q0 -56 -32.5 -89.5t-88.5 -33.5q-45 0 -67.5 23.5t-22.5 64.5zM616 946q0 56 31.5 89.5t89.5 33.5q44 0 68 -24t24 -64q0 -55 -32 -89t-88 -34q-45 0 -69 23.5t-24 64.5z " />
<glyph unicode="&#xf8;" horiz-adv-x="1214" d="M180 424q0 121 19.5 227.5t62.5 199.5t106.5 160t157.5 105.5t209 38.5q89 0 160 -18l90 170l131 -58l-90 -168q160 -111 160 -379q0 -73 -8.5 -144t-28.5 -143.5t-49.5 -136.5t-74.5 -119.5t-101 -95.5t-131 -63t-162 -23q-94 0 -178 23l-95 -178l-129 57l97 180 q-146 112 -146 365zM362 426q0 -128 52 -201l405 766q-45 10 -92 10q-73 0 -131.5 -26.5t-96 -66t-65 -97t-41 -108t-21 -112t-9 -95.5t-1.5 -70zM530 145q43 -14 111 -14q82 0 147 36t105.5 92.5t67 133.5t37 152.5t10.5 154.5q0 145 -66 222z" />
<glyph unicode="&#xf9;" horiz-adv-x="1239" d="M201 317q0 62 8 119l98 697h182l-100 -709q-6 -41 -6 -76q0 -57 16 -98t40 -63.5t63 -35.5t73.5 -16.5t81.5 -3.5q71 0 139 9.5t100 19.5l32 10l135 963h180l-149 -1067q-8 -4 -23.5 -10t-64.5 -21t-100.5 -27t-127.5 -21.5t-149 -9.5q-218 0 -323 78t-105 262zM616 1513 l105 111l262 -258l-84 -92z" />
<glyph unicode="&#xfa;" horiz-adv-x="1239" d="M201 317q0 62 8 119l98 697h182l-100 -709q-6 -41 -6 -76q0 -57 16 -98t40 -63.5t63 -35.5t73.5 -16.5t81.5 -3.5q71 0 139 9.5t100 19.5l32 10l135 963h180l-149 -1067q-8 -4 -23.5 -10t-64.5 -21t-100.5 -27t-127.5 -21.5t-149 -9.5q-218 0 -323 78t-105 262zM684 1366 l336 258l72 -111l-349 -239z" />
<glyph unicode="&#xfb;" horiz-adv-x="1239" d="M201 317q0 62 8 119l98 697h182l-100 -709q-6 -41 -6 -76q0 -57 16 -98t40 -63.5t63 -35.5t73.5 -16.5t81.5 -3.5q71 0 139 9.5t100 19.5l32 10l135 963h180l-149 -1067q-8 -4 -23.5 -10t-64.5 -21t-100.5 -27t-127.5 -21.5t-149 -9.5q-218 0 -323 78t-105 262zM514 1358 l328 258l256 -258l-84 -84l-197 174l-244 -174z" />
<glyph unicode="&#xfc;" horiz-adv-x="1239" d="M201 317q0 62 8 119l98 697h182l-100 -709q-6 -41 -6 -76q0 -57 16 -98t40 -63.5t63 -35.5t73.5 -16.5t81.5 -3.5q71 0 139 9.5t100 19.5l32 10l135 963h180l-149 -1067q-8 -4 -23.5 -10t-64.5 -21t-100.5 -27t-127.5 -21.5t-149 -9.5q-218 0 -323 78t-105 262zM522 1417 q0 50 29.5 80.5t81.5 30.5q42 0 64 -21t22 -59q0 -51 -30 -82t-83 -31q-40 0 -62 22t-22 60zM930 1419q0 50 30.5 79.5t81.5 29.5q41 0 62.5 -21.5t21.5 -58.5q0 -50 -30 -81.5t-80 -31.5q-41 0 -63.5 22.5t-22.5 61.5z" />
<glyph unicode="&#xfd;" horiz-adv-x="1239" d="M201 324q0 57 8 112l98 697h182l-100 -709q-6 -41 -6 -72q0 -57 16.5 -98t41 -63t63 -34.5t72 -16t79.5 -3.5q77 0 146 9.5t99 19.5l30 10l135 957h180l-147 -1055q-14 -99 -39.5 -176.5t-70 -144.5t-107.5 -111.5t-153.5 -69.5t-205.5 -25q-86 0 -162.5 14.5 t-110.5 28.5l-34 15l43 145q11 -5 32.5 -13.5t91 -22t144.5 -13.5q93 0 165 25t117 70t71.5 98.5t38.5 119.5q-136 -34 -287 -34q-218 0 -324 78t-106 262zM684 1366l338 258l70 -111l-347 -239z" />
<glyph unicode="&#xfe;" horiz-adv-x="1222" d="M100 -426l279 1982h182l-61 -442q130 41 248 41q226 0 336 -112t110 -347q0 -337 -154 -528t-446 -191q-120 0 -250 41l-61 -444h-183zM367 168q103 -37 233 -37q90 0 162 30.5t118 82t76.5 124t43 150t12.5 166.5q0 159 -67.5 238t-221.5 79q-144 0 -246 -38z" />
<glyph unicode="&#xff;" horiz-adv-x="1239" d="M201 324q0 57 8 112l98 697h182l-100 -709q-6 -41 -6 -72q0 -57 16.5 -98t41 -63t63 -34.5t72 -16t79.5 -3.5q77 0 146 9.5t99 19.5l30 10l135 957h180l-147 -1055q-14 -99 -39.5 -176.5t-70 -144.5t-107.5 -111.5t-153.5 -69.5t-205.5 -25q-86 0 -162.5 14.5 t-110.5 28.5l-34 15l43 145q11 -5 32.5 -13.5t91 -22t144.5 -13.5q93 0 165 25t117 70t71.5 98.5t38.5 119.5q-136 -34 -287 -34q-218 0 -324 78t-106 262zM522 1417q0 50 29.5 80.5t81.5 30.5q42 0 64 -21t22 -59q0 -51 -30 -82t-83 -31q-40 0 -62 22t-22 60zM930 1419 q0 50 30.5 79.5t81.5 29.5q41 0 62.5 -21.5t21.5 -58.5q0 -50 -30 -81.5t-80 -31.5q-41 0 -63.5 22.5t-22.5 61.5z" />
<glyph unicode="&#x11e;" horiz-adv-x="1316" d="M201 567q0 143 26 273t84 247t143 203t210.5 136.5t279.5 50.5q68 0 135 -8.5t114 -20.5t84.5 -24t56.5 -20l18 -7l-62 -144q-14 7 -41.5 18t-115 29.5t-179.5 18.5q-104 0 -189.5 -29.5t-143 -76.5t-101.5 -113t-68.5 -132.5t-39.5 -142.5t-20 -134t-5 -116 q0 -442 442 -442q84 0 177 14l90 615h182l-109 -739q-16 -5 -54.5 -14.5t-126 -21.5t-169.5 -12q-136 0 -242.5 30t-176.5 83t-115 128.5t-64.5 161.5t-19.5 189zM698 1812v13l107 39q0 -6 0.5 -16.5t8 -37.5t22 -47.5t46.5 -37.5t76 -17t80.5 16t56.5 39t33.5 46t17.5 39 l5 16l98 -39q-2 -10 -8 -26.5t-30 -58.5t-55 -74t-89 -58.5t-127 -26.5q-51 0 -92 13.5t-65.5 35t-42.5 47.5t-25.5 52t-12 47.5t-4.5 35.5z" />
<glyph unicode="&#x11f;" horiz-adv-x="1216" d="M180 438q0 220 65.5 378.5t204.5 248.5t343 90q107 0 209.5 -22t151.5 -44l50 -22l-139 -987q-14 -98 -38 -175t-68.5 -145t-106.5 -113t-154 -70.5t-209 -25.5q-84 0 -158 14.5t-106 28.5l-32 15l43 147q11 -6 31.5 -14.5t87.5 -22.5t139 -14q92 0 163.5 25.5t116.5 71 t72 100t39 121.5q-123 -39 -269 -39q-217 0 -326.5 110.5t-109.5 343.5zM362 449q0 -158 68 -235t221 -77q127 0 246 37l111 787q-95 40 -232 40q-192 0 -303 -138.5t-111 -413.5zM573 1524v14l107 39q0 -6 0.5 -16.5t8.5 -37.5t22.5 -47.5t46.5 -37.5t76 -17t80 16t56 39 t33.5 46t18.5 39l4 16l100 -39q-2 -10 -8 -26.5t-30 -58.5t-55.5 -74t-89.5 -58.5t-128 -26.5q-51 0 -92 13.5t-65.5 35t-42.5 47.5t-25.5 52t-12 47.5t-4.5 34.5z" />
<glyph unicode="&#x130;" horiz-adv-x="540" d="M178 0l205 1454h184l-205 -1454h-184zM410 1743q0 53 33 87t89 34q44 0 68.5 -25t24.5 -65q0 -53 -32.5 -86t-88.5 -33q-45 0 -69.5 23.5t-24.5 64.5z" />
<glyph unicode="&#x131;" horiz-adv-x="501" d="M160 0l159 1133h183l-160 -1133h-182z" />
<glyph unicode="&#x15e;" horiz-adv-x="1202" d="M176 53l51 150q18 -8 51 -19t129.5 -30t186.5 -19q179 0 280 67.5t101 190.5q0 48 -19 87t-40 63t-74.5 51t-82 38.5t-103.5 37.5q-3 1 -5 2q-68 24 -114 44t-101 55t-88 73.5t-55.5 97.5t-22.5 131q0 88 31.5 158.5t83 115.5t123 75t146.5 42.5t157 12.5 q113 0 215.5 -21t148.5 -42l46 -21l-54 -144l-40 17q-40 16 -128.5 35.5t-183.5 19.5q-51 0 -98.5 -6t-97 -22.5t-85 -42t-58.5 -67.5t-23 -96q0 -41 14 -74.5t35 -56.5t57.5 -44.5t67.5 -35t80 -30.5q69 -24 116 -43t98 -43.5t84 -48t64.5 -54.5t49 -66t28 -79.5 t10.5 -97.5q0 -202 -136 -313.5t-376 -120.5l-35 -95q16 2 49 2q78 0 127.5 -34t49.5 -103q0 -89 -67.5 -144t-201.5 -55q-54 0 -100 10.5t-65 20.5l-19 10l37 99q56 -35 141 -35q135 0 135 92q0 72 -112 72q-70 0 -127 -19l69 179q-91 5 -178.5 23.5t-129.5 34.5z" />
<glyph unicode="&#x15f;" horiz-adv-x="1007" d="M137 45l41 145q16 -7 44.5 -16.5t112.5 -26t163 -16.5q135 0 204.5 43t69.5 119q0 30 -12.5 55.5t-29 43t-50.5 37t-58.5 30t-72.5 30.5q-150 62 -206 100q-121 81 -131 213q-1 13 -1 27q0 71 26.5 128t70.5 93.5t103.5 60.5t121.5 34t129 10q82 0 167.5 -13.5 t130.5 -26.5l44 -13l-48 -152q-15 6 -41 14.5t-102 22.5t-145 14q-45 0 -89 -7t-89.5 -23.5t-74 -50.5t-28.5 -80q0 -28 12.5 -51.5t27.5 -38.5t50.5 -33t58 -27t72.5 -28q45 -17 72 -28t67.5 -31t65.5 -38t54 -45.5t45 -57t27 -69.5t11 -86q0 -157 -108.5 -237t-292.5 -90 l-37 -95q16 2 49 2q78 0 127 -33.5t49 -103.5q0 -89 -66.5 -144t-199.5 -55q-55 0 -101.5 10.5t-65.5 20.5l-19 10l37 99q63 -35 141 -35q137 0 137 92q0 72 -115 72q-70 0 -127 -19l72 181q-76 4 -149 19.5t-108.5 28t-35.5 15.5z" />
<glyph unicode="&#x192;" horiz-adv-x="1134" d="M-109 -424l41 150q41 -19 123 -19q102 0 168 44.5t94 154.5l222 901h-232l35 141h231l68 273q21 86 57.5 151t78.5 104t96 63.5t105.5 33t111.5 8.5q83 0 167 -25l-47 -143q-47 14 -123 14q-216 0 -264 -198l-69 -281h321l-35 -141h-321l-217 -895q-88 -361 -441 -361 q-30 0 -60 3.5t-46 6.5t-39.5 9t-24.5 6z" />
<glyph unicode="&#x2c6;" horiz-adv-x="843" d="M322 1358l327 258l254 -258l-84 -84l-194 174l-244 -174z" />
<glyph unicode="&#x2da;" horiz-adv-x="692" d="M340 1442q0 104 67.5 164.5t174.5 60.5q84 0 134 -44.5t50 -123.5q0 -103 -68 -164t-172 -61q-86 0 -136 44.5t-50 123.5zM449 1452q0 -41 23.5 -64.5t66.5 -23.5q54 0 86 33.5t32 91.5q0 42 -23 65t-65 23q-55 0 -87.5 -33.5t-32.5 -91.5z" />
<glyph unicode="&#x2dc;" horiz-adv-x="872" d="M322 1352q2 7 6.5 19t21.5 43t38 54.5t58.5 42.5t81.5 19q38 0 72 -15.5t55 -34.5t47.5 -34.5t51.5 -15.5q34 0 61 25t37 50l10 25l88 -51q-2 -7 -7 -19.5t-23 -43.5t-39.5 -55t-59 -43.5t-80.5 -19.5q-37 0 -70 16t-54 34.5t-47.5 34.5t-51.5 16q-35 0 -62.5 -25.5 t-37.5 -50.5l-10 -25z" />
<glyph unicode="&#x3a9;" horiz-adv-x="1470" d="M117 0l18 137h326q-90 72 -154.5 212t-64.5 333q0 114 22.5 223t75.5 214t131.5 183.5t199.5 126.5t271 48q111 0 199 -30.5t146 -82t96 -124t54.5 -151.5t16.5 -169q0 -147 -32.5 -277t-88.5 -225.5t-119.5 -164t-136.5 -116.5h293l-18 -137h-539l16 113q9 4 25 12 t61 39t86.5 69t92 105.5t86.5 145.5t61 190.5t25 238.5q0 60 -8.5 113.5t-32.5 109t-61 95.5t-99.5 65t-142.5 25q-103 0 -187 -35.5t-141 -96t-95 -145t-55.5 -179.5t-17.5 -201q0 -115 24.5 -213t57 -155.5t72 -102t61 -60t33.5 -20.5l-17 -113h-540z" />
<glyph unicode="&#x3c0;" horiz-adv-x="1622" d="M240 983l20 150h1397l-21 -150h-331l-86 -616q-7 -51 -7 -80q0 -77 34 -114.5t112 -37.5q36 0 68.5 6.5t47.5 13.5l15 7l6 -144q-7 -5 -21 -11.5t-62.5 -18t-104.5 -11.5q-130 0 -204.5 71t-74.5 220l8 99l86 616h-405l-137 -983h-181l138 983h-297z" />
<glyph unicode="&#x2000;" horiz-adv-x="1206" />
<glyph unicode="&#x2001;" horiz-adv-x="2413" />
<glyph unicode="&#x2002;" horiz-adv-x="1206" />
<glyph unicode="&#x2003;" horiz-adv-x="2413" />
<glyph unicode="&#x2004;" horiz-adv-x="804" />
<glyph unicode="&#x2005;" horiz-adv-x="603" />
<glyph unicode="&#x2006;" horiz-adv-x="402" />
<glyph unicode="&#x2007;" horiz-adv-x="402" />
<glyph unicode="&#x2008;" horiz-adv-x="301" />
<glyph unicode="&#x2009;" horiz-adv-x="161" />
<glyph unicode="&#x200a;" horiz-adv-x="134" />
<glyph unicode="&#x2010;" horiz-adv-x="884" d="M213 524l20 146h607l-21 -146h-606z" />
<glyph unicode="&#x2011;" horiz-adv-x="884" d="M213 524l20 146h607l-21 -146h-606z" />
<glyph unicode="&#x2012;" horiz-adv-x="884" d="M213 524l20 146h607l-21 -146h-606z" />
<glyph unicode="&#x2013;" horiz-adv-x="1181" d="M221 524l21 146h886l-20 -146h-887z" />
<glyph unicode="&#x2014;" horiz-adv-x="1490" d="M221 524l21 146h1194l-21 -146h-1194z" />
<glyph unicode="&#x2018;" horiz-adv-x="499" d="M276 1083q0 44 48 153t96 196l49 86l100 -39q-29 -67 -71 -229t-47 -218q-44 -26 -93 -26q-37 0 -59.5 20t-22.5 57z" />
<glyph unicode="&#x2019;" horiz-adv-x="499" d="M289 1042q29 69 71.5 231t47.5 216q41 29 90 29q36 0 59 -20.5t23 -57.5q0 -44 -48 -152.5t-96 -195.5l-49 -86z" />
<glyph unicode="&#x201a;" horiz-adv-x="507" d="M78 -270q30 69 73 231t46 215q43 29 92 29q36 0 59 -20.5t23 -57.5q0 -44 -48.5 -153t-96.5 -196l-48 -87z" />
<glyph unicode="&#x201c;" horiz-adv-x="806" d="M307 1083q0 44 48.5 153t96.5 196l48 86l100 -39q-30 -69 -73 -231.5t-46 -215.5q-43 -26 -92 -26q-37 0 -59.5 20t-22.5 57zM606 1083q0 44 48 153t96 196l47 86l100 -39q-29 -68 -71.5 -230t-47.5 -217q-41 -26 -90 -26q-37 0 -59.5 20t-22.5 57z" />
<glyph unicode="&#x201d;" horiz-adv-x="806" d="M264 1042q30 68 73 230t48 217q41 29 90 29q36 0 59 -20.5t23 -57.5q0 -44 -48 -152.5t-96 -195.5l-48 -86zM563 1042q29 69 71.5 231t47.5 216q43 29 92 29q36 0 59 -20.5t23 -57.5q0 -44 -48.5 -152.5t-97.5 -195.5l-48 -86z" />
<glyph unicode="&#x201e;" horiz-adv-x="806" d="M78 -270q30 68 73 229.5t48 216.5q41 29 90 29q36 0 59 -20.5t23 -57.5q0 -45 -48.5 -154t-96.5 -195l-48 -87zM377 -270q29 69 71.5 230.5t47.5 215.5q43 29 92 29q36 0 59 -20.5t23 -57.5q0 -44 -49 -153t-97 -196l-49 -87z" />
<glyph unicode="&#x2026;" horiz-adv-x="1609" d="M158 76q0 63 35 102t100 39q52 0 82.5 -25t30.5 -71q0 -64 -35.5 -104t-100.5 -40q-55 0 -83.5 26t-28.5 73zM694 76q0 63 35 102t100 39q52 0 82.5 -25t30.5 -71q0 -64 -35 -104t-100 -40q-55 0 -84 26.5t-29 72.5zM1231 76q0 63 35 102t100 39q52 0 82.5 -25t30.5 -71 q0 -64 -35.5 -104t-100.5 -40q-55 0 -83.5 26t-28.5 73z" />
<glyph unicode="&#x202f;" horiz-adv-x="482" />
<glyph unicode="&#x2030;" horiz-adv-x="2418" d="M262 1044q0 62 12 121.5t39 116.5t66.5 100t99 69t131.5 26q75 0 130 -23.5t86.5 -65.5t46 -92.5t14.5 -111.5q0 -62 -11 -120.5t-37 -115.5t-65 -99.5t-99.5 -68.5t-135.5 -26q-137 0 -207 76.5t-70 213.5zM393 1047q0 -85 35.5 -136t112.5 -51q73 0 122.5 45.5 t71 116.5t21.5 162q0 186 -146 186q-108 0 -162.5 -90.5t-54.5 -232.5zM483 31l820 1446l102 -52l-823 -1448zM1001 268q0 62 12 121.5t39 116.5t66.5 99.5t99.5 68.5t132 26q75 0 130 -23.5t86 -65t45.5 -92t14.5 -111.5q0 -62 -11 -120.5t-37 -116t-65 -100t-99.5 -68.5 t-135.5 -26q-137 0 -207 77t-70 214zM1133 270q0 -85 35 -135.5t112 -50.5q73 0 122.5 45.5t71 116.5t21.5 162q0 186 -145 186q-108 0 -162.5 -91t-54.5 -233zM1737 268q0 62 12 121.5t39 116.5t66.5 99.5t99 68.5t131.5 26q75 0 130 -23.5t86 -65t45.5 -92t14.5 -111.5 q0 -62 -11 -120.5t-37 -116t-65 -100t-99.5 -68.5t-135.5 -26q-136 0 -206 77t-70 214zM1868 270q0 -85 35 -135.5t112 -50.5q73 0 122.5 45.5t71 116.5t21.5 162q0 186 -145 186q-108 0 -162.5 -91t-54.5 -233z" />
<glyph unicode="&#x2039;" horiz-adv-x="772" d="M223 575l404 441l110 -84l-319 -357l221 -356l-135 -84z" />
<glyph unicode="&#x203a;" horiz-adv-x="772" d="M195 219l319 356l-219 357l133 84l281 -441l-406 -440z" />
<glyph unicode="&#x2044;" horiz-adv-x="561" d="M-80 18l830 1459l94 -41l-830 -1461z" />
<glyph unicode="&#x205f;" horiz-adv-x="603" />
<glyph unicode="&#x2070;" horiz-adv-x="872" d="M260 1004q0 65 7.5 127t24 128t47.5 120.5t73 98.5t105 68.5t140 24.5q271 0 271 -318q0 -83 -10.5 -158.5t-37.5 -152t-69 -132t-109 -90t-153 -34.5q-82 0 -140 24t-89.5 69t-45.5 99.5t-14 125.5zM389 983q0 -186 158 -186q252 0 252 477q0 85 -35 134t-123 52 q-54 0 -96.5 -22t-69 -62t-44.5 -86t-26.5 -104t-12 -104.5t-3.5 -98.5z" />
<glyph unicode="&#x2074;" horiz-adv-x="796" d="M217 899l14 113l437 544h133l-76 -546h115l-17 -111h-114l-29 -199h-133l28 199h-358zM354 1010h238l47 356z" />
<glyph unicode="&#x2075;" horiz-adv-x="778" d="M223 737l37 103q74 -43 191 -43q99 0 159 53t60 149q0 152 -172 152q-47 0 -104 -11.5t-91 -25.5l86 442h447l-15 -106h-329l-41 -205q49 8 92 8q126 0 195 -61.5t69 -171.5q0 -147 -91.5 -240.5t-256.5 -93.5q-136 0 -236 51z" />
<glyph unicode="&#x2076;" horiz-adv-x="815" d="M256 1024q0 68 11.5 138t40.5 145t73.5 132.5t117 94.5t163.5 37q61 0 112 -15.5t72 -31.5l20 -15l-51 -92q-6 5 -18 12t-50.5 19t-80.5 12q-210 0 -263 -250q92 45 189 45q123 0 186.5 -66.5t63.5 -180.5q0 -139 -89 -229.5t-229 -90.5q-136 0 -202 88.5t-66 247.5z M387 985q0 -186 148 -186q47 0 82.5 20t54.5 52t28 66.5t9 70.5q0 137 -142 137q-86 0 -178 -49q-2 -43 -2 -111z" />
<glyph unicode="&#x2077;" horiz-adv-x="720" d="M291 700l391 746h-375l17 110h528l-10 -73l-410 -783h-141z" />
<glyph unicode="&#x2078;" horiz-adv-x="845" d="M240 907q0 92 55.5 156t128.5 100q-96 61 -96 174q0 111 83.5 171.5t217.5 60.5q51 0 96 -9.5t86 -30.5t64.5 -61t23.5 -94q0 -145 -164 -235q65 -33 98 -77.5t33 -115.5q0 -124 -93.5 -193t-240.5 -69q-135 0 -213.5 59.5t-78.5 163.5zM375 918q0 -65 41.5 -97.5 t118.5 -32.5q86 0 142 38t56 110q0 32 -10.5 55.5t-35.5 40.5t-45 26.5t-62.5 26t-63.5 25.5q-55 -23 -98 -72.5t-43 -119.5zM457 1339q0 -24 8 -44t17.5 -32t32.5 -25t36 -19t47.5 -18.5t48.5 -18.5q46 24 85.5 71t39.5 105q0 102 -143 108q-172 0 -172 -127z" />
<glyph unicode="&#x2079;" horiz-adv-x="815" d="M266 750l51 92q6 -5 18 -12t51 -19t81 -12q207 0 260 248q-84 -43 -186 -43q-123 0 -186.5 66.5t-63.5 180.5q0 139 88.5 229.5t228.5 90.5q136 0 202.5 -89t66.5 -247q0 -68 -11.5 -138t-40.5 -145t-73.5 -132.5t-117 -94.5t-163.5 -37q-61 0 -112 15.5t-72 30.5z M424 1251q0 -137 141 -137q88 0 176 47q4 43 4 113q0 186 -147 186q-47 0 -82.5 -20t-54.5 -52t-28 -66.5t-9 -70.5z" />
<glyph unicode="&#x207f;" horiz-adv-x="870" d="M190 614l105 738q59 30 154 51.5t196 21.5q146 0 219.5 -57.5t73.5 -185.5q0 -36 -6 -80l-68 -488h-143l70 496q4 40 4 55q0 46 -14 76.5t-39.5 44t-49.5 18.5t-57 5q-57 0 -109.5 -7.5t-75.5 -15.5l-24 -8l-94 -664h-142z" />
<glyph unicode="&#x2080;" horiz-adv-x="872" d="M117 -20q0 65 7.5 127t24 128t47.5 120.5t73 98.5t105 68.5t140 24.5q270 0 270 -318q0 -83 -10.5 -158.5t-37.5 -152t-68.5 -132t-108.5 -90t-153 -34.5q-82 0 -140 24t-89.5 69t-45.5 99.5t-14 125.5zM246 -41q0 -86 34.5 -136t122.5 -50q252 0 252 477q0 85 -34.5 134 t-122.5 52q-54 0 -96.5 -22t-69 -62t-44.5 -86t-26.5 -104t-12 -104.5t-3.5 -98.5z" />
<glyph unicode="&#x2081;" horiz-adv-x="516" d="M123 420l219 112h113l-121 -856h-127l104 740l-155 -82z" />
<glyph unicode="&#x2082;" horiz-adv-x="757" d="M72 -324l16 109l289 256q107 94 145.5 153t38.5 117t-37 91.5t-112 33.5q-106 0 -201 -61l-41 90q4 3 12 8.5t35 20t56 25t74 19.5t91 9q116 0 186 -61.5t70 -157.5q0 -81 -47 -167.5t-176 -197.5l-205 -176h355l-17 -111h-532z" />
<glyph unicode="&#x2083;" horiz-adv-x="772" d="M70 -287l39 99q8 -4 22.5 -10.5t63.5 -17.5t102 -11q221 0 221 168q0 78 -46 106.5t-144 28.5q-15 0 -32.5 -0.5t-29 -1t-12.5 -0.5l14 106h74q100 0 158.5 41.5t58.5 114.5q0 51 -33.5 75.5t-113.5 24.5q-69 0 -124 -15t-79 -28l-27 99q12 6 34 15t88 24.5t130 15.5 q129 0 192.5 -52.5t63.5 -142.5q0 -75 -44.5 -130.5t-131.5 -82.5q139 -47 139 -198q0 -130 -94.5 -204.5t-257.5 -74.5q-68 0 -126 13t-81 25z" />
<glyph unicode="&#x2084;" horiz-adv-x="796" d="M70 -125l14 113l436 544h133l-75 -546h114l-16 -111h-115l-29 -199h-133l29 199h-358zM207 -14h237l48 356z" />
<glyph unicode="&#x2085;" horiz-adv-x="778" d="M80 -287l37 103q74 -43 190 -43q99 0 159 53t60 149q0 152 -172 152q-47 0 -103.5 -11.5t-90.5 -25.5l86 442h446l-14 -106h-330l-41 -205q39 8 82 8q128 0 201.5 -62t73.5 -171q0 -146 -92 -240t-257 -94q-135 0 -235 51z" />
<glyph unicode="&#x2086;" horiz-adv-x="794" d="M113 0q0 68 11 138t40.5 145t73.5 132.5t116.5 94.5t163.5 37q61 0 112 -15.5t72 -31.5l21 -15l-51 -92q-6 5 -18 12t-51 19t-81 12q-209 0 -262 -250q92 45 189 45q122 0 185.5 -66.5t63.5 -180.5q0 -139 -88.5 -229.5t-228.5 -90.5q-136 0 -202 88.5t-66 247.5z M244 -39q0 -186 147 -186q47 0 82.5 20t54.5 52t28 66.5t9 70.5q0 137 -141 137q-86 0 -178 -49q-2 -43 -2 -111z" />
<glyph unicode="&#x2087;" horiz-adv-x="712" d="M147 -324l392 746h-375l16 110h529l-11 -73l-409 -783h-142z" />
<glyph unicode="&#x2088;" horiz-adv-x="845" d="M98 -117q0 92 56 156t129 100q-97 62 -97 174q0 111 83.5 171.5t217.5 60.5q51 0 96.5 -9.5t86 -30.5t64.5 -61t24 -94q0 -145 -164 -235q65 -33 98 -77.5t33 -115.5q0 -124 -93.5 -193t-240.5 -69q-135 0 -214 59.5t-79 163.5zM233 -106q0 -65 41.5 -97.5t118.5 -32.5 q87 0 143 38t56 110q0 32 -10.5 55.5t-35.5 40.5t-45 26.5t-62.5 26t-63.5 25.5q-55 -23 -98.5 -72.5t-43.5 -119.5zM315 315q0 -24 8 -43.5t17.5 -32t33 -25.5t36.5 -19t47.5 -18.5t48.5 -18.5q46 24 85.5 71t39.5 105q0 101 -144 108q-172 0 -172 -127z" />
<glyph unicode="&#x2089;" horiz-adv-x="815" d="M131 -274l41 92q6 -5 18 -12t51 -19t81 -12q206 0 260 248q-84 -43 -187 -43q-123 0 -186.5 66.5t-63.5 180.5q0 139 89 229.5t229 90.5q136 0 202 -88.5t66 -247.5q0 -68 -11 -138t-39.5 -145t-71 -132.5t-113 -94.5t-158.5 -37q-57 0 -109 15.5t-75 30.5zM279 227 q0 -137 141 -137q88 0 176 47q4 43 4 113q0 186 -147 186q-47 0 -82.5 -20t-54.5 -52t-28 -66.5t-9 -70.5z" />
<glyph unicode="&#x20ac;" horiz-adv-x="1275" d="M176 508l17 115h139q3 97 22 219h-131l17 112h141q24 83 59 153t90 135.5t125.5 111t169 73t215.5 27.5q94 0 176 -16.5t117 -32.5l35 -16l-65 -136q-10 6 -30.5 14t-88 22t-142.5 14q-356 0 -475 -349h598l-51 -112h-577q-20 -119 -23 -219h498l-51 -115h-445 q4 -57 17 -106t40.5 -96t67.5 -80t102 -53.5t140 -20.5q69 0 137 12t102 24l33 13l29 -135q-13 -7 -38.5 -18t-111 -29.5t-180.5 -18.5q-132 0 -232 40.5t-159.5 112.5t-91 160t-37.5 195h-158z" />
<glyph unicode="&#x2122;" horiz-adv-x="1118" d="M254 1356l12 86h381l-12 -86h-143l-56 -400h-96l55 400h-141zM639 956l106 486h123l62 -295l145 295h121l-33 -486h-90l23 369l-138 -289h-90l-57 293l-78 -373h-94z" />
<glyph unicode="&#x2190;" horiz-adv-x="1830" d="M219 725l830 727l86 -100l-631 -551h1282l-21 -154h-1280l473 -551l-114 -100z" />
<glyph unicode="&#x2191;" horiz-adv-x="1699" d="M225 750l832 727l624 -727l-114 -101l-473 553l-168 -1202h-154l168 1200l-629 -551z" />
<glyph unicode="&#x2192;" horiz-adv-x="1830" d="M248 649l22 154h1293l-482 565l109 86l625 -729l-830 -727l-96 102l627 549h-1268z" />
<glyph unicode="&#x2193;" horiz-adv-x="1699" d="M219 705l115 98l473 -555l168 1206h153l-163 -1180l616 543l94 -112l-831 -728z" />
<glyph unicode="&#x2202;" horiz-adv-x="1224" d="M150 330q0 241 153 394t402 153q185 0 321 -97q27 149 27 236q0 56 -7.5 104t-26 93t-47 76.5t-72.5 50t-101 18.5q-60 0 -117.5 -17.5t-97 -42t-70 -49t-44.5 -41.5l-15 -18l-33 143q6 6 18.5 15.5t52.5 34.5t84 44t112.5 34.5t137.5 15.5q92 0 163.5 -26.5t117.5 -71 t76 -107.5t42.5 -131t12.5 -146q0 -75 -9.5 -159.5t-33 -185t-59.5 -194t-94.5 -182t-131 -153.5t-175 -104.5t-222.5 -39.5q-180 0 -272 96.5t-92 256.5zM340 336q0 -46 10 -85.5t32 -75t63 -56.5t98 -21q78 0 145.5 34t115.5 88t88 129.5t65 149.5t44 158 q-130 103 -286 103q-90 0 -160.5 -34t-109.5 -82.5t-64 -110.5t-33 -109.5t-8 -87.5z" />
<glyph unicode="&#x2206;" horiz-adv-x="1527" d="M106 0l762 1454h201l350 -1454h-1313zM356 156h858l-272 1110z" />
<glyph unicode="&#x220f;" horiz-adv-x="1644" d="M279 1294l22 160h1452l-22 -160h-306l-217 -1540h-180l217 1540h-481l-217 -1540h-180l217 1540h-305z" />
<glyph unicode="&#x2211;" horiz-adv-x="1204" d="M106 -246l23 158l623 692l-428 692l22 158h922l-23 -156h-708l428 -694l-623 -694h709l-23 -156h-922z" />
<glyph unicode="&#x221a;" horiz-adv-x="1622" d="M190 754l426 137l201 -1000l791 1665h180l-868 -1804h-244l-201 944l-262 -88z" />
<glyph unicode="&#x221e;" horiz-adv-x="1654" d="M203 633q0 108 55.5 191.5t138.5 125t174 41.5q189 0 365 -223q238 223 422 223q122 0 202 -79t80 -201q0 -82 -32.5 -150.5t-85.5 -111.5t-118 -67t-132 -24q-62 0 -121.5 21.5t-106 56t-80 69.5t-57.5 70q-90 -92 -199.5 -154.5t-222.5 -62.5q-120 0 -201 74.5 t-81 200.5zM340 649q0 -73 47.5 -117.5t118.5 -44.5q143 0 330 187q-142 184 -283 184q-90 0 -151.5 -61.5t-61.5 -147.5zM1010 674q53 -78 123.5 -132.5t150.5 -54.5q89 0 155 58.5t66 152.5q0 73 -48 117.5t-120 44.5q-144 -12 -327 -186z" />
<glyph unicode="&#x222b;" horiz-adv-x="956" d="M12 -410l49 146q1 0 18 -8t44.5 -14.5t60.5 -6.5q87 0 126.5 47.5t51.5 136.5l175 1246q47 340 356 340q51 0 95 -9.5t62 -19.5l19 -10l-49 -146q-1 0 -18 8t-44.5 14.5t-60.5 6.5q-87 0 -126.5 -47.5t-51.5 -136.5l-174 -1246q-47 -340 -359 -340q-50 0 -93.5 9.5 t-62.5 19.5z" />
<glyph unicode="&#x2248;" horiz-adv-x="1148" d="M203 397q5 6 13.5 16t36.5 35t58.5 44t77 35t92.5 16q47 0 93.5 -17.5t77.5 -38t71 -38t76 -17.5q33 0 66.5 11.5t58 28t44.5 32.5t30 28l10 11l53 -97q-5 -6 -13.5 -15.5t-36.5 -34.5t-58.5 -44.5t-76.5 -35t-92 -15.5q-47 0 -92.5 17.5t-76 38t-71 38t-77.5 17.5 q-51 0 -103.5 -28t-79.5 -56l-26 -27zM258 784q5 6 13 15.5t36.5 34.5t58.5 44t76.5 34.5t92.5 15.5q47 0 93.5 -17.5t78 -38t71.5 -38t76 -17.5q33 0 66.5 11.5t57.5 27.5t43.5 32.5t29.5 27.5l10 12l55 -94q-5 -6 -13.5 -16t-36.5 -35t-58 -44t-76 -35t-92 -16 q-47 0 -92.5 17.5t-76.5 38t-71.5 38t-77.5 17.5q-32 0 -65.5 -11.5t-58 -27.5t-44.5 -32.5t-30 -27.5l-11 -12z" />
<glyph unicode="&#x2260;" horiz-adv-x="1134" d="M193 317l18 129h258l213 316h-428l18 129h496l176 262l92 -55l-139 -207h215l-18 -129h-283l-213 -316h453l-19 -129h-520l-180 -268l-92 53l143 215h-190z" />
<glyph unicode="&#x2264;" horiz-adv-x="1183" d="M154 0l16 123h850l-16 -123h-850zM248 672l20 137l852 389l37 -125l-727 -334l633 -331l-72 -125z" />
<glyph unicode="&#x2265;" horiz-adv-x="1183" d="M180 0l17 123h850l-17 -123h-850zM233 408l728 331l-633 334l69 125l748 -389l-21 -137l-856 -389z" />
<glyph unicode="&#x25fc;" horiz-adv-x="1136" d="M0 0v1137h1137v-1137h-1137z" />
<glyph unicode="&#xfb06;" horiz-adv-x="1781" d="M137 45l41 145q16 -7 44.5 -16.5t112.5 -26t163 -16.5q135 0 204.5 43t69.5 119q0 30 -12.5 55.5t-29 43t-50.5 37t-58.5 30t-72.5 30.5q-41 17 -59.5 25t-54.5 24.5t-53.5 27t-46 29.5t-43 34.5t-33 38.5t-27 46.5t-15 53.5t-6.5 63q0 71 26.5 128t70.5 93t103.5 59.5 t121.5 33.5t129 10q85 0 178 -14q-28 25 -45 71.5t-17 98.5q0 123 95 204.5t268 81.5q122 0 232.5 -39t160.5 -79l-49 -346h352l-20 -150h-353q-84 -606 -84 -610q-8 -66 -8 -90q0 -78 36.5 -115t127.5 -37q42 0 84.5 7.5t63.5 15.5l22 8l10 -144q-8 -5 -23.5 -11.5 t-68.5 -18t-111 -11.5q-157 0 -240 68.5t-83 228.5q0 55 8 107l143 1020q-3 3 -27 12t-76.5 20t-107.5 11q-102 0 -161.5 -42t-59.5 -130q0 -52 27.5 -102.5t77.5 -67.5l-47 -152q-16 6 -44 14.5t-107 22.5t-148 14q-44 0 -88.5 -7.5t-89.5 -24.5t-73 -51t-28 -80 q0 -20 6.5 -38t14 -30.5t27.5 -26.5t31.5 -21.5t42.5 -21t44.5 -18.5t52.5 -20q45 -17 72 -28t67.5 -31t65.5 -38t54 -45.5t45 -57t27 -69.5t11 -86q0 -85 -34 -149.5t-95.5 -103.5t-142 -58t-178.5 -19q-92 0 -182 16.5t-135.5 32t-45.5 19.5z" />
<glyph horiz-adv-x="1177" d="M94 -389l47 149q12 -6 36.5 -15t116.5 -24.5t202 -15.5q374 0 374 197q0 34 -12.5 59t-27.5 37.5t-44 21t-46.5 11t-49.5 4.5l-311 20q-102 7 -149.5 61t-47.5 126q0 129 146 229q-121 91 -121 256q0 190 134.5 309t350.5 119q152 0 250 -61q53 51 133 92t174 41l54 -4 l-23 -162q-14 2 -45 2q-116 0 -209 -41q72 -91 72 -217q0 -187 -135 -301.5t-347 -114.5q-99 0 -184 29q-76 -58 -76 -121q0 -66 95 -72l282 -18q324 -21 324 -281q0 -174 -137 -274.5t-431 -100.5q-112 0 -210.5 15t-141.5 30zM387 739q0 -103 62 -155t176 -52 q137 0 215 70.5t78 196.5q0 213 -232 213q-148 0 -223.5 -79t-75.5 -194z" />
<glyph horiz-adv-x="1159" d="M10 -414l35 142q57 -25 143 -25q100 0 174.5 65t155.5 232h-76l-229 1133h182l193 -990l465 990h190l-536 -1121q-39 -81 -69.5 -137t-67.5 -112t-74 -92t-82.5 -65t-98.5 -42t-116 -13q-53 0 -100 8.5t-68 17.5z" />
<glyph horiz-adv-x="1177" d="M94 -389l47 149q12 -6 36.5 -15t116.5 -24.5t202 -15.5q374 0 374 197q0 34 -12.5 59t-27.5 37.5t-44 21t-46.5 11t-49.5 4.5l-311 20q-102 7 -149.5 61t-47.5 126q0 129 146 229q-121 91 -121 256q0 190 134.5 309t350.5 119q152 0 250 -61q53 51 133 92t174 41l54 -4 l-23 -162q-14 2 -45 2q-116 0 -209 -41q72 -91 72 -217q0 -187 -135 -301.5t-347 -114.5q-99 0 -184 29q-76 -58 -76 -121q0 -66 95 -72l282 -18q324 -21 324 -281q0 -174 -137 -274.5t-431 -100.5q-112 0 -210.5 15t-141.5 30zM387 739q0 -103 62 -155t176 -52 q137 0 215 70.5t78 196.5q0 213 -232 213q-148 0 -223.5 -79t-75.5 -194zM508 1524v14l108 39q0 -6 0.5 -16.5t8 -37.5t21.5 -47.5t46 -37.5t76 -17t80.5 16t57 39t34 46t18.5 39l5 16l98 -39q-2 -10 -8 -26.5t-30 -58.5t-55.5 -74t-89.5 -58.5t-128 -26.5q-51 0 -92 13.5 t-65.5 35t-42.5 47.5t-25.5 52t-12 47.5t-4.5 34.5z" />
<glyph horiz-adv-x="1132" d="M10 -414l35 142q57 -25 143 -25q100 0 174.5 65t155.5 232h-76l-229 1133h182l193 -990l465 990h190l-536 -1121q-39 -81 -69.5 -137t-67.5 -112t-74 -92t-82.5 -65t-98.5 -42t-116 -13q-53 0 -100 8.5t-68 17.5zM670 1366l336 258l75 -108l-350 -242z" />
<glyph horiz-adv-x="1132" d="M10 -414l35 142q57 -25 143 -25q100 0 174.5 65t155.5 232h-76l-229 1133h182l193 -990l465 990h190l-536 -1121q-39 -81 -69.5 -137t-67.5 -112t-74 -92t-82.5 -65t-98.5 -42t-116 -13q-53 0 -100 8.5t-68 17.5zM469 1417q0 50 30 80.5t83 30.5q41 0 63.5 -21.5 t22.5 -58.5q0 -50 -30.5 -81.5t-82.5 -31.5q-42 0 -64 22t-22 60zM879 1417q0 50 29.5 80.5t82.5 30.5q41 0 62.5 -21.5t21.5 -58.5q0 -50 -30 -81.5t-80 -31.5q-42 0 -64 22t-22 60z" />
<glyph horiz-adv-x="1165" d="M160 0l219 1556h182l-69 -485q152 84 317 84q172 0 258 -86t86 -217q0 -132 -86.5 -228.5t-245.5 -134.5l84 -215q25 -65 56 -97t88 -32q16 0 33 2.5t26 5.5l10 3l-12 -140q-41 -24 -115 -24q-85 0 -143 43.5t-96 140.5l-115 293h-19q-120 0 -208 18l-68 -487h-182z M428 621q74 -9 156 -9q385 0 385 222q0 167 -211 167q-157 0 -287 -81z" />
<glyph horiz-adv-x="532" d="M164 63q0 57 33.5 88t95.5 31q45 0 70.5 -22.5t25.5 -63.5q0 -57 -33.5 -88t-91.5 -31q-100 0 -100 86zM233 281l105 929h194l-153 -929h-146z" />
<glyph horiz-adv-x="1345" d="M131 260l33 125h209l110 440h-209l31 125h211l66 260h149l-65 -260h335l66 260h150l-66 -260h213l-31 -125h-215l-110 -440h215l-33 -125h-213l-66 -260h-149l65 260h-335l-66 -260h-150l66 260h-211zM522 385h336l111 440h-336z" />
<glyph horiz-adv-x="1062" d="M154 70l47 143q14 -14 103 -37.5t185 -28.5l58 414q-61 24 -106.5 48.5t-89.5 62t-67.5 90t-23.5 117.5q0 81 31 143.5t85.5 100t119.5 58.5t143 27l27 187h135l-27 -189q72 -5 140.5 -20.5t101.5 -27.5l33 -13l-52 -139q-109 47 -243 57l-56 -385q47 -18 84 -37 t76 -47.5t64.5 -60.5t42 -78t16.5 -99q0 -149 -99 -243t-278 -111l-24 -174h-136l25 174q-79 5 -158 22t-118 32zM420 885q0 -54 38.5 -90.5t112.5 -67.5l47 334q-93 -12 -145.5 -58t-52.5 -118zM625 154q190 28 190 194q0 98 -139 162z" />
<glyph horiz-adv-x="1527" d="M240 893q0 145 85 242.5t240 97.5q122 -4 184 -74t62 -176q0 -88 -34.5 -163t-108 -125t-172.5 -50q-128 0 -192 70t-64 178zM365 897q0 -70 34.5 -113t98.5 -43q84 0 135 62.5t51 175.5q0 71 -34.5 113t-98.5 45q-86 0 -136 -63t-50 -177zM408 27l786 1206l90 -47 l-786 -1209zM889 225q0 145 85 242.5t240 97.5q122 -4 184 -74t62 -176q0 -88 -34.5 -163t-108 -125t-172.5 -50q-128 0 -192 70t-64 178zM1014 229q0 -70 34.5 -112.5t98.5 -42.5q84 0 135 62t51 175q0 71 -34.5 113t-98.5 45q-86 0 -136 -63t-50 -177z" />
<glyph horiz-adv-x="1347" d="M158 307q0 83 25.5 149t73 112t96.5 76t116 58q-82 109 -82 222q0 144 92.5 226.5t261.5 82.5q136 0 203.5 -65t67.5 -164q0 -69 -23.5 -124.5t-68.5 -95.5t-89.5 -66t-107.5 -54q32 -26 289 -334q101 141 114 313h140q-16 -225 -150 -410l137 -151l-108 -105l-135 146 q-169 -146 -416 -146q-209 0 -322.5 91t-113.5 239zM326 322q0 -96 72 -151.5t194 -55.5q200 0 309 106l-340 383q-53 -23 -89 -44.5t-72.5 -54.5t-55 -79t-18.5 -104zM547 930q0 -92 78 -174q51 21 85 39t70 45.5t54 64.5t18 82q0 53 -33.5 84.5t-97.5 34.5 q-79 0 -126.5 -45t-47.5 -131z" />
<glyph horiz-adv-x="1062" d="M145 -295l43 137q133 -59 299 -59q123 0 189.5 48.5t66.5 137.5q0 32 -14 59t-32 45t-54 36.5t-61 28t-72 26.5q-40 14 -63 22.5t-60 25.5t-58.5 31t-48 37t-41 47t-24.5 57t-10 71q0 94 41 165t100 105q-78 75 -78 188q0 90 35 155.5t97 102t135.5 53.5t160.5 17 q91 0 174 -14.5t120 -29.5l38 -15l-51 -133q-9 5 -42 15.5t-101 22t-136 11.5q-117 0 -185.5 -44t-68.5 -132q0 -29 13.5 -54t31 -42t52 -35t59 -28.5t70.5 -27.5q43 -16 64.5 -24.5t61 -27t61 -33t50 -38.5t43 -48.5t25 -58.5t10.5 -73q0 -171 -133 -268q72 -72 72 -180 q0 -167 -120 -255.5t-323 -88.5q-92 0 -176 16t-122 32zM375 498q0 -64 47.5 -104t134.5 -75q16 -6 58 -22t71.5 -29t54.5 -28q86 52 86 155q0 68 -46.5 109t-133.5 76q-9 4 -75 29t-99 42q-98 -48 -98 -153z" />
<glyph horiz-adv-x="923" d="M178 815q0 73 13.5 132.5t48 114t88.5 91.5t140.5 58.5t199.5 21.5q80 0 149.5 -8.5t98.5 -16.5l30 -8l-129 -919q-7 -50 -21.5 -96t-42.5 -94.5t-65.5 -83t-94.5 -57t-126 -22.5l-74 6l19 138q31 -2 47 -2q25 0 46 4t46 17t44 36t35.5 64t24.5 96l115 817h-113l-82 -592 h-83q-157 0 -235.5 82t-78.5 221z" />
<glyph horiz-adv-x="518" d="M186 449q0 126 21.5 244.5t55.5 207.5t75.5 167t82.5 131.5t75 92t56 56.5l21 18l99 -72q-7 -6 -18 -17.5t-43.5 -52.5t-62 -87.5t-65.5 -122.5t-61.5 -157.5t-43.5 -192t-18 -226.5q0 -96 12.5 -185t30 -147.5t34.5 -103t29 -64.5l13 -20l-119 -72q-7 8 -19 24t-42 72 t-52.5 120.5t-41.5 169t-19 217.5z" />
<glyph horiz-adv-x="677" d="M45 0l580 1210h168l-580 -1210h-168z" />
<glyph horiz-adv-x="473" d="M47 -82q148 153 230.5 401t82.5 490q0 91 -12.5 174t-30 137.5t-35 95.5t-30.5 60l-12 18l118 72q7 -8 19 -22.5t42 -67t52.5 -112.5t41.5 -159t19 -206q0 -262 -103 -525.5t-284 -427.5z" />
<glyph horiz-adv-x="616" d="M156 -123l204 1454h383l-16 -119h-219l-172 -1214h219l-16 -121h-383z" />
<glyph horiz-adv-x="677" d="M225 1210h168l240 -1210h-168z" />
<glyph horiz-adv-x="616" d="M45 -123l16 121h220l172 1214h-220l17 119h383l-205 -1454h-383z" />
<glyph horiz-adv-x="647" d="M201 543l18 125q80 0 107 34.5t39 116.5l43 305q14 105 75 159t183 54h108l-16 -116h-70q-60 0 -84.5 -23.5t-32.5 -79.5l-43 -297q-23 -171 -137 -217q82 -39 82 -155q0 -20 -4 -60l-43 -297q-2 -12 -2 -35q0 -36 19.5 -51.5t70.5 -15.5h70l-17 -117h-108 q-106 0 -153.5 40.5t-47.5 121.5q0 15 4 51l43 305q6 35 6 64q0 45 -24 66.5t-86 21.5z" />
<glyph horiz-adv-x="600" d="M209 -117l201 1428h149l-201 -1428h-149z" />
<glyph horiz-adv-x="647" d="M43 -127l16 117h70q60 0 84.5 23.5t32.5 78.5l41 297q23 170 137 215q-80 34 -80 152q0 40 4 65l41 297q2 12 2 35q0 36 -19.5 52t-70.5 16h-70l17 116h108q106 0 153.5 -40.5t47.5 -120.5q0 -16 -4 -52l-43 -305q-6 -35 -6 -61q0 -47 24.5 -68.5t87.5 -21.5l-18 -125 q-80 0 -108.5 -35.5t-38.5 -116.5l-43 -305q-14 -106 -74 -159.5t-182 -53.5h-109z" />
<glyph horiz-adv-x="1181" d="M190 420q0 79 7.5 155t26 158t46.5 153.5t73.5 136t103 110.5t137 73t174.5 27q197 0 300 -115t103 -327q0 -137 -17 -254t-57.5 -222t-102.5 -178.5t-157 -116.5t-215 -43q-118 0 -202 32t-131 93.5t-68 139t-21 178.5zM375 418q0 -62 11 -110t37.5 -90t77.5 -64.5 t124 -22.5q65 0 118 25t89 65.5t63 98t42 115.5t24.5 127t12.5 122.5t3 110.5q0 284 -234 284q-67 0 -121.5 -23t-92 -61t-66 -93.5t-45 -112t-26.5 -125t-13.5 -126t-3.5 -120.5z" />
<glyph horiz-adv-x="770" d="M201 1018l350 192h160l-170 -1210h-187l144 1020l-238 -123z" />
<glyph horiz-adv-x="1073" d="M129 0l21 150q32 26 299 243q124 100 193 161t126.5 125t79.5 116t22 110q0 82 -55.5 128t-163.5 46q-88 0 -174 -26.5t-128 -52.5l-42 -27l-47 139q7 5 19.5 13t54.5 29t87.5 37t116 29t142.5 13q182 0 279.5 -90t97.5 -219q0 -65 -19.5 -126t-51.5 -114t-88.5 -114.5 t-114.5 -114t-146 -125.5q-41 -34 -123 -100t-94 -76h532l-22 -154h-801z" />
<glyph horiz-adv-x="1046" d="M119 55l53 138q12 -7 35 -17.5t96.5 -27.5t149.5 -17q78 0 138 12.5t108 40t73 77.5t25 120q0 99 -77.5 141.5t-223.5 42.5l-113 -2l20 148q68 -4 125 -4q161 0 240.5 58t79.5 165q0 73 -57 111t-185 38q-84 0 -158.5 -15.5t-107.5 -30.5l-33 -15l-39 139q6 3 16.5 8 t47 18.5t76.5 23.5t103 18t128 8q201 0 294 -77t93 -202q0 -65 -20.5 -118.5t-56.5 -89.5t-72.5 -59.5t-79.5 -39.5q82 -27 133 -92t51 -164q0 -203 -131.5 -308.5t-390.5 -105.5q-66 0 -125.5 8t-97 19.5t-65.5 23t-40 19.5z" />
<glyph horiz-adv-x="1083" d="M121 270l18 154l672 786h186l-110 -786h176l-23 -154h-176l-37 -270h-184l37 270h-559zM319 424h383l76 539z" />
<glyph horiz-adv-x="1073" d="M121 55l53 135q11 -7 33.5 -16.5t99.5 -26t164 -16.5q178 0 269 77.5t91 217.5q0 215 -274 215q-70 0 -145 -12.5t-114 -24.5l-40 -12l125 618h670l-23 -153h-495l-56 -279q56 15 144 15q183 0 290 -92.5t107 -256.5q0 -98 -33.5 -182t-98 -148t-169.5 -100.5t-240 -36.5 q-69 0 -131.5 8t-102 19.5t-69 23t-42.5 19.5z" />
<glyph horiz-adv-x="1114" d="M186 461q0 89 13.5 177t42 176t77.5 162.5t113.5 132.5t156.5 91t202 33q84 0 158.5 -18.5t107.5 -36.5l33 -19l-54 -137q-11 6 -30.5 15t-80.5 24.5t-122 15.5q-92 0 -164 -30.5t-119.5 -86t-77.5 -121t-47 -147.5q132 72 293 72q181 0 278 -93.5t97 -250.5 q0 -86 -30 -164.5t-87 -141t-149 -100t-205 -37.5q-406 0 -406 484zM369 412q0 -64 9.5 -110.5t33.5 -87.5t71 -62t117 -21q62 0 111.5 17t81.5 44.5t54 64.5t31 75t9 78q0 41 -10.5 74.5t-35.5 63.5t-72.5 47t-115.5 17q-152 0 -280 -82q-4 -41 -4 -118z" />
<glyph horiz-adv-x="962" d="M242 1057l22 153h778l-20 -133l-580 -1077h-194l571 1057h-577z" />
<glyph horiz-adv-x="1161" d="M156 301q0 69 25 130.5t65 103.5t76.5 69t72.5 43q-46 37 -79 100t-33 146q0 153 122 246.5t318 93.5q70 0 135.5 -13t129.5 -43t103 -89t39 -140q0 -106 -59.5 -188.5t-134.5 -122.5q82 -41 124 -100.5t42 -167.5q0 -189 -131.5 -290.5t-370.5 -101.5q-215 0 -329.5 85 t-114.5 239zM344 326q0 -203 264 -203q135 0 219 57.5t84 163.5q0 41 -15 71t-37.5 48t-62.5 33.5t-77 25t-94 26t-101 32.5q-85 -36 -132.5 -103.5t-47.5 -150.5zM463 895q0 -22 4 -39.5t14.5 -32.5t20 -26.5t31 -22.5t36.5 -18t46.5 -17t50.5 -16t60 -17t65 -18 q63 30 111 91.5t48 138.5q0 88 -66 132t-165 44q-110 0 -183 -53.5t-73 -145.5z" />
<glyph horiz-adv-x="1114" d="M190 51l54 137q11 -6 30.5 -15t80.5 -24.5t122 -15.5q324 0 408 385q-136 -72 -293 -72q-181 0 -278 94t-97 251q0 68 18.5 132t57.5 120.5t94 98.5t132.5 66.5t168.5 24.5q406 0 406 -483q0 -108 -19 -212.5t-64 -207.5t-112.5 -180t-173 -125t-236.5 -48 q-84 0 -158.5 18.5t-107.5 36.5zM393 801q0 -41 10.5 -74.5t35.5 -64t73 -47.5t115 -17q144 0 280 80q4 82 4 121q0 64 -9.5 110.5t-33.5 87t-71 61.5t-117 21q-76 0 -134 -25t-90 -67t-47.5 -88.5t-15.5 -97.5z" />
<glyph horiz-adv-x="997" d="M252 1153l17 8.5t49 19.5t80 24.5t107 19t132 8.5q181 0 277 -75t96 -197q0 -84 -25.5 -145t-66.5 -95t-90.5 -59.5t-98.5 -47t-90 -48t-66.5 -72.5t-25.5 -111v-41h-172q-4 33 -4 74q0 76 25 132.5t65 89.5t88.5 58t97 46.5t88.5 45.5t65 63t25 93q0 65 -55 101t-166 36 q-82 0 -164 -17.5t-123 -34.5l-41 -17zM311 63q0 57 33.5 88t93.5 31q46 0 72.5 -22.5t26.5 -63.5q0 -57 -34.5 -88t-92.5 -31q-99 0 -99 86z" />
<glyph horiz-adv-x="1253" d="M63 0l617 1210h231l279 -1210h-189l-69 326h-516l-160 -326h-193zM483 465h420l-125 598z" />
<glyph horiz-adv-x="1191" d="M170 16l166 1178q196 39 401 39q235 0 341 -71t106 -206q0 -272 -262 -333q111 -28 166 -89t55 -161q0 -95 -31.5 -166t-100 -123.5t-182 -79.5t-272.5 -27q-84 0 -180.5 9.5t-151.5 19.5zM367 131q89 -12 206 -12q216 0 302 58t86 188q0 58 -24.5 96t-72.5 56t-98 24 t-123 6h-217zM444 682h197q65 0 113 4.5t96.5 19.5t79 40.5t50 70.5t19.5 107q0 89 -65 128.5t-207 39.5q-67 0 -227 -13z" />
<glyph horiz-adv-x="1077" d="M176 506q0 117 24 223t75 198.5t124.5 160t178.5 106.5t231 39q86 0 166 -17t117 -34l38 -17l-61 -131q-13 5 -36.5 13t-91 21t-130.5 13q-83 0 -151.5 -24.5t-114.5 -63t-80.5 -92t-54 -106t-31.5 -111.5t-15.5 -101.5t-3.5 -82.5q0 -371 357 -371q58 0 118 9.5t91 18.5 l30 9l23 -137q-12 -6 -35.5 -14.5t-99.5 -23t-156 -14.5q-512 0 -512 529z" />
<glyph horiz-adv-x="1253" d="M170 14l166 1182q169 37 362 37q284 0 417.5 -119.5t133.5 -363.5q0 -188 -40 -328t-125 -241t-225 -152.5t-335 -51.5q-87 0 -175.5 9.5t-133.5 18.5zM371 137q86 -8 178 -8q97 0 171.5 15.5t142 57t111 109t68.5 175t25 251.5q0 190 -91.5 267t-283.5 77 q-80 0 -190 -12z" />
<glyph horiz-adv-x="1101" d="M209 334q0 42 8 98l109 778h819l-23 -151h-635l-51 -365h557l-18 -139h-557l-21 -141q-6 -41 -6 -72q0 -117 77 -165t247 -48q73 0 144 8.5t105 16.5l35 8l-22 -150q-109 -35 -299 -35q-242 0 -355.5 89.5t-113.5 267.5z" />
<glyph horiz-adv-x="1064" d="M168 0l170 1210h805l-21 -151h-622l-56 -385h545l-20 -146h-545l-74 -528h-182z" />
<glyph horiz-adv-x="1179" d="M176 492q0 154 40 285.5t120 234.5t211 162t301 59q88 0 173 -15.5t126 -31.5l41 -15l-55 -137q-132 47 -279 47q-104 0 -188.5 -31t-141 -84.5t-94.5 -128t-55 -158.5t-17 -179q0 -58 9.5 -108t34.5 -100t63.5 -85t102 -56.5t145.5 -21.5q85 0 170 16l67 478h174 l-82 -588q-169 -58 -346 -58q-110 0 -198 25.5t-147.5 71t-99 110.5t-57.5 141.5t-18 166.5z" />
<glyph horiz-adv-x="1314" d="M168 0l170 1210h182l-74 -524h615l74 524h182l-170 -1210h-182l73 530h-614l-74 -530h-182z" />
<glyph horiz-adv-x="522" d="M170 0l170 1210h182l-170 -1210h-182z" />
<glyph horiz-adv-x="774" d="M78 35l51 131q64 -37 158 -37q89 0 138 49.5t67 173.5l120 858h183l-119 -852q-12 -88 -35.5 -153.5t-65.5 -119t-109.5 -81t-160.5 -27.5q-68 0 -124.5 14.5t-79.5 28.5z" />
<glyph horiz-adv-x="1142" d="M168 0l170 1210h182l-76 -540l584 540h225l-637 -589l265 -363q40 -56 80 -84.5t94 -28.5q15 0 29 2.5t22.5 4.5t9.5 2l-20 -142q-41 -20 -107 -20q-84 0 -141.5 42.5t-124.5 135.5l-293 403l-80 -573h-182z" />
<glyph horiz-adv-x="970" d="M213 324q0 46 8 102l111 784h180l-111 -792q-6 -44 -6 -82q0 -111 66.5 -159t226.5 -48q57 0 118 8.5t94 16.5l32 8l-23 -150q-7 -4 -23 -10t-79 -15.5t-143 -9.5q-236 0 -343.5 87.5t-107.5 259.5z" />
<glyph horiz-adv-x="1531" d="M121 0l272 1210h232l196 -813l428 813h232l-68 -1210h-178l49 842l16 159l-69 -155l-367 -707h-151l-170 705l-25 157l-29 -155l-188 -846h-180z" />
<glyph horiz-adv-x="1312" d="M168 0l170 1210h229l445 -970l8 131l119 839h174l-170 -1210h-221l-455 981l-4 -131l-119 -850h-176z" />
<glyph horiz-adv-x="1259" d="M176 465q0 163 36.5 301t108 243t187.5 164.5t266 59.5q224 0 351.5 -123.5t127.5 -361.5q0 -164 -37 -302.5t-109 -244t-189 -165t-267 -59.5q-123 0 -215.5 36t-148.5 102t-83.5 153.5t-27.5 196.5zM360 473q0 -344 306 -344q92 0 165 41.5t116.5 105t72 147.5t39 161 t10.5 153q0 73 -16 133t-50.5 108.5t-94.5 75.5t-142 27q-69 0 -127 -22t-99 -58t-73 -86.5t-52 -105t-32.5 -115.5t-17.5 -114.5t-5 -106.5z" />
<glyph horiz-adv-x="1167" d="M168 0l168 1198q205 35 391 35q245 0 358 -93.5t113 -254.5q0 -242 -155.5 -359.5t-448.5 -117.5q-94 0 -184 12l-60 -420h-182zM430 565q75 -6 170 -6q205 0 308.5 70.5t103.5 236.5q0 119 -79 167t-235 48q-50 0 -198 -10z" />
<glyph horiz-adv-x="1259" d="M176 465q0 163 36.5 301t108 243t187.5 164.5t266 59.5q224 0 351.5 -123.5t127.5 -361.5q0 -164 -37 -302.5t-109 -244t-189 -165t-267 -59.5q-123 0 -215.5 36t-148.5 102t-83.5 153.5t-27.5 196.5zM360 473q0 -344 306 -344q92 0 165 41.5t116.5 105t72 147.5t39 161 t10.5 153q0 73 -16 133t-50.5 108.5t-94.5 75.5t-142 27q-69 0 -127 -22t-99 -58t-73 -86.5t-52 -105t-32.5 -115.5t-17.5 -114.5t-5 -106.5zM551 -264l24 135l519 -53l-29 -150z" />
<glyph horiz-adv-x="1226" d="M168 0l168 1198q194 35 389 35q477 0 477 -326q0 -319 -332 -399l115 -264q23 -52 49 -75.5t68 -23.5q11 0 22.5 1.5t17.5 3.5l5 2l-21 -140q-37 -20 -96 -20q-37 0 -68.5 11.5t-52 28t-39.5 44t-29.5 48.5t-23.5 52l-131 307h-61q-103 0 -205 13l-70 -496h-182zM440 643 q46 -8 203 -8q65 0 114.5 5t101.5 21.5t85.5 44t54.5 76.5t21 115q0 104 -75 144t-232 40q-99 0 -213 -12z" />
<glyph horiz-adv-x="1087" d="M168 72l57 141l15 -9t42 -20.5t67 -25.5t88.5 -20t107.5 -9q138 0 216.5 54.5t78.5 148.5q0 40 -13.5 68.5t-50.5 54t-73.5 42t-110.5 46.5q-53 21 -81 33t-72.5 34t-68.5 39.5t-54.5 45.5t-45.5 57t-26 68.5t-11 84.5q0 88 36.5 153.5t101.5 102.5t145 54.5t176 17.5 q101 0 197 -19.5t140 -35.5l44 -17l-53 -145q-16 7 -45.5 18t-115.5 29t-167 18q-131 0 -203.5 -43.5t-72.5 -126.5q0 -68 53.5 -107t204.5 -99q96 -39 154.5 -70t106.5 -73t68.5 -95t20.5 -125q0 -180 -125.5 -272.5t-347.5 -92.5q-72 0 -137.5 10t-108.5 23.5t-75.5 27.5 t-47.5 24z" />
<glyph horiz-adv-x="1085" d="M213 1057l23 153h956l-23 -153h-387l-149 -1057h-182l149 1057h-387z" />
<glyph horiz-adv-x="1304" d="M215 365q0 50 8 104l105 741h182l-104 -745q-7 -58 -7 -90q0 -76 22 -127.5t63 -76t83 -33.5t99 -9q42 0 77 5t75 17t72.5 36.5t61.5 60t49.5 91t30.5 126.5l105 745h182l-105 -741q-37 -265 -173 -378.5t-386 -113.5q-216 0 -328 100t-112 288z" />
<glyph horiz-adv-x="1200" d="M233 1210h191l168 -870l26 -193l78 193l412 870h199l-588 -1210h-236z" />
<glyph horiz-adv-x="1726" d="M233 1210h193l106 -874l9 -156l55 156l342 817h170l115 -819l8 -156l53 156l352 876h197l-496 -1210h-229l-113 778l-6 121l-41 -121l-327 -778h-230z" />
<glyph horiz-adv-x="1175" d="M61 0l494 612l-324 598h201l248 -487l389 487h215l-493 -600l323 -610h-190l-258 485l-392 -485h-213z" />
<glyph horiz-adv-x="1138" d="M221 1210h195l235 -600l408 600h198l-530 -749l-65 -461h-183l64 459z" />
<glyph horiz-adv-x="1122" d="M125 0l22 154l762 903h-624l20 153h846l-23 -161l-755 -895h647l-23 -154h-872z" />
<glyph horiz-adv-x="1253" d="M63 0l617 1210h231l279 -1210h-189l-69 326h-516l-160 -326h-193zM483 465h420l-125 598zM555 1540l107 109l264 -258l-86 -93z" />
<glyph horiz-adv-x="1253" d="M63 0l617 1210h231l279 -1210h-189l-69 326h-516l-160 -326h-193zM483 465h420l-125 598zM707 1391l335 258l74 -109l-350 -242z" />
<glyph horiz-adv-x="1253" d="M63 0l617 1210h231l279 -1210h-189l-69 326h-516l-160 -326h-193zM483 465h420l-125 598zM530 1382l328 258l256 -258l-84 -82l-196 173l-244 -173z" />
<glyph horiz-adv-x="1253" d="M63 0l617 1210h231l279 -1210h-189l-69 326h-516l-160 -326h-193zM483 465h420l-125 598zM514 1378q2 7 6.5 19t21.5 43t38.5 54.5t59 42.5t81.5 19q48 0 88 -25t73 -50t64 -25q34 0 61.5 25t38.5 50l11 25l84 -53q-2 -7 -6.5 -19t-22 -43t-39 -54.5t-59 -42.5t-80.5 -19 q-37 0 -70 15.5t-54 34.5t-47.5 34.5t-51.5 15.5q-34 0 -61.5 -25t-38.5 -50l-11 -25z" />
<glyph horiz-adv-x="1253" d="M63 0l617 1210h231l279 -1210h-189l-69 326h-516l-160 -326h-193zM483 465h420l-125 598zM532 1442q0 50 30.5 81t82.5 31q41 0 63.5 -22t22.5 -59q0 -50 -31 -81.5t-84 -31.5q-40 0 -62 22t-22 60zM940 1442q0 50 31 81t84 31q39 0 61.5 -22t22.5 -59q0 -50 -30.5 -81.5 t-82.5 -31.5q-42 0 -64 22t-22 60z" />
<glyph horiz-adv-x="1253" d="M63 0l617 1210h231l279 -1210h-189l-69 326h-516l-160 -326h-193zM483 465h420l-125 598zM621 1466q0 103 68.5 165.5t172.5 62.5q84 0 134.5 -45.5t50.5 -124.5q0 -103 -68 -163.5t-172 -60.5q-85 0 -135.5 44t-50.5 122zM729 1479q0 -41 23.5 -64.5t66.5 -23.5 q54 0 86.5 32.5t32.5 89.5q0 42 -23.5 66.5t-64.5 24.5q-54 0 -87.5 -34t-33.5 -91z" />
<glyph horiz-adv-x="1738" d="M63 0l785 1210h936l-21 -149h-635l-51 -367h557l-20 -137h-557l-21 -143q-6 -37 -6 -70q0 -118 77.5 -166.5t248.5 -48.5q73 0 144 8.5t106 16.5l34 8l-24 -150q-109 -35 -299 -35q-461 0 -461 336v9h-391l-209 -322h-193zM545 461h317l86 620z" />
<glyph horiz-adv-x="1077" d="M176 506q0 117 24 223t75 198.5t124.5 160t178.5 106.5t231 39q86 0 166 -17t117 -34l38 -17l-61 -131q-13 5 -36.5 13t-91 21t-130.5 13q-83 0 -151.5 -24.5t-114.5 -63t-80.5 -92t-54 -106t-31.5 -111.5t-15.5 -101.5t-3.5 -82.5q0 -371 357 -371q58 0 118 9.5t91 18.5 l30 9l23 -137q-12 -6 -35.5 -14.5t-99.5 -23t-156 -14.5h-18l-35 -92q16 2 49 2q78 0 127 -33.5t49 -103.5q0 -89 -66.5 -144t-199.5 -55q-55 0 -101.5 10.5t-65.5 20.5l-19 10l38 99q56 -35 140 -35q137 0 137 92q0 72 -115 72q-70 0 -127 -19l74 187q-379 63 -379 518z " />
<glyph horiz-adv-x="1253" d="M131 541l19 129h112l74 526q169 37 362 37q284 0 417.5 -119.5t133.5 -363.5q0 -188 -40 -328t-125 -241t-225 -152.5t-335 -51.5q-87 0 -175.5 9.5t-133.5 18.5l-45 9l74 527h-113zM371 137q86 -8 178 -8q97 0 171.5 15.5t142 57t111 109t68.5 175t25 251.5 q0 190 -91.5 267t-283.5 77q-80 0 -190 -12l-58 -399h349l-19 -129h-348z" />
<glyph horiz-adv-x="1101" d="M209 334q0 42 8 98l109 778h819l-23 -151h-635l-51 -365h557l-18 -139h-557l-21 -141q-6 -41 -6 -72q0 -117 77 -165t247 -48q73 0 144 8.5t105 16.5l35 8l-22 -150q-109 -35 -299 -35q-242 0 -355.5 89.5t-113.5 267.5zM535 1556l104 109l264 -258l-86 -92z" />
<glyph horiz-adv-x="1101" d="M209 334q0 42 8 98l109 778h819l-23 -151h-635l-51 -365h557l-18 -139h-557l-21 -141q-6 -41 -6 -72q0 -117 77 -165t247 -48q73 0 144 8.5t105 16.5l35 8l-22 -150q-109 -35 -299 -35q-242 0 -355.5 89.5t-113.5 267.5zM653 1407l336 258l74 -109l-350 -241z" />
<glyph horiz-adv-x="1101" d="M209 334q0 42 8 98l109 778h819l-23 -151h-635l-51 -365h557l-18 -139h-557l-21 -141q-6 -41 -6 -72q0 -117 77 -165t247 -48q73 0 144 8.5t105 16.5l35 8l-22 -150q-109 -35 -299 -35q-242 0 -355.5 89.5t-113.5 267.5zM479 1399l328 258l256 -258l-84 -84l-197 174 l-243 -174z" />
<glyph horiz-adv-x="1101" d="M209 334q0 42 8 98l109 778h819l-23 -151h-635l-51 -365h557l-18 -139h-557l-21 -141q-6 -41 -6 -72q0 -117 77 -165t247 -48q73 0 144 8.5t105 16.5l35 8l-22 -150q-109 -35 -299 -35q-242 0 -355.5 89.5t-113.5 267.5zM477 1458q0 50 29.5 80.5t81.5 30.5 q41 0 63.5 -21.5t22.5 -58.5q0 -50 -31 -81.5t-84 -31.5q-39 0 -60.5 22.5t-21.5 59.5zM885 1460q0 50 30 79.5t82 29.5q39 0 61.5 -21.5t22.5 -58.5q0 -50 -30 -81.5t-82 -31.5q-41 0 -62.5 22.5t-21.5 61.5z" />
<glyph horiz-adv-x="1187" d="M176 492q0 154 40 285.5t120 234.5t211 162t301 59q88 0 173 -15.5t126 -31.5l41 -15l-55 -137q-132 47 -279 47q-104 0 -188.5 -31t-141 -84.5t-94.5 -128t-55 -158.5t-17 -179q0 -58 9.5 -108t34.5 -100t63.5 -85t102 -56.5t145.5 -21.5q85 0 170 16l67 478h174 l-82 -588q-169 -58 -346 -58q-110 0 -198 25.5t-147.5 71t-99 110.5t-57.5 141.5t-18 166.5zM590 1572v13l108 39q0 -6 0.5 -16.5t8 -37.5t21.5 -47.5t46 -37.5t76 -17t80.5 16t56.5 39t34 46t19 39l4 16l99 -39q-3 -10 -8.5 -26.5t-29.5 -59t-56 -75t-90 -59t-128 -26.5 q-51 0 -92 13.5t-65.5 35.5t-42 48t-25.5 52t-12 48t-4 36z" />
<glyph horiz-adv-x="522" d="M170 0l170 1210h182l-170 -1210h-182zM207 1561l106 108l262 -258l-83 -92z" />
<glyph horiz-adv-x="522" d="M170 0l170 1210h182l-170 -1210h-182zM358 1411l336 258l74 -108l-350 -242z" />
<glyph horiz-adv-x="522" d="M164 1389l330 258l254 -258l-84 -84l-195 174l-246 -174zM170 0l170 1210h182l-170 -1210h-182z" />
<glyph horiz-adv-x="522" d="M166 1462q0 51 30 82t83 31q40 0 61.5 -22t21.5 -60q0 -51 -29.5 -82t-80.5 -31q-42 0 -64 22t-22 60zM170 0l170 1210h182l-170 -1210h-182zM575 1462q0 50 29.5 81.5t81.5 31.5q41 0 63.5 -22.5t22.5 -59.5q0 -50 -31 -81.5t-82 -31.5q-40 0 -62 22t-22 60z" />
<glyph horiz-adv-x="522" d="M170 0l170 1210h182l-170 -1210h-182zM360 1464q0 54 34 87.5t91 33.5q43 0 68 -24.5t25 -65.5q0 -53 -33.5 -86t-89.5 -33q-45 0 -70 24t-25 64z" />
<glyph horiz-adv-x="1312" d="M168 0l170 1210h229l445 -970l8 131l119 839h174l-170 -1210h-221l-455 981l-4 -131l-119 -850h-176zM559 1389q1 4 3.5 10.5t11 25t19 35t29 37t38.5 35.5t49 25t61 10q38 0 72 -16t54.5 -34.5t47 -34.5t51.5 -16q34 0 61 25t38 51l10 25l86 -54q-2 -7 -6.5 -19 t-22.5 -43t-40 -54.5t-59.5 -42.5t-80.5 -19q-36 0 -68.5 16t-53 34.5t-47.5 34.5t-52 16q-35 0 -63 -25t-39 -51l-11 -25z" />
<glyph horiz-adv-x="1259" d="M176 465q0 163 36.5 301t108 243t187.5 164.5t266 59.5q224 0 351.5 -123.5t127.5 -361.5q0 -164 -37 -302.5t-109 -244t-189 -165t-267 -59.5q-123 0 -215.5 36t-148.5 102t-83.5 153.5t-27.5 196.5zM360 473q0 -344 306 -344q92 0 165 41.5t116.5 105t72 147.5t39 161 t10.5 153q0 73 -16 133t-50.5 108.5t-94.5 75.5t-142 27q-69 0 -127 -22t-99 -58t-73 -86.5t-52 -105t-32.5 -115.5t-17.5 -114.5t-5 -106.5zM571 1561l105 108l264 -258l-86 -92z" />
<glyph horiz-adv-x="1259" d="M176 465q0 163 36.5 301t108 243t187.5 164.5t266 59.5q224 0 351.5 -123.5t127.5 -361.5q0 -164 -37 -302.5t-109 -244t-189 -165t-267 -59.5q-123 0 -215.5 36t-148.5 102t-83.5 153.5t-27.5 196.5zM360 473q0 -344 306 -344q92 0 165 41.5t116.5 105t72 147.5t39 161 t10.5 153q0 73 -16 133t-50.5 108.5t-94.5 75.5t-142 27q-69 0 -127 -22t-99 -58t-73 -86.5t-52 -105t-32.5 -115.5t-17.5 -114.5t-5 -106.5zM709 1411l335 258l74 -108l-350 -242z" />
<glyph horiz-adv-x="1259" d="M176 465q0 163 36.5 301t108 243t187.5 164.5t266 59.5q224 0 351.5 -123.5t127.5 -361.5q0 -164 -37 -302.5t-109 -244t-189 -165t-267 -59.5q-123 0 -215.5 36t-148.5 102t-83.5 153.5t-27.5 196.5zM360 473q0 -344 306 -344q92 0 165 41.5t116.5 105t72 147.5t39 161 t10.5 153q0 73 -16 133t-50.5 108.5t-94.5 75.5t-142 27q-69 0 -127 -22t-99 -58t-73 -86.5t-52 -105t-32.5 -115.5t-17.5 -114.5t-5 -106.5zM535 1403l329 258l254 -258l-84 -82l-194 172l-246 -172z" />
<glyph horiz-adv-x="1259" d="M176 465q0 163 36.5 301t108 243t187.5 164.5t266 59.5q224 0 351.5 -123.5t127.5 -361.5q0 -164 -37 -302.5t-109 -244t-189 -165t-267 -59.5q-123 0 -215.5 36t-148.5 102t-83.5 153.5t-27.5 196.5zM360 473q0 -344 306 -344q92 0 165 41.5t116.5 105t72 147.5t39 161 t10.5 153q0 73 -16 133t-50.5 108.5t-94.5 75.5t-142 27q-69 0 -127 -22t-99 -58t-73 -86.5t-52 -105t-32.5 -115.5t-17.5 -114.5t-5 -106.5zM520 1399q2 7 6.5 19t21.5 43t38.5 54.5t59 42.5t81.5 19q48 0 88 -25t73 -50t64 -25q34 0 61 25t37 50l11 25l88 -53 q-1 -4 -3.5 -10.5t-11.5 -25t-19.5 -35t-28.5 -37t-38 -35.5t-48.5 -25t-59.5 -10q-37 0 -70 15.5t-54 34.5t-47.5 34.5t-51.5 15.5q-35 0 -62.5 -25t-38.5 -50l-10 -25z" />
<glyph horiz-adv-x="1259" d="M176 465q0 163 36.5 301t108 243t187.5 164.5t266 59.5q224 0 351.5 -123.5t127.5 -361.5q0 -164 -37 -302.5t-109 -244t-189 -165t-267 -59.5q-123 0 -215.5 36t-148.5 102t-83.5 153.5t-27.5 196.5zM360 473q0 -344 306 -344q92 0 165 41.5t116.5 105t72 147.5t39 161 t10.5 153q0 73 -16 133t-50.5 108.5t-94.5 75.5t-142 27q-69 0 -127 -22t-99 -58t-73 -86.5t-52 -105t-32.5 -115.5t-17.5 -114.5t-5 -106.5zM535 1462q0 51 29.5 82t82.5 31q40 0 62 -22t22 -60q0 -51 -29.5 -82t-80.5 -31q-42 0 -64 22t-22 60zM942 1464q0 48 31.5 79.5 t81.5 31.5q41 0 63.5 -22.5t22.5 -59.5q0 -50 -31 -81.5t-82 -31.5q-41 0 -63.5 22.5t-22.5 61.5z" />
<glyph horiz-adv-x="1259" d="M176 465q0 163 36.5 301t108 243t187.5 164.5t266 59.5q88 0 172 -23l103 193l131 -57l-105 -197q178 -126 178 -401q0 -164 -37 -302.5t-109 -244t-189 -165t-267 -59.5q-93 0 -180 23l-98 -186l-131 57l100 192q-166 121 -166 402zM360 473q0 -164 68 -248l444 842 q-43 14 -106 14q-69 0 -127 -22t-99 -58t-73 -86.5t-52 -105t-32.5 -115.5t-17.5 -114.5t-5 -106.5zM547 145q56 -16 119 -16q92 0 165 41.5t116.5 105t72 147.5t39 161t10.5 153q0 162 -76 252z" />
<glyph horiz-adv-x="1087" d="M168 72l57 141l15 -9t42 -20.5t67 -25.5t88.5 -20t107.5 -9q138 0 216.5 54.5t78.5 148.5q0 40 -13.5 68.5t-50.5 54t-73.5 42t-110.5 46.5q-53 21 -81 33t-72.5 34t-68.5 39.5t-54.5 45.5t-45.5 57t-26 68.5t-11 84.5q0 88 36.5 153.5t101.5 102.5t145 54.5t176 17.5 q101 0 197 -19.5t140 -35.5l44 -17l-53 -145q-16 7 -45.5 18t-115.5 29t-167 18q-131 0 -203.5 -43.5t-72.5 -126.5q0 -68 53.5 -107t204.5 -99q96 -39 154.5 -70t106.5 -73t68.5 -95t20.5 -125q0 -173 -116 -264.5t-322 -97.5l-35 -95q14 2 43 2q78 0 130 -34t52 -105 q0 -87 -66.5 -142t-199.5 -55q-55 0 -101.5 10.5t-65.5 20.5l-19 10l36 99q63 -35 142 -35q137 0 137 92q0 72 -115 72q-70 0 -127 -19l72 181q-89 7 -164.5 29.5t-106.5 41.5z" />
<glyph horiz-adv-x="1159" d="M168 0l170 1210h182l-26 -184q130 14 217 14q463 0 463 -323q0 -236 -151 -351.5t-433 -115.5q-79 0 -203 8l-37 -258h-182zM408 410q56 -7 186 -7q72 0 126.5 6t107 24t85.5 48.5t53.5 81.5t20.5 121q0 102 -68.5 152.5t-211.5 50.5q-104 0 -234 -17z" />
<glyph horiz-adv-x="1304" d="M215 365q0 50 8 104l105 741h182l-104 -745q-7 -58 -7 -90q0 -76 22 -127.5t63 -76t83 -33.5t99 -9q42 0 77 5t75 17t72.5 36.5t61.5 60t49.5 91t30.5 126.5l105 745h182l-105 -741q-37 -265 -173 -378.5t-386 -113.5q-216 0 -328 100t-112 288zM578 1561l106 108 l264 -258l-86 -92z" />
<glyph horiz-adv-x="1304" d="M215 365q0 50 8 104l105 741h182l-104 -745q-7 -58 -7 -90q0 -76 22 -127.5t63 -76t83 -33.5t99 -9q42 0 77 5t75 17t72.5 36.5t61.5 60t49.5 91t30.5 126.5l105 745h182l-105 -741q-37 -265 -173 -378.5t-386 -113.5q-216 0 -328 100t-112 288zM745 1411l338 258 l74 -108l-350 -242z" />
<glyph horiz-adv-x="1304" d="M215 365q0 50 8 104l105 741h182l-104 -745q-7 -58 -7 -90q0 -76 22 -127.5t63 -76t83 -33.5t99 -9q42 0 77 5t75 17t72.5 36.5t61.5 60t49.5 91t30.5 126.5l105 745h182l-105 -741q-37 -265 -173 -378.5t-386 -113.5q-216 0 -328 100t-112 288zM557 1403l330 258 l254 -258l-84 -82l-195 172l-244 -172z" />
<glyph horiz-adv-x="1304" d="M215 365q0 50 8 104l105 741h182l-104 -745q-7 -58 -7 -90q0 -76 22 -127.5t63 -76t83 -33.5t99 -9q42 0 77 5t75 17t72.5 36.5t61.5 60t49.5 91t30.5 126.5l105 745h182l-105 -741q-37 -265 -173 -378.5t-386 -113.5q-216 0 -328 100t-112 288zM557 1462q0 51 30 82 t83 31q41 0 63.5 -22.5t22.5 -59.5q0 -50 -31 -81.5t-82 -31.5q-42 0 -64 22t-22 60zM967 1462q0 51 29.5 82t82.5 31q40 0 62 -22t22 -60q0 -51 -29.5 -82t-80.5 -31q-42 0 -64 22t-22 60z" />
<glyph horiz-adv-x="1138" d="M221 1210h195l235 -600l408 600h198l-530 -749l-65 -461h-183l64 459zM670 1411l338 258l73 -108l-350 -242z" />
<glyph horiz-adv-x="1138" d="M221 1210h195l235 -600l408 600h198l-530 -749l-65 -461h-183l64 459zM475 1462q0 51 30 82t83 31q41 0 63.5 -22.5t22.5 -59.5q0 -50 -31 -81.5t-82 -31.5q-42 0 -64 22t-22 60zM885 1462q0 51 29.5 82t82.5 31q40 0 62 -22t22 -60q0 -51 -29.5 -82t-80.5 -31 q-42 0 -64 22t-22 60z" />
<glyph horiz-adv-x="2131" d="M168 72l57 141l15 -9t42 -20.5t67 -25.5t88.5 -20t107.5 -9q138 0 216.5 54.5t78.5 148.5q0 40 -13.5 68.5t-50.5 54t-73.5 42t-110.5 46.5q-53 21 -81 33t-72.5 34t-68.5 39.5t-54.5 45.5t-45.5 57t-26 68.5t-11 84.5q0 88 36.5 153.5t101.5 102.5t145 54.5t176 17.5 q101 0 197 -19.5t140 -35.5l44 -17l-53 -145q-16 7 -45.5 18t-115.5 29t-167 18q-131 0 -203.5 -43.5t-72.5 -126.5q0 -68 53.5 -107t204.5 -99q96 -39 154.5 -70t106.5 -73t68.5 -95t20.5 -125q0 -180 -125.5 -272.5t-347.5 -92.5q-72 0 -137.5 10t-108.5 23.5t-75.5 27.5 t-47.5 24zM1212 72l58 141q5 -3 14.5 -9t42 -20.5t67 -25.5t88 -20t107.5 -9q138 0 216.5 54.5t78.5 148.5q0 40 -13.5 68.5t-50.5 54t-73.5 42t-110.5 46.5q-52 21 -80.5 33t-72.5 34t-68.5 39.5t-54.5 45.5t-45 57t-26 68.5t-11 84.5q0 88 36.5 153.5t101.5 102.5 t145 54.5t176 17.5q101 0 197 -19.5t140 -35.5l44 -17l-54 -145q-16 7 -45 18t-115 29t-167 18q-131 0 -204 -43.5t-73 -126.5q0 -68 53.5 -107t204.5 -99q96 -39 154.5 -70t106.5 -73t68.5 -95t20.5 -125q0 -180 -125.5 -272.5t-347.5 -92.5q-72 0 -137.5 10t-108.5 23.5 t-75.5 27.5t-47.5 24z" />
<glyph horiz-adv-x="665" d="M350 1540l105 109l264 -258l-86 -93z" />
<glyph horiz-adv-x="665" d="M338 1391l336 258l74 -109l-351 -242z" />
<glyph horiz-adv-x="843" d="M326 1382l327 258l254 -258l-84 -82l-194 173l-244 -173z" />
<glyph horiz-adv-x="872" d="M326 1378q2 7 6.5 19t21.5 43t38 54.5t58.5 42.5t81.5 19q38 0 72 -15.5t55 -34.5t47.5 -34.5t51.5 -15.5q34 0 61 25t37 50l10 25l86 -53q-2 -7 -6.5 -19t-22.5 -43t-39.5 -54.5t-58.5 -42.5t-80 -19q-37 0 -70 15.5t-54 34.5t-47.5 34.5t-51.5 15.5q-22 0 -41.5 -10.5 t-31.5 -25t-20.5 -29t-12.5 -24.5l-4 -11z" />
<glyph horiz-adv-x="899" d="M350 1442q0 50 31 81t84 31q41 0 63.5 -22t22.5 -59q0 -50 -31.5 -81.5t-83.5 -31.5q-42 0 -64 22t-22 60zM760 1442q0 50 30.5 81t83.5 31q39 0 61.5 -22t22.5 -59q0 -50 -30 -81.5t-82 -31.5q-42 0 -64 22t-22 60z" />
<glyph horiz-adv-x="813" d="M324 1370l16 121h553l-16 -121h-553z" />
<glyph horiz-adv-x="692" d="M342 1466q0 104 68 166t174 62q84 0 134 -45.5t50 -124.5q0 -103 -68 -163.5t-172 -60.5q-86 0 -136 43.5t-50 122.5zM451 1479q0 -41 23.5 -64.5t66.5 -23.5q54 0 86 32.5t32 89.5q0 42 -23.5 66.5t-64.5 24.5q-54 0 -87 -34t-33 -91z" />
<glyph horiz-adv-x="532" d="M168 0l156 930h145l-107 -930h-194zM311 1114q0 57 35 88t94 31q46 0 72.5 -22.5t26.5 -63.5q0 -58 -34 -88.5t-93 -30.5q-46 0 -73.5 22.5t-27.5 63.5z" />
<glyph horiz-adv-x="983" d="M156 250q0 66 16 118t42.5 85t61 58.5t73 43.5t77 35t73 37t61 45t42.5 64.5t16 90.5v41h173q4 -32 4 -73q0 -76 -25 -132.5t-65 -89.5t-88.5 -58.5t-97.5 -46.5t-89 -45.5t-65 -63.5t-25 -93q0 -65 55 -101t166 -36q82 0 164 17.5t123 35.5l41 17l24 -142l-17 -8.5 t-49 -19.5t-80 -24.5t-107 -19t-132 -8.5q-181 0 -276.5 75.5t-95.5 197.5zM629 1114q0 57 34.5 88t92.5 31q98 0 98 -86q0 -57 -33.5 -88t-93.5 -31q-46 0 -72 22.5t-26 63.5z" />
<glyph horiz-adv-x="1122" d="M143 414l15 104h104q3 94 21 182h-99l15 105h108q30 90 77.5 161.5t118.5 127t171 86t223 30.5q79 0 150.5 -14t102.5 -28l32 -13l-62 -133q-10 5 -28.5 12t-77 19t-119.5 12q-147 0 -245 -69t-148 -191h526l-41 -105h-520q-18 -85 -21 -182h459l-41 -104h-413 q6 -56 24.5 -101t52.5 -84t91 -60.5t133 -21.5q61 0 124 10.5t96 21.5l32 11l22 -135q-13 -6 -37 -15t-100.5 -24.5t-155.5 -15.5q-219 0 -335 111t-134 303h-121z" />
<glyph horiz-adv-x="980" d="M190 541q0 205 113 339t328 160l28 193h150l-27 -189q63 -4 119 -16.5t81 -23.5l24 -11l-58 -139q-75 35 -186 41l-80 -569q51 4 100.5 14.5t73.5 19.5l23 9l20 -138q-11 -5 -30.5 -13t-82.5 -24t-127 -20l-26 -197h-150l29 203q-159 23 -240.5 117t-81.5 244zM375 555 q0 -182 157 -219l78 549q-123 -28 -179 -115.5t-56 -214.5z" />
<glyph horiz-adv-x="1079" d="M121 0l20 143q119 92 164 170t45 158q0 19 -4 55h-186l16 115h154q-11 79 -11 141q0 203 113 327t340 124q56 0 107 -8.5t83 -20.5t56 -24t34 -20l11 -9l-72 -117q-9 6 -25.5 16t-71 26t-112.5 16q-76 0 -133.5 -24t-91.5 -67t-51 -98t-17 -121q0 -44 13 -141h418 l-17 -115h-385q2 -18 2 -51q0 -84 -41.5 -164.5t-148.5 -169.5h631l-21 -141h-819z" />
<glyph horiz-adv-x="1003" d="M-82 -274l45 139q39 -19 100 -19q85 0 146 50t86 153l121 488h-244l33 131h244l69 274q21 85 56 148t73 99.5t86 58.5t89 29t89 7q55 0 101 -9t65 -19l19 -9l-56 -129q-48 23 -118 23q-90 0 -146 -46t-84 -159l-65 -268h293l-33 -131h-293l-117 -476q-88 -360 -407 -360 q-43 0 -81 6.5t-55 12.5z" />
<glyph horiz-adv-x="1079" d="M182 201l15 102h295l22 170h-293l15 105h247l-258 632h197l207 -575l368 575h195l-434 -632h250l-15 -105h-297l-22 -170h295l-15 -102h-295l-28 -201h-182l28 201h-295z" />
<glyph horiz-adv-x="2181" d="M240 893q0 145 85 242.5t240 97.5q122 -4 184 -74t62 -176q0 -88 -34.5 -163t-108 -125t-172.5 -50q-128 0 -192 70t-64 178zM365 897q0 -70 34.5 -113t98.5 -43q84 0 135 62.5t51 175.5q0 71 -34.5 113t-98.5 45q-86 0 -136 -63t-50 -177zM408 27l786 1206l90 -47 l-786 -1209zM889 225q0 145 85 242.5t240 97.5q122 -4 184 -74t62 -176q0 -88 -34.5 -163t-108 -125t-172.5 -50q-128 0 -192 70t-64 178zM1014 229q0 -70 34.5 -112.5t98.5 -42.5q84 0 135 62t51 175q0 71 -34.5 113t-98.5 45q-86 0 -136 -63t-50 -177zM1542 225 q0 145 85.5 242.5t240.5 97.5q122 -4 184 -74t62 -176q0 -137 -84.5 -237.5t-231.5 -100.5q-128 0 -192 70t-64 178zM1667 229q0 -70 34.5 -112.5t98.5 -42.5q84 0 135.5 62t51.5 175q0 71 -35 113t-99 45q-86 0 -136 -63t-50 -177z" />
<glyph horiz-adv-x="698" d="M76 -408l37 99q63 -35 141 -35q137 0 137 92q0 72 -115 72q-69 0 -126 -19l96 242h119l-62 -158q14 2 45 2q81 0 130.5 -33.5t49.5 -103.5q0 -89 -67 -144t-201 -55q-54 0 -100 10.5t-65 20.5z" />
<glyph horiz-adv-x="1841" d="M180 430q0 155 34.5 284t104.5 229t185 156t266 56q65 0 123 -10q-84 77 -84 192q0 127 96 210t254 83q120 0 237 -47.5t175 -91.5l-51 -358h356l-21 -150h-356l-84 -604q-19 -131 11.5 -189.5t144.5 -58.5q39 0 81.5 7.5t65.5 15.5l23 8l10 -144q-8 -5 -23 -11.5 t-67.5 -18t-110.5 -11.5q-88 0 -151 20t-108.5 67.5t-58 125t0.5 191.5l145 1030q-4 4 -30.5 18t-82.5 31t-110 17q-96 0 -155.5 -44t-59.5 -130q0 -38 12.5 -73.5t30 -60t35.5 -43t30 -27.5l13 -9l-57 -136q-11 5 -31.5 13t-82 21t-120.5 13q-77 0 -140.5 -23.5t-105 -60 t-72.5 -88.5t-47.5 -101.5t-27 -107.5t-13 -98.5t-2.5 -81.5q0 -67 14 -118.5t48 -96.5t99 -69.5t159 -24.5q69 0 129 11.5t82 21.5l18 -146q-10 -5 -29 -11.5t-84 -18t-136 -11.5q-130 0 -224.5 33t-150 94.5t-81.5 142t-26 183.5z" />
<glyph horiz-adv-x="1683" d="M209 983l20 150h154l43 297l186 30l-47 -327h619l43 297l186 30l-47 -327h352l-20 -150h-352l-84 -610q-9 -70 -9 -90q0 -77 37 -114.5t127 -37.5q39 0 81.5 7.5t65.5 15.5l23 8l10 -144q-8 -5 -23 -11.5t-67 -18t-110 -11.5q-158 0 -242 68.5t-84 228.5q0 55 8 107 l84 602h-618l-84 -610q-8 -62 -8 -90q0 -77 36.5 -114.5t126.5 -37.5q39 0 81.5 7.5t65.5 15.5l23 8l11 -144q-8 -5 -23 -11.5t-67.5 -18t-110.5 -11.5q-158 0 -242 68.5t-84 228.5q0 48 9 107l83 602h-153z" />
<glyph horiz-adv-x="1654" d="M209 983l20 150h183l16 112q50 352 387 352q52 0 99.5 -7.5t68.5 -15.5l21 -7l-48 -148q-51 23 -127 23q-98 0 -151 -50t-68 -153l-16 -106h561l43 297l186 30l-47 -327h353l-21 -150h-352l-84 -604q-6 -46 -6 -82q0 -83 38 -124.5t126 -41.5q95 0 172 31l6 -144 q-10 -5 -27.5 -11.5t-74.5 -18t-115 -11.5q-310 0 -310 299q0 50 9 105l84 602h-562l-137 -983h-184l139 983h-182z" />
<glyph horiz-adv-x="2441" d="M209 983l20 150h183l16 112q50 352 387 352q52 0 99.5 -7.5t68.5 -15.5l21 -7l-48 -148q-51 23 -127 23q-98 0 -151 -50t-68 -153l-16 -106h604l16 112q50 352 388 352q52 0 99 -7.5t68 -15.5l21 -7l-47 -148q-51 23 -127 23q-98 0 -151 -50t-68 -153l-17 -106h562 l43 297l186 30l-47 -327h352l-20 -150h-353l-84 -604q-6 -41 -6 -74q0 -174 166 -174q93 0 170 31l6 -144q-98 -41 -235 -41q-142 0 -216.5 66.5t-74.5 222.5q0 60 8 115l84 602h-561l-137 -983h-185l140 983h-605l-137 -983h-184l139 983h-182z" />
<glyph horiz-adv-x="2269" d="M180 430q0 155 34.5 284t104.5 229t185 156t266 56q71 0 115 -8q-43 69 -43 160q0 124 89.5 207t260.5 83q116 0 224 -39.5t157 -78.5l-51 -363q161 39 282 39q215 0 319.5 -78.5t104.5 -261.5q0 -47 -10 -119l-98 -696h-181l101 709q6 52 6 75q0 57 -16 98t-40 63.5 t-63 35.5t-73.5 16.5t-81.5 3.5q-71 0 -139.5 -9.5t-100.5 -19.5l-33 -9l-135 -963h-180l198 1401q-86 43 -200 43q-99 0 -153 -42.5t-54 -125.5q0 -61 25 -109.5t61 -76.5l-57 -136q-11 5 -31.5 13t-82 21t-120.5 13q-77 0 -140.5 -23.5t-105 -60t-72.5 -88.5t-47.5 -101.5 t-27 -107.5t-13 -98.5t-2.5 -81.5q0 -67 14 -118.5t48 -96.5t99 -69.5t159 -24.5q69 0 129 11.5t82 21.5l18 -146q-10 -5 -29 -11.5t-84 -18t-136 -11.5q-130 0 -224.5 33t-150 94.5t-81.5 142t-26 183.5z" />
<glyph horiz-adv-x="2170" d="M186 430q0 155 34.5 284t104.5 229t185 156t266 56q71 0 115 -8q-43 69 -43 160q0 124 89.5 207t260.5 83q116 0 224 -39.5t157 -78.5l-125 -879l557 533h232l-594 -568l227 -309q41 -55 79 -83t97 -28q14 0 31.5 2.5t28.5 4.5l10 2l-21 -142q-34 -20 -106 -20 q-146 0 -269 168l-280 383l-76 -543h-180l199 1401q-86 43 -201 43q-99 0 -153 -42.5t-54 -125.5q0 -33 9 -64.5t21.5 -52.5t25 -37.5t21.5 -23.5l9 -8l-57 -136q-11 5 -31.5 13t-82 21t-120.5 13q-77 0 -140.5 -23.5t-104.5 -59.5t-72.5 -88.5t-48 -102t-26.5 -107.5 t-12.5 -98.5t-2.5 -81.5q0 -67 14 -118.5t47.5 -96.5t98.5 -69.5t159 -24.5q69 0 129 11.5t82 21.5l19 -146q-10 -5 -29.5 -11.5t-84.5 -18t-136 -11.5q-130 0 -224.5 33t-150 94.5t-81.5 142t-26 183.5z" />
<glyph horiz-adv-x="1525" d="M180 430q0 155 34.5 284t104.5 229t185 156t266 56q71 0 115 -8q-43 69 -43 160q0 124 89.5 207t260.5 83q116 0 224 -39.5t157 -78.5l-209 -1479h-180l198 1401q-86 43 -200 43q-99 0 -153 -42.5t-54 -125.5q0 -109 86 -186l-57 -136q-11 5 -31.5 13t-82 21t-120.5 13 q-77 0 -140.5 -23.5t-105 -60t-72.5 -88.5t-47.5 -101.5t-27 -107.5t-13 -98.5t-2.5 -81.5q0 -67 14 -118.5t48 -96.5t99 -69.5t159 -24.5q69 0 129 11.5t82 21.5l18 -146q-10 -5 -29 -11.5t-84 -18t-136 -11.5q-130 0 -224.5 33t-150 94.5t-81.5 142t-26 183.5z" />
<glyph horiz-adv-x="2236" d="M137 45l41 145q16 -7 44.5 -16.5t112.5 -26t163 -16.5q135 0 204.5 43t69.5 119q0 30 -12.5 55.5t-29 43t-50.5 37t-58.5 30t-72.5 30.5q-150 62 -206 100q-121 81 -131 213q-1 13 -1 27q0 71 26.5 128t70.5 93.5t103.5 60.5t121.5 34t129 10q85 0 178 -14 q-26 27 -43 72.5t-17 91.5q0 129 96.5 210.5t268.5 81.5q122 0 232.5 -39t160.5 -79l-51 -363q154 39 280 39q217 0 321.5 -78t104.5 -262q0 -62 -8 -119l-98 -696h-184l100 709q6 43 6 75q0 57 -16 98t-40 63.5t-62.5 35.5t-73 16.5t-82.5 3.5q-71 0 -138.5 -9.5 t-98.5 -19.5l-32 -9l-135 -963h-182l197 1401q-3 3 -27 12t-76.5 20t-107.5 11q-103 0 -162.5 -42t-59.5 -130q0 -53 25 -101.5t66 -68.5l-48 -152q-15 6 -41 14.5t-102 22.5t-145 14q-45 0 -89 -7t-89.5 -23.5t-74 -50.5t-28.5 -80q0 -28 12.5 -51.5t27.5 -38.5t50.5 -33 t58 -27t72.5 -28q45 -17 72 -28t67.5 -31t65.5 -38t54 -45.5t45 -57t27 -69.5t11 -86q0 -85 -34 -149.5t-95.5 -103.5t-142 -58t-178.5 -19q-92 0 -182 16.5t-135.5 32t-45.5 19.5z" />
<glyph horiz-adv-x="2129" d="M137 45l41 145q16 -7 44.5 -16.5t112.5 -26t163 -16.5q135 0 204.5 43t69.5 119q0 30 -12.5 55.5t-29 43t-50.5 37t-58.5 30t-72.5 30.5q-150 62 -206 100q-121 81 -131 213q-1 13 -1 27q0 71 26.5 128t70.5 93.5t103.5 60.5t121.5 34t129 10q85 0 178 -14 q-26 27 -43 72.5t-17 91.5q0 129 96.5 210.5t268.5 81.5q122 0 232.5 -39t160.5 -79l-123 -877l555 531h232l-594 -568l227 -309q41 -55 79 -83t97 -28q14 0 31.5 2.5t27.5 4.5l11 2l-21 -142q-34 -20 -106 -20q-77 0 -141.5 41.5t-126.5 126.5l-279 381l-76 -541h-182 l197 1401q-3 3 -27 12t-76.5 20t-107.5 11q-103 0 -162.5 -42t-59.5 -130q0 -53 25 -101.5t66 -68.5l-48 -152q-15 6 -41 14.5t-102 22.5t-145 14q-45 0 -89 -7t-89.5 -23.5t-74 -50.5t-28.5 -80q0 -28 12.5 -51.5t27.5 -38.5t50.5 -33t58 -27t72.5 -28q45 -17 72 -28 t67.5 -31t65.5 -38t54 -45.5t45 -57t27 -69.5t11 -86q0 -85 -34 -149.5t-95.5 -103.5t-142 -58t-178.5 -19q-92 0 -182 16.5t-135.5 32t-45.5 19.5z" />
<glyph horiz-adv-x="1490" d="M137 45l41 145q16 -7 44.5 -16.5t112.5 -26t163 -16.5q135 0 204.5 43t69.5 119q0 30 -12.5 55.5t-29 43t-50.5 37t-58.5 30t-72.5 30.5q-150 62 -206 100q-121 81 -131 213q-1 13 -1 27q0 71 26.5 128t70.5 93.5t103.5 60.5t121.5 34t129 10q85 0 178 -14 q-26 27 -43 72.5t-17 91.5q0 129 96.5 210.5t268.5 81.5q122 0 232.5 -39t160.5 -79l-207 -1479h-182l197 1401q-3 3 -27 12t-76.5 20t-107.5 11q-103 0 -162.5 -42t-59.5 -130q0 -53 25 -101.5t66 -68.5l-48 -152q-15 6 -41 14.5t-102 22.5t-145 14q-45 0 -89 -7 t-89.5 -23.5t-74 -50.5t-28.5 -80q0 -28 12.5 -51.5t27.5 -38.5t50.5 -33t58 -27t72.5 -28q45 -17 72 -28t67.5 -31t65.5 -38t54 -45.5t45 -57t27 -69.5t11 -86q0 -85 -34 -149.5t-95.5 -103.5t-142 -58t-178.5 -19q-92 0 -182 16.5t-135.5 32t-45.5 19.5z" />
<glyph horiz-adv-x="1300" d="M209 983l20 150h183l16 112q50 352 387 352q52 0 99.5 -7.5t68.5 -15.5l21 -7l-48 -148q-51 23 -127 23q-98 0 -151 -50t-68 -153l-16 -106h706l-167 -1194q-9 -67 -24 -121t-42.5 -105.5t-64.5 -86t-93 -55t-127 -20.5q-52 0 -98.5 10.5t-67.5 20.5l-20 10l43 140 q47 -27 113 -27q93 0 137 56t59 165l148 1057h-523l-137 -983h-184l139 983h-182zM1130 1409q0 57 37 91t97 34q47 0 73.5 -24.5t26.5 -67.5q0 -59 -36 -93t-95 -34q-48 0 -75.5 24.5t-27.5 69.5z" />
<glyph horiz-adv-x="1906" d="M209 983l20 150h183l16 112q50 352 387 352q52 0 99.5 -7.5t68.5 -15.5l21 -7l-48 -148q-51 23 -127 23q-98 0 -151 -50t-68 -153l-16 -106h563l-100 -709q-6 -41 -6 -74q0 -56 16.5 -96.5t40.5 -62.5t62.5 -35t71.5 -16t79 -3q77 0 146 9.5t99 19.5l31 10l134 957h180 l-148 -1055q-14 -98 -40.5 -176t-72 -145t-108.5 -111.5t-152.5 -69.5t-201.5 -25q-86 0 -165 14t-115 28l-36 14l52 147q11 -6 32.5 -14.5t91 -22.5t144.5 -14q101 0 174 25t115.5 71.5t65.5 98t36 120.5q-132 -34 -287 -34q-218 0 -324 78t-106 262q0 57 8 112l78 547 h-379l-137 -983h-184l139 983h-182z" />
<glyph horiz-adv-x="2154" d="M137 45l41 145q16 -7 44.5 -16.5t112.5 -26t163 -16.5q135 0 204.5 43t69.5 119q0 30 -12.5 55.5t-29 43t-50.5 37t-58.5 30t-72.5 30.5q-150 62 -206 100q-121 81 -131 213q-1 13 -1 27q0 71 26.5 128t70.5 93.5t103.5 60.5t121.5 34t129 10q85 0 178 -14 q-26 27 -43 72.5t-17 91.5q0 129 96.5 210.5t268.5 81.5q122 0 232.5 -39t160.5 -79l-57 -408q148 84 317 84q172 0 258 -86t86 -217q0 -132 -86.5 -228.5t-245.5 -134.5l84 -215q25 -65 56 -97t88 -32q16 0 33 2.5t27 5.5l9 3l-12 -140q-41 -24 -115 -24q-85 0 -143 43.5 t-96 140.5l-115 293h-18q-121 0 -209 18l-68 -487h-182l197 1401q-3 3 -27 12t-76.5 20t-107.5 11q-103 0 -162.5 -42t-59.5 -130q0 -53 25 -101.5t66 -68.5l-48 -152q-15 6 -41 14.5t-102 22.5t-145 14q-45 0 -89 -7t-89.5 -23.5t-74 -50.5t-28.5 -80q0 -28 12.5 -51.5 t27.5 -38.5t50.5 -33t58 -27t72.5 -28q45 -17 72 -28t67.5 -31t65.5 -38t54 -45.5t45 -57t27 -69.5t11 -86q0 -85 -34 -149.5t-95.5 -103.5t-142 -58t-178.5 -19q-92 0 -182 16.5t-135.5 32t-45.5 19.5zM1417 621q74 -9 156 -9q385 0 385 222q0 167 -211 167 q-156 0 -289 -83z" />
<glyph horiz-adv-x="2174" d="M168 430q0 155 34.5 284t104.5 229t185 156t266 56q70 0 114 -8q-43 69 -43 160q0 124 90 207t261 83q116 0 224 -39.5t157 -78.5l-60 -408q152 84 318 84q172 0 258 -86t86 -217q0 -132 -86.5 -228.5t-245.5 -134.5l84 -215q25 -65 55.5 -97t87.5 -32q16 0 33.5 2.5 t26.5 5.5l10 3l-12 -140q-41 -24 -115 -24q-85 0 -143.5 44t-96.5 140l-114 293h-19q-121 0 -209 18l-67 -487h-181l199 1401q-86 43 -201 43q-98 0 -152 -45t-54 -129q0 -50 21.5 -95t43.5 -65l21 -20l-58 -136q-11 5 -31.5 13t-81.5 21t-120 13q-77 0 -140.5 -23.5 t-105 -60t-72.5 -88.5t-47.5 -101.5t-27 -107.5t-13 -98.5t-2.5 -81.5q0 -67 14 -118.5t48 -96.5t99 -69.5t159 -24.5q69 0 129 11.5t82 21.5l18 -146q-10 -5 -29.5 -11.5t-84.5 -18t-136 -11.5q-481 0 -481 453zM1438 621q74 -9 155 -9q385 0 385 222q0 167 -211 167 q-156 0 -286 -81z" />
<glyph horiz-adv-x="1812" d="M215 852q0 102 33 193.5t104.5 171t176 137t256.5 90.5t337 33q78 0 158 -5.5t121 -11.5l41 -6l307 -1454h-193l-86 434h-587l-205 -434h-195l647 1321h-36q-339 0 -531 -123t-192 -354q0 -52 10.5 -99.5t25 -78.5t29 -55t24.5 -35l11 -11l-117 -88q-6 6 -15 16.5t-33 47 t-42.5 77t-33.5 104t-15 130.5zM956 590h484l-142 717z" />
<glyph horiz-adv-x="1937" d="M197 821q0 72 15.5 138t52.5 133t95 123t148 105t205.5 83.5t273.5 54t346 19.5q228 0 361.5 -36t190.5 -109.5t57 -196.5q0 -272 -269 -361q120 -37 174 -120t54 -214q0 -241 -167.5 -352t-496.5 -111q-90 0 -201.5 7.5t-177.5 15.5l-67 8l180 1292q-90 -9 -173.5 -29.5 t-166.5 -59t-143.5 -91t-98 -130.5t-37.5 -173q0 -65 17.5 -123.5t43 -95.5t51 -64t42.5 -39l18 -12l-102 -104q-9 5 -24 15.5t-54 50t-68.5 86t-54 124.5t-24.5 166zM993 145q108 -12 250 -12q87 0 154.5 8t129 29t102 55.5t64 89.5t23.5 129q0 133 -83 188.5t-279 55.5 h-285zM1090 831h264q205 0 301 68.5t96 206.5q0 67 -21 110t-66.5 66t-102 31t-142.5 8q-70 0 -135.5 -2t-95.5 -4l-31 -2z" />
<glyph horiz-adv-x="1316" d="M201 565q0 138 25 266.5t81.5 247t138.5 206t204.5 140t271.5 52.5q114 0 201 -29.5t138 -80t76 -111.5t25 -130q0 -147 -87.5 -252t-232.5 -167l-65 118q205 98 205 289q0 89 -64.5 148t-206.5 59q-96 0 -176 -32.5t-133 -83.5t-93.5 -121.5t-63 -139t-36.5 -143.5 t-18 -127.5t-4 -98.5q0 -444 436 -444q74 0 153.5 13.5t121.5 27.5l43 14l22 -149q-16 -7 -45 -17t-121 -26.5t-188 -16.5q-132 0 -236 30.5t-173 83.5t-114.5 128.5t-65 160.5t-19.5 185z" />
<glyph horiz-adv-x="2033" d="M215 821q0 72 15.5 138t53 133t95.5 123t148.5 105t206.5 83.5t275 54t349 19.5q114 0 208 -16.5t163 -45t122.5 -71t88 -92t56.5 -109.5t31 -121t9 -131q0 -95 -10.5 -183.5t-36.5 -181t-66 -171.5t-104 -150t-145.5 -120.5t-194.5 -78.5t-248 -29q-93 0 -198.5 9.5 t-164.5 19.5l-59 10l180 1282q-90 -9 -172.5 -29t-165.5 -58.5t-143.5 -90.5t-98.5 -130t-38 -173q0 -65 17.5 -123.5t43 -95.5t51 -64t43.5 -39l17 -12l-103 -104q-9 5 -24 15.5t-54 50t-68.5 86t-54 124.5t-24.5 166zM1012 145q114 -12 223 -12q93 0 175 19t164.5 70.5 t141.5 131.5t96 212.5t37 303.5q0 126 -34 215t-100.5 140t-152 73.5t-200.5 22.5q-92 0 -186 -4z" />
<glyph horiz-adv-x="1867" d="M215 846q0 277 214 442.5t591 165.5h930l-21 -156h-745l-66 -467h664l-23 -153h-663l-35 -250q-4 -23 -4 -66q0 -123 85 -176t271 -53q87 0 174 8t126.5 14.5t55.5 10.5l-22 -154q-139 -35 -356 -35q-521 0 -521 371q0 33 7 84l120 866q-91 0 -175 -13t-168 -46 t-145.5 -83t-99.5 -130t-38 -182q0 -51 9.5 -98t24 -82t32.5 -66t36 -51.5t32.5 -35t24.5 -21.5l9 -7l-101 -104q-9 6 -24 18t-53.5 54.5t-68 92t-53.5 131.5t-24 171z" />
<glyph horiz-adv-x="1820" d="M215 846q0 277 214 442.5t591 165.5h922l-23 -156h-735l-72 -507h649l-20 -154h-649l-91 -637h-186l182 1298q-91 0 -175 -13t-168 -46t-145.5 -83t-99.5 -130t-38 -182q0 -51 9.5 -98t24 -82t32.5 -66t36 -51.5t32.5 -35t24.5 -21.5l9 -7l-101 -104q-9 6 -24 18 t-53.5 54.5t-68 92t-53.5 131.5t-24 171z" />
<glyph horiz-adv-x="1333" d="M203 559q0 144 28 277t87.5 250t144.5 204t206 137t265 50q111 0 196.5 -25.5t136.5 -70.5t77 -100.5t26 -119.5q0 -56 -19.5 -111.5t-48.5 -95t-52.5 -64.5t-39.5 -36l-114 76q9 5 29 30t42.5 75.5t22.5 101.5q0 79 -64 131.5t-206 52.5q-92 0 -169.5 -30t-131 -78.5 t-95.5 -115t-66.5 -135.5t-40.5 -144.5t-22 -136t-6 -116.5q0 -430 395 -430q111 0 230 35l63 446h176l-96 -684q-25 -173 -137.5 -277t-314.5 -104q-53 0 -101 7.5t-70 14.5l-22 7l31 137q67 -20 153 -20q252 0 285 233l10 78q-107 -28 -229 -28t-218.5 30.5t-159.5 83.5 t-104.5 127.5t-59 157.5t-17.5 180z" />
<glyph horiz-adv-x="2082" d="M215 846q0 277 214 442.5t591 165.5h186l-88 -627h727l88 627h185l-205 -1454h-184l94 668h-727l-95 -668h-186l182 1298q-91 0 -175 -13t-168 -46t-145.5 -83t-99.5 -130t-38 -182q0 -51 9.5 -98t24 -82t32.5 -66t36 -51.5t32.5 -35t24.5 -21.5l9 -7l-101 -104 q-9 6 -24 18t-53.5 54.5t-68 92t-53.5 131.5t-24 171z" />
<glyph horiz-adv-x="1177" d="M215 846q0 277 214 442.5t591 165.5h186l-205 -1454h-186l182 1298q-91 0 -175 -13t-168 -46t-145.5 -83t-99.5 -130t-38 -182q0 -51 9.5 -98t24 -82t32.5 -66t36 -51.5t32.5 -35t24.5 -21.5l9 -7l-101 -104q-9 6 -24 18t-53.5 54.5t-68 92t-53.5 131.5t-24 171z" />
<glyph horiz-adv-x="1167" d="M215 846q0 277 214 442.5t591 165.5h182l-213 -1515q-27 -190 -142.5 -289t-283.5 -99q-78 0 -145.5 16.5t-95.5 32.5l-29 17l51 135q8 -5 23 -12.5t66.5 -20t107.5 -12.5q108 0 178.5 58t85.5 165l192 1368q-91 0 -175 -13t-168 -46t-145.5 -83t-99.5 -130t-38 -182 q0 -51 9.5 -98t24 -82t32.5 -66t36 -51.5t32.5 -35t24.5 -21.5l9 -7l-101 -104q-9 6 -24 18t-53.5 54.5t-68 92t-53.5 131.5t-24 171z" />
<glyph horiz-adv-x="1933" d="M215 846q0 277 214 442.5t591 165.5h186l-98 -711l698 711h238l-735 -747l319 -424q50 -67 98 -101.5t107 -34.5q32 0 65 11l-20 -146q-45 -20 -115 -20q-84 0 -150.5 46t-139.5 144l-375 496l-97 -678h-186l182 1298q-91 0 -175 -13t-168 -46t-145.5 -83t-99.5 -130 t-38 -182q0 -51 9.5 -98t24 -82t32.5 -66t36 -51.5t32.5 -35t24.5 -21.5l9 -7l-101 -104q-9 6 -24 18t-53.5 54.5t-68 92t-53.5 131.5t-24 171z" />
<glyph horiz-adv-x="1753" d="M215 846q0 277 214 442.5t591 165.5h184l-147 -1042q-4 -32 -4 -58q0 -120 86.5 -169.5t259.5 -49.5q80 0 153.5 9.5t107.5 18.5l34 9l-23 -160q-100 -35 -301 -35q-504 0 -504 355q0 36 6 80l125 886q-91 0 -175 -13t-168 -46t-145.5 -83t-99.5 -130t-38 -182 q0 -51 9.5 -98t24 -82t32.5 -66t36 -51.5t32.5 -35t24.5 -21.5l9 -7l-101 -104q-9 6 -24 18t-53.5 54.5t-68 92t-53.5 131.5t-24 171z" />
<glyph horiz-adv-x="2344" d="M215 846q0 277 214 442.5t591 165.5h256l270 -1020l557 1020h215l-82 -1454h-186l55 981l27 199l-96 -199l-412 -750h-209l-203 750l-43 190l-26 -190l-219 -981h-187l291 1298h-31q-91 0 -175 -13t-168 -46t-145.5 -83t-99.5 -130t-38 -182q0 -51 9.5 -98t24 -82 t32.5 -66t36 -51.5t32.5 -35t24.5 -21.5l9 -7l-101 -104q-9 6 -24 18t-53.5 54.5t-68 92t-53.5 131.5t-24 171z" />
<glyph horiz-adv-x="2091" d="M215 846q0 277 214 442.5t591 165.5h217l551 -1182l12 127l148 1055h180l-205 -1454h-209l-559 1194l-6 -123l-152 -1071h-182l182 1298q-91 0 -175 -13t-168 -46t-145.5 -83t-99.5 -130t-38 -182q0 -51 9.5 -98t24 -82t32.5 -66t36 -51.5t32.5 -35t24.5 -21.5l9 -7 l-101 -104q-9 6 -24 18t-53.5 54.5t-68 92t-53.5 131.5t-24 171z" />
<glyph horiz-adv-x="1423" d="M205 535q0 180 33 340.5t89.5 278.5t128 201.5t152.5 123.5l68 -88q-81 -67 -139 -169t-88.5 -220t-44 -232t-13.5 -233q0 -67 8 -122t31.5 -109t61.5 -91t101.5 -59.5t147.5 -22.5q92 0 167 32t126 83t89.5 125t60 148t34.5 163t17 159t4 146q0 332 -240 332 q-80 0 -140.5 -46.5t-90 -117.5t-29.5 -153q0 -96 45.5 -182.5t133.5 -141.5l-93 -113q-115 64 -178 187.5t-63 249.5q0 123 50 229.5t149.5 175t228.5 68.5q96 0 168.5 -26t118 -69t74 -106.5t39.5 -131.5t11 -151q0 -114 -9 -215.5t-31 -206t-56.5 -190.5t-89 -162.5 t-125 -129t-167.5 -82.5t-214 -30q-120 0 -213 31.5t-151 84t-95.5 126t-52 150.5t-14.5 166z" />
<glyph horiz-adv-x="1916" d="M215 821q0 72 15.5 138t53 133t95 123t148 105t206 83.5t273.5 54t346 19.5q320 0 474 -94.5t154 -305.5q0 -93 -19.5 -172.5t-67.5 -154t-122 -126.5t-191 -83t-267 -31q-43 0 -105.5 2.5t-103.5 5.5l-41 2l-72 -520h-184l182 1300q-90 -9 -173 -29.5t-166 -59 t-143.5 -91t-98 -130.5t-37.5 -173q0 -65 17.5 -123.5t43 -95.5t51 -64t43.5 -39l17 -12l-103 -104q-9 5 -24 15.5t-54 50t-68.5 86t-54 124.5t-24.5 166zM1085 674q100 -8 244 -8q232 0 348.5 93.5t116.5 295.5q0 147 -104.5 206.5t-327.5 59.5l-186 -6z" />
<glyph horiz-adv-x="1421" d="M205 535q0 180 33 340.5t89.5 278.5t128 201.5t152.5 123.5l68 -88q-81 -67 -139 -169t-88.5 -220t-44 -232t-13.5 -233q0 -67 8 -122t31.5 -109t61.5 -91t101.5 -59.5t147.5 -22.5q92 0 167 32t126 83t89.5 125t60 148t34.5 163t17 159t4 146q0 332 -240 332 q-80 0 -140.5 -46.5t-90 -117.5t-29.5 -153q0 -96 45.5 -182.5t133.5 -141.5l-93 -113q-115 64 -178 187.5t-63 249.5q0 123 50 229.5t149.5 175t228.5 68.5q96 0 168.5 -26t118 -69t74 -106.5t39.5 -131.5t11 -151q0 -114 -9 -215.5t-31 -206t-56.5 -190.5t-89 -162.5 t-125 -129t-167.5 -82.5t-214 -30q-120 0 -213 31.5t-151 84t-95.5 126t-52 150.5t-14.5 166zM606 -305l19 131l616 -51l-20 -146z" />
<glyph horiz-adv-x="1986" d="M215 821q0 72 15.5 138t53 133t95 123t148 105t206 83.5t273.5 54t346 19.5q319 0 477 -90t158 -279q0 -197 -99 -318.5t-309 -166.5l141 -340q31 -73 62 -104.5t88 -31.5q13 0 27 1.5t22 3.5l8 2l-20 -144q-29 -18 -97 -18q-99 0 -156.5 55t-103.5 166l-161 387 q-29 -2 -91 -2q-107 0 -221 8l-86 -606h-184l182 1300q-90 -9 -173 -29.5t-166 -59t-143.5 -91t-98 -130.5t-37.5 -173q0 -65 17.5 -123.5t43 -95.5t51 -64t43.5 -39l17 -12l-103 -104q-9 5 -24 15.5t-54 50t-68.5 86t-54 124.5t-24.5 166zM1098 760q93 -6 213 -6 q261 0 375 73.5t114 257.5q0 70 -29.5 118t-85.5 73t-121.5 35t-152.5 10q-125 0 -235 -8z" />
<glyph horiz-adv-x="1230" d="M182 371q0 46 9.5 89.5t22.5 72.5t26 51t22 32l10 11l144 -43q-7 -8 -17.5 -24t-27.5 -67.5t-17 -107.5q0 -124 86.5 -188t231.5 -64q142 0 232.5 70t90.5 188q0 42 -11 77.5t-34.5 64t-48.5 50.5t-66 43.5t-73 35.5t-82 34t-82.5 34.5t-76 37t-71.5 44t-58 52.5 t-47.5 64.5t-28.5 78.5t-11 97q0 79 28.5 142.5t76.5 106t114 71t138.5 41t152.5 12.5q108 0 202 -20.5t135 -40.5l40 -21l-70 -133q-11 7 -34 16.5t-102.5 26t-170.5 16.5q-328 0 -328 -211q0 -32 7.5 -59t18.5 -47.5t33 -40t41 -32t54 -28.5t60 -25.5t69 -25.5 q70 -26 124.5 -52t111 -65t93 -83t60 -105.5t23.5 -132.5q0 -202 -144 -319.5t-383 -117.5q-221 0 -347 109.5t-126 284.5z" />
<glyph horiz-adv-x="1593" d="M215 846q0 277 214 442.5t591 165.5h715l-23 -160h-473l-182 -1294h-187l183 1294h-78q-73 0 -141.5 -10t-136.5 -30.5t-124.5 -56.5t-100.5 -84t-68.5 -117t-24.5 -152q0 -69 16.5 -132t40 -103t47 -70t39.5 -43l17 -13l-101 -104q-9 6 -24 18t-53.5 54.5t-68 92 t-53.5 131.5t-24 171z" />
<glyph horiz-adv-x="2086" d="M215 846q0 277 214 442.5t591 165.5h184l-127 -903q-8 -57 -8 -117q0 -76 19 -132t48 -88t73.5 -51t86 -24.5t95.5 -5.5q373 0 432 418l127 903h184l-125 -883q-23 -165 -73.5 -279.5t-131.5 -184t-186 -100t-248 -30.5q-238 0 -361.5 112.5t-123.5 340.5q0 77 10 141 l102 727q-91 0 -175 -13t-168 -46t-145.5 -83t-99.5 -130t-38 -182q0 -51 9.5 -98t24 -82t32.5 -66t36 -51.5t32.5 -35t24.5 -21.5l9 -7l-101 -104q-9 6 -24 18t-53.5 54.5t-68 92t-53.5 131.5t-24 171z" />
<glyph horiz-adv-x="1939" d="M215 846q0 276 206 442t560 166h49l238 -1307l616 1307h199l-713 -1454h-244l-254 1294q-101 -12 -186 -41.5t-158 -81t-115 -135.5t-42 -192q0 -51 9.5 -98t24 -82t32.5 -66t36 -51.5t32.5 -35t24.5 -21.5l9 -7l-101 -104q-9 6 -24 18t-53.5 54.5t-68 92t-53.5 131.5 t-24 171z" />
<glyph horiz-adv-x="2603" d="M215 846q0 276 206 442t560 166h78l137 -1147l8 -155l51 157l441 1077h194l138 -1079l8 -153l55 157l457 1143h196l-587 -1454h-254l-138 999l-8 121l-39 -121l-420 -999h-254l-161 1296q-80 -9 -151 -28t-138.5 -55t-116 -85.5t-77.5 -122.5t-29 -161q0 -51 9.5 -98 t24 -82t32.5 -66t36 -51.5t32.5 -35t24.5 -21.5l9 -7l-101 -104q-9 6 -24 18t-53.5 54.5t-68 92t-53.5 131.5t-24 171z" />
<glyph horiz-adv-x="1869" d="M215 846q0 276 206 442t560 166h31l309 -594l481 594h213l-590 -719l392 -735h-205l-318 598l-487 -598h-215l598 741l-299 551q-103 -9 -191 -37t-164.5 -79t-120.5 -136t-44 -196q0 -51 9.5 -98t24 -82t32.5 -66t36 -51.5t32.5 -35t24.5 -21.5l9 -7l-101 -104 q-9 6 -24 18t-53.5 54.5t-68 92t-53.5 131.5t-24 171z" />
<glyph horiz-adv-x="1845" d="M215 846q0 276 206 442t560 166h16l293 -709l504 709h205l-631 -866l-82 -588h-184l82 592l-314 700q-79 -9 -148.5 -28.5t-135 -55.5t-112 -84.5t-75 -120.5t-28.5 -159q0 -51 9.5 -98t24 -82t32.5 -66t36 -51.5t32.5 -35t24.5 -21.5l9 -7l-101 -104q-9 6 -24 18 t-53.5 54.5t-68 92t-53.5 131.5t-24 171z" />
<glyph horiz-adv-x="1335" d="M205 0l22 158l971 1140h-418q-158 0 -256 -72.5t-98 -207.5q0 -49 13 -98t25 -73l13 -24l-131 -69q-3 5 -8.5 13.5t-20 36t-25 57.5t-19.5 75t-9 90q0 199 143 313.5t392 114.5h579l39 -156l-964 -1140h796l-22 -158h-1022z" />
<glyph horiz-adv-x="1812" d="M215 852q0 102 33 193.5t104.5 171t176 137t256.5 90.5t337 33q78 0 158 -5.5t121 -11.5l41 -6l307 -1454h-193l-86 434h-587l-205 -434h-195l647 1321h-36q-339 0 -531 -123t-192 -354q0 -52 10.5 -99.5t25 -78.5t29 -55t24.5 -35l11 -11l-117 -88q-6 6 -15 16.5t-33 47 t-42.5 77t-33.5 104t-15 130.5zM956 590h484l-142 717zM1073 1784l107 108l264 -258l-86 -92z" />
<glyph horiz-adv-x="1812" d="M215 852q0 102 33 193.5t104.5 171t176 137t256.5 90.5t337 33q78 0 158 -5.5t121 -11.5l41 -6l307 -1454h-193l-86 434h-587l-205 -434h-195l647 1321h-36q-339 0 -531 -123t-192 -354q0 -52 10.5 -99.5t25 -78.5t29 -55t24.5 -35l11 -11l-117 -88q-6 6 -15 16.5t-33 47 t-42.5 77t-33.5 104t-15 130.5zM956 590h484l-142 717zM1182 1649l336 258l73 -109l-350 -242z" />
<glyph horiz-adv-x="1812" d="M215 852q0 102 33 193.5t104.5 171t176 137t256.5 90.5t337 33q78 0 158 -5.5t121 -11.5l41 -6l307 -1454h-193l-86 434h-587l-205 -434h-195l647 1321h-36q-339 0 -531 -123t-192 -354q0 -52 10.5 -99.5t25 -78.5t29 -55t24.5 -35l11 -11l-117 -88q-6 6 -15 16.5t-33 47 t-42.5 77t-33.5 104t-15 130.5zM956 590h484l-142 717zM1012 1626l327 258l256 -258l-84 -84l-196 174l-244 -174z" />
<glyph horiz-adv-x="1812" d="M215 852q0 102 33 193.5t104.5 171t176 137t256.5 90.5t337 33q78 0 158 -5.5t121 -11.5l41 -6l307 -1454h-193l-86 434h-587l-205 -434h-195l647 1321h-36q-339 0 -531 -123t-192 -354q0 -52 10.5 -99.5t25 -78.5t29 -55t24.5 -35l11 -11l-117 -88q-6 6 -15 16.5t-33 47 t-42.5 77t-33.5 104t-15 130.5zM956 590h484l-142 717zM993 1657q2 7 6.5 19t22 43t39.5 54.5t59.5 42.5t81.5 19q37 0 71 -15.5t55 -34.5t47.5 -34.5t51.5 -15.5q34 0 61 25t38 50l10 25l86 -51q-2 -7 -6.5 -19.5t-22.5 -43.5t-40 -54.5t-59.5 -43t-80.5 -19.5 q-45 0 -84 25t-72.5 50t-64.5 25q-35 0 -63 -25t-39 -50l-11 -25z" />
<glyph horiz-adv-x="1812" d="M215 852q0 102 33 193.5t104.5 171t176 137t256.5 90.5t337 33q78 0 158 -5.5t121 -11.5l41 -6l307 -1454h-193l-86 434h-587l-205 -434h-195l647 1321h-36q-339 0 -531 -123t-192 -354q0 -52 10.5 -99.5t25 -78.5t29 -55t24.5 -35l11 -11l-117 -88q-6 6 -15 16.5t-33 47 t-42.5 77t-33.5 104t-15 130.5zM956 590h484l-142 717zM1024 1700q0 50 30 80t83 30q41 0 62.5 -21t21.5 -58q0 -50 -29.5 -81.5t-81.5 -31.5q-42 0 -64 22t-22 60zM1432 1702q0 49 30.5 78.5t81.5 29.5q41 0 63.5 -21t22.5 -58q0 -50 -30 -81.5t-82 -31.5q-41 0 -63.5 22.5 t-22.5 61.5z" />
<glyph horiz-adv-x="1812" d="M215 852q0 102 33 193.5t104.5 171t176 137t256.5 90.5t337 33q78 0 158 -5.5t121 -11.5l41 -6l307 -1454h-193l-86 434h-587l-205 -434h-195l647 1321h-36q-339 0 -531 -123t-192 -354q0 -52 10.5 -99.5t25 -78.5t29 -55t24.5 -35l11 -11l-117 -88q-6 6 -15 16.5t-33 47 t-42.5 77t-33.5 104t-15 130.5zM956 590h484l-142 717zM1112 1735q0 104 68 165.5t174 61.5q84 0 134 -45.5t50 -124.5q0 -103 -68 -164t-172 -61q-87 0 -136.5 44.5t-49.5 123.5zM1221 1745q0 -41 23.5 -63.5t66.5 -22.5q55 0 87 32.5t32 90.5q0 42 -24 66t-67 24 q-54 0 -86 -34.5t-32 -92.5z" />
<glyph horiz-adv-x="2220" d="M215 852q0 102 33 193.5t104.5 171t176 137t256.5 90.5t337 33q78 0 158.5 -5.5t121.5 -11.5l42 -6h858l-21 -156h-745l-66 -467h664l-23 -153h-663l-35 -250q-4 -23 -4 -66q0 -123 85 -176t271 -53q87 0 174 8t127 14.5t56 10.5l-23 -154q-139 -35 -356 -35 q-520 0 -520 375q0 40 6 86h-453l-282 -438h-197l877 1319q-27 2 -80 2q-339 0 -531 -123t-192 -354q0 -52 10.5 -99.5t25 -78.5t29 -55t24.5 -35l11 -11l-117 -88q-6 6 -15 16.5t-33 47t-42.5 77t-33.5 104t-15 130.5zM874 592h377l105 743z" />
<glyph horiz-adv-x="1316" d="M201 565q0 138 25 266.5t81.5 247t138.5 206t204.5 140t271.5 52.5q114 0 201 -29.5t138 -80t76 -111.5t25 -130q0 -147 -87.5 -252t-232.5 -167l-65 118q205 98 205 289q0 89 -64.5 148t-206.5 59q-96 0 -176 -32.5t-133 -83.5t-93.5 -121.5t-63 -139t-36.5 -143.5 t-18 -127.5t-4 -98.5q0 -444 436 -444q74 0 153.5 13.5t121.5 27.5l43 14l22 -149q-16 -7 -45 -17t-121 -26.5t-188 -16.5q-29 0 -53 3l-35 -95q14 2 43 2q78 0 130 -34t52 -105q0 -87 -67 -142t-201 -55q-54 0 -100.5 10.5t-65.5 20.5l-20 10l38 99q56 -35 140 -35 q137 0 137 92q0 72 -113 72q-76 0 -127 -19l74 191q-95 17 -170 55.5t-125 91t-83 121.5t-47.5 144t-14.5 161z" />
<glyph horiz-adv-x="1333" d="M203 559q0 144 28 277t87.5 250t144.5 204t206 137t265 50q111 0 196.5 -25.5t136.5 -70.5t77 -100.5t26 -119.5q0 -56 -19.5 -111.5t-48.5 -95t-52.5 -64.5t-39.5 -36l-114 76q9 5 29 30t42.5 75.5t22.5 101.5q0 79 -64 131.5t-206 52.5q-92 0 -169.5 -30t-131 -78.5 t-95.5 -115t-66.5 -135.5t-40.5 -144.5t-22 -136t-6 -116.5q0 -430 395 -430q111 0 230 35l63 446h176l-96 -684q-25 -173 -137.5 -277t-314.5 -104q-53 0 -101 7.5t-70 14.5l-22 7l31 137q67 -20 153 -20q252 0 285 233l10 78q-107 -28 -229 -28t-218.5 30.5t-159.5 83.5 t-104.5 127.5t-59 157.5t-17.5 180zM713 1812v13l106 39q0 -6 0.5 -16.5t8.5 -37.5t22.5 -47.5t46.5 -37.5t76 -17t80 16t56 39t33.5 46t17.5 39l5 16l101 -39q-3 -10 -8.5 -26.5t-29.5 -58.5t-56 -74t-90 -58.5t-128 -26.5q-51 0 -92 13.5t-65.5 35t-42 47.5t-25.5 52 t-12 47.5t-4 35.5z" />
<glyph horiz-adv-x="2033" d="M215 821q0 72 15.5 138t53 133t95.5 123t148.5 105t206.5 83.5t275 54t349 19.5q114 0 208 -16.5t163 -45t122.5 -71t88 -92t56.5 -109.5t31 -121t9 -131q0 -95 -10.5 -183.5t-36.5 -181t-66 -171.5t-104 -150t-145.5 -120.5t-194.5 -78.5t-248 -29q-93 0 -198.5 9.5 t-164.5 19.5l-59 10l92 654h-76l21 149h76l67 479q-90 -9 -172.5 -29t-165.5 -58.5t-143.5 -90.5t-98.5 -130t-38 -173q0 -65 17.5 -123.5t43 -95.5t51 -64t43.5 -39l17 -12l-103 -104q-9 5 -24 15.5t-54 50t-68.5 86t-54 124.5t-24.5 166zM1012 145q114 -12 223 -12 q93 0 175 19t164.5 70.5t141.5 131.5t96 212.5t37 303.5q0 126 -34 215t-100.5 140t-152 73.5t-200.5 22.5q-92 0 -186 -4l-70 -498h367l-21 -149h-367z" />
<glyph horiz-adv-x="1867" d="M215 846q0 277 214 442.5t591 165.5h930l-21 -156h-745l-66 -467h664l-23 -153h-663l-35 -250q-4 -23 -4 -66q0 -123 85 -176t271 -53q87 0 174 8t126.5 14.5t55.5 10.5l-22 -154q-139 -35 -356 -35q-521 0 -521 371q0 33 7 84l120 866q-91 0 -175 -13t-168 -46 t-145.5 -83t-99.5 -130t-38 -182q0 -51 9.5 -98t24 -82t32.5 -66t36 -51.5t32.5 -35t24.5 -21.5l9 -7l-101 -104q-9 6 -24 18t-53.5 54.5t-68 92t-53.5 131.5t-24 171zM1257 1784l107 108l264 -258l-88 -92z" />
<glyph horiz-adv-x="1867" d="M215 846q0 277 214 442.5t591 165.5h930l-21 -156h-745l-66 -467h664l-23 -153h-663l-35 -250q-4 -23 -4 -66q0 -123 85 -176t271 -53q87 0 174 8t126.5 14.5t55.5 10.5l-22 -154q-139 -35 -356 -35q-521 0 -521 371q0 33 7 84l120 866q-91 0 -175 -13t-168 -46 t-145.5 -83t-99.5 -130t-38 -182q0 -51 9.5 -98t24 -82t32.5 -66t36 -51.5t32.5 -35t24.5 -21.5l9 -7l-101 -104q-9 6 -24 18t-53.5 54.5t-68 92t-53.5 131.5t-24 171zM1409 1634l336 258l74 -108l-351 -242z" />
<glyph horiz-adv-x="1867" d="M215 846q0 277 214 442.5t591 165.5h930l-21 -156h-745l-66 -467h664l-23 -153h-663l-35 -250q-4 -23 -4 -66q0 -123 85 -176t271 -53q87 0 174 8t126.5 14.5t55.5 10.5l-22 -154q-139 -35 -356 -35q-521 0 -521 371q0 33 7 84l120 866q-91 0 -175 -13t-168 -46 t-145.5 -83t-99.5 -130t-38 -182q0 -51 9.5 -98t24 -82t32.5 -66t36 -51.5t32.5 -35t24.5 -21.5l9 -7l-101 -104q-9 6 -24 18t-53.5 54.5t-68 92t-53.5 131.5t-24 171zM1214 1626l328 258l256 -258l-84 -84l-196 174l-244 -174z" />
<glyph horiz-adv-x="1867" d="M215 846q0 277 214 442.5t591 165.5h930l-21 -156h-745l-66 -467h664l-23 -153h-663l-35 -250q-4 -23 -4 -66q0 -123 85 -176t271 -53q87 0 174 8t126.5 14.5t55.5 10.5l-22 -154q-139 -35 -356 -35q-521 0 -521 371q0 33 7 84l120 866q-91 0 -175 -13t-168 -46 t-145.5 -83t-99.5 -130t-38 -182q0 -51 9.5 -98t24 -82t32.5 -66t36 -51.5t32.5 -35t24.5 -21.5l9 -7l-101 -104q-9 6 -24 18t-53.5 54.5t-68 92t-53.5 131.5t-24 171zM1217 1700q0 50 29.5 80t82.5 30q41 0 62.5 -21t21.5 -58q0 -51 -29.5 -82t-80.5 -31q-42 0 -64 22 t-22 60zM1624 1702q0 49 31 78.5t82 29.5q41 0 63.5 -21t22.5 -58q0 -50 -30.5 -81.5t-82.5 -31.5q-41 0 -63.5 22.5t-22.5 61.5z" />
<glyph horiz-adv-x="1177" d="M215 846q0 277 214 442.5t591 165.5h186l-205 -1454h-186l182 1298q-91 0 -175 -13t-168 -46t-145.5 -83t-99.5 -130t-38 -182q0 -51 9.5 -98t24 -82t32.5 -66t36 -51.5t32.5 -35t24.5 -21.5l9 -7l-101 -104q-9 6 -24 18t-53.5 54.5t-68 92t-53.5 131.5t-24 171z M829 1784l107 108l264 -258l-88 -92z" />
<glyph horiz-adv-x="1177" d="M215 846q0 277 214 442.5t591 165.5h186l-205 -1454h-186l182 1298q-91 0 -175 -13t-168 -46t-145.5 -83t-99.5 -130t-38 -182q0 -51 9.5 -98t24 -82t32.5 -66t36 -51.5t32.5 -35t24.5 -21.5l9 -7l-101 -104q-9 6 -24 18t-53.5 54.5t-68 92t-53.5 131.5t-24 171z M1001 1634l336 258l76 -108l-352 -242z" />
<glyph horiz-adv-x="1177" d="M215 846q0 277 214 442.5t591 165.5h186l-205 -1454h-186l182 1298q-91 0 -175 -13t-168 -46t-145.5 -83t-99.5 -130t-38 -182q0 -51 9.5 -98t24 -82t32.5 -66t36 -51.5t32.5 -35t24.5 -21.5l9 -7l-101 -104q-9 6 -24 18t-53.5 54.5t-68 92t-53.5 131.5t-24 171z M791 1626l327 258l256 -258l-84 -84l-196 174l-244 -174z" />
<glyph horiz-adv-x="1177" d="M215 846q0 277 214 442.5t591 165.5h186l-205 -1454h-186l182 1298q-91 0 -175 -13t-168 -46t-145.5 -83t-99.5 -130t-38 -182q0 -51 9.5 -98t24 -82t32.5 -66t36 -51.5t32.5 -35t24.5 -21.5l9 -7l-101 -104q-9 6 -24 18t-53.5 54.5t-68 92t-53.5 131.5t-24 171z M782 1700q0 50 29.5 80t81.5 30q41 0 63.5 -21t22.5 -58q0 -50 -30.5 -81.5t-82.5 -31.5q-40 0 -62 22t-22 60zM1190 1700q0 50 30 80t83 30q41 0 62 -21t21 -58q0 -51 -29.5 -82t-80.5 -31q-42 0 -64 22t-22 60z" />
<glyph horiz-adv-x="1177" d="M215 846q0 277 214 442.5t591 165.5h186l-205 -1454h-186l182 1298q-91 0 -175 -13t-168 -46t-145.5 -83t-99.5 -130t-38 -182q0 -51 9.5 -98t24 -82t32.5 -66t36 -51.5t32.5 -35t24.5 -21.5l9 -7l-101 -104q-9 6 -24 18t-53.5 54.5t-68 92t-53.5 131.5t-24 171z M1042 1743q0 53 33.5 87t89.5 34q45 0 70 -24.5t25 -65.5q0 -53 -33.5 -86t-89.5 -33q-44 0 -69.5 24t-25.5 64z" />
<glyph horiz-adv-x="2091" d="M215 846q0 277 214 442.5t591 165.5h217l551 -1182l12 127l148 1055h180l-205 -1454h-209l-559 1194l-6 -123l-152 -1071h-182l182 1298q-91 0 -175 -13t-168 -46t-145.5 -83t-99.5 -130t-38 -182q0 -51 9.5 -98t24 -82t32.5 -66t36 -51.5t32.5 -35t24.5 -21.5l9 -7 l-101 -104q-9 6 -24 18t-53.5 54.5t-68 92t-53.5 131.5t-24 171zM1298 1657q2 7 6.5 19t21.5 43t38.5 54.5t59 42.5t81.5 19q38 0 72 -15.5t55 -34.5t47.5 -34.5t51.5 -15.5q34 0 61.5 25t37.5 50l11 25l84 -51q-2 -7 -6.5 -19.5t-22 -43.5t-39 -54.5t-59 -43t-80.5 -19.5 q-37 0 -70 15.5t-54 34.5t-47.5 34.5t-51.5 15.5q-34 0 -61.5 -25t-38.5 -50l-11 -25z" />
<glyph horiz-adv-x="1423" d="M205 535q0 180 33 340.5t89.5 278.5t128 201.5t152.5 123.5l68 -88q-81 -67 -139 -169t-88.5 -220t-44 -232t-13.5 -233q0 -67 8 -122t31.5 -109t61.5 -91t101.5 -59.5t147.5 -22.5q92 0 167 32t126 83t89.5 125t60 148t34.5 163t17 159t4 146q0 332 -240 332 q-80 0 -140.5 -46.5t-90 -117.5t-29.5 -153q0 -96 45.5 -182.5t133.5 -141.5l-93 -113q-115 64 -178 187.5t-63 249.5q0 123 50 229.5t149.5 175t228.5 68.5q96 0 168.5 -26t118 -69t74 -106.5t39.5 -131.5t11 -151q0 -114 -9 -215.5t-31 -206t-56.5 -190.5t-89 -162.5 t-125 -129t-167.5 -82.5t-214 -30q-120 0 -213 31.5t-151 84t-95.5 126t-52 150.5t-14.5 166zM655 1784l105 108l264 -258l-86 -92z" />
<glyph horiz-adv-x="1423" d="M205 535q0 180 33 340.5t89.5 278.5t128 201.5t152.5 123.5l68 -88q-81 -67 -139 -169t-88.5 -220t-44 -232t-13.5 -233q0 -67 8 -122t31.5 -109t61.5 -91t101.5 -59.5t147.5 -22.5q92 0 167 32t126 83t89.5 125t60 148t34.5 163t17 159t4 146q0 332 -240 332 q-80 0 -140.5 -46.5t-90 -117.5t-29.5 -153q0 -96 45.5 -182.5t133.5 -141.5l-93 -113q-115 64 -178 187.5t-63 249.5q0 123 50 229.5t149.5 175t228.5 68.5q96 0 168.5 -26t118 -69t74 -106.5t39.5 -131.5t11 -151q0 -114 -9 -215.5t-31 -206t-56.5 -190.5t-89 -162.5 t-125 -129t-167.5 -82.5t-214 -30q-120 0 -213 31.5t-151 84t-95.5 126t-52 150.5t-14.5 166zM829 1651l338 258l74 -109l-350 -241z" />
<glyph horiz-adv-x="1423" d="M205 535q0 180 33 340.5t89.5 278.5t128 201.5t152.5 123.5l68 -88q-81 -67 -139 -169t-88.5 -220t-44 -232t-13.5 -233q0 -67 8 -122t31.5 -109t61.5 -91t101.5 -59.5t147.5 -22.5q92 0 167 32t126 83t89.5 125t60 148t34.5 163t17 159t4 146q0 332 -240 332 q-80 0 -140.5 -46.5t-90 -117.5t-29.5 -153q0 -96 45.5 -182.5t133.5 -141.5l-93 -113q-115 64 -178 187.5t-63 249.5q0 123 50 229.5t149.5 175t228.5 68.5q96 0 168.5 -26t118 -69t74 -106.5t39.5 -131.5t11 -151q0 -114 -9 -215.5t-31 -206t-56.5 -190.5t-89 -162.5 t-125 -129t-167.5 -82.5t-214 -30q-120 0 -213 31.5t-151 84t-95.5 126t-52 150.5t-14.5 166zM651 1626l328 258l254 -258l-84 -84l-195 174l-243 -174z" />
<glyph horiz-adv-x="1423" d="M205 535q0 180 33 340.5t89.5 278.5t128 201.5t152.5 123.5l68 -88q-81 -67 -139 -169t-88.5 -220t-44 -232t-13.5 -233q0 -67 8 -122t31.5 -109t61.5 -91t101.5 -59.5t147.5 -22.5q92 0 167 32t126 83t89.5 125t60 148t34.5 163t17 159t4 146q0 332 -240 332 q-80 0 -140.5 -46.5t-90 -117.5t-29.5 -153q0 -96 45.5 -182.5t133.5 -141.5l-93 -113q-115 64 -178 187.5t-63 249.5q0 123 50 229.5t149.5 175t228.5 68.5q96 0 168.5 -26t118 -69t74 -106.5t39.5 -131.5t11 -151q0 -114 -9 -215.5t-31 -206t-56.5 -190.5t-89 -162.5 t-125 -129t-167.5 -82.5t-214 -30q-120 0 -213 31.5t-151 84t-95.5 126t-52 150.5t-14.5 166zM631 1657q2 7 6.5 19t22 43t39 54.5t59 42.5t80.5 19q48 0 88 -25t73 -50t64 -25q34 0 61.5 25t38.5 50l11 25l83 -51q-2 -7 -6.5 -19.5t-22 -43.5t-38.5 -54.5t-58.5 -43 t-80.5 -19.5q-46 0 -86 25t-73.5 50t-64.5 25q-34 0 -61.5 -25t-37.5 -50l-11 -25z" />
<glyph horiz-adv-x="1423" d="M205 535q0 180 33 340.5t89.5 278.5t128 201.5t152.5 123.5l68 -88q-81 -67 -139 -169t-88.5 -220t-44 -232t-13.5 -233q0 -67 8 -122t31.5 -109t61.5 -91t101.5 -59.5t147.5 -22.5q92 0 167 32t126 83t89.5 125t60 148t34.5 163t17 159t4 146q0 332 -240 332 q-80 0 -140.5 -46.5t-90 -117.5t-29.5 -153q0 -96 45.5 -182.5t133.5 -141.5l-93 -113q-115 64 -178 187.5t-63 249.5q0 123 50 229.5t149.5 175t228.5 68.5q96 0 168.5 -26t118 -69t74 -106.5t39.5 -131.5t11 -151q0 -114 -9 -215.5t-31 -206t-56.5 -190.5t-89 -162.5 t-125 -129t-167.5 -82.5t-214 -30q-120 0 -213 31.5t-151 84t-95.5 126t-52 150.5t-14.5 166zM639 1700q0 50 30 80t83 30q41 0 62.5 -21t21.5 -58q0 -50 -29.5 -81.5t-81.5 -31.5q-42 0 -64 22t-22 60zM1047 1702q0 49 30.5 78.5t81.5 29.5q41 0 63.5 -21t22.5 -58 q0 -50 -30 -81.5t-82 -31.5q-41 0 -63.5 22.5t-22.5 61.5z" />
<glyph horiz-adv-x="1423" d="M205 535q0 180 33 340.5t89.5 278.5t128 201.5t152.5 123.5l68 -88q-81 -67 -139 -169t-88.5 -220t-44 -232t-13.5 -233q0 -197 78 -297l569 1079q-12 2 -39 2q-80 0 -140.5 -46.5t-90 -117.5t-29.5 -153l2 -25l-129 -23q-4 21 -4 50q0 92 26 176t75 150t127.5 105.5 t175.5 39.5q46 0 106 -11l88 168l129 -57l-84 -160q172 -110 172 -424q0 -114 -9 -215.5t-31 -206t-56.5 -190.5t-89 -162.5t-125 -129t-167.5 -82.5t-214 -30q-122 0 -223 33l-109 -205l-129 60l113 213q-178 140 -178 457zM586 158q67 -25 155 -25q92 0 167 32t126 83 t89.5 125t60 148t34.5 163t17 159t4 146q0 184 -74 266z" />
<glyph horiz-adv-x="1230" d="M182 371q0 46 9.5 89.5t22.5 72.5t26 51t22 32l10 11l144 -43q-7 -8 -17.5 -24t-27.5 -67.5t-17 -107.5q0 -124 86.5 -188t231.5 -64q142 0 232.5 70t90.5 188q0 42 -11 77.5t-34.5 64t-48.5 50.5t-66 43.5t-73 35.5t-82 34t-82.5 34.5t-76 37t-71.5 44t-58 52.5 t-47.5 64.5t-28.5 78.5t-11 97q0 79 28.5 142.5t76.5 106t114 71t138.5 41t152.5 12.5q108 0 202 -20.5t135 -40.5l40 -21l-70 -133q-11 7 -34 16.5t-102.5 26t-170.5 16.5q-328 0 -328 -211q0 -32 7.5 -59t18.5 -47.5t33 -40t41 -32t54 -28.5t60 -25.5t69 -25.5 q70 -26 124.5 -52t111 -65t93 -83t60 -105.5t23.5 -132.5q0 -202 -143.5 -318.5t-381.5 -118.5l-34 -92q14 2 43 2q78 0 130 -34t52 -105q0 -87 -67 -142t-201 -55q-54 0 -100.5 10.5t-66.5 20.5l-20 10l39 99q56 -35 139 -35q138 0 138 92q0 72 -113 72q-76 0 -127 -19 l72 185q-169 27 -264 131t-95 254z" />
<glyph horiz-adv-x="2086" d="M215 846q0 277 214 442.5t591 165.5h184l-127 -903q-8 -57 -8 -117q0 -76 19 -132t48 -88t73.5 -51t86 -24.5t95.5 -5.5q373 0 432 418l127 903h184l-125 -883q-23 -165 -73.5 -279.5t-131.5 -184t-186 -100t-248 -30.5q-238 0 -361.5 112.5t-123.5 340.5q0 77 10 141 l102 727q-91 0 -175 -13t-168 -46t-145.5 -83t-99.5 -130t-38 -182q0 -51 9.5 -98t24 -82t32.5 -66t36 -51.5t32.5 -35t24.5 -21.5l9 -7l-101 -104q-9 6 -24 18t-53.5 54.5t-68 92t-53.5 131.5t-24 171zM1319 1784l104 108l265 -258l-86 -92z" />
<glyph horiz-adv-x="2086" d="M215 846q0 277 214 442.5t591 165.5h184l-127 -903q-8 -57 -8 -117q0 -76 19 -132t48 -88t73.5 -51t86 -24.5t95.5 -5.5q373 0 432 418l127 903h184l-125 -883q-23 -165 -73.5 -279.5t-131.5 -184t-186 -100t-248 -30.5q-238 0 -361.5 112.5t-123.5 340.5q0 77 10 141 l102 727q-91 0 -175 -13t-168 -46t-145.5 -83t-99.5 -130t-38 -182q0 -51 9.5 -98t24 -82t32.5 -66t36 -51.5t32.5 -35t24.5 -21.5l9 -7l-101 -104q-9 6 -24 18t-53.5 54.5t-68 92t-53.5 131.5t-24 171zM1507 1634l336 258l76 -108l-350 -242z" />
<glyph horiz-adv-x="2086" d="M215 846q0 277 214 442.5t591 165.5h184l-127 -903q-8 -57 -8 -117q0 -76 19 -132t48 -88t73.5 -51t86 -24.5t95.5 -5.5q373 0 432 418l127 903h184l-125 -883q-23 -165 -73.5 -279.5t-131.5 -184t-186 -100t-248 -30.5q-238 0 -361.5 112.5t-123.5 340.5q0 77 10 141 l102 727q-91 0 -175 -13t-168 -46t-145.5 -83t-99.5 -130t-38 -182q0 -51 9.5 -98t24 -82t32.5 -66t36 -51.5t32.5 -35t24.5 -21.5l9 -7l-101 -104q-9 6 -24 18t-53.5 54.5t-68 92t-53.5 131.5t-24 171zM1305 1626l327 258l256 -258l-84 -84l-196 174l-244 -174z" />
<glyph horiz-adv-x="2086" d="M215 846q0 277 214 442.5t591 165.5h184l-127 -903q-8 -57 -8 -117q0 -76 19 -132t48 -88t73.5 -51t86 -24.5t95.5 -5.5q373 0 432 418l127 903h184l-125 -883q-23 -165 -73.5 -279.5t-131.5 -184t-186 -100t-248 -30.5q-238 0 -361.5 112.5t-123.5 340.5q0 77 10 141 l102 727q-91 0 -175 -13t-168 -46t-145.5 -83t-99.5 -130t-38 -182q0 -51 9.5 -98t24 -82t32.5 -66t36 -51.5t32.5 -35t24.5 -21.5l9 -7l-101 -104q-9 6 -24 18t-53.5 54.5t-68 92t-53.5 131.5t-24 171zM1300 1700q0 50 30 80t83 30q41 0 63.5 -21t22.5 -58 q0 -50 -30.5 -81.5t-82.5 -31.5q-42 0 -64 22t-22 60zM1710 1700q0 50 30 80t83 30q41 0 62.5 -21t21.5 -58q0 -50 -29.5 -81.5t-81.5 -31.5q-42 0 -64 22t-22 60z" />
<glyph horiz-adv-x="1845" d="M215 846q0 276 206 442t560 166h16l293 -709l504 709h205l-631 -866l-82 -588h-184l82 592l-314 700q-79 -9 -148.5 -28.5t-135 -55.5t-112 -84.5t-75 -120.5t-28.5 -159q0 -51 9.5 -98t24 -82t32.5 -66t36 -51.5t32.5 -35t24.5 -21.5l9 -7l-101 -104q-9 6 -24 18 t-53.5 54.5t-68 92t-53.5 131.5t-24 171zM1313 1634l338 258l73 -108l-350 -242z" />
<glyph horiz-adv-x="2062" d="M215 -141l66 127q7 -6 20 -15t58.5 -24t97.5 -15q64 0 118.5 21t97 55t87 96t79.5 124t83 159l460 934h-41q-339 0 -531 -123t-192 -354q0 -52 10.5 -99.5t25 -78.5t29.5 -55t25 -35l11 -11l-117 -88q-6 6 -15 16.5t-33 47t-42.5 77t-33.5 104t-15 130.5q0 102 33 193.5 t104.5 171t176 137t256.5 90.5t337 33q78 0 158.5 -5.5t121.5 -11.5l42 -6l307 -1454h-193l-86 434h-587l-37 -80q-47 -99 -74 -151t-74 -132t-89 -122.5t-100.5 -87.5t-128.5 -64.5t-153 -19.5q-77 0 -142.5 20.5t-92.5 40.5zM1206 590h484l-142 715z" />
<glyph horiz-adv-x="1959" d="M215 821q0 72 15.5 138t53 133t95 123t148 105t206 83.5t273.5 54t346 19.5q148 0 255.5 -17t188.5 -55t121.5 -104t40.5 -160q0 -302 -311 -387q137 -34 202.5 -125t65.5 -223q0 -259 -183.5 -393t-531.5 -134q-138 0 -261.5 19t-201.5 46t-136.5 54t-83.5 46l-25 19 l79 132q9 -7 26.5 -19.5t81 -42.5t138.5 -51l172 1218q-90 -9 -173 -29.5t-166 -59t-143.5 -91t-98 -130.5t-37.5 -173q0 -65 17.5 -123.5t43 -95.5t51 -64t43.5 -39l17 -12l-103 -104q-9 5 -24 15.5t-54 50t-68.5 86t-54 124.5t-24.5 166zM999 49q100 -14 215 -14 q515 0 515 371q0 266 -332 266h-310zM1108 815h260q399 0 399 295q0 52 -17.5 89.5t-49 61t-83 37t-110 18.5t-139.5 5q-95 0 -190 -10z" />
<glyph horiz-adv-x="1353" d="M188 475q0 143 27.5 282.5t87.5 270t146 230t213.5 159.5t279.5 60q202 0 315 -97.5t113 -257.5q0 -145 -91 -250.5t-235 -164.5l-88 106q108 47 172 124t64 171q0 91 -64 152t-200 61q-101 0 -184.5 -37.5t-139.5 -96.5t-99 -140.5t-67 -161.5t-39 -167.5t-19.5 -150.5 t-4.5 -118q0 -81 11.5 -150.5t42 -137.5t78.5 -115t126.5 -76t181.5 -29q73 0 143.5 11.5t118.5 28t85 33t55 28.5l18 11l43 -135q-8 -5 -22 -14t-61.5 -31.5t-99 -40t-131.5 -31.5t-161 -14q-158 0 -277.5 50.5t-192.5 143.5t-109 216.5t-36 277.5z" />
<glyph horiz-adv-x="2033" d="M215 821q0 72 15.5 138t53 133t95.5 123t148.5 105t206.5 83.5t275 54t349 19.5q120 0 216.5 -16.5t184.5 -59t147 -111t93.5 -176.5t34.5 -250q0 -493 -215 -739t-654 -246q-122 0 -236 18.5t-189.5 44.5t-134.5 52t-86 44l-27 19l79 136q9 -7 27.5 -19t82 -41 t136.5 -49l172 1214q-91 -9 -173.5 -29t-165.5 -58.5t-143.5 -90.5t-98 -130t-37.5 -173q0 -65 17.5 -123.5t43 -95.5t51 -64t43.5 -39l17 -12l-103 -104q-9 5 -24 15.5t-54 50t-68.5 86t-54 124.5t-24.5 166zM997 51q98 -16 191 -16q74 0 139 9.5t133 34t123.5 64 t105.5 103.5t84 148.5t54 202.5t20 261q0 132 -31 222t-95 143t-153 75.5t-216 22.5q-112 0 -176 -6z" />
<glyph horiz-adv-x="1867" d="M215 846q0 277 214 442.5t591 165.5h930l-23 -156h-743l-74 -522h662l-21 -153h-664l-34 -252q-9 -68 -9 -99q0 -73 20 -126.5t52 -84.5t82 -50t100.5 -25t116.5 -6q117 0 216 21t139 41l40 21l33 -141q-7 -4 -20 -11t-57.5 -25t-93 -32t-124.5 -25t-155 -11 q-83 0 -156 12t-143.5 44t-121 81t-81.5 128t-31 181q0 59 8 111l129 923q-91 0 -175 -13t-168 -46t-145.5 -83t-99.5 -130t-38 -182q0 -51 9.5 -98t24 -82t32.5 -66t36 -51.5t32.5 -35t24.5 -21.5l9 -7l-101 -104q-9 6 -24 18t-53.5 54.5t-68 92t-53.5 131.5t-24 171z" />
<glyph horiz-adv-x="1830" d="M215 -156l51 138q9 -6 25.5 -14t73 -22t118.5 -14q182 0 274 111t124 340l129 915q-91 0 -175 -13t-168 -46t-145.5 -83t-100 -130t-38.5 -182q0 -51 9.5 -98t24 -82t32.5 -66t36 -51.5t32.5 -35t24.5 -21.5l9 -7l-100 -104q-5 3 -13 9t-31 27.5t-44.5 46.5t-47 66 t-44.5 85.5t-31.5 106t-12.5 126.5q0 277 214 442.5t591 165.5h920l-23 -156h-735l-72 -507h647l-22 -158h-647l-35 -252q-21 -145 -60 -252t-105 -188t-166.5 -122.5t-235.5 -41.5q-50 0 -98 7t-80 16.5t-57 19.5t-37 17z" />
<glyph horiz-adv-x="1333" d="M186 -348l70 131q5 -4 14.5 -11.5t41.5 -26t68.5 -32.5t94.5 -25.5t119 -11.5q170 0 272 85t125 251l2 19q-107 -29 -225 -29q-122 0 -218.5 29.5t-161 80t-107.5 122.5t-61.5 153.5t-18.5 175.5q0 144 29 277.5t88.5 249.5t144.5 202t205 135.5t262 49.5 q217 0 327.5 -90.5t110.5 -225.5q0 -56 -20 -111.5t-49.5 -95.5t-52 -64t-38.5 -36l-114 76q98 98 98 207q0 78 -66 131t-208 53q-91 0 -167.5 -28.5t-129.5 -75.5t-95.5 -111.5t-68 -132t-42 -141t-22.5 -135t-6 -117.5q0 -422 401 -422q109 0 228 35l59 423h178l-84 -598 q-14 -103 -55.5 -190t-110.5 -156.5t-174 -109t-235 -39.5q-75 0 -144.5 13.5t-115.5 32.5t-81 37.5t-51 31.5z" />
<glyph horiz-adv-x="2093" d="M215 -156l51 138q9 -6 25.5 -14t73 -22t118.5 -14q182 0 274 111t124 340l129 915q-91 0 -175 -13t-168 -46t-145.5 -83t-100 -130t-38.5 -182q0 -51 9.5 -98t24 -82t32.5 -66t36 -51.5t32.5 -35t24.5 -21.5l9 -7l-100 -104q-5 3 -13 9t-31 27.5t-44.5 46.5t-47 66 t-44.5 85.5t-31.5 106t-12.5 126.5q0 277 214 442.5t591 165.5h185l-89 -627h727l89 627h186l-205 -1454h-186l94 668h-727l-41 -287q-21 -145 -60 -252t-105 -188t-166.5 -122.5t-235.5 -41.5q-50 0 -98 7t-80 16.5t-57 19.5t-37 17z" />
<glyph horiz-adv-x="1148" d="M215 887q0 276 204 421.5t578 145.5h185l-146 -1038q-29 -199 -153 -319t-322 -120q-65 0 -123 12t-83 24l-25 12l67 145q68 -37 170 -37q122 0 194.5 78.5t90.5 206.5l123 880h-23q-581 0 -581 -413q0 -69 20.5 -136.5t40.5 -100.5l21 -32l-123 -77q-5 6 -12.5 16 t-27.5 45t-35 72.5t-27.5 96t-12.5 118.5z" />
<glyph horiz-adv-x="1255" d="M90 -57q0 60 13.5 117t33 95.5t39.5 68t34 43.5l13 14l135 -62q-4 -4 -11 -11.5t-25 -33.5t-32 -54.5t-25 -72t-11 -88.5q0 -130 81 -205.5t210 -75.5q135 0 236 93t130 295l172 1232q-95 0 -179.5 -12.5t-167.5 -44t-142.5 -80t-96 -126t-36.5 -177.5q0 -68 17.5 -127.5 t43 -96t51 -63t43.5 -37.5l17 -10l-107 -100q-9 5 -24 15t-53 48t-67 83t-53 121.5t-24 162.5q0 270 210 435t568 165h209l-194 -1380q-18 -125 -60.5 -223.5t-98 -158.5t-126 -99.5t-137.5 -54.5t-139 -15q-202 0 -324.5 115.5t-122.5 304.5z" />
<glyph horiz-adv-x="1892" d="M215 846q0 277 214 442.5t591 165.5h186l-100 -709l696 709h242l-737 -749l393 -566q45 -64 72.5 -102.5t71.5 -94t77.5 -88.5t80.5 -71t90.5 -58.5t98 -34.5t111.5 -14q47 0 92 8t66 16l22 9l19 -139q-9 -5 -26 -13t-77.5 -21t-128.5 -13q-83 0 -156 16.5t-138 52.5 t-119 78t-112 108t-103.5 125.5t-106.5 147.5l-436 627l-97 -678h-186l182 1298q-91 0 -175 -13t-168 -46t-145.5 -83t-99.5 -130t-38 -182q0 -51 9.5 -98t24 -82t32.5 -66t36 -51.5t32.5 -35t24.5 -21.5l9 -7l-101 -104q-9 6 -24 18t-53.5 54.5t-68 92t-53.5 131.5t-24 171 z" />
<glyph horiz-adv-x="1765" d="M215 846q0 277 214 442.5t591 165.5h186l-157 -1122q-7 -61 -7 -94q0 -77 22.5 -130t65.5 -81t96 -40t124 -12q63 0 122.5 8.5t99.5 21t70.5 25t45.5 20.5l14 9l33 -143q-6 -4 -18 -10.5t-52 -23.5t-83 -30t-110.5 -23.5t-136.5 -10.5q-77 0 -144 12t-130.5 41.5 t-108 75.5t-71.5 118t-27 164q0 58 8 107l135 962q-91 0 -175 -13t-168 -46t-145.5 -83t-99.5 -130t-38 -182q0 -51 9.5 -98t24 -82t32.5 -66t36 -51.5t32.5 -35t24.5 -21.5l9 -7l-101 -104q-9 6 -24 18t-53.5 54.5t-68 92t-53.5 131.5t-24 171z" />
<glyph horiz-adv-x="2414" d="M215 -156l51 138q8 -6 24.5 -14t71.5 -22t117 -14q92 0 158.5 29.5t113 92.5t76 142t56.5 197l200 905h-30q-91 0 -175 -13t-168 -46t-145.5 -83t-100 -130t-38.5 -182q0 -51 9.5 -98t24 -82t32.5 -66t36 -51.5t32.5 -35t23.5 -21.5l10 -7l-100 -104q-5 3 -13 9t-31 27.5 t-44.5 46.5t-47 66t-44.5 85.5t-31.5 106t-12.5 126.5q0 277 214 442.5t591 165.5h258l271 -1020l557 1020h213l-82 -1454h-187l56 981l26 199l-96 -199l-412 -750h-209l-202 750l-31 176l-172 -776q-26 -117 -57 -205.5t-78 -166t-107 -127t-144.5 -77.5t-189.5 -28 q-72 0 -140.5 16.5t-100.5 33.5z" />
<glyph horiz-adv-x="2099" d="M215 -156l51 138q8 -6 24.5 -14t71.5 -22t117 -14q182 0 274 109.5t124 335.5l127 921q-91 0 -175 -13t-168 -46t-145.5 -83t-100 -130t-38.5 -182q0 -51 9.5 -98t24 -82t32.5 -66t36 -51.5t32.5 -35t24.5 -21.5l9 -7l-101 -104q-9 6 -24 18t-53.5 54.5t-68 92 t-53.5 131.5t-24 171q0 277 214 442.5t591 165.5h217l551 -1182l12 127l148 1055h180l-205 -1454h-209l-559 1194l-4 -123l-96 -690q-20 -142 -59 -249t-104 -189t-164 -124t-230 -42q-53 0 -102.5 7t-82 16.5t-57 19.5t-36.5 17z" />
<glyph horiz-adv-x="1916" d="M215 934q0 81 19 155t49.5 127.5t67 98.5t73 74t67 49.5t49.5 29.5l19 9l80 -109q-11 -5 -29 -15t-64 -47t-81.5 -82.5t-64.5 -122.5t-29 -165q0 -152 93.5 -242.5t235.5 -109.5q3 137 25 260t72.5 241t126 203t192.5 137t264 52q266 0 401.5 -147.5t135.5 -414.5 q0 -99 -9.5 -192.5t-33 -188.5t-58.5 -176t-89 -152t-122.5 -121t-161.5 -79t-202 -29q-490 0 -536 463q-227 15 -358.5 155.5t-131.5 338.5zM887 588q278 34 436 212.5t158 475.5v33q-49 12 -111 12q-86 0 -157 -28t-119 -73.5t-85.5 -109.5t-59.5 -128.5t-36 -140 t-19.5 -134t-6.5 -119.5zM891 444q7 -72 28 -126t61 -97t107 -65.5t160 -22.5q88 0 161 32t122 83t87 122t59 142t34.5 149.5t18 137.5t4.5 114q0 219 -103 322v-16q0 -61 -10.5 -124.5t-35.5 -136t-62.5 -139t-97 -130t-134 -113t-177 -85t-222.5 -47.5z" />
<glyph horiz-adv-x="1937" d="M215 -156l51 138q9 -6 25.5 -14t73 -22t118.5 -14q182 0 274 111t124 340l129 917q-91 -9 -174 -29t-166.5 -58.5t-144 -91t-98.5 -131t-38 -173.5q0 -65 17.5 -123.5t43 -95.5t51 -64t43.5 -39l17 -12l-102 -104q-9 5 -24.5 15.5t-54.5 50t-68.5 86t-54 124.5t-24.5 166 q0 72 15.5 138t53 133t95 123t148 105t206 83.5t273.5 54t346 19.5q325 0 478 -97t153 -303q0 -93 -19.5 -172.5t-67.5 -154t-122.5 -126.5t-191.5 -83t-267 -31q-43 0 -105.5 2.5t-103.5 5.5l-41 2l-18 -139q-21 -145 -60 -252t-105 -188t-166.5 -122.5t-235.5 -41.5 q-50 0 -98 7t-80 16.5t-57 19.5t-37 17zM1106 674q100 -8 244 -8q232 0 348.5 93.5t116.5 295.5q0 147 -105 206.5t-328 59.5q-80 0 -186 -4z" />
<glyph horiz-adv-x="1406" d="M231 662q0 96 15 189t46 186t84 171.5t123 139t169 95t217 34.5q114 0 204.5 -29t150.5 -79.5t99.5 -122t56.5 -153t17 -175.5q0 -121 -16 -236t-54.5 -231t-97 -207t-151 -157.5t-209.5 -88.5q52 -49 102 -89t122.5 -85t146 -75.5t168.5 -50.5t194 -20q77 0 144.5 10 t96.5 20l29 11l25 -147q-11 -5 -34 -13.5t-103 -22t-172 -13.5q-103 0 -199 18t-169 43t-147 69t-121.5 78.5t-104 89t-82.5 83.5t-68 78q-27 -2 -35 -2q-88 0 -155.5 27t-102.5 71l45 123q38 2 65 2q111 -6 201 -68q93 0 169.5 31.5t127.5 81t89 120.5t59 140t33.5 149.5 t16 139t3.5 118.5q0 406 -357 406q-104 0 -187 -43t-135 -111t-86 -159.5t-47.5 -181t-13.5 -183.5q0 -62 7.5 -122.5t15.5 -90.5l8 -29l-153 -32q-6 12 -14 35t-22 99t-14 159z" />
<glyph horiz-adv-x="1984" d="M215 821q0 72 15.5 138t53 133t95 123t148 105t206 83.5t273.5 54t346 19.5q313 0 474 -88.5t161 -280.5q0 -197 -99 -318.5t-309 -166.5l219 -476q35 -78 69 -138t84.5 -125.5t105.5 -108.5t131.5 -71t162.5 -28q48 0 97 8t74 16l24 9l18 -139q-10 -5 -29 -13t-85 -21 t-142 -13q-121 0 -222.5 37t-183 109.5t-145.5 167t-123 222.5l-250 541q-27 -2 -86 -2q-107 0 -221 8l-86 -606h-184l182 1300q-90 -9 -173 -29.5t-166 -59t-143.5 -91t-98 -130.5t-37.5 -173q0 -65 17.5 -123.5t43 -95.5t51 -64t43.5 -39l17 -12l-103 -104q-9 5 -24 15.5 t-54 50t-68.5 86t-54 124.5t-24.5 166zM1098 760q93 -6 213 -6q261 0 375 73.5t114 257.5q0 70 -29.5 118t-85.5 73t-121.5 35t-152.5 10q-113 0 -235 -8z" />
<glyph horiz-adv-x="1359" d="M135 37q0 62 13.5 121t32.5 99.5t37.5 72t31.5 46.5l14 15l142 -55q-4 -5 -10.5 -15t-24 -41.5t-30.5 -64t-23.5 -81.5t-10.5 -97q0 -150 101.5 -239t259.5 -89q104 0 187 34.5t134 91t78 126t27 143.5q0 58 -18.5 111t-47 93.5t-77 84t-91.5 74.5t-108 72 q-56 36 -87 56.5t-77 54.5t-71.5 59.5t-55.5 63t-45.5 73.5t-26 82t-10.5 98q0 95 32 172t86 128t128 85.5t154.5 50t168.5 15.5q108 0 208.5 -21t147.5 -42l46 -21l-60 -142q-18 8 -49 19t-121.5 30t-173.5 19q-169 0 -275 -72.5t-106 -206.5q0 -57 19.5 -104t65.5 -92.5 t92.5 -80t129.5 -87.5q52 -33 84.5 -55t79.5 -58.5t76 -66.5t63 -73.5t52.5 -86.5t31.5 -98.5t13 -116.5q0 -86 -22.5 -167t-71 -154.5t-118.5 -128.5t-172 -87.5t-224 -32.5q-109 0 -198.5 27t-150 72.5t-102 108t-60 132.5t-18.5 146z" />
<glyph horiz-adv-x="1593" d="M215 846q0 277 214 442.5t591 165.5h715l-23 -160h-475l-127 -913q-20 -142 -60 -250t-106 -189t-166 -123t-231 -42q-53 0 -102.5 7t-82 16.5t-57 19.5t-35.5 17l-12 7l51 138q9 -6 25.5 -14t73 -22t118.5 -14q182 0 274 111t124 340l129 911h-56q-91 0 -174 -12.5 t-166 -45t-143 -82t-97.5 -129t-37.5 -181.5q0 -69 16.5 -132t40 -103t47 -70t39.5 -43l17 -13l-101 -104q-9 6 -24 18t-53.5 54.5t-68 92t-53.5 131.5t-24 171z" />
<glyph horiz-adv-x="2086" d="M215 846q0 277 214 442.5t591 165.5h184l-127 -903q-8 -57 -8 -117q0 -76 19 -132t48 -88t73.5 -51t86 -24.5t95.5 -5.5q373 0 432 418l88 637q6 46 6 86q0 64 -15.5 116t-38 80t-45 47t-38.5 25l-15 6l88 129q19 -5 43 -16.5t63 -41t69 -69t52.5 -107t22.5 -147.5 q0 -44 -6 -94l-88 -631q-23 -165 -73 -280t-131 -184t-186.5 -99.5t-248.5 -30.5q-238 0 -361.5 112.5t-123.5 340.5q0 77 10 141l102 727q-91 0 -175 -13t-168 -46t-145.5 -83t-99.5 -130t-38 -182q0 -51 9.5 -98t24 -82t32.5 -66t36 -51.5t32.5 -35t24.5 -21.5l9 -7 l-101 -104q-9 6 -24 18t-53.5 54.5t-68 92t-53.5 131.5t-24 171z" />
<glyph horiz-adv-x="1900" d="M215 846q0 276 206 442t560 166h49l240 -1329l461 932q38 76 55 113.5t34 89.5t17 90q0 44 -19 79.5t-46.5 54.5t-55 31.5t-46.5 16.5l-19 4l49 143q303 -88 303 -321q0 -73 -27.5 -155t-83.5 -195l-499 -1008h-269l-252 1294q-101 -12 -186 -41.5t-158 -81t-115 -135.5 t-42 -192q0 -51 9.5 -98t24 -82t32.5 -66t36 -51.5t32.5 -35t24.5 -21.5l9 -7l-101 -104q-9 6 -24 18t-53.5 54.5t-68 92t-53.5 131.5t-24 171z" />
<glyph horiz-adv-x="2646" d="M215 846q0 276 206 442t560 166h76l137 -1147l8 -155l51 157l441 1077h194l137 -1079l9 -153l417 925q80 174 80 250q0 49 -18.5 88t-45 60t-53 35t-44.5 18l-19 4l62 143q138 -37 216 -120.5t78 -200.5q0 -70 -25.5 -151t-78.5 -199l-451 -1006h-251l-138 999l-8 121 l-39 -121l-420 -999h-254l-161 1296q-80 -9 -151 -28t-138 -55t-115 -85.5t-77 -122t-29 -161.5q0 -51 9.5 -98t24 -82t32.5 -66t36 -51.5t32.5 -35t24.5 -21.5l9 -7l-101 -104q-9 6 -24 18t-53.5 54.5t-68 92t-53.5 131.5t-24 171z" />
<glyph horiz-adv-x="1869" d="M215 846q0 276 206 442t560 166h31l309 -594l481 594h213l-590 -719l310 -588q32 -61 53.5 -99.5t57 -93.5t66 -89.5t74.5 -74t88.5 -62t102 -37.5t121.5 -15q50 0 97.5 8t70.5 16l22 9l19 -139q-10 -5 -29 -13t-82 -21t-131 -13q-118 0 -217.5 36.5t-182 110t-149 166 t-135.5 221.5l-287 541l-487 -598h-215l598 741l-299 551q-103 -9 -191 -37t-164.5 -79t-120.5 -136t-44 -196q0 -51 9.5 -98t24 -82t32.5 -66t36 -51.5t32.5 -35t24.5 -21.5l9 -7l-101 -104q-9 6 -24 18t-53.5 54.5t-68 92t-53.5 131.5t-24 171z" />
<glyph horiz-adv-x="1798" d="M215 846q0 269 198.5 435t540.5 173h52l284 -883l293 439q46 68 68 104t43.5 87t21.5 89q0 35 -14.5 63t-36 42.5t-42.5 24.5t-35 13l-15 3l59 143q39 -8 79.5 -26t83.5 -49.5t70 -83.5t27 -115q0 -141 -145 -351l-387 -567l-17 -121q-31 -227 -158 -358t-360 -131 q-82 0 -155.5 16.5t-106.5 32.5l-33 16l50 140q10 -6 29.5 -14t79.5 -22t122 -14q162 0 243 86t103 246l17 121l-308 907q-78 -9 -147 -28.5t-134 -55.5t-111.5 -85t-74.5 -120.5t-28 -158.5q0 -51 9.5 -98t24 -82t32.5 -66t36 -51.5t32.5 -35t24.5 -21.5l9 -7l-101 -104 q-9 6 -24 18t-53.5 54.5t-68 92t-53.5 131.5t-24 171z" />
<glyph horiz-adv-x="1308" d="M164 94l1026 1204h-418q-158 0 -256 -72.5t-98 -207.5q0 -49 13 -98t25 -73l13 -24l-131 -69q-3 5 -8.5 13.5t-20 36t-25 57.5t-19.5 75t-9 90q0 199 143 313.5t392 114.5h575l43 -156l-881 -1042l605 -432q209 -148 407 -148q63 0 116.5 11t75.5 23l23 11l19 -139 q-11 -7 -31.5 -16.5t-92.5 -26t-153 -16.5q-132 0 -245 41.5t-230 124.5l-606 434l-123 -146z" />
<glyph horiz-adv-x="2062" d="M215 -141l66 127q7 -6 20 -15t58.5 -24t97.5 -15q64 0 118.5 21t97 55t87 96t79.5 124t83 159l460 934h-41q-339 0 -531 -123t-192 -354q0 -52 10.5 -99.5t25 -78.5t29.5 -55t25 -35l11 -11l-117 -88q-6 6 -15 16.5t-33 47t-42.5 77t-33.5 104t-15 130.5q0 102 33 193.5 t104.5 171t176 137t256.5 90.5t337 33q78 0 158.5 -5.5t121.5 -11.5l42 -6l307 -1454h-193l-86 434h-587l-37 -80q-47 -99 -74 -151t-74 -132t-89 -122.5t-100.5 -87.5t-128.5 -64.5t-153 -19.5q-77 0 -142.5 20.5t-92.5 40.5zM1206 590h484l-142 715zM1307 1784l106 108 l264 -258l-88 -92z" />
<glyph horiz-adv-x="2062" d="M215 -141l66 127q7 -6 20 -15t58.5 -24t97.5 -15q64 0 118.5 21t97 55t87 96t79.5 124t83 159l460 934h-41q-339 0 -531 -123t-192 -354q0 -52 10.5 -99.5t25 -78.5t29.5 -55t25 -35l11 -11l-117 -88q-6 6 -15 16.5t-33 47t-42.5 77t-33.5 104t-15 130.5q0 102 33 193.5 t104.5 171t176 137t256.5 90.5t337 33q78 0 158.5 -5.5t121.5 -11.5l42 -6l307 -1454h-193l-86 434h-587l-37 -80q-47 -99 -74 -151t-74 -132t-89 -122.5t-100.5 -87.5t-128.5 -64.5t-153 -19.5q-77 0 -142.5 20.5t-92.5 40.5zM1206 590h484l-142 715zM1468 1649l336 258 l76 -109l-350 -242z" />
<glyph horiz-adv-x="2078" d="M215 -141l66 127q7 -6 20 -15t58.5 -24t97.5 -15q64 0 118.5 21t97 55t87 96t79.5 124t83 159l460 934h-41q-339 0 -531 -123t-192 -354q0 -52 10.5 -99.5t25 -78.5t29.5 -55t25 -35l11 -11l-117 -88q-6 6 -15 16.5t-33 47t-42.5 77t-33.5 104t-15 130.5q0 102 33 193.5 t104.5 171t176 137t256.5 90.5t337 33q78 0 158.5 -5.5t121.5 -11.5l42 -6l307 -1454h-193l-86 434h-587l-37 -80q-47 -99 -74 -151t-74 -132t-89 -122.5t-100.5 -87.5t-128.5 -64.5t-153 -19.5q-77 0 -142.5 20.5t-92.5 40.5zM1206 590h484l-142 715zM1290 1626l330 258 l254 -258l-84 -84l-195 174l-243 -174z" />
<glyph horiz-adv-x="2078" d="M215 -141l66 127q7 -6 20 -15t58.5 -24t97.5 -15q64 0 118.5 21t97 55t87 96t79.5 124t83 159l460 934h-41q-339 0 -531 -123t-192 -354q0 -52 10.5 -99.5t25 -78.5t29.5 -55t25 -35l11 -11l-117 -88q-6 6 -15 16.5t-33 47t-42.5 77t-33.5 104t-15 130.5q0 102 33 193.5 t104.5 171t176 137t256.5 90.5t337 33q78 0 158.5 -5.5t121.5 -11.5l42 -6l307 -1454h-193l-86 434h-587l-37 -80q-47 -99 -74 -151t-74 -132t-89 -122.5t-100.5 -87.5t-128.5 -64.5t-153 -19.5q-77 0 -142.5 20.5t-92.5 40.5zM1206 590h484l-142 715zM1276 1657q2 7 6.5 19 t21.5 43t38.5 54.5t59 42.5t81.5 19q48 0 88 -25t73 -50t64 -25q34 0 61 25t37 50l11 25l86 -51q-2 -7 -6.5 -19.5t-22.5 -43.5t-39.5 -54.5t-58.5 -43t-80 -19.5q-37 0 -70 15.5t-54 34.5t-47.5 34.5t-51.5 15.5q-35 0 -62.5 -25t-38.5 -50l-10 -25z" />
<glyph horiz-adv-x="2078" d="M215 -141l66 127q7 -6 20 -15t58.5 -24t97.5 -15q64 0 118.5 21t97 55t87 96t79.5 124t83 159l460 934h-41q-339 0 -531 -123t-192 -354q0 -52 10.5 -99.5t25 -78.5t29.5 -55t25 -35l11 -11l-117 -88q-6 6 -15 16.5t-33 47t-42.5 77t-33.5 104t-15 130.5q0 102 33 193.5 t104.5 171t176 137t256.5 90.5t337 33q78 0 158.5 -5.5t121.5 -11.5l42 -6l307 -1454h-193l-86 434h-587l-37 -80q-47 -99 -74 -151t-74 -132t-89 -122.5t-100.5 -87.5t-128.5 -64.5t-153 -19.5q-77 0 -142.5 20.5t-92.5 40.5zM1206 590h484l-142 715zM1286 1700q0 50 30 80 t83 30q41 0 62.5 -21t21.5 -58q0 -50 -29.5 -81.5t-81.5 -31.5q-42 0 -64 22t-22 60zM1694 1702q0 49 30.5 78.5t81.5 29.5q41 0 63.5 -21t22.5 -58q0 -50 -30 -81.5t-82 -31.5q-41 0 -63.5 22.5t-22.5 61.5z" />
<glyph horiz-adv-x="2078" d="M215 -141l66 127q7 -6 20 -15t58.5 -24t97.5 -15q64 0 118.5 21t97 55t87 96t79.5 124t83 159l460 934h-41q-339 0 -531 -123t-192 -354q0 -52 10.5 -99.5t25 -78.5t29.5 -55t25 -35l11 -11l-117 -88q-6 6 -15 16.5t-33 47t-42.5 77t-33.5 104t-15 130.5q0 102 33 193.5 t104.5 171t176 137t256.5 90.5t337 33q78 0 158.5 -5.5t121.5 -11.5l42 -6l307 -1454h-193l-86 434h-587l-37 -80q-47 -99 -74 -151t-74 -132t-89 -122.5t-100.5 -87.5t-128.5 -64.5t-153 -19.5q-77 0 -142.5 20.5t-92.5 40.5zM1206 590h484l-142 715zM1397 1735 q0 104 68 165.5t173 61.5q85 0 135 -45.5t50 -124.5q0 -104 -67.5 -164.5t-172.5 -60.5q-86 0 -136 44.5t-50 123.5zM1505 1747q0 -42 24 -65t66 -23q55 0 87 32.5t32 90.5q0 41 -24.5 65.5t-65.5 24.5q-53 0 -86 -34t-33 -91z" />
<glyph horiz-adv-x="2220" d="M215 852q0 102 33 193.5t104.5 171t176 137t256.5 90.5t337 33q78 0 158.5 -5.5t121.5 -11.5l42 -6h858l-23 -156h-743l-74 -522h662l-21 -153h-663l-35 -252q-8 -74 -8 -99q0 -73 20 -126.5t52 -84.5t81.5 -50t100 -25t116.5 -6q117 0 216 21t139 41l41 21l32 -141 q-7 -4 -20 -11t-57.5 -25t-93 -32t-124.5 -25t-155 -11q-83 0 -156 12t-143.5 44t-121 81t-81.5 128t-31 181q0 52 9 111l8 63h-453l-282 -438h-197l877 1319q-27 2 -80 2q-339 0 -531 -123t-192 -354q0 -52 10.5 -99.5t25 -78.5t29 -55t24.5 -35l11 -11l-117 -88 q-6 6 -15 16.5t-33 47t-42.5 77t-33.5 104t-15 130.5zM874 592h377l105 743z" />
<glyph horiz-adv-x="1353" d="M188 475q0 143 27.5 282.5t87.5 270t146 230t213.5 159.5t279.5 60q202 0 315 -97.5t113 -257.5q0 -145 -91 -250.5t-235 -164.5l-88 106q108 47 172 124t64 171q0 91 -64 152t-200 61q-101 0 -184.5 -37.5t-139.5 -96.5t-99 -140.5t-67 -161.5t-39 -167.5t-19.5 -150.5 t-4.5 -118q0 -81 11.5 -150.5t42 -137.5t78.5 -115t126.5 -76t181.5 -29q73 0 143.5 11.5t118.5 28t85 33t55 28.5l18 11l43 -135q-7 -5 -21 -14t-61 -31t-98.5 -39.5t-130.5 -31.5t-160 -15l-39 -104q32 4 47 4q76 0 127 -35t51 -105q0 -88 -67 -143t-201 -55 q-54 0 -100.5 10.5t-66.5 20.5l-19 10l39 98q56 -35 139 -35q137 0 137 92q0 72 -113 72q-79 0 -127 -18l76 196q-254 33 -378 213t-124 467z" />
<glyph horiz-adv-x="1333" d="M186 -348l70 131q5 -4 14.5 -11.5t41.5 -26t68.5 -32.5t94.5 -25.5t119 -11.5q170 0 272 85t125 251l2 19q-107 -29 -225 -29q-122 0 -218.5 29.5t-161 80t-107.5 122.5t-61.5 153.5t-18.5 175.5q0 144 29 277.5t88.5 249.5t144.5 202t205 135.5t262 49.5 q217 0 327.5 -90.5t110.5 -225.5q0 -56 -20 -111.5t-49.5 -95.5t-52 -64t-38.5 -36l-114 76q98 98 98 207q0 78 -66 131t-208 53q-91 0 -167.5 -28.5t-129.5 -75.5t-95.5 -111.5t-68 -132t-42 -141t-22.5 -135t-6 -117.5q0 -422 401 -422q109 0 228 35l59 423h178l-84 -598 q-14 -103 -55.5 -190t-110.5 -156.5t-174 -109t-235 -39.5q-75 0 -144.5 13.5t-115.5 32.5t-81 37.5t-51 31.5zM696 1812v13l107 39q0 -6 0.5 -16.5t8 -37.5t22 -47.5t46.5 -37.5t76 -17t80.5 16t56.5 39t33.5 46t17.5 39l5 16l100 -39q-2 -10 -8 -26.5t-30 -58.5t-55.5 -74 t-89.5 -58.5t-128 -26.5q-51 0 -92 13.5t-65.5 35t-42.5 47.5t-25.5 52t-12 47.5t-4.5 35.5z" />
<glyph horiz-adv-x="2033" d="M215 821q0 72 15.5 138t53 133t95.5 123t148.5 105t206.5 83.5t275 54t349 19.5q120 0 216.5 -16.5t184.5 -59t147 -111t93.5 -176.5t34.5 -250q0 -493 -215 -739t-654 -246q-122 0 -236 18.5t-189.5 44.5t-134.5 52t-86 44l-27 19l79 136q9 -7 27.5 -19t82 -41 t136.5 -49l80 561h-106l20 150h107l71 503q-91 -9 -173.5 -29t-165.5 -58.5t-143.5 -90.5t-98 -130t-37.5 -173q0 -65 17.5 -123.5t43 -95.5t51 -64t43.5 -39l17 -12l-103 -104q-9 5 -24 15.5t-54 50t-68.5 86t-54 124.5t-24.5 166zM997 51q98 -16 191 -16q74 0 139 9.5 t133 34t123.5 64t105.5 103.5t84 148.5t54 202.5t20 261q0 132 -31 222t-95 143t-153 75.5t-216 22.5q-112 0 -176 -6l-74 -520h366l-20 -150h-367z" />
<glyph horiz-adv-x="1867" d="M215 846q0 277 214 442.5t591 165.5h930l-23 -156h-743l-74 -522h662l-21 -153h-664l-34 -252q-9 -68 -9 -99q0 -73 20 -126.5t52 -84.5t82 -50t100.5 -25t116.5 -6q117 0 216 21t139 41l40 21l33 -141q-7 -4 -20 -11t-57.5 -25t-93 -32t-124.5 -25t-155 -11 q-83 0 -156 12t-143.5 44t-121 81t-81.5 128t-31 181q0 59 8 111l129 923q-91 0 -175 -13t-168 -46t-145.5 -83t-99.5 -130t-38 -182q0 -51 9.5 -98t24 -82t32.5 -66t36 -51.5t32.5 -35t24.5 -21.5l9 -7l-101 -104q-9 6 -24 18t-53.5 54.5t-68 92t-53.5 131.5t-24 171z M1237 1784l106 108l265 -258l-88 -92z" />
<glyph horiz-adv-x="1867" d="M215 846q0 277 214 442.5t591 165.5h930l-23 -156h-743l-74 -522h662l-21 -153h-664l-34 -252q-9 -68 -9 -99q0 -73 20 -126.5t52 -84.5t82 -50t100.5 -25t116.5 -6q117 0 216 21t139 41l40 21l33 -141q-7 -4 -20 -11t-57.5 -25t-93 -32t-124.5 -25t-155 -11 q-83 0 -156 12t-143.5 44t-121 81t-81.5 128t-31 181q0 59 8 111l129 923q-91 0 -175 -13t-168 -46t-145.5 -83t-99.5 -130t-38 -182q0 -51 9.5 -98t24 -82t32.5 -66t36 -51.5t32.5 -35t24.5 -21.5l9 -7l-101 -104q-9 6 -24 18t-53.5 54.5t-68 92t-53.5 131.5t-24 171z M1407 1634l338 258l74 -108l-351 -242z" />
<glyph horiz-adv-x="1867" d="M215 846q0 277 214 442.5t591 165.5h930l-23 -156h-743l-74 -522h662l-21 -153h-664l-34 -252q-9 -68 -9 -99q0 -73 20 -126.5t52 -84.5t82 -50t100.5 -25t116.5 -6q117 0 216 21t139 41l40 21l33 -141q-7 -4 -20 -11t-57.5 -25t-93 -32t-124.5 -25t-155 -11 q-83 0 -156 12t-143.5 44t-121 81t-81.5 128t-31 181q0 59 8 111l129 923q-91 0 -175 -13t-168 -46t-145.5 -83t-99.5 -130t-38 -182q0 -51 9.5 -98t24 -82t32.5 -66t36 -51.5t32.5 -35t24.5 -21.5l9 -7l-101 -104q-9 6 -24 18t-53.5 54.5t-68 92t-53.5 131.5t-24 171z M1221 1626l327 258l254 -258l-84 -84l-194 174l-244 -174z" />
<glyph horiz-adv-x="1867" d="M215 846q0 277 214 442.5t591 165.5h930l-23 -156h-743l-74 -522h662l-21 -153h-664l-34 -252q-9 -68 -9 -99q0 -73 20 -126.5t52 -84.5t82 -50t100.5 -25t116.5 -6q117 0 216 21t139 41l40 21l33 -141q-7 -4 -20 -11t-57.5 -25t-93 -32t-124.5 -25t-155 -11 q-83 0 -156 12t-143.5 44t-121 81t-81.5 128t-31 181q0 59 8 111l129 923q-91 0 -175 -13t-168 -46t-145.5 -83t-99.5 -130t-38 -182q0 -51 9.5 -98t24 -82t32.5 -66t36 -51.5t32.5 -35t24.5 -21.5l9 -7l-101 -104q-9 6 -24 18t-53.5 54.5t-68 92t-53.5 131.5t-24 171z M1221 1700q0 50 29.5 80t82.5 30q41 0 63.5 -21t22.5 -58q0 -50 -30 -81.5t-82 -31.5q-42 0 -64 22t-22 60zM1630 1700q0 50 30 80t83 30q41 0 62.5 -21t21.5 -58q0 -50 -29.5 -81.5t-81.5 -31.5q-42 0 -64 22t-22 60z" />
<glyph horiz-adv-x="1153" d="M215 887q0 276 204 421.5t578 145.5h185l-146 -1038q-29 -199 -153 -319t-322 -120q-65 0 -123 12t-83 24l-25 12l67 145q68 -37 170 -37q122 0 194.5 78.5t90.5 206.5l123 880h-23q-581 0 -581 -413q0 -69 20.5 -136.5t40.5 -100.5l21 -32l-123 -77q-5 6 -12.5 16 t-27.5 45t-35 72.5t-27.5 96t-12.5 118.5zM797 1784l106 108l264 -258l-88 -92z" />
<glyph horiz-adv-x="1148" d="M215 887q0 276 204 421.5t578 145.5h185l-146 -1038q-29 -199 -153 -319t-322 -120q-65 0 -123 12t-83 24l-25 12l67 145q68 -37 170 -37q122 0 194.5 78.5t90.5 206.5l123 880h-23q-581 0 -581 -413q0 -69 20.5 -136.5t40.5 -100.5l21 -32l-123 -77q-5 6 -12.5 16 t-27.5 45t-35 72.5t-27.5 96t-12.5 118.5zM967 1634l336 258l73 -108l-350 -242z" />
<glyph horiz-adv-x="1148" d="M215 887q0 276 204 421.5t578 145.5h185l-146 -1038q-29 -199 -153 -319t-322 -120q-65 0 -123 12t-83 24l-25 12l67 145q68 -37 170 -37q122 0 194.5 78.5t90.5 206.5l123 880h-23q-581 0 -581 -413q0 -69 20.5 -136.5t40.5 -100.5l21 -32l-123 -77q-5 6 -12.5 16 t-27.5 45t-35 72.5t-27.5 96t-12.5 118.5zM727 1626l328 258l254 -258l-84 -84l-195 174l-244 -174z" />
<glyph horiz-adv-x="1148" d="M215 887q0 276 204 421.5t578 145.5h185l-146 -1038q-29 -199 -153 -319t-322 -120q-65 0 -123 12t-83 24l-25 12l67 145q68 -37 170 -37q122 0 194.5 78.5t90.5 206.5l123 880h-23q-581 0 -581 -413q0 -69 20.5 -136.5t40.5 -100.5l21 -32l-123 -77q-5 6 -12.5 16 t-27.5 45t-35 72.5t-27.5 96t-12.5 118.5zM737 1702q0 49 31 78.5t82 29.5q41 0 63.5 -21t22.5 -58q0 -50 -30.5 -81.5t-82.5 -31.5q-41 0 -63.5 22.5t-22.5 61.5zM1147 1700q0 50 30 80t83 30q41 0 62 -21t21 -58q0 -51 -29.5 -82t-80.5 -31q-42 0 -64 22t-22 60z" />
<glyph horiz-adv-x="1148" d="M215 887q0 276 204 421.5t578 145.5h185l-146 -1038q-29 -199 -153 -319t-322 -120q-65 0 -123 12t-83 24l-25 12l67 145q68 -37 170 -37q122 0 194.5 78.5t90.5 206.5l123 880h-23q-581 0 -581 -413q0 -69 20.5 -136.5t40.5 -100.5l21 -32l-123 -77q-5 6 -12.5 16 t-27.5 45t-35 72.5t-27.5 96t-12.5 118.5zM971 1743q0 53 33.5 87t89.5 34q45 0 68.5 -24.5t23.5 -65.5q0 -53 -32.5 -86t-88.5 -33q-44 0 -69 24t-25 64z" />
<glyph horiz-adv-x="2101" d="M215 -156l51 138q8 -6 24.5 -14t71.5 -22t117 -14q182 0 274 109.5t124 335.5l127 921q-91 0 -175 -13t-168 -46t-145.5 -83t-100 -130t-38.5 -182q0 -51 9.5 -98t24 -82t32.5 -66t36 -51.5t32.5 -35t24.5 -21.5l9 -7l-101 -104q-9 6 -24 18t-53.5 54.5t-68 92 t-53.5 131.5t-24 171q0 277 214 442.5t591 165.5h217l551 -1182l12 127l148 1055h180l-205 -1454h-209l-559 1194l-4 -123l-96 -690q-20 -142 -59 -249t-104 -189t-164 -124t-230 -42q-53 0 -102.5 7t-82 16.5t-57 19.5t-36.5 17zM1298 1657q2 7 6.5 19t22 43t39.5 54.5 t59.5 42.5t81.5 19q38 0 72 -15.5t55 -34.5t47.5 -34.5t51.5 -15.5q34 0 61 25t37 50l10 25l86 -51q-2 -7 -6.5 -19.5t-22.5 -43.5t-40 -54.5t-59.5 -43t-80.5 -19.5q-45 0 -84 25t-72.5 50t-64.5 25q-35 0 -63 -25t-39 -50l-11 -25z" />
<glyph horiz-adv-x="1910" d="M215 934q0 81 19 155t49.5 127.5t67 98.5t73 74t67 49.5t49.5 29.5l19 9l80 -109q-11 -5 -29 -15t-64 -47t-81.5 -82.5t-64.5 -122.5t-29 -165q0 -152 93.5 -242.5t235.5 -109.5q3 137 25 260t72.5 241t126 203t192.5 137t264 52q266 0 401.5 -147.5t135.5 -414.5 q0 -99 -9.5 -192.5t-33 -188.5t-58.5 -176t-89 -152t-122.5 -121t-161.5 -79t-202 -29q-490 0 -536 463q-227 15 -358.5 155.5t-131.5 338.5zM887 588q278 34 436 212.5t158 475.5v33q-49 12 -111 12q-86 0 -157 -28t-119 -73.5t-85.5 -109.5t-59.5 -128.5t-36 -140 t-19.5 -134t-6.5 -119.5zM891 444q7 -72 28 -126t61 -97t107 -65.5t160 -22.5q88 0 161 32t122 83t87 122t59 142t34.5 149.5t18 137.5t4.5 114q0 219 -103 322v-16q0 -61 -10.5 -124.5t-35.5 -136t-62.5 -139t-97 -130t-134 -113t-177 -85t-222.5 -47.5zM1145 1784l104 108 l264 -258l-86 -92z" />
<glyph horiz-adv-x="1910" d="M215 934q0 81 19 155t49.5 127.5t67 98.5t73 74t67 49.5t49.5 29.5l19 9l80 -109q-11 -5 -29 -15t-64 -47t-81.5 -82.5t-64.5 -122.5t-29 -165q0 -152 93.5 -242.5t235.5 -109.5q3 137 25 260t72.5 241t126 203t192.5 137t264 52q266 0 401.5 -147.5t135.5 -414.5 q0 -99 -9.5 -192.5t-33 -188.5t-58.5 -176t-89 -152t-122.5 -121t-161.5 -79t-202 -29q-490 0 -536 463q-227 15 -358.5 155.5t-131.5 338.5zM887 588q278 34 436 212.5t158 475.5v33q-49 12 -111 12q-86 0 -157 -28t-119 -73.5t-85.5 -109.5t-59.5 -128.5t-36 -140 t-19.5 -134t-6.5 -119.5zM891 444q7 -72 28 -126t61 -97t107 -65.5t160 -22.5q88 0 161 32t122 83t87 122t59 142t34.5 149.5t18 137.5t4.5 114q0 219 -103 322v-16q0 -61 -10.5 -124.5t-35.5 -136t-62.5 -139t-97 -130t-134 -113t-177 -85t-222.5 -47.5zM1335 1651l336 258 l74 -109l-350 -241z" />
<glyph horiz-adv-x="1910" d="M215 934q0 81 19 155t49.5 127.5t67 98.5t73 74t67 49.5t49.5 29.5l19 9l80 -109q-11 -5 -29 -15t-64 -47t-81.5 -82.5t-64.5 -122.5t-29 -165q0 -152 93.5 -242.5t235.5 -109.5q3 137 25 260t72.5 241t126 203t192.5 137t264 52q266 0 401.5 -147.5t135.5 -414.5 q0 -99 -9.5 -192.5t-33 -188.5t-58.5 -176t-89 -152t-122.5 -121t-161.5 -79t-202 -29q-490 0 -536 463q-227 15 -358.5 155.5t-131.5 338.5zM887 588q278 34 436 212.5t158 475.5v33q-49 12 -111 12q-86 0 -157 -28t-119 -73.5t-85.5 -109.5t-59.5 -128.5t-36 -140 t-19.5 -134t-6.5 -119.5zM891 444q7 -72 28 -126t61 -97t107 -65.5t160 -22.5q88 0 161 32t122 83t87 122t59 142t34.5 149.5t18 137.5t4.5 114q0 219 -103 322v-16q0 -61 -10.5 -124.5t-35.5 -136t-62.5 -139t-97 -130t-134 -113t-177 -85t-222.5 -47.5zM1141 1626l327 258 l254 -258l-84 -84l-194 174l-244 -174z" />
<glyph horiz-adv-x="1910" d="M215 934q0 81 19 155t49.5 127.5t67 98.5t73 74t67 49.5t49.5 29.5l19 9l80 -109q-11 -5 -29 -15t-64 -47t-81.5 -82.5t-64.5 -122.5t-29 -165q0 -152 93.5 -242.5t235.5 -109.5q3 137 25 260t72.5 241t126 203t192.5 137t264 52q266 0 401.5 -147.5t135.5 -414.5 q0 -99 -9.5 -192.5t-33 -188.5t-58.5 -176t-89 -152t-122.5 -121t-161.5 -79t-202 -29q-490 0 -536 463q-227 15 -358.5 155.5t-131.5 338.5zM887 588q278 34 436 212.5t158 475.5v33q-49 12 -111 12q-86 0 -157 -28t-119 -73.5t-85.5 -109.5t-59.5 -128.5t-36 -140 t-19.5 -134t-6.5 -119.5zM891 444q7 -72 28 -126t61 -97t107 -65.5t160 -22.5q88 0 161 32t122 83t87 122t59 142t34.5 149.5t18 137.5t4.5 114q0 219 -103 322v-16q0 -61 -10.5 -124.5t-35.5 -136t-62.5 -139t-97 -130t-134 -113t-177 -85t-222.5 -47.5zM1120 1657 q2 7 6.5 19t22 43t39 54.5t59 42.5t80.5 19q48 0 88 -25t73 -50t64 -25q34 0 61.5 25t38.5 50l11 25l86 -51q-2 -7 -6.5 -19.5t-22.5 -43.5t-40 -54.5t-59.5 -43t-80.5 -19.5q-37 0 -70 15.5t-54 34.5t-47.5 34.5t-51.5 15.5q-34 0 -61.5 -25t-38.5 -50l-11 -25z" />
<glyph horiz-adv-x="1910" d="M215 934q0 81 19 155t49.5 127.5t67 98.5t73 74t67 49.5t49.5 29.5l19 9l80 -109q-11 -5 -29 -15t-64 -47t-81.5 -82.5t-64.5 -122.5t-29 -165q0 -152 93.5 -242.5t235.5 -109.5q3 137 25 260t72.5 241t126 203t192.5 137t264 52q266 0 401.5 -147.5t135.5 -414.5 q0 -99 -9.5 -192.5t-33 -188.5t-58.5 -176t-89 -152t-122.5 -121t-161.5 -79t-202 -29q-490 0 -536 463q-227 15 -358.5 155.5t-131.5 338.5zM887 588q278 34 436 212.5t158 475.5v33q-49 12 -111 12q-86 0 -157 -28t-119 -73.5t-85.5 -109.5t-59.5 -128.5t-36 -140 t-19.5 -134t-6.5 -119.5zM891 444q7 -72 28 -126t61 -97t107 -65.5t160 -22.5q88 0 161 32t122 83t87 122t59 142t34.5 149.5t18 137.5t4.5 114q0 219 -103 322v-16q0 -61 -10.5 -124.5t-35.5 -136t-62.5 -139t-97 -130t-134 -113t-177 -85t-222.5 -47.5zM1135 1700 q0 50 29.5 80t80.5 30q42 0 64 -21t22 -58q0 -51 -29.5 -82t-82.5 -31q-40 0 -62 22t-22 60zM1542 1700q0 50 30 80t83 30q41 0 62.5 -21t21.5 -58q0 -50 -29.5 -81.5t-81.5 -31.5q-42 0 -64 22t-22 60z" />
<glyph horiz-adv-x="1910" d="M215 934q0 81 19 155t49.5 127.5t67 98.5t73 74t67 49.5t49.5 29.5l19 9l80 -109q-11 -5 -29 -15t-64 -47t-81.5 -82.5t-64.5 -122.5t-29 -165q0 -152 93.5 -242.5t235.5 -109.5q3 137 25 260t72.5 241t126 203t192.5 137t264 52q128 0 224 -35l120 227l129 -57 l-124 -236q188 -144 188 -461q0 -99 -9.5 -192.5t-33 -188.5t-58.5 -176t-89 -152t-122.5 -121t-161.5 -79t-202 -29q-135 0 -235 35l-132 -248l-129 60l136 252q-152 116 -176 364q-227 15 -358.5 155.5t-131.5 338.5zM887 588q278 34 436 212.5t158 475.5v33 q-49 12 -111 12q-86 0 -157 -28t-119 -73.5t-85.5 -109.5t-59.5 -128.5t-36 -140t-19.5 -134t-6.5 -119.5zM891 444q7 -72 28 -126t61 -97t107 -65.5t160 -22.5q88 0 161 32t122 83t87 122t59 142t34.5 149.5t18 137.5t4.5 114q0 219 -103 322v-16q0 -61 -10.5 -124.5 t-35.5 -136t-62.5 -139t-97 -130t-134 -113t-177 -85t-222.5 -47.5z" />
<glyph horiz-adv-x="1359" d="M135 37q0 62 13.5 121t32.5 99.5t37.5 72t31.5 46.5l14 15l142 -55q-4 -5 -10.5 -15t-24 -41.5t-30.5 -64t-23.5 -81.5t-10.5 -97q0 -150 101.5 -239t259.5 -89q104 0 187 34.5t134 91t78 126t27 143.5q0 58 -18.5 111t-47 93.5t-77 84t-91.5 74.5t-108 72 q-56 36 -87 56.5t-77 54.5t-71.5 59.5t-55.5 63t-45.5 73.5t-26 82t-10.5 98q0 95 32 172t86 128t128 85.5t154.5 50t168.5 15.5q108 0 208.5 -21t147.5 -42l46 -21l-60 -142q-18 8 -49 19t-121.5 30t-173.5 19q-169 0 -275 -72.5t-106 -206.5q0 -57 19.5 -104t65.5 -92.5 t92.5 -80t129.5 -87.5q52 -33 84.5 -55t79.5 -58.5t76 -66.5t63 -73.5t52.5 -86.5t31.5 -98.5t13 -116.5q0 -103 -34 -199t-100 -176t-175.5 -132t-247.5 -60l-35 -93q32 4 49 4q78 0 127 -33.5t49 -103.5q0 -89 -67 -143.5t-201 -54.5q-54 0 -100 10t-65 20l-19 11l39 94 q71 -31 139 -31q137 0 137 90q0 74 -115 74q-70 0 -127 -19l70 177q-118 10 -209 53.5t-144.5 111t-80.5 147.5t-27 169z" />
<glyph horiz-adv-x="2086" d="M215 846q0 277 214 442.5t591 165.5h184l-127 -903q-8 -57 -8 -117q0 -76 19 -132t48 -88t73.5 -51t86 -24.5t95.5 -5.5q373 0 432 418l88 637q6 46 6 86q0 64 -15.5 116t-38 80t-45 47t-38.5 25l-15 6l88 129q19 -5 43 -16.5t63 -41t69 -69t52.5 -107t22.5 -147.5 q0 -44 -6 -94l-88 -631q-23 -165 -73 -280t-131 -184t-186.5 -99.5t-248.5 -30.5q-238 0 -361.5 112.5t-123.5 340.5q0 77 10 141l102 727q-91 0 -175 -13t-168 -46t-145.5 -83t-99.5 -130t-38 -182q0 -51 9.5 -98t24 -82t32.5 -66t36 -51.5t32.5 -35t24.5 -21.5l9 -7 l-101 -104q-9 6 -24 18t-53.5 54.5t-68 92t-53.5 131.5t-24 171zM1227 1835l104 109l264 -258l-86 -93z" />
<glyph horiz-adv-x="2086" d="M215 846q0 277 214 442.5t591 165.5h184l-127 -903q-8 -57 -8 -117q0 -76 19 -132t48 -88t73.5 -51t86 -24.5t95.5 -5.5q373 0 432 418l88 637q6 46 6 86q0 64 -15.5 116t-38 80t-45 47t-38.5 25l-15 6l88 129q19 -5 43 -16.5t63 -41t69 -69t52.5 -107t22.5 -147.5 q0 -44 -6 -94l-88 -631q-23 -165 -73 -280t-131 -184t-186.5 -99.5t-248.5 -30.5q-238 0 -361.5 112.5t-123.5 340.5q0 77 10 141l102 727q-91 0 -175 -13t-168 -46t-145.5 -83t-99.5 -130t-38 -182q0 -51 9.5 -98t24 -82t32.5 -66t36 -51.5t32.5 -35t24.5 -21.5l9 -7 l-101 -104q-9 6 -24 18t-53.5 54.5t-68 92t-53.5 131.5t-24 171zM1384 1686l338 258l74 -109l-350 -242z" />
<glyph horiz-adv-x="2086" d="M215 846q0 277 214 442.5t591 165.5h184l-127 -903q-8 -57 -8 -117q0 -76 19 -132t48 -88t73.5 -51t86 -24.5t95.5 -5.5q373 0 432 418l88 637q6 46 6 86q0 64 -15.5 116t-38 80t-45 47t-38.5 25l-15 6l88 129q19 -5 43 -16.5t63 -41t69 -69t52.5 -107t22.5 -147.5 q0 -44 -6 -94l-88 -631q-23 -165 -73 -280t-131 -184t-186.5 -99.5t-248.5 -30.5q-238 0 -361.5 112.5t-123.5 340.5q0 77 10 141l102 727q-91 0 -175 -13t-168 -46t-145.5 -83t-99.5 -130t-38 -182q0 -51 9.5 -98t24 -82t32.5 -66t36 -51.5t32.5 -35t24.5 -21.5l9 -7 l-101 -104q-9 6 -24 18t-53.5 54.5t-68 92t-53.5 131.5t-24 171zM1133 1708l327 258l254 -258l-84 -84l-194 174l-244 -174z" />
<glyph horiz-adv-x="2086" d="M215 846q0 277 214 442.5t591 165.5h184l-127 -903q-8 -57 -8 -117q0 -76 19 -132t48 -88t73.5 -51t86 -24.5t95.5 -5.5q373 0 432 418l88 637q6 46 6 86q0 64 -15.5 116t-38 80t-45 47t-38.5 25l-15 6l88 129q19 -5 43 -16.5t63 -41t69 -69t52.5 -107t22.5 -147.5 q0 -44 -6 -94l-88 -631q-23 -165 -73 -280t-131 -184t-186.5 -99.5t-248.5 -30.5q-238 0 -361.5 112.5t-123.5 340.5q0 77 10 141l102 727q-91 0 -175 -13t-168 -46t-145.5 -83t-99.5 -130t-38 -182q0 -51 9.5 -98t24 -82t32.5 -66t36 -51.5t32.5 -35t24.5 -21.5l9 -7 l-101 -104q-9 6 -24 18t-53.5 54.5t-68 92t-53.5 131.5t-24 171zM1106 1751q0 50 29.5 80.5t81.5 30.5q42 0 65 -21.5t23 -58.5q0 -50 -31 -81.5t-84 -31.5q-40 0 -62 22t-22 60zM1513 1751q0 50 30 80.5t83 30.5q41 0 63.5 -21.5t22.5 -58.5q0 -50 -30.5 -81.5t-82.5 -31.5 q-42 0 -64 22t-22 60z" />
<glyph horiz-adv-x="1798" d="M215 846q0 269 198.5 435t540.5 173h52l284 -883l293 439q46 68 68 104t43.5 87t21.5 89q0 35 -14.5 63t-36 42.5t-42.5 24.5t-35 13l-15 3l59 143q39 -8 79.5 -26t83.5 -49.5t70 -83.5t27 -115q0 -141 -145 -351l-387 -567l-17 -121q-31 -227 -158 -358t-360 -131 q-82 0 -155.5 16.5t-106.5 32.5l-33 16l50 140q10 -6 29.5 -14t79.5 -22t122 -14q162 0 243 86t103 246l17 121l-308 907q-78 -9 -147 -28.5t-134 -55.5t-111.5 -85t-74.5 -120.5t-28 -158.5q0 -51 9.5 -98t24 -82t32.5 -66t36 -51.5t32.5 -35t24.5 -21.5l9 -7l-101 -104 q-9 6 -24 18t-53.5 54.5t-68 92t-53.5 131.5t-24 171zM1231 1696l338 258l73 -109l-350 -241z" />
<glyph horiz-adv-x="1220" d="M-612 1972q6 4 18.5 10t54.5 22.5t88.5 29t119.5 22.5t149 10q103 0 197.5 -16.5t189 -53t153.5 -65.5t160 -82q143 266 372 415t511 149q250 0 395.5 -116.5t145.5 -320.5q0 -230 -186 -372t-521 -142q-177 0 -327 39.5t-304 110.5q-55 -160 -84 -350l-22 -148 q112 41 235 41q461 0 461 -459q0 -117 -19.5 -220t-64.5 -196t-113 -159t-172 -105t-235 -39q-107 0 -212.5 22.5t-157.5 44.5l-52 22l174 1224q30 215 102 400q-92 48 -131.5 68t-122.5 57.5t-139 53.5t-134.5 30t-154.5 14q-169 0 -327 -70zM365 168q103 -37 235 -37 q89 0 160.5 30t117.5 81.5t77 123t44 150.5t13 168q0 159 -71 238t-226 79q-53 0 -112.5 -10t-92.5 -20l-33 -10zM672 1767q142 -72 280 -111.5t301 -39.5q89 0 164 13.5t126.5 35.5t92 52.5t64.5 62.5t39 68.5t20.5 66.5t5.5 59q0 40 -10 78t-36.5 76.5t-66.5 66.5t-106 46 t-149 18q-100 0 -197 -26.5t-193 -83t-183 -154t-152 -228.5z" />
<glyph horiz-adv-x="1206" d="M88 1972q6 4 18.5 10t54.5 22.5t88.5 29t119.5 22.5t149 10q103 0 198 -16.5t189 -53t154 -65.5t160 -82q143 266 371.5 415t510.5 149q250 0 395.5 -116.5t145.5 -320.5q0 -230 -186 -372t-521 -142q-179 0 -331 40t-304 112q-55 -161 -81 -352l-166 -1196 q-7 -4 -21 -10t-58.5 -21t-91 -27t-115.5 -21.5t-136 -9.5q-461 0 -461 459q0 336 154.5 527.5t445.5 191.5q127 0 248 -41l24 176q29 211 103 400q-92 48 -131.5 68t-122.5 57.5t-139 53.5t-134.5 30t-154.5 14q-170 0 -328 -70zM352 449q0 -159 71 -238.5t226 -79.5 q124 0 238 37l110 793q-97 40 -233 40q-95 0 -168.5 -33t-118.5 -86.5t-74 -127.5t-40 -148t-11 -157zM1368 1769q146 -73 284 -113t302 -40q89 0 164 13.5t126.5 35.5t92 52.5t64.5 62.5t39 68.5t20.5 66.5t5.5 59q0 40 -10.5 78t-37 76.5t-66.5 66.5t-106 46t-149 18 q-100 0 -197.5 -26.5t-194.5 -82t-184.5 -153t-152.5 -228.5z" />
<glyph horiz-adv-x="851" d="M-1194 -877q0 230 186 372.5t521 142.5q177 0 327.5 -39.5t302.5 -110.5q58 159 84 350l162 1145h-180l20 150h183l16 112q50 352 387 352q52 0 99.5 -7.5t68.5 -15.5l21 -7l-48 -148q-51 23 -127 23q-98 0 -151 -50t-68 -153l-16 -106h317l-20 -150h-318l-167 -1173 q-30 -215 -105 -400q106 -57 165 -86t152.5 -66.5t182.5 -54t184 -16.5q170 0 328 70l47 -129q-6 -4 -18.5 -10.5t-54.5 -22.5t-88.5 -28.5t-119.5 -23t-149 -10.5q-104 0 -198.5 16.5t-189 53.5t-153.5 65t-160 82q-145 -267 -372.5 -415t-509.5 -148q-250 0 -395.5 116 t-145.5 320zM-1018 -874q0 -40 10.5 -78t37 -76.5t66.5 -66.5t106 -46t149 -18q100 0 197.5 26.5t194.5 81.5t184.5 152.5t152.5 228.5q-144 74 -282.5 114t-303.5 40q-89 0 -164 -13.5t-126.5 -35.5t-92 -52.5t-64.5 -62.5t-39 -68.5t-20.5 -66.5t-5.5 -59z" />
<glyph horiz-adv-x="1247" d="M-612 1972q6 4 18.5 10t54.5 22.5t88.5 29t119.5 22.5t149 10q103 0 197.5 -16.5t189 -53t153.5 -65.5t160 -82q143 266 372 415t511 149q250 0 395.5 -116.5t145.5 -320.5q0 -230 -186 -372t-521 -142q-177 0 -328.5 39.5t-304.5 110.5q-57 -165 -82 -350l-20 -146 q137 39 280 39q215 0 319.5 -78.5t104.5 -261.5q0 -62 -8 -119l-98 -696h-183l101 709q6 43 6 75q0 57 -16 98t-40 63.5t-62.5 35.5t-73 16.5t-82.5 3.5q-69 0 -136 -9.5t-95.5 -17t-39.5 -11.5l-135 -963h-182l182 1290q30 215 102 400q-92 48 -131.5 68t-122.5 57.5 t-139 53.5t-134.5 30t-154.5 14q-169 0 -327 -70zM668 1769q143 -73 281.5 -113t303.5 -40q89 0 164 13.5t126.5 35.5t92 52.5t64.5 62.5t39 68.5t20.5 66.5t5.5 59q0 40 -10 78t-36.5 76.5t-66.5 66.5t-106 46t-149 18q-100 0 -197.5 -26.5t-194.5 -82t-184.5 -153 t-152.5 -228.5z" />
<glyph horiz-adv-x="1140" d="M-612 1972q6 4 18.5 10t54.5 22.5t88.5 29t119.5 22.5t149 10q103 0 197.5 -16.5t189 -53t153.5 -65.5t160 -82q143 266 372 415t511 149q250 0 395.5 -116.5t145.5 -320.5q0 -230 -186 -372t-521 -142q-177 0 -328.5 39.5t-304.5 110.5q-57 -165 -82 -350l-94 -660 l555 531h231l-594 -568l228 -309q41 -55 79 -83t97 -28q14 0 31.5 2.5t28.5 4.5l10 2l-21 -142q-34 -20 -106 -20q-146 0 -269 168l-278 381l-76 -541h-182l182 1290q30 215 102 400q-92 48 -131.5 68t-122.5 57.5t-139 53.5t-134.5 30t-154.5 14q-169 0 -327 -70zM668 1769 q143 -73 281.5 -113t303.5 -40q89 0 164 13.5t126.5 35.5t92 52.5t64.5 62.5t39 68.5t20.5 66.5t5.5 59q0 40 -10 78t-36.5 76.5t-66.5 66.5t-106 46t-149 18q-100 0 -197.5 -26.5t-194.5 -82t-184.5 -153t-152.5 -228.5z" />
<glyph horiz-adv-x="501" d="M-612 1972q6 4 18.5 10t54.5 22.5t88.5 29t119.5 22.5t149 10q103 0 197.5 -16.5t189 -53t153.5 -65.5t160 -82q143 266 372 415t511 149q250 0 395.5 -116.5t145.5 -320.5q0 -230 -186 -372t-521 -142q-177 0 -328.5 39.5t-304.5 110.5q-57 -165 -82 -350l-178 -1262 h-182l182 1290q30 215 102 400q-92 48 -131.5 68t-122.5 57.5t-139 53.5t-134.5 30t-154.5 14q-169 0 -327 -70zM668 1769q143 -73 281.5 -113t303.5 -40q89 0 164 13.5t126.5 35.5t92 52.5t64.5 62.5t39 68.5t20.5 66.5t5.5 59q0 40 -10 78t-36.5 76.5t-66.5 66.5t-106 46 t-149 18q-100 0 -197.5 -26.5t-194.5 -82t-184.5 -153t-152.5 -228.5z" />
<glyph horiz-adv-x="1220" d="M-1282 -877q0 230 186 372.5t521 142.5q177 0 327.5 -39.5t302.5 -110.5q58 159 84 350l172 1229q20 10 57 24.5t147.5 39t217.5 24.5q461 0 461 -459q0 -336 -154.5 -527.5t-445.5 -191.5q-127 0 -248 41l-29 -208q-31 -219 -104 -400q89 -47 131.5 -69t123.5 -58 t138.5 -52.5t135.5 -30t155 -13.5q170 0 328 70l47 -129q-6 -4 -18.5 -10.5t-54.5 -22.5t-88.5 -28.5t-119.5 -23t-149 -10.5q-104 0 -198.5 16.5t-189 53.5t-153.5 65t-160 82q-143 -266 -371.5 -414.5t-510.5 -148.5q-250 0 -395.5 116t-145.5 320zM-1106 -874 q0 -40 10.5 -78t37 -76.5t66.5 -66.5t106 -46t149 -18q100 0 197.5 26.5t194.5 81.5t184.5 152.5t152.5 228.5q-144 74 -282.5 114t-303.5 40q-89 0 -164 -13.5t-126.5 -35.5t-92 -52.5t-64.5 -62.5t-39 -68.5t-20.5 -66.5t-5.5 -59zM367 172q100 -41 233 -41 q95 0 168.5 33.5t118.5 86.5t74 127.5t40 148.5t11 157q0 159 -71 238t-226 79q-127 0 -238 -36z" />
<glyph horiz-adv-x="1206" d="M-578 -856q0 230 186 372t521 142q306 0 625 -145q56 151 84 315q13 76 26 190q-112 -41 -235 -41q-461 0 -461 459q0 117 19.5 220t64.5 196t113 159t172 105t235 39q107 0 212.5 -22t157.5 -44l52 -22l-166 -1194q-35 -238 -117 -440q84 -45 131.5 -69.5t126 -59.5 t139 -52.5t138.5 -31t156 -13.5q169 0 327 70l47 -129q-6 -4 -18.5 -10t-54.5 -22.5t-88.5 -29t-119.5 -22.5t-149 -10q-85 0 -169 13.5t-146 31t-141.5 52t-124.5 57.5t-127 67q-145 -266 -369.5 -416.5t-505.5 -150.5q-250 0 -395.5 116t-145.5 320zM-401 -854 q0 -40 10 -78t36.5 -76.5t66.5 -66.5t106 -46t149 -18q94 0 189.5 29t189.5 87.5t181.5 156t154.5 223.5q-140 70 -276 108.5t-295 38.5q-89 0 -164 -13.5t-126.5 -35.5t-92 -52.5t-64.5 -62.5t-39 -68.5t-20.5 -66.5t-5.5 -59zM350 449q0 -159 71 -238.5t226 -79.5 q53 0 112.5 10.5t92.5 20.5l33 10l112 793q-100 36 -235 36q-111 0 -193 -45t-128.5 -124t-68.5 -174.5t-22 -208.5z" />
<glyph horiz-adv-x="1216" d="M-578 -856q0 230 186 372t521 142q306 0 625 -145q56 151 84 315q13 76 26 190q-112 -41 -235 -41q-461 0 -461 459q0 117 19.5 220t64.5 196t113 159t172 105t235 39q107 0 212.5 -22t157.5 -44l52 -22l-166 -1194q-35 -238 -117 -440q84 -45 131.5 -69.5t126 -59.5 t139 -52.5t138.5 -31t156 -13.5q169 0 327 70l47 -129q-6 -4 -18.5 -10t-54.5 -22.5t-88.5 -29t-119.5 -22.5t-149 -10q-85 0 -169 13.5t-146 31t-141.5 52t-124.5 57.5t-127 67q-145 -266 -369.5 -416.5t-505.5 -150.5q-250 0 -395.5 116t-145.5 320zM-401 -854 q0 -40 10 -78t36.5 -76.5t66.5 -66.5t106 -46t149 -18q94 0 189.5 29t189.5 87.5t181.5 156t154.5 223.5q-140 70 -276 108.5t-295 38.5q-89 0 -164 -13.5t-126.5 -35.5t-92 -52.5t-64.5 -62.5t-39 -68.5t-20.5 -66.5t-5.5 -59zM350 449q0 -159 71 -238.5t226 -79.5 q53 0 112.5 10.5t92.5 20.5l33 10l112 793q-100 36 -235 36q-111 0 -193 -45t-128.5 -124t-68.5 -174.5t-22 -208.5zM573 1524v14l107 39q0 -6 0.5 -16.5t8.5 -37.5t22.5 -47.5t46.5 -37.5t76 -17t80 16t56 39t33.5 46t18.5 39l4 16l100 -39q-2 -10 -8 -26.5t-30 -58.5 t-55.5 -74t-89.5 -58.5t-128 -26.5q-51 0 -92 13.5t-65.5 35t-42.5 47.5t-25.5 52t-12 47.5t-4.5 34.5z" />
<glyph horiz-adv-x="1220" d="M168 66l160 1136q42 300 224.5 475.5t455.5 204.5l24 -145q-457 -67 -522 -537l-12 -86q112 41 235 41q461 0 461 -459q0 -117 -19.5 -220t-64.5 -196t-113 -159t-172 -105t-235 -39q-107 0 -212.5 22.5t-157.5 44.5zM365 168q103 -37 235 -37q89 0 160.5 30t117.5 81.5 t77 123t44 150.5t13 168q0 159 -71 238t-226 79q-53 0 -112.5 -10t-92.5 -20l-33 -10z" />
</font>
</defs>
</svg>
