<?xml version="1.0" standalone="no"?>
<!DOCTYPE svg PUBLIC "-//W3C//DTD SVG 1.1//EN" "http://www.w3.org/Graphics/SVG/1.1/DTD/svg11.dtd" >
<svg xmlns="http://www.w3.org/2000/svg">
<metadata></metadata>
<defs>
<font id="roihuthin_italic" horiz-adv-x="1187" >
<font-face units-per-em="2048" ascent="1638" descent="-410" />
<missing-glyph horiz-adv-x="432" />
<glyph unicode="&#xfb00;" horiz-adv-x="1597" d="M233 1051l13 82h198l19 122q45 322 338 322q51 0 94.5 -9.5t61.5 -18.5l18 -9l-31 -78q-53 27 -143 27q-106 0 -166 -54.5t-78 -181.5l-18 -120h663l19 122q45 322 338 322q51 0 94.5 -9.5t61.5 -18.5l18 -9l-31 -78q-53 27 -143 27q-106 0 -166 -54.5t-78 -181.5 l-19 -120h346l-12 -82h-344l-147 -1051h-95l148 1051h-664l-147 -1051h-94l147 1051h-201z" />
<glyph unicode="&#xfb01;" horiz-adv-x="1224" d="M233 1051l13 82h198l19 122q45 322 338 322q51 0 94.5 -9.5t61.5 -18.5l18 -9l-31 -78q-53 27 -143 27q-106 0 -166 -54.5t-78 -181.5l-18 -120h671l-159 -1133h-95l148 1051h-576l-147 -1051h-94l147 1051h-201zM1126 1411q0 39 23.5 63.5t64.5 24.5q32 0 49 -17.5 t17 -47.5q0 -39 -24.5 -63.5t-63.5 -24.5q-32 0 -49 17.5t-17 47.5z" />
<glyph unicode="&#xfb02;" horiz-adv-x="1265" d="M233 1051l13 82h198l19 122q45 322 338 322q51 0 94.5 -9.5t61.5 -18.5l18 -9l-31 -78q-53 27 -143 27q-106 0 -166 -54.5t-78 -181.5l-18 -120h346l-13 -82h-344l-147 -1051h-94l147 1051h-201zM997 0l220 1556h94l-219 -1556h-95z" />
<glyph unicode="&#xfb03;" horiz-adv-x="1980" d="M233 1051l13 82h198l19 122q45 322 338 322q51 0 94.5 -9.5t61.5 -18.5l18 -9l-31 -78q-53 27 -143 27q-106 0 -166 -54.5t-78 -181.5l-18 -120h663l19 122q45 322 338 322q51 0 94.5 -9.5t61.5 -18.5l18 -9l-31 -78q-53 27 -143 27q-106 0 -166 -54.5t-78 -181.5 l-19 -120h670l-160 -1133h-94l148 1051h-574l-147 -1051h-95l148 1051h-664l-147 -1051h-94l147 1051h-201zM1882 1411q0 39 23.5 63.5t64.5 24.5q32 0 49 -17.5t17 -47.5q0 -39 -24.5 -63.5t-63.5 -24.5q-32 0 -49 17.5t-17 47.5z" />
<glyph unicode="&#xfb04;" horiz-adv-x="2023" d="M233 1051l13 82h198l19 122q45 322 338 322q51 0 94.5 -9.5t61.5 -18.5l18 -9l-31 -78q-53 27 -143 27q-106 0 -166 -54.5t-78 -181.5l-18 -120h663l19 122q45 322 338 322q51 0 94.5 -9.5t61.5 -18.5l18 -9l-31 -78q-53 27 -143 27q-106 0 -166 -54.5t-78 -181.5 l-19 -120h346l-12 -82h-344l-147 -1051h-95l148 1051h-664l-147 -1051h-94l147 1051h-201zM1755 0l219 1556h94l-219 -1556h-94z" />
<glyph horiz-adv-x="0" />
<glyph horiz-adv-x="682" />
<glyph horiz-adv-x="0" />
<glyph horiz-adv-x="0" />
<glyph unicode="&#xd;" horiz-adv-x="0" />
<glyph unicode=" "  horiz-adv-x="432" />
<glyph unicode="&#x09;" horiz-adv-x="432" />
<glyph unicode="&#xa0;" horiz-adv-x="432" />
<glyph unicode="!" horiz-adv-x="471" d="M170 41q0 38 21.5 61t60.5 23q30 0 46.5 -17t16.5 -45q0 -37 -22 -60t-60 -23q-30 0 -46.5 16.5t-16.5 44.5zM244 328l143 1126h107l-177 -1126h-73z" />
<glyph unicode="&#x22;" horiz-adv-x="575" d="M287 1030l47 465h98l-86 -465h-59zM518 1030l47 465h99l-86 -465h-60z" />
<glyph unicode="#" horiz-adv-x="1478" d="M156 373l20 80h258l137 548h-256l23 80h254l94 373h94l-94 -373h473l94 373h95l-95 -373h256l-22 -80h-254l-139 -548h254l-21 -80h-254l-92 -373h-94l94 373h-475l-92 -373h-95l95 373h-258zM526 453h475l138 548h-473z" />
<glyph unicode="$" horiz-adv-x="1110" d="M166 78l29 82l13 -6q12 -6 40.5 -16.5t65.5 -21t94.5 -18.5t119.5 -10l88 627q-57 22 -100.5 42t-91 52.5t-78 69t-50.5 88.5t-20 114q0 82 26.5 146.5t69 104.5t102 67t119.5 38.5t128 14.5l27 186h83l-26 -186q56 -2 108.5 -10t88 -18t63 -19.5t40.5 -14.5l13 -6 l-28 -81l-10 5q-11 5 -35.5 14.5t-57 18.5t-84.5 16t-110 9l-84 -592q60 -25 99 -44t87 -52t76 -69t47.5 -90t19.5 -120q0 -381 -438 -399l-29 -205h-84l29 205q-103 4 -190.5 23.5t-123.5 36.5zM369 1083q0 -54 20 -97.5t59 -76t80.5 -55.5t100.5 -47l80 557 q-340 -19 -340 -281zM612 88q175 9 254.5 85.5t79.5 215.5q0 60 -19.5 107.5t-57 82.5t-77.5 58.5t-96 46.5z" />
<glyph unicode="%" horiz-adv-x="1679" d="M274 1047q0 57 11 114.5t37 114.5t64.5 101t98.5 71t133 27t125 -24t79.5 -66t39.5 -89.5t12 -103.5q0 -63 -12 -123t-39 -117t-66 -99.5t-98 -68.5t-131 -26q-68 0 -118.5 24.5t-79.5 67t-42.5 92t-13.5 105.5zM360 1047q0 -94 41.5 -152t133.5 -61q65 0 115 29.5 t79.5 79.5t44 111t14.5 130q0 215 -174 215q-66 0 -116 -29.5t-79.5 -79.5t-44 -111.5t-14.5 -131.5zM487 18l828 1457l76 -37l-830 -1458zM1010 268q0 57 11 114.5t37 114.5t64.5 101t98.5 71t133 27t125 -24t79.5 -66t39.5 -89t12 -103q0 -63 -12 -123t-39 -117t-66 -99.5 t-98 -68.5t-131 -26q-68 0 -118.5 24.5t-79.5 66.5t-42.5 91.5t-13.5 105.5zM1096 268q0 -95 41 -152.5t133 -60.5q65 0 115 29.5t79.5 79.5t44.5 111.5t15 130.5q0 215 -174 215q-87 0 -146 -52t-83.5 -129t-24.5 -172z" />
<glyph unicode="&#x26;" horiz-adv-x="1406" d="M172 358q0 56 13.5 106.5t33.5 89.5t54 75.5t64 61.5t74 52t74.5 43t75.5 37q-119 173 -119 328q0 60 18.5 114.5t57.5 103t108 77.5t160 29q80 0 138.5 -22.5t90.5 -61.5t47 -84.5t15 -98.5q0 -63 -22 -118.5t-54.5 -95t-87 -78.5t-102 -64t-115.5 -57l379 -496 q51 61 92.5 172t55.5 199h86q-16 -112 -59.5 -234t-114.5 -213l141 -184l-72 -59l-135 176q-179 -176 -455 -176q-210 0 -326 102t-116 276zM266 360q0 -143 100 -220t255 -77q128 0 232 50t163 116l-404 527q-58 -28 -95 -48t-90 -58t-84 -75.5t-54 -94t-23 -120.5z M537 1147q0 -127 106 -283q46 21 72.5 33.5t67.5 34.5t65 40t53 44.5t44.5 52.5t26.5 60.5t11 72.5q0 85 -50 138t-151 53q-115 0 -180 -68t-65 -178z" />
<glyph unicode="'" horiz-adv-x="344" d="M287 1030l47 465h98l-86 -465h-59z" />
<glyph unicode="(" horiz-adv-x="581" d="M184 358q0 156 27 307t70 268.5t95 223.5t104 181t95 130t70 82l27 27l57 -49q-9 -9 -25.5 -26.5t-63 -78t-89 -127.5t-94.5 -172.5t-89.5 -215.5t-63 -254.5t-25.5 -291.5q0 -132 18.5 -258.5t45 -213t53 -154.5t44.5 -100l19 -33l-72 -49q-8 12 -22 35.5t-49 102.5 t-61.5 165.5t-48.5 223t-22 277.5z" />
<glyph unicode=")" horiz-adv-x="581" d="M12 -397q9 9 25.5 26.5t63.5 78t89.5 127t94.5 172t89.5 215.5t63 254.5t25.5 291.5q0 132 -18.5 258.5t-45 213.5t-53 155t-44.5 101l-19 32l69 49q8 -12 22 -35.5t49.5 -102.5t62.5 -166t49 -223.5t22 -277.5q0 -156 -27 -307t-70 -268.5t-94.5 -223t-103.5 -180.5 t-95 -130t-70 -82l-27 -27z" />
<glyph unicode="*" horiz-adv-x="854" d="M285 1290l43 86l247 -100l27 280h92l-51 -278l275 98l16 -86l-285 -80l148 -217l-84 -55l-119 229l-184 -229l-68 55l207 217z" />
<glyph unicode="+" horiz-adv-x="1138" d="M246 578l10 79h362l54 377h84l-54 -377h365l-10 -79h-365l-53 -379h-84l53 379h-362z" />
<glyph unicode="," horiz-adv-x="485" d="M92 -285q30 70 70.5 206t44.5 206q26 23 65 23q60 0 60 -62q0 -39 -43.5 -137t-86.5 -176l-44 -78z" />
<glyph unicode="-" horiz-adv-x="864" d="M221 557l10 80h578l-10 -80h-578z" />
<glyph unicode="." horiz-adv-x="493" d="M172 49q0 46 26.5 73.5t71.5 27.5q33 0 51.5 -20t18.5 -52q0 -43 -25.5 -70.5t-66.5 -27.5q-36 0 -56 18t-20 51z" />
<glyph unicode="/" horiz-adv-x="819" d="M18 -231l867 1808h94l-866 -1808h-95z" />
<glyph unicode="0" horiz-adv-x="1269" d="M217 487q0 89 6.5 176.5t24.5 187.5t46.5 187t76 169t108 140t147.5 93t191 35q102 0 180 -27t126.5 -72.5t79 -111.5t42.5 -137.5t12 -157.5q0 -89 -6.5 -175t-24.5 -186.5t-46.5 -187.5t-76 -169.5t-109 -141t-150 -94t-195.5 -35.5q-96 0 -171 27.5t-123 74t-80 112.5 t-45 138t-13 155zM309 485q0 -68 9.5 -126t33.5 -113t62 -93.5t99 -61.5t140 -23q88 0 161.5 31t125.5 83t92.5 125t65.5 152t41 170.5t22 173t6 166.5q0 75 -9.5 134.5t-33.5 114t-64 90.5t-103 57t-148 21q-90 0 -164.5 -33.5t-125.5 -88t-89.5 -132t-61 -157 t-36.5 -171.5t-18.5 -167t-4.5 -152z" />
<glyph unicode="1" horiz-adv-x="755" d="M250 1264l360 190h95l-203 -1454h-94l188 1358l-315 -164z" />
<glyph unicode="2" horiz-adv-x="1107" d="M137 0l13 86l512 473q195 180 275.5 313.5t80.5 251.5q0 119 -72 190.5t-225 71.5q-93 0 -183.5 -26.5t-135.5 -53.5l-44 -26l-41 74q7 5 19.5 13t54 29t85.5 37t111 29t134 13q195 0 293 -94.5t98 -247.5q0 -154 -96 -306.5t-295 -334.5l-442 -406h688l-13 -86h-817z " />
<glyph unicode="3" horiz-adv-x="1085" d="M111 49l30 82q17 -7 47 -17.5t118.5 -28t172.5 -17.5q201 0 323 98t122 289q0 284 -400 284l-118 -2l12 88q38 -2 149 -2q106 0 188.5 27.5t132.5 75.5t75.5 108.5t25.5 130.5q0 107 -77 164t-232 57q-91 0 -177 -18t-127 -36l-40 -17l-31 80q6 3 17.5 8.5t49 19.5 t78.5 24.5t103.5 19t126.5 8.5q198 0 300.5 -81.5t102.5 -219.5q0 -60 -14.5 -114.5t-46.5 -109t-94 -97.5t-148 -67q109 -32 173.5 -114.5t64.5 -210.5q0 -230 -147.5 -355.5t-397.5 -125.5q-92 0 -182.5 17t-134.5 35z" />
<glyph unicode="4" horiz-adv-x="1142" d="M133 401l12 88l795 965h94l-137 -965h233l-12 -88h-233l-56 -401h-94l56 401h-658zM252 489h551l115 809z" />
<glyph unicode="5" horiz-adv-x="1105" d="M139 49l35 82q13 -7 37.5 -17.5t105.5 -28t168 -17.5q202 0 333.5 116t131.5 320q0 317 -344 317q-181 0 -340 -80l142 713h694l-12 -88h-607l-100 -494q115 37 229 37q201 0 316.5 -100t115.5 -305q0 -164 -76.5 -284.5t-202 -180t-282.5 -59.5q-60 0 -117.5 7t-97 17 t-70 20.5t-44.5 17.5z" />
<glyph unicode="6" horiz-adv-x="1153" d="M213 475q0 158 20 298t67.5 271t119.5 225t183.5 150t252.5 56q79 0 150 -17t102 -34l31 -17l-35 -80q0 3 -30 16t-93.5 27t-130.5 14q-96 0 -175.5 -34t-134.5 -89t-97.5 -133t-67.5 -158t-41 -173q169 112 373 112q190 0 295.5 -107.5t105.5 -281.5q0 -242 -127 -391 t-352 -149q-210 0 -313 134.5t-103 360.5zM307 471q0 -60 7.5 -112.5t29.5 -107.5t57.5 -94t96.5 -64t141 -25q65 0 120 17.5t93 45.5t67.5 67t47 79.5t28.5 85t15 81t4 70.5q0 41 -6 77.5t-26 80.5t-53 75t-92.5 52.5t-138.5 21.5q-201 0 -379 -123q-12 -126 -12 -227z" />
<glyph unicode="7" horiz-adv-x="1001" d="M258 0l725 1368h-696l12 86h809l-10 -65l-738 -1389h-102z" />
<glyph unicode="8" horiz-adv-x="1208" d="M172 340q0 85 26.5 158.5t63.5 120.5t88 86t89.5 58.5t78.5 33.5q-90 49 -144.5 128t-54.5 183q0 77 24.5 139t66.5 104t101 70t126 41t143 13q188 0 304 -81t116 -227q0 -68 -22 -129.5t-54.5 -105t-77.5 -81.5t-83 -61t-80 -42q256 -114 256 -338q0 -207 -138.5 -318.5 t-367.5 -111.5q-227 0 -344 96.5t-117 263.5zM266 340q0 -141 100 -209t271 -68q82 0 153.5 20.5t129 62t91 110t33.5 156.5q0 41 -11 76t-27.5 61t-46.5 50t-56 40t-68 34t-71.5 28.5t-77.5 27.5t-76 27q-42 -12 -82 -30t-90 -52.5t-86 -77.5t-61 -110t-25 -146zM414 1110 q0 -55 21.5 -100.5t54 -76t84.5 -58.5t98 -46.5t110 -41.5q10 -3 15 -5q40 16 77 35.5t81 53.5t76 73.5t53.5 97t21.5 121.5q0 81 -47 134t-119 74.5t-168 21.5q-73 0 -133.5 -13.5t-113 -44.5t-82 -88t-29.5 -137z" />
<glyph unicode="9" horiz-adv-x="1153" d="M219 47l35 80q0 -3 30 -16t93.5 -27t130.5 -14q96 0 175.5 34t134 89t96.5 133t67 157.5t41 171.5q-169 -110 -371 -110q-190 0 -295.5 107.5t-105.5 281.5q0 242 127 391.5t352 149.5q107 0 188 -37t130.5 -104.5t73.5 -156.5t24 -198q0 -158 -20 -298t-67.5 -270.5 t-119.5 -224.5t-183.5 -150t-252.5 -56q-50 0 -97.5 7t-79.5 16.5t-57 19.5t-37 17zM344 940q0 -41 6 -77.5t26 -80.5t52.5 -75t92 -52.5t138.5 -21.5q199 0 377 123q15 123 15 227q0 60 -7.5 112.5t-29.5 107.5t-57.5 94t-96.5 64t-141 25q-65 0 -120 -17.5t-93 -45.5 t-67.5 -67t-47 -79.5t-28.5 -85t-15 -81t-4 -70.5z" />
<glyph unicode=":" horiz-adv-x="534" d="M193 51q0 43 26 71t70 28q34 0 52.5 -19.5t18.5 -52.5q0 -43 -26 -70.5t-68 -27.5q-35 0 -54 19t-19 52zM319 956q0 43 26.5 71t70.5 28q34 0 52.5 -19.5t18.5 -52.5q0 -43 -26 -70.5t-68 -27.5q-35 0 -54.5 19t-19.5 52z" />
<glyph unicode=";" horiz-adv-x="530" d="M102 -285q30 70 70.5 206t44.5 206q27 23 66 23q59 0 59 -62q0 -39 -43.5 -137t-86.5 -176l-44 -78zM315 956q0 43 26.5 71t70.5 28q33 0 52 -19.5t19 -52.5q0 -43 -26.5 -70.5t-69.5 -27.5q-35 0 -53.5 19t-18.5 52z" />
<glyph unicode="&#x3c;" horiz-adv-x="1247" d="M227 522l13 92l952 490l27 -70l-910 -467l778 -465l-47 -69z" />
<glyph unicode="=" horiz-adv-x="1097" d="M201 334l10 80h790l-10 -80h-790zM262 764l10 80h791l-10 -80h-791z" />
<glyph unicode="&#x3e;" horiz-adv-x="1247" d="M188 102l910 465l-779 467l48 70l813 -490l-13 -92l-952 -489z" />
<glyph unicode="?" horiz-adv-x="964" d="M252 1401q16 8 46.5 20.5t129 33t203.5 20.5q101 0 176 -23.5t117.5 -65t63 -92.5t20.5 -112q0 -86 -29.5 -153t-77 -111t-104.5 -81.5t-114.5 -74.5t-105 -79t-77 -106.5t-29.5 -146.5l2 -43h-94q-2 18 -2 43q0 92 29.5 165.5t77 122.5t104.5 90t114 77.5t104.5 75.5 t77 94.5t29.5 124.5q0 94 -73 150t-226 56q-92 0 -177.5 -17t-124.5 -33l-40 -17zM330 37q0 41 22.5 64.5t63.5 23.5q57 0 57 -59q0 -39 -22 -62.5t-58 -23.5q-63 0 -63 57z" />
<glyph unicode="@" horiz-adv-x="2140" d="M217 381q0 117 21 231t64 222t106 203.5t151.5 176t194.5 138t240.5 89.5t285.5 32q172 0 309.5 -37t229 -100.5t152.5 -152.5t87.5 -188.5t26.5 -212.5q0 -159 -42 -294.5t-113.5 -227t-166 -143t-198.5 -51.5q-173 0 -248 137q-153 -117 -336 -117q-124 0 -199 81.5 t-75 229.5q0 65 13.5 134t40.5 139t71.5 132t101.5 110t135.5 76t169.5 28q88 0 168 -18t116 -36l36 -18l-181 -647q16 -55 61.5 -98t129.5 -43q55 0 111 19.5t112.5 66.5t100 116.5t71 180t27.5 245.5q0 64 -9 122.5t-32 120t-58.5 113t-92 97.5t-129 78t-173 50.5 t-221.5 18.5q-192 0 -353 -54.5t-273 -148.5t-190 -222.5t-114.5 -275t-36.5 -306.5q0 -336 202 -535.5t566 -199.5q119 0 237.5 22t177.5 44l58 22l17 -78q-8 -4 -23 -11t-65 -24.5t-103.5 -30.5t-135.5 -24t-165 -11q-177 0 -321.5 44t-243 120.5t-165.5 182.5 t-97.5 226.5t-30.5 256.5zM805 401q0 -100 45.5 -162.5t134.5 -62.5q70 0 143 23.5t110 46.5l38 24l176 623q-117 33 -188 35q-111 0 -200 -43.5t-144.5 -117.5t-85 -168t-29.5 -198z" />
<glyph unicode="A" horiz-adv-x="1359" d="M72 0l739 1454h147l330 -1454h-96l-111 485h-663l-246 -485h-100zM463 573h598l-184 813z" />
<glyph unicode="B" horiz-adv-x="1294" d="M184 10l203 1434q234 31 414 31q237 0 358 -77.5t121 -254.5q0 -292 -313 -373q148 -31 211 -116t63 -224q0 -233 -162 -341.5t-473 -108.5q-93 0 -198.5 7.5t-164.5 14.5zM291 88q157 -20 307 -20q130 0 226.5 17.5t171.5 58t113 112t38 174.5q0 157 -92.5 224 t-296.5 67h-379zM391 809h318q237 0 356 84.5t119 247.5q0 139 -98.5 192t-292.5 53q-152 0 -324 -22z" />
<glyph unicode="C" horiz-adv-x="1206" d="M211 563q0 133 21 256t73 245t131 211t205 144.5t285 55.5q96 0 185 -18t130 -36l41 -18l-37 -78q-13 7 -39 17t-110 27t-174 17q-97 0 -180 -25t-141.5 -64.5t-106.5 -97.5t-78 -115.5t-52.5 -127.5t-33 -124.5t-17 -115.5t-7.5 -91t-1 -60q0 -53 6 -100.5t21.5 -98.5 t39.5 -93.5t63.5 -81t90 -65.5t122 -42.5t157.5 -15.5q75 0 140.5 10t93.5 20l28 11l23 -82q-12 -5 -35 -13t-98 -21t-156 -13q-130 0 -232.5 31.5t-168.5 85t-109.5 129t-61.5 158.5t-18 179z" />
<glyph unicode="D" horiz-adv-x="1368" d="M186 10l203 1434q213 31 399 31q134 0 236 -31t165.5 -83.5t103.5 -129.5t55.5 -160t15.5 -184q0 -88 -9 -170.5t-33 -175.5t-61.5 -171.5t-100 -152t-143 -125t-195.5 -82t-253 -30.5q-74 0 -169.5 7.5t-154.5 14.5zM291 86q133 -18 282 -18q65 0 127.5 8.5t133.5 33 t131.5 62.5t118 102t98 147t64.5 202t24 262q0 87 -13 158.5t-36.5 123t-58.5 90.5t-75 63t-91 39t-102 21t-112 6q-167 0 -309 -18z" />
<glyph unicode="E" horiz-adv-x="1202" d="M225 324q0 36 6 79l148 1051h895l-12 -88h-801l-80 -559h715l-13 -88h-712l-45 -316q-7 -44 -7 -67q0 -141 99 -204.5t293 -63.5q99 0 192.5 8t137.5 16l44 8l-12 -86q-147 -34 -368 -34q-235 0 -357.5 86t-122.5 258z" />
<glyph unicode="F" horiz-adv-x="1163" d="M184 0l205 1454h887l-12 -88h-793l-82 -586h711l-13 -88h-710l-98 -692h-95z" />
<glyph unicode="G" horiz-adv-x="1304" d="M211 565q0 92 11 180.5t36 180t63 171t96 150t130.5 120.5t171 79t213.5 29q65 0 130 -8t111 -19.5t82.5 -23t54.5 -18.5l19 -7l-35 -78q-16 7 -46.5 17.5t-126 28t-193.5 17.5t-181 -24.5t-142 -63.5t-107.5 -96t-79 -114.5t-53 -126.5t-33.5 -124t-18 -115.5t-8 -92 t-1 -62.5q0 -77 12.5 -143.5t47.5 -133.5t91 -114t149 -76.5t214 -29.5q125 0 238 24l96 662h94l-104 -725q-15 -6 -55.5 -16t-124 -21.5t-162.5 -11.5q-130 0 -232 31.5t-168.5 85t-110 129.5t-61.5 159t-18 180z" />
<glyph unicode="H" horiz-adv-x="1413" d="M184 0l205 1454h94l-92 -655h856l92 655h95l-205 -1454h-94l100 711h-856l-100 -711h-95z" />
<glyph unicode="I" horiz-adv-x="483" d="M195 0l204 1454h95l-205 -1454h-94z" />
<glyph unicode="J" horiz-adv-x="823" d="M127 39l35 80q9 -6 24.5 -14.5t64.5 -22.5t97 -14q120 0 177.5 67.5t74.5 188.5l160 1130h94l-160 -1135q-47 -339 -340 -339q-60 0 -117 15t-83 29z" />
<glyph unicode="K" horiz-adv-x="1222" d="M184 0l205 1454h94l-104 -733l807 733h131l-828 -754l420 -493q100 -119 203 -119q16 0 33 2.5t26 5.5l9 2l-13 -84q-35 -14 -84 -14q-69 0 -129.5 39t-124.5 115l-454 540l-96 -694h-95z" />
<glyph unicode="L" horiz-adv-x="1103" d="M221 293q0 37 6 84l152 1077h94l-151 -1077q-5 -29 -5 -66q0 -135 95 -189t284 -54q92 0 174.5 10t119.5 20l36 11l-12 -95q-131 -34 -332 -34q-234 0 -347.5 74t-113.5 239z" />
<glyph unicode="M" horiz-adv-x="1693" d="M125 0l328 1454h135l305 -1106l616 1106h140l-82 -1454h-94l71 1262l6 98l-49 -98l-565 -1010h-109l-278 1010l-27 98l-16 -98l-285 -1262h-96z" />
<glyph unicode="N" horiz-adv-x="1421" d="M184 0l205 1454h143l629 -1356l10 107l177 1249h94l-205 -1454h-133l-639 1374l-10 -114l-176 -1260h-95z" />
<glyph unicode="O" horiz-adv-x="1392" d="M209 535q0 89 8.5 175t29.5 181t53.5 177.5t85 158.5t119.5 130t161 86t206 32q249 0 380.5 -144.5t131.5 -408.5q0 -89 -8 -175t-29 -181.5t-53.5 -178t-85 -159t-119.5 -130.5t-160.5 -86t-205.5 -32q-514 0 -514 555zM303 532q0 -78 9.5 -141t37.5 -125.5t74 -104 t123.5 -67.5t181.5 -26t189.5 34.5t142.5 90t100.5 133t67.5 154t39 163.5t19.5 151.5t4.5 127.5q0 101 -22.5 182.5t-71 146t-133 100t-199.5 35.5q-104 0 -190 -34.5t-143 -90t-100.5 -133t-67.5 -154t-38.5 -164t-19 -151.5t-4.5 -127z" />
<glyph unicode="P" horiz-adv-x="1257" d="M184 0l203 1444q180 31 422 31q234 0 365 -101.5t131 -288.5q0 -83 -20 -159t-66 -146t-114.5 -121t-174 -81.5t-236.5 -30.5q-260 0 -338 10l-77 -557h-95zM369 643q108 -8 340 -8q231 0 365 117t134 319q0 157 -104.5 236t-290.5 79q-201 0 -342 -18z" />
<glyph unicode="Q" horiz-adv-x="1392" d="M209 535q0 89 8.5 175t29.5 181t53.5 177.5t85 158.5t119.5 130t161 86t206 32q249 0 380.5 -144.5t131.5 -408.5q0 -89 -8 -175t-29 -181.5t-53.5 -178t-85 -159t-119.5 -130.5t-160.5 -86t-205.5 -32q-514 0 -514 555zM303 532q0 -77 10.5 -141t39 -125.5t75 -103.5 t123 -68t178.5 -26q104 0 189.5 34.5t142.5 90t100.5 133t67.5 154t39 163.5t19.5 151.5t4.5 127.5q0 101 -23 182.5t-72 146t-133 100t-198 35.5q-104 0 -190 -34.5t-143 -90t-100.5 -133t-67.5 -154t-38.5 -164t-19 -151.5t-4.5 -127zM606 -260l10 72l584 -50l-12 -81z " />
<glyph unicode="R" horiz-adv-x="1320" d="M184 0l203 1444q262 31 404 31q118 0 211 -20t162.5 -62t107 -111.5t37.5 -163.5t-22 -168.5t-71.5 -139t-139 -107.5t-216.5 -62l191 -424q30 -66 66.5 -97.5t94.5 -31.5q14 0 25 1.5t17 3t8 1.5l-11 -82q-26 -12 -65 -12q-83 0 -133.5 48.5t-89.5 137.5l-201 445 q-33 -2 -103 -2q-115 0 -290 10l-90 -639h-95zM381 725q116 -8 281 -8q292 0 421 91.5t129 293.5q0 67 -22.5 117.5t-60 81.5t-94 50.5t-117 27t-136.5 7.5q-156 0 -311 -18z" />
<glyph unicode="S" horiz-adv-x="1196" d="M180 55l27 84q19 -8 53 -19.5t135 -30.5t197 -19q206 0 321 80.5t115 228.5q0 42 -10.5 77.5t-25.5 62t-44.5 52t-53 41t-67 35t-70 30t-77.5 28.5q-58 21 -95.5 35.5t-84 37t-76 43t-60.5 50t-48.5 62.5t-28.5 76t-11 93q0 87 33.5 154t85.5 107.5t123.5 66.5 t139.5 35.5t141 9.5q70 0 137 -8.5t111 -19.5t78.5 -23t50.5 -19t16 -6l-31 -82q0 -1 -14.5 5.5t-46 17t-72 21t-101.5 18t-126 7.5q-64 0 -122 -7.5t-115.5 -27.5t-99 -51.5t-67.5 -82t-26 -115.5q0 -59 20 -103t67.5 -80t104.5 -63t152 -63q58 -22 93 -36t83.5 -37 t77.5 -43.5t61.5 -51.5t50 -64.5t29.5 -78.5t12 -97q0 -196 -142.5 -300.5t-389.5 -104.5q-66 0 -132.5 7.5t-114.5 19t-86 22.5t-57 19z" />
<glyph unicode="T" horiz-adv-x="1255" d="M264 1366l12 88h1113l-13 -88h-508l-192 -1366h-94l192 1366h-510z" />
<glyph unicode="U" horiz-adv-x="1413" d="M242 406q0 79 10 143l127 905h94l-127 -905q-10 -82 -10 -135q0 -90 23 -155.5t57.5 -101.5t88.5 -57t101.5 -26.5t110.5 -5.5q76 0 133.5 8.5t123 37.5t111 79.5t83.5 140.5t55 215l127 905h94l-127 -905q-21 -149 -63 -253t-113.5 -176t-177 -106t-250.5 -34 q-229 0 -350 100t-121 326z" />
<glyph unicode="V" horiz-adv-x="1331" d="M276 1454h95l299 -1405l694 1405h100l-719 -1454h-159z" />
<glyph unicode="W" horiz-adv-x="1992" d="M276 1454h95l182 -1280l14 -121l49 123l523 1217h102l178 -1219l17 -121l49 125l540 1276h101l-617 -1454h-159l-168 1133l-11 116l-43 -116l-485 -1133h-160z" />
<glyph unicode="X" horiz-adv-x="1286" d="M66 0l622 729l-420 725h105l379 -653l557 653h114l-626 -731l422 -723h-107l-377 649l-555 -649h-114z" />
<glyph unicode="Y" horiz-adv-x="1269" d="M266 1454h103l362 -747l572 747h110l-647 -844l-86 -610h-94l88 618z" />
<glyph unicode="Z" d="M106 0l13 88l1038 1278h-858l12 88h975l-12 -88l-1038 -1278h858l-13 -88h-975z" />
<glyph unicode="[" horiz-adv-x="591" d="M125 -426l278 1982h377l-12 -90h-283l-254 -1802h283l-12 -90h-377z" />
<glyph unicode="\" horiz-adv-x="819" d="M283 1577h94l358 -1808h-94z" />
<glyph unicode="]" horiz-adv-x="591" d="M-29 -426l13 90h282l254 1802h-282l12 90h377l-279 -1982h-377z" />
<glyph unicode="^" horiz-adv-x="1042" d="M229 899l459 657h105l274 -657l-86 -43l-254 617l-424 -617z" />
<glyph unicode="_" horiz-adv-x="950" d="M-12 -92l10 72h950l-10 -72h-950z" />
<glyph unicode="`" horiz-adv-x="630" d="M360 1509l66 70l240 -240l-54 -55z" />
<glyph unicode="a" horiz-adv-x="1177" d="M184 457q0 329 157 512.5t433 183.5q84 0 179.5 -18t149.5 -36l54 -18l-145 -1040q-21 -7 -57 -17t-135 -27t-183 -17q-125 0 -214 33t-140.5 97t-75 149t-23.5 198zM279 459q0 -206 86 -299.5t282 -93.5q65 0 135.5 9t107.5 18l38 9l129 924q-152 41 -287 41 q-125 0 -220.5 -47.5t-154 -131t-87.5 -192t-29 -237.5z" />
<glyph unicode="b" d="M182 61l211 1495h94l-65 -456q148 53 311 53q424 0 424 -453q0 -364 -162 -542t-448 -178q-62 0 -122.5 8.5t-102 20t-75 23.5t-49.5 20zM285 115q133 -49 266 -49q135 0 235 45.5t160 131t88.5 198.5t28.5 257q0 190 -83 279.5t-267 89.5q-158 0 -303 -51z" />
<glyph unicode="c" horiz-adv-x="1024" d="M184 446q0 152 34 279t100.5 223.5t175 150.5t249.5 54q52 0 101 -6t82 -14t58.5 -16.5t37.5 -13.5l12 -5l-30 -80q-12 5 -33.5 13t-90.5 21t-139 13q-91 0 -165 -29t-121 -73t-82 -106.5t-52.5 -118.5t-27.5 -121.5t-12 -102t-2 -72.5q0 -179 93 -276.5t285 -97.5 q56 0 110.5 7.5t80.5 14.5l26 8l15 -82q-86 -36 -238 -36q-467 0 -467 466z" />
<glyph unicode="d" horiz-adv-x="1181" d="M184 432q0 182 42 320.5t121 226t189 131t248 43.5q170 0 283 -53l66 456h94l-211 -1495q-19 -9 -53 -22.5t-136 -36t-200 -22.5q-443 0 -443 452zM279 436q0 -190 84 -280t268 -90q149 0 299 49l127 901q-110 51 -277 51q-129 0 -226 -45.5t-157 -130.5t-89 -198.5 t-29 -256.5z" />
<glyph unicode="e" horiz-adv-x="1116" d="M184 432q0 94 12 179.5t38 168t70 149t103.5 117.5t143.5 79t186 28q101 0 174.5 -27.5t115 -77.5t60.5 -111t19 -136q0 -59 -10 -118t-20 -89l-11 -29h-774q-8 -63 -8 -143q0 -354 333 -354q91 0 173 15.5t119 31.5l36 16l6 -90q-14 -7 -41.5 -17t-116 -27t-182.5 -17 q-426 0 -426 452zM305 647h688q19 89 19 156q0 262 -287 262q-341 0 -420 -418z" />
<glyph unicode="f" horiz-adv-x="839" d="M233 1051l13 82h198l19 122q45 322 338 322q51 0 94.5 -9.5t61.5 -18.5l18 -9l-31 -78q-53 27 -143 27q-106 0 -166 -54.5t-78 -181.5l-18 -120h346l-13 -82h-344l-147 -1051h-94l147 1051h-201z" />
<glyph unicode="g" horiz-adv-x="1183" d="M184 -389l33 84q10 -6 29.5 -15t88 -24.5t144.5 -15.5q91 0 162.5 22.5t118 58t80 88.5t50.5 105.5t28 116.5q-143 -51 -289 -51q-209 0 -326 108t-117 344q0 361 153.5 541t434.5 180q98 0 195 -20.5t145 -40.5l47 -21l-143 -1010q-10 -73 -26.5 -133t-44 -119.5 t-69 -104t-97 -79.5t-133.5 -53t-173 -18q-84 0 -156.5 14t-103.5 28zM281 434q0 -188 85 -278t263 -90q148 0 303 49l127 901q-130 51 -289 51q-129 0 -224.5 -46t-152.5 -131.5t-84.5 -198.5t-27.5 -257z" />
<glyph unicode="h" horiz-adv-x="1228" d="M174 0l219 1556h94l-63 -454q18 6 49.5 14.5t118 22.5t160.5 14q214 0 316.5 -78t102.5 -256q0 -59 -8 -114l-98 -705h-94l98 711q8 63 8 90q0 70 -20 120t-49.5 77.5t-77.5 43t-89.5 19.5t-99.5 4q-88 0 -170.5 -11.5t-120.5 -23.5l-38 -12l-144 -1018h-94z" />
<glyph unicode="i" horiz-adv-x="442" d="M174 0l160 1133h94l-160 -1133h-94zM344 1411q0 39 23.5 63.5t64.5 24.5q32 0 49 -17.5t17 -47.5q0 -39 -24.5 -63.5t-63.5 -24.5q-32 0 -49 17.5t-17 47.5z" />
<glyph unicode="j" horiz-adv-x="464" d="M-184 -412l28 80q49 -28 131 -28q53 0 90.5 18t60.5 54.5t35.5 79t20.5 102.5l174 1239h95l-175 -1239q-11 -78 -29.5 -134.5t-51.5 -105.5t-87.5 -74.5t-130.5 -25.5q-42 0 -82 8.5t-59 17.5zM367 1411q0 39 23.5 63.5t64.5 24.5q32 0 48.5 -17.5t16.5 -47.5 q0 -39 -24.5 -63.5t-63.5 -24.5q-32 0 -48.5 17.5t-16.5 47.5z" />
<glyph unicode="k" horiz-adv-x="1079" d="M174 0l219 1556h94l-135 -958l649 535h138l-670 -549l289 -373q33 -42 54 -64t57.5 -40.5t78.5 -18.5q17 0 35.5 2.5t28.5 5.5l10 2l-12 -84q-35 -14 -82 -14q-128 0 -246 152l-332 432l-82 -584h-94z" />
<glyph unicode="l" horiz-adv-x="442" d="M174 0l219 1556h94l-219 -1556h-94z" />
<glyph unicode="m" horiz-adv-x="1986" d="M174 0l152 1071q7 3 20.5 8.5t58 20t92 25t119.5 19.5t144 9q244 0 332 -113q220 113 446 113q391 0 391 -336q0 -57 -8 -115l-98 -702h-94l98 702q8 66 8 95q0 70 -20 121t-48.5 79t-73 44t-81 20t-84.5 4q-183 0 -398 -94q21 -61 21 -144q0 -67 -8 -122l-99 -705h-94 l99 705q8 71 8 102q0 49 -9 87.5t-24 65.5t-39 46.5t-48 30.5t-57.5 17.5t-62 8.5t-65.5 2q-96 0 -181 -11.5t-122 -23.5l-37 -12l-144 -1018h-94z" />
<glyph unicode="n" horiz-adv-x="1228" d="M174 0l152 1071q7 3 21 8.5t59 20t92 25t116.5 19.5t137.5 9q211 0 315 -81t104 -253q0 -64 -8 -114l-98 -705h-94q98 707 98 711q8 63 8 90q0 70 -20 120t-49.5 77.5t-77.5 43t-89.5 19.5t-99.5 4q-88 0 -170.5 -11.5t-120.5 -23.5l-38 -12l-144 -1018h-94z" />
<glyph unicode="o" horiz-adv-x="1183" d="M184 416q0 121 18 227t59.5 201t103.5 162.5t154.5 107t207.5 39.5t199.5 -33t133 -93.5t71 -137.5t22.5 -174q0 -103 -16 -201.5t-55.5 -197t-99 -171.5t-155 -119t-215.5 -46q-116 0 -201 33.5t-133.5 94.5t-71 137t-22.5 171zM279 418q0 -58 8 -105.5t31 -94.5 t60 -78.5t99 -51.5t144 -20q96 0 173 39t125.5 102t81 149t45.5 173.5t13 181.5q0 58 -8 105.5t-30.5 95t-59.5 79.5t-98.5 52t-143.5 20q-70 0 -129.5 -19t-101.5 -49.5t-76 -76t-55.5 -90t-37 -99.5t-23 -97.5t-12 -92t-5 -73t-0.5 -50.5z" />
<glyph unicode="p" d="M115 -426l211 1497q7 3 19.5 8.5t53.5 20t84 25t106.5 19.5t125.5 9q442 0 442 -453q0 -360 -158.5 -540t-441.5 -180q-170 0 -283 53l-65 -459h-94zM285 117q110 -51 276 -51q129 0 226.5 45.5t157 130t89 198t29.5 256.5q0 190 -84 280.5t-268 90.5q-149 0 -299 -49z " />
<glyph unicode="q" horiz-adv-x="1181" d="M184 432q0 364 162.5 542.5t448.5 178.5q98 0 189 -20.5t133 -40.5l42 -21l-211 -1497h-94l66 459q-148 -53 -312 -53q-424 0 -424 452zM279 434q0 -190 83 -279t267 -89q158 0 303 51l125 901q-133 49 -266 49q-135 0 -235 -46t-160 -131.5t-88.5 -198.5t-28.5 -257z " />
<glyph unicode="r" horiz-adv-x="710" d="M174 0l150 1069q133 72 327 72q67 0 127 -8l-20 -84q-43 6 -111 6q-70 0 -129 -9.5t-82 -18.5l-24 -9l-144 -1018h-94z" />
<glyph unicode="s" horiz-adv-x="980" d="M143 37l25 86q17 -6 47.5 -15t116.5 -24.5t162 -15.5q164 0 247.5 63t83.5 172q0 25 -5.5 47.5t-12 39.5t-22 34t-26.5 28t-35 24t-37.5 20t-44 18.5t-44.5 16t-49 16.5q-60 20 -99.5 36t-85 43t-71.5 56.5t-44 73.5t-18 98q0 84 37.5 144.5t102.5 93t137 47t156 14.5 q79 0 155.5 -12.5t112.5 -24.5l37 -12l-27 -84q-13 5 -37 12.5t-97 20t-144 12.5q-60 0 -114 -9.5t-106.5 -31t-84 -65t-31.5 -103.5q0 -28 7.5 -52t18 -41.5t32.5 -34.5t39 -28t49.5 -24.5t53.5 -21t60 -21.5q37 -13 57 -20t53.5 -20.5t52.5 -24t46 -27.5t42.5 -33 t33.5 -38.5t27 -47t15.5 -55.5t6.5 -66q0 -163 -119 -242t-322 -79q-89 0 -173.5 14t-124.5 28z" />
<glyph unicode="t" horiz-adv-x="868" d="M233 1051l13 82h166l43 305l96 22l-45 -327h397l-12 -82h-397l-99 -715q-6 -47 -6 -70q0 -198 209 -198q44 0 85.5 8t60.5 16l20 8l4 -86q-67 -34 -178 -34q-295 0 -295 272q0 40 6 86l98 713h-166z" />
<glyph unicode="u" horiz-adv-x="1218" d="M217 313q0 69 8 115l99 705h94l-99 -711q-8 -65 -8 -92q0 -70 21 -120t51.5 -77t79 -42t88.5 -19t96 -4q88 0 170.5 12t120.5 24l39 11l143 1018h94l-151 -1072q-21 -9 -58 -22.5t-148.5 -36t-219.5 -22.5q-212 0 -316 81t-104 252z" />
<glyph unicode="v" horiz-adv-x="1140" d="M219 1133h94l246 -1078l541 1078h102l-567 -1133h-160z" />
<glyph unicode="w" horiz-adv-x="1708" d="M219 1133h96l166 -1070l465 1070h98l166 -1070l465 1070h101l-494 -1133h-158l-133 860l-6 160l-57 -162l-375 -858h-160z" />
<glyph unicode="x" horiz-adv-x="1005" d="M66 0l464 569l-305 564h105l262 -486l397 486h115l-465 -572l305 -561h-104l-265 485l-395 -485h-114z" />
<glyph unicode="y" horiz-adv-x="1218" d="M215 319q0 57 8 109l99 705h94l-99 -705q-6 -50 -6 -92q0 -59 13 -104.5t38.5 -74t54.5 -47t69.5 -27.5t75 -12t79.5 -3q96 0 180 12t120 24l36 11l143 1018h94l-151 -1072q-13 -88 -34 -158.5t-62 -137.5t-99 -112t-146.5 -72t-201.5 -27q-86 0 -158.5 14t-102.5 28 l-30 15l33 84q10 -6 30 -15t89 -24.5t147 -15.5q88 0 158.5 22t116.5 57t79.5 87t51.5 103.5t29 115.5q-149 -45 -328 -45q-209 0 -314.5 82.5t-105.5 256.5z" />
<glyph unicode="z" horiz-adv-x="1019" d="M123 0l12 84l791 965h-639l12 84h741l-14 -101l-780 -948h663l-12 -84h-774z" />
<glyph unicode="{" horiz-adv-x="690" d="M217 518l12 92q74 0 111.5 34t46.5 104l84 600q12 96 75.5 152t172.5 56h129l-12 -88h-127q-72 0 -103.5 -33.5t-40.5 -93.5l-84 -596q-10 -73 -39 -118.5t-88 -63.5q80 -24 80 -125q0 -19 -4 -55l-84 -596q-2 -12 -2 -35q0 -43 25 -66.5t86 -23.5h127l-13 -88h-129 q-97 0 -144.5 44.5t-47.5 123.5q0 25 2 39l86 600l2 35q0 52 -28 77t-93 25z" />
<glyph unicode="|" horiz-adv-x="573" d="M186 -426l279 1982h82l-279 -1982h-82z" />
<glyph unicode="}" horiz-adv-x="706" d="M2 -426l12 88h127q72 0 105 33t41 92l84 596q10 74 38 119t87 61q-78 24 -78 123q0 19 4 59l82 596q2 12 2 35q0 92 -111 92h-127l13 88h129q97 0 144.5 -45t47.5 -125q0 -24 -2 -38l-84 -600q-2 -12 -2 -37q0 -51 27.5 -76t91.5 -25l-12 -92q-75 0 -112 -34t-46 -103 l-84 -600q-12 -96 -75.5 -151.5t-172.5 -55.5h-129z" />
<glyph unicode="~" horiz-adv-x="935" d="M166 535q2 8 7 21.5t25 47.5t44 60t66 47.5t91 21.5q47 0 94.5 -22t79.5 -48.5t73 -48.5t77 -22q32 0 59.5 14.5t44.5 35t29.5 41.5t17.5 35l5 15l67 -22q-1 -4 -4 -11t-12.5 -28t-21.5 -39.5t-32.5 -41.5t-43 -39.5t-54.5 -28t-67 -11.5q-46 0 -92.5 22t-79 48.5 t-73.5 48.5t-77 22q-50 0 -89.5 -35.5t-53.5 -70.5l-15 -35z" />
<glyph unicode="&#xa1;" horiz-adv-x="471" d="M131 -362l180 1167h74l-147 -1167h-107zM313 1069q0 37 23 60.5t61 23.5q30 0 46 -16.5t16 -44.5q0 -38 -21.5 -61t-60.5 -23q-30 0 -47 16.5t-17 44.5z" />
<glyph unicode="&#xa2;" horiz-adv-x="999" d="M215 608q0 131 30 246.5t89 209t154 153.5t217 73l26 185h86l-26 -181q49 -1 93.5 -8t73 -15.5t50.5 -17t32 -13.5l9 -5l-37 -80q-9 5 -27 13t-78.5 22t-128.5 16l-133 -958h27q59 0 114 9t80 19l25 9l12 -84q-10 -5 -28.5 -11.5t-80.5 -18t-130 -11.5h-31l-27 -180h-86 l27 188q-89 15 -154 54t-103.5 97.5t-56.5 130t-18 158.5zM309 610q0 -301 250 -352l133 942q-74 -10 -134.5 -42t-99.5 -73.5t-68 -97.5t-44 -106t-24 -107.5t-11 -93t-2 -70.5z" />
<glyph unicode="&#xa3;" horiz-adv-x="1118" d="M147 0l13 88q140 107 194 224t54 255q0 15 -5 92h-184l12 80h166q-22 189 -22 262q0 76 12 141t43.5 128t81 107t130 71t185.5 27q59 0 112 -8t87 -20t60 -24t38 -20l11 -8l-43 -78q-4 3 -12 7.5t-35 16.5t-56.5 21t-75.5 16.5t-94 7.5q-95 0 -164.5 -29t-108.5 -81.5 t-57 -118t-18 -145.5q0 -38 3.5 -83t10 -102t9.5 -88h475l-13 -80h-456q2 -25 2 -73q0 -143 -50 -265.5t-178 -234.5h723l-12 -86h-838z" />
<glyph unicode="&#xa4;" horiz-adv-x="1136" d="M199 473l163 141q-51 76 -51 193q0 169 117 289l-121 139l62 53l116 -141q114 84 258 84q139 0 232 -80l153 137l46 -53l-156 -135q51 -79 51 -195q0 -169 -123 -295l123 -137l-61 -53l-121 141q-107 -74 -248 -74q-146 0 -231 76l-164 -143zM395 821q0 -113 71.5 -183.5 t182.5 -70.5q138 0 238 93.5t100 232.5q0 111 -72 184.5t-182 73.5q-136 0 -237 -96.5t-101 -233.5z" />
<glyph unicode="&#xa5;" horiz-adv-x="1146" d="M223 313l10 80h347l30 228h-344l13 79h317l-330 754h101l311 -717l512 717h100l-542 -754h321l-12 -79h-350l-33 -228h350l-10 -80h-352l-44 -313h-94l43 313h-344z" />
<glyph unicode="&#xa6;" horiz-adv-x="573" d="M186 -424l117 838h82l-117 -838h-82zM346 719l119 837h82l-119 -837h-82z" />
<glyph unicode="&#xa7;" d="M152 -385l34 84q13 -7 37.5 -17t108 -27t176.5 -17q220 0 322 84.5t102 228.5q0 37 -5.5 68.5t-20.5 57.5t-28.5 45.5t-41.5 39t-46.5 31.5t-57.5 28.5t-60 25t-68 25.5q-51 19 -78 30t-72 32t-69.5 38.5t-56 46.5t-47.5 59.5t-27.5 72t-11.5 90.5q0 106 54.5 184.5 t133.5 122.5q-111 90 -111 252q0 86 27 153t72 108.5t109.5 68t133.5 37t150 10.5q100 0 186.5 -13.5t122.5 -27.5l37 -14l-31 -80q-12 6 -35.5 14.5t-104.5 22.5t-171 14q-399 0 -399 -293q0 -44 10 -79.5t33 -63t46 -46.5t63.5 -38t69 -30.5t80.5 -29.5t81 -30 q68 -27 117.5 -55t95.5 -70.5t70 -102.5t24 -137q0 -191 -168 -311q90 -93 90 -246q0 -191 -130.5 -299t-395.5 -108q-100 0 -187.5 15t-124.5 31zM338 645q0 -35 8 -65.5t21 -53.5t35 -44t43.5 -36t53 -29.5t58.5 -25t64 -22.5q186 -65 256 -111q133 82 133 248 q0 50 -14.5 91t-36 69.5t-58 54t-68.5 41.5t-79 35q-29 12 -80 31.5t-89.5 35t-70.5 31.5q-176 -76 -176 -250z" />
<glyph unicode="&#xa8;" horiz-adv-x="851" d="M362 1411q0 36 22 59t58 23q29 0 45.5 -16t16.5 -43q0 -35 -22.5 -58.5t-57.5 -23.5q-30 0 -46 16t-16 43zM748 1411q0 36 21.5 59t57.5 23q29 0 45.5 -16t16.5 -43q0 -36 -22 -59t-58 -23q-29 0 -45 16t-16 43z" />
<glyph unicode="&#xa9;" horiz-adv-x="1761" d="M227 647q0 156 63.5 306t172 265.5t265.5 186t331 70.5q191 0 345.5 -89t240.5 -242t86 -339q0 -166 -68.5 -319.5t-181.5 -263.5t-265.5 -176t-314.5 -66q-144 0 -270 52t-214 141.5t-139 212.5t-51 261zM313 647q0 -251 167.5 -416t430.5 -165q145 0 279.5 57 t234.5 154.5t160 235.5t60 292q0 253 -169.5 418.5t-433.5 165.5q-147 0 -282 -59.5t-232.5 -159.5t-156 -237.5t-58.5 -285.5zM586 645q0 104 27.5 196.5t81 166.5t140 117.5t195.5 43.5q55 0 114.5 -11.5t91.5 -22.5l32 -11l-27 -73q-101 39 -201 39q-69 0 -125.5 -18.5 t-94 -47t-65.5 -70t-43 -81t-24 -85.5t-11.5 -78t-2.5 -65q0 -280 287 -280q42 0 88.5 5.5t72.5 11.5l25 5l6 -74q-101 -28 -207 -28q-182 0 -271 99t-89 261z" />
<glyph unicode="&#xaa;" horiz-adv-x="784" d="M178 457l10 71h560l-11 -71h-559zM193 850q0 74 31 127t85.5 81.5t115.5 41t134 12.5q80 0 195 -18l14 110q4 40 4 56q0 80 -47.5 111.5t-153.5 31.5q-60 0 -121 -11.5t-92 -23.5l-30 -12l-6 69q113 50 264 50q268 0 268 -211q0 -20 -4 -60l-68 -487q-42 -24 -133 -44 t-184 -20q-120 0 -196 47t-76 150zM274 856q0 -72 52.5 -101.5t146.5 -29.5q141 0 234 37q7 52 19.5 140t16.5 120q-106 18 -194 18q-275 0 -275 -184z" />
<glyph unicode="&#xab;" horiz-adv-x="1171" d="M233 575l400 431l57 -54l-342 -377l236 -376l-74 -54zM674 575l399 431l57 -54l-342 -377l236 -376l-74 -54z" />
<glyph unicode="&#xac;" horiz-adv-x="1048" d="M215 659l10 80h783l-60 -424h-80l50 344h-703z" />
<glyph unicode="&#xad;" horiz-adv-x="864" d="M221 557l10 80h578l-10 -80h-578z" />
<glyph unicode="&#xae;" horiz-adv-x="1081" d="M256 999q0 90 35.5 176t96 152.5t150 107t189.5 40.5q172 0 281.5 -110t109.5 -282q0 -126 -59 -232t-167 -169.5t-243 -63.5q-179 0 -286 108.5t-107 272.5zM344 1008q0 -65 18 -118t47 -87.5t68 -57.5t79.5 -33t82.5 -10q168 0 281.5 107t113.5 266q0 137 -85.5 226.5 t-229.5 89.5q-158 0 -266.5 -106t-108.5 -277zM485 819l64 451q86 12 156 12q94 0 135 -30.5t41 -88.5q0 -112 -129 -143l63 -121q13 -25 35 -25q5 0 14 3l-8 -54q-14 -8 -37 -8q-49 0 -78 55l-73 142q-53 0 -76 2l-29 -195h-78zM600 1077q14 -2 64 -2q28 0 43.5 1t36.5 5 t32 12.5t19 25t8 40.5q0 35 -21.5 48.5t-81.5 13.5q-36 0 -82 -4z" />
<glyph unicode="&#xaf;" horiz-adv-x="798" d="M334 1356l10 80h512l-10 -80h-512z" />
<glyph unicode="&#xb0;" horiz-adv-x="708" d="M272 1192q0 118 83 200.5t208 82.5q99 0 159 -62t60 -156q0 -120 -82 -200t-208 -80q-101 0 -160.5 60t-59.5 155zM360 1204q0 -63 40.5 -103t103.5 -40q77 0 133.5 53t56.5 131q0 63 -40 104.5t-103 41.5q-76 0 -133.5 -55t-57.5 -132z" />
<glyph unicode="&#xb1;" horiz-adv-x="1118" d="M164 0l10 80h791l-11 -80h-790zM246 659l12 80h363l53 377h84l-53 -377h364l-12 -80h-365l-53 -378h-84l53 378h-362z" />
<glyph unicode="&#xb2;" horiz-adv-x="747" d="M223 700l10 76l289 254q118 104 163.5 172.5t45.5 140.5q0 67 -42 108.5t-126 41.5q-52 0 -103.5 -16.5t-76.5 -32.5l-25 -17l-28 64q12 9 34 22t86 34.5t125 21.5q116 0 177 -64.5t61 -158.5q0 -80 -45 -163.5t-182 -203.5l-232 -203h379l-10 -76h-500z" />
<glyph unicode="&#xb3;" horiz-adv-x="770" d="M240 737l30 70q8 -5 23.5 -12t66 -19t103.5 -12q237 0 237 205q0 84 -55 118.5t-158 34.5l-77 -2l10 74h88q112 0 171.5 51t59.5 129q0 119 -153 119q-129 0 -219 -47l-23 65q11 6 31 16t83.5 26t127.5 16q121 0 180 -54.5t59 -136.5q0 -146 -186 -213q67 -18 107 -68 t40 -130q0 -73 -26 -128t-72.5 -87.5t-103.5 -48t-125 -15.5q-60 0 -114.5 12t-79.5 24z" />
<glyph unicode="&#xb4;" horiz-adv-x="630" d="M342 1339l305 240l53 -68l-321 -227z" />
<glyph unicode="&#xb5;" horiz-adv-x="1218" d="M104 -426l220 1559h94l-99 -705q-8 -67 -8 -96q0 -70 20 -120t49.5 -77.5t77.5 -43t89.5 -19.5t99.5 -4q88 0 170.5 12t120.5 24l39 11l143 1018h94l-151 -1072q-21 -9 -58 -22.5t-148.5 -36t-219.5 -22.5q-156 0 -242 33t-119 114l-77 -553h-95z" />
<glyph unicode="&#xb6;" horiz-adv-x="972" d="M250 1030q0 445 506 445q68 0 124 -7.5t78 -15.5l23 -8l-170 -1211q-5 -39 -13.5 -74.5t-30 -82.5t-51 -81t-79.5 -57.5t-113 -23.5q-29 0 -65 4l12 86q12 -2 51 -2q32 0 58 8t54.5 29.5t49.5 69t31 118.5l164 1164h-131l-97 -682h-86q-157 0 -236 87t-79 234z" />
<glyph unicode="&#xb7;" horiz-adv-x="514" d="M260 602q0 43 26 70.5t70 27.5q34 0 53 -19t19 -52q0 -43 -27 -71t-69 -28q-35 0 -53.5 19.5t-18.5 52.5z" />
<glyph unicode="&#xb8;" horiz-adv-x="686" d="M86 -403l29 73q66 -41 153 -41q144 0 144 103q0 80 -119 80q-74 0 -137 -21l94 236h86l-62 -156q30 6 66 6q71 0 117.5 -33t46.5 -102q0 -83 -59 -135.5t-179 -52.5q-53 0 -98 11t-64 21z" />
<glyph unicode="&#xb9;" horiz-adv-x="686" d="M326 1446l209 110h81l-120 -856h-82l108 779l-170 -93z" />
<glyph unicode="&#xba;" horiz-adv-x="823" d="M195 457l10 71h559l-10 -71h-559zM213 973q0 77 11.5 145.5t40.5 135t74 114.5t116.5 77.5t162.5 29.5q149 0 219 -88t70 -230q0 -79 -12.5 -149.5t-42 -136.5t-74 -113.5t-113.5 -76t-155 -28.5q-83 0 -143 26t-92.5 72.5t-47 101t-14.5 120.5zM295 965q0 -240 217 -240 q63 0 113 20t82 49t55.5 73.5t34.5 82t17.5 85.5t7.5 73.5t1 56.5q0 231 -215 238q-62 0 -112.5 -19.5t-82.5 -49t-55.5 -72.5t-35 -81t-18 -85t-8 -74t-1.5 -57z" />
<glyph unicode="&#xbb;" horiz-adv-x="1171" d="M203 199l340 376l-234 377l72 54l278 -431l-399 -430zM643 199l340 376l-233 377l71 54l279 -431l-400 -430z" />
<glyph unicode="&#xbc;" horiz-adv-x="1798" d="M311 1343l209 111h82l-121 -856h-82l109 778l-170 -92zM516 8l834 1467l67 -29l-833 -1466zM1128 219l11 74l452 563h84l-78 -563h121l-10 -74h-121l-31 -219h-83l30 219h-375zM1231 293h282l58 424z" />
<glyph unicode="&#xbd;" horiz-adv-x="1865" d="M311 1343l209 111h82l-121 -856h-82l109 778l-170 -92zM516 8l834 1467l67 -29l-833 -1466zM1243 0l10 76l289 254q118 104 163.5 172.5t45.5 140.5q0 67 -42 108.5t-126 41.5q-52 0 -103.5 -16.5t-76.5 -32.5l-25 -17l-28 64q12 9 34 21.5t86 34t125 21.5 q116 0 177 -64.5t61 -158.5q0 -38 -7.5 -71t-30 -78t-70 -99.5t-119.5 -117.5l-232 -203h379l-10 -76h-500z" />
<glyph unicode="&#xbe;" horiz-adv-x="1957" d="M313 633l31 69q8 -5 23.5 -12t66 -19t103.5 -12q237 0 237 205q0 84 -55 119t-158 35l-78 -2l11 74h88q112 0 171.5 51t59.5 129q0 119 -154 119q-127 0 -219 -48l-22 66q11 6 31 15.5t83 25.5t127 16q121 0 180.5 -54t59.5 -136q0 -146 -186 -213q67 -18 107 -68.5 t40 -130.5q0 -73 -26.5 -128t-73 -87t-103.5 -47.5t-125 -15.5q-60 0 -115 12t-79 24zM717 8l831 1467l68 -29l-832 -1466zM1286 219l10 74l453 563h84l-78 -563h121l-10 -74h-121l-31 -219h-84l31 219h-375zM1389 293h282l58 424z" />
<glyph unicode="&#xbf;" horiz-adv-x="831" d="M74 -68q0 68 18.5 125.5t49.5 98t71 75.5t84.5 64.5l89 59t84.5 63t71 72.5t49.5 93t18.5 119v43h95v-43q0 -92 -29.5 -166t-77 -123.5t-104.5 -91t-114.5 -79t-105 -77.5t-77 -95.5t-29.5 -124.5q0 -93 73 -146t226 -53q92 0 173.5 18.5t117.5 37.5l35 18l22 -82 q-5 -3 -15 -8.5t-45 -19.5t-74 -24.5t-101.5 -19t-128.5 -8.5q-196 0 -286.5 74t-90.5 200zM618 1069q0 37 23 60.5t61 23.5q30 0 46 -16.5t16 -44.5q0 -38 -21.5 -61t-60.5 -23q-30 0 -47 16.5t-17 44.5z" />
<glyph unicode="&#xc0;" horiz-adv-x="1359" d="M72 0l739 1454h147l330 -1454h-96l-111 485h-663l-246 -485h-100zM463 573h598l-184 813zM707 1769l67 70l240 -240l-53 -55z" />
<glyph unicode="&#xc1;" horiz-adv-x="1359" d="M72 0l739 1454h147l330 -1454h-96l-111 485h-663l-246 -485h-100zM463 573h598l-184 813zM807 1599l305 240l49 -70l-317 -225z" />
<glyph unicode="&#xc2;" horiz-adv-x="1359" d="M72 0l739 1454h147l330 -1454h-96l-111 485h-663l-246 -485h-100zM463 573h598l-184 813zM641 1595l295 240l229 -240l-57 -51l-186 176l-240 -176z" />
<glyph unicode="&#xc3;" horiz-adv-x="1359" d="M72 0l739 1454h147l330 -1454h-96l-111 485h-663l-246 -485h-100zM463 573h598l-184 813zM635 1649q2 6 6 16t19.5 35t34 44.5t51.5 35.5t71 16q37 0 69.5 -15.5t52 -34.5t45 -34.5t50.5 -15.5q34 0 61.5 25t38.5 50l11 25l61 -33q-2 -6 -6 -16t-19.5 -35t-34.5 -44.5 t-52 -35.5t-70 -16q-45 0 -83 25t-70.5 50t-63.5 25q-34 0 -61.5 -25t-38.5 -50l-11 -25z" />
<glyph unicode="&#xc4;" horiz-adv-x="1359" d="M72 0l739 1454h147l330 -1454h-96l-111 485h-663l-246 -485h-100zM463 573h598l-184 813zM655 1692q0 36 22 59t60 23q29 0 44.5 -16.5t15.5 -43.5q0 -36 -22 -59t-58 -23q-29 0 -45.5 16.5t-16.5 43.5zM1040 1692q0 36 22 59t60 23q29 0 44.5 -16.5t15.5 -43.5 q0 -36 -22 -59t-58 -23q-29 0 -45.5 16.5t-16.5 43.5z" />
<glyph unicode="&#xc5;" horiz-adv-x="1359" d="M72 0l739 1454h147l330 -1454h-96l-111 485h-663l-246 -485h-100zM463 573h598l-184 813zM731 1731q0 94 63 150t158 56q76 0 123 -42.5t47 -114.5q0 -94 -63 -149.5t-158 -55.5q-76 0 -123 42t-47 114zM813 1739q0 -44 26 -69t72 -25q58 0 93.5 34.5t35.5 92.5 q0 44 -26 70t-72 26q-57 0 -93 -35.5t-36 -93.5z" />
<glyph unicode="&#xc6;" horiz-adv-x="1966" d="M72 0l1009 1454h957l-13 -88h-800l-80 -559h715l-13 -88h-712l-45 -316q-7 -47 -7 -67q0 -141 99 -204.5t293 -63.5q99 0 192.5 8t137.5 16l44 8l-12 -86q-156 -34 -377 -34q-471 0 -471 342q0 40 6 81l11 82h-498l-336 -485h-100zM569 573h449l115 809z" />
<glyph unicode="&#xc7;" horiz-adv-x="1206" d="M211 563q0 133 21 256t73 245t131 211t205 144.5t285 55.5q96 0 185 -18t130 -36l41 -18l-37 -78q-13 7 -39 17t-110 27t-174 17q-97 0 -180 -25t-141.5 -64.5t-106.5 -97.5t-78 -115.5t-52.5 -127.5t-33 -124.5t-17 -115.5t-7.5 -91t-1 -60q0 -53 6 -100.5t21.5 -98.5 t39.5 -93.5t63.5 -81t90 -65.5t122 -42.5t157.5 -15.5q75 0 140.5 10t93.5 20l28 11l23 -82q-12 -5 -35 -13t-98 -21t-156 -13q-31 0 -45 2l-43 -111q30 6 65 6q71 0 117.5 -33t46.5 -102q0 -83 -58.5 -135.5t-178.5 -52.5q-53 0 -98 11t-64 21l-19 11l29 73q66 -41 154 -41 q143 0 143 103q0 80 -119 80q-74 0 -137 -21l78 197q-125 17 -217 70t-144 132.5t-76 172t-24 200.5z" />
<glyph unicode="&#xc8;" horiz-adv-x="1202" d="M225 324q0 36 6 79l148 1051h895l-12 -88h-801l-80 -559h715l-13 -88h-712l-45 -316q-7 -44 -7 -67q0 -141 99 -204.5t293 -63.5q99 0 192.5 8t137.5 16l44 8l-12 -86q-147 -34 -368 -34q-235 0 -357.5 86t-122.5 258zM643 1769l68 70l239 -240l-53 -55z" />
<glyph unicode="&#xc9;" horiz-adv-x="1202" d="M225 324q0 36 6 79l148 1051h895l-12 -88h-801l-80 -559h715l-13 -88h-712l-45 -316q-7 -44 -7 -67q0 -141 99 -204.5t293 -63.5q99 0 192.5 8t137.5 16l44 8l-12 -86q-147 -34 -368 -34q-235 0 -357.5 86t-122.5 258zM774 1599l305 240l49 -70l-317 -225z" />
<glyph unicode="&#xca;" horiz-adv-x="1202" d="M225 324q0 36 6 79l148 1051h895l-12 -88h-801l-80 -559h715l-13 -88h-712l-45 -316q-7 -44 -7 -67q0 -141 99 -204.5t293 -63.5q99 0 192.5 8t137.5 16l44 8l-12 -86q-147 -34 -368 -34q-235 0 -357.5 86t-122.5 258zM600 1595l295 240l229 -240l-57 -51l-186 176 l-240 -176z" />
<glyph unicode="&#xcb;" horiz-adv-x="1202" d="M225 324q0 36 6 79l148 1051h895l-12 -88h-801l-80 -559h715l-13 -88h-712l-45 -316q-7 -44 -7 -67q0 -141 99 -204.5t293 -63.5q99 0 192.5 8t137.5 16l44 8l-12 -86q-147 -34 -368 -34q-235 0 -357.5 86t-122.5 258zM614 1692q0 36 22 59t60 23q29 0 44.5 -16.5 t15.5 -43.5q0 -36 -22 -59t-58 -23q-29 0 -45.5 16.5t-16.5 43.5zM999 1692q0 36 22 59t60 23q29 0 44.5 -16.5t15.5 -43.5q0 -36 -22 -59t-58 -23q-29 0 -45.5 16.5t-16.5 43.5z" />
<glyph unicode="&#xcc;" horiz-adv-x="483" d="M195 0l204 1454h95l-205 -1454h-94zM254 1769l68 70l239 -240l-53 -55z" />
<glyph unicode="&#xcd;" horiz-adv-x="483" d="M195 0l204 1454h95l-205 -1454h-94zM391 1599l305 240l49 -70l-317 -225z" />
<glyph unicode="&#xce;" horiz-adv-x="483" d="M195 0l204 1454h95l-205 -1454h-94zM203 1595l295 240l229 -240l-57 -51l-187 176l-239 -176z" />
<glyph unicode="&#xcf;" horiz-adv-x="483" d="M195 0l204 1454h95l-205 -1454h-94zM217 1692q0 36 22 59t60 23q28 0 43.5 -16.5t15.5 -43.5q0 -36 -21.5 -59t-57.5 -23q-29 0 -45.5 16.5t-16.5 43.5zM602 1692q0 36 22 59t60 23q28 0 43.5 -16.5t15.5 -43.5q0 -36 -21.5 -59t-57.5 -23q-29 0 -45.5 16.5t-16.5 43.5z " />
<glyph unicode="&#xd0;" horiz-adv-x="1368" d="M156 702l10 80h129l94 662q213 31 399 31q128 0 228 -31t164.5 -84t106.5 -129t59.5 -160t17.5 -184q0 -88 -8.5 -170.5t-32.5 -175.5t-61 -171.5t-99 -152t-142.5 -125t-195 -82t-252.5 -30.5q-186 0 -387 28l99 694h-129zM291 86q133 -18 282 -18q66 0 127.5 8.5 t133 32t132 61.5t118 101.5t97.5 146.5t64.5 203t24.5 264q0 87 -13 158.5t-36.5 123t-58.5 90.5t-75 63t-91 39t-102 21t-112 6q-167 0 -309 -18l-84 -586h416l-10 -80h-416z" />
<glyph unicode="&#xd1;" horiz-adv-x="1421" d="M184 0l205 1454h143l629 -1356l10 107l177 1249h94l-205 -1454h-133l-639 1374l-10 -114l-176 -1260h-95zM672 1649q2 6 6 16t19.5 35t34 44.5t51.5 35.5t71 16q37 0 69.5 -15.5t52 -34.5t45 -34.5t50.5 -15.5q34 0 61.5 25t38.5 50l11 25l61 -33q-2 -6 -6 -16t-19.5 -35 t-34.5 -44.5t-52 -35.5t-70 -16q-45 0 -83 25t-70.5 50t-63.5 25q-34 0 -61.5 -25t-38.5 -50l-11 -25z" />
<glyph unicode="&#xd2;" horiz-adv-x="1392" d="M209 535q0 89 8.5 175t29.5 181t53.5 177.5t85 158.5t119.5 130t161 86t206 32q249 0 380.5 -144.5t131.5 -408.5q0 -89 -8 -175t-29 -181.5t-53.5 -178t-85 -159t-119.5 -130.5t-160.5 -86t-205.5 -32q-514 0 -514 555zM303 532q0 -78 9.5 -141t37.5 -125.5t74 -104 t123.5 -67.5t181.5 -26t189.5 34.5t142.5 90t100.5 133t67.5 154t39 163.5t19.5 151.5t4.5 127.5q0 101 -22.5 182.5t-71 146t-133 100t-199.5 35.5q-104 0 -190 -34.5t-143 -90t-100.5 -133t-67.5 -154t-38.5 -164t-19 -151.5t-4.5 -127zM653 1769l68 70l240 -240l-54 -55z " />
<glyph unicode="&#xd3;" horiz-adv-x="1392" d="M209 535q0 89 8.5 175t29.5 181t53.5 177.5t85 158.5t119.5 130t161 86t206 32q249 0 380.5 -144.5t131.5 -408.5q0 -89 -8 -175t-29 -181.5t-53.5 -178t-85 -159t-119.5 -130.5t-160.5 -86t-205.5 -32q-514 0 -514 555zM303 532q0 -78 9.5 -141t37.5 -125.5t74 -104 t123.5 -67.5t181.5 -26t189.5 34.5t142.5 90t100.5 133t67.5 154t39 163.5t19.5 151.5t4.5 127.5q0 101 -22.5 182.5t-71 146t-133 100t-199.5 35.5q-104 0 -190 -34.5t-143 -90t-100.5 -133t-67.5 -154t-38.5 -164t-19 -151.5t-4.5 -127zM842 1599l305 240l49 -70 l-317 -225z" />
<glyph unicode="&#xd4;" horiz-adv-x="1392" d="M209 535q0 89 8.5 175t29.5 181t53.5 177.5t85 158.5t119.5 130t161 86t206 32q249 0 380.5 -144.5t131.5 -408.5q0 -89 -8 -175t-29 -181.5t-53.5 -178t-85 -159t-119.5 -130.5t-160.5 -86t-205.5 -32q-514 0 -514 555zM303 532q0 -78 9.5 -141t37.5 -125.5t74 -104 t123.5 -67.5t181.5 -26t189.5 34.5t142.5 90t100.5 133t67.5 154t39 163.5t19.5 151.5t4.5 127.5q0 101 -22.5 182.5t-71 146t-133 100t-199.5 35.5q-104 0 -190 -34.5t-143 -90t-100.5 -133t-67.5 -154t-38.5 -164t-19 -151.5t-4.5 -127zM657 1595l295 240l230 -240 l-58 -51l-186 176l-240 -176z" />
<glyph unicode="&#xd5;" horiz-adv-x="1392" d="M209 535q0 89 8.5 175t29.5 181t53.5 177.5t85 158.5t119.5 130t161 86t206 32q249 0 380.5 -144.5t131.5 -408.5q0 -89 -8 -175t-29 -181.5t-53.5 -178t-85 -159t-119.5 -130.5t-160.5 -86t-205.5 -32q-514 0 -514 555zM303 532q0 -78 9.5 -141t37.5 -125.5t74 -104 t123.5 -67.5t181.5 -26t189.5 34.5t142.5 90t100.5 133t67.5 154t39 163.5t19.5 151.5t4.5 127.5q0 101 -22.5 182.5t-71 146t-133 100t-199.5 35.5q-104 0 -190 -34.5t-143 -90t-100.5 -133t-67.5 -154t-38.5 -164t-19 -151.5t-4.5 -127zM629 1649q2 6 6 16t19.5 35 t34 44.5t51.5 35.5t71 16q37 0 69.5 -15.5t52 -34.5t45 -34.5t50.5 -15.5q34 0 61.5 25t38.5 50l11 25l61 -33q-2 -6 -6 -16t-19.5 -35t-34.5 -44.5t-52 -35.5t-70 -16q-45 0 -83 25t-70.5 50t-63.5 25q-34 0 -61.5 -25t-38.5 -50l-11 -25z" />
<glyph unicode="&#xd6;" horiz-adv-x="1392" d="M209 535q0 89 8.5 175t29.5 181t53.5 177.5t85 158.5t119.5 130t161 86t206 32q249 0 380.5 -144.5t131.5 -408.5q0 -89 -8 -175t-29 -181.5t-53.5 -178t-85 -159t-119.5 -130.5t-160.5 -86t-205.5 -32q-514 0 -514 555zM303 532q0 -78 9.5 -141t37.5 -125.5t74 -104 t123.5 -67.5t181.5 -26t189.5 34.5t142.5 90t100.5 133t67.5 154t39 163.5t19.5 151.5t4.5 127.5q0 101 -22.5 182.5t-71 146t-133 100t-199.5 35.5q-104 0 -190 -34.5t-143 -90t-100.5 -133t-67.5 -154t-38.5 -164t-19 -151.5t-4.5 -127zM655 1692q0 36 22 59t60 23 q29 0 44.5 -16.5t15.5 -43.5q0 -36 -22 -59t-58 -23q-29 0 -45.5 16.5t-16.5 43.5zM1040 1692q0 36 22 59t60 23q29 0 44.5 -16.5t15.5 -43.5q0 -36 -22 -59t-58 -23q-29 0 -45.5 16.5t-16.5 43.5z" />
<glyph unicode="&#xd7;" horiz-adv-x="1122" d="M213 287l375 329l-289 338l68 60l288 -338l377 330l49 -56l-376 -329l292 -342l-67 -60l-293 342l-377 -330z" />
<glyph unicode="&#xd8;" horiz-adv-x="1392" d="M209 535q0 89 8.5 175t29.5 181t53.5 177.5t85 158.5t119.5 130t161 86t206 32q128 0 228 -41l88 174l76 -29l-93 -182q104 -66 158.5 -187.5t54.5 -287.5q0 -89 -8 -175t-29 -181.5t-53.5 -178t-85 -159t-119.5 -130.5t-160.5 -86t-205.5 -32q-142 0 -240 40l-96 -192 l-76 29l101 198q-203 130 -203 480zM303 532q0 -283 150 -391l606 1211q-78 34 -193 34q-104 0 -190 -34.5t-143 -90t-100.5 -133t-67.5 -154t-38.5 -164t-19 -151.5t-4.5 -127zM524 102q78 -34 205 -34q104 0 189.5 34.5t142.5 90t100.5 133t67.5 154t39 163.5t19.5 151.5 t4.5 127.5q0 275 -162 391z" />
<glyph unicode="&#xd9;" horiz-adv-x="1413" d="M242 406q0 79 10 143l127 905h94l-127 -905q-10 -82 -10 -135q0 -90 23 -155.5t57.5 -101.5t88.5 -57t101.5 -26.5t110.5 -5.5q76 0 133.5 8.5t123 37.5t111 79.5t83.5 140.5t55 215l127 905h94l-127 -905q-21 -149 -63 -253t-113.5 -176t-177 -106t-250.5 -34 q-229 0 -350 100t-121 326zM696 1769l68 70l240 -240l-54 -55z" />
<glyph unicode="&#xda;" horiz-adv-x="1413" d="M242 406q0 79 10 143l127 905h94l-127 -905q-10 -82 -10 -135q0 -90 23 -155.5t57.5 -101.5t88.5 -57t101.5 -26.5t110.5 -5.5q76 0 133.5 8.5t123 37.5t111 79.5t83.5 140.5t55 215l127 905h94l-127 -905q-21 -149 -63 -253t-113.5 -176t-177 -106t-250.5 -34 q-229 0 -350 100t-121 326zM848 1599l305 240l49 -70l-317 -225z" />
<glyph unicode="&#xdb;" horiz-adv-x="1413" d="M242 406q0 79 10 143l127 905h94l-127 -905q-10 -82 -10 -135q0 -90 23 -155.5t57.5 -101.5t88.5 -57t101.5 -26.5t110.5 -5.5q76 0 133.5 8.5t123 37.5t111 79.5t83.5 140.5t55 215l127 905h94l-127 -905q-21 -149 -63 -253t-113.5 -176t-177 -106t-250.5 -34 q-229 0 -350 100t-121 326zM668 1595l295 240l229 -240l-57 -51l-187 176l-239 -176z" />
<glyph unicode="&#xdc;" horiz-adv-x="1413" d="M242 406q0 79 10 143l127 905h94l-127 -905q-10 -82 -10 -135q0 -90 23 -155.5t57.5 -101.5t88.5 -57t101.5 -26.5t110.5 -5.5q76 0 133.5 8.5t123 37.5t111 79.5t83.5 140.5t55 215l127 905h94l-127 -905q-21 -149 -63 -253t-113.5 -176t-177 -106t-250.5 -34 q-229 0 -350 100t-121 326zM682 1692q0 36 22 59t60 23q28 0 43.5 -16.5t15.5 -43.5q0 -36 -22 -59t-58 -23q-29 0 -45 16.5t-16 43.5zM1067 1692q0 36 22 59t60 23q28 0 43.5 -16.5t15.5 -43.5q0 -36 -22 -59t-58 -23q-29 0 -45 16.5t-16 43.5z" />
<glyph unicode="&#xdd;" horiz-adv-x="1269" d="M266 1454h103l362 -747l572 747h110l-647 -844l-86 -610h-94l88 618zM795 1599l305 240l49 -70l-318 -225z" />
<glyph unicode="&#xde;" horiz-adv-x="1236" d="M184 0l205 1454h94l-28 -209q165 25 344 25q231 0 354 -101t123 -290q0 -82 -21.5 -158.5t-70 -146t-118 -121t-173 -81.5t-229.5 -30q-254 0 -336 10l-49 -352h-95zM340 438q108 -8 340 -8q228 0 364 122.5t136 313.5q0 316 -387 316q-193 0 -351 -21z" />
<glyph unicode="&#xdf;" horiz-adv-x="1193" d="M174 0l174 1245q11 77 43.5 137t75.5 96t98 59t104.5 31.5t100.5 8.5q163 0 259.5 -72t96.5 -190q0 -57 -20.5 -104t-53 -80t-71.5 -62t-78 -55.5t-71.5 -54t-53 -64.5t-20.5 -80q0 -45 29.5 -82.5t73 -63t95 -58.5t95 -66.5t73 -90t29.5 -126.5q0 -161 -113 -254.5 t-311 -93.5q-81 0 -156 15t-110 29l-35 15l29 86q13 -6 36 -15.5t94.5 -25.5t143.5 -16q143 0 234.5 61.5t91.5 177.5q0 51 -21.5 92.5t-56.5 71t-77 56t-83.5 53.5t-76.5 57.5t-56.5 73.5t-21.5 96q0 62 20.5 111.5t53 82t72 59.5t79 51t72 50.5t53 65t20.5 86.5 q0 46 -23 81.5t-62.5 55.5t-86 29.5t-98.5 9.5q-58 0 -108 -12t-95.5 -38.5t-76 -75t-40.5 -114.5l-176 -1249h-94z" />
<glyph unicode="&#xe0;" horiz-adv-x="1177" d="M184 457q0 329 157 512.5t433 183.5q84 0 179.5 -18t149.5 -36l54 -18l-145 -1040q-21 -7 -57 -17t-135 -27t-183 -17q-125 0 -214 33t-140.5 97t-75 149t-23.5 198zM279 459q0 -206 86 -299.5t282 -93.5q65 0 135.5 9t107.5 18l38 9l129 924q-152 41 -287 41 q-125 0 -220.5 -47.5t-154 -131t-87.5 -192t-29 -237.5zM598 1509l66 70l239 -240l-53 -55z" />
<glyph unicode="&#xe1;" horiz-adv-x="1177" d="M184 457q0 329 157 512.5t433 183.5q84 0 179.5 -18t149.5 -36l54 -18l-145 -1040q-21 -7 -57 -17t-135 -27t-183 -17q-125 0 -214 33t-140.5 97t-75 149t-23.5 198zM279 459q0 -206 86 -299.5t282 -93.5q65 0 135.5 9t107.5 18l38 9l129 924q-152 41 -287 41 q-125 0 -220.5 -47.5t-154 -131t-87.5 -192t-29 -237.5zM686 1339l305 240l49 -70l-317 -225z" />
<glyph unicode="&#xe2;" horiz-adv-x="1177" d="M184 457q0 329 157 512.5t433 183.5q84 0 179.5 -18t149.5 -36l54 -18l-145 -1040q-21 -7 -57 -17t-135 -27t-183 -17q-125 0 -214 33t-140.5 97t-75 149t-23.5 198zM279 459q0 -206 86 -299.5t282 -93.5q65 0 135.5 9t107.5 18l38 9l129 924q-152 41 -287 41 q-125 0 -220.5 -47.5t-154 -131t-87.5 -192t-29 -237.5zM549 1339l295 240l229 -240l-57 -51l-187 176l-239 -176z" />
<glyph unicode="&#xe3;" horiz-adv-x="1177" d="M184 457q0 329 157 512.5t433 183.5q84 0 179.5 -18t149.5 -36l54 -18l-145 -1040q-21 -7 -57 -17t-135 -27t-183 -17q-125 0 -214 33t-140.5 97t-75 149t-23.5 198zM279 459q0 -206 86 -299.5t282 -93.5q65 0 135.5 9t107.5 18l38 9l129 924q-152 41 -287 41 q-125 0 -220.5 -47.5t-154 -131t-87.5 -192t-29 -237.5zM508 1341q2 6 6 16t19.5 35.5t34 45t51.5 35.5t71 16q37 0 69.5 -15.5t52 -34.5t45 -34.5t50.5 -15.5q34 0 61.5 25t38.5 50l11 25l61 -33q-2 -6 -6 -16t-19.5 -35t-34.5 -44.5t-52 -35.5t-70 -16q-45 0 -83 25 t-70.5 50t-63.5 25q-34 0 -61.5 -25t-38.5 -50l-11 -25z" />
<glyph unicode="&#xe4;" horiz-adv-x="1177" d="M184 457q0 329 157 512.5t433 183.5q84 0 179.5 -18t149.5 -36l54 -18l-145 -1040q-21 -7 -57 -17t-135 -27t-183 -17q-125 0 -214 33t-140.5 97t-75 149t-23.5 198zM279 459q0 -206 86 -299.5t282 -93.5q65 0 135.5 9t107.5 18l38 9l129 924q-152 41 -287 41 q-125 0 -220.5 -47.5t-154 -131t-87.5 -192t-29 -237.5zM549 1411q0 36 22 59t58 23q29 0 45 -16t16 -43q0 -36 -22 -59t-58 -23q-29 0 -45 16t-16 43zM934 1411q0 36 22 59t58 23q29 0 45 -16t16 -43q0 -36 -22 -59t-58 -23q-29 0 -45 16t-16 43z" />
<glyph unicode="&#xe5;" horiz-adv-x="1177" d="M184 457q0 329 157 512.5t433 183.5q84 0 179.5 -18t149.5 -36l54 -18l-145 -1040q-21 -7 -57 -17t-135 -27t-183 -17q-125 0 -214 33t-140.5 97t-75 149t-23.5 198zM279 459q0 -206 86 -299.5t282 -93.5q65 0 135.5 9t107.5 18l38 9l129 924q-152 41 -287 41 q-125 0 -220.5 -47.5t-154 -131t-87.5 -192t-29 -237.5zM645 1442q0 94 62.5 150.5t156.5 56.5q76 0 123 -42.5t47 -115.5q0 -94 -63 -149.5t-158 -55.5q-76 0 -122 41.5t-46 114.5zM725 1450q0 -44 26 -69t72 -25q58 0 93.5 34.5t35.5 92.5q0 44 -26 70t-72 26 q-56 0 -92.5 -35.5t-36.5 -93.5z" />
<glyph unicode="&#xe6;" horiz-adv-x="1855" d="M160 270q0 71 20.5 127t59.5 92.5t85.5 61t107.5 37t117 17.5t122 5q126 0 278 -24q13 131 51 233q0 129 -77 187.5t-230 58.5q-87 0 -171.5 -17t-125.5 -34l-41 -17l-10 84q166 72 367 72q306 0 360 -197q134 195 404 195q101 0 174.5 -27.5t114.5 -77.5t60 -111 t19 -136q0 -59 -10.5 -118t-20.5 -89l-10 -29h-753q-9 -71 -9 -141q0 -58 5.5 -102t24.5 -94t52 -82.5t92 -54t140 -21.5q57 0 112 6.5t92 16t66 18.5t43 15l14 7l7 -86q-14 -7 -41.5 -18t-116 -29t-182.5 -18q-242 0 -338 149q-27 -19 -59.5 -38t-94.5 -47.5t-145.5 -46 t-173.5 -17.5q-178 0 -278.5 70.5t-100.5 219.5zM254 270q0 -108 75 -155t220 -47q230 0 428 135q-33 87 -33 229v66q-147 24 -287 24q-403 0 -403 -252zM1065 645h668q18 85 18 156q0 262 -287 262q-61 0 -112.5 -14t-88.5 -36t-68 -56.5t-50.5 -68.5t-36 -79t-25.5 -81.5 t-18 -82.5z" />
<glyph unicode="&#xe7;" horiz-adv-x="1024" d="M184 446q0 152 34 279t100.5 223.5t175 150.5t249.5 54q52 0 101 -6t82 -14t58.5 -16.5t37.5 -13.5l12 -5l-30 -80q-12 5 -33.5 13t-90.5 21t-139 13q-91 0 -165 -29t-121 -73t-82 -106.5t-52.5 -118.5t-27.5 -121.5t-12 -102t-2 -72.5q0 -179 93 -276.5t285 -97.5 q56 0 110.5 7.5t80.5 14.5l26 8l15 -82q-86 -36 -238 -36h-37l-43 -109q30 6 66 6q71 0 117.5 -33t46.5 -102q0 -83 -59 -135.5t-179 -52.5q-53 0 -98 11t-63 21l-19 11l29 73q66 -41 153 -41q144 0 144 103q0 80 -119 80q-74 0 -137 -21l77 199q-346 55 -346 456z" />
<glyph unicode="&#xe8;" horiz-adv-x="1116" d="M184 432q0 94 12 179.5t38 168t70 149t103.5 117.5t143.5 79t186 28q101 0 174.5 -27.5t115 -77.5t60.5 -111t19 -136q0 -59 -10 -118t-20 -89l-11 -29h-774q-8 -63 -8 -143q0 -354 333 -354q91 0 173 15.5t119 31.5l36 16l6 -90q-14 -7 -41.5 -17t-116 -27t-182.5 -17 q-426 0 -426 452zM305 647h688q19 89 19 156q0 262 -287 262q-341 0 -420 -418zM545 1509l65 70l240 -240l-53 -55z" />
<glyph unicode="&#xe9;" horiz-adv-x="1116" d="M184 432q0 94 12 179.5t38 168t70 149t103.5 117.5t143.5 79t186 28q101 0 174.5 -27.5t115 -77.5t60.5 -111t19 -136q0 -59 -10 -118t-20 -89l-11 -29h-774q-8 -63 -8 -143q0 -354 333 -354q91 0 173 15.5t119 31.5l36 16l6 -90q-14 -7 -41.5 -17t-116 -27t-182.5 -17 q-426 0 -426 452zM305 647h688q19 89 19 156q0 262 -287 262q-341 0 -420 -418zM643 1339l305 240l49 -70l-317 -225z" />
<glyph unicode="&#xea;" horiz-adv-x="1116" d="M184 432q0 94 12 179.5t38 168t70 149t103.5 117.5t143.5 79t186 28q101 0 174.5 -27.5t115 -77.5t60.5 -111t19 -136q0 -59 -10 -118t-20 -89l-11 -29h-774q-8 -63 -8 -143q0 -354 333 -354q91 0 173 15.5t119 31.5l36 16l6 -90q-14 -7 -41.5 -17t-116 -27t-182.5 -17 q-426 0 -426 452zM305 647h688q19 89 19 156q0 262 -287 262q-341 0 -420 -418zM514 1339l295 240l229 -240l-57 -51l-186 176l-240 -176z" />
<glyph unicode="&#xeb;" horiz-adv-x="1116" d="M184 432q0 94 12 179.5t38 168t70 149t103.5 117.5t143.5 79t186 28q101 0 174.5 -27.5t115 -77.5t60.5 -111t19 -136q0 -59 -10 -118t-20 -89l-11 -29h-774q-8 -63 -8 -143q0 -354 333 -354q91 0 173 15.5t119 31.5l36 16l6 -90q-14 -7 -41.5 -17t-116 -27t-182.5 -17 q-426 0 -426 452zM305 647h688q19 89 19 156q0 262 -287 262q-341 0 -420 -418zM512 1411q0 36 22 59t58 23q29 0 45 -16t16 -43q0 -36 -22 -59t-58 -23q-29 0 -45 16t-16 43zM897 1411q0 36 22 59t58 23q29 0 45 -16t16 -43q0 -36 -22 -59t-58 -23q-29 0 -45 16t-16 43z " />
<glyph unicode="&#xec;" horiz-adv-x="442" d="M174 0l160 1133h94l-160 -1133h-94zM215 1509l66 70l239 -240l-53 -55z" />
<glyph unicode="&#xed;" horiz-adv-x="442" d="M174 0l160 1133h94l-160 -1133h-94zM342 1339l305 240l49 -70l-317 -225z" />
<glyph unicode="&#xee;" horiz-adv-x="442" d="M147 1339l295 240l230 -240l-58 -51l-186 176l-240 -176zM174 0l160 1133h94l-160 -1133h-94z" />
<glyph unicode="&#xef;" horiz-adv-x="442" d="M158 1411q0 36 21.5 59t58.5 23q29 0 45 -16t16 -43q0 -35 -22.5 -58.5t-57.5 -23.5q-30 0 -45.5 16t-15.5 43zM174 0l160 1133h94l-160 -1133h-94zM543 1411q0 36 22 59t58 23q29 0 45 -16t16 -43q0 -36 -22 -59t-58 -23q-29 0 -45 16t-16 43z" />
<glyph unicode="&#xf0;" horiz-adv-x="1189" d="M184 416q0 155 32 278t84.5 201t124.5 129.5t147.5 72.5t158.5 21q147 0 289 -61q-54 172 -178 284l-180 -153l-48 59l168 144q-135 92 -307 98l27 84q195 -6 352 -121l164 139l47 -59l-150 -129q113 -103 178.5 -262t65.5 -363q0 -132 -16.5 -245t-56 -217t-101 -177 t-156.5 -116t-217 -43q-93 0 -166.5 22t-122 61t-80.5 94.5t-45.5 119t-13.5 139.5zM276 418q0 -350 340 -350q71 0 131.5 20.5t103.5 53t77.5 81t56 96t37.5 107.5t23.5 105t12 99.5t5 81t0.5 58.5q0 91 -16 182q-156 80 -312 80q-67 0 -129 -17.5t-123.5 -61.5 t-106 -111.5t-72.5 -176.5t-28 -247z" />
<glyph unicode="&#xf1;" horiz-adv-x="1228" d="M174 0l152 1071q7 3 21 8.5t59 20t92 25t116.5 19.5t137.5 9q211 0 315 -81t104 -253q0 -64 -8 -114l-98 -705h-94q98 707 98 711q8 63 8 90q0 70 -20 120t-49.5 77.5t-77.5 43t-89.5 19.5t-99.5 4q-88 0 -170.5 -11.5t-120.5 -23.5l-38 -12l-144 -1018h-94zM504 1341 q2 6 6 16t19.5 35.5t34 45t51.5 35.5t71 16q37 0 69.5 -15.5t52 -34.5t45 -34.5t50.5 -15.5q34 0 61.5 25t38.5 50l11 25l61 -33q-2 -6 -6 -16t-19.5 -35t-34.5 -44.5t-52 -35.5t-70 -16q-45 0 -83 25t-70.5 50t-63.5 25q-34 0 -61.5 -25t-38.5 -50l-11 -25z" />
<glyph unicode="&#xf2;" horiz-adv-x="1183" d="M184 416q0 121 18 227t59.5 201t103.5 162.5t154.5 107t207.5 39.5t199.5 -33t133 -93.5t71 -137.5t22.5 -174q0 -103 -16 -201.5t-55.5 -197t-99 -171.5t-155 -119t-215.5 -46q-116 0 -201 33.5t-133.5 94.5t-71 137t-22.5 171zM279 418q0 -58 8 -105.5t31 -94.5 t60 -78.5t99 -51.5t144 -20q96 0 173 39t125.5 102t81 149t45.5 173.5t13 181.5q0 58 -8 105.5t-30.5 95t-59.5 79.5t-98.5 52t-143.5 20q-70 0 -129.5 -19t-101.5 -49.5t-76 -76t-55.5 -90t-37 -99.5t-23 -97.5t-12 -92t-5 -73t-0.5 -50.5zM543 1509l65 70l240 -240 l-53 -55z" />
<glyph unicode="&#xf3;" horiz-adv-x="1183" d="M184 416q0 121 18 227t59.5 201t103.5 162.5t154.5 107t207.5 39.5t199.5 -33t133 -93.5t71 -137.5t22.5 -174q0 -103 -16 -201.5t-55.5 -197t-99 -171.5t-155 -119t-215.5 -46q-116 0 -201 33.5t-133.5 94.5t-71 137t-22.5 171zM279 418q0 -58 8 -105.5t31 -94.5 t60 -78.5t99 -51.5t144 -20q96 0 173 39t125.5 102t81 149t45.5 173.5t13 181.5q0 58 -8 105.5t-30.5 95t-59.5 79.5t-98.5 52t-143.5 20q-70 0 -129.5 -19t-101.5 -49.5t-76 -76t-55.5 -90t-37 -99.5t-23 -97.5t-12 -92t-5 -73t-0.5 -50.5zM657 1339l306 240l49 -70 l-318 -225z" />
<glyph unicode="&#xf4;" horiz-adv-x="1183" d="M184 416q0 121 18 227t59.5 201t103.5 162.5t154.5 107t207.5 39.5t199.5 -33t133 -93.5t71 -137.5t22.5 -174q0 -103 -16 -201.5t-55.5 -197t-99 -171.5t-155 -119t-215.5 -46q-116 0 -201 33.5t-133.5 94.5t-71 137t-22.5 171zM279 418q0 -58 8 -105.5t31 -94.5 t60 -78.5t99 -51.5t144 -20q96 0 173 39t125.5 102t81 149t45.5 173.5t13 181.5q0 58 -8 105.5t-30.5 95t-59.5 79.5t-98.5 52t-143.5 20q-70 0 -129.5 -19t-101.5 -49.5t-76 -76t-55.5 -90t-37 -99.5t-23 -97.5t-12 -92t-5 -73t-0.5 -50.5zM518 1339l295 240l229 -240 l-57 -51l-186 176l-240 -176z" />
<glyph unicode="&#xf5;" horiz-adv-x="1183" d="M184 416q0 121 18 227t59.5 201t103.5 162.5t154.5 107t207.5 39.5t199.5 -33t133 -93.5t71 -137.5t22.5 -174q0 -103 -16 -201.5t-55.5 -197t-99 -171.5t-155 -119t-215.5 -46q-116 0 -201 33.5t-133.5 94.5t-71 137t-22.5 171zM279 418q0 -58 8 -105.5t31 -94.5 t60 -78.5t99 -51.5t144 -20q96 0 173 39t125.5 102t81 149t45.5 173.5t13 181.5q0 58 -8 105.5t-30.5 95t-59.5 79.5t-98.5 52t-143.5 20q-70 0 -129.5 -19t-101.5 -49.5t-76 -76t-55.5 -90t-37 -99.5t-23 -97.5t-12 -92t-5 -73t-0.5 -50.5zM485 1341q2 6 6 16t19.5 35.5 t34.5 45t52 35.5t71 16q37 0 69.5 -15.5t52 -34.5t45 -34.5t50.5 -15.5q34 0 61.5 25t37.5 50l11 25l62 -33q-2 -6 -6 -16t-20 -35t-35 -44.5t-52 -35.5t-70 -16q-45 0 -83 25t-70.5 50t-63.5 25q-34 0 -61.5 -25t-37.5 -50l-11 -25z" />
<glyph unicode="&#xf6;" horiz-adv-x="1183" d="M184 416q0 121 18 227t59.5 201t103.5 162.5t154.5 107t207.5 39.5t199.5 -33t133 -93.5t71 -137.5t22.5 -174q0 -103 -16 -201.5t-55.5 -197t-99 -171.5t-155 -119t-215.5 -46q-116 0 -201 33.5t-133.5 94.5t-71 137t-22.5 171zM279 418q0 -58 8 -105.5t31 -94.5 t60 -78.5t99 -51.5t144 -20q96 0 173 39t125.5 102t81 149t45.5 173.5t13 181.5q0 58 -8 105.5t-30.5 95t-59.5 79.5t-98.5 52t-143.5 20q-70 0 -129.5 -19t-101.5 -49.5t-76 -76t-55.5 -90t-37 -99.5t-23 -97.5t-12 -92t-5 -73t-0.5 -50.5zM528 1411q0 36 22 59t58 23 q29 0 45.5 -16t16.5 -43q0 -36 -22 -59t-58 -23q-29 0 -45.5 16t-16.5 43zM913 1411q0 36 22 59t58 23q29 0 45.5 -16t16.5 -43q0 -36 -22 -59t-58 -23q-29 0 -45.5 16t-16.5 43z" />
<glyph unicode="&#xf7;" horiz-adv-x="1138" d="M236 578l10 79h831l-10 -79h-831zM524 225q0 41 24 66.5t66 25.5q32 0 49 -17.5t17 -47.5q0 -42 -23 -67t-65 -25q-68 0 -68 65zM627 948q0 40 24 65t66 25q32 0 48.5 -17.5t16.5 -47.5q0 -41 -24 -66.5t-64 -25.5q-67 0 -67 67z" />
<glyph unicode="&#xf8;" horiz-adv-x="1183" d="M184 416q0 121 18 227t59.5 201t103.5 162.5t154.5 107t207.5 39.5q87 0 164 -23l80 160l76 -28l-80 -160q186 -102 186 -387q0 -103 -16 -201.5t-55.5 -197t-99 -171.5t-155 -119t-215.5 -46q-104 0 -192 30l-80 -162l-76 29l84 168q-164 107 -164 371zM279 418 q0 -207 112 -289l459 920q-59 16 -131 16q-70 0 -129.5 -19t-101.5 -49.5t-76 -76t-55.5 -90t-37 -99.5t-23 -97.5t-12 -92t-5 -73t-0.5 -50.5zM461 92q65 -24 160 -24q96 0 173 39t125.5 102t81 149t45.5 173.5t13 181.5q0 227 -135 305z" />
<glyph unicode="&#xf9;" horiz-adv-x="1218" d="M217 313q0 69 8 115l99 705h94l-99 -711q-8 -65 -8 -92q0 -70 21 -120t51.5 -77t79 -42t88.5 -19t96 -4q88 0 170.5 12t120.5 24l39 11l143 1018h94l-151 -1072q-21 -9 -58 -22.5t-148.5 -36t-219.5 -22.5q-212 0 -316 81t-104 252zM668 1509l65 70l240 -240l-53 -55z " />
<glyph unicode="&#xfa;" horiz-adv-x="1218" d="M217 313q0 69 8 115l99 705h94l-99 -711q-8 -65 -8 -92q0 -70 21 -120t51.5 -77t79 -42t88.5 -19t96 -4q88 0 170.5 12t120.5 24l39 11l143 1018h94l-151 -1072q-21 -9 -58 -22.5t-148.5 -36t-219.5 -22.5q-212 0 -316 81t-104 252zM690 1339l305 240l49 -70l-317 -225z " />
<glyph unicode="&#xfb;" horiz-adv-x="1218" d="M217 313q0 69 8 115l99 705h94l-99 -711q-8 -65 -8 -92q0 -70 21 -120t51.5 -77t79 -42t88.5 -19t96 -4q88 0 170.5 12t120.5 24l39 11l143 1018h94l-151 -1072q-21 -9 -58 -22.5t-148.5 -36t-219.5 -22.5q-212 0 -316 81t-104 252zM532 1339l295 240l230 -240l-58 -51 l-186 176l-240 -176z" />
<glyph unicode="&#xfc;" horiz-adv-x="1218" d="M217 313q0 69 8 115l99 705h94l-99 -711q-8 -65 -8 -92q0 -70 21 -120t51.5 -77t79 -42t88.5 -19t96 -4q88 0 170.5 12t120.5 24l39 11l143 1018h94l-151 -1072q-21 -9 -58 -22.5t-148.5 -36t-219.5 -22.5q-212 0 -316 81t-104 252zM553 1411q0 36 22 59t58 23 q29 0 45 -16t16 -43q0 -36 -22 -59t-58 -23q-29 0 -45 16t-16 43zM938 1411q0 36 22 59t58 23q29 0 45 -16t16 -43q0 -35 -22.5 -58.5t-57.5 -23.5q-30 0 -45.5 16t-15.5 43z" />
<glyph unicode="&#xfd;" horiz-adv-x="1218" d="M215 319q0 57 8 109l99 705h94l-99 -705q-6 -50 -6 -92q0 -59 13 -104.5t38.5 -74t54.5 -47t69.5 -27.5t75 -12t79.5 -3q96 0 180 12t120 24l36 11l143 1018h94l-151 -1072q-13 -88 -34 -158.5t-62 -137.5t-99 -112t-146.5 -72t-201.5 -27q-86 0 -158.5 14t-102.5 28 l-30 15l33 84q10 -6 30 -15t89 -24.5t147 -15.5q88 0 158.5 22t116.5 57t79.5 87t51.5 103.5t29 115.5q-149 -45 -328 -45q-209 0 -314.5 82.5t-105.5 256.5zM690 1339l305 240l49 -70l-317 -225z" />
<glyph unicode="&#xfe;" d="M115 -426l278 1982h94l-63 -456q144 53 293 53q440 0 440 -453q0 -360 -158.5 -540t-441.5 -180q-145 0 -285 53l-63 -459h-94zM285 115q139 -49 276 -49q115 0 205 37t144.5 97.5t90 144.5t49 169.5t13.5 181.5q0 190 -83 280.5t-267 90.5q-161 0 -301 -51z" />
<glyph unicode="&#xff;" horiz-adv-x="1218" d="M215 319q0 57 8 109l99 705h94l-99 -705q-6 -50 -6 -92q0 -59 13 -104.5t38.5 -74t54.5 -47t69.5 -27.5t75 -12t79.5 -3q96 0 180 12t120 24l36 11l143 1018h94l-151 -1072q-13 -88 -34 -158.5t-62 -137.5t-99 -112t-146.5 -72t-201.5 -27q-86 0 -158.5 14t-102.5 28 l-30 15l33 84q10 -6 30 -15t89 -24.5t147 -15.5q88 0 158.5 22t116.5 57t79.5 87t51.5 103.5t29 115.5q-149 -45 -328 -45q-209 0 -314.5 82.5t-105.5 256.5zM551 1411q0 36 22 59t58 23q29 0 45 -16t16 -43q0 -36 -22 -59t-58 -23q-29 0 -45 16t-16 43zM936 1411 q0 36 22 59t58 23q29 0 45 -16t16 -43q0 -35 -22.5 -58.5t-57.5 -23.5q-30 0 -45.5 16t-15.5 43z" />
<glyph unicode="&#x11e;" horiz-adv-x="1304" d="M211 565q0 92 11 180.5t36 180t63 171t96 150t130.5 120.5t171 79t213.5 29q65 0 130 -8t111 -19.5t82.5 -23t54.5 -18.5l19 -7l-35 -78q-16 7 -46.5 17.5t-126 28t-193.5 17.5t-181 -24.5t-142 -63.5t-107.5 -96t-79 -114.5t-53 -126.5t-33.5 -124t-18 -115.5t-8 -92 t-1 -62.5q0 -77 12.5 -143.5t47.5 -133.5t91 -114t149 -76.5t214 -29.5q125 0 238 24l96 662h94l-104 -725q-15 -6 -55.5 -16t-124 -21.5t-162.5 -11.5q-130 0 -232 31.5t-168.5 85t-110 129.5t-61.5 159t-18 180zM711 1802l71 29q0 -6 0.5 -17t9 -38t23 -48t48 -38 t79.5 -17t83.5 16.5t58.5 39.5t35 46t19 39l5 17l63 -29q-2 -9 -7 -23t-26.5 -50.5t-49.5 -64t-79.5 -50.5t-113.5 -23q-45 0 -81.5 11.5t-58.5 30t-38.5 41t-24 45.5t-11.5 41.5t-4 29.5z" />
<glyph unicode="&#x11f;" horiz-adv-x="1183" d="M184 -389l33 84q10 -6 29.5 -15t88 -24.5t144.5 -15.5q91 0 162.5 22.5t118 58t80 88.5t50.5 105.5t28 116.5q-143 -51 -289 -51q-209 0 -326 108t-117 344q0 361 153.5 541t434.5 180q98 0 195 -20.5t145 -40.5l47 -21l-143 -1010q-10 -73 -26.5 -133t-44 -119.5 t-69 -104t-97 -79.5t-133.5 -53t-173 -18q-84 0 -156.5 14t-103.5 28zM281 434q0 -188 85 -278t263 -90q148 0 303 49l127 901q-130 51 -289 51q-129 0 -224.5 -46t-152.5 -131.5t-84.5 -198.5t-27.5 -257zM580 1506v12l71 28q0 -6 0.5 -17t9 -38t23 -47.5t48 -37.5 t79.5 -17t83.5 16t58.5 39.5t35 46.5t19 39l5 16l63 -28q-2 -9 -7 -23t-26.5 -50.5t-49.5 -64t-79.5 -50.5t-113.5 -23q-45 0 -81.5 11.5t-58.5 30t-38.5 41t-24 45.5t-11.5 41.5t-5 29.5z" />
<glyph unicode="&#x130;" horiz-adv-x="483" d="M195 0l204 1454h95l-205 -1454h-94zM406 1737q0 40 26 66t68 26q33 0 51 -19t18 -49q0 -41 -26.5 -67.5t-67.5 -26.5q-33 0 -51 18.5t-18 51.5z" />
<glyph unicode="&#x131;" horiz-adv-x="442" d="M174 0l160 1133h94l-160 -1133h-94z" />
<glyph unicode="&#x15e;" horiz-adv-x="1196" d="M180 55l27 84q19 -8 53 -19.5t135 -30.5t197 -19q206 0 321 80.5t115 228.5q0 42 -10.5 77.5t-25.5 62t-44.5 52t-53 41t-67 35t-70 30t-77.5 28.5q-58 21 -95.5 35.5t-84 37t-76 43t-60.5 50t-48.5 62.5t-28.5 76t-11 93q0 87 33.5 154t85.5 107.5t123.5 66.5 t139.5 35.5t141 9.5q70 0 137 -8.5t111 -19.5t78.5 -23t50.5 -19t16 -6l-31 -82q0 -1 -14.5 5.5t-46 17t-72 21t-101.5 18t-126 7.5q-64 0 -122 -7.5t-115.5 -27.5t-99 -51.5t-67.5 -82t-26 -115.5q0 -59 20 -103t67.5 -80t104.5 -63t152 -63q58 -22 93 -36t83.5 -37 t77.5 -43.5t61.5 -51.5t50 -64.5t29.5 -78.5t12 -97q0 -188 -132.5 -291.5t-362.5 -111.5l-43 -111q30 6 65 6q71 0 117.5 -33t46.5 -102q0 -83 -59 -135.5t-179 -52.5q-53 0 -98 11t-63 21l-19 11l29 73q66 -41 154 -41q143 0 143 103q0 80 -119 80q-74 0 -137 -21l76 191 q-94 4 -184 22t-133 34z" />
<glyph unicode="&#x15f;" horiz-adv-x="980" d="M143 37l25 86q17 -6 47.5 -15t116.5 -24.5t162 -15.5q164 0 247.5 63t83.5 172q0 25 -5.5 47.5t-12 39.5t-22 34t-26.5 28t-35 24t-37.5 20t-44 18.5t-44.5 16t-49 16.5q-60 20 -99.5 36t-85 43t-71.5 56.5t-44 73.5t-18 98q0 84 37.5 144.5t102.5 93t137 47t156 14.5 q79 0 155.5 -12.5t112.5 -24.5l37 -12l-27 -84q-13 5 -37 12.5t-97 20t-144 12.5q-60 0 -114 -9.5t-106.5 -31t-84 -65t-31.5 -103.5q0 -28 7.5 -52t18 -41.5t32.5 -34.5t39 -28t49.5 -24.5t53.5 -21t60 -21.5q37 -13 57 -20t53.5 -20.5t52.5 -24t46 -27.5t42.5 -33 t33.5 -38.5t27 -47t15.5 -55.5t6.5 -66q0 -154 -107.5 -232.5t-292.5 -86.5l-43 -111q30 6 66 6q71 0 117.5 -33t46.5 -102q0 -83 -59 -135.5t-179 -52.5q-53 0 -98 11t-63 21l-19 11l28 73q66 -41 154 -41q143 0 143 103q0 80 -118 80q-75 0 -138 -21l76 191 q-78 3 -151.5 16.5t-107.5 25.5z" />
<glyph unicode="&#x192;" horiz-adv-x="1105" d="M-125 -418l27 84q39 -24 143 -24q232 0 289 235l241 983h-241l18 82h244l76 307q19 78 51 137t69.5 94.5t85 58t93.5 30.5t100 8q39 0 79 -6.5t60 -12.5l21 -6l-33 -79q-51 16 -133 16q-119 0 -192.5 -59t-106.5 -193l-72 -295h338l-18 -82h-340l-240 -979 q-24 -97 -63.5 -163.5t-93 -101t-110 -48.5t-128.5 -14q-99 0 -164 28z" />
<glyph unicode="&#x2c6;" horiz-adv-x="811" d="M332 1339l295 240l229 -240l-57 -51l-187 176l-239 -176z" />
<glyph unicode="&#x2da;" horiz-adv-x="671" d="M348 1442q0 94 62.5 150.5t156.5 56.5q76 0 123 -42.5t47 -115.5q0 -94 -63 -149.5t-158 -55.5q-76 0 -122 41.5t-46 114.5zM428 1450q0 -44 26 -69t72 -25q58 0 93.5 34.5t35.5 92.5q0 44 -26 70t-72 26q-56 0 -92.5 -35.5t-36.5 -93.5z" />
<glyph unicode="&#x2dc;" horiz-adv-x="841" d="M332 1341q2 6 6 16t19.5 35.5t34 45t51.5 35.5t71 16q37 0 69.5 -15.5t52 -34.5t45 -34.5t50.5 -15.5q34 0 61.5 25t38.5 50l11 25l61 -33q-2 -6 -6 -16t-19.5 -35t-34.5 -44.5t-52 -35.5t-70 -16q-45 0 -83 25t-70.5 50t-63.5 25q-34 0 -61.5 -25t-38.5 -50l-11 -25z " />
<glyph unicode="&#x3a9;" horiz-adv-x="1437" d="M133 0l10 74h355q-47 32 -88.5 77t-81 112.5t-63 165.5t-23.5 214q0 119 19.5 230t69 222.5t124.5 194t196.5 134t274.5 51.5q108 0 193.5 -32.5t139.5 -86t89.5 -128t50 -152.5t14.5 -165q0 -145 -28 -271t-70.5 -213t-102 -160t-113.5 -116.5t-114 -76.5h330l-10 -74 h-504l8 53q11 3 29 10.5t71 38.5t101.5 70t107 110t101 154t71.5 206t29 263q0 70 -10.5 133t-38.5 128.5t-72 112.5t-117 77t-168 30q-110 0 -200 -32.5t-148.5 -82.5t-102.5 -121t-66.5 -137.5t-36.5 -143.5t-17.5 -126.5t-3.5 -97.5q0 -93 16 -175.5t40.5 -140t57 -106 t62 -78t60 -51t46.5 -30t25 -11.5l-8 -53h-504z" />
<glyph unicode="&#x3c0;" horiz-adv-x="1587" d="M260 1051l12 82h1342l-12 -82h-361l-98 -697q-8 -70 -8 -94q0 -95 39.5 -143.5t128.5 -48.5q37 0 74 7t55 14l18 7l4 -82q-60 -34 -162 -34q-252 0 -252 270q0 48 9 106l98 695h-471l-148 -1051h-94l148 1051h-322z" />
<glyph unicode="&#x2000;" horiz-adv-x="1196" />
<glyph unicode="&#x2001;" horiz-adv-x="2392" />
<glyph unicode="&#x2002;" horiz-adv-x="1196" />
<glyph unicode="&#x2003;" horiz-adv-x="2392" />
<glyph unicode="&#x2004;" horiz-adv-x="797" />
<glyph unicode="&#x2005;" horiz-adv-x="598" />
<glyph unicode="&#x2006;" horiz-adv-x="398" />
<glyph unicode="&#x2007;" horiz-adv-x="398" />
<glyph unicode="&#x2008;" horiz-adv-x="299" />
<glyph unicode="&#x2009;" horiz-adv-x="163" />
<glyph unicode="&#x200a;" horiz-adv-x="132" />
<glyph unicode="&#x2010;" horiz-adv-x="864" d="M221 557l10 80h578l-10 -80h-578z" />
<glyph unicode="&#x2011;" horiz-adv-x="864" d="M221 557l10 80h578l-10 -80h-578z" />
<glyph unicode="&#x2012;" horiz-adv-x="864" d="M221 557l10 80h578l-10 -80h-578z" />
<glyph unicode="&#x2013;" horiz-adv-x="1146" d="M231 557l11 80h839l-10 -80h-840z" />
<glyph unicode="&#x2014;" horiz-adv-x="1462" d="M231 557l11 80h1155l-11 -80h-1155z" />
<glyph unicode="&#x2018;" horiz-adv-x="438" d="M281 1116q0 35 44 135t88 183l44 82l49 -23q-25 -56 -66 -201t-47 -211q-22 -20 -57 -20q-55 0 -55 55z" />
<glyph unicode="&#x2019;" horiz-adv-x="438" d="M295 1083q26 57 66.5 201.5t44.5 210.5q24 21 59 21q25 0 40 -14.5t15 -41.5q0 -35 -44.5 -134.5t-89.5 -181.5l-44 -83z" />
<glyph unicode="&#x201a;" horiz-adv-x="458" d="M80 -305q26 57 66 201t44 210q25 21 60 21q55 0 55 -55q0 -35 -44.5 -135t-88.5 -183l-45 -82z" />
<glyph unicode="&#x201c;" horiz-adv-x="704" d="M322 1116q0 35 44 135t88 183l44 82l49 -23q-25 -56 -66 -201t-47 -211q-22 -20 -57 -20q-55 0 -55 55zM567 1116q0 35 44 135t88 183l44 82l50 -23q-25 -56 -66 -201t-47 -211q-22 -20 -57 -20q-26 0 -41 14t-15 41z" />
<glyph unicode="&#x201d;" horiz-adv-x="704" d="M274 1083q26 57 66.5 201.5t44.5 210.5q24 21 59 21q25 0 40.5 -14.5t15.5 -41.5q0 -35 -44.5 -134.5t-89.5 -181.5l-44 -83zM520 1083q26 57 66.5 201.5t44.5 210.5q24 21 59 21q25 0 40 -14.5t15 -41.5q0 -35 -44.5 -134.5t-88.5 -181.5l-45 -83z" />
<glyph unicode="&#x201e;" horiz-adv-x="704" d="M80 -305q26 57 66 201t44 210q25 21 60 21q55 0 55 -55q0 -35 -44.5 -135t-88.5 -183l-45 -82zM326 -305q26 57 66 201t44 210q25 21 60 21q55 0 55 -55q0 -35 -44.5 -135t-88.5 -183l-45 -82z" />
<glyph unicode="&#x2026;" horiz-adv-x="1480" d="M172 51q0 43 26 71t70 28q35 0 53.5 -19.5t18.5 -52.5q0 -43 -26 -70.5t-68 -27.5q-35 0 -54.5 19t-19.5 52zM666 51q0 43 26 71t70 28q35 0 53.5 -19.5t18.5 -52.5q0 -43 -26.5 -70.5t-68.5 -27.5q-35 0 -54 19t-19 52zM1159 51q0 43 26 71t70 28q35 0 53.5 -19.5 t18.5 -52.5q0 -43 -26 -70.5t-68 -27.5q-35 0 -54.5 19t-19.5 52z" />
<glyph unicode="&#x202f;" horiz-adv-x="478" />
<glyph unicode="&#x2030;" horiz-adv-x="2406" d="M274 1047q0 57 11 114.5t37 114.5t64.5 101t98.5 71t133 27t125 -24t79.5 -66t39.5 -89.5t12 -103.5q0 -63 -12 -123t-39 -117t-66 -99.5t-98 -68.5t-131 -26q-68 0 -118.5 24.5t-79.5 67t-42.5 92t-13.5 105.5zM360 1047q0 -94 41.5 -152t133.5 -61q65 0 115 29.5 t79.5 79.5t44 111t14.5 130q0 215 -174 215q-66 0 -116 -29.5t-79.5 -79.5t-44 -111.5t-14.5 -131.5zM487 18l828 1457l76 -37l-830 -1458zM1010 268q0 57 11 114.5t37 114.5t64.5 101t98.5 71t133 27t125 -24t79.5 -66t39.5 -89t12 -103q0 -63 -12 -123t-39 -117t-66 -99.5 t-98 -68.5t-131 -26q-68 0 -118.5 24.5t-79.5 66.5t-42.5 91.5t-13.5 105.5zM1096 268q0 -95 41 -152.5t133 -60.5q65 0 115 29.5t79.5 79.5t44.5 111.5t15 130.5q0 215 -174 215q-87 0 -146 -52t-83.5 -129t-24.5 -172zM1737 268q0 57 11 114.5t37 114.5t64.5 101t98.5 71 t133 27t125 -24t79.5 -66t39.5 -89t12 -103q0 -63 -12 -123t-39 -117t-66 -99.5t-98 -68.5t-131 -26q-68 0 -118.5 24.5t-79.5 66.5t-42.5 91.5t-13.5 105.5zM1823 268q0 -95 41 -152.5t133 -60.5q65 0 115 29.5t79.5 79.5t44.5 111.5t15 130.5q0 215 -174 215 q-87 0 -146 -52t-83.5 -129t-24.5 -172z" />
<glyph unicode="&#x2039;" horiz-adv-x="731" d="M233 575l400 431l57 -54l-342 -377l236 -376l-74 -54z" />
<glyph unicode="&#x203a;" horiz-adv-x="731" d="M203 199l340 376l-234 377l72 54l278 -431l-399 -430z" />
<glyph unicode="&#x2044;" horiz-adv-x="555" d="M-70 8l834 1467l67 -29l-833 -1466z" />
<glyph unicode="&#x205f;" horiz-adv-x="598" />
<glyph unicode="&#x2070;" horiz-adv-x="868" d="M270 993q0 81 8.5 154t34.5 152.5t67 137t111.5 95t163.5 37.5q260 0 260 -305q0 -76 -8.5 -148t-33 -152t-64 -139t-107 -98t-155.5 -39q-77 0 -133 25.5t-86 70t-44 96.5t-14 113zM354 981q0 -41 9.5 -77t30.5 -68.5t61 -52t94 -19.5q53 0 96 19.5t72 50t50.5 75 t33.5 89t19 98t9 94.5t2 86q0 47 -8 83t-28 68t-58 49t-94 17q-53 0 -96 -18.5t-72.5 -48t-52 -72.5t-35 -86.5t-20.5 -96.5t-10.5 -97.5t-2.5 -92.5z" />
<glyph unicode="&#x2074;" horiz-adv-x="782" d="M229 920l11 73l452 563h84l-78 -563h121l-10 -73h-121l-31 -220h-84l31 220h-375zM332 993h282l58 424z" />
<glyph unicode="&#x2075;" horiz-adv-x="776" d="M227 737l29 74q78 -47 193 -47q109 0 183.5 65t74.5 172q0 173 -185 173q-47 0 -105 -12.5t-98 -28.5l82 423h424l-10 -73h-354l-49 -254q63 20 120 20q127 0 195 -64.5t68 -170.5q0 -149 -97 -237.5t-256 -88.5q-114 0 -215 49z" />
<glyph unicode="&#x2076;" horiz-adv-x="811" d="M270 997q0 90 13 172t42.5 155.5t73 126.5t108 84.5t144.5 31.5q53 0 101 -14t70 -28l22 -14l-35 -61q-7 5 -19 11.5t-53.5 18t-85.5 11.5q-224 0 -282 -305q99 61 213 61q123 0 184 -63.5t61 -169.5q0 -145 -85 -235.5t-218 -90.5q-127 0 -190.5 85t-63.5 224zM352 991 q0 -43 7.5 -79.5t25.5 -71.5t54 -55.5t87 -20.5q62 0 107 24.5t68 64t33.5 79.5t10.5 82q0 28 -6 52t-22 49.5t-50 40.5t-83 15q-118 0 -228 -65q-4 -43 -4 -115z" />
<glyph unicode="&#x2077;" horiz-adv-x="702" d="M307 700l416 781h-399l10 75h506l-6 -36l-435 -820h-92z" />
<glyph unicode="&#x2078;" horiz-adv-x="843" d="M250 907q0 45 13.5 83.5t32 63.5t48 48t50 35t50.5 26q-106 63 -106 168q0 81 43.5 136t109.5 77.5t150 22.5q107 0 175.5 -52t68.5 -139q0 -83 -50.5 -140.5t-121.5 -92.5q137 -69 137 -195q0 -131 -85.5 -197.5t-225.5 -66.5q-135 0 -212 61t-77 162zM336 918 q0 -76 53.5 -117t155.5 -41q100 0 160.5 43t60.5 133q0 32 -12 57.5t-28.5 41.5t-46 31.5t-52.5 23.5t-62.5 21.5t-60.5 21.5q-31 -12 -54 -25.5t-52.5 -38.5t-45.5 -63.5t-16 -87.5zM424 1341q0 -28 10.5 -50.5t24 -36.5t40 -28t45.5 -21t55 -19t54 -19q59 29 104.5 80.5 t45.5 126.5q0 58 -46.5 88.5t-125.5 30.5q-39 0 -72.5 -7t-65.5 -22.5t-50.5 -47t-18.5 -75.5z" />
<glyph unicode="&#x2079;" horiz-adv-x="811" d="M287 743l35 62q6 -5 18.5 -11.5t53.5 -18t85 -11.5q222 0 281 303q-92 -59 -211 -59q-123 0 -184.5 63.5t-61.5 169.5q0 145 85 235.5t218 90.5q126 0 190 -85.5t64 -224.5q0 -114 -21.5 -213t-65.5 -180.5t-119.5 -128.5t-174.5 -47q-53 0 -101 14t-70 28zM385 1241 q0 -21 3.5 -40.5t14 -42t27.5 -38.5t47 -26.5t70 -10.5q118 0 225 66q6 62 6 115q0 43 -7.5 79.5t-25.5 71.5t-54 55.5t-87 20.5q-62 0 -107 -24.5t-68 -64t-33.5 -79.5t-10.5 -82z" />
<glyph unicode="&#x207f;" horiz-adv-x="856" d="M199 614l104 742q58 28 149.5 47.5t184.5 19.5q141 0 209.5 -56.5t68.5 -180.5q0 -34 -6 -78l-69 -494h-82l69 494q7 47 7 70q0 58 -17 95t-49 53t-61 21t-70 5q-71 0 -135.5 -10t-93.5 -20l-29 -9l-98 -699h-82z" />
<glyph unicode="&#x2080;" horiz-adv-x="868" d="M125 -31q0 81 8.5 154t34.5 152.5t67 137t111.5 95t163.5 37.5q260 0 260 -305q0 -76 -8.5 -148t-33.5 -152t-64 -139t-107 -98t-156 -39q-77 0 -132.5 25.5t-86 70t-44 96t-13.5 113.5zM209 -43q0 -41 9.5 -77t30 -68.5t60.5 -52t94 -19.5q61 0 109.5 24.5t78 68.5 t49.5 94t29.5 112.5t13 110.5t3.5 102q0 47 -8 83t-28 68t-58 49t-94 17q-53 0 -96 -18.5t-72.5 -48t-52 -72.5t-35 -86.5t-20.5 -96.5t-10.5 -97.5t-2.5 -92.5z" />
<glyph unicode="&#x2081;" horiz-adv-x="495" d="M82 422l209 110h82l-121 -856h-82l109 779l-170 -93z" />
<glyph unicode="&#x2082;" horiz-adv-x="731" d="M80 -324l10 76l289 254q118 104 163.5 172.5t45.5 140.5q0 67 -42 108.5t-126 41.5q-52 0 -103 -16.5t-77 -32.5l-25 -17l-29 64q4 3 12.5 8.5t34.5 19t53.5 23.5t67.5 18.5t78 8.5q116 0 177 -64.5t61 -158.5q0 -79 -45.5 -163t-182.5 -204l-231 -203h379l-10 -76h-500z " />
<glyph unicode="&#x2083;" horiz-adv-x="774" d="M94 -287l31 70q8 -5 23.5 -12t65.5 -19t103 -12q238 0 238 205q0 84 -55 118.5t-158 34.5l-78 -2l10 74h88q112 0 172 51t60 129q0 119 -154 119q-129 0 -219 -47l-22 65q11 6 31 16t83 26t127 16q121 0 180.5 -54.5t59.5 -136.5q0 -146 -186 -213q67 -18 107 -68 t40 -130q0 -73 -26.5 -128t-73 -87.5t-103.5 -48t-125 -15.5q-60 0 -114.5 12t-79.5 24z" />
<glyph unicode="&#x2084;" horiz-adv-x="741" d="M86 -102l10 71l453 563h84l-78 -563h121l-10 -71h-121l-31 -222h-84l31 222h-375zM188 -31h283l57 424z" />
<glyph unicode="&#x2085;" horiz-adv-x="741" d="M82 -287l29 74q78 -47 192 -47q109 0 183.5 65t74.5 172q0 173 -184 173q-47 0 -105 -12.5t-98 -28.5l82 423h424l-10 -73h-355l-49 -254q64 20 121 20q127 0 194.5 -64.5t67.5 -170.5q0 -149 -96.5 -237.5t-255.5 -88.5q-114 0 -215 49z" />
<glyph unicode="&#x2086;" horiz-adv-x="768" d="M123 -25q0 90 13 172t42.5 155.5t73 126.5t108 84.5t144.5 31.5q53 0 101 -14t69 -28l22 -14l-34 -61q-7 5 -19 11.5t-53.5 18t-85.5 11.5q-65 0 -115.5 -25.5t-83 -71t-52.5 -96t-32 -112.5q99 61 213 61q123 0 184.5 -63.5t61.5 -169.5q0 -145 -85 -235.5t-218 -90.5 q-127 0 -190.5 85t-63.5 224zM205 -31q0 -43 7.5 -79.5t25.5 -71.5t54 -55.5t87 -20.5q62 0 107 24.5t68 64t33.5 79.5t10.5 82q0 21 -3.5 40.5t-14 42t-27.5 38.5t-47 26.5t-70 10.5q-115 0 -227 -66q-4 -43 -4 -115z" />
<glyph unicode="&#x2087;" horiz-adv-x="688" d="M131 -324l416 781h-402l11 75h506l-7 -36l-434 -820h-90z" />
<glyph unicode="&#x2088;" horiz-adv-x="802" d="M106 -117q0 45 14 83.5t32 63.5t48 48t50.5 34.5t50.5 26.5q-106 63 -106 168q0 81 43.5 136t109.5 77.5t150 22.5q107 0 175 -52t68 -139q0 -83 -50.5 -140.5t-121.5 -92.5q138 -69 138 -195q0 -131 -85.5 -197.5t-226.5 -66.5q-135 0 -212 61t-77 162zM193 -106 q0 -76 53 -117t155 -41q101 0 161.5 43t60.5 133q0 32 -12 57.5t-28.5 41.5t-46.5 31.5t-53 23.5t-62 21.5t-61 21.5q-30 -12 -53.5 -25.5t-52.5 -38.5t-45 -63.5t-16 -87.5zM281 317q0 -28 10.5 -50.5t24 -36.5t40 -28t45.5 -21t55 -19t54 -19q59 29 104 80.5t45 126.5 q0 58 -46.5 88.5t-125.5 30.5q-39 0 -72.5 -7t-65 -22.5t-50 -47t-18.5 -75.5z" />
<glyph unicode="&#x2089;" horiz-adv-x="792" d="M123 -279l35 62q6 -5 18.5 -11.5t53.5 -18t85 -11.5q222 0 281 303q-92 -59 -211 -59q-123 0 -184.5 63.5t-61.5 169.5q0 145 85 235.5t218 90.5q127 0 190.5 -85t63.5 -224q0 -90 -13 -172t-42.5 -155.5t-73 -126.5t-108 -84.5t-144.5 -31.5q-53 0 -101 14t-70 28z M221 219q0 -21 3.5 -40.5t14 -42t27.5 -38.5t47 -26.5t70 -10.5q118 0 225 66q6 61 6 115q0 43 -7.5 79.5t-25.5 71.5t-54 55.5t-87 20.5q-62 0 -107 -24.5t-68 -64t-33.5 -79.5t-10.5 -82z" />
<glyph unicode="&#x20ac;" horiz-adv-x="1261" d="M186 518l11 80h145q6 136 35 268h-141l10 80h151q24 83 58.5 154.5t86.5 137t115.5 111t150 72.5t187.5 27q98 0 184.5 -19.5t124.5 -38.5l37 -20l-38 -78q-4 3 -12.5 7.5t-38 15.5t-62.5 20t-86 16t-109 7q-370 0 -503 -412h645l-37 -80h-629q-30 -121 -37 -268h541 l-37 -80h-504q4 -436 440 -436q74 0 140 11t96 23l29 11l18 -80q-14 -6 -39.5 -15t-105.5 -23.5t-162 -14.5q-114 0 -202.5 28.5t-144.5 76t-92.5 116t-52 142.5t-16.5 161h-156z" />
<glyph unicode="&#x2122;" horiz-adv-x="1081" d="M254 1376l8 62h363l-9 -62h-147l-57 -411h-70l57 411h-145zM629 965l102 473h103l63 -303l152 303h102l-35 -473h-61l24 409l-153 -323h-78l-66 329l-86 -415h-67z" />
<glyph unicode="&#x2190;" horiz-adv-x="1843" d="M225 725l832 729l47 -57l-721 -633h1405l-12 -78h-1407l546 -633l-63 -55z" />
<glyph unicode="&#x2191;" horiz-adv-x="1710" d="M231 745l830 730l627 -730l-66 -55l-543 633l-186 -1323h-78l186 1325l-722 -635z" />
<glyph unicode="&#x2192;" horiz-adv-x="1843" d="M260 686l10 78h1416l-547 635l57 55l627 -729l-832 -727l-53 59l717 629h-1395z" />
<glyph unicode="&#x2193;" horiz-adv-x="1710" d="M227 709l60 49l547 -639l186 1335h78l-187 -1321l723 633l49 -57l-831 -729z" />
<glyph unicode="&#x2202;" horiz-adv-x="1196" d="M162 322q0 239 149 392.5t394 153.5q217 0 356 -129q29 158 29 275q0 61 -8.5 114.5t-29.5 104t-53 86.5t-82 58t-114 22q-62 0 -119.5 -17t-95 -41t-65.5 -48t-41 -41l-13 -17l-35 90q6 6 17.5 16t50 36t80 46t105 36t128.5 16q86 0 153 -26.5t109.5 -70.5t70.5 -106 t39 -127.5t11 -140.5q0 -70 -8 -151t-29.5 -182.5t-54 -195.5t-87.5 -185.5t-124.5 -159t-170 -109t-218.5 -41.5q-167 0 -255.5 94t-88.5 248zM274 326q0 -52 11.5 -96.5t37.5 -85t75.5 -64t117.5 -23.5q84 0 159.5 34t132 91t103.5 135.5t78.5 163t54.5 178.5 q-137 132 -339 132q-90 0 -162.5 -26t-117.5 -69.5t-76.5 -93t-47 -105.5t-21.5 -96.5t-6 -74.5z" />
<glyph unicode="&#x2206;" horiz-adv-x="1523" d="M123 0l784 1454h119l375 -1454h-1278zM268 86h1010l-326 1266z" />
<glyph unicode="&#x220f;" horiz-adv-x="1622" d="M295 1366l12 88h1417l-12 -88h-323l-228 -1612h-94l227 1612h-581l-228 -1612h-94l227 1612h-323z" />
<glyph unicode="&#x2211;" horiz-adv-x="1200" d="M119 -246l12 86l684 766l-469 762l12 86h893l-12 -86h-778l469 -762l-684 -766h778l-12 -86h-893z" />
<glyph unicode="&#x221a;" horiz-adv-x="1605" d="M199 752l346 129l243 -1069l889 1744h97l-914 -1802h-155l-232 1016l-256 -94z" />
<glyph unicode="&#x221e;" horiz-adv-x="1628" d="M215 643q0 96 51 173.5t128.5 118t162.5 40.5q103 0 188.5 -63.5t172.5 -174.5q76 72 136 118.5t138 83t147 36.5q115 0 190 -75.5t75 -186.5q0 -95 -51 -171t-128.5 -115.5t-162.5 -39.5q-110 0 -202 66.5t-161 164.5q-110 -111 -213 -171t-209 -60q-108 0 -185 70 t-77 186zM293 653q0 -86 56.5 -137t137.5 -51q161 0 373 215q-81 104 -158 159.5t-165 55.5q-99 0 -171.5 -73t-72.5 -169zM961 680q146 -215 311 -215q100 0 177 67.5t77 176.5q0 85 -56 136.5t-137 51.5q-164 -15 -372 -217z" />
<glyph unicode="&#x222b;" horiz-adv-x="917" d="M14 -406l35 80q41 -32 129 -32q101 0 145 55t58 156l184 1323q23 161 101 230t202 69q47 0 86.5 -10.5t55.5 -20.5l16 -10l-35 -80q-41 32 -129 32q-101 0 -145 -54.5t-58 -155.5l-184 -1323q-23 -161 -101 -230t-202 -69q-47 0 -86.5 10t-55.5 20z" />
<glyph unicode="&#x2248;" horiz-adv-x="1116" d="M207 377q4 6 12.5 15t35.5 32.5t55.5 41.5t72 33t86.5 15q47 0 92 -18t74 -39.5t67 -39.5t74 -18q50 0 102.5 29t79.5 58l27 28l41 -57q-4 -6 -12.5 -15t-35.5 -33t-55.5 -42t-72 -33t-86.5 -15q-46 0 -90 18t-72.5 39.5t-67 39.5t-75.5 18q-50 0 -103 -29t-80 -57 l-28 -29zM258 745q4 6 12.5 15t36 33t56.5 42t72.5 33t86.5 15q47 0 91.5 -18t73 -39.5t66.5 -39.5t74 -18q50 0 103 29t80 57l28 29l41 -58q-4 -6 -12.5 -15t-36 -32.5t-56.5 -41.5t-72.5 -33t-86.5 -15q-46 0 -90 18t-72.5 39.5t-67 39.5t-75.5 18q-32 0 -65 -12 t-58 -28.5t-45.5 -33.5t-31.5 -29l-11 -12z" />
<glyph unicode="&#x2260;" horiz-adv-x="1097" d="M201 334l10 80h238l243 350h-430l10 80h476l184 262l63 -41l-155 -221h223l-10 -80h-269l-243 -350h460l-10 -80h-506l-180 -258l-63 41l151 217h-192z" />
<glyph unicode="&#x2264;" horiz-adv-x="1153" d="M154 0l10 72h811l-10 -72h-811zM246 657l12 93l852 399l20 -68l-804 -379l698 -376l-39 -68z" />
<glyph unicode="&#x2265;" horiz-adv-x="1153" d="M188 0l11 72h811l-11 -72h-811zM219 326l803 376l-696 379l41 68l737 -399l-12 -93l-850 -399z" />
<glyph unicode="&#x25fc;" horiz-adv-x="1136" d="M0 0v1137h1137v-1137h-1137z" />
<glyph unicode="&#xfb06;" horiz-adv-x="1755" d="M145 37l25 86q17 -6 47.5 -15t116.5 -24.5t162 -15.5q164 0 247.5 63t83.5 172q0 25 -5.5 47.5t-12 39.5t-22 34t-26.5 28t-35 24t-37.5 20t-44 18.5t-44.5 16t-49 16.5q-60 20 -99.5 36t-85 43t-71.5 56.5t-44 73.5t-18 98q0 84 37.5 144.5t102.5 93t137 47t156 14.5 q63 0 157 -12q-32 25 -50.5 70t-18.5 96q0 117 91 193.5t249 76.5q90 0 177 -24t129 -48l42 -24l-49 -348h397l-12 -82h-398l-98 -699q-6 -38 -6 -71q0 -213 209 -213q41 0 82.5 8t62.5 16l21 8l4 -86q-63 -34 -174 -34q-141 0 -220 73.5t-79 218.5q0 38 6 82l153 1080 q-12 6 -35 15t-87 22.5t-129 13.5q-117 0 -180.5 -47t-63.5 -142q0 -75 41 -122t94 -70l-27 -84q-14 5 -40 12.5t-101.5 20t-146.5 12.5q-60 0 -114 -9.5t-106.5 -31t-84 -65t-31.5 -103.5q0 -28 7.5 -52t18 -41.5t32.5 -34.5t39 -28t49.5 -24.5t53.5 -21t60 -21.5 q37 -13 57 -20t53.5 -20.5t52.5 -24t46 -27.5t42.5 -33t33.5 -38.5t27 -47t15.5 -55.5t6.5 -66q0 -163 -119 -242t-322 -79q-89 0 -173.5 14t-124.5 28z" />
<glyph horiz-adv-x="1142" d="M111 -379l26 84q12 -7 35 -17.5t107 -28t182 -17.5q47 0 91.5 3.5t100 12.5t101 28t85 45.5t61.5 69.5t22 97q0 45 -16 78.5t-38 52t-55.5 31t-58.5 16.5t-56 6l-325 20q-90 6 -134 48t-44 108q0 70 43 120.5t102 82.5q-123 91 -123 270q0 183 127 302.5t334 119.5 q150 0 244 -66q49 41 126.5 71t153.5 30l47 -4l-12 -90q-16 2 -43 2q-117 0 -223 -49q84 -94 84 -238q0 -185 -126.5 -301.5t-332.5 -116.5q-102 0 -184 31q-55 -25 -92 -67t-37 -89q0 -68 102 -73l311 -17q42 -2 80 -8.5t84 -25t78.5 -47t55 -78t22.5 -113.5 q0 -162 -136 -256t-413 -94q-109 0 -198 17t-123 33zM311 735q0 -123 76 -189.5t217 -66.5q166 0 261.5 88t95.5 236q0 127 -73.5 194.5t-213.5 67.5q-172 0 -267.5 -94t-95.5 -236z" />
<glyph horiz-adv-x="1110" d="M8 -414l27 82q49 -26 125 -26q107 0 192 80t180 278h-55l-256 1133h92l246 -1078l549 1078h100l-575 -1133q-62 -122 -111.5 -200t-105.5 -136.5t-117 -84t-137 -25.5q-44 0 -82.5 8t-55.5 16z" />
<glyph horiz-adv-x="1142" d="M111 -379l26 84q12 -7 35 -17.5t107 -28t182 -17.5q47 0 91.5 3.5t100 12.5t101 28t85 45.5t61.5 69.5t22 97q0 45 -16 78.5t-38 52t-55.5 31t-58.5 16.5t-56 6l-325 20q-90 6 -134 48t-44 108q0 70 43 120.5t102 82.5q-123 91 -123 270q0 183 127 302.5t334 119.5 q150 0 244 -66q49 41 126.5 71t153.5 30l47 -4l-12 -90q-16 2 -43 2q-117 0 -223 -49q84 -94 84 -238q0 -185 -126.5 -301.5t-332.5 -116.5q-102 0 -184 31q-55 -25 -92 -67t-37 -89q0 -68 102 -73l311 -17q42 -2 80 -8.5t84 -25t78.5 -47t55 -78t22.5 -113.5 q0 -162 -136 -256t-413 -94q-109 0 -198 17t-123 33zM311 735q0 -123 76 -189.5t217 -66.5q166 0 261.5 88t95.5 236q0 127 -73.5 194.5t-213.5 67.5q-172 0 -267.5 -94t-95.5 -236zM518 1506v12l72 28q0 -6 0.5 -17t9 -38t23 -47.5t48 -37.5t79.5 -17t83.5 16t58 39.5 t35 46.5t19.5 39l4 16l64 -28q-2 -9 -7 -23t-27 -50.5t-50 -64t-79.5 -50.5t-113.5 -23q-45 0 -81.5 11.5t-58.5 30t-38.5 41t-24 45.5t-11.5 41.5t-5 29.5z" />
<glyph horiz-adv-x="1110" d="M8 -414l27 82q49 -26 125 -26q107 0 192 80t180 278h-55l-256 1133h92l246 -1078l549 1078h100l-575 -1133q-62 -122 -111.5 -200t-105.5 -136.5t-117 -84t-137 -25.5q-44 0 -82.5 8t-55.5 16zM686 1339l305 240l53 -68l-321 -227z" />
<glyph horiz-adv-x="1110" d="M8 -414l27 82q49 -26 125 -26q107 0 192 80t180 278h-55l-256 1133h92l246 -1078l549 1078h100l-575 -1133q-62 -122 -111.5 -200t-105.5 -136.5t-117 -84t-137 -25.5q-44 0 -82.5 8t-55.5 16zM496 1411q0 36 21.5 59t57.5 23q29 0 45.5 -16t16.5 -43q0 -36 -22 -59 t-58 -23q-29 0 -45 16t-16 43zM881 1411q0 36 22 59t58 23q29 0 45 -16t16 -43q0 -36 -22 -59t-58 -23q-29 0 -45 16t-16 43z" />
<glyph horiz-adv-x="1122" d="M174 0l219 1556h94l-69 -499q148 96 350 96q91 0 158 -23.5t104 -65t54.5 -91t17.5 -107.5q0 -157 -97 -259t-307 -130l117 -248q33 -69 71 -105t101 -36q17 0 37.5 3t32.5 6l12 3l-4 -80q-44 -20 -107 -20q-141 0 -219 166l-141 303h-53q-109 0 -209 16l-68 -485h-94z M348 573q88 -16 223 -16q437 0 437 297q0 100 -66.5 155.5t-189.5 55.5q-181 0 -349 -107z" />
<glyph horiz-adv-x="471" d="M170 41q0 38 21.5 61t60.5 23q30 0 46.5 -17t16.5 -45q0 -37 -23 -60t-61 -23q-61 0 -61 61zM231 225l123 985h103l-156 -985h-70z" />
<glyph horiz-adv-x="1316" d="M141 270l19 80h219l129 510h-219l20 80h219l70 270h94l-69 -270h391l69 270h95l-70 -270h219l-20 -80h-220l-129 -510h220l-19 -80h-221l-68 -270h-94l68 270h-391l-68 -270h-94l67 270h-217zM473 350h391l129 510h-391z" />
<glyph horiz-adv-x="1017" d="M164 55l20 82q0 1 35 -10t108 -25.5t146 -17.5l72 512q-55 21 -91 37t-78 43t-65.5 57t-40 74t-16.5 98q0 77 32.5 136t88 93t119.5 52t137 22l26 185h84l-26 -183q69 -3 135.5 -15.5t98.5 -24.5l32 -11l-29 -80l-26 9q-27 10 -89 23t-132 15l-68 -473q59 -24 98 -42.5 t81.5 -47t67 -60t40.5 -77t16 -100.5q0 -153 -105.5 -235t-289.5 -91l-25 -182h-84l25 182q-75 4 -149 17.5t-111 25.5zM348 905q0 -84 51.5 -131.5t157.5 -89.5l61 440q-130 -10 -200 -67t-70 -152zM557 86q147 9 218 71t71 165q0 48 -15 85.5t-46.5 66t-68 48.5t-91.5 43z " />
<glyph horiz-adv-x="1509" d="M252 893q0 141 82 239.5t231 98.5q117 -4 174.5 -73.5t57.5 -174.5q0 -86 -32 -161t-102.5 -126t-166.5 -51q-123 0 -183.5 70.5t-60.5 177.5zM332 897q0 -81 43.5 -130.5t118.5 -49.5q98 0 159.5 69t61.5 193q0 82 -42 129.5t-118 50.5q-98 0 -160.5 -69.5t-62.5 -192.5 zM410 16l790 1215l66 -37l-791 -1214zM881 227q0 141 82 239.5t231 98.5q117 -4 174 -73.5t57 -174.5q0 -64 -19 -123t-55.5 -107.5t-95 -77.5t-131.5 -29q-123 0 -183 70t-60 177zM961 231q0 -81 43 -130.5t118 -49.5q98 0 159.5 69t61.5 193q0 82 -41.5 130t-117.5 51 q-98 0 -160.5 -70t-62.5 -193z" />
<glyph horiz-adv-x="1302" d="M168 317q0 68 20.5 125.5t50.5 96t79 74t89.5 56t98.5 44.5q-92 108 -92 231q0 121 76.5 204t218.5 83q68 0 124 -20t95 -70t39 -125q0 -67 -26 -121t-75 -93.5t-99 -66t-118 -51.5q1 -3 348 -414q109 150 142 379h86q-36 -269 -172 -444l137 -166l-72 -59l-127 155 q-74 -72 -186 -113.5t-246 -41.5q-195 0 -293 94.5t-98 242.5zM260 319q0 -119 79.5 -187.5t229.5 -68.5q113 0 209 37.5t158 100.5l-373 448q-38 -15 -65.5 -27.5t-61.5 -30.5t-57.5 -36t-47.5 -43t-38.5 -53t-23.5 -63.5t-9 -76.5zM508 946q0 -100 82 -198q42 16 63 24.5 t57 25.5t54.5 29.5t43 33t36.5 41t21 48.5t9 60q0 62 -42 100.5t-115 38.5q-95 0 -152 -48.5t-57 -154.5z" />
<glyph horiz-adv-x="1052" d="M152 -297l34 82q13 -8 37.5 -19t102.5 -30t159 -19q152 0 231 61t79 169q0 31 -8.5 58t-19 46.5t-34.5 38.5t-41 30t-53 26t-55 22t-62 22q-55 20 -92 35.5t-81 41.5t-69.5 54.5t-43 70.5t-17.5 93q0 89 43 149.5t100 92.5q-79 69 -79 197q0 87 38 150t102 95.5t133 47 t146 14.5q78 0 153 -13.5t111 -27.5l35 -14l-30 -80q-13 5 -37 13t-96.5 21t-141.5 13q-147 0 -232 -55t-85 -156q0 -28 7.5 -51.5t17.5 -41.5t31 -35.5t37.5 -28.5t49 -26t52.5 -23t61 -23.5t63 -24.5q60 -24 100.5 -47t78.5 -56.5t56.5 -79t18.5 -104.5q0 -81 -35 -146 t-96 -106q70 -67 70 -188q0 -161 -111 -241.5t-297 -80.5q-90 0 -173 18.5t-120 36.5zM315 500q0 -44 17 -79t51.5 -60.5t69 -42t86.5 -35.5q13 -5 43.5 -15.5t47.5 -17t41.5 -16.5t44.5 -20t38 -21q100 59 100 178q0 47 -16 83.5t-47.5 63t-66 45t-83.5 37.5 q-15 6 -90.5 33.5t-112.5 46.5q-44 -19 -83.5 -64.5t-39.5 -115.5z" />
<glyph horiz-adv-x="849" d="M180 821q0 70 11.5 126.5t43 111t82 91t133 59t191.5 22.5q68 0 124 -7.5t79 -14.5l22 -7l-135 -954q-5 -39 -13.5 -75t-30 -83t-51 -80.5t-79.5 -57.5t-113 -24q-29 0 -65 4l12 86q12 -2 51 -2q32 0 58.5 8t55 30t50 69.5t31.5 118.5l127 907h-111l-88 -621h-86 q-154 0 -226.5 79t-72.5 214z" />
<glyph horiz-adv-x="448" d="M193 440q0 128 20.5 247t53 207t71.5 165t78 128.5t71.5 88t52.5 53.5l21 17l47 -50q-9 -8 -22.5 -21.5t-46.5 -54t-63.5 -87t-66 -121t-61.5 -156t-43.5 -191.5t-17.5 -227q0 -100 13.5 -190.5t32.5 -148t37.5 -101.5t31.5 -63l14 -19l-64 -49q-6 7 -17 21.5t-38.5 67 t-48.5 113t-38 161t-17 210.5z" />
<glyph horiz-adv-x="616" d="M51 0l580 1210h94l-580 -1210h-94z" />
<glyph horiz-adv-x="387" d="M49 -84q7 6 18.5 17t45 50.5t64.5 85t68 121t64 157.5t45.5 194.5t18.5 232.5q0 100 -13.5 190.5t-32.5 148t-37.5 101.5t-31.5 63l-14 19l61 50q7 -7 17.5 -21.5t38.5 -67t49.5 -113.5t39 -161.5t17.5 -210.5q0 -101 -12.5 -196t-34 -171t-49 -146t-58.5 -123t-61.5 -98 t-58 -76t-49 -53t-34.5 -32l-12 -10z" />
<glyph horiz-adv-x="552" d="M170 -102l199 1415h307l-12 -82h-213l-175 -1251h213l-12 -82h-307z" />
<glyph horiz-adv-x="616" d="M231 1210h95l239 -1210h-94z" />
<glyph horiz-adv-x="552" d="M47 -102l12 82h213l174 1251h-213l13 82h307l-199 -1415h-307z" />
<glyph horiz-adv-x="608" d="M223 563l10 84q72 0 100 32t38 105l49 355q12 91 67 132.5t156 41.5h88l-12 -82h-86q-61 0 -86 -22t-33 -76l-49 -347q-20 -149 -117 -182q70 -22 70 -121q0 -19 -4 -59l-49 -346q-3 -15 -3 -29q0 -37 22 -53t75 -16h86l-13 -82h-88q-90 0 -133 32t-43 103q0 25 2 39 l49 354q5 50 5 55q0 43 -21.5 62.5t-79.5 19.5z" />
<glyph horiz-adv-x="577" d="M229 -117l201 1428h86l-201 -1428h-86z" />
<glyph horiz-adv-x="608" d="M47 -102l12 82h86q61 0 86 22t33 76l49 346q10 73 36.5 118.5t78.5 61.5q-68 24 -68 121q0 9 2 30.5t3 30.5l49 347q2 10 2 28q0 37 -22 53.5t-75 16.5h-86l13 82h88q90 0 133 -32t43 -103q0 -25 -2 -39l-49 -355q-4 -40 -4 -55q0 -43 21 -62.5t79 -19.5l-10 -84 q-72 0 -99.5 -31.5t-37.5 -105.5l-50 -354q-12 -91 -67 -132.5t-156 -41.5h-88z" />
<glyph horiz-adv-x="1116" d="M184 393q0 84 5.5 161t21.5 163t40.5 158t66.5 139.5t96 114t131.5 74.5t171.5 28q82 0 146 -21.5t104.5 -58.5t67 -90t37.5 -111t11 -127q0 -76 -4 -146t-17.5 -157.5t-35.5 -160.5t-61.5 -145t-91.5 -122t-129 -81t-171 -31q-107 0 -184.5 32t-121 90t-63.5 130 t-20 161zM279 395q0 -73 12.5 -128t44 -102t92.5 -72t150 -25q77 0 140 28.5t105 74t74 111.5t49.5 130.5t28 142t13.5 136.5t3 122q0 74 -12.5 129.5t-42.5 103t-87 72.5t-140 25q-79 0 -143.5 -25.5t-108.5 -67.5t-77 -103.5t-52 -125t-30.5 -142t-15 -144t-3.5 -140.5z " />
<glyph horiz-adv-x="714" d="M215 1020l320 190h94l-170 -1210h-94l155 1110l-268 -160z" />
<glyph horiz-adv-x="1026" d="M137 0l13 86l327 281q254 217 343 332t89 241q0 96 -72.5 149.5t-201.5 53.5q-90 0 -172 -26.5t-119 -52.5l-37 -26l-49 72q6 5 17.5 13t50.5 29t81 37t107 29t131 13q172 0 265.5 -84t93.5 -199q0 -79 -28 -153t-91 -154t-143 -157.5t-205 -184.5l-250 -213h598l-13 -86 h-735z" />
<glyph horiz-adv-x="1005" d="M127 55l39 78q10 -7 30 -18t94.5 -29t162.5 -18q174 0 278.5 75t104.5 226q0 129 -82 181t-254 52h-109l10 82h109q371 0 371 266q0 95 -62 144t-213 49q-84 0 -162 -15.5t-114 -31.5l-35 -15l-31 78q15 8 43.5 20t118.5 32t184 20q102 0 176 -21.5t114.5 -60.5t58.5 -85 t18 -103q0 -69 -22 -125t-59.5 -92.5t-76.5 -59.5t-82 -37q62 -20 102 -48.5t65.5 -84t25.5 -137.5q0 -190 -125 -293.5t-354 -103.5q-65 0 -122.5 7.5t-93 19t-61 22.5t-36.5 19z" />
<glyph horiz-adv-x="1042" d="M123 332l12 88l711 790h94l-113 -790h191l-12 -88h-191l-45 -332h-94l45 332h-598zM242 420h491l88 635z" />
<glyph horiz-adv-x="1046" d="M158 53l41 82q4 -3 12.5 -7.5t36.5 -16t59.5 -20.5t81.5 -16t103 -7q194 0 291.5 91.5t97.5 260.5q0 246 -295 246q-76 0 -154.5 -13.5t-119.5 -26.5l-40 -14l125 598h617l-13 -88h-528l-84 -399q74 31 203 31q180 0 281.5 -84.5t101.5 -237.5q0 -209 -120 -330.5 t-363 -121.5q-61 0 -118 7.5t-94.5 18t-66.5 21.5t-42 19z" />
<glyph horiz-adv-x="1054" d="M186 408q0 87 8.5 169.5t28.5 165t49.5 154t73.5 133t99 105.5t128 69t158 25q56 0 106.5 -7.5t82.5 -18t56.5 -22t35.5 -17.5l10 -7l-41 -76l-9 5q-8 6 -28.5 15.5t-48.5 18t-74 15t-98 6.5q-82 0 -150 -31.5t-113.5 -81t-80 -119t-53.5 -137t-31 -143.5 q148 114 344 114q175 0 265.5 -85t90.5 -232q0 -197 -111.5 -321.5t-316.5 -124.5q-199 0 -290 114t-91 314zM279 403q0 -56 7 -101.5t27 -90.5t52 -75t85 -49t123 -19q87 0 154 31.5t104.5 83.5t55.5 111.5t18 123.5q0 35 -6 66t-24.5 64t-48.5 56t-81.5 38t-119.5 15 q-184 0 -340 -114q-6 -80 -6 -140z" />
<glyph horiz-adv-x="919" d="M252 1128l12 82h727l-10 -65l-621 -1145h-98l612 1128h-622z" />
<glyph horiz-adv-x="1126" d="M168 297q0 65 19 122t47.5 96.5t66 71t70 49.5t63.5 28q-70 39 -101.5 91.5t-31.5 133.5q0 168 120.5 255t315.5 87q164 -8 255 -78.5t91 -198.5q0 -79 -37 -148t-84.5 -108t-99.5 -61q97 -37 144 -94.5t47 -169.5q0 -186 -127 -289.5t-353 -103.5q-197 0 -301 81 t-104 236zM264 305q0 -242 309 -242q112 0 196.5 29t138 96.5t53.5 167.5q0 59 -19.5 101.5t-49 65t-77 39t-89.5 23t-102 17.5t-100 23q-134 -45 -197 -128.5t-63 -191.5zM393 899q0 -35 8.5 -63t22.5 -49t41 -38t53 -28.5t71 -22t83.5 -17.5t99.5 -17q38 14 73.5 36t70 55 t55 81.5t20.5 103.5q0 196 -266 209q-147 0 -239.5 -61.5t-92.5 -188.5z" />
<glyph horiz-adv-x="1071" d="M203 51l41 76l8 -5q9 -6 29.5 -15t48.5 -17.5t74 -15t98 -6.5q82 0 149.5 31t112.5 80.5t79.5 119t53.5 137t31 144.5q-143 -115 -342 -115q-175 0 -266 85t-91 232q0 197 111.5 322t316.5 125q199 0 290 -114t91 -314q0 -123 -17 -236.5t-58 -221.5t-102 -187.5 t-155 -127.5t-212 -48q-56 0 -106.5 7.5t-82.5 18t-56.5 21.5t-34.5 17zM319 791q0 -35 6.5 -66t25 -64t48.5 -56.5t81.5 -38.5t119.5 -15q181 0 338 113q8 71 8 141q0 71 -12.5 126.5t-43.5 105t-91.5 77t-147.5 27.5t-154 -31.5t-104.5 -83.5t-55.5 -111.5t-18 -123.5z " />
<glyph horiz-adv-x="954" d="M254 1151l17 8.5t48.5 19.5t78 24.5t102.5 19t125 8.5q170 0 251.5 -66t81.5 -176q0 -63 -16.5 -114t-44.5 -85.5t-64.5 -62.5t-76.5 -49.5t-80.5 -43t-77 -46.5t-64.5 -55.5t-44.5 -75.5t-16.5 -101q0 -41 2 -53h-90q-4 40 -4 64q0 66 16.5 118.5t44.5 87.5t64 62.5 t76 48t79.5 40t75.5 42t64 49.5t44.5 67.5t16.5 92.5q0 79 -60.5 126.5t-187.5 47.5q-87 0 -171.5 -18.5t-125.5 -36.5l-41 -19zM326 41q0 37 22.5 60.5t61.5 23.5q30 0 45.5 -16.5t15.5 -45.5q0 -37 -22.5 -60t-59.5 -23q-63 0 -63 61z" />
<glyph horiz-adv-x="1214" d="M72 0l643 1210h123l305 -1210h-94l-95 369h-585l-195 -369h-102zM414 451h520l-168 665z" />
<glyph horiz-adv-x="1155" d="M186 10l166 1190q199 31 365 31q225 0 320.5 -75.5t95.5 -219.5q0 -139 -73.5 -212.5t-205.5 -102.5q123 -26 180.5 -90.5t57.5 -178.5q0 -81 -28.5 -145.5t-91 -117t-174 -81t-266.5 -28.5q-81 0 -167.5 7.5t-132.5 14.5zM291 82q171 -14 244 -14q242 0 351 68.5 t109 203.5q0 61 -20 104.5t-51.5 68t-84 38.5t-102.5 18t-121 4h-258zM371 657h233q70 0 126 5.5t116 22.5t100 46.5t66 81t26 121.5q0 69 -26.5 113t-98.5 70t-194 26q-142 0 -283 -19z" />
<glyph horiz-adv-x="1054" d="M186 481q0 119 21.5 227t68.5 204t115.5 166.5t168.5 111.5t222 41q88 0 167.5 -12.5t114.5 -24.5l36 -12l-29 -76l-9 3q-10 3 -33.5 9t-55 11.5t-83.5 9.5t-110 4q-100 0 -180.5 -33t-131 -81.5t-88 -118t-55.5 -129t-28.5 -128t-12 -101.5t-1.5 -63q0 -421 399 -421 q75 0 138.5 8.5t89.5 17.5l26 8l14 -84q-10 -4 -30 -10.5t-91 -17t-153 -10.5q-130 0 -227 39t-153 109t-83 158t-27 195z" />
<glyph horiz-adv-x="1214" d="M186 10l168 1190q176 31 342 31q263 0 384.5 -116.5t121.5 -356.5q0 -127 -19 -235t-68 -210.5t-126 -174t-202 -115t-287 -43.5q-74 0 -152.5 7.5t-119.5 14.5zM291 82q82 -14 207 -14q89 0 164.5 14t145.5 45t123.5 84.5t94 128t61.5 179.5t21 235q0 211 -98.5 300 t-319.5 89q-102 0 -252 -17z" />
<glyph horiz-adv-x="1077" d="M225 311q0 43 6 92l113 807h770l-12 -88h-676l-64 -446h592l-12 -86h-590l-26 -187q-7 -54 -7 -84q0 -136 82.5 -193.5t260.5 -57.5q83 0 157.5 9t108.5 18l33 9l-13 -90q-107 -34 -293 -34q-218 0 -324 82t-106 249z" />
<glyph horiz-adv-x="1036" d="M184 0l170 1210h760l-12 -88h-666l-63 -456h581l-12 -86h-582l-81 -580h-95z" />
<glyph horiz-adv-x="1153" d="M186 487q0 114 21 218t70 201.5t122.5 168.5t187 113.5t255.5 42.5q79 0 156.5 -13.5t115.5 -26.5l37 -13l-27 -76q-130 41 -284 41q-120 0 -216 -36t-159 -97t-105.5 -145.5t-60.5 -176t-18 -194.5q0 -65 10.5 -122t38.5 -114.5t72.5 -98t118 -66t169.5 -25.5 q124 0 228 22l73 528h94l-81 -589q-47 -17 -137 -33t-183 -16q-107 0 -192 26.5t-141.5 72.5t-94 111t-54 138.5t-16.5 158.5z" />
<glyph horiz-adv-x="1277" d="M184 0l170 1210h95l-78 -555h721l77 555h95l-170 -1210h-95l80 569h-721l-79 -569h-95z" />
<glyph horiz-adv-x="462" d="M184 0l170 1210h95l-170 -1210h-95z" />
<glyph horiz-adv-x="737" d="M98 35l35 80q7 -5 20.5 -13t57 -21t88.5 -13q30 0 54 4.5t53 20t50.5 41.5t40 73.5t27.5 111.5l125 891h94l-125 -891q-24 -168 -102 -253.5t-217 -85.5q-53 0 -103 14t-74 28z" />
<glyph horiz-adv-x="1058" d="M184 0l170 1210h95l-80 -573l661 573h129l-684 -596l301 -403q46 -61 87.5 -92t101.5 -31q17 0 34 2.5t25 5.5l8 2l-12 -84q-31 -14 -82 -14q-66 0 -120.5 35.5t-115.5 116.5l-337 456l-86 -608h-95z" />
<glyph horiz-adv-x="950" d="M221 293q0 58 8 108l115 809h94l-114 -815q-7 -61 -7 -92q0 -130 75.5 -182.5t248.5 -52.5q76 0 141.5 8.5t93.5 17.5l27 8l-12 -88q-88 -34 -264 -34q-214 0 -310 75.5t-96 237.5z" />
<glyph horiz-adv-x="1484" d="M133 0l273 1210h133l237 -958l510 958h133l-67 -1210h-90l53 983l14 141l-61 -135l-447 -839h-110l-207 835l-29 141l-24 -139l-224 -987h-94z" />
<glyph horiz-adv-x="1280" d="M184 0l170 1210h140l528 -1114l12 131l137 983h95l-170 -1210h-129l-537 1133l-10 -129l-141 -1004h-95z" />
<glyph horiz-adv-x="1228" d="M184 442q0 96 13 187t40.5 181.5t75.5 165t113 132.5t159 90.5t208 32.5q214 0 317.5 -126t103.5 -339q0 -166 -36.5 -307t-108 -249t-186 -169t-260.5 -61q-116 0 -202.5 34.5t-137 98t-75 145.5t-24.5 184zM276 465q0 -66 7.5 -118.5t30.5 -106.5t61.5 -90t104.5 -59 t155 -23q85 0 157 27.5t120.5 72.5t87 106t60.5 123t36 129.5t19 120t5 98.5q0 64 -7.5 116.5t-29.5 106.5t-58.5 91t-98.5 60.5t-144 23.5q-105 0 -190.5 -37.5t-143.5 -101.5t-97.5 -151t-57 -184t-17.5 -204z" />
<glyph horiz-adv-x="1122" d="M184 0l168 1200q176 31 344 31q236 0 342.5 -87.5t106.5 -240.5q0 -457 -563 -457q-117 0 -240 17l-63 -463h-95zM354 545q50 -10 211 -10q86 0 154 8.5t131.5 32.5t106 63t67.5 102.5t25 149.5q0 72 -25 122t-74.5 78t-112 40t-147.5 12q-121 0 -254 -17z" />
<glyph horiz-adv-x="1226" d="M184 442q0 96 13 187t40.5 181.5t75.5 165t113 132.5t159 90.5t208 32.5q214 0 317.5 -126t103.5 -339q0 -166 -36.5 -307t-108 -249t-186 -169t-260.5 -61q-116 0 -202.5 34.5t-137 98t-75 145.5t-24.5 184zM276 465q0 -66 7.5 -118.5t30.5 -106.5t61.5 -90t104.5 -59 t155 -23q85 0 157 27.5t120.5 72.5t87 106t60.5 123t36 129.5t19 120t5 98.5q0 64 -7.5 116.5t-29.5 106.5t-58.5 91t-98.5 60.5t-144 23.5q-105 0 -190.5 -37.5t-143.5 -101.5t-97.5 -151t-57 -184t-17.5 -204zM547 -223l12 86l483 -51l-14 -97z" />
<glyph horiz-adv-x="1185" d="M184 0l168 1200q160 31 355 31q233 0 336.5 -80.5t103.5 -232.5q0 -180 -98 -275t-287 -121l141 -313q28 -62 58 -91.5t75 -29.5q14 0 29.5 2.5t24.5 5.5l8 2l-13 -84q-28 -14 -71 -14q-123 0 -197 166l-153 348q-23 -2 -68 -2q-128 0 -244 16l-73 -528h-95zM365 612 q138 -12 227 -12q82 0 143.5 6t124.5 25.5t102.5 53t65 92t25.5 138.5q0 127 -85 177.5t-272 50.5q-124 0 -260 -19z" />
<glyph horiz-adv-x="1064" d="M178 47l29 82q14 -7 40 -17t111 -27t174 -17q178 0 267.5 71.5t89.5 198.5q0 49 -23.5 89t-68.5 69.5t-91.5 50t-111.5 41.5q-338 108 -338 321q0 75 25.5 133t66.5 93t99.5 57t118 30.5t128.5 8.5q84 0 170 -11.5t130 -23.5l44 -12l-28 -84l-14 4q-13 4 -41.5 10.5 t-65.5 13t-91.5 11t-111.5 4.5q-334 0 -334 -225q0 -42 17 -77t40 -57.5t67 -45t76 -35t89 -31.5q43 -15 72 -26t68.5 -29t65.5 -35t54.5 -42.5t45 -53.5t27.5 -65t11 -79q0 -125 -61 -208t-161 -118.5t-237 -35.5q-99 0 -186 17t-124.5 32t-37.5 18z" />
<glyph horiz-adv-x="1046" d="M229 1126l13 84h903l-12 -84h-404l-158 -1126h-94l158 1126h-406z" />
<glyph horiz-adv-x="1273" d="M227 340q0 21 9 100l108 770h94l-108 -770q-6 -53 -6 -92q0 -71 19.5 -123.5t49.5 -82t75 -47t85.5 -22.5t91.5 -5q56 0 104 7t103 31t95.5 63t73.5 108.5t46 162.5l109 770h94l-109 -770q-33 -240 -158 -350t-356 -110q-202 0 -311 88.5t-109 271.5z" />
<glyph horiz-adv-x="1144" d="M242 1210h94l211 -962l33 -178l79 178l482 962h102l-604 -1210h-131z" />
<glyph horiz-adv-x="1710" d="M242 1210h96l149 -968l15 -152l61 152l398 907h108l143 -909l19 -152l57 152l420 970h100l-522 -1210h-131l-143 903l-15 115l-45 -117l-395 -901h-131z" />
<glyph horiz-adv-x="1124" d="M72 0l520 608l-350 602h104l307 -528l451 528h119l-521 -610l351 -600h-107l-307 526l-449 -526h-118z" />
<glyph horiz-adv-x="1087" d="M231 1210h103l284 -645l467 645h111l-537 -735l-67 -475h-94l67 475z" />
<glyph horiz-adv-x="1075" d="M133 0l12 84l832 1042h-676l12 84h797l-10 -73l-842 -1053h696l-12 -84h-809z" />
<glyph horiz-adv-x="1214" d="M72 0l643 1210h123l305 -1210h-94l-95 369h-585l-195 -369h-102zM414 451h520l-168 665zM565 1532l72 67l237 -239l-51 -55z" />
<glyph horiz-adv-x="1214" d="M72 0l643 1210h123l305 -1210h-94l-95 369h-585l-195 -369h-102zM414 451h520l-168 665zM700 1360l306 239l53 -67l-322 -227z" />
<glyph horiz-adv-x="1214" d="M72 0l643 1210h123l305 -1210h-94l-95 369h-585l-195 -369h-102zM414 451h520l-168 665zM537 1360l294 239l230 -239l-57 -51l-187 176l-239 -176z" />
<glyph horiz-adv-x="1214" d="M72 0l643 1210h123l305 -1210h-94l-95 369h-585l-195 -369h-102zM414 451h520l-168 665zM520 1362q2 6 6 16t20 35t35.5 44.5t52.5 35.5t71 16q37 0 69.5 -15.5t52 -34.5t45 -34.5t50.5 -15.5q34 0 61.5 25t38.5 50l10 25l60 -32q-2 -6 -6 -16t-20 -35.5t-35 -45 t-52 -35.5t-70 -16q-36 0 -68 16t-52 34.5t-46 34.5t-51 16q-21 0 -40.5 -10.5t-31.5 -25t-21 -29.5t-13 -25l-4 -11z" />
<glyph horiz-adv-x="1214" d="M72 0l643 1210h123l305 -1210h-94l-95 369h-585l-195 -369h-102zM414 451h520l-168 665zM547 1432q0 36 21.5 58.5t58.5 22.5q29 0 45 -16t16 -43q0 -36 -23 -59t-59 -23q-28 0 -43.5 16.5t-15.5 43.5zM932 1432q0 36 21.5 58.5t58.5 22.5q29 0 45 -16t16 -43 q0 -36 -23 -59t-59 -23q-28 0 -43.5 16.5t-15.5 43.5z" />
<glyph horiz-adv-x="1214" d="M72 0l643 1210h123l305 -1210h-94l-95 369h-585l-195 -369h-102zM414 451h520l-168 665zM618 1462q0 94 63.5 150.5t158.5 56.5q76 0 122 -42.5t46 -115.5q0 -94 -63 -149t-157 -55q-76 0 -123 41.5t-47 113.5zM698 1470q0 -44 27 -69t72 -25q58 0 94.5 34.5t36.5 92.5 q0 44 -27 70t-72 26q-58 0 -94.5 -35.5t-36.5 -93.5z" />
<glyph horiz-adv-x="1691" d="M72 0l831 1210h826l-13 -84h-676l-63 -450h592l-10 -82h-592l-27 -191q-6 -47 -6 -84q0 -136 82 -193.5t258 -57.5q83 0 158 8.5t109 17.5l34 8l-12 -88q-107 -34 -293 -34q-218 0 -325 81.5t-107 249.5q0 33 2 51h-422l-248 -362h-98zM473 444h377l98 686z" />
<glyph horiz-adv-x="1054" d="M186 481q0 119 21.5 227t68.5 204t115.5 166.5t168.5 111.5t222 41q88 0 167.5 -12.5t114.5 -24.5l36 -12l-29 -76l-9 3q-10 3 -33.5 9t-55 11.5t-83.5 9.5t-110 4q-100 0 -180.5 -33t-131 -81.5t-88 -118t-55.5 -129t-28.5 -128t-12 -101.5t-1.5 -63q0 -421 399 -421 q75 0 138.5 8.5t89.5 17.5l26 8l14 -84q-10 -4 -30 -10.5t-91 -17t-153 -10.5h-33l-43 -109q30 6 66 6q71 0 117 -33t46 -102q0 -83 -58.5 -135.5t-178.5 -52.5q-53 0 -98 11t-64 21l-18 11l28 73q66 -41 154 -41q143 0 143 103q0 80 -119 80q-74 0 -137 -21l78 199 q-192 31 -282.5 162t-90.5 329z" />
<glyph horiz-adv-x="1214" d="M141 567l11 74h122l80 559q176 31 342 31q263 0 384.5 -116.5t121.5 -356.5q0 -127 -19 -235t-68 -210.5t-126 -174t-202 -115t-287 -43.5q-74 0 -152.5 7.5t-119.5 14.5l-42 8l78 557h-123zM291 82q82 -14 207 -14q89 0 164.5 14t145.5 45t123.5 84.5t94 128t61.5 179.5 t21 235q0 211 -98.5 300t-319.5 89q-108 0 -252 -17l-69 -485h401l-10 -74h-402z" />
<glyph horiz-adv-x="1077" d="M225 311q0 43 6 92l113 807h770l-12 -88h-676l-64 -446h592l-12 -86h-590l-26 -187q-7 -54 -7 -84q0 -136 82.5 -193.5t260.5 -57.5q83 0 157.5 9t108.5 18l33 9l-13 -90q-107 -34 -293 -34q-218 0 -324 82t-106 249zM557 1552l70 68l239 -240l-53 -55z" />
<glyph horiz-adv-x="1077" d="M225 311q0 43 6 92l113 807h770l-12 -88h-676l-64 -446h592l-12 -86h-590l-26 -187q-7 -54 -7 -84q0 -136 82.5 -193.5t260.5 -57.5q83 0 157.5 9t108.5 18l33 9l-13 -90q-107 -34 -293 -34q-218 0 -324 82t-106 249zM666 1380l305 240l53 -68l-322 -227z" />
<glyph horiz-adv-x="1077" d="M225 311q0 43 6 92l113 807h770l-12 -88h-676l-64 -446h592l-12 -86h-590l-26 -187q-7 -54 -7 -84q0 -136 82.5 -193.5t260.5 -57.5q83 0 157.5 9t108.5 18l33 9l-13 -90q-107 -34 -293 -34q-218 0 -324 82t-106 249zM500 1380l295 240l229 -240l-57 -51l-187 176 l-239 -176z" />
<glyph horiz-adv-x="1077" d="M225 311q0 43 6 92l113 807h770l-12 -88h-676l-64 -446h592l-12 -86h-590l-26 -187q-7 -54 -7 -84q0 -136 82.5 -193.5t260.5 -57.5q83 0 157.5 9t108.5 18l33 9l-13 -90q-107 -34 -293 -34q-218 0 -324 82t-106 249zM508 1452q0 36 21.5 59t58.5 23q29 0 45 -16t16 -43 q0 -36 -22 -59t-58 -23q-29 0 -45 16t-16 43zM893 1452q0 36 21.5 59t58.5 23q29 0 45 -16t16 -43q0 -36 -22 -59t-58 -23q-29 0 -45 16t-16 43z" />
<glyph horiz-adv-x="1163" d="M186 487q0 114 21 218t70 201.5t122.5 168.5t187 113.5t255.5 42.5q79 0 156.5 -13.5t115.5 -26.5l37 -13l-27 -76q-130 41 -284 41q-120 0 -216 -36t-159 -97t-105.5 -145.5t-60.5 -176t-18 -194.5q0 -65 10.5 -122t38.5 -114.5t72.5 -98t118 -66t169.5 -25.5 q124 0 228 22l73 528h94l-81 -589q-47 -17 -137 -33t-183 -16q-107 0 -192 26.5t-141.5 72.5t-94 111t-54 138.5t-16.5 158.5zM602 1548v11l72 28q0 -3 0.5 -9t3 -22t8 -31t17.5 -33t28.5 -31t43 -22t59.5 -9q46 0 83.5 16t58 39t35 46.5t19.5 39.5l4 16l64 -28 q-2 -9 -7 -23t-27 -50.5t-50 -64t-79.5 -50.5t-113.5 -23q-45 0 -81.5 11.5t-58.5 30t-38.5 41.5t-24 45.5t-11.5 41t-5 30.5z" />
<glyph horiz-adv-x="462" d="M184 0l170 1210h95l-170 -1210h-95zM197 1552l69 68l240 -240l-53 -55z" />
<glyph horiz-adv-x="462" d="M184 0l170 1210h95l-170 -1210h-95zM369 1380l305 240l53 -68l-321 -227z" />
<glyph horiz-adv-x="462" d="M160 1360l295 239l229 -239l-57 -51l-187 176l-239 -176zM184 0l170 1210h95l-170 -1210h-95z" />
<glyph horiz-adv-x="462" d="M174 1452q0 36 22 59t58 23q29 0 45 -16t16 -43q0 -36 -22 -59t-57 -23q-30 0 -46 16t-16 43zM184 0l170 1210h95l-170 -1210h-95zM559 1452q0 36 21.5 59t58.5 23q29 0 45 -16t16 -43q0 -36 -21.5 -59t-57.5 -23q-29 0 -45.5 16t-16.5 43z" />
<glyph horiz-adv-x="462" d="M184 0l170 1210h95l-170 -1210h-95zM356 1458q0 40 25.5 66t67.5 26q33 0 51 -18.5t18 -48.5q0 -41 -25.5 -67.5t-66.5 -26.5q-34 0 -52 18.5t-18 50.5z" />
<glyph horiz-adv-x="1280" d="M184 0l170 1210h140l528 -1114l12 131l137 983h95l-170 -1210h-129l-537 1133l-10 -129l-141 -1004h-95zM569 1382q2 6 6 16t19.5 35.5t34.5 45t52 35.5t71 16q37 0 69.5 -15.5t52 -34.5t45 -34.5t50.5 -15.5q34 0 61.5 25t37.5 50l11 25l62 -33q-2 -6 -6 -16t-20 -35 t-35 -44.5t-52 -35.5t-70 -16q-45 0 -83 25t-70.5 50t-63.5 25q-34 0 -61.5 -25t-37.5 -50l-11 -25z" />
<glyph horiz-adv-x="1228" d="M184 442q0 96 13 187t40.5 181.5t75.5 165t113 132.5t159 90.5t208 32.5q214 0 317.5 -126t103.5 -339q0 -166 -36.5 -307t-108 -249t-186 -169t-260.5 -61q-116 0 -202.5 34.5t-137 98t-75 145.5t-24.5 184zM276 465q0 -66 7.5 -118.5t30.5 -106.5t61.5 -90t104.5 -59 t155 -23q85 0 157 27.5t120.5 72.5t87 106t60.5 123t36 129.5t19 120t5 98.5q0 64 -7.5 116.5t-29.5 106.5t-58.5 91t-98.5 60.5t-144 23.5q-105 0 -190.5 -37.5t-143.5 -101.5t-97.5 -151t-57 -184t-17.5 -204zM569 1552l70 68l240 -240l-54 -55z" />
<glyph horiz-adv-x="1228" d="M184 442q0 96 13 187t40.5 181.5t75.5 165t113 132.5t159 90.5t208 32.5q214 0 317.5 -126t103.5 -339q0 -166 -36.5 -307t-108 -249t-186 -169t-260.5 -61q-116 0 -202.5 34.5t-137 98t-75 145.5t-24.5 184zM276 465q0 -66 7.5 -118.5t30.5 -106.5t61.5 -90t104.5 -59 t155 -23q85 0 157 27.5t120.5 72.5t87 106t60.5 123t36 129.5t19 120t5 98.5q0 64 -7.5 116.5t-29.5 106.5t-58.5 91t-98.5 60.5t-144 23.5q-105 0 -190.5 -37.5t-143.5 -101.5t-97.5 -151t-57 -184t-17.5 -204zM727 1380l305 240l53 -68l-321 -227z" />
<glyph horiz-adv-x="1228" d="M184 442q0 96 13 187t40.5 181.5t75.5 165t113 132.5t159 90.5t208 32.5q214 0 317.5 -126t103.5 -339q0 -166 -36.5 -307t-108 -249t-186 -169t-260.5 -61q-116 0 -202.5 34.5t-137 98t-75 145.5t-24.5 184zM276 465q0 -66 7.5 -118.5t30.5 -106.5t61.5 -90t104.5 -59 t155 -23q85 0 157 27.5t120.5 72.5t87 106t60.5 123t36 129.5t19 120t5 98.5q0 64 -7.5 116.5t-29.5 106.5t-58.5 91t-98.5 60.5t-144 23.5q-105 0 -190.5 -37.5t-143.5 -101.5t-97.5 -151t-57 -184t-17.5 -204zM547 1380l295 240l229 -240l-57 -51l-187 176l-239 -176z" />
<glyph horiz-adv-x="1228" d="M184 442q0 96 13 187t40.5 181.5t75.5 165t113 132.5t159 90.5t208 32.5q214 0 317.5 -126t103.5 -339q0 -166 -36.5 -307t-108 -249t-186 -169t-260.5 -61q-116 0 -202.5 34.5t-137 98t-75 145.5t-24.5 184zM276 465q0 -66 7.5 -118.5t30.5 -106.5t61.5 -90t104.5 -59 t155 -23q85 0 157 27.5t120.5 72.5t87 106t60.5 123t36 129.5t19 120t5 98.5q0 64 -7.5 116.5t-29.5 106.5t-58.5 91t-98.5 60.5t-144 23.5q-105 0 -190.5 -37.5t-143.5 -101.5t-97.5 -151t-57 -184t-17.5 -204zM530 1382q2 6 6 16t19.5 35.5t34.5 45t52 35.5t71 16 q37 0 69.5 -15.5t52 -34.5t45 -34.5t50.5 -15.5q34 0 61.5 25t38.5 50l10 25l62 -33q-2 -6 -6 -16t-19.5 -35t-34.5 -44.5t-52 -35.5t-70 -16q-36 0 -68 15.5t-52 34.5t-46.5 34.5t-51.5 15.5q-34 0 -61.5 -25t-38.5 -50l-10 -25z" />
<glyph horiz-adv-x="1228" d="M184 442q0 96 13 187t40.5 181.5t75.5 165t113 132.5t159 90.5t208 32.5q214 0 317.5 -126t103.5 -339q0 -166 -36.5 -307t-108 -249t-186 -169t-260.5 -61q-116 0 -202.5 34.5t-137 98t-75 145.5t-24.5 184zM276 465q0 -66 7.5 -118.5t30.5 -106.5t61.5 -90t104.5 -59 t155 -23q85 0 157 27.5t120.5 72.5t87 106t60.5 123t36 129.5t19 120t5 98.5q0 64 -7.5 116.5t-29.5 106.5t-58.5 91t-98.5 60.5t-144 23.5q-105 0 -190.5 -37.5t-143.5 -101.5t-97.5 -151t-57 -184t-17.5 -204zM557 1452q0 36 21.5 59t58.5 23q29 0 45 -16t16 -43 q0 -36 -22 -59t-58 -23q-29 0 -45 16t-16 43zM942 1452q0 36 21.5 59t58.5 23q29 0 45 -16t16 -43q0 -36 -21.5 -59t-57.5 -23q-29 0 -45.5 16t-16.5 43z" />
<glyph horiz-adv-x="1228" d="M184 442q0 96 13 187t40.5 181.5t75.5 165t113 132.5t159 90.5t208 32.5q72 0 151 -21l86 170l76 -28l-86 -174q194 -109 194 -412q0 -166 -36.5 -307t-108 -249t-186 -169t-260.5 -61q-102 0 -185 26l-84 -168l-75 29l86 174q-181 112 -181 401zM276 465 q0 -115 28.5 -202t103.5 -138l495 1001q-59 17 -121 17q-105 0 -190.5 -37.5t-143.5 -101.5t-97.5 -151t-57 -184t-17.5 -204zM479 90q68 -22 156 -22q85 0 157 27.5t120.5 72.5t87 106t60.5 123t36 129.5t19 120t5 98.5q0 261 -141 349z" />
<glyph horiz-adv-x="1064" d="M178 47l29 82q14 -7 40 -17t111 -27t174 -17q178 0 267.5 71.5t89.5 198.5q0 49 -23.5 89t-68.5 69.5t-91.5 50t-111.5 41.5q-338 108 -338 321q0 75 25.5 133t66.5 93t99.5 57t118 30.5t128.5 8.5q84 0 170 -11.5t130 -23.5l44 -12l-28 -84l-14 4q-13 4 -41.5 10.5 t-65.5 13t-91.5 11t-111.5 4.5q-334 0 -334 -225q0 -42 17 -77t40 -57.5t67 -45t76 -35t89 -31.5q43 -15 72 -26t68.5 -29t65.5 -35t54.5 -42.5t45 -53.5t27.5 -65t11 -79q0 -176 -114 -265t-308 -95l-43 -111q27 6 58 6q72 0 122 -33.5t50 -103.5q0 -81 -59 -133.5 t-179 -52.5q-53 0 -98 11t-64 21l-18 11l28 73q66 -41 154 -41q143 0 143 103q0 80 -118 80q-75 0 -138 -21l76 191q-86 4 -160.5 20t-106.5 29t-32 16z" />
<glyph horiz-adv-x="1112" d="M184 0l170 1210h95l-29 -202q176 18 276 18q422 0 422 -307q0 -436 -557 -436q-127 0 -242 10l-40 -293h-95zM332 379q92 -8 221 -8q60 0 107.5 3t98 11.5t88 23.5t72 39.5t56 59t34.5 83t13 109.5q0 119 -82 178.5t-252 59.5q-128 0 -280 -20z" />
<glyph horiz-adv-x="1273" d="M227 340q0 21 9 100l108 770h94l-108 -770q-6 -53 -6 -92q0 -71 19.5 -123.5t49.5 -82t75 -47t85.5 -22.5t91.5 -5q56 0 104 7t103 31t95.5 63t73.5 108.5t46 162.5l109 770h94l-109 -770q-33 -240 -158 -350t-356 -110q-202 0 -311 88.5t-109 271.5zM594 1552l70 68 l239 -240l-53 -55z" />
<glyph horiz-adv-x="1273" d="M227 340q0 21 9 100l108 770h94l-108 -770q-6 -53 -6 -92q0 -71 19.5 -123.5t49.5 -82t75 -47t85.5 -22.5t91.5 -5q56 0 104 7t103 31t95.5 63t73.5 108.5t46 162.5l109 770h94l-109 -770q-33 -240 -158 -350t-356 -110q-202 0 -311 88.5t-109 271.5zM758 1380l305 240 l53 -68l-321 -227z" />
<glyph horiz-adv-x="1273" d="M227 340q0 21 9 100l108 770h94l-108 -770q-6 -53 -6 -92q0 -71 19.5 -123.5t49.5 -82t75 -47t85.5 -22.5t91.5 -5q56 0 104 7t103 31t95.5 63t73.5 108.5t46 162.5l109 770h94l-109 -770q-33 -240 -158 -350t-356 -110q-202 0 -311 88.5t-109 271.5zM569 1380l295 240 l230 -240l-58 -51l-186 176l-240 -176z" />
<glyph horiz-adv-x="1273" d="M227 340q0 21 9 100l108 770h94l-108 -770q-6 -53 -6 -92q0 -71 19.5 -123.5t49.5 -82t75 -47t85.5 -22.5t91.5 -5q56 0 104 7t103 31t95.5 63t73.5 108.5t46 162.5l109 770h94l-109 -770q-33 -240 -158 -350t-356 -110q-202 0 -311 88.5t-109 271.5zM580 1452 q0 36 21 59t58 23q29 0 45.5 -16t16.5 -43q0 -36 -22 -59t-58 -23q-29 0 -45 16t-16 43zM965 1452q0 36 21 59t58 23q29 0 45.5 -16t16.5 -43q0 -36 -22 -59t-58 -23q-29 0 -45 16t-16 43z" />
<glyph horiz-adv-x="1087" d="M231 1210h103l284 -645l467 645h111l-537 -735l-67 -475h-94l67 475zM672 1380l305 240l53 -68l-321 -227z" />
<glyph horiz-adv-x="1087" d="M231 1210h103l284 -645l467 645h111l-537 -735l-67 -475h-94l67 475zM487 1452q0 36 21.5 59t58.5 23q29 0 45.5 -16t16.5 -43q0 -36 -22 -59t-58 -23q-29 0 -45.5 16t-16.5 43zM872 1452q0 36 21.5 59t58.5 23q29 0 45.5 -16t16.5 -43q0 -36 -22 -59t-58 -23 q-29 0 -45.5 16t-16.5 43z" />
<glyph horiz-adv-x="2080" d="M178 47l29 82q14 -7 40 -17t111 -27t174 -17q178 0 267.5 71.5t89.5 198.5q0 49 -23.5 89t-68.5 69.5t-91.5 50t-111.5 41.5q-338 108 -338 321q0 75 25.5 133t66.5 93t99.5 57t118 30.5t128.5 8.5q84 0 170 -11.5t130 -23.5l44 -12l-28 -84l-14 4q-13 4 -41.5 10.5 t-65.5 13t-91.5 11t-111.5 4.5q-334 0 -334 -225q0 -42 17 -77t40 -57.5t67 -45t76 -35t89 -31.5q43 -15 72 -26t68.5 -29t65.5 -35t54.5 -42.5t45 -53.5t27.5 -65t11 -79q0 -125 -61 -208t-161 -118.5t-237 -35.5q-99 0 -186 17t-124.5 32t-37.5 18zM1194 47l29 82 q14 -7 40 -17t111 -27t174 -17q178 0 267.5 71.5t89.5 198.5q0 49 -23.5 89t-68.5 69.5t-91.5 50t-111.5 41.5q-338 108 -338 321q0 75 25.5 133t66.5 93t99.5 57t118 30.5t128.5 8.5q84 0 170 -11.5t130 -23.5l44 -12l-29 -84l-13 4q-14 4 -42.5 10.5t-65 13t-91 11 t-111.5 4.5q-334 0 -334 -225q0 -42 17 -77t40 -57.5t67 -45t76 -35t89 -31.5q43 -15 72 -26t68.5 -29t65.5 -35t54.5 -42.5t45 -53.5t27.5 -65t11 -79q0 -125 -61 -208t-161 -118.5t-237 -35.5q-99 0 -186 17t-124.5 32t-37.5 18z" />
<glyph horiz-adv-x="630" d="M358 1532l72 67l238 -239l-52 -55z" />
<glyph horiz-adv-x="630" d="M344 1360l305 239l53 -67l-321 -227z" />
<glyph horiz-adv-x="811" d="M334 1360l295 239l229 -239l-57 -51l-187 176l-239 -176z" />
<glyph horiz-adv-x="841" d="M334 1362q2 6 6 16t20 35t35 44.5t52 35.5t71 16q37 0 69.5 -15.5t52 -34.5t45 -34.5t50.5 -15.5q34 0 61.5 25t38.5 50l11 25l59 -32q-2 -6 -6 -16t-19.5 -35.5t-34.5 -45t-52 -35.5t-70 -16q-36 0 -68 16t-52 34.5t-46 34.5t-51 16q-34 0 -61.5 -25t-38.5 -51l-11 -25z " />
<glyph horiz-adv-x="851" d="M367 1432q0 36 21 58.5t58 22.5q29 0 45.5 -16t16.5 -43q0 -36 -23 -59t-59 -23q-28 0 -43.5 16.5t-15.5 43.5zM752 1432q0 36 21 58.5t58 22.5q29 0 45.5 -16t16.5 -43q0 -36 -23 -59t-59 -23q-28 0 -43.5 16.5t-15.5 43.5z" />
<glyph horiz-adv-x="798" d="M336 1376l10 80h512l-10 -80h-512z" />
<glyph horiz-adv-x="671" d="M350 1462q0 94 63 150.5t158 56.5q76 0 122 -42.5t46 -115.5q0 -94 -62.5 -149t-156.5 -55q-76 0 -123 41.5t-47 113.5zM430 1470q0 -44 26.5 -69t71.5 -25q58 0 94.5 34.5t36.5 92.5q0 44 -27 70t-71 26q-58 0 -94.5 -35.5t-36.5 -93.5z" />
<glyph horiz-adv-x="471" d="M184 0l156 985h70l-123 -985h-103zM326 1147q0 37 22 60.5t60 23.5q30 0 46.5 -17t16.5 -45q0 -38 -22 -61t-62 -23q-29 0 -45 17t-16 45z" />
<glyph horiz-adv-x="944" d="M166 221q0 63 16.5 114t44.5 85.5t64.5 62.5t76.5 49.5t80.5 43t77 46.5t64.5 55.5t44.5 75.5t16.5 101q0 41 -2 53h90q2 -20 2 -63q0 -66 -16.5 -118.5t-44 -87.5t-63.5 -62.5t-76 -48t-79.5 -40t-75.5 -42t-63.5 -49.5t-44 -67.5t-16.5 -92.5q0 -79 60.5 -127 t187.5 -48q87 0 171.5 18.5t125.5 36.5l41 19l22 -76l-17 -8.5t-48.5 -19t-78.5 -24t-103 -19t-125 -8.5q-169 0 -250.5 66t-81.5 175zM653 1147q0 37 22 60.5t60 23.5q30 0 47 -17t17 -45q0 -37 -22.5 -60.5t-61.5 -23.5q-29 0 -45.5 17t-16.5 45z" />
<glyph horiz-adv-x="1093" d="M152 424l10 74h110q0 110 21 227h-98l10 74h104q112 411 553 411q71 0 142 -12t106 -24l35 -13l-37 -84q-117 45 -256 45q-336 0 -442 -323h583l-30 -74h-572q-24 -108 -24 -227h499l-30 -74h-469q3 -53 14 -98.5t36 -90.5t61.5 -76.5t95 -51t133.5 -19.5q62 0 129 11 t103 23l36 11l12 -84q-15 -5 -42 -13.5t-104.5 -22t-148.5 -13.5q-399 0 -420 424h-120z" />
<glyph horiz-adv-x="960" d="M203 535q0 104 24.5 189t74.5 152t132.5 107.5t192.5 50.5l28 197h86l-28 -195q71 -2 137 -15t96 -25l31 -13l-37 -80q-93 41 -240 45l-94 -672q67 1 130.5 13t93.5 23l30 12l12 -80q-13 -6 -37 -14.5t-97 -24t-144 -17.5l-29 -208h-86l29 210q-154 15 -229.5 105 t-75.5 240zM297 537q0 -110 51.5 -176t171.5 -80l94 663q-163 -17 -240 -118t-77 -289z" />
<glyph horiz-adv-x="1058" d="M133 0l12 88q135 103 185.5 183t50.5 165q0 33 -12 107h-201l10 73h176q-20 118 -20 195q0 84 23 157t71.5 133t133 95t196.5 35q77 0 144.5 -20t96.5 -40l29 -20l-55 -68q-9 7 -25.5 17t-74.5 26.5t-123 16.5q-166 0 -244 -87.5t-78 -236.5q0 -82 23 -203h440l-10 -73 h-418q10 -58 10 -103q0 -90 -46 -173.5t-165 -180.5h656l-13 -86h-772z" />
<glyph horiz-adv-x="976" d="M-111 -272l29 88q44 -27 139 -27q198 0 256 236l131 536h-268l21 82h266l78 313q19 77 50.5 136.5t67 95t79.5 58t83.5 30.5t83.5 8q93 0 156 -27l-29 -88q-44 27 -139 27q-103 0 -163.5 -51t-92.5 -184l-78 -318h318l-21 -82h-317l-129 -532q-24 -96 -65 -163.5 t-92.5 -101.5t-101.5 -48.5t-106 -14.5q-93 0 -156 27z" />
<glyph horiz-adv-x="1005" d="M178 217l10 74h310l26 192h-309l10 74h277l-271 653h101l254 -626l428 626h100l-452 -653h274l-10 -74h-308l-26 -192h307l-10 -74h-307l-31 -217h-94l30 217h-309z" />
<glyph horiz-adv-x="2148" d="M250 893q0 63 20 122t57.5 108t99 78.5t138.5 29.5q117 0 175.5 -71t58.5 -177q0 -63 -20 -122t-57.5 -108t-99.5 -78.5t-139 -29.5q-117 0 -175 71t-58 177zM332 899q0 -85 43 -133.5t119 -48.5q100 0 161.5 71.5t61.5 188.5q0 85 -43 133.5t-119 48.5 q-100 0 -161.5 -71.5t-61.5 -188.5zM410 16l790 1215l66 -37l-791 -1214zM879 227q0 63 20 122t57.5 108t99 78.5t138.5 29.5q117 0 175 -71t58 -177q0 -63 -20 -122t-57.5 -107.5t-99 -78t-138.5 -29.5q-117 0 -175 70.5t-58 176.5zM961 233q0 -85 42.5 -133.5t118.5 -48.5 q100 0 162 71.5t62 188.5q0 85 -43 134t-119 49q-100 0 -161.5 -72t-61.5 -189zM1518 227q0 63 20 122t57.5 108t99 78.5t138.5 29.5q117 0 175 -71t58 -177q0 -63 -20 -122t-57.5 -107.5t-99 -78t-138.5 -29.5q-117 0 -175 70.5t-58 176.5zM1599 233q0 -85 43 -133.5 t119 -48.5q100 0 162 71.5t62 188.5q0 85 -43 134t-119 49q-100 0 -162 -72t-62 -189z" />
<glyph horiz-adv-x="686" d="M86 -403l29 73q66 -41 153 -41q144 0 144 103q0 80 -119 80q-74 0 -137 -21l94 236h86l-62 -156q34 6 64 6q73 0 119.5 -33.5t46.5 -101.5q0 -83 -59 -135.5t-179 -52.5q-53 0 -98 11t-64 21z" />
<glyph horiz-adv-x="1785" d="M193 446q0 152 34 279t100.5 223.5t175 150.5t249.5 54q66 0 131 -10q-111 69 -111 200q0 120 91.5 198.5t236.5 78.5q57 0 116.5 -13t104 -31t80.5 -36.5t55 -31.5l19 -13l-52 -362h398l-13 -82h-397l-100 -715q-6 -47 -6 -70q0 -198 211 -198q44 0 85 8t61 16l19 8 l5 -86q-64 -34 -175 -34q-149 0 -225 66t-76 206q0 32 7 86l155 1110q-5 3 -14 8.5t-38 19.5t-59.5 24.5t-74.5 19t-86 8.5q-106 0 -171 -49.5t-65 -141.5q0 -41 18.5 -81t44.5 -67t52 -48.5t45 -32.5l18 -10l-30 -80q-12 5 -33.5 13t-90 21t-138.5 13q-91 0 -165 -29 t-121 -73t-82 -106.5t-52.5 -118.5t-28 -121t-12.5 -102t-2 -73q0 -179 93 -276.5t286 -97.5q56 0 110.5 7.5t80.5 14.5l26 8l14 -82q-86 -36 -238 -36q-466 0 -466 466z" />
<glyph horiz-adv-x="1634" d="M229 1051l13 82h166l43 305l96 22l-45 -327h674l43 305l96 22l-45 -327h399l-12 -82h-400l-98 -715q-6 -47 -6 -70q0 -198 209 -198q44 0 85.5 8t60.5 16l20 8l4 -86q-67 -34 -178 -34q-295 0 -295 272q0 40 6 86l98 713h-674l-98 -715q-6 -47 -6 -70q0 -198 209 -198 q44 0 85.5 8t60.5 16l20 8l4 -86q-67 -34 -178 -34q-295 0 -295 272q0 40 6 86l98 713h-166z" />
<glyph horiz-adv-x="1615" d="M233 1051l13 82h200l17 116q45 328 352 328q56 0 100.5 -9t59.5 -16l-31 -82q-57 19 -139 19q-110 0 -169 -52.5t-79 -183.5l-18 -120h620l43 305l96 22l-45 -327h398l-13 -82h-397l-98 -715q-6 -47 -6 -70q0 -198 209 -198q44 0 85 8t61 16l19 8l5 -86q-68 -34 -179 -34 q-295 0 -295 272q0 32 7 86l98 713h-619l-147 -1051h-94l147 1051h-201z" />
<glyph horiz-adv-x="2373" d="M233 1051l13 82h200l17 116q45 328 352 328q56 0 100.5 -9t59.5 -16l-31 -82q-57 19 -139 19q-110 0 -169 -52.5t-79 -183.5l-18 -120h665l17 116q45 328 352 328q56 0 100.5 -9t59.5 -16l-31 -82q-57 19 -139 19q-110 0 -169 -52.5t-79 -183.5l-19 -120h621l43 305 l96 22l-45 -327h397l-12 -82h-397l-98 -715q-7 -47 -7 -70q0 -198 209 -198q44 0 85.5 8t61.5 16l19 8l4 -86q-67 -34 -178 -34q-295 0 -295 272q0 40 6 86l99 713h-619l-147 -1051h-95l148 1051h-664l-147 -1051h-94l147 1051h-201z" />
<glyph horiz-adv-x="2222" d="M193 446q0 152 34 279t100.5 223.5t175 150.5t249.5 54q63 0 125 -10q-27 30 -43.5 75t-16.5 89q0 52 19 99t56 86t100.5 62t144.5 23q84 0 167 -24t124 -48l40 -24l-53 -379q160 51 330 51q214 0 317 -78t103 -256q0 -59 -8 -114l-99 -705h-94l98 711q9 63 9 90 q0 70 -20 120t-49.5 77.5t-77.5 43t-89.5 19.5t-99.5 4q-88 0 -170.5 -11.5t-120.5 -23.5l-39 -12l-143 -1018h-95l201 1434q-11 6 -30 14.5t-79.5 22.5t-121.5 14q-112 0 -169 -47t-57 -135q0 -63 34 -119t97 -86l-30 -80l-12 4q-11 4 -35 11.5t-54 14.5t-73.5 12t-87.5 5 q-91 0 -165 -29t-121 -73t-82 -106.5t-52.5 -118.5t-28 -121t-12.5 -102t-2 -73q0 -179 93 -276.5t286 -97.5q56 0 110.5 7.5t80.5 14.5l26 8l14 -82q-86 -36 -238 -36q-466 0 -466 466z" />
<glyph horiz-adv-x="2072" d="M193 446q0 152 34 279t100.5 223.5t175 150.5t249.5 54q63 0 125 -10q-27 30 -43.5 75t-16.5 89q0 52 19 99t56 86t100.5 62t144.5 23q84 0 167 -24t124 -48l40 -24l-122 -883l649 535h137l-670 -549l289 -373q32 -41 54 -63.5t58.5 -41t78.5 -18.5q17 0 35.5 2.5 t28.5 5.5l9 2l-12 -84q-35 -14 -82 -14q-128 0 -246 152l-332 432l-81 -584h-95l201 1434q-11 6 -30 14.5t-79.5 22.5t-121.5 14q-112 0 -169 -47t-57 -135q0 -68 36.5 -127.5t94.5 -77.5l-30 -80q-12 5 -33.5 13t-90 21t-138.5 13q-91 0 -165 -29t-121 -73t-82 -106.5 t-52.5 -118.5t-28 -121t-12.5 -102t-2 -73q0 -179 93 -276.5t286 -97.5q56 0 110.5 7.5t80.5 14.5l26 8l14 -82q-86 -36 -238 -36q-466 0 -466 466z" />
<glyph horiz-adv-x="1435" d="M193 446q0 152 34 279t100.5 223.5t175 150.5t249.5 54q63 0 125 -10q-27 30 -43.5 75t-16.5 89q0 52 19 99t56 86t100.5 62t144.5 23q84 0 167 -24t124 -48l40 -24l-206 -1481h-95l201 1434q-11 6 -30 14.5t-79.5 22.5t-121.5 14q-112 0 -169 -47t-57 -135 q0 -67 36 -125.5t95 -79.5l-30 -80q-12 5 -33.5 13t-90 21t-138.5 13q-91 0 -165 -29t-121 -73t-82 -106.5t-52.5 -118.5t-28 -121t-12.5 -102t-2 -73q0 -179 93 -276.5t286 -97.5q56 0 110.5 7.5t80.5 14.5l26 8l14 -82q-86 -36 -238 -36q-466 0 -466 466z" />
<glyph horiz-adv-x="2191" d="M145 37l25 86q17 -6 47.5 -15t116.5 -24.5t162 -15.5q164 0 247.5 63t83.5 172q0 25 -5.5 47.5t-12 39.5t-22 34t-26.5 28t-35 24t-37.5 20t-44 18.5t-44.5 16t-49 16.5q-60 20 -99.5 36t-85 43t-71.5 56.5t-44 73.5t-18 98q0 84 37.5 144.5t102.5 93t137 47t156 14.5 q86 0 153 -12q-29 28 -47 74t-18 92q0 117 91 193.5t249 76.5q90 0 176.5 -24t127.5 -48l42 -24l-54 -379q155 51 328 51q215 0 318.5 -77.5t103.5 -256.5q0 -59 -8 -114l-98 -705h-95l99 705q8 70 8 94q0 51 -10.5 91.5t-27 68t-43.5 47.5t-54 31t-64 17.5t-68 8.5t-71 2 q-88 0 -170.5 -11.5t-121.5 -23.5l-38 -12l-143 -1018h-94l202 1434q-11 6 -31.5 14.5t-85.5 22.5t-132 14q-117 0 -180.5 -47t-63.5 -142q0 -40 16.5 -76.5t40 -60.5t41 -37t27.5 -18l-27 -84q-13 5 -37 12.5t-97 20t-144 12.5q-60 0 -114 -9.5t-106.5 -31t-84 -65 t-31.5 -103.5q0 -28 7.5 -52t18 -41.5t32.5 -34.5t39 -28t49.5 -24.5t53.5 -21t60 -21.5q37 -13 57 -20t53.5 -20.5t52.5 -24t46 -27.5t42.5 -33t33.5 -38.5t27 -47t15.5 -55.5t6.5 -66q0 -163 -119 -242t-322 -79q-89 0 -173.5 14t-124.5 28z" />
<glyph horiz-adv-x="2041" d="M145 37l25 86q17 -6 47.5 -15t116.5 -24.5t162 -15.5q164 0 247.5 63t83.5 172q0 25 -5.5 47.5t-12 39.5t-22 34t-26.5 28t-35 24t-37.5 20t-44 18.5t-44.5 16t-49 16.5q-60 20 -99.5 36t-85 43t-71.5 56.5t-44 73.5t-18 98q0 84 37.5 144.5t102.5 93t137 47t156 14.5 q86 0 153 -12q-29 28 -47 74t-18 92q0 117 91 193.5t249 76.5q90 0 176.5 -24t127.5 -48l42 -24l-125 -883l649 535h137l-669 -549l288 -373q32 -41 54 -63.5t58.5 -41t78.5 -18.5q17 0 35.5 2.5t28.5 5.5l10 2l-13 -84q-35 -14 -82 -14q-127 0 -245 152l-332 430l-82 -582 h-94l202 1434q-11 6 -31.5 14.5t-85.5 22.5t-132 14q-117 0 -180.5 -47t-63.5 -142q0 -40 16.5 -76.5t40 -60.5t41 -37t27.5 -18l-27 -84q-13 5 -37 12.5t-97 20t-144 12.5q-60 0 -114 -9.5t-106.5 -31t-84 -65t-31.5 -103.5q0 -28 7.5 -52t18 -41.5t32.5 -34.5t39 -28 t49.5 -24.5t53.5 -21t60 -21.5q37 -13 57 -20t53.5 -20.5t52.5 -24t46 -27.5t42.5 -33t33.5 -38.5t27 -47t15.5 -55.5t6.5 -66q0 -163 -119 -242t-322 -79q-89 0 -173.5 14t-124.5 28z" />
<glyph horiz-adv-x="1404" d="M145 37l25 86q17 -6 47.5 -15t116.5 -24.5t162 -15.5q164 0 247.5 63t83.5 172q0 25 -5.5 47.5t-12 39.5t-22 34t-26.5 28t-35 24t-37.5 20t-44 18.5t-44.5 16t-49 16.5q-60 20 -99.5 36t-85 43t-71.5 56.5t-44 73.5t-18 98q0 84 37.5 144.5t102.5 93t137 47t156 14.5 q86 0 153 -12q-29 28 -47 74t-18 92q0 117 91 193.5t249 76.5q90 0 176.5 -24t127.5 -48l42 -24l-209 -1481h-94l202 1434q-11 6 -31.5 14.5t-85.5 22.5t-132 14q-117 0 -180.5 -47t-63.5 -142q0 -40 16.5 -76.5t40 -60.5t41 -37t27.5 -18l-27 -84q-13 5 -37 12.5t-97 20 t-144 12.5q-60 0 -114 -9.5t-106.5 -31t-84 -65t-31.5 -103.5q0 -28 7.5 -52t18 -41.5t32.5 -34.5t39 -28t49.5 -24.5t53.5 -21t60 -21.5q37 -13 57 -20t53.5 -20.5t52.5 -24t46 -27.5t42.5 -33t33.5 -38.5t27 -47t15.5 -55.5t6.5 -66q0 -163 -119 -242t-322 -79 q-89 0 -173.5 14t-124.5 28z" />
<glyph horiz-adv-x="1226" d="M233 1051l13 82h198l19 122q45 322 338 322q51 0 94.5 -9.5t61.5 -18.5l18 -9l-31 -78q-53 27 -143 27q-106 0 -166 -54.5t-78 -181.5l-18 -120h673l-174 -1239q-11 -78 -29.5 -134.5t-51.5 -105.5t-87.5 -74.5t-130.5 -25.5q-42 0 -82 8.5t-59 17.5l-20 8l28 80 q49 -28 131 -28q53 0 90.5 18t60.5 54.5t35.5 79t20.5 102.5l162 1157h-578l-147 -1051h-94l147 1051h-201zM1128 1411q0 39 24 63.5t65 24.5q32 0 48.5 -17.5t16.5 -47.5q0 -39 -24.5 -63.5t-63.5 -24.5q-32 0 -49 17.5t-17 47.5z" />
<glyph horiz-adv-x="1853" d="M233 1051l13 82h198l19 122q45 322 338 322q51 0 94.5 -9.5t61.5 -18.5l18 -9l-31 -78q-53 27 -143 27q-106 0 -166 -54.5t-78 -181.5l-18 -120h512l-99 -705q-6 -50 -6 -92q0 -59 13 -104.5t38.5 -74t54.5 -47t69.5 -27.5t75 -12t79.5 -3q96 0 180 12t120 24l36 11 l143 1018h94l-151 -1072q-13 -88 -34 -158.5t-62 -137.5t-99 -112t-146.5 -72t-201.5 -27q-86 0 -162.5 14t-110.5 28l-34 15l39 86q11 -6 32.5 -15t93.5 -24.5t150 -15.5q94 0 166.5 22t117 56t76.5 87t47 102.5t27 115.5q-149 -45 -329 -45q-211 0 -314.5 80t-103.5 259 q0 57 8 109l88 623h-418l-147 -1051h-94l147 1051h-201z" />
<glyph horiz-adv-x="2084" d="M145 37l25 86q17 -6 47.5 -15t116.5 -24.5t162 -15.5q164 0 247.5 63t83.5 172q0 25 -5.5 47.5t-12 39.5t-22 34t-26.5 28t-35 24t-37.5 20t-44 18.5t-44.5 16t-49 16.5q-60 20 -99.5 36t-85 43t-71.5 56.5t-44 73.5t-18 98q0 84 37.5 144.5t102.5 93t137 47t156 14.5 q86 0 153 -12q-29 28 -47 74t-18 92q0 117 91 193.5t249 76.5q90 0 176.5 -24t127.5 -48l42 -24l-60 -424q148 96 351 96q73 0 131 -16t95.5 -42.5t62 -64t34.5 -78t10 -86.5q0 -157 -96.5 -259t-306.5 -130l117 -248q33 -69 71 -105t101 -36q17 0 37.5 3t32.5 6l12 3 l-4 -80q-44 -20 -107 -20q-141 0 -219 166l-141 303h-54q-132 0 -209 16l-67 -485h-94l202 1434q-11 6 -31.5 14.5t-85.5 22.5t-132 14q-117 0 -180.5 -47t-63.5 -142q0 -40 16.5 -76.5t40 -60.5t41 -37t27.5 -18l-27 -84q-13 5 -37 12.5t-97 20t-144 12.5q-60 0 -114 -9.5 t-106.5 -31t-84 -65t-31.5 -103.5q0 -28 7.5 -52t18 -41.5t32.5 -34.5t39 -28t49.5 -24.5t53.5 -21t60 -21.5q37 -13 57 -20t53.5 -20.5t52.5 -24t46 -27.5t42.5 -33t33.5 -38.5t27 -47t15.5 -55.5t6.5 -66q0 -163 -119 -242t-322 -79q-89 0 -173.5 14t-124.5 28zM1311 573 q88 -16 223 -16q436 0 436 297q0 100 -66.5 155.5t-189.5 55.5q-180 0 -348 -107z" />
<glyph horiz-adv-x="2115" d="M193 446q0 152 34 279t100.5 223.5t175 150.5t249.5 54q63 0 125 -10q-27 30 -43.5 75t-16.5 89q0 52 19 99t56 86t100.5 62t144.5 23q84 0 167 -24t124 -48l40 -24l-59 -424q156 96 352 96q91 0 158 -23.5t104 -65t54.5 -91t17.5 -107.5q0 -157 -96.5 -259t-306.5 -130 l116 -248q33 -69 71 -105t101 -36q17 0 37.5 3t32.5 6l12 3l-4 -80q-43 -20 -106 -20q-141 0 -219 166l-142 303h-53q-137 0 -209 16l-67 -485h-95l201 1434q-11 6 -30 14.5t-79.5 22.5t-121.5 14q-112 0 -169 -47t-57 -135q0 -67 35.5 -124t95.5 -81l-30 -80 q-12 5 -33.5 13t-90 21t-138.5 13q-91 0 -165 -29t-121 -73t-82 -106.5t-52.5 -118.5t-28 -121t-12.5 -102t-2 -73q0 -179 93 -276.5t286 -97.5q56 0 110.5 7.5t80.5 14.5l26 8l14 -82q-86 -36 -238 -36q-466 0 -466 466zM1341 573q83 -16 224 -16q436 0 436 297 q0 100 -66.5 155.5t-189.5 55.5q-182 0 -350 -107z" />
<glyph horiz-adv-x="1712" d="M225 874q0 131 51 239.5t149.5 189.5t254 126.5t354.5 45.5q68 0 138.5 -5.5t107.5 -10.5l37 -5l323 -1454h-98l-108 485h-668l-244 -485h-98l698 1384q-14 0 -43.5 1t-46.5 1q-119 0 -223.5 -17.5t-196.5 -57.5t-157.5 -98.5t-103.5 -145.5t-38 -195q0 -83 21.5 -157 t43.5 -107l21 -33l-71 -47q-4 6 -11 16t-25 45t-31.5 72.5t-24.5 95.5t-11 117zM811 573h602l-184 830z" />
<glyph horiz-adv-x="1888" d="M225 827q0 140 65.5 256t195.5 204.5t342 138t487 49.5q296 0 427.5 -75t131.5 -253q0 -296 -313 -377q148 -31 211 -116t63 -224q0 -234 -160 -342t-475 -108q-102 0 -207 7.5t-159 14.5l-54 8l189 1352q-140 -20 -255 -60.5t-207 -104.5t-143 -158.5t-51 -211.5 q0 -63 17 -120t41.5 -93.5t49 -64t41.5 -39.5l17 -12l-57 -64q-8 5 -21.5 15.5t-47.5 47t-59.5 78t-47 110t-21.5 142.5zM885 90q129 -22 305 -22q132 0 229 17.5t171.5 58t112.5 112.5t38 176q0 156 -92.5 222.5t-296.5 66.5h-379zM985 809h318q236 0 355.5 84.5 t119.5 243.5q0 60 -18.5 104t-52 71.5t-88 44t-117.5 23t-148 6.5q-195 0 -289 -12z" />
<glyph horiz-adv-x="1273" d="M213 563q0 122 25 245.5t81.5 244.5t137 214t201.5 150.5t266 57.5q107 0 189 -28t129.5 -76t71 -105.5t23.5 -122.5q0 -140 -88 -250.5t-250 -153.5l-28 82q120 26 196 116t76 200q0 50 -16 92t-51 78.5t-100.5 57.5t-155.5 21q-92 0 -172 -26t-137.5 -69t-105 -102 t-78 -121t-54 -131t-35.5 -126.5t-19.5 -113t-9.5 -85t-2 -47.5q0 -82 11.5 -148.5t44.5 -133t86.5 -112t144 -73.5t211.5 -28q75 0 150 12t113 24l38 13l22 -86q-15 -6 -43.5 -15t-115 -23.5t-172.5 -14.5q-127 0 -226.5 29.5t-166 81.5t-110 126.5t-62.5 159.5t-19 186z " />
<glyph horiz-adv-x="1959" d="M225 827q0 140 65.5 256t195.5 204.5t342 138t487 49.5q115 0 208 -17t158.5 -45.5t115 -72.5t79.5 -92.5t48.5 -110t25 -120.5t6.5 -130q0 -88 -9 -170.5t-33 -175.5t-61.5 -171.5t-100 -152t-143 -125t-195.5 -82t-253 -30.5q-98 0 -216 11t-167 19l191 1352 q-140 -20 -255 -60.5t-207 -104.5t-143 -158.5t-51 -211.5q0 -63 17 -120t41.5 -93.5t49 -64t41.5 -39.5l17 -12l-57 -64q-8 5 -21.5 15.5t-47.5 47t-59.5 78t-47 110t-21.5 142.5zM883 86q133 -18 282 -18q65 0 127.5 8.5t133.5 33t131.5 62.5t118 102t98 147t64.5 202 t24 262q0 122 -26.5 211.5t-72 144.5t-115.5 88t-146 45t-175 12q-160 0 -262 -12z" />
<glyph horiz-adv-x="1800" d="M225 860q0 178 95.5 313.5t266 208t390.5 72.5h895l-12 -88h-801l-80 -559h715l-13 -88h-712l-45 -316q-6 -37 -6 -67q0 -141 98.5 -204.5t292.5 -63.5q99 0 192.5 8t137.5 16l44 8l-12 -86q-147 -34 -368 -34q-235 0 -357.5 86t-122.5 258q0 36 6 79l136 963 q-86 0 -171.5 -14.5t-174 -52t-155 -93t-109 -145t-42.5 -201.5q0 -71 17 -134.5t41 -103.5t48 -69.5t41 -42.5l17 -12l-57 -64q-8 6 -21 17t-46.5 50.5t-59.5 84.5t-47 119.5t-21 154.5z" />
<glyph horiz-adv-x="1751" d="M225 860q0 178 95.5 313.5t266 208t390.5 72.5h887l-13 -88h-792l-84 -586h711l-13 -88h-710l-97 -692h-94l193 1366q-86 0 -171.5 -14.5t-174 -52t-155 -93t-109 -145t-42.5 -201.5q0 -71 17 -134.5t41 -103.5t48 -69.5t41 -42.5l17 -12l-57 -64q-8 6 -21 17t-46.5 50.5 t-59.5 84.5t-47 119.5t-21 154.5z" />
<glyph horiz-adv-x="1325" d="M215 551q0 98 13.5 193.5t42 187.5t70.5 173t101.5 149t131.5 117t164.5 76.5t197.5 27.5q208 0 311 -83.5t103 -209.5q0 -50 -15 -98t-36 -80t-42 -57t-36 -37l-15 -11l-61 57q4 3 11.5 9.5t26 27.5t33 44.5t26 59t11.5 72.5q0 94 -77 155.5t-248 61.5q-110 0 -203 -37 t-155 -96.5t-110.5 -138.5t-76 -157t-45 -160t-23.5 -139t-6 -101q0 -72 10 -135.5t40 -130t77.5 -113.5t129 -77.5t188.5 -30.5q175 0 309 59l70 483h94l-99 -696q-26 -185 -122.5 -273.5t-264.5 -88.5q-53 0 -102 8t-71 16l-23 8l22 84q76 -28 174 -28q255 0 293 274 l17 125q-129 -59 -301 -59q-118 0 -211 31t-153 84t-99 127t-55.5 154.5t-16.5 172.5z" />
<glyph horiz-adv-x="2002" d="M225 860q0 178 95.5 313.5t266 208t390.5 72.5h94l-90 -655h856l90 655h94l-202 -1454h-95l99 711h-856l-99 -711h-94l191 1366q-86 0 -171.5 -14.5t-174 -52t-155 -93t-109 -145t-42.5 -201.5q0 -71 17 -134.5t41 -103.5t48 -69.5t41 -42.5l17 -12l-57 -64q-8 6 -21 17 t-46.5 50.5t-59.5 84.5t-47 119.5t-21 154.5z" />
<glyph horiz-adv-x="1062" d="M225 860q0 178 95.5 313.5t266 208t390.5 72.5h94l-203 -1454h-94l191 1366q-86 0 -171.5 -14.5t-174 -52t-155 -93t-109 -145t-42.5 -201.5q0 -71 17 -134.5t41 -103.5t48 -69.5t41 -42.5l17 -12l-57 -64q-8 6 -21 17t-46.5 50.5t-59.5 84.5t-47 119.5t-21 154.5z" />
<glyph horiz-adv-x="1081" d="M225 860q0 177 101 313.5t275.5 208.5t395.5 72h95l-220 -1560q-25 -178 -126.5 -259t-256.5 -81q-63 0 -123 13t-89 27l-29 13l28 80q10 -5 28 -12.5t73 -20t110 -12.5q255 0 291 252l207 1472q-87 0 -174 -14.5t-178.5 -52t-161 -93t-114 -145t-44.5 -201.5 q0 -71 17 -134.5t41 -103.5t48 -69.5t41 -42.5l17 -12l-57 -64q-8 6 -21 17t-46.5 50.5t-59.5 84.5t-47 119.5t-21 154.5z" />
<glyph horiz-adv-x="1810" d="M225 860q0 178 95.5 313.5t266 208t390.5 72.5h94l-104 -733l807 733h131l-828 -754l420 -493q100 -119 203 -119q16 0 32.5 2.5t25.5 5.5l9 2l-12 -84q-35 -14 -84 -14q-69 0 -129.5 39t-124.5 115l-454 540l-97 -694h-94l193 1366q-86 0 -171.5 -14.5t-174 -52 t-155 -93t-109 -145t-42.5 -201.5q0 -71 17 -134.5t41 -103.5t48 -69.5t41 -42.5l17 -12l-57 -64q-8 6 -21 17t-46.5 50.5t-59.5 84.5t-47 119.5t-21 154.5z" />
<glyph horiz-adv-x="1701" d="M225 860q0 178 95.5 313.5t266 208t390.5 72.5h94l-151 -1077q-5 -29 -5 -66q0 -135 95 -189t284 -54q92 0 174.5 10t119.5 20l36 11l-12 -95q-131 -34 -332 -34q-234 0 -347.5 74t-113.5 239q0 37 6 84l140 989q-86 0 -171.5 -14.5t-174 -52t-155 -93t-109 -145 t-42.5 -201.5q0 -71 17 -134.5t41 -103.5t48 -69.5t41 -42.5l17 -12l-57 -64q-8 6 -21 17t-46.5 50.5t-59.5 84.5t-47 119.5t-21 154.5z" />
<glyph horiz-adv-x="2248" d="M225 860q0 178 95.5 313.5t266 208t390.5 72.5h166l305 -1106l616 1106h140l-82 -1454h-94l71 1262l6 98l-49 -98l-565 -1010h-109l-278 1010l-27 98l-16 -98l-285 -1262h-96l307 1366h-22q-86 0 -171.5 -14.5t-174 -52t-155 -93t-109 -145t-42.5 -201.5q0 -71 17 -134.5 t41 -103.5t48 -69.5t41 -42.5l17 -12l-57 -64q-8 6 -21 17t-46.5 50.5t-59.5 84.5t-47 119.5t-21 154.5z" />
<glyph horiz-adv-x="2009" d="M225 860q0 178 95.5 313.5t266 208t390.5 72.5h143l629 -1356l10 107l176 1249h95l-205 -1454h-133l-639 1374l-11 -114l-176 -1260h-94l193 1366q-86 0 -171.5 -14.5t-174 -52t-155 -93t-109 -145t-42.5 -201.5q0 -71 17 -134.5t41 -103.5t48 -69.5t41 -42.5l17 -12 l-57 -64q-8 6 -21 17t-46.5 50.5t-59.5 84.5t-47 119.5t-21 154.5z" />
<glyph horiz-adv-x="1392" d="M209 530q0 73 5.5 145t21 158t39.5 162.5t64.5 154t93 138t128 109t166.5 71.5l16 -59q-103 -40 -182 -113.5t-127 -160t-78.5 -193.5t-41.5 -204.5t-11 -202.5q0 -78 9 -140t36.5 -125.5t73 -106t123.5 -69t184 -26.5q87 0 160.5 24t127 62.5t97 96t71.5 116t49 130.5 t31.5 132t17 128t8 110.5t1.5 88.5q0 216 -70.5 323t-203.5 107q-127 0 -193.5 -90.5t-66.5 -238.5q0 -103 38.5 -205.5t116.5 -171.5l-57 -55q-83 63 -135.5 191.5t-52.5 238.5q0 189 90.5 304.5t259.5 115.5q86 0 152.5 -33t106 -85t64.5 -123.5t34 -140.5t9 -145 q0 -95 -8 -184.5t-28.5 -188t-52.5 -182.5t-84.5 -161.5t-119.5 -132t-162 -87t-208 -32.5q-116 0 -205.5 29.5t-146.5 79.5t-93.5 121.5t-51.5 149.5t-15 170z" />
<glyph horiz-adv-x="1851" d="M225 827q0 139 66 255.5t195.5 205t337.5 138t476 49.5q170 0 287.5 -26t185 -79t96.5 -124t29 -169q0 -82 -19 -156t-64 -143.5t-113.5 -119.5t-174.5 -80.5t-239 -30.5q-88 0 -172.5 2.5t-125.5 4.5l-40 3l-78 -557h-94l191 1362q-139 -20 -254 -60.5t-207 -104.5 t-143.5 -158.5t-51.5 -211.5q0 -63 17 -120t41.5 -93.5t49 -64t41.5 -39.5l17 -12l-57 -64q-8 5 -21.5 15.5t-47.5 47t-59.5 78t-47 110t-21.5 142.5zM963 643q108 -8 340 -8q235 0 367 116.5t132 319.5q0 111 -46.5 178t-159.5 102t-306 35q-92 0 -225 -10z" />
<glyph horiz-adv-x="1392" d="M209 530q0 73 5.5 145t21 158t39.5 162.5t64.5 154t93 138t128 109t166.5 71.5l16 -59q-103 -40 -182 -113.5t-127 -160t-78.5 -193.5t-41.5 -204.5t-11 -202.5q0 -78 9 -140t36.5 -125.5t73 -106t123.5 -69t184 -26.5q87 0 160.5 24t127 62.5t97 96t71.5 116t49 130.5 t31.5 132t17 128t8 110.5t1.5 88.5q0 216 -70.5 323t-203.5 107q-128 0 -204.5 -98t-76.5 -244q0 -101 38.5 -197.5t117.5 -166.5l-57 -55q-84 63 -136.5 185.5t-52.5 231.5q0 187 100.5 310t270.5 123q86 0 152.5 -33t106 -85t64.5 -123.5t34 -140.5t9 -145 q0 -95 -8 -184.5t-28.5 -188t-52.5 -182.5t-84.5 -161.5t-119.5 -132t-162 -87t-208 -32.5q-116 0 -205.5 29.5t-146.5 79.5t-93.5 121.5t-51.5 149.5t-15 170zM606 -260l10 72l584 -50l-12 -81z" />
<glyph horiz-adv-x="1914" d="M225 827q0 140 65.5 256t195.5 204.5t342 138t487 49.5q294 0 441 -86.5t147 -274.5q0 -94 -22 -168.5t-71.5 -138t-139 -106t-216.5 -60.5l191 -424q30 -66 66.5 -97.5t94.5 -31.5q14 0 24.5 1.5t16.5 3t8 1.5l-10 -82q-26 -12 -65 -12q-83 0 -134 48.5t-90 137.5 l-200 445q-33 -2 -103 -2q-115 0 -290 10l-91 -639h-94l191 1362q-139 -20 -254 -60.5t-207 -104.5t-143.5 -158.5t-51.5 -211.5q0 -63 17 -120t41.5 -93.5t49 -64t41.5 -39.5l17 -12l-57 -64q-8 5 -21.5 15.5t-47.5 47t-59.5 78t-47 110t-21.5 142.5zM975 725 q116 -8 280 -8q292 0 421.5 91.5t129.5 293.5q0 67 -22 117t-60.5 82t-99 51t-129.5 26.5t-160 7.5q-137 0 -270 -10z" />
<glyph horiz-adv-x="1226" d="M180 362q0 80 23 150t46 100l23 31l72 -37q-8 -11 -20.5 -30.5t-33 -82t-20.5 -126.5q0 -152 101 -225.5t262 -73.5q117 0 213 35t157.5 111t61.5 181q0 60 -23.5 109.5t-47.5 78.5t-87 63.5t-89 45t-108 40.5q-8 3 -12 5q-52 19 -84.5 32t-76 34.5t-71 41t-57 48 t-45.5 59.5t-27 73t-11 91q0 85 31.5 151t80.5 104t117 62.5t131 33t133 8.5q69 0 133 -8t106 -19.5t73.5 -23t46.5 -19.5l14 -8l-35 -78q-4 3 -13 7.5t-40.5 16t-67.5 20.5t-96.5 16t-126.5 7q-397 0 -397 -268q0 -37 9 -68.5t21 -55t38 -45.5t47 -36.5t61.5 -33t68 -29 t78.5 -29.5q49 -18 76 -28.5t72.5 -29.5t72 -36t62 -42t56.5 -52t41 -61.5t29 -76t9 -89.5q0 -102 -43 -184.5t-116.5 -134.5t-167.5 -79.5t-199 -27.5q-95 0 -175.5 23t-143 68t-97.5 119.5t-35 171.5z" />
<glyph horiz-adv-x="1536" d="M225 860q0 271 198.5 432.5t530.5 161.5h713l-12 -88h-508l-191 -1366h-94l191 1366h-111q-86 0 -169.5 -15t-168 -52t-148 -92.5t-103.5 -145t-40 -201.5q0 -71 17 -134.5t41 -103.5t48 -69.5t41 -42.5l17 -12l-57 -64q-8 6 -21 17t-46.5 50.5t-59.5 84.5t-47 119.5 t-21 154.5z" />
<glyph horiz-adv-x="2011" d="M225 860q0 178 95.5 313.5t266 208t390.5 72.5h94l-127 -905q-10 -82 -10 -135q0 -90 23 -155.5t57.5 -101.5t88.5 -57t101.5 -26.5t110.5 -5.5q76 0 133.5 8.5t123 37.5t111 79.5t83.5 140.5t55 215l127 905h94l-127 -905q-21 -149 -63 -253t-113.5 -176t-177 -106 t-250.5 -34q-229 0 -350 100t-121 326q0 79 10 143l115 817q-86 0 -171.5 -14.5t-174 -52t-155 -93t-109 -145t-42.5 -201.5q0 -71 17 -134.5t41 -103.5t48 -69.5t41 -42.5l17 -12l-57 -64q-8 6 -21 17t-46.5 50.5t-59.5 84.5t-47 119.5t-21 154.5z" />
<glyph horiz-adv-x="1894" d="M225 860q0 272 184 433t500 161h25l299 -1405l694 1405h101l-719 -1454h-160l-291 1364q-80 -3 -154 -20.5t-146.5 -55.5t-125.5 -93.5t-86 -141.5t-33 -193q0 -71 17 -134.5t41 -103.5t48 -69.5t41 -42.5l17 -12l-57 -64q-8 6 -21 17t-46.5 50.5t-59.5 84.5t-47 119.5 t-21 154.5z" />
<glyph horiz-adv-x="2557" d="M225 860q0 272 184 433t500 161h27l182 -1280l15 -121l49 123l522 1217h102l179 -1219l16 -121l49 125l541 1276h100l-616 -1454h-160l-168 1133l-10 116l-43 -116l-486 -1133h-159l-195 1364q-79 -4 -152.5 -21.5t-145.5 -56t-125 -93.5t-85.5 -141t-32.5 -192 q0 -71 17 -134.5t41 -103.5t48 -69.5t41 -42.5l17 -12l-57 -64q-8 6 -21 17t-46.5 50.5t-59.5 84.5t-47 119.5t-21 154.5z" />
<glyph horiz-adv-x="1814" d="M225 870q0 126 45 233.5t126 185t200 121.5t262 44h43l379 -653l557 653h115l-627 -731l422 -723h-107l-376 649l-555 -649h-115l623 729l-369 637q-79 -3 -152.5 -20t-144.5 -55t-123 -93.5t-83.5 -139.5t-31.5 -188q0 -76 17 -142.5t41 -106.5t48 -69.5t41 -41.5 l17 -12l-57 -64q-8 5 -21 16t-46.5 50.5t-59.5 85.5t-47 122.5t-21 161.5z" />
<glyph horiz-adv-x="1802" d="M225 872q0 125 43 232t121 184.5t195.5 121.5t259.5 44h53l363 -747l571 747h111l-648 -844l-86 -610h-94l88 618l-364 748q-79 -3 -151.5 -20t-141.5 -55t-120 -93t-81.5 -138t-30.5 -186q0 -77 17 -144.5t41 -108t48 -70t41 -41.5l17 -12l-57 -64q-8 5 -21 16t-46.5 50 t-59.5 85t-47 123.5t-21 163.5z" />
<glyph horiz-adv-x="1265" d="M184 0l13 88l1022 1278h-486q-179 0 -277 -90.5t-98 -231.5q0 -63 19.5 -124t38.5 -91l20 -30l-74 -41q-4 5 -10 14t-22.5 38.5t-29 61t-22.5 79.5t-10 96q0 184 130 295.5t350 111.5h565l18 -88l-1022 -1278h862l-12 -88h-975z" />
<glyph horiz-adv-x="1712" d="M225 874q0 131 51 239.5t149.5 189.5t254 126.5t354.5 45.5q68 0 138.5 -5.5t107.5 -10.5l37 -5l323 -1454h-98l-108 485h-668l-244 -485h-98l698 1384q-14 0 -43.5 1t-46.5 1q-119 0 -223.5 -17.5t-196.5 -57.5t-157.5 -98.5t-103.5 -145.5t-38 -195q0 -83 21.5 -157 t43.5 -107l21 -33l-71 -47q-4 6 -11 16t-25 45t-31.5 72.5t-24.5 95.5t-11 117zM811 573h602l-184 830zM1036 1772l70 67l240 -240l-54 -55z" />
<glyph horiz-adv-x="1712" d="M225 874q0 131 51 239.5t149.5 189.5t254 126.5t354.5 45.5q68 0 138.5 -5.5t107.5 -10.5l37 -5l323 -1454h-98l-108 485h-668l-244 -485h-98l698 1384q-14 0 -43.5 1t-46.5 1q-119 0 -223.5 -17.5t-196.5 -57.5t-157.5 -98.5t-103.5 -145.5t-38 -195q0 -83 21.5 -157 t43.5 -107l21 -33l-71 -47q-4 6 -11 16t-25 45t-31.5 72.5t-24.5 95.5t-11 117zM811 573h602l-184 830zM1147 1618l305 240l53 -68l-321 -227z" />
<glyph horiz-adv-x="1712" d="M225 874q0 131 51 239.5t149.5 189.5t254 126.5t354.5 45.5q68 0 138.5 -5.5t107.5 -10.5l37 -5l323 -1454h-98l-108 485h-668l-244 -485h-98l698 1384q-14 0 -43.5 1t-46.5 1q-119 0 -223.5 -17.5t-196.5 -57.5t-157.5 -98.5t-103.5 -145.5t-38 -195q0 -83 21.5 -157 t43.5 -107l21 -33l-71 -47q-4 6 -11 16t-25 45t-31.5 72.5t-24.5 95.5t-11 117zM811 573h602l-184 830zM967 1595l295 240l229 -240l-57 -51l-187 176l-239 -176z" />
<glyph horiz-adv-x="1712" d="M225 874q0 131 51 239.5t149.5 189.5t254 126.5t354.5 45.5q68 0 138.5 -5.5t107.5 -10.5l37 -5l323 -1454h-98l-108 485h-668l-244 -485h-98l698 1384q-14 0 -43.5 1t-46.5 1q-119 0 -223.5 -17.5t-196.5 -57.5t-157.5 -98.5t-103.5 -145.5t-38 -195q0 -83 21.5 -157 t43.5 -107l21 -33l-71 -47q-4 6 -11 16t-25 45t-31.5 72.5t-24.5 95.5t-11 117zM811 573h602l-184 830zM952 1649q2 6 6 16t19.5 35t34.5 44.5t52 35.5t71 16q37 0 69.5 -15.5t52 -34.5t45 -34.5t50.5 -15.5q34 0 61.5 25t38.5 50l10 25l62 -33q-2 -6 -6 -16t-20 -35 t-35 -44.5t-52 -35.5t-70 -16q-45 0 -83 25t-70.5 50t-63.5 25q-34 0 -61.5 -25t-38.5 -50l-10 -25z" />
<glyph horiz-adv-x="1712" d="M225 874q0 131 51 239.5t149.5 189.5t254 126.5t354.5 45.5q68 0 138.5 -5.5t107.5 -10.5l37 -5l323 -1454h-98l-108 485h-668l-244 -485h-98l698 1384q-14 0 -43.5 1t-46.5 1q-119 0 -223.5 -17.5t-196.5 -57.5t-157.5 -98.5t-103.5 -145.5t-38 -195q0 -83 21.5 -157 t43.5 -107l21 -33l-71 -47q-4 6 -11 16t-25 45t-31.5 72.5t-24.5 95.5t-11 117zM811 573h602l-184 830zM1001 1692q0 36 22 59t60 23q29 0 44.5 -16.5t15.5 -43.5q0 -36 -22 -59t-58 -23q-29 0 -45.5 16.5t-16.5 43.5zM1386 1692q0 36 22 59t60 23q29 0 44.5 -16.5 t15.5 -43.5q0 -36 -22 -59t-58 -23q-29 0 -45.5 16.5t-16.5 43.5z" />
<glyph horiz-adv-x="1712" d="M225 874q0 131 51 239.5t149.5 189.5t254 126.5t354.5 45.5q68 0 138.5 -5.5t107.5 -10.5l37 -5l323 -1454h-98l-108 485h-668l-244 -485h-98l698 1384q-14 0 -43.5 1t-46.5 1q-119 0 -223.5 -17.5t-196.5 -57.5t-157.5 -98.5t-103.5 -145.5t-38 -195q0 -83 21.5 -157 t43.5 -107l21 -33l-71 -47q-4 6 -11 16t-25 45t-31.5 72.5t-24.5 95.5t-11 117zM811 573h602l-184 830zM1059 1731q0 94 63 150t158 56q76 0 123 -42.5t47 -114.5q0 -94 -63 -149.5t-158 -55.5q-76 0 -123 42t-47 114zM1141 1739q0 -44 26 -69t72 -25q58 0 93.5 34.5 t35.5 92.5q0 44 -26 70t-72 26q-57 0 -93 -35.5t-36 -93.5z" />
<glyph horiz-adv-x="2140" d="M225 874q0 131 51 239.5t149.5 189.5t254 126.5t354.5 45.5q68 0 138.5 -5.5t107.5 -10.5l37 -5h895l-12 -88h-801l-80 -559h715l-13 -88h-712l-45 -316q-7 -44 -7 -67q0 -141 99 -204.5t293 -63.5q99 0 192.5 8t137.5 16l44 8l-12 -86q-156 -34 -377 -34 q-471 0 -471 342q0 38 6 81l11 82h-498l-336 -485h-100l956 1378q-56 8 -170 8q-119 0 -223.5 -17.5t-196.5 -57.5t-157.5 -98.5t-103.5 -145.5t-38 -195q0 -83 21.5 -157t43.5 -107l21 -33l-71 -47q-4 6 -11 16t-25 45t-31.5 72.5t-24.5 95.5t-11 117zM743 573h449l115 809 z" />
<glyph horiz-adv-x="1273" d="M213 563q0 122 25 245.5t81.5 244.5t137 214t201.5 150.5t266 57.5q107 0 189 -28t129.5 -76t71 -105.5t23.5 -122.5q0 -140 -88 -250.5t-250 -153.5l-28 82q120 26 196 116t76 200q0 50 -16 92t-51 78.5t-100.5 57.5t-155.5 21q-92 0 -172 -26t-137.5 -69t-105 -102 t-78 -121t-54 -131t-35.5 -126.5t-19.5 -113t-9.5 -85t-2 -47.5q0 -82 11.5 -148.5t44.5 -133t86.5 -112t144 -73.5t211.5 -28q75 0 150 12t113 24l38 13l22 -86q-15 -6 -43.5 -15t-115 -23.5t-172.5 -14.5h-37l-43 -109q27 6 57 6q72 0 122 -33.5t50 -103.5 q0 -82 -58.5 -134t-178.5 -52q-53 0 -98 11t-64 21l-19 11l29 73q66 -41 154 -41q143 0 143 103q0 80 -119 80q-74 0 -137 -21l78 197q-124 16 -215 66t-144.5 128.5t-78.5 172.5t-25 208z" />
<glyph horiz-adv-x="1325" d="M215 551q0 98 13.5 193.5t42 187.5t70.5 173t101.5 149t131.5 117t164.5 76.5t197.5 27.5q208 0 311 -83.5t103 -209.5q0 -50 -15 -98t-36 -80t-42 -57t-36 -37l-15 -11l-61 57q4 3 11.5 9.5t26 27.5t33 44.5t26 59t11.5 72.5q0 94 -77 155.5t-248 61.5q-110 0 -203 -37 t-155 -96.5t-110.5 -138.5t-76 -157t-45 -160t-23.5 -139t-6 -101q0 -72 10 -135.5t40 -130t77.5 -113.5t129 -77.5t188.5 -30.5q175 0 309 59l70 483h94l-99 -696q-26 -185 -122.5 -273.5t-264.5 -88.5q-53 0 -102 8t-71 16l-23 8l22 84q76 -28 174 -28q255 0 293 274 l17 125q-129 -59 -301 -59q-118 0 -211 31t-153 84t-99 127t-55.5 154.5t-16.5 172.5zM729 1802l72 29q0 -6 0.5 -17t9 -38t23 -48t48 -38t79.5 -17t83.5 16.5t58 39.5t35 46t18.5 39l5 17l64 -29q-2 -9 -7 -23t-27 -50.5t-50 -64t-79.5 -50.5t-113.5 -23q-45 0 -81.5 11.5 t-58.5 30t-38.5 41t-24 45.5t-11.5 41.5t-4 29.5z" />
<glyph horiz-adv-x="1961" d="M225 827q0 140 65.5 256t195.5 204.5t342 138t487 49.5q115 0 208 -17t158.5 -45.5t115 -72.5t79.5 -92.5t48.5 -110t25 -120.5t6.5 -130q0 -88 -9 -170.5t-33 -175.5t-61.5 -171.5t-100 -152t-143 -125t-195.5 -82t-253 -30.5q-98 0 -216 11t-167 19l96 692h-83l10 80 h86l82 580q-140 -20 -255 -60.5t-207 -104.5t-143 -158.5t-51 -211.5q0 -63 17 -120t41.5 -93.5t49 -64t41.5 -39.5l17 -12l-57 -64q-8 5 -21.5 15.5t-47.5 47t-59.5 78t-47 110t-21.5 142.5zM883 86q133 -18 282 -18q65 0 127.5 8.5t133.5 33t131.5 62.5t118 102t98 147 t64.5 202t24 262q0 122 -26.5 211.5t-72 144.5t-115.5 88t-146 45t-175 12q-160 0 -262 -12l-84 -592h418l-10 -80h-420z" />
<glyph horiz-adv-x="1800" d="M225 860q0 178 95.5 313.5t266 208t390.5 72.5h895l-12 -88h-801l-80 -559h715l-13 -88h-712l-45 -316q-6 -37 -6 -67q0 -141 98.5 -204.5t292.5 -63.5q99 0 192.5 8t137.5 16l44 8l-12 -86q-147 -34 -368 -34q-235 0 -357.5 86t-122.5 258q0 36 6 79l136 963 q-86 0 -171.5 -14.5t-174 -52t-155 -93t-109 -145t-42.5 -201.5q0 -71 17 -134.5t41 -103.5t48 -69.5t41 -42.5l17 -12l-57 -64q-8 6 -21 17t-46.5 50.5t-59.5 84.5t-47 119.5t-21 154.5zM1219 1772l69 67l240 -240l-53 -55z" />
<glyph horiz-adv-x="1800" d="M225 860q0 178 95.5 313.5t266 208t390.5 72.5h895l-12 -88h-801l-80 -559h715l-13 -88h-712l-45 -316q-6 -37 -6 -67q0 -141 98.5 -204.5t292.5 -63.5q99 0 192.5 8t137.5 16l44 8l-12 -86q-147 -34 -368 -34q-235 0 -357.5 86t-122.5 258q0 36 6 79l136 963 q-86 0 -171.5 -14.5t-174 -52t-155 -93t-109 -145t-42.5 -201.5q0 -71 17 -134.5t41 -103.5t48 -69.5t41 -42.5l17 -12l-57 -64q-8 6 -21 17t-46.5 50.5t-59.5 84.5t-47 119.5t-21 154.5zM1378 1599l305 240l54 -67l-322 -228z" />
<glyph horiz-adv-x="1800" d="M225 860q0 178 95.5 313.5t266 208t390.5 72.5h895l-12 -88h-801l-80 -559h715l-13 -88h-712l-45 -316q-6 -37 -6 -67q0 -141 98.5 -204.5t292.5 -63.5q99 0 192.5 8t137.5 16l44 8l-12 -86q-147 -34 -368 -34q-235 0 -357.5 86t-122.5 258q0 36 6 79l136 963 q-86 0 -171.5 -14.5t-174 -52t-155 -93t-109 -145t-42.5 -201.5q0 -71 17 -134.5t41 -103.5t48 -69.5t41 -42.5l17 -12l-57 -64q-8 6 -21 17t-46.5 50.5t-59.5 84.5t-47 119.5t-21 154.5zM1184 1595l295 240l229 -240l-57 -51l-187 176l-239 -176z" />
<glyph horiz-adv-x="1800" d="M225 860q0 178 95.5 313.5t266 208t390.5 72.5h895l-12 -88h-801l-80 -559h715l-13 -88h-712l-45 -316q-6 -37 -6 -67q0 -141 98.5 -204.5t292.5 -63.5q99 0 192.5 8t137.5 16l44 8l-12 -86q-147 -34 -368 -34q-235 0 -357.5 86t-122.5 258q0 36 6 79l136 963 q-86 0 -171.5 -14.5t-174 -52t-155 -93t-109 -145t-42.5 -201.5q0 -71 17 -134.5t41 -103.5t48 -69.5t41 -42.5l17 -12l-57 -64q-8 6 -21 17t-46.5 50.5t-59.5 84.5t-47 119.5t-21 154.5zM1198 1692q0 36 22 59t60 23q28 0 43.5 -16.5t15.5 -43.5q0 -36 -21.5 -59t-57.5 -23 q-29 0 -45.5 16.5t-16.5 43.5zM1583 1692q0 36 22 59t60 23q28 0 43.5 -16.5t15.5 -43.5q0 -36 -21.5 -59t-57.5 -23q-29 0 -45.5 16.5t-16.5 43.5z" />
<glyph horiz-adv-x="1062" d="M225 860q0 178 95.5 313.5t266 208t390.5 72.5h94l-203 -1454h-94l191 1366q-86 0 -171.5 -14.5t-174 -52t-155 -93t-109 -145t-42.5 -201.5q0 -71 17 -134.5t41 -103.5t48 -69.5t41 -42.5l17 -12l-57 -64q-8 6 -21 17t-46.5 50.5t-59.5 84.5t-47 119.5t-21 154.5z M770 1772l70 67l239 -240l-53 -55z" />
<glyph horiz-adv-x="1062" d="M225 860q0 178 95.5 313.5t266 208t390.5 72.5h94l-203 -1454h-94l191 1366q-86 0 -171.5 -14.5t-174 -52t-155 -93t-109 -145t-42.5 -201.5q0 -71 17 -134.5t41 -103.5t48 -69.5t41 -42.5l17 -12l-57 -64q-8 6 -21 17t-46.5 50.5t-59.5 84.5t-47 119.5t-21 154.5z M946 1599l305 240l54 -67l-322 -228z" />
<glyph horiz-adv-x="1062" d="M225 860q0 178 95.5 313.5t266 208t390.5 72.5h94l-203 -1454h-94l191 1366q-86 0 -171.5 -14.5t-174 -52t-155 -93t-109 -145t-42.5 -201.5q0 -71 17 -134.5t41 -103.5t48 -69.5t41 -42.5l17 -12l-57 -64q-8 6 -21 17t-46.5 50.5t-59.5 84.5t-47 119.5t-21 154.5z M717 1595l295 240l229 -240l-57 -51l-187 176l-239 -176z" />
<glyph horiz-adv-x="1062" d="M225 860q0 178 95.5 313.5t266 208t390.5 72.5h94l-203 -1454h-94l191 1366q-86 0 -171.5 -14.5t-174 -52t-155 -93t-109 -145t-42.5 -201.5q0 -71 17 -134.5t41 -103.5t48 -69.5t41 -42.5l17 -12l-57 -64q-8 6 -21 17t-46.5 50.5t-59.5 84.5t-47 119.5t-21 154.5z M733 1692q0 36 22 59t60 23q28 0 43.5 -16.5t15.5 -43.5q0 -36 -21.5 -59t-57.5 -23q-29 0 -45.5 16.5t-16.5 43.5zM1118 1692q0 36 22 59t60 23q29 0 44.5 -16.5t15.5 -43.5q0 -36 -22 -59t-58 -23q-29 0 -45.5 16.5t-16.5 43.5z" />
<glyph horiz-adv-x="1062" d="M225 860q0 178 95.5 313.5t266 208t390.5 72.5h94l-203 -1454h-94l191 1366q-86 0 -171.5 -14.5t-174 -52t-155 -93t-109 -145t-42.5 -201.5q0 -71 17 -134.5t41 -103.5t48 -69.5t41 -42.5l17 -12l-57 -64q-8 6 -21 17t-46.5 50.5t-59.5 84.5t-47 119.5t-21 154.5z M983 1737q0 40 26 66t68 26q33 0 51.5 -19t18.5 -49q0 -41 -26.5 -67.5t-67.5 -26.5q-33 0 -51.5 18.5t-18.5 51.5z" />
<glyph horiz-adv-x="2009" d="M225 860q0 178 95.5 313.5t266 208t390.5 72.5h143l629 -1356l10 107l176 1249h95l-205 -1454h-133l-639 1374l-11 -114l-176 -1260h-94l193 1366q-86 0 -171.5 -14.5t-174 -52t-155 -93t-109 -145t-42.5 -201.5q0 -71 17 -134.5t41 -103.5t48 -69.5t41 -42.5l17 -12 l-57 -64q-8 6 -21 17t-46.5 50.5t-59.5 84.5t-47 119.5t-21 154.5zM1264 1649q2 6 6 16t19.5 35t34 44.5t51.5 35.5t71 16q37 0 69.5 -15.5t52 -34.5t45 -34.5t50.5 -15.5q34 0 61.5 25t38.5 50l11 25l61 -33q-2 -6 -6 -16t-19.5 -35t-34.5 -44.5t-52 -35.5t-70 -16 q-45 0 -83 25t-70.5 50t-63.5 25q-34 0 -61.5 -25t-38.5 -50l-11 -25z" />
<glyph horiz-adv-x="1388" d="M209 530q0 73 5.5 145t21 158t39.5 162.5t64.5 154t93 138t128 109t166.5 71.5l16 -59q-103 -40 -182 -113.5t-127 -160t-78.5 -193.5t-41.5 -204.5t-11 -202.5q0 -78 9 -140t36.5 -125.5t73 -106t123.5 -69t184 -26.5q87 0 160.5 24t127 62.5t97 96t71.5 116t49 130.5 t31.5 132t17 128t8 110.5t1.5 88.5q0 216 -70.5 323t-203.5 107q-127 0 -193.5 -90.5t-66.5 -238.5q0 -103 38.5 -205.5t116.5 -171.5l-57 -55q-83 63 -135.5 191.5t-52.5 238.5q0 189 90.5 304.5t259.5 115.5q86 0 152.5 -33t106 -85t64.5 -123.5t34 -140.5t9 -145 q0 -95 -8 -184.5t-28.5 -188t-52.5 -182.5t-84.5 -161.5t-119.5 -132t-162 -87t-208 -32.5q-116 0 -205.5 29.5t-146.5 79.5t-93.5 121.5t-51.5 149.5t-15 170zM674 1772l69 67l240 -240l-53 -55z" />
<glyph horiz-adv-x="1388" d="M209 530q0 73 5.5 145t21 158t39.5 162.5t64.5 154t93 138t128 109t166.5 71.5l16 -59q-103 -40 -182 -113.5t-127 -160t-78.5 -193.5t-41.5 -204.5t-11 -202.5q0 -78 9 -140t36.5 -125.5t73 -106t123.5 -69t184 -26.5q87 0 160.5 24t127 62.5t97 96t71.5 116t49 130.5 t31.5 132t17 128t8 110.5t1.5 88.5q0 216 -70.5 323t-203.5 107q-127 0 -193.5 -90.5t-66.5 -238.5q0 -103 38.5 -205.5t116.5 -171.5l-57 -55q-83 63 -135.5 191.5t-52.5 238.5q0 189 90.5 304.5t259.5 115.5q86 0 152.5 -33t106 -85t64.5 -123.5t34 -140.5t9 -145 q0 -95 -8 -184.5t-28.5 -188t-52.5 -182.5t-84.5 -161.5t-119.5 -132t-162 -87t-208 -32.5q-116 0 -205.5 29.5t-146.5 79.5t-93.5 121.5t-51.5 149.5t-15 170zM858 1620l305 240l54 -68l-322 -227z" />
<glyph horiz-adv-x="1388" d="M209 530q0 73 5.5 145t21 158t39.5 162.5t64.5 154t93 138t128 109t166.5 71.5l16 -59q-103 -40 -182 -113.5t-127 -160t-78.5 -193.5t-41.5 -204.5t-11 -202.5q0 -78 9 -140t36.5 -125.5t73 -106t123.5 -69t184 -26.5q87 0 160.5 24t127 62.5t97 96t71.5 116t49 130.5 t31.5 132t17 128t8 110.5t1.5 88.5q0 216 -70.5 323t-203.5 107q-127 0 -193.5 -90.5t-66.5 -238.5q0 -103 38.5 -205.5t116.5 -171.5l-57 -55q-83 63 -135.5 191.5t-52.5 238.5q0 189 90.5 304.5t259.5 115.5q86 0 152.5 -33t106 -85t64.5 -123.5t34 -140.5t9 -145 q0 -95 -8 -184.5t-28.5 -188t-52.5 -182.5t-84.5 -161.5t-119.5 -132t-162 -87t-208 -32.5q-116 0 -205.5 29.5t-146.5 79.5t-93.5 121.5t-51.5 149.5t-15 170zM659 1616l295 239l230 -239l-58 -51l-186 176l-240 -176z" />
<glyph horiz-adv-x="1388" d="M209 530q0 73 5.5 145t21 158t39.5 162.5t64.5 154t93 138t128 109t166.5 71.5l16 -59q-103 -40 -182 -113.5t-127 -160t-78.5 -193.5t-41.5 -204.5t-11 -202.5q0 -78 9 -140t36.5 -125.5t73 -106t123.5 -69t184 -26.5q87 0 160.5 24t127 62.5t97 96t71.5 116t49 130.5 t31.5 132t17 128t8 110.5t1.5 88.5q0 216 -70.5 323t-203.5 107q-127 0 -193.5 -90.5t-66.5 -238.5q0 -103 38.5 -205.5t116.5 -171.5l-57 -55q-83 63 -135.5 191.5t-52.5 238.5q0 189 90.5 304.5t259.5 115.5q86 0 152.5 -33t106 -85t64.5 -123.5t34 -140.5t9 -145 q0 -95 -8 -184.5t-28.5 -188t-52.5 -182.5t-84.5 -161.5t-119.5 -132t-162 -87t-208 -32.5q-116 0 -205.5 29.5t-146.5 79.5t-93.5 121.5t-51.5 149.5t-15 170zM643 1649q2 6 6 16t19.5 35t34 44.5t51.5 35.5t71 16q37 0 69.5 -15.5t52 -34.5t45 -34.5t50.5 -15.5 q34 0 61.5 25t38.5 50l11 25l61 -33q-2 -6 -6 -16t-19.5 -35t-34.5 -44.5t-52 -35.5t-70 -16q-45 0 -83 25t-70.5 50t-63.5 25q-34 0 -61.5 -25t-37.5 -50l-11 -25z" />
<glyph horiz-adv-x="1388" d="M209 530q0 73 5.5 145t21 158t39.5 162.5t64.5 154t93 138t128 109t166.5 71.5l16 -59q-103 -40 -182 -113.5t-127 -160t-78.5 -193.5t-41.5 -204.5t-11 -202.5q0 -78 9 -140t36.5 -125.5t73 -106t123.5 -69t184 -26.5q87 0 160.5 24t127 62.5t97 96t71.5 116t49 130.5 t31.5 132t17 128t8 110.5t1.5 88.5q0 216 -70.5 323t-203.5 107q-127 0 -193.5 -90.5t-66.5 -238.5q0 -103 38.5 -205.5t116.5 -171.5l-57 -55q-83 63 -135.5 191.5t-52.5 238.5q0 189 90.5 304.5t259.5 115.5q86 0 152.5 -33t106 -85t64.5 -123.5t34 -140.5t9 -145 q0 -95 -8 -184.5t-28.5 -188t-52.5 -182.5t-84.5 -161.5t-119.5 -132t-162 -87t-208 -32.5q-116 0 -205.5 29.5t-146.5 79.5t-93.5 121.5t-51.5 149.5t-15 170zM657 1692q0 36 22 59t60 23q29 0 44.5 -16.5t15.5 -43.5q0 -36 -22 -59t-58 -23q-29 0 -45.5 16.5t-16.5 43.5z M1042 1692q0 36 22 59t60 23q29 0 44.5 -16.5t15.5 -43.5q0 -36 -22 -59t-58 -23q-29 0 -45.5 16.5t-16.5 43.5z" />
<glyph horiz-adv-x="1388" d="M209 530q0 73 5.5 145t21 158t39.5 162.5t64.5 154t93 138t128 109t166.5 71.5l16 -59q-103 -40 -182 -113.5t-127 -160t-78.5 -193.5t-41.5 -204.5t-11 -202.5q0 -135 32.5 -236t117.5 -160l620 1241q-24 6 -55 6q-129 0 -205 -92.5t-76 -236.5q0 -20 2 -41.5t4 -33.5 l2 -11l-73 -23q-17 49 -17 115q0 186 96 299t267 113q49 0 96 -13l74 146l76 -29l-74 -147q105 -62 149.5 -194t44.5 -290q0 -95 -8 -184.5t-28.5 -188t-52.5 -182.5t-84.5 -161.5t-119.5 -132t-162 -87t-208 -32.5q-145 0 -238 40l-96 -192l-76 29l101 200 q-203 131 -203 473zM524 100q85 -32 205 -32q87 0 160.5 24t127 62.5t97 96t71.5 116t49 130.5t31.5 132t17 128t8 110.5t1.5 88.5q0 307 -143 396z" />
<glyph horiz-adv-x="1226" d="M180 362q0 80 23 150t46 100l23 31l72 -37q-8 -11 -20.5 -30.5t-33 -82t-20.5 -126.5q0 -152 101 -225.5t262 -73.5q117 0 213 35t157.5 111t61.5 181q0 60 -23.5 109.5t-47.5 78.5t-87 63.5t-89 45t-108 40.5q-8 3 -12 5q-52 19 -84.5 32t-76 34.5t-71 41t-57 48 t-45.5 59.5t-27 73t-11 91q0 85 31.5 151t80.5 104t117 62.5t131 33t133 8.5q69 0 133 -8t106 -19.5t73.5 -23t46.5 -19.5l14 -8l-35 -78q-4 3 -13 7.5t-40.5 16t-67.5 20.5t-96.5 16t-126.5 7q-397 0 -397 -268q0 -37 9 -68.5t21 -55t38 -45.5t47 -36.5t61.5 -33t68 -29 t78.5 -29.5q49 -18 76 -28.5t72.5 -29.5t72 -36t62 -42t56.5 -52t41 -61.5t29 -76t9 -89.5q0 -100 -42 -181.5t-113.5 -133.5t-162.5 -80.5t-194 -30.5l-43 -109q27 6 57 6q72 0 122 -33.5t50 -103.5q0 -82 -58.5 -134t-178.5 -52q-53 0 -98 11t-64 21l-18 11l28 73 q66 -41 154 -41q143 0 143 103q0 80 -118 80q-75 0 -138 -21l76 193q-170 14 -274.5 109.5t-104.5 268.5z" />
<glyph horiz-adv-x="2011" d="M225 860q0 178 95.5 313.5t266 208t390.5 72.5h94l-127 -905q-10 -82 -10 -135q0 -90 23 -155.5t57.5 -101.5t88.5 -57t101.5 -26.5t110.5 -5.5q76 0 133.5 8.5t123 37.5t111 79.5t83.5 140.5t55 215l127 905h94l-127 -905q-21 -149 -63 -253t-113.5 -176t-177 -106 t-250.5 -34q-229 0 -350 100t-121 326q0 79 10 143l115 817q-86 0 -171.5 -14.5t-174 -52t-155 -93t-109 -145t-42.5 -201.5q0 -71 17 -134.5t41 -103.5t48 -69.5t41 -42.5l17 -12l-57 -64q-8 6 -21 17t-46.5 50.5t-59.5 84.5t-47 119.5t-21 154.5zM1288 1772l70 67 l239 -240l-53 -55z" />
<glyph horiz-adv-x="2011" d="M225 860q0 178 95.5 313.5t266 208t390.5 72.5h94l-127 -905q-10 -82 -10 -135q0 -90 23 -155.5t57.5 -101.5t88.5 -57t101.5 -26.5t110.5 -5.5q76 0 133.5 8.5t123 37.5t111 79.5t83.5 140.5t55 215l127 905h94l-127 -905q-21 -149 -63 -253t-113.5 -176t-177 -106 t-250.5 -34q-229 0 -350 100t-121 326q0 79 10 143l115 817q-86 0 -171.5 -14.5t-174 -52t-155 -93t-109 -145t-42.5 -201.5q0 -71 17 -134.5t41 -103.5t48 -69.5t41 -42.5l17 -12l-57 -64q-8 6 -21 17t-46.5 50.5t-59.5 84.5t-47 119.5t-21 154.5zM1462 1599l305 240 l54 -67l-322 -228z" />
<glyph horiz-adv-x="2011" d="M225 860q0 178 95.5 313.5t266 208t390.5 72.5h94l-127 -905q-10 -82 -10 -135q0 -90 23 -155.5t57.5 -101.5t88.5 -57t101.5 -26.5t110.5 -5.5q76 0 133.5 8.5t123 37.5t111 79.5t83.5 140.5t55 215l127 905h94l-127 -905q-21 -149 -63 -253t-113.5 -176t-177 -106 t-250.5 -34q-229 0 -350 100t-121 326q0 79 10 143l115 817q-86 0 -171.5 -14.5t-174 -52t-155 -93t-109 -145t-42.5 -201.5q0 -71 17 -134.5t41 -103.5t48 -69.5t41 -42.5l17 -12l-57 -64q-8 6 -21 17t-46.5 50.5t-59.5 84.5t-47 119.5t-21 154.5zM1264 1595l295 240 l229 -240l-57 -51l-187 176l-239 -176z" />
<glyph horiz-adv-x="2011" d="M225 860q0 178 95.5 313.5t266 208t390.5 72.5h94l-127 -905q-10 -82 -10 -135q0 -90 23 -155.5t57.5 -101.5t88.5 -57t101.5 -26.5t110.5 -5.5q76 0 133.5 8.5t123 37.5t111 79.5t83.5 140.5t55 215l127 905h94l-127 -905q-21 -149 -63 -253t-113.5 -176t-177 -106 t-250.5 -34q-229 0 -350 100t-121 326q0 79 10 143l115 817q-86 0 -171.5 -14.5t-174 -52t-155 -93t-109 -145t-42.5 -201.5q0 -71 17 -134.5t41 -103.5t48 -69.5t41 -42.5l17 -12l-57 -64q-8 6 -21 17t-46.5 50.5t-59.5 84.5t-47 119.5t-21 154.5zM1268 1692q0 36 22 59 t60 23q28 0 43.5 -16.5t15.5 -43.5q0 -36 -22 -59t-58 -23q-29 0 -45 16.5t-16 43.5zM1653 1692q0 36 22 59t60 23q28 0 43.5 -16.5t15.5 -43.5q0 -36 -22 -59t-58 -23q-29 0 -45 16.5t-16 43.5z" />
<glyph horiz-adv-x="1802" d="M225 872q0 125 43 232t121 184.5t195.5 121.5t259.5 44h53l363 -747l571 747h111l-648 -844l-86 -610h-94l88 618l-364 748q-79 -3 -151.5 -20t-141.5 -55t-120 -93t-81.5 -138t-30.5 -186q0 -77 17 -144.5t41 -108t48 -70t41 -41.5l17 -12l-57 -64q-8 5 -21 16t-46.5 50 t-59.5 85t-47 123.5t-21 163.5zM1331 1599l305 240l54 -67l-322 -228z" />
<glyph horiz-adv-x="1851" d="M20 -106l50 73q7 -7 21.5 -18t66 -29t110.5 -18q65 0 121 22.5t100.5 59t92 102t85 131.5t89.5 168l506 999q-14 0 -44 1t-47 1q-119 0 -223.5 -17.5t-196 -57.5t-157.5 -98.5t-103.5 -145.5t-37.5 -195q0 -83 21.5 -157t43.5 -107l21 -33l-72 -47q-4 6 -11 16t-24.5 45 t-31 72.5t-24.5 95.5t-11 117q0 131 51 239.5t149.5 189.5t254 126.5t354.5 45.5q68 0 138.5 -5.5t107.5 -10.5l36 -5l324 -1454h-99l-108 485h-668l-55 -110q-33 -64 -55.5 -107t-53 -97t-54 -89.5t-55 -76.5t-60 -67t-64 -52t-71.5 -40t-79 -23t-90 -9t-90 8t-70.5 20 t-48.5 24t-30 20zM948 573h604l-184 830z" />
<glyph horiz-adv-x="1888" d="M225 827q0 140 65.5 256t195.5 204.5t342 138t487 49.5q104 0 184.5 -8.5t153 -30t119.5 -57t74.5 -92t27.5 -132.5q0 -150 -78.5 -257t-251.5 -150q285 -65 285 -336q0 -264 -166 -389t-526 -125q-135 0 -254 17.5t-193 42.5t-128.5 50t-77.5 42l-23 18l53 77 q9 -8 28 -21t87.5 -44.5t150.5 -52.5l189 1335q-140 -20 -255 -60.5t-207 -104.5t-143 -158.5t-51 -211.5q0 -63 17 -120t41.5 -93.5t49 -64t41.5 -39.5l17 -12l-57 -64q-8 5 -21.5 15.5t-47.5 47t-59.5 78t-47 110t-21.5 142.5zM872 6q130 -20 275 -20q299 0 443.5 97 t144.5 327q0 148 -96.5 219t-290.5 71h-379zM981 788h317q246 0 363 86t117 271q0 58 -20.5 100t-58 69t-98.5 43t-132.5 22.5t-168.5 6.5q-127 0 -235 -12z" />
<glyph horiz-adv-x="1339" d="M197 444q0 118 18.5 236.5t55.5 235t98 217t139 177.5t186 121t232 44q108 0 189.5 -26.5t128.5 -72.5t70 -102t23 -121q0 -143 -88.5 -254.5t-265.5 -177.5l-31 74q143 56 218 145.5t75 204.5q0 49 -15.5 90t-50 77t-99.5 56.5t-154 20.5q-113 0 -208.5 -44t-159 -113.5 t-114 -162t-78.5 -182.5t-46.5 -182.5t-24.5 -155t-6 -105.5q0 -79 13.5 -152t48.5 -145.5t88.5 -125.5t140.5 -86t198 -33q65 0 129.5 11.5t111 28t83.5 33t56 27.5l18 12l32 -73q-7 -5 -19.5 -13.5t-56 -30.5t-90.5 -39t-120 -30.5t-148 -13.5q-126 0 -225.5 34t-164.5 92 t-108 140t-61 171.5t-18 192.5z" />
<glyph horiz-adv-x="1961" d="M225 827q0 139 66 255.5t195.5 205t336 138t471.5 49.5q58 0 103.5 -2t102.5 -9.5t101 -20t93 -35.5t85.5 -54t71 -76.5t56 -103t34.5 -134.5t13 -168q0 -172 -30 -318t-94 -268t-160 -207.5t-233.5 -133t-308.5 -47.5q-107 0 -215 17t-185.5 41t-139.5 48.5t-94 41.5 l-31 17l37 82q13 -8 37 -21.5t97.5 -44.5t147.5 -50l187 1333q-140 -20 -255 -60.5t-207 -104.5t-143 -158.5t-51 -211.5q0 -63 17 -120t41.5 -93.5t49 -64t41.5 -39.5l17 -12l-57 -64q-8 5 -21.5 15.5t-47.5 47t-59.5 78t-47 110t-21.5 142.5zM872 6q114 -20 277 -20 q73 0 141.5 12t140.5 41t133.5 74.5t117 116.5t94.5 161.5t61.5 215.5t22.5 274q0 92 -14 165t-39 126t-65.5 91t-87 61.5t-110.5 37.5t-129 19t-149 5q-99 0 -201 -10z" />
<glyph horiz-adv-x="1800" d="M225 860q0 178 95.5 313.5t266 208t390.5 72.5h895l-12 -88h-801l-86 -604h715l-13 -88h-714l-43 -307q-7 -58 -7 -93q0 -331 396 -331q110 0 217 24t159 48l52 24l30 -78q-8 -4 -22.5 -11.5t-62 -25.5t-97.5 -32t-126 -25.5t-150 -11.5q-80 0 -149 12t-133.5 42 t-110 75.5t-72.5 117t-27 162.5q0 29 8 103l142 999q-86 0 -171.5 -14.5t-174 -52t-155 -93t-109 -145t-42.5 -201.5q0 -71 17 -134.5t41 -103.5t48 -69.5t41 -42.5l17 -12l-57 -64q-8 6 -21 17t-46.5 50.5t-59.5 84.5t-47 119.5t-21 154.5z" />
<glyph horiz-adv-x="1832" d="M225 -113l37 74q9 -7 25.5 -16.5t73 -26t120.5 -16.5q190 0 291.5 119.5t134.5 357.5l140 987q-86 0 -171.5 -14.5t-174 -52t-155 -93t-109 -145t-42.5 -201.5q0 -71 17 -134.5t41 -103.5t48 -69.5t41 -42.5l17 -12l-57 -64q-8 6 -21 17t-46.5 50.5t-59.5 84.5t-47 119.5 t-21 154.5q0 178 95.5 313.5t266 208t390.5 72.5h885l-13 -88h-790l-84 -586h710l-12 -88h-708l-46 -313q-42 -293 -170.5 -429t-336.5 -136q-47 0 -92 7.5t-75.5 18t-54.5 21.5t-36 19z" />
<glyph horiz-adv-x="1325" d="M211 559q0 138 26.5 268.5t84 248.5t140.5 206.5t203.5 140.5t264.5 52q106 0 187.5 -24.5t129.5 -67t72 -95t24 -112.5q0 -50 -15 -98t-36.5 -81.5t-42.5 -60t-36 -38.5l-15 -13l-61 51q5 4 12.5 11.5t27 32.5t34.5 50.5t27.5 63.5t12.5 75q0 93 -79 155t-250 62 q-114 0 -209 -37t-157.5 -95t-110.5 -137t-74 -155.5t-42.5 -159t-21 -138t-4.5 -101.5q0 -71 10.5 -133t40.5 -126.5t77.5 -110.5t129 -75.5t187.5 -29.5q175 0 317 59l65 465h95l-86 -618q-31 -220 -170 -330t-351 -110q-72 0 -138.5 12.5t-110 30t-77 35t-48.5 30.5 l-15 12l47 74q4 -4 13 -11.5t39.5 -25.5t66 -32t94.5 -25.5t123 -11.5q182 0 294.5 85.5t137.5 266.5l9 67q-129 -61 -308 -61q-117 0 -209.5 30.5t-152.5 81.5t-99.5 124t-56 152t-16.5 171z" />
<glyph horiz-adv-x="2082" d="M225 -113l37 74q9 -7 25.5 -16.5t73 -26t120.5 -16.5q190 0 291.5 119.5t134.5 357.5l137 987q-71 0 -142.5 -11t-146 -33.5t-138.5 -63t-115 -94t-80 -132t-29 -172.5q0 -71 17 -134.5t41 -103.5t48 -69.5t41 -42.5l17 -12l-57 -64q-8 6 -21 17t-46.5 50.5t-59.5 84.5 t-47 119.5t-21 154.5q0 178 95.5 313.5t266 208t390.5 72.5h94l-92 -655h856l92 655h94l-203 -1454h-94l99 711h-854l-48 -332q-42 -293 -170.5 -429t-336.5 -136q-47 0 -92 7.5t-75.5 18t-54.5 21.5t-36 19z" />
<glyph horiz-adv-x="1054" d="M225 889q0 177 96 306t263.5 194t386.5 65h94l-154 -1094q-26 -187 -127 -283.5t-266 -96.5q-55 0 -106.5 10t-75.5 20l-25 10l29 84q70 -36 174 -36q138 0 211 79t92 213l141 1006q-60 0 -117.5 -5t-123 -19.5t-122 -36.5t-109.5 -59t-90.5 -84.5t-60 -116t-22.5 -150.5 q0 -52 11 -100.5t26.5 -80t31.5 -56t27 -35.5l11 -11l-66 -53q-5 5 -14 13.5t-31 39.5t-39 66t-31 92.5t-14 118.5z" />
<glyph horiz-adv-x="1314" d="M205 -51q0 62 16 121t38.5 98t44.5 69t38 44l16 14l66 -51q-5 -4 -13.5 -12t-30.5 -36t-39 -59.5t-30.5 -82t-13.5 -103.5q0 -151 96 -230t232 -79q162 0 278 116t146 330l180 1278q-71 0 -142.5 -11t-146 -33.5t-138.5 -63t-115 -94t-80 -132t-29 -172.5q0 -52 9 -100 t23.5 -83t32 -65.5t34.5 -51t31.5 -35t23.5 -21.5l9 -6l-57 -64q-8 6 -21 17t-46.5 50.5t-59.5 84.5t-47 119.5t-21 154.5q0 178 95.5 313.5t266 208t390.5 72.5h94l-192 -1366q-37 -264 -179 -399t-341 -135q-185 0 -301.5 109.5t-116.5 285.5z" />
<glyph horiz-adv-x="1755" d="M225 860q0 178 95.5 313.5t266 208t390.5 72.5h94l-104 -735l807 735h131l-828 -754l475 -608q68 -86 113 -140t112 -119.5t125 -102.5t133 -62.5t154 -25.5q52 0 102.5 10t75.5 20l25 9l12 -84q-9 -5 -27 -12t-76.5 -19t-121.5 -12q-76 0 -143.5 15.5t-129.5 49.5 t-113 71.5t-109.5 99.5t-102 114t-106.5 133l-512 657l-97 -694h-94l193 1366q-86 0 -171.5 -14.5t-174 -52t-155 -93t-109 -145t-42.5 -201.5q0 -71 17 -134.5t41 -103.5t48 -69.5t41 -42.5l17 -12l-57 -64q-8 6 -21 17t-46.5 50.5t-59.5 84.5t-47 119.5t-21 154.5z" />
<glyph horiz-adv-x="1691" d="M225 860q0 178 95.5 313.5t266 208t390.5 72.5h94l-158 -1128q-6 -50 -6 -88q0 -85 27 -145t77.5 -91.5t109 -45t134.5 -13.5q65 0 126 9.5t101.5 22.5t71.5 26t46 23l14 9l31 -76q-6 -4 -17.5 -11t-50 -24.5t-81 -31t-110 -24.5t-137.5 -11q-201 0 -318.5 91.5 t-117.5 284.5q0 45 6 95l146 1040q-86 0 -171.5 -14.5t-174 -52t-155 -93t-109 -145t-42.5 -201.5q0 -71 17 -134.5t41 -103.5t48 -69.5t41 -42.5l17 -12l-57 -64q-8 6 -21 17t-46.5 50.5t-59.5 84.5t-47 119.5t-21 154.5z" />
<glyph horiz-adv-x="2390" d="M225 -113l37 74q8 -7 24.5 -16.5t74.5 -26t126 -16.5q96 0 165.5 30.5t118 95t80 147t58.5 204.5l221 987h-22q-71 0 -142.5 -11t-146 -33.5t-138.5 -63t-115 -94t-80 -132t-29 -172.5q0 -71 17 -134.5t41 -103.5t48 -69.5t41 -42.5l17 -12l-58 -64q-8 6 -21 17 t-46.5 50.5t-59 84.5t-46.5 119.5t-21 154.5q0 178 95.5 313.5t265.5 208t390 72.5h166l305 -1108l619 1108h135l-80 -1454h-94l70 1262l8 98l-51 -98l-564 -1010h-108l-281 1010l-22 88l-217 -971q-65 -292 -181.5 -428.5t-326.5 -136.5q-50 0 -97 7.5t-77.5 18t-54 21.5 t-33.5 19z" />
<glyph horiz-adv-x="2091" d="M225 -113l37 74q8 -7 24.5 -16.5t74 -26t124.5 -16.5q189 0 289.5 122.5t132.5 354.5l140 987q-86 0 -171.5 -14.5t-174 -52t-155 -93t-109 -145t-42.5 -201.5q0 -71 17 -134.5t41 -103.5t48 -69.5t41 -42.5l17 -12l-57 -64q-8 6 -21 17t-46.5 50.5t-59.5 84.5t-47 119.5 t-21 154.5q0 178 95.5 313.5t266 208t390.5 72.5h143l627 -1356l12 107l174 1249h94l-202 -1454h-135l-637 1374l-11 -114l-123 -881q-80 -565 -503 -565q-49 0 -95.5 7.5t-77 18t-54.5 21.5t-35 19z" />
<glyph horiz-adv-x="1896" d="M225 950q0 77 17.5 147t46 121.5t62.5 95.5t68 73t62.5 49.5t46.5 29.5l17 9l39 -68q-11 -5 -29.5 -15.5t-65 -50t-82 -87.5t-65 -130t-29.5 -176q0 -186 106 -289.5t294 -121.5q0 89 8.5 175t29.5 180.5t53.5 177t85 158.5t119.5 129.5t161 85.5t206 32 q249 0 380.5 -144.5t131.5 -408.5q0 -89 -8 -175t-29 -181.5t-53.5 -178t-85 -159t-119.5 -130.5t-160.5 -86t-205.5 -32q-475 0 -512 473q-124 9 -219.5 51t-153.5 109.5t-87.5 152t-29.5 184.5zM807 535q147 4 273.5 56.5t213.5 135.5t149 189t91 217.5t29 220.5 q-85 32 -193 32q-104 0 -189.5 -34.5t-142.5 -89t-100.5 -132t-67.5 -153.5t-39 -163t-19.5 -151.5t-4.5 -127.5zM809 451q6 -83 29 -148t69.5 -120t128.5 -85t197 -30q104 0 189.5 34.5t142.5 90t100.5 133t67.5 154t39 163.5t19.5 151.5t4.5 127.5q0 267 -149 385 q-2 -80 -20 -162.5t-53.5 -165t-85.5 -158.5t-119.5 -142t-152 -115.5t-187 -79.5t-220.5 -33z" />
<glyph horiz-adv-x="1916" d="M225 -113l37 74q9 -7 25.5 -16.5t73 -26t120.5 -16.5q190 0 291.5 119.5t134.5 357.5l140 983q-140 -20 -255.5 -60.5t-207.5 -104.5t-143.5 -158.5t-51.5 -211.5q0 -63 17 -120t41.5 -93.5t49 -64t41.5 -39.5l17 -12l-57 -64q-8 5 -21.5 15.5t-47.5 47t-59.5 78t-47 110 t-21.5 142.5q0 139 66 255.5t195.5 205t337.5 138t476 49.5q171 0 288.5 -26t184.5 -79t96 -123.5t29 -169.5q0 -82 -19 -156t-64 -143.5t-113.5 -119.5t-174.5 -80.5t-239 -30.5q-82 0 -166.5 2.5t-127.5 4.5l-44 3l-25 -178q-42 -293 -170.5 -429t-336.5 -136 q-47 0 -92 7.5t-75.5 18t-54.5 21.5t-36 19zM1038 643q108 -8 340 -8q235 0 367.5 116.5t132.5 319.5q0 111 -46.5 178t-159.5 102t-306 35q-90 0 -223 -10z" />
<glyph horiz-adv-x="1392" d="M242 655q0 76 9 152.5t30.5 158.5t54 154.5t83.5 138.5t114 113t150 75t189 28q113 0 202.5 -30t147 -81t95 -123t53.5 -150.5t16 -168.5q0 -81 -7 -161.5t-25 -169t-45 -167.5t-71 -154t-99.5 -132t-133 -97t-169.5 -53q60 -58 132.5 -111.5t175.5 -110t233 -90.5 t265 -34q75 0 151 11t115 23l38 11l16 -84q-15 -5 -42 -13.5t-114.5 -22t-177.5 -13.5q-132 0 -256.5 30.5t-213 72.5t-177 106.5t-138 111t-106.5 107.5q-14 -2 -32 -2q-179 0 -281 75l31 97q12 2 32 2q110 0 238 -86q105 0 191.5 34t144 88.5t101.5 131t68.5 152.5 t39.5 163t19.5 152.5t4.5 130.5q0 75 -11.5 139.5t-41.5 126t-77 105t-123 69.5t-175 26q-117 0 -210.5 -45t-152 -117.5t-97.5 -170t-54.5 -196t-15.5 -202.5q0 -78 11 -149.5t21 -103.5l11 -33l-86 -27q-6 13 -14.5 37.5t-22.5 106t-14 169.5z" />
<glyph horiz-adv-x="1914" d="M225 827q0 110 40 206t126.5 177.5t213 140t307.5 91t403 33.5q294 0 441 -86.5t147 -274.5q0 -93 -22 -167t-71.5 -138t-139 -106.5t-216.5 -61.5l260 -539q36 -76 73.5 -137.5t89.5 -123.5t109 -104t133 -68.5t160 -26.5q53 0 105.5 10t79.5 20l26 9l17 -82 q-11 -5 -31 -12.5t-83.5 -20t-127.5 -12.5q-212 0 -363.5 127t-265.5 366l-280 584q-33 -2 -103 -2q-115 0 -290 10l-91 -639h-94l191 1362q-139 -20 -254 -60.5t-207 -104.5t-143.5 -158.5t-51.5 -211.5q0 -63 17 -120t41.5 -93.5t49 -64t41.5 -39.5l17 -12l-57 -64 q-8 5 -21.5 15.5t-47.5 47t-59.5 78t-47 110t-21.5 142.5zM975 725q116 -8 280 -8q292 0 421.5 91.5t129.5 293.5q0 67 -22 117t-60.5 82t-99 51t-129.5 26.5t-160 7.5q-137 0 -270 -10z" />
<glyph horiz-adv-x="1382" d="M162 16q0 62 14 122.5t34 102t40.5 75t34.5 49.5l14 16l78 -39q-5 -5 -13.5 -14.5t-29.5 -41t-37 -66.5t-29.5 -90t-13.5 -112q0 -121 58.5 -207.5t153 -127.5t212.5 -41q97 0 180 27t140.5 72.5t98.5 105.5t60 125t19 132q0 47 -11.5 91t-28 78.5t-47 70t-56.5 60.5 t-70.5 57t-74.5 51.5t-81 50.5q-80 49 -127 80.5t-103 80t-86 93.5t-50.5 107.5t-20.5 134.5q0 93 33.5 166.5t87 119.5t126 76t146 42t152.5 12q98 0 191.5 -17.5t137.5 -35.5l45 -17l-36 -80q-17 7 -48 17t-122 27t-177 17q-128 0 -225.5 -33t-158 -107.5t-60.5 -184.5 q0 -58 18.5 -109.5t45.5 -89.5t77 -79.5t92 -69.5t111 -70q55 -33 88.5 -54.5t82 -57t78.5 -64.5t64.5 -71t53.5 -83.5t32 -95t13 -111.5q0 -83 -23 -162t-72 -150t-118 -124t-168.5 -84.5t-216.5 -31.5q-127 0 -227 39t-160 105t-90.5 147t-30.5 171z" />
<glyph horiz-adv-x="1533" d="M225 860q0 271 198.5 432.5t530.5 161.5h711l-12 -88h-506l-139 -987q-41 -293 -170.5 -429t-337.5 -136q-47 0 -92 7.5t-75.5 18t-54.5 21.5t-36 19l-11 7l37 74q9 -7 25.5 -16.5t73 -26t120.5 -16.5q190 0 291.5 119.5t134.5 357.5l140 987h-111q-86 0 -169.5 -15 t-168 -52t-148 -92.5t-103.5 -145t-40 -201.5q0 -71 17 -134.5t41 -103.5t48 -69.5t41 -42.5l17 -12l-57 -64q-8 6 -21 17t-46.5 50.5t-59.5 84.5t-47 119.5t-21 154.5z" />
<glyph horiz-adv-x="2011" d="M225 860q0 178 95.5 313.5t266 208t390.5 72.5h94l-127 -905q-10 -82 -10 -135q0 -90 23 -155.5t57.5 -101.5t88.5 -57t101.5 -26.5t110.5 -5.5q52 0 93 3.5t90.5 15.5t87.5 32.5t77.5 56.5t68.5 86t52.5 123t36.5 164l98 694q6 47 6 82q0 67 -18 120t-43.5 81.5 t-51 47.5t-43.5 24l-18 6l29 73q10 -2 26 -6t57 -26.5t72.5 -55.5t57.5 -98.5t26 -149.5q0 -41 -6 -90l-98 -702q-22 -158 -69 -267t-123 -176t-176 -96.5t-236 -29.5q-229 0 -350 100t-121 326q0 79 10 143l115 817q-86 0 -171.5 -14.5t-174 -52t-155 -93t-109 -145 t-42.5 -201.5q0 -71 17 -134.5t41 -103.5t48 -69.5t41 -42.5l17 -12l-57 -64q-8 6 -21 17t-46.5 50.5t-59.5 84.5t-47 119.5t-21 154.5z" />
<glyph horiz-adv-x="1867" d="M225 860q0 268 178.5 431t481.5 163h49l299 -1405l543 1051q92 179 92 286q0 52 -20.5 92.5t-50 61.5t-58.5 34.5t-49 17.5l-21 3l21 82q133 -29 201.5 -105t68.5 -188q0 -124 -100 -317l-551 -1067h-160l-291 1364q-80 -3 -154 -20.5t-146.5 -55.5t-125.5 -93.5 t-86 -141.5t-33 -193q0 -71 17 -134.5t41 -103.5t48 -69.5t41 -42.5l17 -12l-57 -64q-8 6 -21 17t-46.5 50.5t-59.5 84.5t-47 119.5t-21 154.5z" />
<glyph horiz-adv-x="2596" d="M225 860q0 272 184 433t500 161h27l182 -1280l15 -121l49 123l522 1217h102l179 -1219l16 -121l479 1065q32 70 45.5 103t26 79.5t12.5 85.5q0 56 -20.5 98.5t-50 62.5t-58.5 32t-49 14l-21 2l27 82q131 -26 197.5 -102.5t66.5 -188.5q0 -43 -13 -93.5t-26 -82.5 t-43 -100q-6 -8 -499 -1110h-160l-168 1133l-10 116l-43 -116l-486 -1133h-159l-195 1364q-79 -4 -152.5 -21.5t-145.5 -56t-125 -93.5t-85.5 -141t-32.5 -192q0 -71 17 -134.5t41 -103.5t48 -69.5t41 -42.5l17 -12l-57 -64q-8 6 -21 17t-46.5 50.5t-59.5 84.5t-47 119.5 t-21 154.5z" />
<glyph horiz-adv-x="1812" d="M225 870q0 263 180.5 423.5t483.5 160.5h10l379 -653l557 653h115l-627 -731l365 -625q33 -56 56 -93.5t60 -90t69 -87t77.5 -73t91 -60.5t103 -37t120.5 -15q53 0 104.5 10t76.5 20l26 9l16 -82q-11 -5 -30.5 -12.5t-81.5 -20t-125 -12.5q-91 0 -169.5 24.5t-140 64.5 t-121.5 106.5t-106 134t-102 163.5l-350 602l-555 -649h-115l622 729l-368 635q-79 -3 -152 -20t-143.5 -54.5t-122.5 -92.5t-83.5 -139t-31.5 -188q0 -76 17 -142.5t41 -106.5t48 -69.5t41 -41.5l17 -12l-57 -64q-8 5 -21 16t-46.5 50.5t-59.5 85.5t-47 122.5t-21 161.5z " />
<glyph horiz-adv-x="1753" d="M225 879q0 262 180 418.5t484 156.5h31l346 -928l350 514q69 103 99 164.5t30 120.5q0 43 -16.5 76.5t-39.5 50.5t-46 27.5t-39 12.5l-17 3l27 82q9 -1 24 -4.5t53.5 -20.5t68 -41.5t53.5 -72t24 -107.5q0 -137 -131 -323l-401 -578l-23 -154q-33 -227 -160 -344.5 t-323 -117.5q-47 0 -91 6.5t-73 16t-51 19.5t-32 16l-11 7l37 74q9 -6 26.5 -14.5t74 -22.5t116.5 -14q94 0 167 31.5t118.5 86.5t71.5 118.5t36 137.5l20 154l-352 936q-80 -2 -154 -18t-146.5 -52.5t-125 -90t-85 -137.5t-32.5 -189q0 -76 17 -143.5t41 -109t48 -72 t41 -43.5l17 -13l-57 -64q-8 6 -21 17.5t-46.5 52t-59.5 88t-47 125t-21 162.5z" />
<glyph horiz-adv-x="1224" d="M184 37l1063 1329h-485q-179 0 -277 -90.5t-98 -231.5q0 -63 19.5 -124t39.5 -91l19 -30l-74 -41q-4 5 -10 14t-22.5 38.5t-29 61t-22.5 79.5t-10 96q0 184 129.5 295.5t349.5 111.5h565l19 -88l-934 -1167l688 -437q188 -120 381 -120q67 0 130.5 14t93.5 28l30 13 l16 -82q-12 -7 -34.5 -17t-96 -27t-149.5 -17q-215 0 -414 127l-702 446l-119 -147z" />
<glyph horiz-adv-x="1851" d="M20 -106l50 73q7 -7 21.5 -18t66 -29t110.5 -18q65 0 121 22.5t100.5 59t92 102t85 131.5t89.5 168l506 999q-14 0 -44 1t-47 1q-119 0 -223.5 -17.5t-196 -57.5t-157.5 -98.5t-103.5 -145.5t-37.5 -195q0 -83 21.5 -157t43.5 -107l21 -33l-72 -47q-4 6 -11 16t-24.5 45 t-31 72.5t-24.5 95.5t-11 117q0 131 51 239.5t149.5 189.5t254 126.5t354.5 45.5q68 0 138.5 -5.5t107.5 -10.5l36 -5l324 -1454h-99l-108 485h-668l-55 -110q-33 -64 -55.5 -107t-53 -97t-54 -89.5t-55 -76.5t-60 -67t-64 -52t-71.5 -40t-79 -23t-90 -9t-90 8t-70.5 20 t-48.5 24t-30 20zM948 573h604l-184 830zM1137 1772l69 67l240 -240l-53 -55z" />
<glyph horiz-adv-x="1851" d="M20 -106l50 73q7 -7 21.5 -18t66 -29t110.5 -18q65 0 121 22.5t100.5 59t92 102t85 131.5t89.5 168l506 999q-14 0 -44 1t-47 1q-119 0 -223.5 -17.5t-196 -57.5t-157.5 -98.5t-103.5 -145.5t-37.5 -195q0 -83 21.5 -157t43.5 -107l21 -33l-72 -47q-4 6 -11 16t-24.5 45 t-31 72.5t-24.5 95.5t-11 117q0 131 51 239.5t149.5 189.5t254 126.5t354.5 45.5q68 0 138.5 -5.5t107.5 -10.5l36 -5l324 -1454h-99l-108 485h-668l-55 -110q-33 -64 -55.5 -107t-53 -97t-54 -89.5t-55 -76.5t-60 -67t-64 -52t-71.5 -40t-79 -23t-90 -9t-90 8t-70.5 20 t-48.5 24t-30 20zM948 573h604l-184 830zM1300 1618l306 240l53 -68l-322 -227z" />
<glyph horiz-adv-x="1851" d="M20 -106l50 73q7 -7 21.5 -18t66 -29t110.5 -18q65 0 121 22.5t100.5 59t92 102t85 131.5t89.5 168l506 999q-14 0 -44 1t-47 1q-119 0 -223.5 -17.5t-196 -57.5t-157.5 -98.5t-103.5 -145.5t-37.5 -195q0 -83 21.5 -157t43.5 -107l21 -33l-72 -47q-4 6 -11 16t-24.5 45 t-31 72.5t-24.5 95.5t-11 117q0 131 51 239.5t149.5 189.5t254 126.5t354.5 45.5q68 0 138.5 -5.5t107.5 -10.5l36 -5l324 -1454h-99l-108 485h-668l-55 -110q-33 -64 -55.5 -107t-53 -97t-54 -89.5t-55 -76.5t-60 -67t-64 -52t-71.5 -40t-79 -23t-90 -9t-90 8t-70.5 20 t-48.5 24t-30 20zM948 573h604l-184 830zM1096 1595l295 240l229 -240l-57 -51l-187 176l-239 -176z" />
<glyph horiz-adv-x="1851" d="M20 -106l50 73q7 -7 21.5 -18t66 -29t110.5 -18q65 0 121 22.5t100.5 59t92 102t85 131.5t89.5 168l506 999q-14 0 -44 1t-47 1q-119 0 -223.5 -17.5t-196 -57.5t-157.5 -98.5t-103.5 -145.5t-37.5 -195q0 -83 21.5 -157t43.5 -107l21 -33l-72 -47q-4 6 -11 16t-24.5 45 t-31 72.5t-24.5 95.5t-11 117q0 131 51 239.5t149.5 189.5t254 126.5t354.5 45.5q68 0 138.5 -5.5t107.5 -10.5l36 -5l324 -1454h-99l-108 485h-668l-55 -110q-33 -64 -55.5 -107t-53 -97t-54 -89.5t-55 -76.5t-60 -67t-64 -52t-71.5 -40t-79 -23t-90 -9t-90 8t-70.5 20 t-48.5 24t-30 20zM948 573h604l-184 830zM1087 1649q2 6 6 16t19.5 35t34.5 44.5t52 35.5t71 16q37 0 69.5 -15.5t52 -34.5t45 -34.5t50.5 -15.5q34 0 61.5 25t37.5 50l11 25l62 -33q-2 -6 -6 -16t-19.5 -35t-34.5 -44.5t-52 -35.5t-70 -16q-45 0 -83 25t-70.5 50t-63.5 25 q-34 0 -61.5 -25t-38.5 -50l-11 -25z" />
<glyph horiz-adv-x="1851" d="M20 -106l50 73q7 -7 21.5 -18t66 -29t110.5 -18q65 0 121 22.5t100.5 59t92 102t85 131.5t89.5 168l506 999q-14 0 -44 1t-47 1q-119 0 -223.5 -17.5t-196 -57.5t-157.5 -98.5t-103.5 -145.5t-37.5 -195q0 -83 21.5 -157t43.5 -107l21 -33l-72 -47q-4 6 -11 16t-24.5 45 t-31 72.5t-24.5 95.5t-11 117q0 131 51 239.5t149.5 189.5t254 126.5t354.5 45.5q68 0 138.5 -5.5t107.5 -10.5l36 -5l324 -1454h-99l-108 485h-668l-55 -110q-33 -64 -55.5 -107t-53 -97t-54 -89.5t-55 -76.5t-60 -67t-64 -52t-71.5 -40t-79 -23t-90 -9t-90 8t-70.5 20 t-48.5 24t-30 20zM948 573h604l-184 830zM1126 1692q0 36 22 59t60 23q29 0 44.5 -16.5t15.5 -43.5q0 -36 -22 -59t-58 -23q-29 0 -45.5 16.5t-16.5 43.5zM1511 1692q0 36 22 59t60 23q29 0 44.5 -16.5t15.5 -43.5q0 -36 -22 -59t-58 -23q-29 0 -45.5 16.5t-16.5 43.5z" />
<glyph horiz-adv-x="1851" d="M20 -106l50 73q7 -7 21.5 -18t66 -29t110.5 -18q65 0 121 22.5t100.5 59t92 102t85 131.5t89.5 168l506 999q-14 0 -44 1t-47 1q-119 0 -223.5 -17.5t-196 -57.5t-157.5 -98.5t-103.5 -145.5t-37.5 -195q0 -83 21.5 -157t43.5 -107l21 -33l-72 -47q-4 6 -11 16t-24.5 45 t-31 72.5t-24.5 95.5t-11 117q0 131 51 239.5t149.5 189.5t254 126.5t354.5 45.5q68 0 138.5 -5.5t107.5 -10.5l36 -5l324 -1454h-99l-108 485h-668l-55 -110q-33 -64 -55.5 -107t-53 -97t-54 -89.5t-55 -76.5t-60 -67t-64 -52t-71.5 -40t-79 -23t-90 -9t-90 8t-70.5 20 t-48.5 24t-30 20zM948 573h604l-184 830zM1204 1731q0 94 63 150t158 56q76 0 123 -42.5t47 -114.5q0 -94 -63 -149.5t-158 -55.5q-76 0 -123 42t-47 114zM1286 1739q0 -44 26 -69t72 -25q58 0 93.5 34.5t35.5 92.5q0 44 -26 70t-72 26q-57 0 -93 -35.5t-36 -93.5z" />
<glyph horiz-adv-x="2142" d="M225 874q0 131 51 239.5t149.5 189.5t254 126.5t354.5 45.5q68 0 138.5 -5.5t107.5 -10.5l37 -5h897l-12 -88h-801l-86 -604h715l-13 -88h-714l-43 -307q-9 -83 -9 -101q0 -79 22 -137.5t58 -93.5t90 -56t110 -28.5t126 -7.5q98 0 203 22.5t161 44.5l56 23l30 -72 q-8 -4 -23.5 -11.5t-64.5 -25.5t-100 -32t-125.5 -25.5t-146.5 -11.5q-490 0 -490 401q0 59 8 111l17 118h-500l-336 -485h-100l956 1378q-56 8 -170 8q-119 0 -223.5 -17.5t-196.5 -57.5t-157.5 -98.5t-103.5 -145.5t-38 -195q0 -83 21.5 -157t43.5 -107l21 -33l-71 -47 q-4 6 -11 16t-25 45t-31.5 72.5t-24.5 95.5t-11 117zM743 573h451l115 813z" />
<glyph horiz-adv-x="1339" d="M197 444q0 118 18.5 236.5t55.5 235t98 217t139 177.5t186 121t232 44q108 0 189.5 -26.5t128.5 -72.5t70 -102t23 -121q0 -143 -88.5 -254.5t-265.5 -177.5l-31 74q143 56 218 145.5t75 204.5q0 49 -15.5 90t-50 77t-99.5 56.5t-154 20.5q-113 0 -208.5 -44t-159 -113.5 t-114 -162t-78.5 -182.5t-46.5 -182.5t-24.5 -155t-6 -105.5q0 -79 13.5 -152t48.5 -145.5t88.5 -125.5t140.5 -86t198 -33q65 0 129.5 11.5t111 28t83.5 33t56 27.5l18 12l32 -73q-7 -5 -19.5 -13.5t-56 -30.5t-90.5 -39t-120 -30.5t-148 -13.5q-4 0 -11.5 1t-10.5 1 l-50 -127q27 6 58 6q72 0 122 -33.5t50 -103.5q0 -82 -59 -134.5t-179 -52.5q-53 0 -98 10.5t-64 21.5l-18 11l29 74q66 -41 153 -41q144 0 144 102q0 80 -119 80q-77 0 -137 -20l84 213q-127 16 -220.5 73t-147 143t-78.5 187t-25 219z" />
<glyph horiz-adv-x="1325" d="M211 559q0 138 26.5 268.5t84 248.5t140.5 206.5t203.5 140.5t264.5 52q106 0 187.5 -24.5t129.5 -67t72 -95t24 -112.5q0 -50 -15 -98t-36.5 -81.5t-42.5 -60t-36 -38.5l-15 -13l-61 51q5 4 12.5 11.5t27 32.5t34.5 50.5t27.5 63.5t12.5 75q0 93 -79 155t-250 62 q-114 0 -209 -37t-157.5 -95t-110.5 -137t-74 -155.5t-42.5 -159t-21 -138t-4.5 -101.5q0 -71 10.5 -133t40.5 -126.5t77.5 -110.5t129 -75.5t187.5 -29.5q175 0 317 59l65 465h95l-86 -618q-31 -220 -170 -330t-351 -110q-72 0 -138.5 12.5t-110 30t-77 35t-48.5 30.5 l-15 12l47 74q4 -4 13 -11.5t39.5 -25.5t66 -32t94.5 -25.5t123 -11.5q182 0 294.5 85.5t137.5 266.5l9 67q-129 -61 -308 -61q-117 0 -209.5 30.5t-152.5 81.5t-99.5 124t-56 152t-16.5 171zM711 1802l71 29q0 -6 0.5 -17t9 -38t23 -48t48 -38t79.5 -17t83.5 16.5 t58.5 39.5t35 46t19 39l5 17l63 -29q-2 -9 -7 -23t-26.5 -50.5t-49.5 -64t-79.5 -50.5t-113.5 -23q-45 0 -81.5 11.5t-58.5 30t-38.5 41t-24 45.5t-11.5 41.5t-4 29.5z" />
<glyph horiz-adv-x="1961" d="M225 827q0 139 66 255.5t195.5 205t336 138t471.5 49.5q58 0 103.5 -2t102.5 -9.5t101 -20t93 -35.5t85.5 -54t71 -76.5t56 -103t34.5 -134.5t13 -168q0 -172 -30 -318t-94 -268t-160 -207.5t-233.5 -133t-308.5 -47.5q-107 0 -215 17t-185.5 41t-139.5 48.5t-94 41.5 l-31 17l37 82q13 -8 37 -21.5t97.5 -44.5t147.5 -50l95 673h-127l10 80h127l82 580q-140 -20 -255 -60.5t-207 -104.5t-143 -158.5t-51 -211.5q0 -63 17 -120t41.5 -93.5t49 -64t41.5 -39.5l17 -12l-57 -64q-8 5 -21.5 15.5t-47.5 47t-59.5 78t-47 110t-21.5 142.5zM872 6 q114 -20 277 -20q73 0 141.5 12t140.5 41t133.5 74.5t117 116.5t94.5 161.5t61.5 215.5t22.5 274q0 92 -14 165t-39 126t-65.5 91t-87 61.5t-110.5 37.5t-129 19t-149 5q-99 0 -201 -10l-84 -594h418l-10 -80h-418z" />
<glyph horiz-adv-x="1800" d="M225 860q0 178 95.5 313.5t266 208t390.5 72.5h895l-12 -88h-801l-86 -604h715l-13 -88h-714l-43 -307q-7 -58 -7 -93q0 -331 396 -331q110 0 217 24t159 48l52 24l30 -78q-8 -4 -22.5 -11.5t-62 -25.5t-97.5 -32t-126 -25.5t-150 -11.5q-80 0 -149 12t-133.5 42 t-110 75.5t-72.5 117t-27 162.5q0 29 8 103l142 999q-86 0 -171.5 -14.5t-174 -52t-155 -93t-109 -145t-42.5 -201.5q0 -71 17 -134.5t41 -103.5t48 -69.5t41 -42.5l17 -12l-57 -64q-8 6 -21 17t-46.5 50.5t-59.5 84.5t-47 119.5t-21 154.5zM1210 1772l70 67l240 -240 l-54 -55z" />
<glyph horiz-adv-x="1800" d="M225 860q0 178 95.5 313.5t266 208t390.5 72.5h895l-12 -88h-801l-86 -604h715l-13 -88h-714l-43 -307q-7 -58 -7 -93q0 -331 396 -331q110 0 217 24t159 48l52 24l30 -78q-8 -4 -22.5 -11.5t-62 -25.5t-97.5 -32t-126 -25.5t-150 -11.5q-80 0 -149 12t-133.5 42 t-110 75.5t-72.5 117t-27 162.5q0 29 8 103l142 999q-86 0 -171.5 -14.5t-174 -52t-155 -93t-109 -145t-42.5 -201.5q0 -71 17 -134.5t41 -103.5t48 -69.5t41 -42.5l17 -12l-57 -64q-8 6 -21 17t-46.5 50.5t-59.5 84.5t-47 119.5t-21 154.5zM1376 1599l305 240l54 -67 l-322 -228z" />
<glyph horiz-adv-x="1800" d="M225 860q0 178 95.5 313.5t266 208t390.5 72.5h895l-12 -88h-801l-86 -604h715l-13 -88h-714l-43 -307q-7 -58 -7 -93q0 -331 396 -331q110 0 217 24t159 48l52 24l30 -78q-8 -4 -22.5 -11.5t-62 -25.5t-97.5 -32t-126 -25.5t-150 -11.5q-80 0 -149 12t-133.5 42 t-110 75.5t-72.5 117t-27 162.5q0 29 8 103l142 999q-86 0 -171.5 -14.5t-174 -52t-155 -93t-109 -145t-42.5 -201.5q0 -71 17 -134.5t41 -103.5t48 -69.5t41 -42.5l17 -12l-57 -64q-8 6 -21 17t-46.5 50.5t-59.5 84.5t-47 119.5t-21 154.5zM1190 1595l295 240l229 -240 l-57 -51l-187 176l-239 -176z" />
<glyph horiz-adv-x="1800" d="M225 860q0 178 95.5 313.5t266 208t390.5 72.5h895l-12 -88h-801l-86 -604h715l-13 -88h-714l-43 -307q-7 -58 -7 -93q0 -331 396 -331q110 0 217 24t159 48l52 24l30 -78q-8 -4 -22.5 -11.5t-62 -25.5t-97.5 -32t-126 -25.5t-150 -11.5q-80 0 -149 12t-133.5 42 t-110 75.5t-72.5 117t-27 162.5q0 29 8 103l142 999q-86 0 -171.5 -14.5t-174 -52t-155 -93t-109 -145t-42.5 -201.5q0 -71 17 -134.5t41 -103.5t48 -69.5t41 -42.5l17 -12l-57 -64q-8 6 -21 17t-46.5 50.5t-59.5 84.5t-47 119.5t-21 154.5zM1202 1692q0 36 22 59t60 23 q28 0 43.5 -16.5t15.5 -43.5q0 -36 -21.5 -59t-57.5 -23q-29 0 -45.5 16.5t-16.5 43.5zM1587 1692q0 36 22 59t60 23q29 0 44.5 -16.5t15.5 -43.5q0 -36 -22 -59t-58 -23q-29 0 -45.5 16.5t-16.5 43.5z" />
<glyph horiz-adv-x="1054" d="M225 889q0 177 96 306t263.5 194t386.5 65h94l-154 -1094q-26 -187 -127 -283.5t-266 -96.5q-55 0 -106.5 10t-75.5 20l-25 10l29 84q70 -36 174 -36q138 0 211 79t92 213l141 1006q-60 0 -117.5 -5t-123 -19.5t-122 -36.5t-109.5 -59t-90.5 -84.5t-60 -116t-22.5 -150.5 q0 -52 11 -100.5t26.5 -80t31.5 -56t27 -35.5l11 -11l-66 -53q-5 5 -14 13.5t-31 39.5t-39 66t-31 92.5t-14 118.5zM741 1772l70 67l240 -240l-54 -55z" />
<glyph horiz-adv-x="1054" d="M225 889q0 177 96 306t263.5 194t386.5 65h94l-154 -1094q-26 -187 -127 -283.5t-266 -96.5q-55 0 -106.5 10t-75.5 20l-25 10l29 84q70 -36 174 -36q138 0 211 79t92 213l141 1006q-60 0 -117.5 -5t-123 -19.5t-122 -36.5t-109.5 -59t-90.5 -84.5t-60 -116t-22.5 -150.5 q0 -52 11 -100.5t26.5 -80t31.5 -56t27 -35.5l11 -11l-66 -53q-5 5 -14 13.5t-31 39.5t-39 66t-31 92.5t-14 118.5zM911 1599l306 240l53 -67l-322 -228z" />
<glyph horiz-adv-x="1054" d="M225 889q0 177 96 306t263.5 194t386.5 65h94l-154 -1094q-26 -187 -127 -283.5t-266 -96.5q-55 0 -106.5 10t-75.5 20l-25 10l29 84q70 -36 174 -36q138 0 211 79t92 213l141 1006q-60 0 -117.5 -5t-123 -19.5t-122 -36.5t-109.5 -59t-90.5 -84.5t-60 -116t-22.5 -150.5 q0 -52 11 -100.5t26.5 -80t31.5 -56t27 -35.5l11 -11l-66 -53q-5 5 -14 13.5t-31 39.5t-39 66t-31 92.5t-14 118.5zM655 1595l295 240l230 -240l-58 -51l-186 176l-240 -176z" />
<glyph horiz-adv-x="1054" d="M225 889q0 177 96 306t263.5 194t386.5 65h94l-154 -1094q-26 -187 -127 -283.5t-266 -96.5q-55 0 -106.5 10t-75.5 20l-25 10l29 84q70 -36 174 -36q138 0 211 79t92 213l141 1006q-60 0 -117.5 -5t-123 -19.5t-122 -36.5t-109.5 -59t-90.5 -84.5t-60 -116t-22.5 -150.5 q0 -52 11 -100.5t26.5 -80t31.5 -56t27 -35.5l11 -11l-66 -53q-5 5 -14 13.5t-31 39.5t-39 66t-31 92.5t-14 118.5zM692 1692q0 36 22 59t60 23q29 0 44.5 -16.5t15.5 -43.5q0 -36 -22 -59t-58 -23q-29 0 -45.5 16.5t-16.5 43.5zM1077 1692q0 36 22 59t60 23 q29 0 44.5 -16.5t15.5 -43.5q0 -36 -22 -59t-58 -23q-29 0 -45.5 16.5t-16.5 43.5z" />
<glyph horiz-adv-x="1054" d="M225 889q0 177 96 306t263.5 194t386.5 65h94l-154 -1094q-26 -187 -127 -283.5t-266 -96.5q-55 0 -106.5 10t-75.5 20l-25 10l29 84q70 -36 174 -36q138 0 211 79t92 213l141 1006q-60 0 -117.5 -5t-123 -19.5t-122 -36.5t-109.5 -59t-90.5 -84.5t-60 -116t-22.5 -150.5 q0 -52 11 -100.5t26.5 -80t31.5 -56t27 -35.5l11 -11l-66 -53q-5 5 -14 13.5t-31 39.5t-39 66t-31 92.5t-14 118.5zM915 1737q0 40 26.5 66t68.5 26q33 0 51 -19t18 -49q0 -41 -26.5 -67.5t-67.5 -26.5q-33 0 -51.5 18.5t-18.5 51.5z" />
<glyph horiz-adv-x="2091" d="M225 -113l37 74q8 -7 24.5 -16.5t74 -26t124.5 -16.5q189 0 289.5 122.5t132.5 354.5l140 987q-86 0 -171.5 -14.5t-174 -52t-155 -93t-109 -145t-42.5 -201.5q0 -71 17 -134.5t41 -103.5t48 -69.5t41 -42.5l17 -12l-57 -64q-8 6 -21 17t-46.5 50.5t-59.5 84.5t-47 119.5 t-21 154.5q0 178 95.5 313.5t266 208t390.5 72.5h143l627 -1356l12 107l174 1249h94l-202 -1454h-135l-637 1374l-11 -114l-123 -881q-80 -565 -503 -565q-49 0 -95.5 7.5t-77 18t-54.5 21.5t-35 19zM1335 1649q2 6 6 16t19.5 35t34.5 44.5t52 35.5t71 16q37 0 69.5 -15.5 t52 -34.5t45 -34.5t50.5 -15.5q34 0 61.5 25t37.5 50l11 25l62 -33q-2 -6 -6 -16t-20 -35t-35 -44.5t-52 -35.5t-70 -16q-45 0 -83 25t-70.5 50t-63.5 25q-34 0 -61.5 -25t-37.5 -50l-11 -25z" />
<glyph horiz-adv-x="1892" d="M225 950q0 77 17.5 147t46 121.5t62.5 95.5t68 73t62.5 49.5t46.5 29.5l17 9l39 -68q-11 -5 -29.5 -15.5t-65 -50t-82 -87.5t-65 -130t-29.5 -176q0 -186 106 -289.5t294 -121.5q0 89 8.5 175t29.5 180.5t53.5 177t85 158.5t119.5 129.5t161 85.5t206 32 q249 0 380.5 -144.5t131.5 -408.5q0 -89 -8 -175t-29 -181.5t-53.5 -178t-85 -159t-119.5 -130.5t-160.5 -86t-205.5 -32q-475 0 -512 473q-124 9 -219.5 51t-153.5 109.5t-87.5 152t-29.5 184.5zM807 535q147 4 273.5 56.5t213.5 135.5t149 189t91 217.5t29 220.5 q-85 32 -193 32q-104 0 -189.5 -34.5t-142.5 -89t-100.5 -132t-67.5 -153.5t-39 -163t-19.5 -151.5t-4.5 -127.5zM809 451q6 -83 29 -148t69.5 -120t128.5 -85t197 -30q104 0 189.5 34.5t142.5 90t100.5 133t67.5 154t39 163.5t19.5 151.5t4.5 127.5q0 267 -149 385 q-2 -80 -20 -162.5t-53.5 -165t-85.5 -158.5t-119.5 -142t-152 -115.5t-187 -79.5t-220.5 -33zM1174 1772l69 67l240 -240l-53 -55z" />
<glyph horiz-adv-x="1892" d="M225 950q0 77 17.5 147t46 121.5t62.5 95.5t68 73t62.5 49.5t46.5 29.5l17 9l39 -68q-11 -5 -29.5 -15.5t-65 -50t-82 -87.5t-65 -130t-29.5 -176q0 -186 106 -289.5t294 -121.5q0 89 8.5 175t29.5 180.5t53.5 177t85 158.5t119.5 129.5t161 85.5t206 32 q249 0 380.5 -144.5t131.5 -408.5q0 -89 -8 -175t-29 -181.5t-53.5 -178t-85 -159t-119.5 -130.5t-160.5 -86t-205.5 -32q-475 0 -512 473q-124 9 -219.5 51t-153.5 109.5t-87.5 152t-29.5 184.5zM807 535q147 4 273.5 56.5t213.5 135.5t149 189t91 217.5t29 220.5 q-85 32 -193 32q-104 0 -189.5 -34.5t-142.5 -89t-100.5 -132t-67.5 -153.5t-39 -163t-19.5 -151.5t-4.5 -127.5zM809 451q6 -83 29 -148t69.5 -120t128.5 -85t197 -30q104 0 189.5 34.5t142.5 90t100.5 133t67.5 154t39 163.5t19.5 151.5t4.5 127.5q0 267 -149 385 q-2 -80 -20 -162.5t-53.5 -165t-85.5 -158.5t-119.5 -142t-152 -115.5t-187 -79.5t-220.5 -33zM1354 1620l305 240l53 -68l-321 -227z" />
<glyph horiz-adv-x="1892" d="M225 950q0 77 17.5 147t46 121.5t62.5 95.5t68 73t62.5 49.5t46.5 29.5l17 9l39 -68q-11 -5 -29.5 -15.5t-65 -50t-82 -87.5t-65 -130t-29.5 -176q0 -186 106 -289.5t294 -121.5q0 89 8.5 175t29.5 180.5t53.5 177t85 158.5t119.5 129.5t161 85.5t206 32 q249 0 380.5 -144.5t131.5 -408.5q0 -89 -8 -175t-29 -181.5t-53.5 -178t-85 -159t-119.5 -130.5t-160.5 -86t-205.5 -32q-475 0 -512 473q-124 9 -219.5 51t-153.5 109.5t-87.5 152t-29.5 184.5zM807 535q147 4 273.5 56.5t213.5 135.5t149 189t91 217.5t29 220.5 q-85 32 -193 32q-104 0 -189.5 -34.5t-142.5 -89t-100.5 -132t-67.5 -153.5t-39 -163t-19.5 -151.5t-4.5 -127.5zM809 451q6 -83 29 -148t69.5 -120t128.5 -85t197 -30q104 0 189.5 34.5t142.5 90t100.5 133t67.5 154t39 163.5t19.5 151.5t4.5 127.5q0 267 -149 385 q-2 -80 -20 -162.5t-53.5 -165t-85.5 -158.5t-119.5 -142t-152 -115.5t-187 -79.5t-220.5 -33zM1155 1595l295 240l229 -240l-57 -51l-186 176l-240 -176z" />
<glyph horiz-adv-x="1892" d="M225 950q0 77 17.5 147t46 121.5t62.5 95.5t68 73t62.5 49.5t46.5 29.5l17 9l39 -68q-11 -5 -29.5 -15.5t-65 -50t-82 -87.5t-65 -130t-29.5 -176q0 -186 106 -289.5t294 -121.5q0 89 8.5 175t29.5 180.5t53.5 177t85 158.5t119.5 129.5t161 85.5t206 32 q249 0 380.5 -144.5t131.5 -408.5q0 -89 -8 -175t-29 -181.5t-53.5 -178t-85 -159t-119.5 -130.5t-160.5 -86t-205.5 -32q-475 0 -512 473q-124 9 -219.5 51t-153.5 109.5t-87.5 152t-29.5 184.5zM807 535q147 4 273.5 56.5t213.5 135.5t149 189t91 217.5t29 220.5 q-85 32 -193 32q-104 0 -189.5 -34.5t-142.5 -89t-100.5 -132t-67.5 -153.5t-39 -163t-19.5 -151.5t-4.5 -127.5zM809 451q6 -83 29 -148t69.5 -120t128.5 -85t197 -30q104 0 189.5 34.5t142.5 90t100.5 133t67.5 154t39 163.5t19.5 151.5t4.5 127.5q0 267 -149 385 q-2 -80 -20 -162.5t-53.5 -165t-85.5 -158.5t-119.5 -142t-152 -115.5t-187 -79.5t-220.5 -33zM1139 1649q2 6 6 16t19.5 35t34 44.5t51.5 35.5t71 16q37 0 69.5 -15.5t52 -34.5t45 -34.5t50.5 -15.5q34 0 61.5 25t38.5 50l11 25l61 -33q-2 -6 -6 -16t-19.5 -35t-34.5 -44.5 t-52 -35.5t-70 -16q-45 0 -83 25t-70.5 50t-63.5 25q-34 0 -61.5 -25t-38.5 -50l-11 -25z" />
<glyph horiz-adv-x="1892" d="M225 950q0 77 17.5 147t46 121.5t62.5 95.5t68 73t62.5 49.5t46.5 29.5l17 9l39 -68q-11 -5 -29.5 -15.5t-65 -50t-82 -87.5t-65 -130t-29.5 -176q0 -186 106 -289.5t294 -121.5q0 89 8.5 175t29.5 180.5t53.5 177t85 158.5t119.5 129.5t161 85.5t206 32 q249 0 380.5 -144.5t131.5 -408.5q0 -89 -8 -175t-29 -181.5t-53.5 -178t-85 -159t-119.5 -130.5t-160.5 -86t-205.5 -32q-475 0 -512 473q-124 9 -219.5 51t-153.5 109.5t-87.5 152t-29.5 184.5zM807 535q147 4 273.5 56.5t213.5 135.5t149 189t91 217.5t29 220.5 q-85 32 -193 32q-104 0 -189.5 -34.5t-142.5 -89t-100.5 -132t-67.5 -153.5t-39 -163t-19.5 -151.5t-4.5 -127.5zM809 451q6 -83 29 -148t69.5 -120t128.5 -85t197 -30q104 0 189.5 34.5t142.5 90t100.5 133t67.5 154t39 163.5t19.5 151.5t4.5 127.5q0 267 -149 385 q-2 -80 -20 -162.5t-53.5 -165t-85.5 -158.5t-119.5 -142t-152 -115.5t-187 -79.5t-220.5 -33zM1163 1692q0 36 22 59t60 23q29 0 44.5 -16.5t15.5 -43.5q0 -36 -22 -59t-58 -23q-29 0 -45.5 16.5t-16.5 43.5zM1548 1692q0 36 22 59t60 23q29 0 44.5 -16.5t15.5 -43.5 q0 -36 -22 -59t-58 -23q-29 0 -45.5 16.5t-16.5 43.5z" />
<glyph horiz-adv-x="1892" d="M225 950q0 77 17.5 147t46 121.5t62.5 95.5t68 73t62.5 49.5t46.5 29.5l17 9l39 -68q-11 -5 -29.5 -15.5t-65 -50t-82 -87.5t-65 -130t-29.5 -176q0 -186 106 -289.5t294 -121.5q0 89 8.5 175t29.5 180.5t53.5 177t85 158.5t119.5 129.5t161 85.5t206 32q125 0 223 -39 l132 262l75 -29l-135 -270q217 -134 217 -477q0 -89 -8 -175t-29 -181.5t-53.5 -178t-85 -159t-119.5 -130.5t-160.5 -86t-205.5 -32q-138 0 -246 43l-143 -287l-76 28l147 295q-173 116 -194 394q-124 9 -219.5 51t-153.5 109.5t-87.5 152t-29.5 184.5zM807 535 q147 4 273.5 56.5t213.5 135.5t149 189t91 217.5t29 220.5q-85 32 -193 32q-104 0 -189.5 -34.5t-142.5 -89t-100.5 -132t-67.5 -153.5t-39 -163t-19.5 -151.5t-4.5 -127.5zM809 451q6 -83 29 -148t69.5 -120t128.5 -85t197 -30q104 0 189.5 34.5t142.5 90t100.5 133 t67.5 154t39 163.5t19.5 151.5t4.5 127.5q0 267 -149 385q-2 -80 -20 -162.5t-53.5 -165t-85.5 -158.5t-119.5 -142t-152 -115.5t-187 -79.5t-220.5 -33z" />
<glyph horiz-adv-x="1382" d="M162 16q0 62 14 122.5t34 102t40.5 75t34.5 49.5l14 16l78 -39q-5 -5 -13.5 -14.5t-29.5 -41t-37 -66.5t-29.5 -90t-13.5 -112q0 -121 58.5 -207.5t153 -127.5t212.5 -41q97 0 180 27t140.5 72.5t98.5 105.5t60 125t19 132q0 47 -11.5 91t-28 78.5t-47 70t-56.5 60.5 t-70.5 57t-74.5 51.5t-81 50.5q-80 49 -127 80.5t-103 80t-86 93.5t-50.5 107.5t-20.5 134.5q0 93 33.5 166.5t87 119.5t126 76t146 42t152.5 12q98 0 191.5 -17.5t137.5 -35.5l45 -17l-36 -80q-17 7 -48 17t-122 27t-177 17q-128 0 -225.5 -33t-158 -107.5t-60.5 -184.5 q0 -58 18.5 -109.5t45.5 -89.5t77 -79.5t92 -69.5t111 -70q55 -33 88.5 -54.5t82 -57t78.5 -64.5t64.5 -71t53.5 -83.5t32 -95t13 -111.5q0 -101 -36 -196t-104.5 -173t-180 -127.5t-249.5 -53.5l-39 -103q30 6 66 6q71 0 117.5 -33t46.5 -102q0 -83 -59 -135.5t-179 -52.5 q-53 0 -98 11t-63 21l-19 11l29 73q64 -40 153 -40q144 0 144 102q0 80 -119 80q-74 0 -137 -21l71 183q-113 9 -201 51t-141.5 106.5t-80.5 141.5t-27 161z" />
<glyph horiz-adv-x="2011" d="M225 860q0 178 95.5 313.5t266 208t390.5 72.5h94l-127 -905q-10 -82 -10 -135q0 -90 23 -155.5t57.5 -101.5t88.5 -57t101.5 -26.5t110.5 -5.5q52 0 93 3.5t90.5 15.5t87.5 32.5t77.5 56.5t68.5 86t52.5 123t36.5 164l98 694q6 47 6 82q0 67 -18 120t-43.5 81.5 t-51 47.5t-43.5 24l-18 6l29 73q10 -2 26 -6t57 -26.5t72.5 -55.5t57.5 -98.5t26 -149.5q0 -41 -6 -90l-98 -702q-22 -158 -69 -267t-123 -176t-176 -96.5t-236 -29.5q-229 0 -350 100t-121 326q0 79 10 143l115 817q-86 0 -171.5 -14.5t-174 -52t-155 -93t-109 -145 t-42.5 -201.5q0 -71 17 -134.5t41 -103.5t48 -69.5t41 -42.5l17 -12l-57 -64q-8 6 -21 17t-46.5 50.5t-59.5 84.5t-47 119.5t-21 154.5zM1196 1833l72 68l239 -240l-53 -55z" />
<glyph horiz-adv-x="2011" d="M225 860q0 178 95.5 313.5t266 208t390.5 72.5h94l-127 -905q-10 -82 -10 -135q0 -90 23 -155.5t57.5 -101.5t88.5 -57t101.5 -26.5t110.5 -5.5q52 0 93 3.5t90.5 15.5t87.5 32.5t77.5 56.5t68.5 86t52.5 123t36.5 164l98 694q6 47 6 82q0 67 -18 120t-43.5 81.5 t-51 47.5t-43.5 24l-18 6l29 73q10 -2 26 -6t57 -26.5t72.5 -55.5t57.5 -98.5t26 -149.5q0 -41 -6 -90l-98 -702q-22 -158 -69 -267t-123 -176t-176 -96.5t-236 -29.5q-229 0 -350 100t-121 326q0 79 10 143l115 817q-86 0 -171.5 -14.5t-174 -52t-155 -93t-109 -145 t-42.5 -201.5q0 -71 17 -134.5t41 -103.5t48 -69.5t41 -42.5l17 -12l-57 -64q-8 6 -21 17t-46.5 50.5t-59.5 84.5t-47 119.5t-21 154.5zM1348 1661l305 240l53 -68l-322 -227z" />
<glyph horiz-adv-x="2011" d="M225 860q0 178 95.5 313.5t266 208t390.5 72.5h94l-127 -905q-10 -82 -10 -135q0 -90 23 -155.5t57.5 -101.5t88.5 -57t101.5 -26.5t110.5 -5.5q52 0 93 3.5t90.5 15.5t87.5 32.5t77.5 56.5t68.5 86t52.5 123t36.5 164l98 694q6 47 6 82q0 67 -18 120t-43.5 81.5 t-51 47.5t-43.5 24l-18 6l29 73q10 -2 26 -6t57 -26.5t72.5 -55.5t57.5 -98.5t26 -149.5q0 -41 -6 -90l-98 -702q-22 -158 -69 -267t-123 -176t-176 -96.5t-236 -29.5q-229 0 -350 100t-121 326q0 79 10 143l115 817q-86 0 -171.5 -14.5t-174 -52t-155 -93t-109 -145 t-42.5 -201.5q0 -71 17 -134.5t41 -103.5t48 -69.5t41 -42.5l17 -12l-57 -64q-8 6 -21 17t-46.5 50.5t-59.5 84.5t-47 119.5t-21 154.5zM1098 1698l295 239l229 -239l-57 -51l-187 176l-239 -176z" />
<glyph horiz-adv-x="2011" d="M225 860q0 178 95.5 313.5t266 208t390.5 72.5h94l-127 -905q-10 -82 -10 -135q0 -90 23 -155.5t57.5 -101.5t88.5 -57t101.5 -26.5t110.5 -5.5q52 0 93 3.5t90.5 15.5t87.5 32.5t77.5 56.5t68.5 86t52.5 123t36.5 164l98 694q6 47 6 82q0 67 -18 120t-43.5 81.5 t-51 47.5t-43.5 24l-18 6l29 73q10 -2 26 -6t57 -26.5t72.5 -55.5t57.5 -98.5t26 -149.5q0 -41 -6 -90l-98 -702q-22 -158 -69 -267t-123 -176t-176 -96.5t-236 -29.5q-229 0 -350 100t-121 326q0 79 10 143l115 817q-86 0 -171.5 -14.5t-174 -52t-155 -93t-109 -145 t-42.5 -201.5q0 -71 17 -134.5t41 -103.5t48 -69.5t41 -42.5l17 -12l-57 -64q-8 6 -21 17t-46.5 50.5t-59.5 84.5t-47 119.5t-21 154.5zM1087 1753q0 36 22 59t60 23q27 0 43.5 -16.5t16.5 -42.5q0 -36 -22 -59t-58 -23q-29 0 -45.5 16t-16.5 43zM1473 1753q0 36 22 59 t59 23q28 0 44 -16.5t16 -42.5q0 -36 -22 -59t-58 -23q-29 0 -45 16t-16 43z" />
<glyph horiz-adv-x="1753" d="M225 879q0 262 180 418.5t484 156.5h31l346 -928l350 514q69 103 99 164.5t30 120.5q0 43 -16.5 76.5t-39.5 50.5t-46 27.5t-39 12.5l-17 3l27 82q9 -1 24 -4.5t53.5 -20.5t68 -41.5t53.5 -72t24 -107.5q0 -137 -131 -323l-401 -578l-23 -154q-33 -227 -160 -344.5 t-323 -117.5q-47 0 -91 6.5t-73 16t-51 19.5t-32 16l-11 7l37 74q9 -6 26.5 -14.5t74 -22.5t116.5 -14q94 0 167 31.5t118.5 86.5t71.5 118.5t36 137.5l20 154l-352 936q-80 -2 -154 -18t-146.5 -52.5t-125 -90t-85 -137.5t-32.5 -189q0 -76 17 -143.5t41 -109t48 -72 t41 -43.5l17 -13l-57 -64q-8 6 -21 17.5t-46.5 52t-59.5 88t-47 125t-21 162.5zM1206 1661l305 240l54 -68l-322 -227z" />
<glyph d="M-612 1956q6 3 17.5 9t49 21t78 26t103 20.5t124.5 9.5q68 0 137 -12t121.5 -27t124 -45.5t112.5 -50.5t120.5 -60.5t116.5 -58.5q133 296 361 450t525 154q139 0 248.5 -40.5t177.5 -128.5t68 -212q0 -233 -184.5 -360t-524.5 -127q-311 0 -622 143q-65 -177 -90 -369 l-29 -198q148 53 311 53q424 0 424 -453q0 -364 -162 -542t-448 -178q-62 0 -122.5 8.5t-102 20t-75 23.5t-49.5 20l-16 9l174 1237q28 211 101 408q-36 18 -114.5 58t-118.5 59.5t-110.5 49.5t-121.5 44t-118.5 25.5t-133.5 11.5q-172 0 -330 -70zM285 115q133 -49 266 -49 q135 0 235 45.5t160 131t88.5 198.5t28.5 257q0 190 -83 279.5t-267 89.5q-158 0 -303 -51zM573 1749q306 -137 607 -137q130 0 233 22t170 59t111.5 88.5t63 107t18.5 118.5q0 134 -104.5 215.5t-297.5 81.5q-93 0 -181 -18t-178 -59.5t-168.5 -104.5t-149.5 -158 t-124 -215z" />
</font>
</defs>
</svg>
